<?xml version="1.0" encoding="UTF-8"?>
<!DOCTYPE svg PUBLIC "-//W3C//DTD SVG 1.1//EN" "http://www.w3.org/Graphics/SVG/1.1/DTD/svg11.dtd">
<svg xmlns="http://www.w3.org/2000/svg" version="1.1" width="512px" height="512px" style="shape-rendering:geometricPrecision; text-rendering:geometricPrecision; image-rendering:optimizeQuality; fill-rule:evenodd; clip-rule:evenodd" xmlns:xlink="http://www.w3.org/1999/xlink">
<g><path style="opacity:0.987" fill="#0f73a5" d="M 233.5,15.5 C 316.934,10.4872 386.101,39.1538 441,101.5C 493.742,169.547 508.408,245.214 485,328.5C 455.244,413.59 396.744,467.423 309.5,490C 232.386,505.719 163.052,489.385 101.5,441C 36.216,383.215 8.04932,310.715 17,223.5C 33.7664,125.407 88.933,59.5736 182.5,26C 199.36,21.1287 216.36,17.6287 233.5,15.5 Z"/></g>
<g><path style="opacity:1" fill="#2fc0f3" d="M 241.5,47.5 C 327.341,45.6557 392.508,80.989 437,153.5C 473.442,224.553 472.109,294.887 433,364.5C 387.707,432.568 323.873,465.401 241.5,463C 159.558,454.477 100.725,413.31 65,339.5C 37.9536,273.011 42.287,208.678 78,146.5C 116.445,87.3455 170.945,54.3455 241.5,47.5 Z"/></g>
<g><path style="opacity:0.997" fill="#fdfefe" d="M 250.5,95.5 C 266.656,95.1474 273.156,102.814 270,118.5C 264.889,126.76 257.723,129.26 248.5,126C 239.427,120.109 237.26,112.276 242,102.5C 244.441,99.5464 247.275,97.2131 250.5,95.5 Z"/></g>
<g><path style="opacity:0.999" fill="#fefefe" d="M 245.5,143.5 C 284.619,141.805 309.119,159.805 319,197.5C 319.667,239.5 319.667,281.5 319,323.5C 316.5,328.667 312.667,332.5 307.5,335C 262.167,335.667 216.833,335.667 171.5,335C 160.093,330.121 156.926,321.954 162,310.5C 164.365,307.131 167.532,304.964 171.5,304C 210.165,303.5 248.832,303.333 287.5,303.5C 287.833,289.817 287.499,276.15 286.5,262.5C 256.242,277.898 229.409,273.231 206,248.5C 187.98,223.161 186.98,197.161 203,170.5C 214.081,156.548 228.248,147.548 245.5,143.5 Z"/></g>
<g><path style="opacity:1" fill="#31c1f4" d="M 249.5,175.5 C 276.935,175.749 289.101,189.416 286,216.5C 279.68,233.253 267.513,240.753 249.5,239C 230.748,233.566 222.248,221.066 224,201.5C 227.348,187.653 235.848,178.986 249.5,175.5 Z"/></g>
<g><path style="opacity:0.999" fill="#fefefe" d="M 251.5,351.5 C 260.871,350.772 267.371,354.772 271,363.5C 271.667,376.833 271.667,390.167 271,403.5C 265.837,414.671 257.671,417.838 246.5,413C 243.469,410.441 241.302,407.274 240,403.5C 239.333,390.167 239.333,376.833 240,363.5C 242.019,357.65 245.852,353.65 251.5,351.5 Z"/></g>
</svg>
