<?xml version="1.0" encoding="UTF-8"?>
<!DOCTYPE svg PUBLIC "-//W3C//DTD SVG 1.1//EN" "http://www.w3.org/Graphics/SVG/1.1/DTD/svg11.dtd">
<svg xmlns="http://www.w3.org/2000/svg" version="1.1" width="48px" height="48px" style="shape-rendering:geometricPrecision; text-rendering:geometricPrecision; image-rendering:optimizeQuality; fill-rule:evenodd; clip-rule:evenodd" xmlns:xlink="http://www.w3.org/1999/xlink">
<g><path style="opacity:0.962" fill="#fd3c00" d="M 16.5,3.5 C 36.6499,1.48275 45.4833,10.4828 43,30.5C 37.6574,41.7523 28.8241,45.9189 16.5,43C 5.24773,37.6574 1.08107,28.8241 4,16.5C 6.35314,10.3154 10.5198,5.98203 16.5,3.5 Z"/></g>
<g><path style="opacity:1" fill="#704234" d="M 27.5,17.5 C 27.189,18.4778 26.5223,19.1445 25.5,19.5C 24.1667,18.1667 22.8333,18.1667 21.5,19.5C 20.4777,19.1445 19.811,18.4778 19.5,17.5C 19.3691,16.6236 19.7025,15.9569 20.5,15.5C 21.5,16.1667 22.5,16.8333 23.5,17.5C 24.5,16.8333 25.5,16.1667 26.5,15.5C 27.2975,15.9569 27.6309,16.6236 27.5,17.5 Z"/></g>
<g><path style="opacity:1" fill="#474240" d="M 18.5,17.5 C 18.8333,17.5 19.1667,17.5 19.5,17.5C 19.811,18.4778 20.4777,19.1445 21.5,19.5C 22.8333,18.1667 24.1667,18.1667 25.5,19.5C 26.5223,19.1445 27.189,18.4778 27.5,17.5C 27.8333,17.5 28.1667,17.5 28.5,17.5C 28.5,19.8333 28.5,22.1667 28.5,24.5C 27.325,24.281 26.325,24.6143 25.5,25.5C 25.457,27.8181 25.1236,30.1514 24.5,32.5C 23.8333,33.8333 23.1667,33.8333 22.5,32.5C 21.4647,30.795 21.4647,29.1284 22.5,27.5C 21.8333,26.1667 20.8333,25.1667 19.5,24.5C 18.5258,22.2573 18.1924,19.924 18.5,17.5 Z"/></g>
<g><path style="opacity:1" fill="#9c4024" d="M 18.5,17.5 C 18.1924,19.924 18.5258,22.2573 19.5,24.5C 20.8333,25.1667 21.8333,26.1667 22.5,27.5C 21.4647,29.1284 21.4647,30.795 22.5,32.5C 21.0337,31.653 20.2004,30.3197 20,28.5C 17.1469,30.8809 15.6469,30.5475 15.5,27.5C 15.7092,26.0055 16.3759,24.8388 17.5,24C 15.3628,21.8209 15.0295,19.3209 16.5,16.5C 17.1835,16.8627 17.8501,17.1961 18.5,17.5 Z"/></g>
<g><path style="opacity:1" fill="#9b4124" d="M 24.5,32.5 C 25.1236,30.1514 25.457,27.8181 25.5,25.5C 26.325,24.6143 27.325,24.281 28.5,24.5C 28.5,22.1667 28.5,19.8333 28.5,17.5C 30.5627,16.2892 31.5627,17.1226 31.5,20C 31.3248,21.6581 30.6582,22.9914 29.5,24C 31.4181,25.7702 31.9181,27.9369 31,30.5C 29.6667,29.8333 28.3333,29.1667 27,28.5C 26.7996,30.3197 25.9663,31.653 24.5,32.5 Z"/></g>
</svg>
