<?xml version="1.0" encoding="UTF-8"?>
<!DOCTYPE svg PUBLIC "-//W3C//DTD SVG 1.1//EN" "http://www.w3.org/Graphics/SVG/1.1/DTD/svg11.dtd">
<svg xmlns="http://www.w3.org/2000/svg" version="1.1" width="512px" height="512px" style="shape-rendering:geometricPrecision; text-rendering:geometricPrecision; image-rendering:optimizeQuality; fill-rule:evenodd; clip-rule:evenodd" xmlns:xlink="http://www.w3.org/1999/xlink">
<g><path style="opacity:0.963" fill="#000000" d="M 232.5,-0.5 C 247.833,-0.5 263.167,-0.5 278.5,-0.5C 358.893,9.09801 422.393,46.7647 469,112.5C 492.821,149.131 506.987,189.131 511.5,232.5C 511.5,247.833 511.5,263.167 511.5,278.5C 501.902,358.893 464.235,422.393 398.5,469C 361.869,492.821 321.869,506.987 278.5,511.5C 263.167,511.5 247.833,511.5 232.5,511.5C 152.107,501.902 88.6066,464.235 42,398.5C 18.1791,361.868 4.01239,321.868 -0.5,278.5C -0.5,263.167 -0.5,247.833 -0.5,232.5C 9.09756,152.108 46.7642,88.6077 112.5,42C 149.131,18.1794 189.131,4.01272 232.5,-0.5 Z M 236.5,30.5 C 318.573,26.7997 385.073,56.7997 436,120.5C 484.453,189.895 493.453,264.228 463,343.5C 425.483,423.648 362.65,469.148 274.5,480C 192.404,484.189 125.904,454.356 75,390.5C 31.4155,329.226 19.7489,262.226 40,189.5C 66.2644,112.235 118.431,61.7355 196.5,38C 209.819,34.6344 223.152,32.1344 236.5,30.5 Z"/></g>
<g><path style="opacity:0.968" fill="#000000" d="M 214.5,74.5 C 257.209,72.2517 285.376,91.2517 299,131.5C 299.912,135.795 300.579,140.128 301,144.5C 301.5,171.165 301.667,197.831 301.5,224.5C 321.5,224.5 341.5,224.5 361.5,224.5C 361.5,234.833 361.5,245.167 361.5,255.5C 341.5,255.5 321.5,255.5 301.5,255.5C 301.5,265.5 301.5,275.5 301.5,285.5C 321.5,285.5 341.5,285.5 361.5,285.5C 361.5,295.833 361.5,306.167 361.5,316.5C 341.5,316.5 321.5,316.5 301.5,316.5C 301.5,351.5 301.5,386.5 301.5,421.5C 291.167,421.5 280.833,421.5 270.5,421.5C 270.5,386.5 270.5,351.5 270.5,316.5C 240.167,316.5 209.833,316.5 179.5,316.5C 179.5,306.167 179.5,295.833 179.5,285.5C 209.833,285.5 240.167,285.5 270.5,285.5C 270.5,275.5 270.5,265.5 270.5,255.5C 240.167,255.5 209.833,255.5 179.5,255.5C 179.5,245.167 179.5,234.833 179.5,224.5C 209.833,224.5 240.167,224.5 270.5,224.5C 270.92,196.472 270.42,168.472 269,140.5C 261.161,115.987 244.328,104.487 218.5,106C 199.63,109.87 187.463,121.037 182,139.5C 180.615,153.121 180.115,166.788 180.5,180.5C 170.167,180.5 159.833,180.5 149.5,180.5C 149.333,167.496 149.5,154.496 150,141.5C 154.531,111.59 170.698,90.7568 198.5,79C 203.956,77.4732 209.289,75.9732 214.5,74.5 Z"/></g>
</svg>
