<?xml version="1.0" encoding="UTF-8"?>
<!DOCTYPE svg PUBLIC "-//W3C//DTD SVG 1.1//EN" "http://www.w3.org/Graphics/SVG/1.1/DTD/svg11.dtd">
<svg xmlns="http://www.w3.org/2000/svg" version="1.1" width="512px" height="512px" style="shape-rendering:geometricPrecision; text-rendering:geometricPrecision; image-rendering:optimizeQuality; fill-rule:evenodd; clip-rule:evenodd" xmlns:xlink="http://www.w3.org/1999/xlink">
<g><path style="opacity:0.965" fill="#000000" d="M 233.5,15.5 C 316.934,10.4872 386.101,39.1538 441,101.5C 493.742,169.547 508.408,245.214 485,328.5C 455.244,413.59 396.744,467.423 309.5,490C 232.386,505.719 163.052,489.385 101.5,441C 36.216,383.215 8.04932,310.715 17,223.5C 33.7664,125.407 88.933,59.5736 182.5,26C 199.36,21.1287 216.36,17.6287 233.5,15.5 Z M 254.5,47.5 C 325.739,49.5325 382.572,78.8659 425,135.5C 464.286,194.509 472.953,257.842 451,325.5C 427.1,387.733 383.767,430.066 321,452.5C 244.532,474.92 176.032,460.42 115.5,409C 61.9558,357.373 40.4558,294.539 51,220.5C 69.2994,134.2 120.799,78.7003 205.5,54C 221.785,50.3234 238.118,48.1567 254.5,47.5 Z"/></g>
<g><path style="opacity:0.979" fill="#000000" d="M 277.5,111.5 C 306.802,109.055 325.969,121.722 335,149.5C 339.16,167.987 331.993,176.487 313.5,175C 310.438,173.939 307.938,172.106 306,169.5C 303.924,164.727 302.591,159.727 302,154.5C 296.705,144.277 288.872,141.777 278.5,147C 274.618,150.264 272.451,154.43 272,159.5C 271.5,178.164 271.333,196.83 271.5,215.5C 284.171,215.333 296.838,215.5 309.5,216C 316.487,218.807 319.82,223.973 319.5,231.5C 319.82,239.027 316.487,244.193 309.5,247C 296.838,247.5 284.171,247.667 271.5,247.5C 271.667,285.501 271.5,323.501 271,361.5C 259.698,393.735 237.532,405.235 204.5,396C 181.53,384.562 172.696,366.395 178,341.5C 183.319,335.833 189.819,333.999 197.5,336C 200.562,337.061 203.062,338.894 205,341.5C 207.076,346.273 208.409,351.273 209,356.5C 212.909,364.871 219.409,368.037 228.5,366C 235.053,363.399 238.553,358.566 239,351.5C 239.5,316.835 239.667,282.168 239.5,247.5C 225.76,247.946 212.093,247.446 198.5,246C 193.112,242.534 190.779,237.534 191.5,231C 191.28,223.565 194.614,218.565 201.5,216C 214.162,215.5 226.829,215.333 239.5,215.5C 239.333,193.497 239.5,171.497 240,149.5C 245.349,129.652 257.849,116.985 277.5,111.5 Z"/></g>
</svg>
