<?xml version="1.0" encoding="UTF-8"?>
<!DOCTYPE svg PUBLIC "-//W3C//DTD SVG 1.1//EN" "http://www.w3.org/Graphics/SVG/1.1/DTD/svg11.dtd">
<svg xmlns="http://www.w3.org/2000/svg" version="1.1" width="512px" height="512px" style="shape-rendering:geometricPrecision; text-rendering:geometricPrecision; image-rendering:optimizeQuality; fill-rule:evenodd; clip-rule:evenodd" xmlns:xlink="http://www.w3.org/1999/xlink">
<g><path style="opacity:0.969" fill="#000000" d="M 232.5,31.5 C 237.5,31.5 242.5,31.5 247.5,31.5C 247.5,45.8333 247.5,60.1667 247.5,74.5C 203.778,77.0089 165.611,92.6756 133,121.5C 122.361,112.028 112.194,102.028 102.5,91.5C 139.214,57.4696 182.548,37.4696 232.5,31.5 Z"/></g>
<g><path style="opacity:0.969" fill="#000000" d="M 263.5,31.5 C 319.468,33.586 367.801,53.586 408.5,91.5C 398.514,101.986 388.348,112.319 378,122.5C 345.888,92.3973 307.721,76.3973 263.5,74.5C 263.5,60.1667 263.5,45.8333 263.5,31.5 Z"/></g>
<g><path style="opacity:0.985" fill="#000000" d="M 242.5,89.5 C 311.205,87.0958 363.705,114.763 400,172.5C 425.296,220.448 428.296,269.782 409,320.5C 382.255,378.642 337.088,412.142 273.5,421C 229.97,424.203 190.303,413.536 154.5,389C 111.91,354.982 90.2436,310.482 89.5,255.5C 90.2963,205.761 108.63,163.928 144.5,130C 173.056,106.645 205.723,93.1454 242.5,89.5 Z M 181.5,191.5 C 185.684,190.704 188.85,192.037 191,195.5C 191.167,209.179 191.667,222.846 192.5,236.5C 207.319,222.181 221.986,207.681 236.5,193C 246.667,189.833 250.167,193.333 247,203.5C 229.653,220.681 212.486,238.014 195.5,255.5C 212.486,272.986 229.653,290.319 247,307.5C 249.54,312.097 248.707,315.93 244.5,319C 241.697,319.755 239.03,319.422 236.5,318C 221.986,303.319 207.319,288.819 192.5,274.5C 191.667,288.154 191.167,301.821 191,315.5C 188.019,319.696 184.186,320.529 179.5,318C 178.874,317.25 178.374,316.416 178,315.5C 176.351,276.56 176.018,237.56 177,198.5C 177.53,195.415 179.03,193.082 181.5,191.5 Z M 266.5,234.5 C 287.503,234.333 308.503,234.5 329.5,235C 333.509,237.691 334.675,241.191 333,245.5C 317.311,264.355 301.811,283.355 286.5,302.5C 300.822,303.333 315.155,303.833 329.5,304C 334.364,308.035 334.698,312.368 330.5,317C 309.589,318.643 288.589,318.977 267.5,318C 261.854,314.5 261.021,310 265,304.5C 280.524,286.611 295.691,268.444 310.5,250C 295.432,249.952 280.432,249.285 265.5,248C 261.285,243.134 261.618,238.634 266.5,234.5 Z"/></g>
<g><path style="opacity:0.966" fill="#000000" d="M 91.5,102.5 C 102.426,111.758 112.76,121.758 122.5,132.5C 93.0648,165.059 77.0648,203.392 74.5,247.5C 60.1667,247.5 45.8333,247.5 31.5,247.5C 33.6509,191.562 53.6509,143.228 91.5,102.5 Z"/></g>
<g><path style="opacity:0.969" fill="#000000" d="M 418.5,102.5 C 421.394,103.882 423.894,105.882 426,108.5C 459.676,148.554 477.843,194.888 480.5,247.5C 465.921,247.824 451.421,247.49 437,246.5C 434.171,203.034 418.338,165.2 389.5,133C 398.993,122.674 408.66,112.507 418.5,102.5 Z"/></g>
<g><path style="opacity:0.969" fill="#000000" d="M 31.5,263.5 C 45.8333,263.5 60.1667,263.5 74.5,263.5C 77.0089,307.222 92.6756,345.389 121.5,378C 112.028,388.639 102.028,398.806 91.5,408.5C 53.2042,367.996 33.2042,319.663 31.5,263.5 Z"/></g>
<g><path style="opacity:0.965" fill="#000000" d="M 436.5,263.5 C 450.833,263.5 465.167,263.5 479.5,263.5C 477.506,319.79 457.173,368.124 418.5,408.5C 408.167,398.833 398.167,388.833 388.5,378.5C 417.935,345.941 433.935,307.608 436.5,263.5 Z"/></g>
<g><path style="opacity:0.969" fill="#000000" d="M 132.5,388.5 C 164.98,418.116 203.314,434.116 247.5,436.5C 247.5,450.833 247.5,465.167 247.5,479.5C 191.526,477.412 143.193,457.412 102.5,419.5C 112.521,409.146 122.521,398.813 132.5,388.5 Z"/></g>
<g><path style="opacity:0.969" fill="#000000" d="M 376.5,389.5 C 377.552,389.351 378.552,389.517 379.5,390C 389.348,399.681 399.014,409.514 408.5,419.5C 367.879,457.504 319.545,477.838 263.5,480.5C 263.176,465.921 263.51,451.421 264.5,437C 307.731,434.443 345.064,418.609 376.5,389.5 Z"/></g>
</svg>
