<?xml version="1.0" encoding="UTF-8"?>
<!DOCTYPE svg PUBLIC "-//W3C//DTD SVG 1.1//EN" "http://www.w3.org/Graphics/SVG/1.1/DTD/svg11.dtd">
<svg xmlns="http://www.w3.org/2000/svg" version="1.1" width="512px" height="512px" style="shape-rendering:geometricPrecision; text-rendering:geometricPrecision; image-rendering:optimizeQuality; fill-rule:evenodd; clip-rule:evenodd" xmlns:xlink="http://www.w3.org/1999/xlink">
<g><path style="opacity:0.959" fill="#000000" d="M 233.5,-0.5 C 248.5,-0.5 263.5,-0.5 278.5,-0.5C 368.144,10.3879 435.644,54.7213 481,132.5C 497.695,163.971 507.861,197.304 511.5,232.5C 511.5,247.5 511.5,262.5 511.5,277.5C 499.016,377.807 447.016,449.307 355.5,492C 330.316,502.296 304.316,508.796 277.5,511.5C 262.5,511.5 247.5,511.5 232.5,511.5C 130.434,498.225 58.6008,444.558 17,350.5C 8.0309,327.127 2.19757,303.127 -0.5,278.5C -0.5,263.167 -0.5,247.833 -0.5,232.5C 9.30698,148.242 49.6403,83.0754 120.5,37C 155.422,15.9704 193.088,3.4704 233.5,-0.5 Z M 251.5,27.5 C 339.851,29.5692 407.018,67.9025 453,142.5C 486.022,203.007 491.689,266.007 470,331.5C 440.298,407.276 386.132,455.776 307.5,477C 221.529,493.785 148.029,470.951 87,408.5C 27.7273,337.881 13.3939,258.881 44,171.5C 74.9245,99.9117 128.091,54.0783 203.5,34C 219.478,30.5431 235.478,28.3764 251.5,27.5 Z M 287.5,96.5 C 318.664,93.8208 340.164,106.821 352,135.5C 353.691,141.754 354.857,148.088 355.5,154.5C 344.854,155.499 334.187,155.832 323.5,155.5C 322.42,134.596 311.42,125.429 290.5,128C 281,130.833 274.833,137 272,146.5C 271.5,172.165 271.333,197.831 271.5,223.5C 288.833,223.5 306.167,223.5 323.5,223.5C 323.5,228.833 323.5,234.167 323.5,239.5C 306.167,239.5 288.833,239.5 271.5,239.5C 271.943,282.189 271.443,324.856 270,367.5C 262.382,396.612 243.549,412.612 213.5,415.5C 183.447,412.608 164.614,396.608 157,367.5C 155.872,358.2 155.372,348.866 155.5,339.5C 166.167,339.5 176.833,339.5 187.5,339.5C 187.334,347.84 187.5,356.173 188,364.5C 193.6,379.557 204.433,385.723 220.5,383C 230,380.167 236.167,374 239,364.5C 239.5,322.835 239.667,281.168 239.5,239.5C 230.167,239.5 220.833,239.5 211.5,239.5C 211.5,234.167 211.5,228.833 211.5,223.5C 220.833,223.5 230.167,223.5 239.5,223.5C 239.333,200.164 239.5,176.831 240,153.5C 242.655,123.357 258.489,104.357 287.5,96.5 Z"/></g>
<g><path style="opacity:0.992" fill="#000000" d="M 234.5,35.5 C 309.821,30.6454 372.654,55.9787 423,111.5C 472.541,172.859 487.208,241.859 467,318.5C 442.544,392.99 393.044,442.49 318.5,467C 228.108,489.705 151.275,467.205 88,399.5C 38.4578,338.134 23.7911,269.134 44,192.5C 67.6708,118.829 116.171,69.6626 189.5,45C 204.381,40.592 219.381,37.4253 234.5,35.5 Z M 287.5,96.5 C 258.489,104.357 242.655,123.357 240,153.5C 239.5,176.831 239.333,200.164 239.5,223.5C 230.167,223.5 220.833,223.5 211.5,223.5C 211.5,228.833 211.5,234.167 211.5,239.5C 220.833,239.5 230.167,239.5 239.5,239.5C 239.667,281.168 239.5,322.835 239,364.5C 236.167,374 230,380.167 220.5,383C 204.433,385.723 193.6,379.557 188,364.5C 187.5,356.173 187.334,347.84 187.5,339.5C 176.833,339.5 166.167,339.5 155.5,339.5C 155.372,348.866 155.872,358.2 157,367.5C 164.614,396.608 183.447,412.608 213.5,415.5C 243.549,412.612 262.382,396.612 270,367.5C 271.443,324.856 271.943,282.189 271.5,239.5C 288.833,239.5 306.167,239.5 323.5,239.5C 323.5,234.167 323.5,228.833 323.5,223.5C 306.167,223.5 288.833,223.5 271.5,223.5C 271.333,197.831 271.5,172.165 272,146.5C 274.833,137 281,130.833 290.5,128C 311.42,125.429 322.42,134.596 323.5,155.5C 334.187,155.832 344.854,155.499 355.5,154.5C 354.857,148.088 353.691,141.754 352,135.5C 340.164,106.821 318.664,93.8208 287.5,96.5 Z"/></g>
</svg>
