<?xml version="1.0" encoding="UTF-8"?>
<!DOCTYPE svg PUBLIC "-//W3C//DTD SVG 1.1//EN" "http://www.w3.org/Graphics/SVG/1.1/DTD/svg11.dtd">
<svg xmlns="http://www.w3.org/2000/svg" version="1.1" width="48px" height="48px" style="shape-rendering:geometricPrecision; text-rendering:geometricPrecision; image-rendering:optimizeQuality; fill-rule:evenodd; clip-rule:evenodd" xmlns:xlink="http://www.w3.org/1999/xlink">
<g><path style="opacity:0.979" fill="#0e5fa6" d="M 27.5,3.5 C 24.2317,8.10727 20.5651,12.4406 16.5,16.5C 12.5,16.5 8.5,16.5 4.5,16.5C 8.68504,6.23573 16.3517,1.9024 27.5,3.5 Z"/></g>
<g><path style="opacity:0.989" fill="#0f5c9f" d="M 27.5,3.5 C 30.3798,3.94024 33.0465,4.94024 35.5,6.5C 33.2369,10.1029 30.5703,13.4362 27.5,16.5C 24.1667,16.5 20.8333,16.5 17.5,16.5C 17.1667,16.5 16.8333,16.5 16.5,16.5C 20.5651,12.4406 24.2317,8.10727 27.5,3.5 Z"/></g>
<g><path style="opacity:0.968" fill="#125999" d="M 35.5,6.5 C 39.3073,8.77474 41.6407,12.1081 42.5,16.5C 39.5,16.5 36.5,16.5 33.5,16.5C 31.5,16.5 29.5,16.5 27.5,16.5C 30.5703,13.4362 33.2369,10.1029 35.5,6.5 Z"/></g>
<g><path style="opacity:0.972" fill="#f14753" d="M 4.5,16.5 C 8.5,16.5 12.5,16.5 16.5,16.5C 16.8333,16.5 17.1667,16.5 17.5,16.5C 13.1028,20.8918 9.10285,25.5584 5.5,30.5C 5.16667,30.5 4.83333,30.5 4.5,30.5C 3.16667,25.8333 3.16667,21.1667 4.5,16.5 Z"/></g>
<g><path style="opacity:1" fill="#ee404d" d="M 17.5,16.5 C 20.8333,16.5 24.1667,16.5 27.5,16.5C 29.5,16.5 31.5,16.5 33.5,16.5C 30.9334,18.7067 29.2667,21.3734 28.5,24.5C 27.0736,25.3412 25.7403,26.3412 24.5,27.5C 21.0902,26.9057 19.9236,24.9057 21,21.5C 25.6661,19.9477 25.4994,19.4477 20.5,20C 17.6938,22.9372 18.0271,25.4372 21.5,27.5C 20.8333,28.5 20.1667,29.5 19.5,30.5C 14.8333,30.5 10.1667,30.5 5.5,30.5C 9.10285,25.5584 13.1028,20.8918 17.5,16.5 Z"/></g>
<g><path style="opacity:0.986" fill="#e92e3c" d="M 33.5,16.5 C 36.5,16.5 39.5,16.5 42.5,16.5C 45.1667,21.1667 45.1667,25.8333 42.5,30.5C 39.8333,30.5 37.1667,30.5 34.5,30.5C 31.8333,30.5 29.1667,30.5 26.5,30.5C 24.1667,30.5 21.8333,30.5 19.5,30.5C 20.1667,29.5 20.8333,28.5 21.5,27.5C 22.5,27.5 23.5,27.5 24.5,27.5C 25.7403,26.3412 27.0736,25.3412 28.5,24.5C 29.2667,21.3734 30.9334,18.7067 33.5,16.5 Z"/></g>
<g><path style="opacity:1" fill="#f0cacf" d="M 24.5,27.5 C 23.5,27.5 22.5,27.5 21.5,27.5C 18.0271,25.4372 17.6938,22.9372 20.5,20C 25.4994,19.4477 25.6661,19.9477 21,21.5C 19.9236,24.9057 21.0902,26.9057 24.5,27.5 Z"/></g>
<g><path style="opacity:1" fill="#f1dce0" d="M 28.5,24.5 C 27.325,24.719 26.325,24.3857 25.5,23.5C 27.0517,22.2021 28.0517,22.5354 28.5,24.5 Z"/></g>
<g><path style="opacity:0.979" fill="#139550" d="M 4.5,30.5 C 4.83333,30.5 5.16667,30.5 5.5,30.5C 10.1667,30.5 14.8333,30.5 19.5,30.5C 21.8333,30.5 24.1667,30.5 26.5,30.5C 22.7668,34.2272 19.4335,38.2272 16.5,42.5C 10.8552,40.1885 6.85519,36.1885 4.5,30.5 Z"/></g>
<g><path style="opacity:0.993" fill="#0d8c4a" d="M 26.5,30.5 C 29.1667,30.5 31.8333,30.5 34.5,30.5C 30.5,34.8333 26.5,39.1667 22.5,43.5C 20.3792,43.6747 18.3792,43.3414 16.5,42.5C 19.4335,38.2272 22.7668,34.2272 26.5,30.5 Z"/></g>
<g><path style="opacity:0.939" fill="#0a8545" d="M 34.5,30.5 C 37.1667,30.5 39.8333,30.5 42.5,30.5C 39.1958,39.8284 32.5291,44.1617 22.5,43.5C 26.5,39.1667 30.5,34.8333 34.5,30.5 Z"/></g>
</svg>
