<?xml version="1.0" encoding="UTF-8"?>
<!DOCTYPE svg PUBLIC "-//W3C//DTD SVG 1.1//EN" "http://www.w3.org/Graphics/SVG/1.1/DTD/svg11.dtd">
<svg xmlns="http://www.w3.org/2000/svg" version="1.1" width="512px" height="512px" style="shape-rendering:geometricPrecision; text-rendering:geometricPrecision; image-rendering:optimizeQuality; fill-rule:evenodd; clip-rule:evenodd" xmlns:xlink="http://www.w3.org/1999/xlink">
<g><path style="opacity:1" fill="#fff59e" d="M 232.5,-0.5 C 247.833,-0.5 263.167,-0.5 278.5,-0.5C 375.141,11.893 445.308,61.5596 489,148.5C 494.015,159.528 498.182,170.862 501.5,182.5C 500.761,182.369 500.094,182.536 499.5,183C 488.965,193.702 478.298,204.202 467.5,214.5C 459.326,172.811 440.659,136.811 411.5,106.5C 410.833,105.5 410.167,104.5 409.5,103.5C 417.408,94.0877 425.908,85.0877 435,76.5C 434.107,73.5638 432.274,71.0638 429.5,69C 421.25,62.2509 412.584,56.0843 403.5,50.5C 395.092,59.91 386.092,68.5766 376.5,76.5C 352.188,60.6194 325.855,49.6194 297.5,43.5C 305.631,34.8683 313.964,26.3683 322.5,18C 219.461,-1.87833 133.961,27.955 66,107.5C 17.1428,171.759 1.14284,243.425 18,322.5C 26.3683,313.964 34.8683,305.631 43.5,297.5C 49.6194,325.855 60.6194,352.188 76.5,376.5C 68.5766,386.092 59.91,395.092 50.5,403.5C 57.4083,414.809 65.4083,425.309 74.5,435C 75.1667,435.667 75.8333,435.667 76.5,435C 85.3963,426.272 94.0629,417.438 102.5,408.5C 104.167,409.833 105.833,411.167 107.5,412.5C 137.654,441.08 173.321,459.413 214.5,467.5C 204.202,478.298 193.702,488.965 183,499.5C 182.536,500.094 182.369,500.761 182.5,501.5C 106.176,477.346 51.6757,428.679 19,355.5C 8.86392,330.621 2.36392,304.954 -0.5,278.5C -0.5,263.167 -0.5,247.833 -0.5,232.5C 10.3875,142.857 54.7208,75.3573 132.5,30C 163.971,13.3053 197.304,3.1386 232.5,-0.5 Z"/></g>
<g><path style="opacity:1" fill="#fee56e" d="M 297.5,43.5 C 214.232,29.9748 144.732,54.6414 89,117.5C 47.1438,170.574 31.9771,230.574 43.5,297.5C 34.8683,305.631 26.3683,313.964 18,322.5C 1.14284,243.425 17.1428,171.759 66,107.5C 133.961,27.955 219.461,-1.87833 322.5,18C 313.964,26.3683 305.631,34.8683 297.5,43.5 Z"/></g>
<g><path style="opacity:1" fill="#fabe32" d="M 297.5,43.5 C 325.855,49.6194 352.188,60.6194 376.5,76.5C 388.347,84.3353 399.347,93.3353 409.5,103.5C 410.167,104.5 410.833,105.5 411.5,106.5C 409.938,106.267 408.605,105.6 407.5,104.5C 354.402,62.7277 294.402,48.2277 227.5,61C 145.77,81.396 91.6036,131.563 65,211.5C 47.6725,275.568 56.6725,335.568 92,391.5C 95.945,397.084 100.112,402.417 104.5,407.5C 105.925,408.922 106.925,410.589 107.5,412.5C 105.833,411.167 104.167,409.833 102.5,408.5C 92.8645,398.527 84.1978,387.861 76.5,376.5C 60.6194,352.188 49.6194,325.855 43.5,297.5C 31.9771,230.574 47.1438,170.574 89,117.5C 144.732,54.6414 214.232,29.9748 297.5,43.5 Z"/></g>
<g><path style="opacity:1" fill="#fee66e" d="M 409.5,103.5 C 399.347,93.3353 388.347,84.3353 376.5,76.5C 386.092,68.5766 395.092,59.91 403.5,50.5C 412.584,56.0843 421.25,62.2509 429.5,69C 432.274,71.0638 434.107,73.5638 435,76.5C 425.908,85.0877 417.408,94.0877 409.5,103.5 Z"/></g>
<g><path style="opacity:1" fill="#f9c740" d="M 407.5,104.5 C 390.884,119.448 374.884,135.115 359.5,151.5C 359.5,151.833 359.5,152.167 359.5,152.5C 348.587,161.909 338.087,171.909 328,182.5C 327.517,183.448 327.351,184.448 327.5,185.5C 324.706,174.652 322.039,163.652 319.5,152.5C 314.208,151.505 308.875,151.172 303.5,151.5C 293.5,151.5 283.5,151.5 273.5,151.5C 270.198,183.889 266.531,216.222 262.5,248.5C 242.115,267.884 222.449,287.884 203.5,308.5C 187.476,291.466 172.143,273.799 157.5,255.5C 186.94,220.557 216.94,186.057 247.5,152C 242.177,151.501 236.844,151.334 231.5,151.5C 217.163,151.333 202.829,151.5 188.5,152C 176.302,166.36 163.968,180.526 151.5,194.5C 151.5,180.167 151.5,165.833 151.5,151.5C 146.167,151.5 140.833,151.5 135.5,151.5C 124.833,151.5 114.167,151.5 103.5,151.5C 103.5,220.833 103.5,290.167 103.5,359.5C 114.167,359.5 124.833,359.5 135.5,359.5C 140.5,359.5 145.5,359.5 150.5,359.5C 135.535,374.965 120.368,390.299 105,405.5C 104.536,406.094 104.369,406.761 104.5,407.5C 100.112,402.417 95.945,397.084 92,391.5C 56.6725,335.568 47.6725,275.568 65,211.5C 91.6036,131.563 145.77,81.396 227.5,61C 294.402,48.2277 354.402,62.7277 407.5,104.5 Z"/></g>
<g><path style="opacity:1" fill="#fbd24d" d="M 407.5,104.5 C 408.605,105.6 409.938,106.267 411.5,106.5C 440.659,136.811 459.326,172.811 467.5,214.5C 480.503,294.659 457.503,362.492 398.5,418C 344.92,462.91 283.586,479.41 214.5,467.5C 173.321,459.413 137.654,441.08 107.5,412.5C 106.925,410.589 105.925,408.922 104.5,407.5C 104.369,406.761 104.536,406.094 105,405.5C 120.368,390.299 135.535,374.965 150.5,359.5C 150.833,359.5 151.167,359.5 151.5,359.5C 157.798,353.703 163.965,347.703 170,341.5C 170.483,340.552 170.649,339.552 170.5,338.5C 177.007,344.843 183.007,351.677 188.5,359C 202.829,359.5 217.163,359.667 231.5,359.5C 236.844,359.666 242.177,359.499 247.5,359C 232.624,342.295 217.958,325.462 203.5,308.5C 222.449,287.884 242.115,267.884 262.5,248.5C 258.793,285.532 254.793,322.532 250.5,359.5C 261.167,359.5 271.833,359.5 282.5,359.5C 282.205,357.265 282.539,355.265 283.5,353.5C 283.5,355.5 283.5,357.5 283.5,359.5C 288.975,360.081 294.142,359.414 299,357.5C 300.834,340.492 302.667,323.492 304.5,306.5C 309.023,323.934 313.023,341.6 316.5,359.5C 326.5,359.5 336.5,359.5 346.5,359.5C 351.833,359.5 357.167,359.5 362.5,359.5C 365.129,344.729 368.296,330.063 372,315.5C 373.095,310.22 373.595,304.887 373.5,299.5C 375.601,319.065 377.934,338.731 380.5,358.5C 391.146,359.499 401.813,359.832 412.5,359.5C 417.833,359.5 423.167,359.5 428.5,359.5C 420.979,290.148 413.313,220.814 405.5,151.5C 400.167,151.5 394.833,151.5 389.5,151.5C 379.5,151.5 369.5,151.5 359.5,151.5C 374.884,135.115 390.884,119.448 407.5,104.5 Z"/></g>
<g><path style="opacity:1" fill="#feef81" d="M 135.5,151.5 C 135.333,171.836 135.5,192.169 136,212.5C 141.376,206.628 146.543,200.628 151.5,194.5C 163.968,180.526 176.302,166.36 188.5,152C 202.829,151.5 217.163,151.333 231.5,151.5C 201.149,185.852 171.149,220.518 141.5,255.5C 171.149,290.482 201.149,325.148 231.5,359.5C 217.163,359.667 202.829,359.5 188.5,359C 183.007,351.677 177.007,344.843 170.5,338.5C 164.138,331.141 157.804,323.808 151.5,316.5C 146.543,310.372 141.376,304.372 136,298.5C 135.5,318.831 135.333,339.164 135.5,359.5C 124.833,359.5 114.167,359.5 103.5,359.5C 103.5,290.167 103.5,220.833 103.5,151.5C 114.167,151.5 124.833,151.5 135.5,151.5 Z"/></g>
<g><path style="opacity:1" fill="#f5b932" d="M 135.5,151.5 C 140.833,151.5 146.167,151.5 151.5,151.5C 151.5,165.833 151.5,180.167 151.5,194.5C 146.543,200.628 141.376,206.628 136,212.5C 135.5,192.169 135.333,171.836 135.5,151.5 Z"/></g>
<g><path style="opacity:1" fill="#f5b933" d="M 231.5,151.5 C 236.844,151.334 242.177,151.501 247.5,152C 216.94,186.057 186.94,220.557 157.5,255.5C 172.143,273.799 187.476,291.466 203.5,308.5C 217.958,325.462 232.624,342.295 247.5,359C 242.177,359.499 236.844,359.666 231.5,359.5C 201.149,325.148 171.149,290.482 141.5,255.5C 171.149,220.518 201.149,185.852 231.5,151.5 Z"/></g>
<g><path style="opacity:1" fill="#feef81" d="M 303.5,151.5 C 312.515,192.597 321.848,233.597 331.5,274.5C 332.251,273.624 332.751,272.624 333,271.5C 335.488,260.544 337.654,249.544 339.5,238.5C 346.369,209.994 353.036,181.328 359.5,152.5C 359.5,152.167 359.5,151.833 359.5,151.5C 369.5,151.5 379.5,151.5 389.5,151.5C 397.047,220.845 404.713,290.178 412.5,359.5C 401.813,359.832 391.146,359.499 380.5,358.5C 377.934,338.731 375.601,319.065 373.5,299.5C 371.964,285.512 370.464,271.512 369,257.5C 360.982,291.387 353.482,325.387 346.5,359.5C 336.5,359.5 326.5,359.5 316.5,359.5C 313.023,341.6 309.023,323.934 304.5,306.5C 301.727,290.013 298.227,273.68 294,257.5C 290.536,289.51 287.036,321.51 283.5,353.5C 282.539,355.265 282.205,357.265 282.5,359.5C 271.833,359.5 261.167,359.5 250.5,359.5C 254.793,322.532 258.793,285.532 262.5,248.5C 266.531,216.222 270.198,183.889 273.5,151.5C 283.5,151.5 293.5,151.5 303.5,151.5 Z"/></g>
<g><path style="opacity:1" fill="#f5b933" d="M 303.5,151.5 C 308.875,151.172 314.208,151.505 319.5,152.5C 322.039,163.652 324.706,174.652 327.5,185.5C 331.009,203.394 335.009,221.061 339.5,238.5C 337.654,249.544 335.488,260.544 333,271.5C 332.751,272.624 332.251,273.624 331.5,274.5C 321.848,233.597 312.515,192.597 303.5,151.5 Z"/></g>
<g><path style="opacity:1" fill="#f5b932" d="M 389.5,151.5 C 394.833,151.5 400.167,151.5 405.5,151.5C 413.313,220.814 420.979,290.148 428.5,359.5C 423.167,359.5 417.833,359.5 412.5,359.5C 404.713,290.178 397.047,220.845 389.5,151.5 Z"/></g>
<g><path style="opacity:1" fill="#fbd24d" d="M 359.5,152.5 C 353.036,181.328 346.369,209.994 339.5,238.5C 335.009,221.061 331.009,203.394 327.5,185.5C 327.351,184.448 327.517,183.448 328,182.5C 338.087,171.909 348.587,161.909 359.5,152.5 Z"/></g>
<g><path style="opacity:0.991" fill="#fee66e" d="M 501.5,182.5 C 506.267,199.004 509.601,215.67 511.5,232.5C 511.5,247.833 511.5,263.167 511.5,278.5C 500.612,368.144 456.279,435.644 378.5,481C 347.029,497.695 313.696,507.861 278.5,511.5C 263.167,511.5 247.833,511.5 232.5,511.5C 215.695,509.473 199.028,506.14 182.5,501.5C 182.369,500.761 182.536,500.094 183,499.5C 193.702,488.965 204.202,478.298 214.5,467.5C 283.586,479.41 344.92,462.91 398.5,418C 457.503,362.492 480.503,294.659 467.5,214.5C 478.298,204.202 488.965,193.702 499.5,183C 500.094,182.536 500.761,182.369 501.5,182.5 Z"/></g>
<g><path style="opacity:1" fill="#f5b933" d="M 304.5,306.5 C 302.667,323.492 300.834,340.492 299,357.5C 294.142,359.414 288.975,360.081 283.5,359.5C 283.5,357.5 283.5,355.5 283.5,353.5C 287.036,321.51 290.536,289.51 294,257.5C 298.227,273.68 301.727,290.013 304.5,306.5 Z"/></g>
<g><path style="opacity:1" fill="#f5ba33" d="M 373.5,299.5 C 373.595,304.887 373.095,310.22 372,315.5C 368.296,330.063 365.129,344.729 362.5,359.5C 357.167,359.5 351.833,359.5 346.5,359.5C 353.482,325.387 360.982,291.387 369,257.5C 370.464,271.512 371.964,285.512 373.5,299.5 Z"/></g>
<g><path style="opacity:1" fill="#f5b932" d="M 151.5,316.5 C 151.5,330.833 151.5,345.167 151.5,359.5C 151.167,359.5 150.833,359.5 150.5,359.5C 145.5,359.5 140.5,359.5 135.5,359.5C 135.333,339.164 135.5,318.831 136,298.5C 141.376,304.372 146.543,310.372 151.5,316.5 Z"/></g>
<g><path style="opacity:1" fill="#fac841" d="M 151.5,316.5 C 157.804,323.808 164.138,331.141 170.5,338.5C 170.649,339.552 170.483,340.552 170,341.5C 163.965,347.703 157.798,353.703 151.5,359.5C 151.5,345.167 151.5,330.833 151.5,316.5 Z"/></g>
<g><path style="opacity:1" fill="#fee66e" d="M 76.5,376.5 C 84.1978,387.861 92.8645,398.527 102.5,408.5C 94.0629,417.438 85.3963,426.272 76.5,435C 75.8333,435.667 75.1667,435.667 74.5,435C 65.4083,425.309 57.4083,414.809 50.5,403.5C 59.91,395.092 68.5766,386.092 76.5,376.5 Z"/></g>
</svg>
