<?xml version="1.0" encoding="UTF-8"?>
<!DOCTYPE svg PUBLIC "-//W3C//DTD SVG 1.1//EN" "http://www.w3.org/Graphics/SVG/1.1/DTD/svg11.dtd">
<svg xmlns="http://www.w3.org/2000/svg" version="1.1" width="512px" height="512px" style="shape-rendering:geometricPrecision; text-rendering:geometricPrecision; image-rendering:optimizeQuality; fill-rule:evenodd; clip-rule:evenodd" xmlns:xlink="http://www.w3.org/1999/xlink">
<g><path style="opacity:0.978" fill="#000000" d="M 511.5,158.5 C 511.5,168.167 511.5,177.833 511.5,187.5C 506.605,215.066 493.605,238.066 472.5,256.5C 493.817,274.476 506.817,297.143 511.5,324.5C 511.5,333.833 511.5,343.167 511.5,352.5C 499.616,408.043 465.283,438.043 408.5,442.5C 386.722,442.1 366.889,435.767 349,423.5C 348.501,428.155 348.334,432.821 348.5,437.5C 333.833,437.5 319.167,437.5 304.5,437.5C 304.5,316.5 304.5,195.5 304.5,74.5C 319.167,74.5 333.833,74.5 348.5,74.5C 348.334,78.8461 348.501,83.1794 349,87.5C 380.407,67.2924 413.574,63.7924 448.5,77C 483.575,93.3298 504.575,120.496 511.5,158.5 Z M 399.5,113.5 C 435.535,112.084 458.035,128.751 467,163.5C 469.921,187.079 462.421,206.579 444.5,222C 435.889,228.47 426.222,232.47 415.5,234C 393.169,234.5 370.836,234.667 348.5,234.5C 348.333,210.831 348.5,187.164 349,163.5C 355.796,136.537 372.629,119.87 399.5,113.5 Z M 348.5,278.5 C 370.836,278.333 393.169,278.5 415.5,279C 441.98,283.486 458.814,298.652 466,324.5C 471.033,363.942 454.2,388.109 415.5,397C 382.174,398.336 360.34,383.169 350,351.5C 348.55,327.21 348.05,302.877 348.5,278.5 Z"/></g>
<g><path style="opacity:0.979" fill="#000000" d="M -0.5,441.5 C -0.5,426.5 -0.5,411.5 -0.5,396.5C 35.6128,394.695 58.4461,376.362 68,341.5C 69.4848,251.197 69.9848,160.864 69.5,70.5C 136.5,70.5 203.5,70.5 270.5,70.5C 270.5,193.167 270.5,315.833 270.5,438.5C 255.833,438.5 241.167,438.5 226.5,438.5C 226.5,330.5 226.5,222.5 226.5,114.5C 188.833,114.5 151.167,114.5 113.5,114.5C 113.667,189.501 113.5,264.501 113,339.5C 105.294,388.864 77.7941,421.364 30.5,437C 20.3046,439.54 9.97122,441.04 -0.5,441.5 Z"/></g>
</svg>
