<?xml version="1.0" encoding="UTF-8"?>
<!DOCTYPE svg PUBLIC "-//W3C//DTD SVG 1.1//EN" "http://www.w3.org/Graphics/SVG/1.1/DTD/svg11.dtd">
<svg xmlns="http://www.w3.org/2000/svg" version="1.1" width="48px" height="48px" style="shape-rendering:geometricPrecision; text-rendering:geometricPrecision; image-rendering:optimizeQuality; fill-rule:evenodd; clip-rule:evenodd" xmlns:xlink="http://www.w3.org/1999/xlink">
<g><path style="opacity:1" fill="#c8312f" d="M 16.5,42.5 C 17.9738,41.3249 19.6404,40.3249 21.5,39.5C 18.8333,38.1667 16.1667,36.8333 13.5,35.5C 16.1667,34.1667 18.8333,32.8333 21.5,31.5C 18.8333,30.1667 16.1667,28.8333 13.5,27.5C 16.1667,26.1667 18.8333,24.8333 21.5,23.5C 18.8333,22.1667 16.1667,20.8333 13.5,19.5C 16.1667,18.1667 18.8333,16.8333 21.5,15.5C 18.8333,14.1667 16.1667,12.8333 13.5,11.5C 16.1667,10.1667 18.8333,8.83333 21.5,7.5C 19.6404,6.6751 17.9738,5.6751 16.5,4.5C 36.5346,1.36516 45.3679,10.0318 43,30.5C 37.4941,42.005 28.6608,46.005 16.5,42.5 Z"/></g>
<g><path style="opacity:0.97" fill="#ebe9eb" d="M 16.5,4.5 C 17.9738,5.6751 19.6404,6.6751 21.5,7.5C 18.8333,8.83333 16.1667,10.1667 13.5,11.5C 16.1667,12.8333 18.8333,14.1667 21.5,15.5C 18.8333,16.8333 16.1667,18.1667 13.5,19.5C 16.1667,20.8333 18.8333,22.1667 21.5,23.5C 18.8333,24.8333 16.1667,26.1667 13.5,27.5C 16.1667,28.8333 18.8333,30.1667 21.5,31.5C 18.8333,32.8333 16.1667,34.1667 13.5,35.5C 16.1667,36.8333 18.8333,38.1667 21.5,39.5C 19.6404,40.3249 17.9738,41.3249 16.5,42.5C 5.18181,37.5258 1.01514,28.8591 4,16.5C 6.07917,10.2528 10.2458,6.25283 16.5,4.5 Z"/></g>
</svg>
