<?xml version="1.0" encoding="UTF-8"?>
<!DOCTYPE svg PUBLIC "-//W3C//DTD SVG 1.1//EN" "http://www.w3.org/Graphics/SVG/1.1/DTD/svg11.dtd">
<svg xmlns="http://www.w3.org/2000/svg" version="1.1" width="48px" height="48px" style="shape-rendering:geometricPrecision; text-rendering:geometricPrecision; image-rendering:optimizeQuality; fill-rule:evenodd; clip-rule:evenodd" xmlns:xlink="http://www.w3.org/1999/xlink">
<g><path style="opacity:0.954" fill="#d50302" d="M 38.5,9.5 C 36.439,11.7107 33.939,13.3773 31,14.5C 25.9706,11.9206 20.9706,11.9206 16,14.5C 13.193,13.1879 10.693,11.5213 8.5,9.5C 12.4315,5.0406 17.4315,3.0406 23.5,3.5C 29.5685,3.0406 34.5685,5.0406 38.5,9.5 Z"/></g>
<g><path style="opacity:0.98" fill="#eae8e9" d="M 8.5,9.5 C 10.693,11.5213 13.193,13.1879 16,14.5C 20.9706,11.9206 25.9706,11.9206 31,14.5C 33.939,13.3773 36.439,11.7107 38.5,9.5C 39.8897,10.8993 40.8897,12.5659 41.5,14.5C 34.7569,17.0434 32.7569,21.7101 35.5,28.5C 37.5286,29.8435 39.5286,31.1769 41.5,32.5C 40.8897,34.4341 39.8897,36.1007 38.5,37.5C 36.439,35.2893 33.939,33.6227 31,32.5C 25.9706,35.0794 20.9706,35.0794 16,32.5C 13.193,33.8121 10.693,35.4787 8.5,37.5C 7.11028,36.1007 6.11028,34.4341 5.5,32.5C 12.2431,29.9566 14.2431,25.2899 11.5,18.5C 9.4714,17.1565 7.4714,15.8231 5.5,14.5C 6.11028,12.5659 7.11028,10.8993 8.5,9.5 Z"/></g>
<g><path style="opacity:0.953" fill="#4fb152" d="M 5.5,14.5 C 7.4714,15.8231 9.4714,17.1565 11.5,18.5C 14.2431,25.2899 12.2431,29.9566 5.5,32.5C 4.77842,32.0825 4.27842,31.4158 4,30.5C 3.33333,25.8333 3.33333,21.1667 4,16.5C 4.27842,15.5842 4.77842,14.9175 5.5,14.5 Z"/></g>
<g><path style="opacity:0.956" fill="#4fb053" d="M 41.5,14.5 C 42.9908,17.1864 43.6575,20.1864 43.5,23.5C 43.6575,26.8136 42.9908,29.8136 41.5,32.5C 39.5286,31.1769 37.5286,29.8435 35.5,28.5C 32.7569,21.7101 34.7569,17.0434 41.5,14.5 Z"/></g>
<g><path style="opacity:1" fill="#da352b" d="M 21.5,16.5 C 22.8333,16.5 24.1667,16.5 25.5,16.5C 25.7778,18.3464 25.1112,19.6798 23.5,20.5C 21.8888,19.6798 21.2222,18.3464 21.5,16.5 Z"/></g>
<g><path style="opacity:1" fill="#d71f18" d="M 16.5,24.5 C 20.3917,25.2232 20.8917,26.5566 18,28.5C 16.8118,27.4366 16.3118,26.1033 16.5,24.5 Z"/></g>
<g><path style="opacity:1" fill="#d82b22" d="M 28.5,23.5 C 30.898,24.8823 31.0647,26.549 29,28.5C 26.3798,27.4337 26.2131,25.767 28.5,23.5 Z"/></g>
<g><path style="opacity:0.941" fill="#d50302" d="M 38.5,37.5 C 34.5685,41.9594 29.5685,43.9594 23.5,43.5C 17.4315,43.9594 12.4315,41.9594 8.5,37.5C 10.693,35.4787 13.193,33.8121 16,32.5C 20.9706,35.0794 25.9706,35.0794 31,32.5C 33.939,33.6227 36.439,35.2893 38.5,37.5 Z"/></g>
</svg>
