<?xml version="1.0" encoding="UTF-8"?>
<!DOCTYPE svg PUBLIC "-//W3C//DTD SVG 1.1//EN" "http://www.w3.org/Graphics/SVG/1.1/DTD/svg11.dtd">
<svg xmlns="http://www.w3.org/2000/svg" version="1.1" width="512px" height="512px" style="shape-rendering:geometricPrecision; text-rendering:geometricPrecision; image-rendering:optimizeQuality; fill-rule:evenodd; clip-rule:evenodd" xmlns:xlink="http://www.w3.org/1999/xlink">
<g><path style="opacity:0.987" fill="#0f73a5" d="M 233.5,15.5 C 316.934,10.4872 386.101,39.1538 441,101.5C 493.742,169.547 508.408,245.214 485,328.5C 455.244,413.59 396.744,467.423 309.5,490C 232.386,505.719 163.052,489.385 101.5,441C 36.216,383.215 8.04932,310.715 17,223.5C 33.7664,125.407 88.933,59.5736 182.5,26C 199.36,21.1287 216.36,17.6287 233.5,15.5 Z"/></g>
<g><path style="opacity:1" fill="#2fc0f3" d="M 241.5,47.5 C 327.341,45.6557 392.508,80.989 437,153.5C 473.442,224.553 472.109,294.887 433,364.5C 387.707,432.568 323.873,465.401 241.5,463C 159.558,454.477 100.725,413.31 65,339.5C 37.9536,273.011 42.287,208.678 78,146.5C 116.445,87.3455 170.945,54.3455 241.5,47.5 Z"/></g>
<g><path style="opacity:0.997" fill="#fefefe" d="M 281.5,289.5 C 282.791,289.737 283.791,289.404 284.5,288.5C 286.5,288.5 288.5,288.5 290.5,288.5C 291.209,289.404 292.209,289.737 293.5,289.5C 300.893,293.945 304.393,300.612 304,309.5C 306.02,318.876 311.02,326.209 319,331.5C 319.833,310.825 319.666,290.159 318.5,269.5C 285.162,257.185 269.662,233.185 272,197.5C 277.008,171 292.174,153.333 317.5,144.5C 319.094,139.019 322.094,134.185 326.5,130C 341.511,124.502 349.845,129.669 351.5,145.5C 380.8,154.727 396.8,174.727 399.5,205.5C 397.836,221.334 389.503,226.501 374.5,221C 372.291,219.127 370.458,216.96 369,214.5C 368.38,205.686 366.046,197.352 362,189.5C 359.333,185.5 356,182.167 352,179.5C 351.167,200.175 351.334,220.841 352.5,241.5C 389.453,255.731 404.286,282.398 397,321.5C 389.509,344.159 374.342,358.826 351.5,365.5C 351.316,373.866 347.316,379.699 339.5,383C 328.27,383.458 321.27,378.124 318.5,367C 289.366,357.075 273.7,336.741 271.5,306C 271.809,298.553 275.142,293.053 281.5,289.5 Z"/></g>
<g><path style="opacity:0.999" fill="#fefefe" d="M 138.5,143.5 C 158.836,143.333 179.169,143.5 199.5,144C 229.76,149.593 248.26,167.426 255,197.5C 257.631,220.553 250.465,239.886 233.5,255.5C 254.993,275.515 260.826,299.515 251,327.5C 240.672,350.157 223.172,363.324 198.5,367C 178.833,367.667 159.167,367.667 139.5,367C 134.815,365.65 131.315,362.817 129,358.5C 127.344,290.557 127.01,222.557 128,154.5C 129.711,148.959 133.211,145.292 138.5,143.5 Z"/></g>
<g><path style="opacity:1" fill="#30c1f4" d="M 159.5,175.5 C 172.171,175.333 184.838,175.5 197.5,176C 217.554,182.27 225.72,195.77 222,216.5C 217.941,228.958 209.441,236.458 196.5,239C 184.171,239.5 171.838,239.667 159.5,239.5C 159.5,218.167 159.5,196.833 159.5,175.5 Z"/></g>
<g><path style="opacity:1" fill="#33c1f4" d="M 318.5,180.5 C 319.662,198.329 319.829,216.329 319,234.5C 302.887,222.38 299.554,207.38 309,189.5C 312.062,186.268 315.229,183.268 318.5,180.5 Z"/></g>
<g><path style="opacity:1" fill="#30c1f4" d="M 159.5,271.5 C 172.171,271.333 184.838,271.5 197.5,272C 217.554,278.27 225.72,291.77 222,312.5C 217.941,324.958 209.441,332.458 196.5,335C 184.171,335.5 171.838,335.667 159.5,335.5C 159.5,314.167 159.5,292.833 159.5,271.5 Z"/></g>
<g><path style="opacity:0.999" fill="#32c1f4" d="M 351.5,276.5 C 367.342,287.53 371.175,301.863 363,319.5C 360,323.833 356.333,327.5 352,330.5C 351.5,312.503 351.333,294.503 351.5,276.5 Z"/></g>
</svg>
