<?xml version="1.0" encoding="UTF-8"?>
<!DOCTYPE svg PUBLIC "-//W3C//DTD SVG 1.1//EN" "http://www.w3.org/Graphics/SVG/1.1/DTD/svg11.dtd">
<svg xmlns="http://www.w3.org/2000/svg" version="1.1" width="512px" height="512px" style="shape-rendering:geometricPrecision; text-rendering:geometricPrecision; image-rendering:optimizeQuality; fill-rule:evenodd; clip-rule:evenodd" xmlns:xlink="http://www.w3.org/1999/xlink">
<g><path style="opacity:0.937" fill="#000000" d="M 233.5,-0.5 C 248.167,-0.5 262.833,-0.5 277.5,-0.5C 367.555,10.0943 435.388,54.4276 481,132.5C 497.855,164.278 508.022,197.945 511.5,233.5C 511.5,248.167 511.5,262.833 511.5,277.5C 500.906,367.555 456.572,435.388 378.5,481C 346.722,497.855 313.055,508.022 277.5,511.5C 262.833,511.5 248.167,511.5 233.5,511.5C 143.445,500.906 75.612,456.572 30,378.5C 13.1449,346.722 2.97822,313.055 -0.5,277.5C -0.5,262.833 -0.5,248.167 -0.5,233.5C 10.0943,143.445 54.4276,75.612 132.5,30C 164.278,13.1449 197.945,2.97822 233.5,-0.5 Z M 240.5,16.5 C 242.5,16.5 244.5,16.5 246.5,16.5C 248.004,26.493 253.171,29.1596 262,24.5C 263.341,21.978 264.174,19.3113 264.5,16.5C 275.189,17.2797 285.856,18.2797 296.5,19.5C 294.998,29.3328 298.998,33.3328 308.5,31.5C 311.464,29.5777 313.464,26.9111 314.5,23.5C 324.305,26.4351 333.972,29.7684 343.5,33.5C 343.582,36.3331 343.748,39.3331 344,42.5C 346.541,47.0685 350.375,48.5685 355.5,47C 358.002,45.6625 360.002,43.8292 361.5,41.5C 370.995,46.0776 379.995,51.411 388.5,57.5C 384.106,67.2396 387.106,72.0729 397.5,72C 399.624,70.8783 401.457,69.3783 403,67.5C 411.266,73.7622 418.932,80.7622 426,88.5C 424.799,90.9587 423.632,93.6254 422.5,96.5C 425.212,105.878 430.712,107.878 439,102.5C 445.749,110.75 451.916,119.416 457.5,128.5C 452.882,131.669 451.382,136.002 453,141.5C 454.214,143.049 455.714,144.215 457.5,145C 460.95,145.175 464.283,145.342 467.5,145.5C 472.178,154.039 476.178,162.873 479.5,172C 477.185,174.063 475.019,176.23 473,178.5C 471.754,187.758 475.92,192.091 485.5,191.5C 488.284,201.258 490.617,211.092 492.5,221C 481.935,223.779 479.935,229.445 486.5,238C 489.014,239.252 491.68,239.752 494.5,239.5C 494.5,250.167 494.5,260.833 494.5,271.5C 484.628,271.527 481.128,276.194 484,285.5C 486.581,287.516 489.414,289.016 492.5,290C 490.617,299.908 488.284,309.742 485.5,319.5C 475.972,318.859 471.805,323.192 473,332.5C 475.019,334.77 477.185,336.937 479.5,339C 476.178,348.127 472.178,356.961 467.5,365.5C 464.25,365.808 460.917,365.975 457.5,366C 452.776,368.435 451.276,372.269 453,377.5C 453.973,379.64 455.473,381.307 457.5,382.5C 451.916,391.584 445.749,400.25 439,408.5C 430.712,403.122 425.212,405.122 422.5,414.5C 423.632,417.375 424.799,420.041 426,422.5C 418.932,430.238 411.266,437.238 403,443.5C 399.446,438.549 394.946,437.382 389.5,440C 385.925,444.21 385.592,448.71 388.5,453.5C 379.995,459.589 370.995,464.922 361.5,469.5C 359.603,467.524 357.603,465.69 355.5,464C 350.375,462.431 346.541,463.931 344,468.5C 343.748,471.667 343.582,474.667 343.5,477.5C 333.972,481.232 324.305,484.565 314.5,487.5C 312.085,479.626 307.085,477.126 299.5,480C 296.846,483.327 295.846,487.161 296.5,491.5C 285.856,492.72 275.189,493.72 264.5,494.5C 262.996,484.507 257.829,481.84 249,486.5C 247.659,489.022 246.826,491.689 246.5,494.5C 235.811,493.72 225.144,492.72 214.5,491.5C 216.002,481.667 212.002,477.667 202.5,479.5C 199.536,481.422 197.536,484.089 196.5,487.5C 186.695,484.565 177.028,481.232 167.5,477.5C 167.418,474.667 167.252,471.667 167,468.5C 164.459,463.931 160.625,462.431 155.5,464C 153.397,465.69 151.397,467.524 149.5,469.5C 140.005,464.922 131.005,459.589 122.5,453.5C 126.894,443.76 123.894,438.927 113.5,439C 111.376,440.122 109.543,441.622 108,443.5C 99.7343,437.238 92.0676,430.238 85,422.5C 86.2012,420.041 87.3679,417.375 88.5,414.5C 85.7877,405.122 80.2877,403.122 72,408.5C 65.2509,400.25 59.0843,391.584 53.5,382.5C 58.1179,379.331 59.6179,374.998 58,369.5C 56.786,367.951 55.286,366.785 53.5,366C 50.0833,365.975 46.7499,365.808 43.5,365.5C 38.8215,356.961 34.8215,348.127 31.5,339C 33.8146,336.937 35.9813,334.77 38,332.5C 39.1949,323.192 35.0282,318.859 25.5,319.5C 22.7161,309.742 20.3828,299.908 18.5,290C 29.0646,287.221 31.0646,281.555 24.5,273C 21.9865,271.748 19.3198,271.248 16.5,271.5C 16.5,260.833 16.5,250.167 16.5,239.5C 26.3721,239.473 29.8721,234.806 27,225.5C 24.4193,223.484 21.5859,221.984 18.5,221C 20.3828,211.092 22.7161,201.258 25.5,191.5C 35.0798,192.091 39.2465,187.758 38,178.5C 35.9813,176.23 33.8146,174.063 31.5,172C 34.8215,162.873 38.8215,154.039 43.5,145.5C 46.7168,145.342 50.0501,145.175 53.5,145C 58.2238,142.565 59.7238,138.731 58,133.5C 57.0267,131.36 55.5267,129.693 53.5,128.5C 59.0843,119.416 65.2509,110.75 72,102.5C 80.212,107.877 85.712,105.877 88.5,96.5C 87.3679,93.6254 86.2012,90.9587 85,88.5C 92.0676,80.7622 99.7343,73.7622 108,67.5C 111.554,72.4512 116.054,73.6179 121.5,71C 125.075,66.7897 125.408,62.2897 122.5,57.5C 131.005,51.411 140.005,46.0776 149.5,41.5C 152.396,46.6122 156.729,48.4456 162.5,47C 164.667,46.1667 166.167,44.6667 167,42.5C 167.252,39.3331 167.418,36.3331 167.5,33.5C 177.028,29.7684 186.695,26.4351 196.5,23.5C 198.915,31.3742 203.915,33.8742 211.5,31C 214.154,27.6727 215.154,23.8394 214.5,19.5C 223.327,18.6637 231.994,17.6637 240.5,16.5 Z M 249.5,187.5 C 267.596,186.978 279.763,195.311 286,212.5C 292.739,231.275 291.739,249.608 283,267.5C 267.623,290.674 250.29,292.341 231,272.5C 216.476,247.41 217.143,222.743 233,198.5C 237.688,193.421 243.188,189.754 249.5,187.5 Z M 151.5,191.5 C 169.758,197.316 188.091,202.983 206.5,208.5C 206.833,209 207.167,209.5 207.5,210C 205.942,214.398 204.776,218.898 204,223.5C 186.946,217.871 169.78,212.538 152.5,207.5C 151.505,202.208 151.172,196.875 151.5,191.5 Z M 358.5,191.5 C 359.815,196.68 359.815,202.014 358.5,207.5C 341.22,212.538 324.054,217.871 307,223.5C 306.224,218.898 305.058,214.398 303.5,210C 303.833,209.5 304.167,209 304.5,208.5C 322.707,203.122 340.707,197.455 358.5,191.5 Z M 129.5,219.5 C 154.173,226.502 178.839,233.502 203.5,240.5C 203.691,247.982 204.858,255.315 207,262.5C 209.445,269.218 212.278,275.718 215.5,282C 207.897,307.25 190.897,318.583 164.5,316C 143.71,309.935 132.21,296.102 130,274.5C 129.5,256.17 129.333,237.836 129.5,219.5 Z M 378.5,219.5 C 379.5,219.5 380.5,219.5 381.5,219.5C 381.667,237.836 381.5,256.17 381,274.5C 378.79,296.102 367.29,309.935 346.5,316C 320.103,318.583 303.103,307.25 295.5,282C 298.722,275.718 301.555,269.218 304,262.5C 306.142,255.315 307.309,247.982 307.5,240.5C 331.433,234.075 355.1,227.075 378.5,219.5 Z M 254.5,432.5 C 256.464,433.782 258.464,435.115 260.5,436.5C 259.764,438.541 258.931,440.541 258,442.5C 256.333,441.167 254.667,441.167 253,442.5C 252.069,440.541 251.236,438.541 250.5,436.5C 252.375,435.591 253.708,434.257 254.5,432.5 Z"/></g>
<g><path style="opacity:0.933" fill="#000000" d="M 236.5,49.5 C 257.705,48.443 278.705,49.943 299.5,54C 306.096,57.9135 307.096,62.9135 302.5,69C 300.466,70.0056 298.3,70.5056 296,70.5C 223.23,57.9146 161.897,78.5813 112,132.5C 69.965,184.659 57.2983,243.326 74,308.5C 86.3754,348.922 109.375,381.922 143,407.5C 145.884,416.95 142.384,421.45 132.5,421C 72.8631,374.201 45.3631,312.701 50,236.5C 60.3676,156.155 102.201,98.9887 175.5,65C 195.287,57.137 215.62,51.9704 236.5,49.5 Z"/></g>
<g><path style="opacity:0.919" fill="#000000" d="M 327.5,62.5 C 353.873,71.7175 377.04,86.0508 397,105.5C 399.535,115.303 395.702,119.47 385.5,118C 367.212,101.41 346.545,88.4104 323.5,79C 317.322,71.5316 318.656,66.0316 327.5,62.5 Z"/></g>
<g><path style="opacity:0.93" fill="#000000" d="M 408.5,125.5 C 411.32,125.248 413.986,125.748 416.5,127C 450.642,170.111 465.475,219.278 461,274.5C 454.332,334.35 427.499,382.85 380.5,420C 373.228,422.801 368.562,420.468 366.5,413C 366.796,411.112 367.296,409.278 368,407.5C 430.067,357.659 454.067,293.325 440,214.5C 433.345,186.528 421.345,161.195 404,138.5C 401.796,132.946 403.296,128.613 408.5,125.5 Z"/></g>
<g><path style="opacity:0.941" fill="#000000" d="M 176.5,141.5 C 196.169,141.333 215.836,141.5 235.5,142C 242.689,148.689 249.356,155.856 255.5,163.5C 261.644,155.856 268.311,148.689 275.5,142C 295.167,141.333 314.833,141.333 334.5,142C 341.995,146.838 342.328,152.172 335.5,158C 317.824,158.167 300.157,158.667 282.5,159.5C 278.953,164.092 275.286,168.592 271.5,173C 275.327,174.746 278.993,176.746 282.5,179C 287.066,183.566 291.566,188.066 296,192.5C 325.523,183.744 355.023,174.911 384.5,166C 392.496,164.998 396.33,168.498 396,176.5C 395.293,178.081 394.46,179.581 393.5,181C 388.268,183.133 382.934,184.966 377.5,186.5C 376.337,191.802 376.171,197.136 377,202.5C 387.797,198.568 398.797,195.235 410,192.5C 417.698,195.418 419.532,200.585 415.5,208C 410.074,210.606 404.408,212.439 398.5,213.5C 398.667,236.169 398.5,258.836 398,281.5C 391.443,314.034 371.61,331.701 338.5,334.5C 311.098,333.555 291.932,320.555 281,295.5C 278.609,296.429 276.775,297.929 275.5,300C 278.667,308.833 281.833,317.667 285,326.5C 286.494,338.006 281.827,341.673 271,337.5C 265.978,326.461 261.812,315.128 258.5,303.5C 256.5,303.5 254.5,303.5 252.5,303.5C 249.188,315.128 245.022,326.461 240,337.5C 229.173,341.673 224.506,338.006 226,326.5C 229.167,317.667 232.333,308.833 235.5,300C 234.225,297.929 232.391,296.429 230,295.5C 215.059,326.72 190.559,338.887 156.5,332C 131.641,324.13 117.141,307.296 113,281.5C 112.5,258.836 112.333,236.169 112.5,213.5C 106.592,212.439 100.926,210.606 95.5,208C 91.4683,200.585 93.3016,195.418 101,192.5C 112.203,195.235 123.203,198.568 134,202.5C 134.829,197.136 134.663,191.802 133.5,186.5C 128.066,184.966 122.732,183.133 117.5,181C 113.106,174.911 114.106,169.911 120.5,166C 122.5,165.333 124.5,165.333 126.5,166C 155.977,174.911 185.477,183.744 215,192.5C 219.434,188.066 223.934,183.566 228.5,179C 232.007,176.746 235.673,174.746 239.5,173C 235.714,168.592 232.047,164.092 228.5,159.5C 210.843,158.667 193.176,158.167 175.5,158C 168.777,152.024 169.11,146.524 176.5,141.5 Z M 249.5,187.5 C 243.188,189.754 237.688,193.421 233,198.5C 217.143,222.743 216.476,247.41 231,272.5C 250.29,292.341 267.623,290.674 283,267.5C 291.739,249.608 292.739,231.275 286,212.5C 279.763,195.311 267.596,186.978 249.5,187.5 Z M 151.5,191.5 C 151.172,196.875 151.505,202.208 152.5,207.5C 169.78,212.538 186.946,217.871 204,223.5C 204.776,218.898 205.942,214.398 207.5,210C 207.167,209.5 206.833,209 206.5,208.5C 188.091,202.983 169.758,197.316 151.5,191.5 Z M 358.5,191.5 C 340.707,197.455 322.707,203.122 304.5,208.5C 304.167,209 303.833,209.5 303.5,210C 305.058,214.398 306.224,218.898 307,223.5C 324.054,217.871 341.22,212.538 358.5,207.5C 359.815,202.014 359.815,196.68 358.5,191.5 Z M 129.5,219.5 C 129.333,237.836 129.5,256.17 130,274.5C 132.21,296.102 143.71,309.935 164.5,316C 190.897,318.583 207.897,307.25 215.5,282C 212.278,275.718 209.445,269.218 207,262.5C 204.858,255.315 203.691,247.982 203.5,240.5C 178.839,233.502 154.173,226.502 129.5,219.5 Z M 378.5,219.5 C 355.1,227.075 331.433,234.075 307.5,240.5C 307.309,247.982 306.142,255.315 304,262.5C 301.555,269.218 298.722,275.718 295.5,282C 303.103,307.25 320.103,318.583 346.5,316C 367.29,309.935 378.79,296.102 381,274.5C 381.5,256.17 381.667,237.836 381.5,219.5C 380.5,219.5 379.5,219.5 378.5,219.5 Z"/></g>
<g><path style="opacity:0.945" fill="#000000" d="M 254.5,399.5 C 257.192,400.009 259.692,401.009 262,402.5C 264.864,407.929 267.031,413.595 268.5,419.5C 274.898,419.243 281.231,419.743 287.5,421C 291.788,424.771 292.621,429.271 290,434.5C 286,437.833 282,441.167 278,444.5C 279.412,450.746 280.412,457.08 281,463.5C 279.712,467.578 276.878,469.912 272.5,470.5C 266.67,467.752 261.003,464.752 255.5,461.5C 249.865,464.901 244.032,467.901 238,470.5C 232.693,469.527 229.86,466.361 229.5,461C 230.629,455.946 231.963,450.946 233.5,446C 229.697,441.868 225.531,438.034 221,434.5C 218.379,429.271 219.212,424.771 223.5,421C 229.769,419.743 236.102,419.243 242.5,419.5C 243.969,413.595 246.136,407.929 249,402.5C 250.876,401.391 252.709,400.391 254.5,399.5 Z M 254.5,432.5 C 253.708,434.257 252.375,435.591 250.5,436.5C 251.236,438.541 252.069,440.541 253,442.5C 254.667,441.167 256.333,441.167 258,442.5C 258.931,440.541 259.764,438.541 260.5,436.5C 258.464,435.115 256.464,433.782 254.5,432.5 Z"/></g>
<g><path style="opacity:0.913" fill="#000000" d="M 165.5,424.5 C 168.607,424.351 171.607,424.851 174.5,426C 182.338,429.724 190.338,433.057 198.5,436C 204.815,443.6 203.315,449.1 194,452.5C 183.958,449.263 174.125,445.429 164.5,441C 157.777,435.024 158.11,429.524 165.5,424.5 Z"/></g>
<g><path style="opacity:0.913" fill="#000000" d="M 339.5,424.5 C 348.846,424.332 352.346,428.665 350,437.5C 348.833,438.667 347.667,439.833 346.5,441C 336.875,445.429 327.042,449.263 317,452.5C 307.685,449.1 306.185,443.6 312.5,436C 321.821,432.666 330.821,428.833 339.5,424.5 Z"/></g>
</svg>
