<?xml version="1.0" encoding="UTF-8"?>
<!DOCTYPE svg PUBLIC "-//W3C//DTD SVG 1.1//EN" "http://www.w3.org/Graphics/SVG/1.1/DTD/svg11.dtd">
<svg xmlns="http://www.w3.org/2000/svg" version="1.1" width="512px" height="512px" style="shape-rendering:geometricPrecision; text-rendering:geometricPrecision; image-rendering:optimizeQuality; fill-rule:evenodd; clip-rule:evenodd" xmlns:xlink="http://www.w3.org/1999/xlink">
<g><path style="opacity:0.985" fill="#fdd20b" d="M 358.5,38.5 C 357.472,39.7874 357.805,40.9541 359.5,42C 356.126,46.5728 352.626,51.0728 349,55.5C 347.223,57.7899 345.056,59.4566 342.5,60.5C 338.261,59.2042 334.261,57.5375 330.5,55.5C 335.999,49.1645 341.332,42.6645 346.5,36C 343.453,33.762 340.12,32.0953 336.5,31C 332.554,29.6756 328.554,29.0089 324.5,29C 318.576,35.083 313.243,41.583 308.5,48.5C 261.826,36.6565 216.159,39.6565 171.5,57.5C 171.062,57.5654 170.728,57.3988 170.5,57C 179.124,46.0402 188.124,35.3735 197.5,25C 180.806,28.4553 164.806,34.1219 149.5,42C 148.251,42.7401 147.251,42.5735 146.5,41.5C 199.642,14.7981 255.309,8.29809 313.5,22C 329.229,25.8506 344.229,31.3506 358.5,38.5 Z"/></g>
<g><path style="opacity:1" fill="#fcba05" d="M 171.5,57.5 C 106.578,87.0869 65.245,136.42 47.5,205.5C 47.6495,204.448 47.4828,203.448 47,202.5C 36.6353,215.025 26.1353,227.358 15.5,239.5C 22.4275,163.449 56.4275,102.949 117.5,58C 126.896,51.9702 136.563,46.4702 146.5,41.5C 147.251,42.5735 148.251,42.7401 149.5,42C 164.806,34.1219 180.806,28.4553 197.5,25C 188.124,35.3735 179.124,46.0402 170.5,57C 170.728,57.3988 171.062,57.5654 171.5,57.5 Z"/></g>
<g><path style="opacity:1" fill="#fbba05" d="M 330.5,55.5 C 323.151,53.1612 315.818,50.8279 308.5,48.5C 313.243,41.583 318.576,35.083 324.5,29C 328.554,29.0089 332.554,29.6756 336.5,31C 340.12,32.0953 343.453,33.762 346.5,36C 341.332,42.6645 335.999,49.1645 330.5,55.5 Z"/></g>
<g><path style="opacity:1" fill="#f48600" d="M 308.5,48.5 C 315.818,50.8279 323.151,53.1612 330.5,55.5C 334.261,57.5375 338.261,59.2042 342.5,60.5C 355.796,67.147 368.463,74.8137 380.5,83.5C 401.714,99.7082 419.38,119.042 433.5,141.5C 440.667,154.167 447.001,167.167 452.5,180.5C 456.73,192.19 459.73,204.19 461.5,216.5C 462.738,221.388 463.571,226.388 464,231.5C 464.827,244.007 464.66,256.34 463.5,268.5C 464.695,244.587 462.029,221.253 455.5,198.5C 445.589,162.319 427.256,131.319 400.5,105.5C 361.848,67.356 315.181,48.1893 260.5,48C 311.149,51.1687 354.483,70.3354 390.5,105.5C 415.298,130.758 432.632,160.425 442.5,194.5C 451.885,232.696 452.551,270.696 444.5,308.5C 445.5,308.5 446.5,308.5 447.5,308.5C 447.64,310.124 446.973,311.29 445.5,312C 447.481,312.605 447.815,313.605 446.5,315C 447.328,315.915 448.328,316.581 449.5,317C 447.099,317.805 447.266,318.638 450,319.5C 452.734,318.638 452.901,317.805 450.5,317C 453.167,315.667 453.167,314.333 450.5,313C 452.134,312.506 453.801,312.34 455.5,312.5C 439.426,365.41 407.759,406.243 360.5,435C 328.524,453.077 294.191,462.577 257.5,463.5C 196.35,458.759 146.017,433.093 106.5,386.5C 67.8576,335.768 53.8576,279.935 64.5,219C 63.5761,218.15 63.5761,217.15 64.5,216C 64.0556,214.238 63.5556,214.405 63,216.5C 59.9123,214.706 56.7456,213.039 53.5,211.5C 52.6919,211.808 52.0253,212.308 51.5,213C 51.5092,214.73 51.8425,216.563 52.5,218.5C 61.6735,222.943 61.5069,223.277 52,219.5C 41.4931,275.582 52.8264,327.582 86,375.5C 89.0316,379.359 92.1983,383.026 95.5,386.5C 131.545,429.53 177.545,454.864 233.5,462.5C 227.428,462.324 221.428,461.657 215.5,460.5C 201.55,457.924 187.883,453.924 174.5,448.5C 149.653,437.92 127.32,423.587 107.5,405.5C 97.3867,395.062 88.0534,384.062 79.5,372.5C 77.4164,368.664 75.083,364.997 72.5,361.5C 68.4841,354.132 64.4841,346.798 60.5,339.5C 46.5079,306.241 40.6745,271.574 43,235.5C 43.6606,225.366 45.1606,215.366 47.5,205.5C 65.245,136.42 106.578,87.0869 171.5,57.5C 216.159,39.6565 261.826,36.6565 308.5,48.5 Z"/></g>
<g><path style="opacity:1" fill="#fcba05" d="M 358.5,38.5 C 360.954,39.2271 363.287,40.2271 365.5,41.5C 365.33,42.8221 365.663,43.9887 366.5,45C 376.89,50.1856 386.557,56.3522 395.5,63.5C 391.522,68.6461 387.355,73.6461 383,78.5C 381.906,80.0779 381.072,81.7446 380.5,83.5C 368.463,74.8137 355.796,67.147 342.5,60.5C 345.056,59.4566 347.223,57.7899 349,55.5C 352.626,51.0728 356.126,46.5728 359.5,42C 357.805,40.9541 357.472,39.7874 358.5,38.5 Z"/></g>
<g><path style="opacity:0.987" fill="#fdd20b" d="M 365.5,41.5 C 395.617,57.1055 421.45,78.1055 443,104.5C 449.933,113.376 456.099,122.709 461.5,132.5C 460.504,132.586 459.671,132.252 459,131.5C 456.657,128.137 454.323,124.803 452,121.5C 446.036,128.299 439.87,134.966 433.5,141.5C 419.38,119.042 401.714,99.7082 380.5,83.5C 381.072,81.7446 381.906,80.0779 383,78.5C 387.355,73.6461 391.522,68.6461 395.5,63.5C 386.557,56.3522 376.89,50.1856 366.5,45C 365.663,43.9887 365.33,42.8221 365.5,41.5 Z"/></g>
<g><path style="opacity:1" fill="#f06700" d="M 400.5,105.5 C 397.332,106.444 393.999,106.444 390.5,105.5C 354.483,70.3354 311.149,51.1687 260.5,48C 315.181,48.1893 361.848,67.356 400.5,105.5 Z"/></g>
<g><path style="opacity:1" fill="#fcba05" d="M 461.5,132.5 C 464.737,137.299 467.737,142.299 470.5,147.5C 469.448,147.351 468.448,147.517 467.5,148C 469.549,150.949 470.716,154.116 471,157.5C 463.856,164.497 457.69,172.163 452.5,180.5C 447.001,167.167 440.667,154.167 433.5,141.5C 439.87,134.966 446.036,128.299 452,121.5C 454.323,124.803 456.657,128.137 459,131.5C 459.671,132.252 460.504,132.586 461.5,132.5 Z"/></g>
<g><path style="opacity:1" fill="#f17200" d="M 390.5,105.5 C 393.999,106.444 397.332,106.444 400.5,105.5C 427.256,131.319 445.589,162.319 455.5,198.5C 451.019,198.457 446.686,197.124 442.5,194.5C 432.632,160.425 415.298,130.758 390.5,105.5 Z"/></g>
<g><path style="opacity:0.991" fill="#fdd10b" d="M 470.5,147.5 C 496.062,200.218 502.395,255.218 489.5,312.5C 488.84,311.036 488.507,309.369 488.5,307.5C 495.652,270.714 495.152,234.048 487,197.5C 485.885,196 485.052,194.333 484.5,192.5C 483.998,191.479 483.332,191.312 482.5,192C 475.635,200.359 468.635,208.525 461.5,216.5C 459.73,204.19 456.73,192.19 452.5,180.5C 457.69,172.163 463.856,164.497 471,157.5C 470.716,154.116 469.549,150.949 467.5,148C 468.448,147.517 469.448,147.351 470.5,147.5 Z"/></g>
<g><path style="opacity:1" fill="#f9bb0a" d="M 312.5,175.5 C 316.833,175.5 321.167,175.5 325.5,175.5C 325.5,180.5 325.5,185.5 325.5,190.5C 338.859,190.52 351.192,194.02 362.5,201C 372.769,209.038 378.102,219.538 378.5,232.5C 368.161,232.666 357.828,232.5 347.5,232C 344.604,221.224 337.604,215.724 326.5,215.5C 326.741,223.861 326.408,232.195 325.5,240.5C 325.577,242.299 326.077,243.966 327,245.5C 337.856,248.785 348.689,252.285 359.5,256C 381.813,267.249 388.646,284.749 380,308.5C 373.788,321.53 363.622,329.697 349.5,333C 341.932,334.881 334.265,336.047 326.5,336.5C 326.5,341.5 326.5,346.5 326.5,351.5C 321.833,351.5 317.167,351.5 312.5,351.5C 312.5,346.5 312.5,341.5 312.5,336.5C 293.23,336.278 277.397,328.945 265,314.5C 259.558,306.674 256.391,298.007 255.5,288.5C 265.506,288.334 275.506,288.5 285.5,289C 290.16,301.836 299.16,309.336 312.5,311.5C 312.667,298.829 312.5,286.162 312,273.5C 303.877,270.67 295.711,267.836 287.5,265C 266.227,255.954 258.06,240.121 263,217.5C 268.442,205.859 277.275,198.026 289.5,194C 297.029,191.86 304.696,190.694 312.5,190.5C 312.5,185.5 312.5,180.5 312.5,175.5 Z"/></g>
<g><path style="opacity:1" fill="#f9bb0a" d="M 111.5,191.5 C 137.502,191.333 163.502,191.5 189.5,192C 208.181,191.911 221.681,200.078 230,216.5C 234.701,235.073 228.868,249.24 212.5,259C 239.162,270.981 245.995,290.148 233,316.5C 226.377,326.234 217.21,332.067 205.5,334C 174.179,335.231 142.846,335.731 111.5,335.5C 111.5,287.5 111.5,239.5 111.5,191.5 Z"/></g>
<g><path style="opacity:1" fill="#fbba05" d="M 489.5,312.5 C 483.592,334.978 474.926,356.311 463.5,376.5C 462.957,376.44 462.624,376.107 462.5,375.5C 466.499,367.024 470.666,358.691 475,350.5C 476.772,345.863 478.106,341.196 479,336.5C 443.708,378.794 408.042,420.794 372,462.5C 371.333,463.167 371.333,463.833 372,464.5C 373.011,463.663 374.178,463.33 375.5,463.5C 329.713,489.926 280.38,500.259 227.5,494.5C 235.454,484.872 243.454,475.205 251.5,465.5C 249.369,464.831 247.369,464.165 245.5,463.5C 249.5,463.5 253.5,463.5 257.5,463.5C 294.191,462.577 328.524,453.077 360.5,435C 407.759,406.243 439.426,365.41 455.5,312.5C 460.112,298.228 462.778,283.562 463.5,268.5C 464.66,256.34 464.827,244.007 464,231.5C 463.571,226.388 462.738,221.388 461.5,216.5C 468.635,208.525 475.635,200.359 482.5,192C 483.332,191.312 483.998,191.479 484.5,192.5C 485.052,194.333 485.885,196 487,197.5C 495.152,234.048 495.652,270.714 488.5,307.5C 488.507,309.369 488.84,311.036 489.5,312.5 Z"/></g>
<g><path style="opacity:0.994" fill="#fcd20b" d="M 47.5,205.5 C 45.1606,215.366 43.6606,225.366 43,235.5C 40.6745,271.574 46.5079,306.241 60.5,339.5C 55.4054,347.319 49.5721,354.652 43,361.5C 42.2086,362.745 41.7086,364.078 41.5,365.5C 21.2095,326.052 12.5429,284.052 15.5,239.5C 26.1353,227.358 36.6353,215.025 47,202.5C 47.4828,203.448 47.6495,204.448 47.5,205.5 Z"/></g>
<g><path style="opacity:1" fill="#f48700" d="M 305.5,214.5 C 307.833,214.5 310.167,214.5 312.5,214.5C 312.5,223.833 312.5,233.167 312.5,242.5C 305.679,241.339 299.513,238.673 294,234.5C 289.808,227.836 290.975,222.336 297.5,218C 300.309,216.907 302.976,215.74 305.5,214.5 Z"/></g>
<g><path style="opacity:1" fill="#f48600" d="M 142.5,215.5 C 157.504,215.333 172.504,215.5 187.5,216C 201.338,219.87 205.172,228.37 199,241.5C 197.062,244.106 194.562,245.939 191.5,247C 175.224,248.44 158.89,248.94 142.5,248.5C 142.5,237.5 142.5,226.5 142.5,215.5 Z"/></g>
<g><path style="opacity:1" fill="#f37f00" d="M 106.5,386.5 C 102.699,385.285 99.0326,385.285 95.5,386.5C 92.1983,383.026 89.0316,379.359 86,375.5C 52.8264,327.582 41.4931,275.582 52,219.5C 61.5069,223.277 61.6735,222.943 52.5,218.5C 51.8425,216.563 51.5092,214.73 51.5,213C 52.0253,212.308 52.6919,211.808 53.5,211.5C 56.7456,213.039 59.9123,214.706 63,216.5C 63.5556,214.405 64.0556,214.238 64.5,216C 63.5761,217.15 63.5761,218.15 64.5,219C 53.8576,279.935 67.8576,335.768 106.5,386.5 Z"/></g>
<g><path style="opacity:1" fill="#f27d00" d="M 442.5,194.5 C 446.686,197.124 451.019,198.457 455.5,198.5C 462.029,221.253 464.695,244.587 463.5,268.5C 462.778,283.562 460.112,298.228 455.5,312.5C 453.801,312.34 452.134,312.506 450.5,313C 453.167,314.333 453.167,315.667 450.5,317C 452.901,317.805 452.734,318.638 450,319.5C 447.266,318.638 447.099,317.805 449.5,317C 448.328,316.581 447.328,315.915 446.5,315C 447.815,313.605 447.481,312.605 445.5,312C 446.973,311.29 447.64,310.124 447.5,308.5C 446.5,308.5 445.5,308.5 444.5,308.5C 452.551,270.696 451.885,232.696 442.5,194.5 Z"/></g>
<g><path style="opacity:1" fill="#f48600" d="M 142.5,272.5 C 159.852,272.921 177.186,273.754 194.5,275C 207.329,280.505 210.829,289.672 205,302.5C 202.337,306.161 198.837,308.661 194.5,310C 177.17,310.5 159.837,310.667 142.5,310.5C 142.5,297.833 142.5,285.167 142.5,272.5 Z"/></g>
<g><path style="opacity:1" fill="#f48600" d="M 326.5,275.5 C 332.906,277.358 339.239,279.524 345.5,282C 353.778,290.831 353.111,299.165 343.5,307C 338.338,310.443 332.672,311.943 326.5,311.5C 326.5,299.5 326.5,287.5 326.5,275.5 Z"/></g>
<g><path style="opacity:1" fill="#f1b305" d="M 463.5,376.5 C 442.095,413.572 412.762,442.572 375.5,463.5C 374.178,463.33 373.011,463.663 372,464.5C 371.333,463.833 371.333,463.167 372,462.5C 408.042,420.794 443.708,378.794 479,336.5C 478.106,341.196 476.772,345.863 475,350.5C 470.666,358.691 466.499,367.024 462.5,375.5C 462.624,376.107 462.957,376.44 463.5,376.5 Z"/></g>
<g><path style="opacity:1" fill="#fcba05" d="M 60.5,339.5 C 64.4841,346.798 68.4841,354.132 72.5,361.5C 65.4939,368.342 58.9939,375.675 53,383.5C 52.3292,382.748 51.4959,382.414 50.5,382.5C 47.2326,376.965 44.2326,371.298 41.5,365.5C 41.7086,364.078 42.2086,362.745 43,361.5C 49.5721,354.652 55.4054,347.319 60.5,339.5 Z"/></g>
<g><path style="opacity:0.992" fill="#fdd20b" d="M 72.5,361.5 C 75.083,364.997 77.4164,368.664 79.5,372.5C 73.9242,379.955 68.0909,387.288 62,394.5C 61.5172,395.448 61.3505,396.448 61.5,397.5C 57.4788,392.804 53.8122,387.804 50.5,382.5C 51.4959,382.414 52.3292,382.748 53,383.5C 58.9939,375.675 65.4939,368.342 72.5,361.5 Z"/></g>
<g><path style="opacity:1" fill="#fcba05" d="M 79.5,372.5 C 88.0534,384.062 97.3867,395.062 107.5,405.5C 101.203,413.133 94.5359,420.466 87.5,427.5C 76.9721,418.982 68.3055,408.982 61.5,397.5C 61.3505,396.448 61.5172,395.448 62,394.5C 68.0909,387.288 73.9242,379.955 79.5,372.5 Z"/></g>
<g><path style="opacity:0.993" fill="#fcd20b" d="M 107.5,405.5 C 127.32,423.587 149.653,437.92 174.5,448.5C 168.046,456.793 161.379,464.959 154.5,473C 155.056,473.383 155.389,473.883 155.5,474.5C 129.69,463.271 107.023,447.605 87.5,427.5C 94.5359,420.466 101.203,413.133 107.5,405.5 Z"/></g>
<g><path style="opacity:1" fill="#f06e00" d="M 106.5,386.5 C 146.017,433.093 196.35,458.759 257.5,463.5C 253.5,463.5 249.5,463.5 245.5,463.5C 241.519,462.979 237.519,462.646 233.5,462.5C 177.545,454.864 131.545,429.53 95.5,386.5C 99.0326,385.285 102.699,385.285 106.5,386.5 Z"/></g>
<g><path style="opacity:1" fill="#fcba05" d="M 174.5,448.5 C 187.883,453.924 201.55,457.924 215.5,460.5C 207.488,469.181 199.821,478.181 192.5,487.5C 179.657,484.553 167.323,480.219 155.5,474.5C 155.389,473.883 155.056,473.383 154.5,473C 161.379,464.959 168.046,456.793 174.5,448.5 Z"/></g>
<g><path style="opacity:0.994" fill="#fcd20b" d="M 215.5,460.5 C 221.428,461.657 227.428,462.324 233.5,462.5C 237.519,462.646 241.519,462.979 245.5,463.5C 247.369,464.165 249.369,464.831 251.5,465.5C 243.454,475.205 235.454,484.872 227.5,494.5C 215.486,493.297 203.819,490.964 192.5,487.5C 199.821,478.181 207.488,469.181 215.5,460.5 Z"/></g>
</svg>
