<?xml version="1.0" encoding="UTF-8"?>
<!DOCTYPE svg PUBLIC "-//W3C//DTD SVG 1.1//EN" "http://www.w3.org/Graphics/SVG/1.1/DTD/svg11.dtd">
<svg xmlns="http://www.w3.org/2000/svg" version="1.1" width="512px" height="512px" style="shape-rendering:geometricPrecision; text-rendering:geometricPrecision; image-rendering:optimizeQuality; fill-rule:evenodd; clip-rule:evenodd" xmlns:xlink="http://www.w3.org/1999/xlink">
<g><path style="opacity:0.999" fill="#ee8c70" d="M 232.5,-0.5 C 240.167,-0.5 247.833,-0.5 255.5,-0.5C 255.5,170.167 255.5,340.833 255.5,511.5C 247.833,511.5 240.167,511.5 232.5,511.5C 228.664,510.622 224.664,509.956 220.5,509.5C 219.791,508.596 218.791,508.263 217.5,508.5C 217.5,457.5 217.5,406.5 217.5,355.5C 214.941,355.802 212.607,355.468 210.5,354.5C 222.5,354.5 234.5,354.5 246.5,354.5C 246.5,292.5 246.5,230.5 246.5,168.5C 237.014,167.506 227.348,167.173 217.5,167.5C 217.171,112.095 217.504,56.7618 218.5,1.5C 223.338,1.08855 228.005,0.421887 232.5,-0.5 Z"/></g>
<g><path style="opacity:1" fill="#ee8f70" d="M 255.5,-0.5 C 258.167,-0.5 260.833,-0.5 263.5,-0.5C 263.5,170.167 263.5,340.833 263.5,511.5C 260.833,511.5 258.167,511.5 255.5,511.5C 255.5,340.833 255.5,170.167 255.5,-0.5 Z"/></g>
<g><path style="opacity:0.999" fill="#ef9271" d="M 263.5,-0.5 C 268.5,-0.5 273.5,-0.5 278.5,-0.5C 288.747,0.87106 299.081,2.53773 309.5,4.5C 308.504,72.7623 308.17,141.096 308.5,209.5C 298.652,209.173 288.986,209.506 279.5,210.5C 279.038,247.535 279.538,284.535 281,321.5C 285.018,336.913 294.185,347.913 308.5,354.5C 308.5,405.167 308.5,455.833 308.5,506.5C 298.432,508.504 288.432,510.17 278.5,511.5C 273.5,511.5 268.5,511.5 263.5,511.5C 263.5,340.833 263.5,170.167 263.5,-0.5 Z"/></g>
<g><path style="opacity:0.999" fill="#ee866f" d="M 218.5,1.5 C 217.504,56.7618 217.171,112.095 217.5,167.5C 212.833,167.5 208.167,167.5 203.5,167.5C 203.5,203.5 203.5,239.5 203.5,275.5C 192.512,260.872 181.512,246.205 170.5,231.5C 171.499,159.002 171.833,86.3352 171.5,13.5C 186.622,7.80226 202.289,3.80226 218.5,1.5 Z"/></g>
<g><path style="opacity:0.999" fill="#ef9972" d="M 309.5,4.5 C 327.941,8.53523 345.608,14.5352 362.5,22.5C 362.5,118.833 362.5,215.167 362.5,311.5C 359.783,315.71 355.783,318.21 350.5,319C 333.664,322.146 324.164,315.312 322,298.5C 321.5,269.169 321.333,239.835 321.5,210.5C 307.5,210.5 293.5,210.5 279.5,210.5C 288.986,209.506 298.652,209.173 308.5,209.5C 308.17,141.096 308.504,72.7623 309.5,4.5 Z"/></g>
<g><path style="opacity:0.998" fill="#ee806e" d="M 171.5,13.5 C 171.833,86.3352 171.499,159.002 170.5,231.5C 155.065,210.283 139.399,189.283 123.5,168.5C 121.735,167.539 119.735,167.205 117.5,167.5C 117.5,124.833 117.5,82.1667 117.5,39.5C 134.129,28.1868 152.129,19.5201 171.5,13.5 Z"/></g>
<g><path style="opacity:0.998" fill="#ef9f73" d="M 362.5,22.5 C 379.157,29.4861 394.49,38.4861 408.5,49.5C 408.5,102.833 408.5,156.167 408.5,209.5C 394.99,209.171 381.656,209.504 368.5,210.5C 368.667,240.502 368.5,270.502 368,300.5C 367.19,304.787 365.357,308.454 362.5,311.5C 362.5,215.167 362.5,118.833 362.5,22.5 Z"/></g>
<g><path style="opacity:0.997" fill="#ee7a6d" d="M 117.5,39.5 C 117.5,82.1667 117.5,124.833 117.5,167.5C 107.167,167.5 96.8333,167.5 86.5,167.5C 86.1676,230.002 86.5009,292.336 87.5,354.5C 97.3194,355.494 107.319,355.827 117.5,355.5C 117.5,394.167 117.5,432.833 117.5,471.5C 105.594,464.378 94.5941,456.045 84.5,446.5C 84.5,319.167 84.5,191.833 84.5,64.5C 87.5675,61.1184 90.9008,57.9517 94.5,55C 101.793,49.1944 109.46,44.0278 117.5,39.5 Z"/></g>
<g><path style="opacity:0.998" fill="#efa574" d="M 408.5,49.5 C 426.421,62.0864 442.088,77.0864 455.5,94.5C 454.167,201.833 454.167,309.167 455.5,416.5C 442.088,433.914 426.421,448.914 408.5,461.5C 408.5,426.167 408.5,390.833 408.5,355.5C 395.323,355.829 382.323,355.495 369.5,354.5C 383.5,354.5 397.5,354.5 411.5,354.5C 411.5,306.5 411.5,258.5 411.5,210.5C 397.167,210.5 382.833,210.5 368.5,210.5C 381.656,209.504 394.99,209.171 408.5,209.5C 408.5,156.167 408.5,102.833 408.5,49.5 Z"/></g>
<g><path style="opacity:0.999" fill="#ed776c" d="M 84.5,64.5 C 84.5,191.833 84.5,319.167 84.5,446.5C 79.2056,442.873 74.539,438.54 70.5,433.5C 72.4981,314.505 73.1648,195.171 72.5,75.5C 75.8744,71.1245 79.8744,67.4578 84.5,64.5 Z"/></g>
<g><path style="opacity:0.997" fill="#ed736c" d="M 72.5,75.5 C 73.1648,195.171 72.4981,314.505 70.5,433.5C 52.1416,415.13 37.4749,394.13 26.5,370.5C 26.5,293.833 26.5,217.167 26.5,140.5C 37.9545,116.052 53.2878,94.3857 72.5,75.5 Z"/></g>
<g><path style="opacity:0.995" fill="#f0ab75" d="M 455.5,94.5 C 487.642,134.902 506.309,180.902 511.5,232.5C 511.5,247.833 511.5,263.167 511.5,278.5C 506.318,330.061 487.652,376.061 455.5,416.5C 454.167,309.167 454.167,201.833 455.5,94.5 Z"/></g>
<g><path style="opacity:0.989" fill="#ed6f6b" d="M 26.5,140.5 C 26.5,217.167 26.5,293.833 26.5,370.5C 11.597,341.552 2.59697,310.886 -0.5,278.5C -0.5,263.167 -0.5,247.833 -0.5,232.5C 2.59697,200.114 11.597,169.448 26.5,140.5 Z"/></g>
<g><path style="opacity:1" fill="#f4a9a2" d="M 117.5,167.5 C 119.735,167.205 121.735,167.539 123.5,168.5C 111.5,168.5 99.5,168.5 87.5,168.5C 87.5,230.5 87.5,292.5 87.5,354.5C 86.5009,292.336 86.1676,230.002 86.5,167.5C 96.8333,167.5 107.167,167.5 117.5,167.5 Z"/></g>
<g><path style="opacity:1" fill="#fefefe" d="M 123.5,168.5 C 139.399,189.283 155.065,210.283 170.5,231.5C 181.512,246.205 192.512,260.872 203.5,275.5C 204.499,240.573 204.833,204.906 204.5,168.5C 218.5,168.5 232.5,168.5 246.5,168.5C 246.5,230.5 246.5,292.5 246.5,354.5C 234.5,354.5 222.5,354.5 210.5,354.5C 197.5,337.167 184.5,319.833 171.5,302.5C 158.167,284.167 144.833,265.833 131.5,247.5C 131.217,246.711 130.717,246.044 130,245.5C 129.5,281.832 129.333,318.165 129.5,354.5C 115.5,354.5 101.5,354.5 87.5,354.5C 87.5,292.5 87.5,230.5 87.5,168.5C 99.5,168.5 111.5,168.5 123.5,168.5 Z"/></g>
<g><path style="opacity:1" fill="#f7ccc1" d="M 217.5,167.5 C 227.348,167.173 237.014,167.506 246.5,168.5C 232.5,168.5 218.5,168.5 204.5,168.5C 204.833,204.906 204.499,240.573 203.5,275.5C 203.5,239.5 203.5,203.5 203.5,167.5C 208.167,167.5 212.833,167.5 217.5,167.5 Z"/></g>
<g><path style="opacity:1" fill="#fefefe" d="M 279.5,210.5 C 293.5,210.5 307.5,210.5 321.5,210.5C 321.333,239.835 321.5,269.169 322,298.5C 324.164,315.312 333.664,322.146 350.5,319C 355.783,318.21 359.783,315.71 362.5,311.5C 365.357,308.454 367.19,304.787 368,300.5C 368.5,270.502 368.667,240.502 368.5,210.5C 382.833,210.5 397.167,210.5 411.5,210.5C 411.5,258.5 411.5,306.5 411.5,354.5C 397.5,354.5 383.5,354.5 369.5,354.5C 369.666,349.489 369.499,344.489 369,339.5C 366.665,342.665 364.165,345.665 361.5,348.5C 348.318,356.556 333.984,359.389 318.5,357C 315.176,356.057 311.843,355.224 308.5,354.5C 294.185,347.913 285.018,336.913 281,321.5C 279.538,284.535 279.038,247.535 279.5,210.5 Z"/></g>
<g><path style="opacity:1" fill="#f1988b" d="M 131.5,247.5 C 130.833,283.167 130.167,318.833 129.5,354.5C 129.333,318.165 129.5,281.832 130,245.5C 130.717,246.044 131.217,246.711 131.5,247.5 Z"/></g>
<g><path style="opacity:0.999" fill="#ee806e" d="M 131.5,247.5 C 144.833,265.833 158.167,284.167 171.5,302.5C 171.5,367.5 171.5,432.5 171.5,497.5C 152.129,491.48 134.129,482.813 117.5,471.5C 117.5,432.833 117.5,394.167 117.5,355.5C 107.319,355.827 97.3194,355.494 87.5,354.5C 101.5,354.5 115.5,354.5 129.5,354.5C 130.167,318.833 130.833,283.167 131.5,247.5 Z"/></g>
<g><path style="opacity:0.999" fill="#ee866f" d="M 171.5,302.5 C 184.5,319.833 197.5,337.167 210.5,354.5C 212.607,355.468 214.941,355.802 217.5,355.5C 217.5,406.5 217.5,457.5 217.5,508.5C 218.791,508.263 219.791,508.596 220.5,509.5C 203.562,507.515 187.229,503.515 171.5,497.5C 171.5,432.5 171.5,367.5 171.5,302.5 Z"/></g>
<g><path style="opacity:0.997" fill="#ef9f73" d="M 369.5,354.5 C 382.323,355.495 395.323,355.829 408.5,355.5C 408.5,390.833 408.5,426.167 408.5,461.5C 394.49,472.514 379.157,481.514 362.5,488.5C 362.832,441.664 362.499,394.997 361.5,348.5C 364.165,345.665 366.665,342.665 369,339.5C 369.499,344.489 369.666,349.489 369.5,354.5 Z"/></g>
<g><path style="opacity:0.998" fill="#ef9972" d="M 361.5,348.5 C 362.499,394.997 362.832,441.664 362.5,488.5C 345.331,496.668 327.331,502.668 308.5,506.5C 308.5,455.833 308.5,405.167 308.5,354.5C 311.843,355.224 315.176,356.057 318.5,357C 333.984,359.389 348.318,356.556 361.5,348.5 Z"/></g>
</svg>
