<?xml version="1.0" encoding="UTF-8"?>
<!DOCTYPE svg PUBLIC "-//W3C//DTD SVG 1.1//EN" "http://www.w3.org/Graphics/SVG/1.1/DTD/svg11.dtd">
<svg xmlns="http://www.w3.org/2000/svg" version="1.1" width="512px" height="512px" style="shape-rendering:geometricPrecision; text-rendering:geometricPrecision; image-rendering:optimizeQuality; fill-rule:evenodd; clip-rule:evenodd" xmlns:xlink="http://www.w3.org/1999/xlink">
<g><path style="opacity:0.982" fill="#2f58ff" d="M 233.5,-0.5 C 248.5,-0.5 263.5,-0.5 278.5,-0.5C 382.412,12.5869 454.912,67.2535 496,163.5C 502.947,182.123 507.781,201.29 510.5,221C 510.269,225.729 507.936,228.896 503.5,230.5C 499.548,230.341 496.381,228.674 494,225.5C 478.413,132.599 427.246,68.0989 340.5,32C 306.755,19.4407 272.089,14.6074 236.5,17.5C 160.282,25.5105 100.449,60.8438 57,123.5C 14.233,191.889 6.23301,264.222 33,340.5C 37.3007,351.1 42.134,361.434 47.5,371.5C 89.9943,443.415 152.994,484.248 236.5,494C 331.661,497.837 405.828,460.67 459,382.5C 477.824,351.364 489.49,317.698 494,281.5C 495.785,277.199 498.952,275.199 503.5,275.5C 508.073,275.744 510.74,278.078 511.5,282.5C 511.5,283.833 511.5,285.167 511.5,286.5C 499.636,367.162 459.636,429.662 391.5,474C 356.581,495.029 318.914,507.529 278.5,511.5C 263.5,511.5 248.5,511.5 233.5,511.5C 134.824,498.967 63.9905,447.967 21,358.5C 8.39265,328.279 1.22599,296.946 -0.5,264.5C -0.5,258.5 -0.5,252.5 -0.5,246.5C 6.21885,151.517 50.2188,79.6835 131.5,31C 163.535,13.7076 197.535,3.20759 233.5,-0.5 Z"/></g>
<g><path style="opacity:1" fill="#cfe5ff" d="M 236.5,17.5 C 246.5,17.5 256.5,17.5 266.5,17.5C 266.276,21.5616 264.276,24.395 260.5,26C 188.964,35.0081 130.797,67.5081 86,123.5C 33.7739,197.655 22.9406,277.655 53.5,363.5C 53.3534,367.637 51.3534,370.303 47.5,371.5C 42.134,361.434 37.3007,351.1 33,340.5C 6.23301,264.222 14.233,191.889 57,123.5C 100.449,60.8438 160.282,25.5105 236.5,17.5 Z"/></g>
<g><path style="opacity:0.999" fill="#b7daff" d="M 236.5,17.5 C 272.089,14.6074 306.755,19.4407 340.5,32C 427.246,68.0989 478.413,132.599 494,225.5C 496.381,228.674 499.548,230.341 503.5,230.5C 504.695,245.505 504.695,260.505 503.5,275.5C 498.952,275.199 495.785,277.199 494,281.5C 489.49,317.698 477.824,351.364 459,382.5C 405.828,460.67 331.661,497.837 236.5,494C 152.994,484.248 89.9943,443.415 47.5,371.5C 51.3534,370.303 53.3534,367.637 53.5,363.5C 22.9406,277.655 33.7739,197.655 86,123.5C 130.797,67.5081 188.964,35.0081 260.5,26C 264.276,24.395 266.276,21.5616 266.5,17.5C 256.5,17.5 246.5,17.5 236.5,17.5 Z"/></g>
<g><path style="opacity:1" fill="#3159ff" d="M 194.5,67.5 C 193.883,69.2292 192.883,70.7292 191.5,72C 126.388,97.4446 84.8878,143.945 67,211.5C 56.8992,259.889 63.3992,305.889 86.5,349.5C 120.135,406.851 170.135,440.017 236.5,449C 314.469,453.595 375.635,424.095 420,360.5C 449.226,311.805 457.226,259.805 444,204.5C 422.5,135 377,89.5 307.5,68C 295.345,64.9355 283.012,63.1022 270.5,62.5C 258.674,61.6693 246.674,61.1693 234.5,61C 232.077,59.4293 230.744,57.2626 230.5,54.5C 230.199,49.9521 232.199,46.7854 236.5,45C 321.209,40.6067 387.375,73.1067 435,142.5C 476.27,213.341 478.27,285.341 441,358.5C 394.89,433.814 327.39,469.648 238.5,466C 166.076,457.52 110.909,422.353 73,360.5C 41.6333,302.231 36.9666,241.898 59,179.5C 83.3158,121.184 124.816,80.3507 183.5,57C 191.481,55.9893 195.148,59.4893 194.5,67.5 Z"/></g>
<g><path style="opacity:1" fill="#e7f2ff" d="M 230.5,54.5 C 230.744,57.2626 232.077,59.4293 234.5,61C 246.674,61.1693 258.674,61.6693 270.5,62.5C 270.523,67.6321 268.19,71.1321 263.5,73C 201.227,83.6256 153.06,115.459 119,168.5C 85.8828,221.758 77.3828,278.758 93.5,339.5C 93.558,344.451 91.2246,347.784 86.5,349.5C 63.3992,305.889 56.8992,259.889 67,211.5C 84.8878,143.945 126.388,97.4446 191.5,72C 192.883,70.7292 193.883,69.2292 194.5,67.5C 195.461,65.7354 195.795,63.7354 195.5,61.5C 206.98,58.2708 218.646,55.9374 230.5,54.5 Z"/></g>
<g><path style="opacity:1" fill="#d0e6ff" d="M 270.5,62.5 C 283.012,63.1022 295.345,64.9355 307.5,68C 377,89.5 422.5,135 444,204.5C 457.226,259.805 449.226,311.805 420,360.5C 375.635,424.095 314.469,453.595 236.5,449C 170.135,440.017 120.135,406.851 86.5,349.5C 91.2246,347.784 93.558,344.451 93.5,339.5C 77.3828,278.758 85.8828,221.758 119,168.5C 153.06,115.459 201.227,83.6256 263.5,73C 268.19,71.1321 270.523,67.6321 270.5,62.5 Z"/></g>
<g><path style="opacity:1" fill="#315aff" d="M 263.5,104.5 C 233.366,134.798 203.533,165.132 174,195.5C 180.833,202.333 187.667,209.167 194.5,216C 195.167,216.667 195.833,216.667 196.5,216C 226.035,186.632 255.368,157.132 284.5,127.5C 292.08,123.457 296.747,125.624 298.5,134C 298.616,136.544 297.783,138.711 296,140.5C 264.5,172 233,203.5 201.5,235C 197.5,238.333 193.5,238.333 189.5,235C 178,223.5 166.5,212 155,200.5C 153.517,197.298 153.183,193.964 154,190.5C 186.833,157.667 219.667,124.833 252.5,92C 262.393,90.7255 266.06,94.8921 263.5,104.5 Z"/></g>
<g><path style="opacity:1" fill="#b7daff" d="M 263.5,104.5 C 263.351,105.552 263.517,106.552 264,107.5C 270.702,114.369 277.535,121.036 284.5,127.5C 255.368,157.132 226.035,186.632 196.5,216C 195.833,216.667 195.167,216.667 194.5,216C 187.667,209.167 180.833,202.333 174,195.5C 203.533,165.132 233.366,134.798 263.5,104.5 Z"/></g>
<g><path style="opacity:1" fill="#3159ff" d="M 295.5,180.5 C 298.355,183.592 299.188,187.259 298,191.5C 257,232.5 216,273.5 175,314.5C 174.333,315.5 174.333,316.5 175,317.5C 181.5,324 188,330.5 194.5,337C 195.167,337.667 195.833,337.667 196.5,337C 243.667,289.833 290.833,242.667 338,195.5C 338.667,194.833 338.667,194.167 338,193.5C 328.965,184.298 319.798,175.298 310.5,166.5C 306.598,158.923 308.765,154.257 317,152.5C 318.967,152.542 320.801,153.042 322.5,154C 334.333,165.833 346.167,177.667 358,189.5C 360,192.833 360,196.167 358,199.5C 305.167,252.333 252.333,305.167 199.5,358C 196.833,358.667 194.167,358.667 191.5,358C 179,345.5 166.5,333 154,320.5C 153.183,317.036 153.517,313.702 155,310.5C 198.167,267.333 241.333,224.167 284.5,181C 288.125,179.253 291.792,179.086 295.5,180.5 Z"/></g>
<g><path style="opacity:1" fill="#b7daff" d="M 310.5,166.5 C 319.798,175.298 328.965,184.298 338,193.5C 338.667,194.167 338.667,194.833 338,195.5C 290.833,242.667 243.667,289.833 196.5,337C 195.833,337.667 195.167,337.667 194.5,337C 188,330.5 181.5,324 175,317.5C 174.333,316.5 174.333,315.5 175,314.5C 216,273.5 257,232.5 298,191.5C 299.188,187.259 298.355,183.592 295.5,180.5C 301.108,176.561 306.108,171.894 310.5,166.5 Z"/></g>
<g><path style="opacity:1" fill="#3159ff" d="M 141.5,227.5 C 131.854,236.479 122.521,245.812 113.5,255.5C 119.985,262.486 126.652,269.319 133.5,276C 134.5,276.667 135.5,276.667 136.5,276C 145.702,266.965 154.702,257.798 163.5,248.5C 175.133,245.734 178.967,250.067 175,261.5C 163.5,273 152,284.5 140.5,296C 137.298,297.483 133.964,297.817 130.5,297C 118,284.5 105.5,272 93,259.5C 92.3333,256.833 92.3333,254.167 93,251.5C 105.5,239 118,226.5 130.5,214C 140.851,212.827 144.517,217.327 141.5,227.5 Z"/></g>
<g><path style="opacity:1" fill="#2f59ff" d="M 286.5,381.5 C 283.342,378.206 282.842,374.539 285,370.5C 323,332.5 361,294.5 399,256.5C 399.667,255.833 399.667,255.167 399,254.5C 392,247.5 385,240.5 378,233.5C 330.167,281.333 282.333,329.167 234.5,377C 243.702,386.369 253.035,395.536 262.5,404.5C 266.941,414.796 263.608,419.629 252.5,419C 240,406.5 227.5,394 215,381.5C 213.627,379.305 213.294,376.971 214,374.5C 266.472,321.027 319.306,267.861 372.5,215C 376.167,213 379.833,213 383.5,215C 395.333,226.833 407.167,238.667 419,250.5C 421,253.833 421,257.167 419,260.5C 378.5,301 338,341.5 297.5,382C 293.647,384.134 289.98,383.967 286.5,381.5 Z"/></g>
<g><path style="opacity:1" fill="#b7daff" d="M 141.5,227.5 C 148.222,235.224 155.555,242.224 163.5,248.5C 154.702,257.798 145.702,266.965 136.5,276C 135.5,276.667 134.5,276.667 133.5,276C 126.652,269.319 119.985,262.486 113.5,255.5C 122.521,245.812 131.854,236.479 141.5,227.5 Z"/></g>
<g><path style="opacity:1" fill="#b7daff" d="M 286.5,381.5 C 278.5,389.167 270.5,396.833 262.5,404.5C 253.035,395.536 243.702,386.369 234.5,377C 282.333,329.167 330.167,281.333 378,233.5C 385,240.5 392,247.5 399,254.5C 399.667,255.167 399.667,255.833 399,256.5C 361,294.5 323,332.5 285,370.5C 282.842,374.539 283.342,378.206 286.5,381.5 Z"/></g>
</svg>
