<?xml version="1.0" encoding="UTF-8"?>
<!DOCTYPE svg PUBLIC "-//W3C//DTD SVG 1.1//EN" "http://www.w3.org/Graphics/SVG/1.1/DTD/svg11.dtd">
<svg xmlns="http://www.w3.org/2000/svg" version="1.1" width="64px" height="64px" style="shape-rendering:geometricPrecision; text-rendering:geometricPrecision; image-rendering:optimizeQuality; fill-rule:evenodd; clip-rule:evenodd" xmlns:xlink="http://www.w3.org/1999/xlink">
<g><path style="opacity:0.842" fill="#100804" d="M 23.5,2.5 C 41.3623,-0.158261 53.529,6.84174 60,23.5C 63.1496,41.3747 56.3163,53.5413 39.5,60C 21.6253,63.1496 9.45866,56.3163 3,39.5C -0.0230431,21.535 6.81029,9.20168 23.5,2.5 Z"/></g>
<g><path style="opacity:1" fill="#c56d3e" d="M 25.5,4.5 C 27.1667,4.5 28.8333,4.5 30.5,4.5C 30.5,5.5 30.5,6.5 30.5,7.5C 28.8333,7.5 27.1667,7.5 25.5,7.5C 25.5,6.5 25.5,5.5 25.5,4.5 Z"/></g>
<g><path style="opacity:1" fill="#c86e3e" d="M 32.5,4.5 C 34.1667,4.5 35.8333,4.5 37.5,4.5C 37.5,5.5 37.5,6.5 37.5,7.5C 35.8333,7.5 34.1667,7.5 32.5,7.5C 32.5,6.5 32.5,5.5 32.5,4.5 Z"/></g>
<g><path style="opacity:1" fill="#c36b3d" d="M 22.5,5.5 C 25.1151,7.47691 24.6151,8.81024 21,9.5C 20.5,9.16667 20,8.83333 19.5,8.5C 20.3398,7.26501 21.3398,6.26501 22.5,5.5 Z"/></g>
<g><path style="opacity:1" fill="#c1683a" d="M 39.5,5.5 C 44.6167,7.95016 44.6167,8.95016 39.5,8.5C 38.4376,7.57537 38.4376,6.57537 39.5,5.5 Z"/></g>
<g><path style="opacity:1" fill="#c26b3c" d="M 16.5,8.5 C 19.1113,10.682 18.6113,12.3487 15,13.5C 14.3076,12.9747 13.8076,12.3081 13.5,11.5C 14.7701,10.7124 15.7701,9.71237 16.5,8.5 Z"/></g>
<g><path style="opacity:1" fill="#be7a59" d="M 24.5,9.5 C 46.651,8.4784 55.8177,18.8117 52,40.5C 43.3126,54.4132 31.8126,57.2466 17.5,49C 9.58668,41.6454 7.42002,32.812 11,22.5C 14.0762,16.5887 18.5762,12.2554 24.5,9.5 Z"/></g>
<g><path style="opacity:1" fill="#c16236" d="M 45.5,8.5 C 46.8149,9.47565 48.1482,10.4756 49.5,11.5C 48.3175,13.6454 46.8175,13.6454 45,11.5C 44.5304,10.4232 44.6971,9.42317 45.5,8.5 Z"/></g>
<g><path style="opacity:1" fill="#1b1510" d="M 27.5,10.5 C 42.0308,9.87004 50.3642,16.7034 52.5,31C 50.1454,47.5061 40.8121,54.1728 24.5,51C 15.6597,47.3382 10.993,40.6715 10.5,31C 11.6852,20.325 17.3519,13.4917 27.5,10.5 Z"/></g>
<g><path style="opacity:1" fill="#eee4a4" d="M 27.5,12.5 C 40.7004,11.8729 48.3671,18.0396 50.5,31C 49.3333,42.8333 42.8333,49.3333 31,50.5C 19.7087,48.8751 13.542,42.3751 12.5,31C 13.6947,21.648 18.6947,15.4814 27.5,12.5 Z"/></g>
<g><path style="opacity:1" fill="#c16b3c" d="M 10.5,13.5 C 13.9274,14.5955 13.9274,16.2622 10.5,18.5C 9.69194,18.1924 9.02527,17.6924 8.5,17C 9.82277,16.1841 10.4894,15.0174 10.5,13.5 Z"/></g>
<g><path style="opacity:1" fill="#be5d32" d="M 50.5,13.5 C 52.1344,14.2066 53.4677,15.3732 54.5,17C 52.0566,18.9591 50.3899,18.2924 49.5,15C 50.056,14.6174 50.3893,14.1174 50.5,13.5 Z"/></g>
<g><path style="opacity:1" fill="#c26b3d" d="M 7.5,19.5 C 9.89632,20.8275 9.89632,22.4942 7.5,24.5C 6.69194,24.1924 6.02527,23.6924 5.5,23C 6.30501,21.8873 6.97168,20.7206 7.5,19.5 Z"/></g>
<g><path style="opacity:1" fill="#be5b30" d="M 53.5,19.5 C 55.5638,19.7619 56.8971,20.9286 57.5,23C 56.5761,24.4892 55.5761,24.6559 54.5,23.5C 53.7542,22.2638 53.4208,20.9305 53.5,19.5 Z"/></g>
<g><path style="opacity:1" fill="#181712" d="M 20.5,20.5 C 24.287,19.8144 27.4537,20.8144 30,23.5C 30.3505,26.7216 31.6838,29.3883 34,31.5C 35.7975,39.039 32.7975,42.7057 25,42.5C 22.6477,42.6951 20.6477,42.0284 19,40.5C 17.9372,33.556 18.4372,26.8894 20.5,20.5 Z"/></g>
<g><path style="opacity:1" fill="#c56d3e" d="M 4.5,25.5 C 5.5,25.5 6.5,25.5 7.5,25.5C 7.5,27.1667 7.5,28.8333 7.5,30.5C 6.5,30.5 5.5,30.5 4.5,30.5C 4.5,28.8333 4.5,27.1667 4.5,25.5 Z"/></g>
<g><path style="opacity:1" fill="#bf5b30" d="M 55.5,25.5 C 56.5,25.5 57.5,25.5 58.5,25.5C 58.5,27.1667 58.5,28.8333 58.5,30.5C 57.5,30.5 56.5,30.5 55.5,30.5C 55.5,28.8333 55.5,27.1667 55.5,25.5 Z"/></g>
<g><path style="opacity:1" fill="#313130" d="M 20.5,22.5 C 22.9201,22.2924 25.2534,22.6258 27.5,23.5C 28.7148,27.6777 30.3815,31.511 32.5,35C 32.9096,37.5754 31.9096,39.2421 29.5,40C 26.5184,40.498 23.5184,40.6646 20.5,40.5C 20.5,34.5 20.5,28.5 20.5,22.5 Z"/></g>
<g><path style="opacity:1" fill="#1a1a18" d="M 36.5,27.5 C 40.0071,26.9935 43.1737,27.6602 46,29.5C 46.6172,30.4491 46.4506,31.2825 45.5,32C 43.8659,32.4935 42.1992,32.6602 40.5,32.5C 40.6646,35.5184 40.498,38.5184 40,41.5C 38.6667,42.8333 37.3333,42.8333 36,41.5C 35.2266,36.7481 35.3932,32.0815 36.5,27.5 Z"/></g>
<g><path style="opacity:1" fill="#12110e" d="M 22.5,30.5 C 29.4679,28.9712 32.1346,31.4712 30.5,38C 27.9865,39.2525 25.3198,39.7525 22.5,39.5C 22.5,36.5 22.5,33.5 22.5,30.5 Z"/></g>
<g><path style="opacity:1" fill="#c76e3e" d="M 4.5,32.5 C 5.5,32.5 6.5,32.5 7.5,32.5C 7.5,34.1667 7.5,35.8333 7.5,37.5C 6.5,37.5 5.5,37.5 4.5,37.5C 4.5,35.8333 4.5,34.1667 4.5,32.5 Z"/></g>
<g><path style="opacity:1" fill="#eae1a4" d="M 24.5,32.5 C 28.6759,31.8307 30.0093,33.3307 28.5,37C 27.2068,37.49 25.8734,37.6567 24.5,37.5C 24.5,35.8333 24.5,34.1667 24.5,32.5 Z"/></g>
<g><path style="opacity:1" fill="#c25c31" d="M 55.5,32.5 C 56.5,32.5 57.5,32.5 58.5,32.5C 58.5,34.1667 58.5,35.8333 58.5,37.5C 57.5,37.5 56.5,37.5 55.5,37.5C 55.5,35.8333 55.5,34.1667 55.5,32.5 Z"/></g>
<g><path style="opacity:1" fill="#c16b3c" d="M 6.5,38.5 C 9.11896,39.4028 9.78563,41.0695 8.5,43.5C 6.32289,42.1853 5.65622,40.5187 6.5,38.5 Z"/></g>
<g><path style="opacity:1" fill="#bb5930" d="M 54.5,38.5 C 57.9274,39.5955 57.9274,41.2622 54.5,43.5C 53.5661,41.9052 53.5661,40.2385 54.5,38.5 Z"/></g>
<g><path style="opacity:1" fill="#bf6a3c" d="M 9.5,44.5 C 11.5638,44.7619 12.8971,45.9286 13.5,48C 13.1667,48.3333 12.8333,48.6667 12.5,49C 10.8126,48.8073 9.47922,47.8073 8.5,46C 9.05596,45.6174 9.38929,45.1174 9.5,44.5 Z"/></g>
<g><path style="opacity:1" fill="#c56033" d="M 51.5,44.5 C 54.9398,45.5856 54.9398,47.2522 51.5,49.5C 50.6919,49.1924 50.0253,48.6924 49.5,48C 50.305,46.8873 50.9717,45.7206 51.5,44.5 Z"/></g>
<g><path style="opacity:1" fill="#c46c3d" d="M 14.5,49.5 C 18.0411,50.1429 18.8744,51.8096 17,54.5C 15.9264,53.3816 14.7598,52.3816 13.5,51.5C 13.8627,50.8165 14.1961,50.1499 14.5,49.5 Z"/></g>
<g><path style="opacity:1" fill="#c16135" d="M 47.5,49.5 C 48.4778,49.811 49.1445,50.4777 49.5,51.5C 48.2402,52.3816 47.0736,53.3816 46,54.5C 44.1204,52.2362 44.6204,50.5696 47.5,49.5 Z"/></g>
<g><path style="opacity:1" fill="#c06a3c" d="M 19.5,53.5 C 22.1834,53.2266 23.6834,54.2266 24,56.5C 22.927,57.2797 21.7604,57.113 20.5,56C 19.7476,55.3292 19.4142,54.4959 19.5,53.5 Z"/></g>
<g><path style="opacity:1" fill="#d06f3e" d="M 40.5,53.5 C 44.2233,54.5241 44.0567,55.8574 40,57.5C 39.4209,56.0715 39.5876,54.7382 40.5,53.5 Z"/></g>
<g><path style="opacity:1" fill="#c46c3d" d="M 25.5,55.5 C 27.1667,55.5 28.8333,55.5 30.5,55.5C 30.5,56.5 30.5,57.5 30.5,58.5C 28.8333,58.5 27.1667,58.5 25.5,58.5C 25.5,57.5 25.5,56.5 25.5,55.5 Z"/></g>
<g><path style="opacity:1" fill="#c96f3f" d="M 32.5,55.5 C 34.1667,55.5 35.8333,55.5 37.5,55.5C 37.5,56.5 37.5,57.5 37.5,58.5C 35.8333,58.5 34.1667,58.5 32.5,58.5C 32.5,57.5 32.5,56.5 32.5,55.5 Z"/></g>
</svg>
