<?xml version="1.0" encoding="UTF-8"?>
<!DOCTYPE svg PUBLIC "-//W3C//DTD SVG 1.1//EN" "http://www.w3.org/Graphics/SVG/1.1/DTD/svg11.dtd">
<svg xmlns="http://www.w3.org/2000/svg" version="1.1" width="512px" height="512px" style="shape-rendering:geometricPrecision; text-rendering:geometricPrecision; image-rendering:optimizeQuality; fill-rule:evenodd; clip-rule:evenodd" xmlns:xlink="http://www.w3.org/1999/xlink">
<g><path style="opacity:0.959" fill="#000000" d="M 233.5,-0.5 C 248.5,-0.5 263.5,-0.5 278.5,-0.5C 368.144,10.3879 435.644,54.7213 481,132.5C 497.695,163.971 507.861,197.304 511.5,232.5C 511.5,247.5 511.5,262.5 511.5,277.5C 499.016,377.807 447.016,449.307 355.5,492C 330.316,502.296 304.316,508.796 277.5,511.5C 262.5,511.5 247.5,511.5 232.5,511.5C 130.434,498.225 58.6008,444.558 17,350.5C 8.0309,327.127 2.19757,303.127 -0.5,278.5C -0.5,263.167 -0.5,247.833 -0.5,232.5C 9.30698,148.242 49.6403,83.0754 120.5,37C 155.422,15.9704 193.088,3.4704 233.5,-0.5 Z M 251.5,27.5 C 339.851,29.5692 407.018,67.9025 453,142.5C 486.022,203.007 491.689,266.007 470,331.5C 440.298,407.276 386.132,455.776 307.5,477C 221.529,493.785 148.029,470.951 87,408.5C 27.7273,337.881 13.3939,258.881 44,171.5C 74.9245,99.9117 128.091,54.0783 203.5,34C 219.478,30.5431 235.478,28.3764 251.5,27.5 Z M 367.5,163.5 C 372.833,163.5 378.167,163.5 383.5,163.5C 383.334,169.176 383.501,174.843 384,180.5C 409.994,189.386 421.827,207.719 419.5,235.5C 411.5,235.5 403.5,235.5 395.5,235.5C 395.666,229.158 395.5,222.825 395,216.5C 389.657,205.248 380.824,201.081 368.5,204C 357.248,209.343 353.081,218.176 356,230.5C 358.167,236.667 362.333,240.833 368.5,243C 403.144,244.304 419.644,262.137 418,296.5C 413.333,314.5 402,325.833 384,330.5C 383.501,336.157 383.334,341.824 383.5,347.5C 378.167,347.5 372.833,347.5 367.5,347.5C 367.666,341.824 367.499,336.157 367,330.5C 341.006,321.614 329.173,303.281 331.5,275.5C 339.5,275.5 347.5,275.5 355.5,275.5C 355.334,281.842 355.5,288.175 356,294.5C 362.023,306.516 371.523,310.349 384.5,306C 393.989,300.563 397.489,292.397 395,281.5C 393.264,274.763 389.097,270.263 382.5,268C 347.856,266.696 331.356,248.863 333,214.5C 337.667,196.5 349,185.167 367,180.5C 367.499,174.843 367.666,169.176 367.5,163.5 Z M 95.5,179.5 C 113.201,179.119 130.868,179.619 148.5,181C 175.609,189.811 186.442,208.311 181,236.5C 179.361,241.112 177.194,245.446 174.5,249.5C 196.87,266.647 201.37,287.647 188,312.5C 179.208,324.314 167.375,330.481 152.5,331C 133.503,331.5 114.503,331.667 95.5,331.5C 95.5,280.833 95.5,230.167 95.5,179.5 Z M 211.5,179.5 C 249.168,179.333 286.835,179.5 324.5,180C 297.833,222.333 271.167,264.667 244.5,307C 268.164,307.5 291.831,307.667 315.5,307.5C 315.5,315.5 315.5,323.5 315.5,331.5C 277.832,331.667 240.165,331.5 202.5,331C 229.167,288.667 255.833,246.333 282.5,204C 258.836,203.5 235.169,203.333 211.5,203.5C 211.5,195.5 211.5,187.5 211.5,179.5 Z"/></g>
<g><path style="opacity:0.988" fill="#000000" d="M 234.5,35.5 C 309.821,30.6454 372.654,55.9787 423,111.5C 472.541,172.859 487.208,241.859 467,318.5C 442.544,392.99 393.044,442.49 318.5,467C 228.108,489.705 151.275,467.205 88,399.5C 38.4578,338.134 23.7911,269.134 44,192.5C 67.6708,118.829 116.171,69.6626 189.5,45C 204.381,40.592 219.381,37.4253 234.5,35.5 Z M 367.5,163.5 C 367.666,169.176 367.499,174.843 367,180.5C 349,185.167 337.667,196.5 333,214.5C 331.356,248.863 347.856,266.696 382.5,268C 389.097,270.263 393.264,274.763 395,281.5C 397.489,292.397 393.989,300.563 384.5,306C 371.523,310.349 362.023,306.516 356,294.5C 355.5,288.175 355.334,281.842 355.5,275.5C 347.5,275.5 339.5,275.5 331.5,275.5C 329.173,303.281 341.006,321.614 367,330.5C 367.499,336.157 367.666,341.824 367.5,347.5C 372.833,347.5 378.167,347.5 383.5,347.5C 383.334,341.824 383.501,336.157 384,330.5C 402,325.833 413.333,314.5 418,296.5C 419.644,262.137 403.144,244.304 368.5,243C 362.333,240.833 358.167,236.667 356,230.5C 353.081,218.176 357.248,209.343 368.5,204C 380.824,201.081 389.657,205.248 395,216.5C 395.5,222.825 395.666,229.158 395.5,235.5C 403.5,235.5 411.5,235.5 419.5,235.5C 421.827,207.719 409.994,189.386 384,180.5C 383.501,174.843 383.334,169.176 383.5,163.5C 378.167,163.5 372.833,163.5 367.5,163.5 Z M 95.5,179.5 C 95.5,230.167 95.5,280.833 95.5,331.5C 114.503,331.667 133.503,331.5 152.5,331C 167.375,330.481 179.208,324.314 188,312.5C 201.37,287.647 196.87,266.647 174.5,249.5C 177.194,245.446 179.361,241.112 181,236.5C 186.442,208.311 175.609,189.811 148.5,181C 130.868,179.619 113.201,179.119 95.5,179.5 Z M 211.5,179.5 C 211.5,187.5 211.5,195.5 211.5,203.5C 235.169,203.333 258.836,203.5 282.5,204C 255.833,246.333 229.167,288.667 202.5,331C 240.165,331.5 277.832,331.667 315.5,331.5C 315.5,323.5 315.5,315.5 315.5,307.5C 291.831,307.667 268.164,307.5 244.5,307C 271.167,264.667 297.833,222.333 324.5,180C 286.835,179.5 249.168,179.333 211.5,179.5 Z"/></g>
<g><path style="opacity:0.976" fill="#000000" d="M 119.5,203.5 C 128.506,203.334 137.506,203.5 146.5,204C 159.704,210.682 163.204,220.849 157,234.5C 154.404,238.39 150.904,241.223 146.5,243C 137.506,243.5 128.506,243.666 119.5,243.5C 119.5,230.167 119.5,216.833 119.5,203.5 Z"/></g>
<g><path style="opacity:0.982" fill="#000000" d="M 119.5,267.5 C 133.573,267.053 147.573,267.553 161.5,269C 172.724,276.266 175.557,286.099 170,298.5C 167.677,301.578 164.843,304.078 161.5,306C 147.573,307.447 133.573,307.947 119.5,307.5C 119.5,294.167 119.5,280.833 119.5,267.5 Z"/></g>
</svg>
