<?xml version="1.0" encoding="UTF-8"?>
<!DOCTYPE svg PUBLIC "-//W3C//DTD SVG 1.1//EN" "http://www.w3.org/Graphics/SVG/1.1/DTD/svg11.dtd">
<svg xmlns="http://www.w3.org/2000/svg" version="1.1" width="512px" height="512px" style="shape-rendering:geometricPrecision; text-rendering:geometricPrecision; image-rendering:optimizeQuality; fill-rule:evenodd; clip-rule:evenodd" xmlns:xlink="http://www.w3.org/1999/xlink">
<g><path style="opacity:0.932" fill="#000000" d="M 234.5,-0.5 C 248.5,-0.5 262.5,-0.5 276.5,-0.5C 390.054,14.0446 464.887,75.7113 501,184.5C 505.741,201.047 509.241,217.713 511.5,234.5C 511.5,248.833 511.5,263.167 511.5,277.5C 502.376,356.27 466.043,419.103 402.5,466C 392.553,470.608 388.053,467.442 389,456.5C 393.546,452.286 398.379,448.453 403.5,445C 399.311,440.312 395.311,435.479 391.5,430.5C 390.998,429.479 390.332,429.312 389.5,430C 373.425,441.705 356.425,451.871 338.5,460.5C 340.444,466.667 342.777,472.667 345.5,478.5C 351.164,475.751 356.998,473.418 363,471.5C 371.308,475.208 372.475,480.374 366.5,487C 338.439,500.179 309.106,508.345 278.5,511.5C 263.5,511.5 248.5,511.5 233.5,511.5C 144.437,500.901 76.9373,457.234 31,380.5C 13.7076,348.465 3.20759,314.465 -0.5,278.5C -0.5,263.5 -0.5,248.5 -0.5,233.5C 7.66401,165.671 36.664,108.504 86.5,62C 129.3,25.894 178.633,5.06063 234.5,-0.5 Z M 235.5,15.5 C 239.5,15.5 243.5,15.5 247.5,15.5C 247.812,22.4222 247.479,29.2555 246.5,36C 227.256,36.735 208.423,39.9017 190,45.5C 188.674,45.2451 187.674,44.5784 187,43.5C 185.056,37.8349 183.222,32.1682 181.5,26.5C 199.307,21.2723 217.307,17.6056 235.5,15.5 Z M 263.5,15.5 C 286.385,16.092 308.718,19.9253 330.5,27C 328.148,33.5405 325.648,40.0405 323,46.5C 304.041,40.1754 284.541,36.6754 264.5,36C 263.521,29.2555 263.188,22.4222 263.5,15.5 Z M 164.5,32.5 C 168.49,38.4337 171.156,45.1003 172.5,52.5C 166.579,53.1097 162.579,56.1097 160.5,61.5C 161.117,66.6168 163.951,69.6168 169,70.5C 242.818,39.4561 312.318,46.9561 377.5,93C 442.907,146.355 468.741,214.855 455,298.5C 439.618,365.211 400.785,412.711 338.5,441C 260.534,473.005 188.868,462.672 123.5,410C 54.6648,345.157 35.8314,267.99 67,178.5C 82.3775,141.912 106.211,112.078 138.5,89C 144.596,81.9898 143.263,76.8231 134.5,73.5C 132.803,73.8988 131.137,74.3988 129.5,75C 126.64,77.3603 123.64,79.527 120.5,81.5C 116.286,76.2408 111.952,71.0741 107.5,66C 125.129,52.5457 144.129,41.3791 164.5,32.5 Z M 345.5,32.5 C 366.615,40.9824 385.949,52.3157 403.5,66.5C 399.511,71.8207 395.178,76.8207 390.5,81.5C 374.433,69.4612 357.099,59.4612 338.5,51.5C 341.039,45.2151 343.372,38.8818 345.5,32.5 Z M 94.5,76.5 C 98.8012,80.9723 102.968,85.6389 107,90.5C 107.667,91.5 107.667,92.5 107,93.5C 92.455,107.034 79.7884,122.034 69,138.5C 63.0838,135.126 57.2505,131.626 51.5,128C 63.7852,109.207 78.1186,92.04 94.5,76.5 Z M 415.5,77.5 C 432.832,91.9994 447.499,108.833 459.5,128C 453.896,132.323 447.896,135.656 441.5,138C 430.85,121.677 418.35,106.843 404,93.5C 403.333,92.8333 403.333,92.1667 404,91.5C 408.046,86.9596 411.879,82.2929 415.5,77.5 Z M 254.5,131.5 C 257.603,133.423 260.603,135.59 263.5,138C 275.374,150.041 287.374,161.875 299.5,173.5C 293.683,199.42 288.183,225.42 283,251.5C 281.436,262.942 285.936,266.442 296.5,262C 309.462,246.703 322.795,231.703 336.5,217C 349.188,217.259 361.854,218.092 374.5,219.5C 374.217,233.505 373.717,247.505 373,261.5C 356.043,274.789 339.376,288.455 323,302.5C 321.503,315.406 320.503,328.406 320,341.5C 298.921,330.21 277.421,319.876 255.5,310.5C 233.579,319.876 212.079,330.21 191,341.5C 190.497,328.406 189.497,315.406 188,302.5C 171.624,288.455 154.957,274.789 138,261.5C 137.283,247.505 136.783,233.505 136.5,219.5C 149.154,218.201 161.821,217.367 174.5,217C 188.538,232.036 202.204,247.369 215.5,263C 225.68,265.822 229.847,261.989 228,251.5C 222.817,225.42 217.317,199.42 211.5,173.5C 225.854,159.479 240.187,145.479 254.5,131.5 Z M 43.5,142.5 C 49.6365,145.736 55.6365,149.236 61.5,153C 51.9763,170.89 44.8096,189.724 40,209.5C 34.239,208.177 28.4057,207.011 22.5,206C 21.572,205.612 20.9054,204.945 20.5,204C 25.124,182.287 32.7907,161.787 43.5,142.5 Z M 465.5,143.5 C 466.822,143.33 467.989,143.663 469,144.5C 479.257,164.105 486.424,184.772 490.5,206.5C 484.437,207.066 478.437,208.066 472.5,209.5C 471.353,209.182 470.519,208.516 470,207.5C 465.976,188.595 459.476,170.595 450.5,153.5C 455.357,149.908 460.357,146.575 465.5,143.5 Z M 17.5,221.5 C 24.1266,222.759 30.7933,223.759 37.5,224.5C 34.891,244.837 34.891,265.17 37.5,285.5C 31.8658,286.606 26.1992,287.606 20.5,288.5C 19.0055,288.291 17.8388,287.624 17,286.5C 14.8821,264.798 15.0488,243.131 17.5,221.5 Z M 487.5,222.5 C 489.604,222.201 491.604,222.534 493.5,223.5C 496.136,245.487 496.136,267.487 493.5,289.5C 486.902,288.067 480.236,287.067 473.5,286.5C 476.137,266.164 476.137,245.831 473.5,225.5C 478.339,224.734 483.006,223.734 487.5,222.5 Z M 36.5,301.5 C 37.8333,301.5 39.1667,301.5 40.5,301.5C 44.5841,321.085 51.2508,339.752 60.5,357.5C 54.9557,361.528 49.1223,365.195 43,368.5C 32.2146,348.31 24.7146,326.977 20.5,304.5C 26.0755,304.129 31.4089,303.129 36.5,301.5 Z M 470.5,301.5 C 476.436,302.768 482.436,303.935 488.5,305C 489.428,305.388 490.095,306.055 490.5,307C 485.884,328.685 478.218,349.185 467.5,368.5C 461.469,365.49 455.803,361.99 450.5,358C 459.652,340.044 466.319,321.211 470.5,301.5 Z M 67.5,372.5 C 68.4959,372.414 69.3292,372.748 70,373.5C 80.6148,390.058 93.1148,405.058 107.5,418.5C 103.511,423.821 99.1777,428.821 94.5,433.5C 77.7587,418.602 63.4254,401.769 51.5,383C 57.0091,379.637 62.3424,376.137 67.5,372.5 Z M 441.5,372.5 C 447.637,375.736 453.637,379.236 459.5,383C 447.254,401.926 432.754,419.092 416,434.5C 412,429.833 408,425.167 404,420.5C 403.333,419.5 403.333,418.5 404,417.5C 418.536,404.137 431.036,389.137 441.5,372.5 Z M 119.5,429.5 C 136.164,441.173 153.831,451.34 172.5,460C 169.996,466.184 167.496,472.35 165,478.5C 144.488,469.961 125.488,458.961 108,445.5C 107.333,444.833 107.333,444.167 108,443.5C 112.046,438.96 115.879,434.293 119.5,429.5 Z M 187.5,464.5 C 206.958,470.948 226.958,474.614 247.5,475.5C 247.5,482.167 247.5,488.833 247.5,495.5C 224.574,495.123 202.241,491.29 180.5,484C 182.977,477.548 185.31,471.048 187.5,464.5 Z M 319.5,465.5 C 321.451,465.227 322.951,465.893 324,467.5C 325.636,472.742 327.47,477.909 329.5,483C 329.167,483.5 328.833,484 328.5,484.5C 307.406,491.516 285.739,495.182 263.5,495.5C 263.5,488.833 263.5,482.167 263.5,475.5C 282.734,474.661 301.401,471.328 319.5,465.5 Z"/></g>
<g><path style="opacity:0.927" fill="#000000" d="M 252.5,111.5 C 255.32,111.248 257.986,111.748 260.5,113C 279.025,130.526 297.192,148.359 315,166.5C 315.309,167.766 315.809,168.933 316.5,170C 312.147,189.096 308.314,208.263 305,227.5C 313.167,218.667 321.333,209.833 329.5,201C 331.034,200.077 332.701,199.577 334.5,199.5C 351.503,201.303 368.503,203.137 385.5,205C 387.667,205.833 389.167,207.333 390,209.5C 390.167,214.5 390.333,219.5 390.5,224.5C 390.307,239.597 389.474,254.597 388,269.5C 371.646,283.355 355.146,297.022 338.5,310.5C 337.258,326.859 336.092,343.193 335,359.5C 332.005,362.265 328.505,363.098 324.5,362C 304.256,351.961 284.089,341.795 264,331.5C 263.667,352.5 263.333,373.5 263,394.5C 259.987,399.535 255.82,400.702 250.5,398C 249.299,397.097 248.465,395.931 248,394.5C 247.667,373.5 247.333,352.5 247,331.5C 226.911,341.795 206.744,351.961 186.5,362C 182.495,363.098 178.995,362.265 176,359.5C 174.908,343.193 173.742,326.859 172.5,310.5C 155.854,297.022 139.354,283.355 123,269.5C 121.526,254.597 120.693,239.597 120.5,224.5C 120.667,219.5 120.833,214.5 121,209.5C 121.833,207.333 123.333,205.833 125.5,205C 142.497,203.137 159.497,201.303 176.5,199.5C 178.299,199.577 179.966,200.077 181.5,201C 189.667,209.833 197.833,218.667 206,227.5C 202.686,208.263 198.853,189.096 194.5,170C 195.329,168.184 196.163,166.351 197,164.5C 215.395,146.602 233.895,128.935 252.5,111.5 Z M 254.5,131.5 C 240.187,145.479 225.854,159.479 211.5,173.5C 217.317,199.42 222.817,225.42 228,251.5C 229.847,261.989 225.68,265.822 215.5,263C 202.204,247.369 188.538,232.036 174.5,217C 161.821,217.367 149.154,218.201 136.5,219.5C 136.783,233.505 137.283,247.505 138,261.5C 154.957,274.789 171.624,288.455 188,302.5C 189.497,315.406 190.497,328.406 191,341.5C 212.079,330.21 233.579,319.876 255.5,310.5C 277.421,319.876 298.921,330.21 320,341.5C 320.503,328.406 321.503,315.406 323,302.5C 339.376,288.455 356.043,274.789 373,261.5C 373.717,247.505 374.217,233.505 374.5,219.5C 361.854,218.092 349.188,217.259 336.5,217C 322.795,231.703 309.462,246.703 296.5,262C 285.936,266.442 281.436,262.942 283,251.5C 288.183,225.42 293.683,199.42 299.5,173.5C 287.374,161.875 275.374,150.041 263.5,138C 260.603,135.59 257.603,133.423 254.5,131.5 Z"/></g>
</svg>
