<?xml version="1.0" encoding="UTF-8"?>
<!DOCTYPE svg PUBLIC "-//W3C//DTD SVG 1.1//EN" "http://www.w3.org/Graphics/SVG/1.1/DTD/svg11.dtd">
<svg xmlns="http://www.w3.org/2000/svg" version="1.1" width="512px" height="512px" style="shape-rendering:geometricPrecision; text-rendering:geometricPrecision; image-rendering:optimizeQuality; fill-rule:evenodd; clip-rule:evenodd" xmlns:xlink="http://www.w3.org/1999/xlink">
<g><path style="opacity:0.975" fill="#000000" d="M 233.5,-0.5 C 248.167,-0.5 262.833,-0.5 277.5,-0.5C 377.807,11.9842 449.307,63.9842 492,155.5C 502.296,180.684 508.796,206.684 511.5,233.5C 511.5,248.167 511.5,262.833 511.5,277.5C 499.016,377.807 447.016,449.307 355.5,492C 330.316,502.296 304.316,508.796 277.5,511.5C 262.833,511.5 248.167,511.5 233.5,511.5C 133.193,499.016 61.693,447.016 19,355.5C 8.70393,330.316 2.20393,304.316 -0.5,277.5C -0.5,262.833 -0.5,248.167 -0.5,233.5C 11.9842,133.193 63.9842,61.693 155.5,19C 180.684,8.70393 206.684,2.20393 233.5,-0.5 Z M 248.5,44.5 C 339.498,46.0537 405.665,87.0537 447,167.5C 476.074,236.391 471.741,303.058 434,367.5C 386.035,438.063 319.201,470.563 233.5,465C 152.571,453.379 95.0708,410.545 61,336.5C 30.9194,254.978 43.5861,180.978 99,114.5C 139.466,71.2832 189.3,47.9499 248.5,44.5 Z M 186.5,105.5 C 194.709,105.108 202.375,106.941 209.5,111C 221.515,119.694 229.681,131.194 234,145.5C 240.031,166.084 243.531,187.084 244.5,208.5C 251.833,209.833 259.167,209.833 266.5,208.5C 267.469,187.084 270.969,166.084 277,145.5C 282.085,128.811 292.251,116.311 307.5,108C 339.033,102.537 357.533,115.704 363,147.5C 364.62,167.204 362.62,186.538 357,205.5C 354.132,215.271 350.965,224.938 347.5,234.5C 347.719,235.938 348.219,237.271 349,238.5C 384.863,264.088 395.863,297.755 382,339.5C 371.22,360.614 355.386,376.78 334.5,388C 287.829,410.622 240.163,412.956 191.5,395C 166.897,385.392 147.397,369.559 133,347.5C 113.428,303.457 123.095,267.123 162,238.5C 162.781,237.271 163.281,235.938 163.5,234.5C 153.895,211.083 148.562,186.749 147.5,161.5C 146.129,142.768 152.129,126.935 165.5,114C 172.012,109.67 179.012,106.836 186.5,105.5 Z M 226.5,279.5 C 231.988,278.817 235.488,281.151 237,286.5C 237.667,292.167 237.667,297.833 237,303.5C 233.5,311.585 228.5,312.585 222,306.5C 221.333,298.833 221.333,291.167 222,283.5C 223.397,281.93 224.897,280.596 226.5,279.5 Z M 278.5,279.5 C 283.28,278.641 286.78,280.308 289,284.5C 289.667,291.833 289.667,299.167 289,306.5C 282.5,312.585 277.5,311.585 274,303.5C 273.333,297.833 273.333,292.167 274,286.5C 274.904,283.767 276.404,281.433 278.5,279.5 Z"/></g>
<g><path style="opacity:0.977" fill="#000000" d="M 252.5,60.5 C 336.779,63.1903 397.279,102.19 434,177.5C 458.818,239.959 454.485,300.293 421,358.5C 381.845,417.341 326.679,448.007 255.5,450.5C 188.78,448.228 135.613,420.562 96,367.5C 58.977,311.317 51.3103,251.317 73,187.5C 99.507,122.332 147.007,81.4982 215.5,65C 227.875,62.5776 240.208,61.0776 252.5,60.5 Z M 186.5,105.5 C 179.012,106.836 172.012,109.67 165.5,114C 152.129,126.935 146.129,142.768 147.5,161.5C 148.562,186.749 153.895,211.083 163.5,234.5C 163.281,235.938 162.781,237.271 162,238.5C 123.095,267.123 113.428,303.457 133,347.5C 147.397,369.559 166.897,385.392 191.5,395C 240.163,412.956 287.829,410.622 334.5,388C 355.386,376.78 371.22,360.614 382,339.5C 395.863,297.755 384.863,264.088 349,238.5C 348.219,237.271 347.719,235.938 347.5,234.5C 350.965,224.938 354.132,215.271 357,205.5C 362.62,186.538 364.62,167.204 363,147.5C 357.533,115.704 339.033,102.537 307.5,108C 292.251,116.311 282.085,128.811 277,145.5C 270.969,166.084 267.469,187.084 266.5,208.5C 259.167,209.833 251.833,209.833 244.5,208.5C 243.531,187.084 240.031,166.084 234,145.5C 229.681,131.194 221.515,119.694 209.5,111C 202.375,106.941 194.709,105.108 186.5,105.5 Z M 226.5,279.5 C 224.897,280.596 223.397,281.93 222,283.5C 221.333,291.167 221.333,298.833 222,306.5C 228.5,312.585 233.5,311.585 237,303.5C 237.667,297.833 237.667,292.167 237,286.5C 235.488,281.151 231.988,278.817 226.5,279.5 Z M 278.5,279.5 C 276.404,281.433 274.904,283.767 274,286.5C 273.333,292.167 273.333,297.833 274,303.5C 277.5,311.585 282.5,312.585 289,306.5C 289.667,299.167 289.667,291.833 289,284.5C 286.78,280.308 283.28,278.641 278.5,279.5 Z"/></g>
<g><path style="opacity:0.983" fill="#000000" d="M 186.5,121.5 C 196.415,120.707 204.248,124.374 210,132.5C 218.56,147.182 223.727,163.016 225.5,180C 226.909,194.129 227.742,208.296 228,222.5C 229.721,225.281 232.221,226.948 235.5,227.5C 242.145,226.795 248.812,226.128 255.5,225.5C 262.188,226.128 268.855,226.795 275.5,227.5C 278.779,226.948 281.279,225.281 283,222.5C 282.636,200.527 284.97,178.861 290,157.5C 292.856,145.284 298.689,134.784 307.5,126C 317.3,120.059 326.966,120.392 336.5,127C 342.531,132.897 346.031,140.063 347,148.5C 348.471,167.205 346.471,185.538 341,203.5C 337.526,215.757 333.359,227.757 328.5,239.5C 328.719,240.938 329.219,242.271 330,243.5C 335.833,248 341.667,252.5 347.5,257C 374.168,281.331 379.334,309.497 363,341.5C 350.802,359.2 334.636,372.034 314.5,380C 276.278,393.608 237.945,393.941 199.5,381C 175.881,372.702 157.714,357.869 145,336.5C 132.5,305.668 138.666,279.168 163.5,257C 168.167,253.667 172.833,250.333 177.5,247C 180.183,245.155 181.85,242.655 182.5,239.5C 171.29,214.327 164.957,187.993 163.5,160.5C 162.286,147.642 165.953,136.475 174.5,127C 178.284,124.471 182.284,122.638 186.5,121.5 Z M 226.5,279.5 C 224.897,280.596 223.397,281.93 222,283.5C 221.333,291.167 221.333,298.833 222,306.5C 228.5,312.585 233.5,311.585 237,303.5C 237.667,297.833 237.667,292.167 237,286.5C 235.488,281.151 231.988,278.817 226.5,279.5 Z M 278.5,279.5 C 276.404,281.433 274.904,283.767 274,286.5C 273.333,292.167 273.333,297.833 274,303.5C 277.5,311.585 282.5,312.585 289,306.5C 289.667,299.167 289.667,291.833 289,284.5C 286.78,280.308 283.28,278.641 278.5,279.5 Z"/></g>
</svg>
