<?xml version="1.0" encoding="UTF-8"?>
<!DOCTYPE svg PUBLIC "-//W3C//DTD SVG 1.1//EN" "http://www.w3.org/Graphics/SVG/1.1/DTD/svg11.dtd">
<svg xmlns="http://www.w3.org/2000/svg" version="1.1" width="64px" height="64px" style="shape-rendering:geometricPrecision; text-rendering:geometricPrecision; image-rendering:optimizeQuality; fill-rule:evenodd; clip-rule:evenodd" xmlns:xlink="http://www.w3.org/1999/xlink">
<g><path style="opacity:0.699" fill="#324564" d="M 24.5,0.5 C 50.9766,-0.523873 63.4766,12.1428 62,38.5C 56.2199,56.8169 43.7199,64.6503 24.5,62C 6.17282,56.1951 -1.66052,43.6951 1,24.5C 4.34904,11.9853 12.1824,3.98533 24.5,0.5 Z"/></g>
<g><path style="opacity:1" fill="#c69940" d="M 17.5,56.5 C 16.4937,55.6043 16.4937,54.9377 17.5,54.5C 35.4425,61.9417 48.6092,56.9417 57,39.5C 57.7891,37.2884 57.6225,35.2884 56.5,33.5C 57.8333,31.5 57.8333,29.5 56.5,27.5C 55.8077,16.9169 50.1411,9.75025 39.5,6C 28.1514,3.06034 18.4847,5.89367 10.5,14.5C 11.4151,12.2459 12.7484,10.2459 14.5,8.5C 17.3203,5.91925 20.6536,4.08592 24.5,3C 49.6667,1.5 61.5,13.3333 60,38.5C 54.064,55.2244 42.2306,62.3911 24.5,60C 21.8261,59.3299 19.4927,58.1632 17.5,56.5 Z"/></g>
<g><path style="opacity:1" fill="#eab542" d="M 56.5,27.5 C 57.8333,29.5 57.8333,31.5 56.5,33.5C 52.327,51.8208 40.9937,58.9875 22.5,55C 8.83996,48.1753 4.00663,37.3419 8,22.5C 17.5225,5.55089 30.6891,2.05089 47.5,12C 52.1781,16.1893 55.1781,21.356 56.5,27.5 Z"/></g>
<g><path style="opacity:1" fill="#ac8238" d="M 14.5,8.5 C 12.7484,10.2459 11.4151,12.2459 10.5,14.5C 1.25411,29.9311 3.58744,43.2645 17.5,54.5C 16.4937,54.9377 16.4937,55.6043 17.5,56.5C 7.53598,51.0916 2.53598,42.5916 2.5,31C 2.09695,25.2994 3.59695,20.1327 7,15.5C 8.73636,12.2608 11.2364,9.92744 14.5,8.5 Z"/></g>
<g><path style="opacity:1" fill="#465062" d="M 29.5,21.5 C 28.8333,21.5 28.5,21.1667 28.5,20.5C 32.5546,20.8242 36.5546,20.4909 40.5,19.5C 35.544,18.5059 30.544,18.1725 25.5,18.5C 25.5,25.1667 25.5,31.8333 25.5,38.5C 21.5,39.1667 21.5,39.8333 25.5,40.5C 26.1667,45.8333 26.8333,45.8333 27.5,40.5C 29.604,40.7989 31.604,40.4656 33.5,39.5C 31.9547,38.5481 30.288,38.2148 28.5,38.5C 30.2646,37.5386 32.2646,37.2053 34.5,37.5C 34.5,38.8333 34.5,40.1667 34.5,41.5C 32.8333,41.5 31.1667,41.5 29.5,41.5C 30.1667,45.5 28.5,47.1667 24.5,46.5C 24.5,44.8333 24.5,43.1667 24.5,41.5C 23.1667,41.5 21.8333,41.5 20.5,41.5C 20.5,40.1667 20.5,38.8333 20.5,37.5C 21.8333,37.5 23.1667,37.5 24.5,37.5C 24.5,30.5 24.5,23.5 24.5,16.5C 30.1764,16.3339 35.8431,16.5006 41.5,17C 42.3802,18.3561 42.7135,19.8561 42.5,21.5C 38.1667,21.5 33.8333,21.5 29.5,21.5 Z"/></g>
<g><path style="opacity:1" fill="#c99b41" d="M 28.5,20.5 C 27.3622,23.3035 27.1955,26.3035 28,29.5C 31.4106,30.2931 34.9106,30.7931 38.5,31C 35.1667,31.3333 31.8333,31.6667 28.5,32C 27.1888,34.2735 27.1888,36.4402 28.5,38.5C 30.288,38.2148 31.9547,38.5481 33.5,39.5C 31.604,40.4656 29.604,40.7989 27.5,40.5C 26.8333,45.8333 26.1667,45.8333 25.5,40.5C 21.5,39.8333 21.5,39.1667 25.5,38.5C 25.5,31.8333 25.5,25.1667 25.5,18.5C 30.544,18.1725 35.544,18.5059 40.5,19.5C 36.5546,20.4909 32.5546,20.8242 28.5,20.5 Z"/></g>
<g><path style="opacity:1" fill="#4f5764" d="M 11.5,19.5 C 12.0431,19.56 12.3764,19.8933 12.5,20.5C 10.7695,24.025 9.43619,27.6917 8.5,31.5C 7.81584,27.1935 8.81584,23.1935 11.5,19.5 Z"/></g>
<g><path style="opacity:1" fill="#565a5e" d="M 28.5,20.5 C 28.5,21.1667 28.8333,21.5 29.5,21.5C 29.5,23.8333 29.5,26.1667 29.5,28.5C 33.1667,28.5 36.8333,28.5 40.5,28.5C 40.5,30.1667 40.5,31.8333 40.5,33.5C 36.8333,33.5 33.1667,33.5 29.5,33.5C 29.5,34.5 29.5,35.5 29.5,36.5C 31.4147,36.2155 33.0813,36.5489 34.5,37.5C 32.2646,37.2053 30.2646,37.5386 28.5,38.5C 27.1888,36.4402 27.1888,34.2735 28.5,32C 31.8333,31.6667 35.1667,31.3333 38.5,31C 34.9106,30.7931 31.4106,30.2931 28,29.5C 27.1955,26.3035 27.3622,23.3035 28.5,20.5 Z"/></g>
<g><path style="opacity:1" fill="#4b5362" d="M 56.5,27.5 C 55.1781,21.356 52.1781,16.1893 47.5,12C 30.6891,2.05089 17.5225,5.55089 8,22.5C 4.00663,37.3419 8.83996,48.1753 22.5,55C 40.9937,58.9875 52.327,51.8208 56.5,33.5C 57.6225,35.2884 57.7891,37.2884 57,39.5C 48.6092,56.9417 35.4425,61.9417 17.5,54.5C 3.58744,43.2645 1.25411,29.9311 10.5,14.5C 18.4847,5.89367 28.1514,3.06034 39.5,6C 50.1411,9.75025 55.8077,16.9169 56.5,27.5 Z"/></g>
<g><path style="opacity:1" fill="#3c4d64" d="M 14.5,15.5 C 16.9752,15.7467 16.9752,16.4134 14.5,17.5C 13.537,17.0302 13.537,16.3635 14.5,15.5 Z"/></g>
</svg>
