<?xml version="1.0" encoding="UTF-8"?>
<!DOCTYPE svg PUBLIC "-//W3C//DTD SVG 1.1//EN" "http://www.w3.org/Graphics/SVG/1.1/DTD/svg11.dtd">
<svg xmlns="http://www.w3.org/2000/svg" version="1.1" width="64px" height="64px" style="shape-rendering:geometricPrecision; text-rendering:geometricPrecision; image-rendering:optimizeQuality; fill-rule:evenodd; clip-rule:evenodd" xmlns:xlink="http://www.w3.org/1999/xlink">
<g><path style="opacity:0.823" fill="#000000" d="M 33.5,5.5 C 51.5981,6.42359 59.0981,15.7569 56,33.5C 54.2116,38.9198 50.7116,42.7532 45.5,45C 37.908,57.1503 27.5747,60.1503 14.5,54C 4.05462,44.5465 2.88795,34.0465 11,22.5C 13.0795,20.8767 15.2462,19.3767 17.5,18C 21.1999,11.6604 26.5332,7.49372 33.5,5.5 Z M 31.5,12.5 C 47.0141,11.5102 52.8475,18.5102 49,33.5C 48.3333,34.1667 47.6667,34.8333 47,35.5C 45.1667,24.3333 38.6667,17.8333 27.5,16C 28.7305,14.5952 30.0639,13.4286 31.5,12.5 Z M 23.5,22.5 C 35.4311,22.5886 40.7645,28.422 39.5,40C 27.3038,40.3077 21.9705,34.4744 23.5,22.5 Z M 15.5,27.5 C 17.6547,38.4867 24.3213,44.9867 35.5,47C 28.3014,52.0161 21.4681,51.5161 15,45.5C 11.5952,39.345 11.7618,33.345 15.5,27.5 Z"/></g>
</svg>
