<?xml version="1.0" encoding="UTF-8"?>
<!DOCTYPE svg PUBLIC "-//W3C//DTD SVG 1.1//EN" "http://www.w3.org/Graphics/SVG/1.1/DTD/svg11.dtd">
<svg xmlns="http://www.w3.org/2000/svg" version="1.1" width="512px" height="512px" style="shape-rendering:geometricPrecision; text-rendering:geometricPrecision; image-rendering:optimizeQuality; fill-rule:evenodd; clip-rule:evenodd" xmlns:xlink="http://www.w3.org/1999/xlink">
<g><path style="opacity:1" fill="#fff59e" d="M 232.5,-0.5 C 247.833,-0.5 263.167,-0.5 278.5,-0.5C 375.141,11.893 445.308,61.5596 489,148.5C 494.015,159.528 498.182,170.862 501.5,182.5C 500.761,182.369 500.094,182.536 499.5,183C 488.965,193.702 478.298,204.202 467.5,214.5C 459.326,172.811 440.659,136.811 411.5,106.5C 410.833,105.5 410.167,104.5 409.5,103.5C 417.408,94.0877 425.908,85.0877 435,76.5C 434.107,73.5638 432.274,71.0638 429.5,69C 421.25,62.2509 412.584,56.0843 403.5,50.5C 395.092,59.91 386.092,68.5766 376.5,76.5C 352.188,60.6194 325.855,49.6194 297.5,43.5C 305.631,34.8683 313.964,26.3683 322.5,18C 219.461,-1.87833 133.961,27.955 66,107.5C 17.1428,171.759 1.14284,243.425 18,322.5C 26.3683,313.964 34.8683,305.631 43.5,297.5C 49.6194,325.855 60.6194,352.188 76.5,376.5C 68.5766,386.092 59.91,395.092 50.5,403.5C 57.4083,414.809 65.4083,425.309 74.5,435C 75.1667,435.667 75.8333,435.667 76.5,435C 85.3963,426.272 94.0629,417.438 102.5,408.5C 104.167,409.833 105.833,411.167 107.5,412.5C 137.654,441.08 173.321,459.413 214.5,467.5C 204.202,478.298 193.702,488.965 183,499.5C 182.536,500.094 182.369,500.761 182.5,501.5C 106.176,477.346 51.6757,428.679 19,355.5C 8.86392,330.621 2.36392,304.954 -0.5,278.5C -0.5,263.167 -0.5,247.833 -0.5,232.5C 10.3875,142.857 54.7208,75.3573 132.5,30C 163.971,13.3053 197.304,3.1386 232.5,-0.5 Z"/></g>
<g><path style="opacity:1" fill="#fee56e" d="M 297.5,43.5 C 214.232,29.9748 144.732,54.6414 89,117.5C 47.1438,170.574 31.9771,230.574 43.5,297.5C 34.8683,305.631 26.3683,313.964 18,322.5C 1.14284,243.425 17.1428,171.759 66,107.5C 133.961,27.955 219.461,-1.87833 322.5,18C 313.964,26.3683 305.631,34.8683 297.5,43.5 Z"/></g>
<g><path style="opacity:1" fill="#fabe32" d="M 297.5,43.5 C 325.855,49.6194 352.188,60.6194 376.5,76.5C 388.347,84.3353 399.347,93.3353 409.5,103.5C 410.167,104.5 410.833,105.5 411.5,106.5C 409.938,106.267 408.605,105.6 407.5,104.5C 354.402,62.7277 294.402,48.2277 227.5,61C 145.77,81.396 91.6036,131.563 65,211.5C 47.6725,275.568 56.6725,335.568 92,391.5C 95.945,397.084 100.112,402.417 104.5,407.5C 105.925,408.922 106.925,410.589 107.5,412.5C 105.833,411.167 104.167,409.833 102.5,408.5C 92.8645,398.527 84.1978,387.861 76.5,376.5C 60.6194,352.188 49.6194,325.855 43.5,297.5C 31.9771,230.574 47.1438,170.574 89,117.5C 144.732,54.6414 214.232,29.9748 297.5,43.5 Z"/></g>
<g><path style="opacity:1" fill="#fee66e" d="M 409.5,103.5 C 399.347,93.3353 388.347,84.3353 376.5,76.5C 386.092,68.5766 395.092,59.91 403.5,50.5C 412.584,56.0843 421.25,62.2509 429.5,69C 432.274,71.0638 434.107,73.5638 435,76.5C 425.908,85.0877 417.408,94.0877 409.5,103.5 Z"/></g>
<g><path style="opacity:1" fill="#f9c741" d="M 407.5,104.5 C 381.55,128.783 356.217,153.783 331.5,179.5C 327.5,179.5 323.5,179.5 319.5,179.5C 311.5,179.5 303.5,179.5 295.5,179.5C 295.5,191.5 295.5,203.5 295.5,215.5C 285.833,224.5 276.5,233.833 267.5,243.5C 263.5,243.5 259.5,243.5 255.5,243.5C 255.5,222.167 255.5,200.833 255.5,179.5C 250.167,179.5 244.833,179.5 239.5,179.5C 231.5,179.5 223.5,179.5 215.5,179.5C 215.5,218.167 215.5,256.833 215.5,295.5C 211.662,297.994 208.995,301.327 207.5,305.5C 204.244,300.238 200.578,295.238 196.5,290.5C 193.1,292.856 189.767,295.189 186.5,297.5C 184.745,295.012 182.745,292.678 180.5,290.5C 169.8,299.683 157.467,305.349 143.5,307.5C 143.611,306.883 143.944,306.383 144.5,306C 118.645,299.149 104.978,282.316 103.5,255.5C 105.042,230.063 117.875,213.396 142,205.5C 143.03,205.164 143.53,204.497 143.5,203.5C 148.666,203.966 153.666,205.133 158.5,207C 166.23,210.905 173.563,215.405 180.5,220.5C 182.745,218.322 184.745,215.988 186.5,213.5C 189.852,216.384 193.518,218.551 197.5,220C 201.833,213.667 206.167,207.333 210.5,201C 195.302,187.876 177.636,180.709 157.5,179.5C 155.304,179.505 153.304,179.838 151.5,180.5C 113.325,176.869 85.8248,192.203 69,226.5C 57.3632,259.783 64.1965,288.617 89.5,313C 107.513,328.058 128.18,333.891 151.5,330.5C 162.307,331.53 172.974,330.197 183.5,326.5C 157.535,352.965 131.368,379.299 105,405.5C 104.536,406.094 104.369,406.761 104.5,407.5C 100.112,402.417 95.945,397.084 92,391.5C 56.6725,335.568 47.6725,275.568 65,211.5C 91.6036,131.563 145.77,81.396 227.5,61C 294.402,48.2277 354.402,62.7277 407.5,104.5 Z"/></g>
<g><path style="opacity:1" fill="#fbd14d" d="M 407.5,104.5 C 408.605,105.6 409.938,106.267 411.5,106.5C 440.659,136.811 459.326,172.811 467.5,214.5C 480.503,294.659 457.503,362.492 398.5,418C 344.92,462.91 283.586,479.41 214.5,467.5C 173.321,459.413 137.654,441.08 107.5,412.5C 106.925,410.589 105.925,408.922 104.5,407.5C 104.369,406.761 104.536,406.094 105,405.5C 131.368,379.299 157.535,352.965 183.5,326.5C 193.305,322.012 202.305,316.345 210.5,309.5C 209.476,308.148 208.476,306.815 207.5,305.5C 208.995,301.327 211.662,297.994 215.5,295.5C 215.5,307.5 215.5,319.5 215.5,331.5C 223.5,331.5 231.5,331.5 239.5,331.5C 244.833,331.5 250.167,331.5 255.5,331.5C 255.5,310.167 255.5,288.833 255.5,267.5C 268.833,267.5 282.167,267.5 295.5,267.5C 295.5,288.833 295.5,310.167 295.5,331.5C 303.5,331.5 311.5,331.5 319.5,331.5C 324.833,331.5 330.167,331.5 335.5,331.5C 335.5,280.833 335.5,230.167 335.5,179.5C 334.167,179.5 332.833,179.5 331.5,179.5C 356.217,153.783 381.55,128.783 407.5,104.5 Z"/></g>
<g><path style="opacity:1" fill="#feef81" d="M 151.5,180.5 C 167.676,183.589 182.009,190.422 194.5,201C 191.61,205.05 188.943,209.217 186.5,213.5C 184.745,215.988 182.745,218.322 180.5,220.5C 173.563,215.405 166.23,210.905 158.5,207C 153.666,205.133 148.666,203.966 143.5,203.5C 110.437,204.397 91.7706,221.23 87.5,254C 90.3701,288.37 109.037,306.204 143.5,307.5C 157.467,305.349 169.8,299.683 180.5,290.5C 182.745,292.678 184.745,295.012 186.5,297.5C 188.943,301.783 191.61,305.95 194.5,310C 182.009,320.578 167.676,327.411 151.5,330.5C 128.18,333.891 107.513,328.058 89.5,313C 64.1965,288.617 57.3632,259.783 69,226.5C 85.8248,192.203 113.325,176.869 151.5,180.5 Z"/></g>
<g><path style="opacity:1" fill="#f5b933" d="M 151.5,180.5 C 153.304,179.838 155.304,179.505 157.5,179.5C 177.636,180.709 195.302,187.876 210.5,201C 206.167,207.333 201.833,213.667 197.5,220C 193.518,218.551 189.852,216.384 186.5,213.5C 188.943,209.217 191.61,205.05 194.5,201C 182.009,190.422 167.676,183.589 151.5,180.5 Z"/></g>
<g><path style="opacity:1" fill="#fef081" d="M 239.5,179.5 C 239.5,200.833 239.5,222.167 239.5,243.5C 244.833,243.5 250.167,243.5 255.5,243.5C 259.5,243.5 263.5,243.5 267.5,243.5C 276.833,243.5 286.167,243.5 295.5,243.5C 295.5,234.167 295.5,224.833 295.5,215.5C 295.5,203.5 295.5,191.5 295.5,179.5C 303.5,179.5 311.5,179.5 319.5,179.5C 319.5,230.167 319.5,280.833 319.5,331.5C 311.5,331.5 303.5,331.5 295.5,331.5C 295.5,310.167 295.5,288.833 295.5,267.5C 282.167,267.5 268.833,267.5 255.5,267.5C 250.167,267.5 244.833,267.5 239.5,267.5C 239.5,288.833 239.5,310.167 239.5,331.5C 231.5,331.5 223.5,331.5 215.5,331.5C 215.5,319.5 215.5,307.5 215.5,295.5C 215.5,256.833 215.5,218.167 215.5,179.5C 223.5,179.5 231.5,179.5 239.5,179.5 Z"/></g>
<g><path style="opacity:1" fill="#f4b931" d="M 239.5,179.5 C 244.833,179.5 250.167,179.5 255.5,179.5C 255.5,200.833 255.5,222.167 255.5,243.5C 250.167,243.5 244.833,243.5 239.5,243.5C 239.5,222.167 239.5,200.833 239.5,179.5 Z"/></g>
<g><path style="opacity:1" fill="#f4b931" d="M 319.5,179.5 C 323.5,179.5 327.5,179.5 331.5,179.5C 332.833,179.5 334.167,179.5 335.5,179.5C 335.5,230.167 335.5,280.833 335.5,331.5C 330.167,331.5 324.833,331.5 319.5,331.5C 319.5,280.833 319.5,230.167 319.5,179.5 Z"/></g>
<g><path style="opacity:1" fill="#fef081" d="M 431.5,179.5 C 431.5,187.5 431.5,195.5 431.5,203.5C 415.5,203.5 399.5,203.5 383.5,203.5C 378.167,203.5 372.833,203.5 367.5,203.5C 367.5,216.833 367.5,230.167 367.5,243.5C 372.833,243.5 378.167,243.5 383.5,243.5C 395.833,243.5 408.167,243.5 420.5,243.5C 420.5,251.5 420.5,259.5 420.5,267.5C 408.167,267.5 395.833,267.5 383.5,267.5C 378.167,267.5 372.833,267.5 367.5,267.5C 367.5,288.833 367.5,310.167 367.5,331.5C 359.5,331.5 351.5,331.5 343.5,331.5C 343.5,280.833 343.5,230.167 343.5,179.5C 372.833,179.5 402.167,179.5 431.5,179.5 Z"/></g>
<g><path style="opacity:1" fill="#f4b931" d="M 431.5,179.5 C 436.833,179.5 442.167,179.5 447.5,179.5C 447.5,187.5 447.5,195.5 447.5,203.5C 442.167,203.5 436.833,203.5 431.5,203.5C 431.5,195.5 431.5,187.5 431.5,179.5 Z"/></g>
<g><path style="opacity:0.991" fill="#fee66e" d="M 501.5,182.5 C 506.267,199.004 509.601,215.67 511.5,232.5C 511.5,247.833 511.5,263.167 511.5,278.5C 500.612,368.144 456.279,435.644 378.5,481C 347.029,497.695 313.696,507.861 278.5,511.5C 263.167,511.5 247.833,511.5 232.5,511.5C 215.695,509.473 199.028,506.14 182.5,501.5C 182.369,500.761 182.536,500.094 183,499.5C 193.702,488.965 204.202,478.298 214.5,467.5C 283.586,479.41 344.92,462.91 398.5,418C 457.503,362.492 480.503,294.659 467.5,214.5C 478.298,204.202 488.965,193.702 499.5,183C 500.094,182.536 500.761,182.369 501.5,182.5 Z"/></g>
<g><path style="opacity:1" fill="#f5b933" d="M 143.5,203.5 C 143.53,204.497 143.03,205.164 142,205.5C 117.875,213.396 105.042,230.063 103.5,255.5C 104.978,282.316 118.645,299.149 144.5,306C 143.944,306.383 143.611,306.883 143.5,307.5C 109.037,306.204 90.3701,288.37 87.5,254C 91.7706,221.23 110.437,204.397 143.5,203.5 Z"/></g>
<g><path style="opacity:1" fill="#f4b931" d="M 383.5,203.5 C 383.5,216.833 383.5,230.167 383.5,243.5C 378.167,243.5 372.833,243.5 367.5,243.5C 367.5,230.167 367.5,216.833 367.5,203.5C 372.833,203.5 378.167,203.5 383.5,203.5 Z"/></g>
<g><path style="opacity:1" fill="#fbd14c" d="M 295.5,215.5 C 295.5,224.833 295.5,234.167 295.5,243.5C 286.167,243.5 276.833,243.5 267.5,243.5C 276.5,233.833 285.833,224.5 295.5,215.5 Z"/></g>
<g><path style="opacity:1" fill="#f4b931" d="M 421.5,243.5 C 426.5,243.5 431.5,243.5 436.5,243.5C 436.5,251.5 436.5,259.5 436.5,267.5C 431.5,267.5 426.5,267.5 421.5,267.5C 421.5,259.5 421.5,251.5 421.5,243.5 Z"/></g>
<g><path style="opacity:1" fill="#f4b931" d="M 255.5,267.5 C 255.5,288.833 255.5,310.167 255.5,331.5C 250.167,331.5 244.833,331.5 239.5,331.5C 239.5,310.167 239.5,288.833 239.5,267.5C 244.833,267.5 250.167,267.5 255.5,267.5 Z"/></g>
<g><path style="opacity:1" fill="#f4b931" d="M 383.5,267.5 C 383.5,288.833 383.5,310.167 383.5,331.5C 378.167,331.5 372.833,331.5 367.5,331.5C 367.5,310.167 367.5,288.833 367.5,267.5C 372.833,267.5 378.167,267.5 383.5,267.5 Z"/></g>
<g><path style="opacity:1" fill="#f5ba33" d="M 207.5,305.5 C 208.476,306.815 209.476,308.148 210.5,309.5C 202.305,316.345 193.305,322.012 183.5,326.5C 172.974,330.197 162.307,331.53 151.5,330.5C 167.676,327.411 182.009,320.578 194.5,310C 191.61,305.95 188.943,301.783 186.5,297.5C 189.767,295.189 193.1,292.856 196.5,290.5C 200.578,295.238 204.244,300.238 207.5,305.5 Z"/></g>
<g><path style="opacity:1" fill="#fee66e" d="M 76.5,376.5 C 84.1978,387.861 92.8645,398.527 102.5,408.5C 94.0629,417.438 85.3963,426.272 76.5,435C 75.8333,435.667 75.1667,435.667 74.5,435C 65.4083,425.309 57.4083,414.809 50.5,403.5C 59.91,395.092 68.5766,386.092 76.5,376.5 Z"/></g>
</svg>
