<?xml version="1.0" encoding="UTF-8"?>
<!DOCTYPE svg PUBLIC "-//W3C//DTD SVG 1.1//EN" "http://www.w3.org/Graphics/SVG/1.1/DTD/svg11.dtd">
<svg xmlns="http://www.w3.org/2000/svg" version="1.1" width="64px" height="64px" style="shape-rendering:geometricPrecision; text-rendering:geometricPrecision; image-rendering:optimizeQuality; fill-rule:evenodd; clip-rule:evenodd" xmlns:xlink="http://www.w3.org/1999/xlink">
<g><path style="opacity:0.699" fill="#000000" d="M 9.5,5.5 C 21.9823,7.53695 34.6489,8.03695 47.5,7C 52.8483,4.05825 55.015,5.55825 54,11.5C 50.0691,17.0254 46.9024,23.0254 44.5,29.5C 44.8333,30.1667 45.1667,30.8333 45.5,31.5C 40.9041,37.9073 37.2374,44.9073 34.5,52.5C 36.3738,57.4556 34.7072,59.6222 29.5,59C 27.3268,57.1353 26.9934,54.9686 28.5,52.5C 25.7626,44.9073 22.0959,37.9073 17.5,31.5C 17.8333,30.8333 18.1667,30.1667 18.5,29.5C 16.0976,23.0254 12.9309,17.0254 9,11.5C 8.32239,9.40239 8.48905,7.40239 9.5,5.5 Z M 18.5,12.5 C 26.9901,11.3431 35.6567,11.1764 44.5,12C 40.4209,15.7874 35.9209,18.9541 31,21.5C 26.7329,18.6186 22.5662,15.6186 18.5,12.5 Z M 45.5,15.5 C 46.0431,15.56 46.3764,15.8933 46.5,16.5C 44.4844,20.5311 42.4844,24.5311 40.5,28.5C 37.6271,27.8078 36.1271,26.1411 36,23.5C 39.3575,20.9688 42.5242,18.3021 45.5,15.5 Z M 17.5,16.5 C 20.7889,18.6158 23.9556,20.9491 27,23.5C 26.8729,26.1411 25.3729,27.8078 22.5,28.5C 20.2802,24.7275 18.6135,20.7275 17.5,16.5 Z M 29.5,27.5 C 34.1202,27.946 37.1202,30.446 38.5,35C 36.1432,39.7325 33.9766,44.5658 32,49.5C 29.1208,44.862 26.6208,40.0287 24.5,35C 25.3085,31.8703 26.9752,29.3703 29.5,27.5 Z"/></g>
</svg>
