<?xml version="1.0" encoding="UTF-8"?>
<!DOCTYPE svg PUBLIC "-//W3C//DTD SVG 1.1//EN" "http://www.w3.org/Graphics/SVG/1.1/DTD/svg11.dtd">
<svg xmlns="http://www.w3.org/2000/svg" version="1.1" width="512px" height="512px" style="shape-rendering:geometricPrecision; text-rendering:geometricPrecision; image-rendering:optimizeQuality; fill-rule:evenodd; clip-rule:evenodd" xmlns:xlink="http://www.w3.org/1999/xlink">
<g><path style="opacity:0.962" fill="#000000" d="M 232.5,-0.5 C 247.833,-0.5 263.167,-0.5 278.5,-0.5C 379.371,12.3469 450.871,65.0136 493,157.5C 502.497,181.819 508.663,206.819 511.5,232.5C 511.5,247.833 511.5,263.167 511.5,278.5C 501.026,367.433 457.36,434.6 380.5,480C 348.466,497.292 314.466,507.792 278.5,511.5C 263.167,511.5 247.833,511.5 232.5,511.5C 143.853,500.61 76.6868,456.943 31,380.5C 13.7076,348.465 3.20759,314.465 -0.5,278.5C -0.5,263.167 -0.5,247.833 -0.5,232.5C 11.9006,134.848 62.234,64.3481 150.5,21C 176.892,9.73692 204.225,2.57026 232.5,-0.5 Z M 254.5,29.5 C 338.641,32.6387 403.475,69.3053 449,139.5C 484.718,202.523 490.384,268.19 466,336.5C 431.781,416.705 371.614,464.205 285.5,479C 207.052,487.299 140.885,462.799 87,405.5C 30.0059,336.554 16.0059,259.554 45,174.5C 71.0462,111.454 115.879,67.6205 179.5,43C 203.985,34.81 228.985,30.31 254.5,29.5 Z M 254.5,89.5 C 323.012,92.4864 373.179,124.153 405,184.5C 432.408,249.638 424.075,309.638 380,364.5C 336.166,411.324 282.666,428.824 219.5,417C 162.961,402.488 123.461,368.321 101,314.5C 79.9512,252.782 89.9512,196.782 131,146.5C 164.286,110.459 205.452,91.4588 254.5,89.5 Z"/></g>
<g><path style="opacity:0.962" fill="#000000" d="M 235.5,59.5 C 308.414,54.8866 367.581,80.8866 413,137.5C 450.501,190.495 460.834,248.495 444,311.5C 426.827,364.671 393.661,404.504 344.5,431C 297.831,453.411 249.497,457.744 199.5,444C 146.329,426.827 106.496,393.661 80,344.5C 57.5892,297.826 53.2559,249.492 67,199.5C 84.1727,146.329 117.339,106.496 166.5,80C 188.465,69.2639 211.465,62.4306 235.5,59.5 Z M 254.5,89.5 C 205.452,91.4588 164.286,110.459 131,146.5C 89.9512,196.782 79.9512,252.782 101,314.5C 123.461,368.321 162.961,402.488 219.5,417C 282.666,428.824 336.166,411.324 380,364.5C 424.075,309.638 432.408,249.638 405,184.5C 373.179,124.153 323.012,92.4864 254.5,89.5 Z"/></g>
<g><path style="opacity:1" fill="#000000" d="M 210.5,164.5 C 230.5,164.5 250.5,164.5 270.5,164.5C 270.5,199.5 270.5,234.5 270.5,269.5C 280.5,269.5 290.5,269.5 300.5,269.5C 300.5,279.5 300.5,289.5 300.5,299.5C 270.5,299.5 240.5,299.5 210.5,299.5C 210.5,289.5 210.5,279.5 210.5,269.5C 220.5,269.5 230.5,269.5 240.5,269.5C 240.5,244.5 240.5,219.5 240.5,194.5C 230.5,194.5 220.5,194.5 210.5,194.5C 210.5,184.5 210.5,174.5 210.5,164.5 Z"/></g>
<g><path style="opacity:0.956" fill="#000000" d="M 119.5,255.5 C 129.833,255.5 140.167,255.5 150.5,255.5C 152.192,301.507 173.859,334.174 215.5,353.5C 211.796,363.141 207.629,372.475 203,381.5C 155.75,360.23 128.083,323.897 120,272.5C 119.501,266.843 119.334,261.176 119.5,255.5 Z"/></g>
<g><path style="opacity:0.956" fill="#000000" d="M 360.5,255.5 C 370.833,255.5 381.167,255.5 391.5,255.5C 390.381,306.586 368.381,345.753 325.5,373C 320.112,376.361 314.446,379.194 308.5,381.5C 303.558,372.155 299.725,362.489 297,352.5C 337.734,333.046 358.9,300.712 360.5,255.5 Z"/></g>
<g><path style="opacity:0.938" fill="#000000" d="M 241.5,360.5 C 250.839,360.334 260.173,360.5 269.5,361C 271.06,369.753 272.394,378.586 273.5,387.5C 273.167,388.5 272.833,389.5 272.5,390.5C 261.167,391.833 249.833,391.833 238.5,390.5C 238.366,380.426 239.366,370.426 241.5,360.5 Z"/></g>
</svg>
