<?xml version="1.0" encoding="UTF-8"?>
<!DOCTYPE svg PUBLIC "-//W3C//DTD SVG 1.1//EN" "http://www.w3.org/Graphics/SVG/1.1/DTD/svg11.dtd">
<svg xmlns="http://www.w3.org/2000/svg" version="1.1" width="512px" height="512px" style="shape-rendering:geometricPrecision; text-rendering:geometricPrecision; image-rendering:optimizeQuality; fill-rule:evenodd; clip-rule:evenodd" xmlns:xlink="http://www.w3.org/1999/xlink">
<g><path style="opacity:0.934" fill="#000000" d="M 233.5,-0.5 C 248.167,-0.5 262.833,-0.5 277.5,-0.5C 367.555,10.0943 435.388,54.4276 481,132.5C 497.855,164.278 508.022,197.945 511.5,233.5C 511.5,248.167 511.5,262.833 511.5,277.5C 500.906,367.555 456.572,435.388 378.5,481C 346.722,497.855 313.055,508.022 277.5,511.5C 262.833,511.5 248.167,511.5 233.5,511.5C 143.445,500.906 75.612,456.572 30,378.5C 13.1449,346.722 2.97822,313.055 -0.5,277.5C -0.5,262.833 -0.5,248.167 -0.5,233.5C 10.0943,143.445 54.4276,75.612 132.5,30C 164.278,13.1449 197.945,2.97822 233.5,-0.5 Z M 238.5,16.5 C 333.927,14.1239 407.76,52.4573 460,131.5C 498.372,198.224 504.706,267.891 479,340.5C 447.513,417.32 391.68,466.487 311.5,488C 210.277,507.488 127.443,477.322 63,397.5C 14.2533,327.203 3.91994,251.536 32,170.5C 71.0476,79.2927 139.881,27.9593 238.5,16.5 Z M 241.5,197.5 C 246.71,198.207 249.877,201.207 251,206.5C 255.037,222.867 254.037,238.867 248,254.5C 243.773,258.266 240.106,257.599 237,252.5C 231,235.833 231,219.167 237,202.5C 238.059,200.341 239.559,198.674 241.5,197.5 Z M 302.5,197.5 C 306.493,197.245 309.326,198.911 311,202.5C 316.943,219.619 316.609,236.619 310,253.5C 306.931,258.07 303.598,258.404 300,254.5C 296.022,245.976 294.189,236.976 294.5,227.5C 294.462,220.397 295.295,213.397 297,206.5C 298.329,203.171 300.163,200.171 302.5,197.5 Z M 250.5,393.5 C 257.941,392.033 263.941,394.2 268.5,400C 259.833,400.667 251.167,400.667 242.5,400C 244.774,397.214 247.44,395.047 250.5,393.5 Z M 241.5,418.5 C 250.686,418.515 260.019,418.348 269.5,418C 260.318,427.819 250.985,427.986 241.5,418.5 Z"/></g>
<g><path style="opacity:0.874" fill="#000000" d="M 253.5,25.5 C 263.24,26.3107 266.407,31.3107 263,40.5C 258,45.8333 253,45.8333 248,40.5C 244.838,33.5142 246.671,28.5142 253.5,25.5 Z"/></g>
<g><path style="opacity:0.878" fill="#000000" d="M 206.5,30.5 C 215.53,30.3583 219.363,34.6916 218,43.5C 215.103,48.1549 210.937,49.6549 205.5,48C 201.275,45.3372 199.775,41.5039 201,36.5C 202.36,33.9774 204.193,31.9774 206.5,30.5 Z"/></g>
<g><path style="opacity:0.878" fill="#000000" d="M 298.5,30.5 C 308.849,30.6843 312.349,35.6843 309,45.5C 305.662,48.3181 301.829,49.1515 297.5,48C 292.845,45.1034 291.345,40.9367 293,35.5C 294.73,33.5981 296.563,31.9314 298.5,30.5 Z"/></g>
<g><path style="opacity:0.884" fill="#000000" d="M 164.5,44.5 C 173.003,45.5079 176.17,50.1745 174,58.5C 168.96,64.3682 163.627,64.7015 158,59.5C 155.302,52.24 157.469,47.24 164.5,44.5 Z"/></g>
<g><path style="opacity:0.884" fill="#000000" d="M 343.5,44.5 C 352.732,45.6276 355.899,50.6276 353,59.5C 347.373,64.7015 342.04,64.3682 337,58.5C 334.746,51.5755 336.913,46.9089 343.5,44.5 Z"/></g>
<g><path style="opacity:0.88" fill="#000000" d="M 124.5,67.5 C 133.004,68.5085 136.17,73.1751 134,81.5C 129.902,86.758 125.069,87.5913 119.5,84C 114.662,76.3548 116.328,70.8548 124.5,67.5 Z"/></g>
<g><path style="opacity:0.879" fill="#000000" d="M 384.5,67.5 C 394,69.4867 396.5,74.82 392,83.5C 386.377,87.7409 381.377,87.0742 377,81.5C 374.684,74.0327 377.184,69.3661 384.5,67.5 Z"/></g>
<g><path style="opacity:0.937" fill="#000000" d="M 131.5,181.5 C 134.984,178.364 138.984,176.031 143.5,174.5C 150.615,176.055 153.115,180.388 151,187.5C 142.446,197.357 131.779,204.023 119,207.5C 115.417,216.164 113.251,225.164 112.5,234.5C 114.794,230.76 117.46,227.26 120.5,224C 130.167,222.67 134.001,226.836 132,236.5C 130.667,239.167 129.333,241.833 128,244.5C 122.264,251.722 116.431,258.722 110.5,265.5C 111.308,274.351 112.975,283.017 115.5,291.5C 116.324,288.215 116.824,284.882 117,281.5C 119.402,275.908 123.569,274.075 129.5,276C 130.667,277.167 131.833,278.333 133,279.5C 134.762,293.357 131.929,306.19 124.5,318C 129.039,326.916 134.205,335.416 140,343.5C 139.51,339.504 138.677,335.504 137.5,331.5C 138.998,323.892 143.331,321.392 150.5,324C 153.982,327.418 156.148,331.585 157,336.5C 159.07,345.444 159.736,354.444 159,363.5C 172.107,375.311 186.94,384.478 203.5,391C 209.812,398.623 208.312,404.123 199,407.5C 188.642,404.164 178.975,399.498 170,393.5C 158.225,398.473 146.059,399.639 133.5,397C 126.913,393.146 125.913,388.146 130.5,382C 137.059,380.745 143.726,380.078 150.5,380C 140.766,370.935 131.766,361.269 123.5,351C 110.135,350.212 97.9686,346.045 87,338.5C 83.4684,328.374 86.9684,323.874 97.5,325C 101.954,327.311 106.454,329.478 111,331.5C 105.549,319.493 101.049,306.993 97.5,294C 86.1513,287.985 76.6513,279.818 69,269.5C 67.279,259.124 71.4457,255.291 81.5,258C 85.2365,262.016 89.0698,265.849 93,269.5C 93.3333,258.833 93.6667,248.167 94,237.5C 94.2256,234.905 94.7256,232.405 95.5,230C 84.6504,219.805 79.1504,207.305 79,192.5C 82.0133,187.465 86.1799,186.298 91.5,189C 93.0488,190.214 94.2155,191.714 95,193.5C 95.9065,198.126 97.5732,202.46 100,206.5C 104.631,193.739 110.464,181.573 117.5,170C 111.445,156.527 111.112,143.027 116.5,129.5C 120.952,126.605 125.119,126.938 129,130.5C 130.255,137.059 130.922,143.726 131,150.5C 140.065,140.766 149.731,131.766 160,123.5C 160.852,110.945 164.518,99.2782 171,88.5C 176.747,84.1192 181.747,84.7858 186,90.5C 186.667,92.8333 186.667,95.1667 186,97.5C 183.689,101.954 181.522,106.454 179.5,111C 186.945,107.791 194.611,104.791 202.5,102C 209.879,100.216 214.212,103.05 215.5,110.5C 214.995,113.188 213.662,115.355 211.5,117C 195.667,122.582 181,130.249 167.5,140C 171.496,139.51 175.496,138.677 179.5,137.5C 187.108,138.998 189.608,143.331 187,150.5C 182.284,154.525 176.784,157.025 170.5,158C 162.848,159.519 155.181,159.853 147.5,159C 141.146,165.841 135.812,173.341 131.5,181.5 Z"/></g>
<g><path style="opacity:0.937" fill="#000000" d="M 398.5,234.5 C 397.749,225.164 395.583,216.164 392,207.5C 379.221,204.023 368.554,197.357 360,187.5C 357.885,180.388 360.385,176.055 367.5,174.5C 372.016,176.031 376.016,178.364 379.5,181.5C 375.188,173.341 369.854,165.841 363.5,159C 351.146,160.122 339.146,158.455 327.5,154C 321.842,149.138 321.508,144.138 326.5,139C 328.034,138.077 329.701,137.577 331.5,137.5C 335.504,138.677 339.504,139.51 343.5,140C 330,130.249 315.333,122.582 299.5,117C 294.546,111.762 294.879,106.762 300.5,102C 303.167,101.333 305.833,101.333 308.5,102C 316.389,104.791 324.055,107.791 331.5,111C 329.478,106.454 327.311,101.954 325,97.5C 323.318,88.8504 326.818,85.017 335.5,86C 337.329,86.2735 338.829,87.1068 340,88.5C 346.482,99.2782 350.148,110.945 351,123.5C 361.269,131.766 370.935,140.766 380,150.5C 380.078,143.726 380.745,137.059 382,130.5C 388.146,125.913 393.146,126.913 397,133.5C 399.65,146.063 398.483,158.229 393.5,170C 400.536,181.573 406.369,193.739 411,206.5C 413.455,202.469 415.121,198.136 416,193.5C 418.353,188.574 422.186,186.74 427.5,188C 429.667,188.833 431.167,190.333 432,192.5C 431.85,207.305 426.35,219.805 415.5,230C 416.274,232.405 416.774,234.905 417,237.5C 417.333,248.167 417.667,258.833 418,269.5C 421.93,265.849 425.764,262.016 429.5,258C 439.554,255.291 443.721,259.124 442,269.5C 434.349,279.818 424.849,287.985 413.5,294C 409.951,306.993 405.451,319.493 400,331.5C 404.546,329.478 409.046,327.311 413.5,325C 424.032,323.874 427.532,328.374 424,338.5C 413.031,346.045 400.865,350.212 387.5,351C 379.234,361.269 370.234,370.935 360.5,380C 367.274,380.078 373.941,380.745 380.5,382C 385.087,388.146 384.087,393.146 377.5,397C 364.941,399.639 352.775,398.473 341,393.5C 332.025,399.498 322.358,404.164 312,407.5C 302.688,404.123 301.188,398.623 307.5,391C 324.06,384.478 338.893,375.311 352,363.5C 351.041,351.176 352.708,339.176 357,327.5C 361.862,321.842 366.862,321.508 372,326.5C 372.923,328.034 373.423,329.701 373.5,331.5C 372.323,335.504 371.49,339.504 371,343.5C 376.795,335.416 381.961,326.916 386.5,318C 379.071,306.19 376.238,293.357 378,279.5C 380.955,275.723 384.788,274.557 389.5,276C 391.726,277.227 393.226,279.061 394,281.5C 394.176,284.882 394.676,288.215 395.5,291.5C 398.025,283.017 399.692,274.351 400.5,265.5C 394.569,258.722 388.736,251.722 383,244.5C 378.996,239.443 377.662,233.776 379,227.5C 381.955,223.723 385.788,222.557 390.5,224C 393.54,227.26 396.206,230.76 398.5,234.5 Z"/></g>
<g><path style="opacity:0.87" fill="#000000" d="M 417.5,98.5 C 427.24,99.3107 430.407,104.311 427,113.5C 422,118.833 417,118.833 412,113.5C 408.651,106.397 410.484,101.397 417.5,98.5 Z"/></g>
<g><path style="opacity:0.88" fill="#000000" d="M 60.5,136.5 C 70.1583,134.993 74.325,138.993 73,148.5C 70.6471,153.426 66.8138,155.26 61.5,154C 56.2685,151.367 54.4351,147.201 56,141.5C 57.025,139.313 58.525,137.646 60.5,136.5 Z"/></g>
<g><path style="opacity:0.881" fill="#000000" d="M 442.5,136.5 C 452.158,134.993 456.325,138.993 455,148.5C 452.647,153.426 448.814,155.26 443.5,154C 438.268,151.367 436.435,147.201 438,141.5C 439.025,139.313 440.525,137.646 442.5,136.5 Z"/></g>
<g><path style="opacity:0.873" fill="#000000" d="M 41.5,178.5 C 51.6591,177.158 55.8257,181.491 54,191.5C 51.4586,196.069 47.6253,197.569 42.5,196C 34.844,190.569 34.5106,184.736 41.5,178.5 Z"/></g>
<g><path style="opacity:0.87" fill="#000000" d="M 461.5,178.5 C 471.107,176.942 475.274,180.942 474,190.5C 471.367,195.732 467.201,197.565 461.5,196C 456.845,193.103 455.345,188.937 457,183.5C 458.025,181.313 459.525,179.646 461.5,178.5 Z"/></g>
<g><path style="opacity:0.907" fill="#000000" d="M 199.5,179.5 C 204.776,179.714 207.942,182.381 209,187.5C 209.966,215.215 209.632,242.882 208,270.5C 203,275.833 198,275.833 193,270.5C 191.544,248.553 191.044,226.553 191.5,204.5C 185.216,204.216 181.883,200.883 181.5,194.5C 182.373,192.587 183.373,190.753 184.5,189C 189.26,185.296 194.26,182.13 199.5,179.5 Z"/></g>
<g><path style="opacity:0.934" fill="#000000" d="M 236.5,180.5 C 249.434,178.384 258.934,183.051 265,194.5C 267.679,200.557 269.345,206.89 270,213.5C 271.068,226.603 270.401,239.603 268,252.5C 260.999,274.198 247.499,279.698 227.5,269C 221.69,262.251 218.19,254.418 217,245.5C 214.674,230.364 215.341,215.364 219,200.5C 221.552,190.792 227.386,184.125 236.5,180.5 Z M 241.5,197.5 C 239.559,198.674 238.059,200.341 237,202.5C 231,219.167 231,235.833 237,252.5C 240.106,257.599 243.773,258.266 248,254.5C 254.037,238.867 255.037,222.867 251,206.5C 249.877,201.207 246.71,198.207 241.5,197.5 Z"/></g>
<g><path style="opacity:0.934" fill="#000000" d="M 298.5,180.5 C 311.916,178.289 321.416,183.289 327,195.5C 334.291,216.815 334.291,238.149 327,259.5C 318.283,274.961 306.116,278.461 290.5,270C 283.248,262.323 279.081,253.156 278,242.5C 276.892,229.058 277.559,215.725 280,202.5C 282.456,191.89 288.623,184.557 298.5,180.5 Z M 302.5,197.5 C 300.163,200.171 298.329,203.171 297,206.5C 295.295,213.397 294.462,220.397 294.5,227.5C 294.189,236.976 296.022,245.976 300,254.5C 303.598,258.404 306.931,258.07 310,253.5C 316.609,236.619 316.943,219.619 311,202.5C 309.326,198.911 306.493,197.245 302.5,197.5 Z"/></g>
<g><path style="opacity:0.873" fill="#000000" d="M 32.5,223.5 C 41.905,222.735 45.905,226.901 44.5,236C 41.9477,240.939 37.9477,242.605 32.5,241C 24.882,235.014 24.882,229.181 32.5,223.5 Z"/></g>
<g><path style="opacity:0.876" fill="#000000" d="M 471.5,223.5 C 482.84,223.312 486.34,228.312 482,238.5C 476.719,242.699 471.719,242.366 467,237.5C 464.606,231.517 466.106,226.851 471.5,223.5 Z"/></g>
<g><path style="opacity:0.876" fill="#000000" d="M 32.5,269.5 C 41.905,268.735 45.905,272.901 44.5,282C 41.9477,286.939 37.9477,288.605 32.5,287C 26.6842,283.238 25.5175,278.405 29,272.5C 30.1451,271.364 31.3117,270.364 32.5,269.5 Z"/></g>
<g><path style="opacity:0.874" fill="#000000" d="M 471.5,269.5 C 481.746,269.015 485.579,273.681 483,283.5C 477.667,288.833 472.333,288.833 467,283.5C 464.606,277.517 466.106,272.851 471.5,269.5 Z"/></g>
<g><path style="opacity:0.923" fill="#000000" d="M 192.5,289.5 C 196.219,289.002 199.553,289.836 202.5,292C 209.715,299.717 217.381,306.883 225.5,313.5C 234.316,305.852 242.983,298.018 251.5,290C 254.167,289.333 256.833,289.333 259.5,290C 268.017,298.018 276.684,305.852 285.5,313.5C 294.316,305.852 302.983,298.018 311.5,290C 322.053,288.926 325.553,293.426 322,303.5C 311.167,313.667 300.333,323.833 289.5,334C 286.109,335.721 282.776,335.387 279.5,333C 271.349,325.683 263.349,318.183 255.5,310.5C 247.651,318.183 239.651,325.683 231.5,333C 227.619,335.881 223.619,335.881 219.5,333C 209.637,322.803 199.471,312.97 189,303.5C 186.267,297.722 187.434,293.056 192.5,289.5 Z"/></g>
<g><path style="opacity:0.87" fill="#000000" d="M 42.5,314.5 C 52.1569,313.658 55.9902,317.991 54,327.5C 51.1034,332.155 46.9367,333.655 41.5,332C 34.6203,325.772 34.9536,319.939 42.5,314.5 Z"/></g>
<g><path style="opacity:0.873" fill="#000000" d="M 461.5,314.5 C 473.689,314.718 477.023,320.218 471.5,331C 460.431,334.891 455.598,331.058 457,319.5C 458.193,317.503 459.693,315.836 461.5,314.5 Z"/></g>
<g><path style="opacity:0.881" fill="#000000" d="M 61.5,356.5 C 70.4775,356.31 74.3108,360.643 73,369.5C 70.1034,374.155 65.9367,375.655 60.5,374C 55.9315,371.459 54.4315,367.625 56,362.5C 57.3597,359.977 59.193,357.977 61.5,356.5 Z"/></g>
<g><path style="opacity:0.88" fill="#000000" d="M 443.5,356.5 C 452.478,356.31 456.311,360.643 455,369.5C 452.103,374.155 447.937,375.655 442.5,374C 437.931,371.459 436.431,367.625 438,362.5C 439.36,359.977 441.193,357.977 443.5,356.5 Z"/></g>
<g><path style="opacity:0.945" fill="#000000" d="M 251.5,375.5 C 273.704,375.872 286.371,387.039 289.5,409C 287.394,429.606 276.06,441.106 255.5,443.5C 234.94,441.106 223.606,429.606 221.5,409C 223.674,390.667 233.674,379.5 251.5,375.5 Z M 250.5,393.5 C 247.44,395.047 244.774,397.214 242.5,400C 251.167,400.667 259.833,400.667 268.5,400C 263.941,394.2 257.941,392.033 250.5,393.5 Z M 241.5,418.5 C 250.985,427.986 260.318,427.819 269.5,418C 260.019,418.348 250.686,418.515 241.5,418.5 Z"/></g>
<g><path style="opacity:0.87" fill="#000000" d="M 90.5,393.5 C 98.8777,394.581 102.044,399.248 100,407.5C 94.9581,413.602 89.6248,413.935 84,408.5C 80.7498,401.01 82.9165,396.01 90.5,393.5 Z"/></g>
<g><path style="opacity:0.87" fill="#000000" d="M 418.5,393.5 C 427.568,394.969 430.401,399.969 427,408.5C 421.375,413.935 416.042,413.602 411,407.5C 409.101,400.291 411.601,395.624 418.5,393.5 Z"/></g>
<g><path style="opacity:0.879" fill="#000000" d="M 124.5,424.5 C 133.003,425.508 136.17,430.175 134,438.5C 128.96,444.368 123.627,444.702 118,439.5C 115.302,432.24 117.469,427.24 124.5,424.5 Z"/></g>
<g><path style="opacity:0.88" fill="#000000" d="M 383.5,424.5 C 392.732,425.628 395.899,430.628 393,439.5C 387.373,444.702 382.04,444.368 377,438.5C 374.746,431.576 376.913,426.909 383.5,424.5 Z"/></g>
<g><path style="opacity:0.884" fill="#000000" d="M 164.5,447.5 C 173.004,448.508 176.17,453.175 174,461.5C 169.902,466.758 165.069,467.591 159.5,464C 154.662,456.355 156.328,450.855 164.5,447.5 Z"/></g>
<g><path style="opacity:0.884" fill="#000000" d="M 344.5,447.5 C 354,449.487 356.5,454.82 352,463.5C 346.377,467.741 341.377,467.074 337,461.5C 334.684,454.033 337.184,449.366 344.5,447.5 Z"/></g>
<g><path style="opacity:0.878" fill="#000000" d="M 205.5,462.5 C 215.659,461.158 219.826,465.491 218,475.5C 211.833,482.412 206.167,482.079 201,474.5C 199.87,469.375 201.37,465.375 205.5,462.5 Z"/></g>
<g><path style="opacity:0.878" fill="#000000" d="M 297.5,462.5 C 307.139,460.974 311.306,464.974 310,474.5C 304.833,482.079 299.167,482.412 293,475.5C 291.379,469.923 292.879,465.589 297.5,462.5 Z"/></g>
<g><path style="opacity:0.874" fill="#000000" d="M 254.5,466.5 C 263.568,467.969 266.401,472.969 263,481.5C 258,486.833 253,486.833 248,481.5C 244.75,474.01 246.917,469.01 254.5,466.5 Z"/></g>
</svg>
