<?xml version="1.0" encoding="UTF-8"?>
<!DOCTYPE svg PUBLIC "-//W3C//DTD SVG 1.1//EN" "http://www.w3.org/Graphics/SVG/1.1/DTD/svg11.dtd">
<svg xmlns="http://www.w3.org/2000/svg" version="1.1" width="512px" height="512px" style="shape-rendering:geometricPrecision; text-rendering:geometricPrecision; image-rendering:optimizeQuality; fill-rule:evenodd; clip-rule:evenodd" xmlns:xlink="http://www.w3.org/1999/xlink">
<g><path style="opacity:0.985" fill="#020100" d="M 233.5,15.5 C 325.182,10.602 398.349,44.602 453,117.5C 500.037,189.838 508.371,266.504 478,347.5C 451.833,408.333 408.333,451.833 347.5,478C 266.504,508.371 189.838,500.037 117.5,453C 44.4467,398.372 10.6134,325.205 16,233.5C 25.627,150.008 66.4604,87.1747 138.5,45C 168.379,28.982 200.046,19.1487 233.5,15.5 Z"/></g>
<g><path style="opacity:1" fill="#fbbd00" d="M 239.5,35.5 C 241.5,35.5 243.5,35.5 245.5,35.5C 245.5,52.5 245.5,69.5 245.5,86.5C 206.218,88.6494 171.885,102.649 142.5,128.5C 131.014,116.514 119.348,104.681 107.5,93C 145.14,59.3493 189.14,40.1827 239.5,35.5 Z"/></g>
<g><path style="opacity:1" fill="#fbbd00" d="M 265.5,36.5 C 318.537,38.5298 364.537,57.3631 403.5,93C 391.652,104.681 379.986,116.514 368.5,128.5C 339.06,102.791 304.727,88.7907 265.5,86.5C 265.5,69.8333 265.5,53.1667 265.5,36.5 Z"/></g>
<g><path style="opacity:1" fill="#fdd82c" d="M 239.5,105.5 C 306.939,102.621 357.105,130.288 390,188.5C 411.829,236.944 410.162,284.611 385,331.5C 344.946,391.871 289.113,415.038 217.5,401C 161.951,384.426 126.117,348.26 110,292.5C 96.2278,221.249 119.394,165.749 179.5,126C 198.33,115.402 218.33,108.569 239.5,105.5 Z"/></g>
<g><path style="opacity:1" fill="#fbbd00" d="M 92.5,107.5 C 104.479,119.145 116.479,130.812 128.5,142.5C 102.645,171.892 88.6454,206.225 86.5,245.5C 69.5,245.5 52.5,245.5 35.5,245.5C 38.579,192.706 57.579,146.706 92.5,107.5 Z"/></g>
<g><path style="opacity:1" fill="#fabd00" d="M 417.5,107.5 C 453.231,146.33 472.564,192.33 475.5,245.5C 458.5,245.5 441.5,245.5 424.5,245.5C 422.355,206.225 408.355,171.892 382.5,142.5C 394.521,131.146 406.188,119.479 417.5,107.5 Z"/></g>
<g><path style="opacity:1" fill="#030200" d="M 241.5,135.5 C 251.105,134.842 255.605,139.175 255,148.5C 253.355,154.079 252.188,159.746 251.5,165.5C 256.511,165.334 261.511,165.501 266.5,166C 271.072,167.373 275.739,168.206 280.5,168.5C 281.873,158.216 284.373,148.216 288,138.5C 296.636,133.237 302.469,135.404 305.5,145C 303.161,155.364 300.828,165.697 298.5,176C 306.297,180.652 313.464,186.152 320,192.5C 323.794,204.077 319.627,209.244 307.5,208C 303.5,204.667 299.5,201.333 295.5,198C 294.517,197.409 293.85,197.743 293.5,199C 283.462,240.693 274.128,282.527 265.5,324.5C 273.824,323.115 281.824,320.615 289.5,317C 296.072,313.098 302.072,308.431 307.5,303C 318.387,301.22 322.887,305.72 321,316.5C 304.517,334.321 284.017,343.988 259.5,345.5C 258.147,353.914 256.314,362.248 254,370.5C 250.44,375.129 245.94,376.296 240.5,374C 238.19,372.363 236.69,370.196 236,367.5C 236.834,359.49 238.001,351.49 239.5,343.5C 230.924,342.856 222.924,340.356 215.5,336C 214.5,335.333 213.5,335.333 212.5,336C 209.671,347.469 206.838,358.969 204,370.5C 198.795,376.579 193.295,376.912 187.5,371.5C 186.428,369.283 185.761,366.95 185.5,364.5C 189.202,350.274 192.036,335.94 194,321.5C 169.833,296.849 161.167,267.516 168,233.5C 177.352,201.314 197.852,179.647 229.5,168.5C 231.772,159.871 233.939,151.205 236,142.5C 237.371,139.734 239.204,137.401 241.5,135.5 Z"/></g>
<g><path style="opacity:1" fill="#fad62c" d="M 246.5,185.5 C 255.652,184.954 264.652,185.788 273.5,188C 274.428,188.388 275.095,189.055 275.5,190C 265.204,234.484 255.037,278.984 245,323.5C 235.43,323.492 226.597,320.658 218.5,315C 217.941,314.275 217.608,313.442 217.5,312.5C 227.044,270.112 236.71,227.778 246.5,185.5 Z"/></g>
<g><path style="opacity:1" fill="#fad52c" d="M 223.5,192.5 C 224.097,192.735 224.43,193.235 224.5,194C 216.494,228.872 208.327,263.705 200,298.5C 184.733,276.44 181.733,252.774 191,227.5C 198.217,212.34 209.05,200.673 223.5,192.5 Z"/></g>
<g><path style="opacity:1" fill="#fbbd00" d="M 36.5,265.5 C 53.1667,265.5 69.8333,265.5 86.5,265.5C 88.7907,304.727 102.791,339.06 128.5,368.5C 116.514,379.986 104.681,391.652 93,403.5C 57.3478,364.511 38.5144,318.511 36.5,265.5 Z"/></g>
<g><path style="opacity:1" fill="#fbbd00" d="M 424.5,265.5 C 441.167,265.5 457.833,265.5 474.5,265.5C 472.486,318.511 453.652,364.511 418,403.5C 406.167,391.667 394.333,379.833 382.5,368C 408.299,338.795 422.299,304.628 424.5,265.5 Z"/></g>
<g><path style="opacity:1" fill="#fbbd00" d="M 141.5,382.5 C 161.409,398.794 183.742,410.96 208.5,419C 220.584,422.552 232.918,424.385 245.5,424.5C 245.5,441.5 245.5,458.5 245.5,475.5C 192.561,472.517 146.561,453.351 107.5,418C 119.423,406.58 130.756,394.747 141.5,382.5 Z"/></g>
<g><path style="opacity:1" fill="#fbbd00" d="M 367.5,382.5 C 379.584,394.083 391.584,405.916 403.5,418C 364.53,453.641 318.53,472.474 265.5,474.5C 265.5,457.833 265.5,441.167 265.5,424.5C 304.597,422.37 338.597,408.37 367.5,382.5 Z"/></g>
</svg>
