<?xml version="1.0" encoding="UTF-8"?>
<!DOCTYPE svg PUBLIC "-//W3C//DTD SVG 1.1//EN" "http://www.w3.org/Graphics/SVG/1.1/DTD/svg11.dtd">
<svg xmlns="http://www.w3.org/2000/svg" version="1.1" width="64px" height="64px" style="shape-rendering:geometricPrecision; text-rendering:geometricPrecision; image-rendering:optimizeQuality; fill-rule:evenodd; clip-rule:evenodd" xmlns:xlink="http://www.w3.org/1999/xlink">
<g><path style="opacity:0.721" fill="#000000" d="M 25.5,-0.5 C 29.5,-0.5 33.5,-0.5 37.5,-0.5C 51.1667,3.16667 59.8333,11.8333 63.5,25.5C 63.5,29.5 63.5,33.5 63.5,37.5C 62.3224,41.1759 60.8224,44.8426 59,48.5C 57.8867,50.3293 56.3867,51.1626 54.5,51C 53.9781,50.4387 53.6448,49.772 53.5,49C 59.3587,40.923 60.8587,32.0896 58,22.5C 57.6322,21.09 56.7989,20.09 55.5,19.5C 52.36,21.4064 49.0266,22.7397 45.5,23.5C 45.5,26.8333 45.5,30.1667 45.5,33.5C 44.1779,33.67 43.0113,33.3366 42,32.5C 41.5034,30.1902 41.3367,27.8568 41.5,25.5C 34.8333,25.5 28.1667,25.5 21.5,25.5C 21.6621,27.5273 21.4955,29.5273 21,31.5C 20.2904,32.9733 19.1238,33.6399 17.5,33.5C 17.5,30.1667 17.5,26.8333 17.5,23.5C 13.7562,22.2792 10.0896,21.1125 6.5,20C 4.16562,24.1738 3.16562,28.6738 3.5,33.5C 2.16667,33.5 0.833333,33.5 -0.5,33.5C -0.5,30.8333 -0.5,28.1667 -0.5,25.5C 3.16667,11.8333 11.8333,3.16667 25.5,-0.5 Z M 22.5,4.5 C 23.552,4.35055 24.552,4.51722 25.5,5C 22.4082,9.69088 19.7415,14.5242 17.5,19.5C 15.0846,18.6948 12.7513,17.6948 10.5,16.5C 9.41728,15.635 9.25061,14.635 10,13.5C 13.7899,9.86163 17.9565,6.86163 22.5,4.5 Z M 37.5,5.5 C 44.2599,5.73123 49.5933,8.8979 53.5,15C 51.0542,17.6997 48.0542,19.0331 44.5,19C 42.814,14.0658 40.4806,9.56578 37.5,5.5 Z M 30.5,5.5 C 32.0174,5.51056 33.1841,6.17723 34,7.5C 36.6939,11.5545 38.8606,15.8878 40.5,20.5C 34.5,21.8333 28.5,21.8333 22.5,20.5C 24.401,15.0281 27.0676,10.0281 30.5,5.5 Z"/></g>
<g><path style="opacity:0.735" fill="#000000" d="M 33.5,63.5 C 32.1667,63.5 30.8333,63.5 29.5,63.5C 29.6662,57.1579 29.4995,50.8246 29,44.5C 25.7185,41.9175 24.7185,38.5842 26,34.5C 29.6667,30.5 33.3333,30.5 37,34.5C 38.2815,38.5842 37.2815,41.9175 34,44.5C 33.5005,50.8246 33.3338,57.1579 33.5,63.5 Z M 30.5,35.5 C 33.9563,36.5362 34.2896,38.2029 31.5,40.5C 29.2957,39.218 28.9624,37.5514 30.5,35.5 Z"/></g>
<g><path style="opacity:0.594" fill="#000000" d="M 2.5,41.5 C 6.37714,42.527 8.37714,45.1937 8.5,49.5C 4.51839,49.6176 2.18505,47.6176 1.5,43.5C 1.86273,42.8165 2.19607,42.1499 2.5,41.5 Z"/></g>
<g><path style="opacity:0.756" fill="#000000" d="M 20.5,63.5 C 19.5,63.5 18.5,63.5 17.5,63.5C 18.1421,59.1382 16.6421,55.8048 13,53.5C 12.0032,46.1671 15.1699,43.3338 22.5,45C 26.711,49.2327 26.3777,53.0661 21.5,56.5C 20.5258,58.7427 20.1924,61.076 20.5,63.5 Z M 17.5,48.5 C 20.1662,48.0658 21.3329,49.0658 21,51.5C 17.4034,53.0661 16.2368,52.0661 17.5,48.5 Z"/></g>
<g><path style="opacity:0.756" fill="#000000" d="M 45.5,63.5 C 44.5,63.5 43.5,63.5 42.5,63.5C 43.1421,59.1382 41.6421,55.8048 38,53.5C 37.0032,46.1671 40.1699,43.3338 47.5,45C 51.711,49.2327 51.3777,53.0661 46.5,56.5C 45.5258,58.7427 45.1924,61.076 45.5,63.5 Z M 42.5,48.5 C 45.1662,48.0658 46.3329,49.0658 46,51.5C 42.4034,53.0661 41.2368,52.0661 42.5,48.5 Z"/></g>
</svg>
