<?xml version="1.0" encoding="UTF-8"?>
<!DOCTYPE svg PUBLIC "-//W3C//DTD SVG 1.1//EN" "http://www.w3.org/Graphics/SVG/1.1/DTD/svg11.dtd">
<svg xmlns="http://www.w3.org/2000/svg" version="1.1" width="50px" height="50px" style="shape-rendering:geometricPrecision; text-rendering:geometricPrecision; image-rendering:optimizeQuality; fill-rule:evenodd; clip-rule:evenodd" xmlns:xlink="http://www.w3.org/1999/xlink">
<g><path style="opacity:0.614" fill="#000000" d="M 17.5,1.5 C 41.1541,0.318958 50.6541,11.319 46,34.5C 38.7573,46.8068 28.2573,50.6402 14.5,46C 2.19317,38.7573 -1.64016,28.2573 3,14.5C 6.16246,8.16411 10.9958,3.83077 17.5,1.5 Z M 18.5,4.5 C 36.9796,3.47899 45.4796,12.1457 44,30.5C 37.0966,44.6987 26.5966,48.1987 12.5,41C 3.68074,32.6969 2.18074,23.1969 8,12.5C 10.94,8.96319 14.44,6.29652 18.5,4.5 Z M 20.5,15.5 C 23.6492,15.2114 26.6492,15.7114 29.5,17C 28,17.1667 26.5,17.3333 25,17.5C 23.0145,17.4313 21.5145,16.7647 20.5,15.5 Z M 20.5,19.5 C 24.1667,19.5 27.8333,19.5 31.5,19.5C 31.5,20.5 31.5,21.5 31.5,22.5C 27.8333,22.5 24.1667,22.5 20.5,22.5C 20.5,21.5 20.5,20.5 20.5,19.5 Z M 20.5,24.5 C 23.5184,24.3354 26.5184,24.502 29.5,25C 26.1153,27.0738 23.1153,26.9071 20.5,24.5 Z"/></g>
<g><path style="opacity:0.826" fill="#000000" d="M 17.5,12.5 C 21.5138,12.3345 25.5138,12.5012 29.5,13C 32.2699,14.7435 34.9366,16.5768 37.5,18.5C 34.8333,20.1667 34.8333,21.8333 37.5,23.5C 35.2632,24.1321 33.5965,25.4654 32.5,27.5C 28.7121,29.2558 24.7121,29.9225 20.5,29.5C 20.5,32.5 20.5,35.5 20.5,38.5C 19.5,38.5 18.5,38.5 17.5,38.5C 17.5,33.8333 17.5,29.1667 17.5,24.5C 12.1667,23.8333 12.1667,23.1667 17.5,22.5C 17.5,21.5 17.5,20.5 17.5,19.5C 12.1667,18.8333 12.1667,18.1667 17.5,17.5C 17.5,15.8333 17.5,14.1667 17.5,12.5 Z M 20.5,15.5 C 21.5145,16.7647 23.0145,17.4313 25,17.5C 26.5,17.3333 28,17.1667 29.5,17C 26.6492,15.7114 23.6492,15.2114 20.5,15.5 Z M 20.5,19.5 C 20.5,20.5 20.5,21.5 20.5,22.5C 24.1667,22.5 27.8333,22.5 31.5,22.5C 31.5,21.5 31.5,20.5 31.5,19.5C 27.8333,19.5 24.1667,19.5 20.5,19.5 Z M 20.5,24.5 C 23.1153,26.9071 26.1153,27.0738 29.5,25C 26.5184,24.502 23.5184,24.3354 20.5,24.5 Z"/></g>
</svg>
