<?xml version="1.0" encoding="UTF-8"?>
<!DOCTYPE svg PUBLIC "-//W3C//DTD SVG 1.1//EN" "http://www.w3.org/Graphics/SVG/1.1/DTD/svg11.dtd">
<svg xmlns="http://www.w3.org/2000/svg" version="1.1" width="48px" height="48px" style="shape-rendering:geometricPrecision; text-rendering:geometricPrecision; image-rendering:optimizeQuality; fill-rule:evenodd; clip-rule:evenodd" xmlns:xlink="http://www.w3.org/1999/xlink">
<g><path style="opacity:0.982" fill="#4051b4" d="M 43.5,20.5 C 30.1667,20.5 16.8333,20.5 3.5,20.5C 6.9698,6.41542 15.9698,0.915422 30.5,4C 38.0679,6.9769 42.4013,12.4769 43.5,20.5 Z"/></g>
<g><path style="opacity:1" fill="#c7a141" d="M 15.5,15.5 C 17.337,15.6395 17.6704,16.3061 16.5,17.5C 15.7025,17.0431 15.3691,16.3764 15.5,15.5 Z"/></g>
<g><path style="opacity:1" fill="#cca343" d="M 10.5,16.5 C 11.2891,16.7828 11.9558,17.2828 12.5,18C 11.184,18.5281 10.5173,18.0281 10.5,16.5 Z"/></g>
<g><path style="opacity:1" fill="#cca343" d="M 21.5,16.5 C 22.7733,17.0768 22.7733,17.7435 21.5,18.5C 20.537,18.0302 20.537,17.3635 21.5,16.5 Z"/></g>
<g><path style="opacity:1" fill="#ecece7" d="M 3.5,20.5 C 16.8333,20.5 30.1667,20.5 43.5,20.5C 43.5,21.5 43.5,22.5 43.5,23.5C 30.1667,23.5 16.8333,23.5 3.5,23.5C 3.5,22.5 3.5,21.5 3.5,20.5 Z"/></g>
<g><path style="opacity:1" fill="#d50c0a" d="M 3.5,23.5 C 16.8333,23.5 30.1667,23.5 43.5,23.5C 43.5,24.5 43.5,25.5 43.5,26.5C 30.1667,26.5 16.8333,26.5 3.5,26.5C 3.5,25.5 3.5,24.5 3.5,23.5 Z"/></g>
<g><path style="opacity:1" fill="#e9e9e5" d="M 3.5,26.5 C 16.8333,26.5 30.1667,26.5 43.5,26.5C 43.7678,28.099 43.4345,29.4324 42.5,30.5C 29.8333,29.1667 17.1667,29.1667 4.5,30.5C 3.56552,29.4324 3.23219,28.099 3.5,26.5 Z"/></g>
<g><path style="opacity:0.981" fill="#3f51b4" d="M 42.5,30.5 C 37.5258,41.8182 28.8591,45.9849 16.5,43C 10.2528,40.9208 6.25283,36.7542 4.5,30.5C 17.1667,29.1667 29.8333,29.1667 42.5,30.5 Z"/></g>
<g><path style="opacity:1" fill="#9f8762" d="M 10.5,31.5 C 12.337,31.6395 12.6704,32.3061 11.5,33.5C 10.7025,33.0431 10.3691,32.3764 10.5,31.5 Z"/></g>
<g><path style="opacity:1" fill="#b39351" d="M 20.5,31.5 C 22.337,31.6395 22.6704,32.3061 21.5,33.5C 20.7025,33.0431 20.3691,32.3764 20.5,31.5 Z"/></g>
<g><path style="opacity:1" fill="#a28963" d="M 15.5,33.5 C 17.337,33.6395 17.6704,34.3061 16.5,35.5C 15.7025,35.0431 15.3691,34.3764 15.5,33.5 Z"/></g>
</svg>
