<?xml version="1.0" encoding="UTF-8"?>
<!DOCTYPE svg PUBLIC "-//W3C//DTD SVG 1.1//EN" "http://www.w3.org/Graphics/SVG/1.1/DTD/svg11.dtd">
<svg xmlns="http://www.w3.org/2000/svg" version="1.1" width="64px" height="64px" style="shape-rendering:geometricPrecision; text-rendering:geometricPrecision; image-rendering:optimizeQuality; fill-rule:evenodd; clip-rule:evenodd" xmlns:xlink="http://www.w3.org/1999/xlink">
<g><path style="opacity:0.873" fill="#000000" d="M 26.5,5.5 C 30.1667,5.5 33.8333,5.5 37.5,5.5C 37.5,7.5 37.5,9.5 37.5,11.5C 40.8333,11.5 44.1667,11.5 47.5,11.5C 47.5,13.1667 47.5,14.8333 47.5,16.5C 49.1667,16.5 50.8333,16.5 52.5,16.5C 52.5,20.1667 52.5,23.8333 52.5,27.5C 48.8333,27.5 45.1667,27.5 41.5,27.5C 41.5,25.8333 41.5,24.1667 41.5,22.5C 39.8333,22.5 38.1667,22.5 36.5,22.5C 36.5,20.5 36.5,18.5 36.5,16.5C 33.1667,16.5 29.8333,16.5 26.5,16.5C 26.5,18.5 26.5,20.5 26.5,22.5C 24.8333,22.5 23.1667,22.5 21.5,22.5C 21.5,28.5 21.5,34.5 21.5,40.5C 23.1667,40.5 24.8333,40.5 26.5,40.5C 26.5,42.5 26.5,44.5 26.5,46.5C 29.8333,46.5 33.1667,46.5 36.5,46.5C 36.5,44.5 36.5,42.5 36.5,40.5C 38.1667,40.5 39.8333,40.5 41.5,40.5C 41.5,38.8333 41.5,37.1667 41.5,35.5C 45.1667,35.5 48.8333,35.5 52.5,35.5C 52.5,39.1667 52.5,42.8333 52.5,46.5C 50.8333,46.5 49.1667,46.5 47.5,46.5C 47.5,48.1667 47.5,49.8333 47.5,51.5C 44.1667,51.5 40.8333,51.5 37.5,51.5C 37.5,53.5 37.5,55.5 37.5,57.5C 33.8183,57.6653 30.1516,57.4986 26.5,57C 25.5939,55.3005 25.2606,53.4672 25.5,51.5C 22.1667,51.5 18.8333,51.5 15.5,51.5C 15.5,50.1667 15.5,48.8333 15.5,47.5C 13.8333,47.5 12.1667,47.5 10.5,47.5C 10.5,37.1667 10.5,26.8333 10.5,16.5C 12.1667,16.5 13.8333,16.5 15.5,16.5C 15.5,14.8333 15.5,13.1667 15.5,11.5C 18.8333,11.5 22.1667,11.5 25.5,11.5C 25.3253,9.3792 25.6586,7.3792 26.5,5.5 Z"/></g>
</svg>
