<?xml version="1.0" encoding="UTF-8"?>
<!DOCTYPE svg PUBLIC "-//W3C//DTD SVG 1.1//EN" "http://www.w3.org/Graphics/SVG/1.1/DTD/svg11.dtd">
<svg xmlns="http://www.w3.org/2000/svg" version="1.1" width="64px" height="64px" style="shape-rendering:geometricPrecision; text-rendering:geometricPrecision; image-rendering:optimizeQuality; fill-rule:evenodd; clip-rule:evenodd" xmlns:xlink="http://www.w3.org/1999/xlink">
<g><path style="opacity:0.004" fill="#fe0000" d="M 13.5,0.5 C 13.5,1.16667 13.5,1.83333 13.5,2.5C 13.1667,2.5 12.8333,2.5 12.5,2.5C 9.83333,2.5 7.16667,2.5 4.5,2.5C 6.98785,0.612165 9.98785,-0.054502 13.5,0.5 Z"/></g>
<g><path style="opacity:0.004" fill="#feff00" d="M 13.5,0.5 C 18.6186,-0.103103 23.2853,0.563563 27.5,2.5C 23.1667,2.5 18.8333,2.5 14.5,2.5C 14.1667,2.5 13.8333,2.5 13.5,2.5C 13.5,1.83333 13.5,1.16667 13.5,0.5 Z"/></g>
<g><path style="opacity:0.969" fill="#f49b46" d="M 14.5,2.5 C 18.8333,2.5 23.1667,2.5 27.5,2.5C 33.3763,2.34205 39.043,3.34205 44.5,5.5C 48.7769,9.60204 53.2769,13.602 58,17.5C 59.128,19.3453 59.628,21.3453 59.5,23.5C 56.8187,23.5379 54.3187,22.8713 52,21.5C 39.2426,15.4312 26.7426,9.09789 14.5,2.5 Z"/></g>
<g><path style="opacity:1" fill="#f38651" d="M 12.5,2.5 C 12.8333,2.5 13.1667,2.5 13.5,2.5C 13.8333,2.5 14.1667,2.5 14.5,2.5C 26.7426,9.09789 39.2426,15.4312 52,21.5C 54.3187,22.8713 56.8187,23.5379 59.5,23.5C 60.4511,24.9187 60.7845,26.5853 60.5,28.5C 60.5299,29.4972 60.0299,30.1639 59,30.5C 55.8306,27.8313 52.3306,26.9979 48.5,28C 46.741,26.992 45.5743,25.492 45,23.5C 44.7216,24.4158 44.2216,25.0825 43.5,25.5C 41.855,22.1993 39.1884,19.866 35.5,18.5C 27.1284,13.4726 18.4617,8.63928 9.5,4C 10.7375,3.76791 11.7375,3.26791 12.5,2.5 Z"/></g>
<g><path style="opacity:1" fill="#f47658" d="M 4.5,2.5 C 7.16667,2.5 9.83333,2.5 12.5,2.5C 11.7375,3.26791 10.7375,3.76791 9.5,4C 18.4617,8.63928 27.1284,13.4726 35.5,18.5C 27.9353,16.862 20.2686,16.1953 12.5,16.5C 11.1667,16.5 9.83333,16.5 8.5,16.5C 6.5,16.5 4.5,16.5 2.5,16.5C 1.8969,11.3814 2.56356,6.71474 4.5,2.5 Z"/></g>
<g><path style="opacity:0.779" fill="#2ba5db" d="M 8.5,16.5 C 9.83333,16.5 11.1667,16.5 12.5,16.5C 13.9187,17.4511 15.5853,17.7845 17.5,17.5C 18.0662,20.5826 18.0662,23.5826 17.5,26.5C 18.8333,27.5 20.1667,28.5 21.5,29.5C 20.9747,30.1924 20.3081,30.6924 19.5,31C 21.9818,32.4606 21.9818,33.9606 19.5,35.5C 19.5,39.8333 19.5,44.1667 19.5,48.5C 19.1667,49.1667 18.8333,49.8333 18.5,50.5C 13.7408,55.2584 8.40742,59.2584 2.5,62.5C 2.57739,51.3393 2.57739,40.3393 2.5,29.5C 4.3502,26.5462 4.3502,23.3796 2.5,20C 3.68685,17.4103 5.52018,16.9103 8,18.5C 8.46434,17.9056 8.63101,17.2389 8.5,16.5 Z"/></g>
<g><path style="opacity:0.65" fill="#f0675b" d="M 60.5,28.5 C 61.7479,29.3339 62.4146,30.6672 62.5,32.5C 60.8897,37.0499 59.7231,41.7166 59,46.5C 57.951,48.1066 56.451,48.7733 54.5,48.5C 54.7803,43.6863 54.1136,39.0196 52.5,34.5C 51.8933,34.6236 51.56,34.9569 51.5,35.5C 49.0971,35.552 46.7638,35.2186 44.5,34.5C 44.5,32.1667 44.5,29.8333 44.5,27.5C 43.325,27.719 42.325,27.3857 41.5,26.5C 41.9569,25.7025 42.6236,25.3691 43.5,25.5C 44.2216,25.0825 44.7216,24.4158 45,23.5C 45.5743,25.492 46.741,26.992 48.5,28C 52.3306,26.9979 55.8306,27.8313 59,30.5C 60.0299,30.1639 60.5299,29.4972 60.5,28.5 Z"/></g>
<g><path style="opacity:0.004" fill="#00fffe" d="M 19.5,35.5 C 21.4302,39.3727 22.0969,43.706 21.5,48.5C 20.8333,48.5 20.1667,48.5 19.5,48.5C 19.5,44.1667 19.5,39.8333 19.5,35.5 Z"/></g>
<g><path style="opacity:0.894" fill="#ec387a" d="M 44.5,34.5 C 46.7638,35.2186 49.0971,35.552 51.5,35.5C 51.8933,41.678 51.0599,47.678 49,53.5C 48.3292,54.2524 47.4959,54.5858 46.5,54.5C 46.719,53.325 46.3857,52.325 45.5,51.5C 42.9302,50.3657 40.2635,49.5323 37.5,49C 36.6634,47.9887 36.33,46.8221 36.5,45.5C 39.9884,44.1017 41.655,41.435 41.5,37.5C 42.5,37.5 43.5,37.5 44.5,37.5C 44.5,36.5 44.5,35.5 44.5,34.5 Z"/></g>
<g><path style="opacity:0.992" fill="#c12d7f" d="M 36.5,45.5 C 36.33,46.8221 36.6634,47.9887 37.5,49C 40.2635,49.5323 42.9302,50.3657 45.5,51.5C 46.3857,52.325 46.719,53.325 46.5,54.5C 44.7004,59.2096 41.367,62.2096 36.5,63.5C 35.1667,63.5 33.8333,63.5 32.5,63.5C 33.3984,62.8423 34.3984,62.1757 35.5,61.5C 30.0129,58.3193 24.3462,55.6526 18.5,53.5C 18.5,52.5 18.5,51.5 18.5,50.5C 18.8333,49.8333 19.1667,49.1667 19.5,48.5C 20.1667,48.5 20.8333,48.5 21.5,48.5C 26.7929,48.7748 31.7929,47.7748 36.5,45.5 Z"/></g>
<g><path style="opacity:0.555" fill="#902f83" d="M 18.5,50.5 C 18.5,51.5 18.5,52.5 18.5,53.5C 24.3462,55.6526 30.0129,58.3193 35.5,61.5C 34.3984,62.1757 33.3984,62.8423 32.5,63.5C 22.5,63.5 12.5,63.5 2.5,63.5C 2.5,63.1667 2.5,62.8333 2.5,62.5C 8.40742,59.2584 13.7408,55.2584 18.5,50.5 Z"/></g>
</svg>
