<?xml version="1.0" encoding="UTF-8"?>
<!DOCTYPE svg PUBLIC "-//W3C//DTD SVG 1.1//EN" "http://www.w3.org/Graphics/SVG/1.1/DTD/svg11.dtd">
<svg xmlns="http://www.w3.org/2000/svg" version="1.1" width="512px" height="512px" style="shape-rendering:geometricPrecision; text-rendering:geometricPrecision; image-rendering:optimizeQuality; fill-rule:evenodd; clip-rule:evenodd" xmlns:xlink="http://www.w3.org/1999/xlink">
<g><path style="opacity:0.963" fill="#000000" d="M 232.5,-0.5 C 247.833,-0.5 263.167,-0.5 278.5,-0.5C 358.893,9.09801 422.393,46.7647 469,112.5C 492.821,149.131 506.987,189.131 511.5,232.5C 511.5,247.833 511.5,263.167 511.5,278.5C 501.902,358.893 464.235,422.393 398.5,469C 361.869,492.821 321.869,506.987 278.5,511.5C 263.167,511.5 247.833,511.5 232.5,511.5C 135.779,499.079 65.6128,449.413 22,362.5C 10.0981,335.551 2.59809,307.551 -0.5,278.5C -0.5,263.167 -0.5,247.833 -0.5,232.5C 9.09756,152.108 46.7642,88.6077 112.5,42C 149.131,18.1794 189.131,4.01272 232.5,-0.5 Z M 236.5,30.5 C 318.573,26.7997 385.073,56.7997 436,120.5C 484.453,189.895 493.453,264.228 463,343.5C 425.483,423.648 362.65,469.148 274.5,480C 192.404,484.189 125.904,454.356 75,390.5C 31.4155,329.226 19.7489,262.226 40,189.5C 66.2644,112.235 118.431,61.7355 196.5,38C 209.819,34.6344 223.152,32.1344 236.5,30.5 Z"/></g>
<g><path style="opacity:0.962" fill="#000000" d="M 134.5,119.5 C 144.833,119.5 155.167,119.5 165.5,119.5C 165.333,148.169 165.5,176.835 166,205.5C 197.167,178.333 228.333,151.167 259.5,124C 262.436,124.893 264.936,126.726 267,129.5C 271.864,134.742 276.364,140.242 280.5,146C 279.224,148.281 277.557,150.281 275.5,152C 241.364,180.97 207.697,210.47 174.5,240.5C 209.79,271.285 244.956,302.285 280,333.5C 280.667,334.5 280.667,335.5 280,336.5C 273.833,343.333 267.667,350.167 261.5,357C 260.833,357.667 260.167,357.667 259.5,357C 228.333,329.833 197.167,302.667 166,275.5C 165.5,304.165 165.333,332.831 165.5,361.5C 155.167,361.5 144.833,361.5 134.5,361.5C 134.5,280.833 134.5,200.167 134.5,119.5 Z"/></g>
<g><path style="opacity:0.962" fill="#000000" d="M 315.5,224.5 C 325.833,224.5 336.167,224.5 346.5,224.5C 346.5,233.5 346.5,242.5 346.5,251.5C 377.759,241.88 402.093,250.714 419.5,278C 411.027,283.407 402.361,288.573 393.5,293.5C 379.353,275.443 363.853,274.11 347,289.5C 346.5,313.498 346.333,337.498 346.5,361.5C 336.167,361.5 325.833,361.5 315.5,361.5C 315.5,315.833 315.5,270.167 315.5,224.5 Z"/></g>
</svg>
