<?xml version="1.0" encoding="UTF-8"?>
<!DOCTYPE svg PUBLIC "-//W3C//DTD SVG 1.1//EN" "http://www.w3.org/Graphics/SVG/1.1/DTD/svg11.dtd">
<svg xmlns="http://www.w3.org/2000/svg" version="1.1" width="512px" height="512px" style="shape-rendering:geometricPrecision; text-rendering:geometricPrecision; image-rendering:optimizeQuality; fill-rule:evenodd; clip-rule:evenodd" xmlns:xlink="http://www.w3.org/1999/xlink">
<g><path style="opacity:0.974" fill="#333333" d="M 233.5,15.5 C 326.676,10.6799 400.51,45.6799 455,120.5C 500.8,193.045 508.133,269.379 477,349.5C 441.926,426.813 382.76,474.313 299.5,492C 208.454,505.657 132.287,478.491 71,410.5C 18.3115,343.73 2.97817,269.063 25,186.5C 51.5,105.333 105.333,51.5 186.5,25C 202.057,20.5889 217.723,17.4223 233.5,15.5 Z"/></g>
<g><path style="opacity:1" fill="#fdfcfb" d="M 235.5,31.5 C 313.605,27.4875 378.105,54.8208 429,113.5C 482.529,183.532 493.529,259.865 462,342.5C 423.925,424.481 359.759,469.981 269.5,479C 176.69,481.078 106.523,442.578 59,363.5C 22.4982,291.469 22.4982,219.469 59,147.5C 98.6479,79.9088 157.481,41.2422 235.5,31.5 Z"/></g>
<g><path style="opacity:1" fill="#f39a14" d="M 252.5,39.5 C 260.658,38.8229 264.158,42.4895 263,50.5C 260.774,54.8608 257.274,56.3608 252.5,55C 248.139,52.7742 246.639,49.2742 248,44.5C 249.025,42.313 250.525,40.6464 252.5,39.5 Z"/></g>
<g><path style="opacity:1" fill="#f39809" d="M 219.5,42.5 C 229.855,42.0383 232.855,46.5383 228.5,56C 218.821,59.9826 214.654,56.816 216,46.5C 216.69,44.6498 217.856,43.3164 219.5,42.5 Z"/></g>
<g><path style="opacity:1" fill="#f3980a" d="M 284.5,42.5 C 291.067,41.0971 294.733,43.5971 295.5,50C 294.994,57.0528 291.328,59.3862 284.5,57C 280.788,54.487 279.622,50.987 281,46.5C 281.69,44.6498 282.856,43.3164 284.5,42.5 Z"/></g>
<g><path style="opacity:1" fill="#f39912" d="M 188.5,49.5 C 195.503,49.3389 199.003,52.6723 199,59.5C 196.983,64.9242 193.15,66.7575 187.5,65C 182.034,59.434 182.368,54.2673 188.5,49.5 Z"/></g>
<g><path style="opacity:1" fill="#f39912" d="M 317.5,49.5 C 325.642,49.4807 328.808,53.4807 327,61.5C 321.514,67.0804 316.514,66.747 312,60.5C 311.176,55.4818 313.009,51.8152 317.5,49.5 Z"/></g>
<g><path style="opacity:1" fill="#f39a16" d="M 157.5,62.5 C 166.863,61.6082 170.363,65.6082 168,74.5C 162.837,80.0623 158.171,79.729 154,73.5C 152.663,68.9159 153.829,65.2493 157.5,62.5 Z"/></g>
<g><path style="opacity:1" fill="#f39913" d="M 346.5,62.5 C 355.33,61.1621 358.83,64.8288 357,73.5C 352.829,79.729 348.163,80.0623 343,74.5C 341.593,69.556 342.759,65.556 346.5,62.5 Z"/></g>
<g><path style="opacity:1" fill="#f39601" d="M 238.5,63.5 C 302.11,60.0799 355.61,81.4132 399,127.5C 449.353,188.95 460.353,256.95 432,331.5C 407.027,386.074 365.86,422.241 308.5,440C 231.959,458.995 166.459,440.161 112,383.5C 62.369,322.774 51.0357,255.441 78,181.5C 109.878,112.792 163.378,73.459 238.5,63.5 Z"/></g>
<g><path style="opacity:1" fill="#f39a13" d="M 129.5,79.5 C 139.059,78.546 142.559,82.546 140,91.5C 134.837,97.0623 130.171,96.729 126,90.5C 124.662,85.9597 125.829,82.293 129.5,79.5 Z"/></g>
<g><path style="opacity:1" fill="#f39a14" d="M 374.5,79.5 C 382.656,78.8211 386.156,82.4878 385,90.5C 379.67,97.3107 374.67,96.9773 370,89.5C 369.077,85.0165 370.577,81.6832 374.5,79.5 Z"/></g>
<g><path style="opacity:1" fill="#f39912" d="M 105.5,100.5 C 113.164,99.6662 116.664,103 116,110.5C 114.089,115.418 110.589,117.251 105.5,116C 101.139,113.774 99.6392,110.274 101,105.5C 102.025,103.313 103.525,101.646 105.5,100.5 Z"/></g>
<g><path style="opacity:1" fill="#f39a13" d="M 399.5,100.5 C 407.658,99.8229 411.158,103.49 410,111.5C 405.049,118.154 400.049,118.154 395,111.5C 393.776,106.626 395.276,102.959 399.5,100.5 Z"/></g>
<g><path style="opacity:1" fill="#f39a13" d="M 83.5,125.5 C 93.0593,124.546 96.5593,128.546 94,137.5C 88.8374,143.062 84.1708,142.729 80,136.5C 78.6624,131.96 79.8291,128.293 83.5,125.5 Z"/></g>
<g><path style="opacity:1" fill="#f39a14" d="M 420.5,125.5 C 428.656,124.821 432.156,128.488 431,136.5C 425.67,143.311 420.67,142.977 416,135.5C 415.077,131.017 416.577,127.683 420.5,125.5 Z"/></g>
<g><path style="opacity:1" fill="#f39912" d="M 66.5,153.5 C 74.6647,152.175 78.498,155.509 78,163.5C 75.5647,168.224 71.7314,169.724 66.5,168C 62.7885,165.487 61.6218,161.987 63,157.5C 63.6897,155.65 64.8564,154.316 66.5,153.5 Z"/></g>
<g><path style="opacity:1" fill="#f49a17" d="M 437.5,153.5 C 446.33,152.162 449.83,155.829 448,164.5C 442.584,171.402 437.584,171.069 433,163.5C 432.077,159.017 433.577,155.683 437.5,153.5 Z"/></g>
<g><path style="opacity:1" fill="#fffefc" d="M 348.5,175.5 C 353.28,174.641 356.78,176.308 359,180.5C 359.5,186.825 359.666,193.158 359.5,199.5C 368.173,199.334 376.84,199.5 385.5,200C 393.393,204.91 393.393,209.91 385.5,215C 376.84,215.5 368.173,215.666 359.5,215.5C 359.5,226.167 359.5,236.833 359.5,247.5C 378.264,249.764 388.93,260.264 391.5,279C 389.379,298.288 378.712,309.121 359.5,311.5C 359.884,318.589 359.384,325.589 358,332.5C 353.667,336.5 349.333,336.5 345,332.5C 343.616,325.589 343.116,318.589 343.5,311.5C 334.494,311.666 325.494,311.5 316.5,311C 311.465,307.987 310.298,303.82 313,298.5C 313.903,297.299 315.069,296.465 316.5,296C 325.494,295.5 334.494,295.334 343.5,295.5C 343.5,284.833 343.5,274.167 343.5,263.5C 324.305,261.138 313.638,250.304 311.5,231C 312.729,216.549 320.062,206.549 333.5,201C 336.793,200.174 340.126,199.674 343.5,199.5C 343.334,193.158 343.5,186.825 344,180.5C 345.025,178.313 346.525,176.646 348.5,175.5 Z"/></g>
<g><path style="opacity:1" fill="#f39912" d="M 54.5,183.5 C 62.6559,182.821 66.1559,186.488 65,194.5C 59.5844,201.402 54.5844,201.069 50,193.5C 49.0769,189.017 50.5769,185.683 54.5,183.5 Z"/></g>
<g><path style="opacity:1" fill="#f39912" d="M 449.5,183.5 C 459.059,182.546 462.559,186.546 460,195.5C 454.837,201.062 450.171,200.729 446,194.5C 444.662,189.96 445.829,186.293 449.5,183.5 Z"/></g>
<g><path style="opacity:1" fill="#fffefd" d="M 124.5,199.5 C 138.837,199.333 153.171,199.5 167.5,200C 189.146,204.31 199.646,217.477 199,239.5C 198.408,243.276 197.408,246.943 196,250.5C 192.714,256.277 188.881,261.61 184.5,266.5C 189.055,277.944 193.888,289.277 199,300.5C 200.459,306.926 197.959,310.592 191.5,311.5C 188.889,311.444 186.722,310.444 185,308.5C 179.931,296.459 174.764,284.459 169.5,272.5C 158.186,271.501 146.853,271.168 135.5,271.5C 135.667,282.838 135.5,294.172 135,305.5C 129.91,313.393 124.91,313.393 120,305.5C 119.333,271.833 119.333,238.167 120,204.5C 121.025,202.313 122.525,200.646 124.5,199.5 Z"/></g>
<g><path style="opacity:1" fill="#fffefd" d="M 220.5,199.5 C 231.172,199.333 241.839,199.5 252.5,200C 281.982,206.101 296.316,224.268 295.5,254.5C 297.544,279.258 287.544,297.091 265.5,308C 256.234,310.919 246.734,312.086 237,311.5C 231.5,311.333 226,311.167 220.5,311C 219.069,310.535 217.903,309.701 217,308.5C 215.354,273.894 215.02,239.227 216,204.5C 217.025,202.313 218.525,200.646 220.5,199.5 Z"/></g>
<g><path style="opacity:1" fill="#f39809" d="M 46.5,215.5 C 57.3135,214.812 60.3135,219.312 55.5,229C 45.9607,232.66 41.794,229.493 43,219.5C 43.6897,217.65 44.8564,216.316 46.5,215.5 Z"/></g>
<g><path style="opacity:1" fill="#f39603" d="M 135.5,215.5 C 147.576,215.062 159.576,215.562 171.5,217C 183.045,223.635 186.212,233.135 181,245.5C 178.778,249.388 175.612,252.221 171.5,254C 159.576,255.438 147.576,255.938 135.5,255.5C 135.5,242.167 135.5,228.833 135.5,215.5 Z"/></g>
<g><path style="opacity:1" fill="#f39602" d="M 231.5,215.5 C 239.174,215.334 246.841,215.5 254.5,216C 273.04,222.559 281.374,235.725 279.5,255.5C 281.374,275.275 273.04,288.441 254.5,295C 246.841,295.5 239.174,295.666 231.5,295.5C 231.5,268.833 231.5,242.167 231.5,215.5 Z"/></g>
<g><path style="opacity:1" fill="#f3980b" d="M 456.5,215.5 C 467.528,214.401 470.861,218.901 466.5,229C 456.32,232.66 452.154,229.16 454,218.5C 455.045,217.627 455.878,216.627 456.5,215.5 Z"/></g>
<g><path style="opacity:1" fill="#f3980b" d="M 338.5,215.5 C 340.167,215.5 341.833,215.5 343.5,215.5C 343.5,226.167 343.5,236.833 343.5,247.5C 335.184,247.023 330.017,242.69 328,234.5C 327.32,225.86 330.82,219.527 338.5,215.5 Z"/></g>
<g><path style="opacity:1" fill="#f39a14" d="M 44.5,247.5 C 52.6577,246.823 56.1577,250.49 55,258.5C 52.7742,262.861 49.2742,264.361 44.5,263C 40.1392,260.774 38.6392,257.274 40,252.5C 41.025,250.313 42.525,248.646 44.5,247.5 Z"/></g>
<g><path style="opacity:1" fill="#f39a14" d="M 460.5,247.5 C 468.658,246.823 472.158,250.49 471,258.5C 468.774,262.861 465.274,264.361 460.5,263C 456.139,260.774 454.639,257.274 456,252.5C 457.025,250.313 458.525,248.646 460.5,247.5 Z"/></g>
<g><path style="opacity:1" fill="#f39708" d="M 359.5,263.5 C 373.942,266.38 378.442,274.714 373,288.5C 369.666,293.084 365.166,295.417 359.5,295.5C 359.5,284.833 359.5,274.167 359.5,263.5 Z"/></g>
<g><path style="opacity:1" fill="#f39708" d="M 46.5,280.5 C 56.8554,280.038 59.8554,284.538 55.5,294C 45.9607,297.66 41.794,294.493 43,284.5C 43.6897,282.65 44.8564,281.316 46.5,280.5 Z"/></g>
<g><path style="opacity:1" fill="#f3980b" d="M 457.5,280.5 C 467.855,280.038 470.855,284.538 466.5,294C 456.766,297.922 452.6,294.756 454,284.5C 454.69,282.65 455.856,281.316 457.5,280.5 Z"/></g>
<g><path style="opacity:1" fill="#f39911" d="M 55.5,311.5 C 63.2007,311.362 66.3673,315.029 65,322.5C 62.9276,327.143 59.4276,328.643 54.5,327C 47.7544,321.512 48.0878,316.346 55.5,311.5 Z"/></g>
<g><path style="opacity:1" fill="#f39912" d="M 450.5,311.5 C 457.985,311.483 461.485,315.15 461,322.5C 458.459,327.069 454.625,328.569 449.5,327C 443.974,321.357 444.308,316.19 450.5,311.5 Z"/></g>
<g><path style="opacity:1" fill="#f39913" d="M 66.5,342.5 C 73.253,340.772 77.253,343.272 78.5,350C 77.8621,354.97 75.0288,357.47 70,357.5C 63.4353,356.729 61.102,353.062 63,346.5C 63.6897,344.65 64.8564,343.316 66.5,342.5 Z"/></g>
<g><path style="opacity:1" fill="#f39a16" d="M 438.5,341.5 C 446.684,341.537 449.851,345.537 448,353.5C 445.442,357.212 441.942,358.378 437.5,357C 430.754,351.512 431.088,346.346 438.5,341.5 Z"/></g>
<g><path style="opacity:1" fill="#f39a14" d="M 84.5,369.5 C 91.9852,369.483 95.4852,373.15 95,380.5C 92.4586,385.069 88.6253,386.569 83.5,385C 78.0344,379.434 78.3678,374.267 84.5,369.5 Z"/></g>
<g><path style="opacity:1" fill="#f39a15" d="M 421.5,369.5 C 429.642,369.481 432.808,373.481 431,381.5C 428.398,385.212 424.898,386.378 420.5,385C 413.754,379.512 414.088,374.346 421.5,369.5 Z"/></g>
<g><path style="opacity:1" fill="#f39a13" d="M 105.5,394.5 C 113.32,394.152 116.82,397.819 116,405.5C 113.774,409.861 110.274,411.361 105.5,410C 101.139,407.774 99.6392,404.274 101,399.5C 102.025,397.313 103.525,395.646 105.5,394.5 Z"/></g>
<g><path style="opacity:1" fill="#f39a14" d="M 399.5,394.5 C 407.658,393.823 411.158,397.49 410,405.5C 407.774,409.861 404.274,411.361 399.5,410C 395.139,407.774 393.639,404.274 395,399.5C 396.025,397.313 397.525,395.646 399.5,394.5 Z"/></g>
<g><path style="opacity:1" fill="#f39a14" d="M 130.5,415.5 C 137.985,415.483 141.485,419.15 141,426.5C 138.459,431.069 134.625,432.569 129.5,431C 124.034,425.434 124.368,420.267 130.5,415.5 Z"/></g>
<g><path style="opacity:1" fill="#f39a15" d="M 375.5,415.5 C 383.642,415.481 386.808,419.481 385,427.5C 382.398,431.212 378.898,432.378 374.5,431C 367.754,425.512 368.088,420.346 375.5,415.5 Z"/></g>
<g><path style="opacity:1" fill="#f49a16" d="M 158.5,432.5 C 165.503,432.339 169.003,435.672 169,442.5C 166.983,447.924 163.15,449.758 157.5,448C 153.788,445.487 152.622,441.987 154,437.5C 155.025,435.313 156.525,433.646 158.5,432.5 Z"/></g>
<g><path style="opacity:1" fill="#f39a16" d="M 347.5,432.5 C 355.642,432.481 358.808,436.481 357,444.5C 354.442,448.212 350.942,449.378 346.5,448C 339.678,442.43 340.012,437.264 347.5,432.5 Z"/></g>
<g><path style="opacity:1" fill="#f39912" d="M 187.5,445.5 C 196.888,444.675 200.388,448.675 198,457.5C 192.837,463.062 188.171,462.729 184,456.5C 182.662,451.96 183.829,448.293 187.5,445.5 Z"/></g>
<g><path style="opacity:1" fill="#f39912" d="M 316.5,445.5 C 324.709,444.872 328.209,448.539 327,456.5C 321.67,463.311 316.67,462.977 312,455.5C 311.438,451.232 312.938,447.898 316.5,445.5 Z"/></g>
<g><path style="opacity:1" fill="#f3980b" d="M 218.5,453.5 C 229.528,452.401 232.861,456.901 228.5,467C 218.32,470.66 214.154,467.16 216,456.5C 217.045,455.627 217.878,454.627 218.5,453.5 Z"/></g>
<g><path style="opacity:1" fill="#f3980a" d="M 284.5,453.5 C 295.314,452.812 298.314,457.312 293.5,467C 283.961,470.66 279.794,467.493 281,457.5C 281.69,455.65 282.856,454.316 284.5,453.5 Z"/></g>
<g><path style="opacity:1" fill="#f39a14" d="M 252.5,455.5 C 260.658,454.823 264.158,458.49 263,466.5C 260.774,470.861 257.274,472.361 252.5,471C 248.139,468.774 246.639,465.274 248,460.5C 249.025,458.313 250.525,456.646 252.5,455.5 Z"/></g>
</svg>
