<?xml version="1.0" encoding="UTF-8"?>
<!DOCTYPE svg PUBLIC "-//W3C//DTD SVG 1.1//EN" "http://www.w3.org/Graphics/SVG/1.1/DTD/svg11.dtd">
<svg xmlns="http://www.w3.org/2000/svg" version="1.1" width="512px" height="512px" style="shape-rendering:geometricPrecision; text-rendering:geometricPrecision; image-rendering:optimizeQuality; fill-rule:evenodd; clip-rule:evenodd" xmlns:xlink="http://www.w3.org/1999/xlink">
<g><path style="opacity:0.993" fill="#262964" d="M 234.5,16.5 C 326.126,11.8348 398.959,46.1681 453,119.5C 499.598,192.144 507.264,268.811 476,349.5C 441.977,424.517 384.811,471.351 304.5,490C 210.729,505.97 132.562,478.47 70,407.5C 18.8344,341.338 4.16776,267.672 26,186.5C 48.6327,115.866 93.7994,65.3662 161.5,35C 185.047,25.1973 209.38,19.0307 234.5,16.5 Z"/></g>
<g><path style="opacity:1" fill="#555abd" d="M 239.5,50.5 C 333.276,48.6116 401.11,89.2783 443,172.5C 474.391,252.297 463.058,325.297 409,391.5C 358.277,445.189 296.11,467.356 222.5,458C 151.753,444.231 100.586,405.064 69,340.5C 36.1956,260.124 47.1956,186.457 102,119.5C 139.205,79.3143 185.038,56.3143 239.5,50.5 Z"/></g>
<g><path style="opacity:1" fill="#fcfcfe" d="M 334.5,127.5 C 359.922,141.417 380.422,160.75 396,185.5C 406.923,207.235 407.257,229.235 397,251.5C 379.918,263.028 361.085,269.694 340.5,271.5C 317.688,270.856 304.854,259.189 302,236.5C 301.269,228.798 301.436,221.131 302.5,213.5C 305.167,213.5 307.833,213.5 310.5,213.5C 309.974,227.53 315.974,237.364 328.5,243C 351.478,247.213 372.312,242.38 391,228.5C 391.629,223.672 390.962,219.005 389,214.5C 381.725,198.794 371.225,185.627 357.5,175C 347.426,167.544 336.926,160.711 326,154.5C 324.699,152.635 324.365,150.635 325,148.5C 327.647,141.21 330.814,134.21 334.5,127.5 Z"/></g>
<g><path style="opacity:1" fill="#fcfcfe" d="M 243.5,190.5 C 251.5,191.167 259.5,191.833 267.5,192.5C 264.222,198.887 260.556,205.053 256.5,211C 229.475,215.736 203.475,223.736 178.5,235C 163.042,242.637 149.542,252.804 138,265.5C 127.618,279.974 125.618,295.64 132,312.5C 137.336,324.835 145.836,334.335 157.5,341C 172.411,349.526 188.411,354.859 205.5,357C 230.643,358.386 255.643,357.22 280.5,353.5C 280.703,355.39 280.037,356.89 278.5,358C 269.364,365.734 259.697,372.734 249.5,379C 218.915,386.458 188.915,384.791 159.5,374C 125.226,357.304 109.726,329.804 113,291.5C 117.124,267.081 128.624,246.914 147.5,231C 163.945,217.444 182.612,208.111 203.5,203C 189.864,197.898 175.864,194.232 161.5,192C 151.689,190.927 142.022,191.594 132.5,194C 129.059,195.776 125.892,197.943 123,200.5C 123.015,206.243 123.848,211.909 125.5,217.5C 123.63,223.109 121.964,228.776 120.5,234.5C 118.876,234.64 117.71,233.973 117,232.5C 113.863,223.423 110.53,214.423 107,205.5C 106.881,189.591 114.048,178.091 128.5,171C 141.278,167.067 154.278,166.401 167.5,169C 187.298,173.933 206.631,180.266 225.5,188C 231.369,189.807 237.369,190.641 243.5,190.5 Z"/></g>
<g><path style="opacity:1" fill="#b9bbe4" d="M 243.5,190.5 C 251.86,190.169 260.193,190.502 268.5,191.5C 268.376,192.107 268.043,192.44 267.5,192.5C 259.5,191.833 251.5,191.167 243.5,190.5 Z"/></g>
<g><path style="opacity:1" fill="#fcfcfd" d="M 199.5,269.5 C 209.251,274.566 217.585,281.566 224.5,290.5C 221.822,295.188 218.656,299.521 215,303.5C 212.933,306.07 210.433,308.07 207.5,309.5C 199.685,302.852 192.018,296.019 184.5,289C 189.146,282.199 194.146,275.699 199.5,269.5 Z"/></g>
</svg>
