<?xml version="1.0" encoding="UTF-8"?>
<!DOCTYPE svg PUBLIC "-//W3C//DTD SVG 1.1//EN" "http://www.w3.org/Graphics/SVG/1.1/DTD/svg11.dtd">
<svg xmlns="http://www.w3.org/2000/svg" version="1.1" width="512px" height="512px" style="shape-rendering:geometricPrecision; text-rendering:geometricPrecision; image-rendering:optimizeQuality; fill-rule:evenodd; clip-rule:evenodd" xmlns:xlink="http://www.w3.org/1999/xlink">
<g><path style="opacity:0.993" fill="#262964" d="M 234.5,16.5 C 326.126,11.8348 398.959,46.1681 453,119.5C 499.598,192.144 507.264,268.811 476,349.5C 441.977,424.517 384.811,471.351 304.5,490C 210.729,505.97 132.562,478.47 70,407.5C 18.8344,341.338 4.16776,267.672 26,186.5C 48.6327,115.866 93.7994,65.3662 161.5,35C 185.047,25.1973 209.38,19.0307 234.5,16.5 Z"/></g>
<g><path style="opacity:1" fill="#555abd" d="M 239.5,50.5 C 333.276,48.6116 401.11,89.2783 443,172.5C 474.391,252.297 463.058,325.297 409,391.5C 358.277,445.189 296.11,467.356 222.5,458C 151.753,444.231 100.586,405.064 69,340.5C 36.1956,260.124 47.1956,186.457 102,119.5C 139.205,79.3143 185.038,56.3143 239.5,50.5 Z"/></g>
<g><path style="opacity:1" fill="#fdfdfe" d="M 245.5,138.5 C 274.266,137.099 299.933,145.099 322.5,162.5C 314.167,171.5 305.5,180.167 296.5,188.5C 269.13,172.578 241.797,172.578 214.5,188.5C 205.5,180.167 196.833,171.5 188.5,162.5C 205.343,149.242 224.343,141.242 245.5,138.5 Z"/></g>
<g><path style="opacity:1" fill="#fbfbfd" d="M 157.5,142.5 C 173.206,142.369 180.373,150.035 179,165.5C 175.295,176.188 167.795,180.688 156.5,179C 143.299,173.012 139.799,163.512 146,150.5C 149.15,146.689 152.983,144.023 157.5,142.5 Z"/></g>
<g><path style="opacity:1" fill="#fbfbfd" d="M 346.5,142.5 C 364.661,143.841 371.161,153.174 366,170.5C 359.32,179.613 350.82,181.779 340.5,177C 328.96,167.108 328.627,156.775 339.5,146C 341.925,144.787 344.259,143.621 346.5,142.5 Z"/></g>
<g><path style="opacity:1" fill="#f1f1f9" d="M 180.5,177.5 C 186.661,177.943 187.995,180.777 184.5,186C 179.545,187.376 177.379,185.542 178,180.5C 179.045,179.627 179.878,178.627 180.5,177.5 Z"/></g>
<g><path style="opacity:1" fill="#f5f5fb" d="M 326.5,177.5 C 332.545,177.029 334.545,179.529 332.5,185C 324.839,187.168 322.839,184.668 326.5,177.5 Z"/></g>
<g><path style="opacity:1" fill="#fdfdfe" d="M 161.5,188.5 C 170.674,196.841 179.341,205.674 187.5,215C 171.689,241.938 171.689,268.938 187.5,296C 179.377,305.125 170.877,313.958 162,322.5C 138.755,290.8 133.089,256.133 145,218.5C 149.229,207.702 154.729,197.702 161.5,188.5 Z"/></g>
<g><path style="opacity:1" fill="#fdfdfe" d="M 347.5,188.5 C 349.017,188.511 350.184,189.177 351,190.5C 376.46,227.562 379.127,266.228 359,306.5C 355.98,311.887 352.48,316.887 348.5,321.5C 339.5,313.167 330.833,304.5 322.5,295.5C 338.378,268.443 338.378,241.443 322.5,214.5C 330.855,205.813 339.188,197.146 347.5,188.5 Z"/></g>
<g><path style="opacity:1" fill="#fafafd" d="M 191.5,190.5 C 197.487,189.977 199.487,192.477 197.5,198C 190.254,199.274 188.254,196.774 191.5,190.5 Z"/></g>
<g><path style="opacity:1" fill="#f5f5fb" d="M 314.5,190.5 C 321.004,190.138 322.671,192.638 319.5,198C 312.745,198.756 311.078,196.256 314.5,190.5 Z"/></g>
<g><path style="opacity:1" fill="#f5f5fb" d="M 204.5,202.5 C 208.459,201.578 210.792,203.078 211.5,207C 209.78,210.465 207.113,211.298 203.5,209.5C 202.073,206.884 202.406,204.551 204.5,202.5 Z"/></g>
<g><path style="opacity:1" fill="#f1f1fa" d="M 301.5,202.5 C 308.225,202.204 309.891,204.871 306.5,210.5C 300.038,211.02 298.372,208.353 301.5,202.5 Z"/></g>
<g><path style="opacity:1" fill="#f0f0f9" d="M 216.5,214.5 C 223.289,214.258 224.955,216.925 221.5,222.5C 217.608,224.051 215.274,222.718 214.5,218.5C 214.752,216.927 215.418,215.594 216.5,214.5 Z"/></g>
<g><path style="opacity:1" fill="#f2f2fa" d="M 289.5,214.5 C 294.351,213.868 296.851,215.868 297,220.5C 292.767,224.816 289.6,224.15 287.5,218.5C 287.752,216.927 288.418,215.594 289.5,214.5 Z"/></g>
<g><path style="opacity:1" fill="#f2f2fa" d="M 228.5,226.5 C 235.494,226.415 237.161,229.248 233.5,235C 226.416,235.475 224.749,232.642 228.5,226.5 Z"/></g>
<g><path style="opacity:1" fill="#f1f1fa" d="M 278.5,226.5 C 284.643,227.026 285.976,229.86 282.5,235C 275.447,234.79 274.114,231.957 278.5,226.5 Z"/></g>
<g><path style="opacity:1" fill="#fafafd" d="M 240.5,239.5 C 247.536,238.603 249.203,241.103 245.5,247C 239.785,247.401 238.119,244.901 240.5,239.5 Z"/></g>
<g><path style="opacity:1" fill="#fafafd" d="M 264.5,239.5 C 271.536,238.603 273.203,241.103 269.5,247C 263.785,247.401 262.119,244.901 264.5,239.5 Z"/></g>
<g><path style="opacity:1" fill="#f1f1f9" d="M 253.5,251.5 C 258.459,250.628 260.625,252.628 260,257.5C 257.284,261.476 254.617,261.476 252,257.5C 251.252,255.16 251.752,253.16 253.5,251.5 Z"/></g>
<g><path style="opacity:1" fill="#f6f6fb" d="M 241.5,262.5 C 247.643,263.026 248.976,265.86 245.5,271C 240.504,271.664 238.67,269.498 240,264.5C 240.717,263.956 241.217,263.289 241.5,262.5 Z"/></g>
<g><path style="opacity:1" fill="#f3f3fa" d="M 265.5,262.5 C 271.803,262.924 273.469,265.757 270.5,271C 263.416,271.475 261.749,268.642 265.5,262.5 Z"/></g>
<g><path style="opacity:1" fill="#fbfbfd" d="M 228.5,275.5 C 235.536,274.603 237.203,277.103 233.5,283C 226.745,283.756 225.078,281.256 228.5,275.5 Z"/></g>
<g><path style="opacity:1" fill="#f4f4fb" d="M 277.5,275.5 C 284.145,274.977 285.811,277.477 282.5,283C 278.558,284.418 276.225,283.084 275.5,279C 275.978,277.697 276.645,276.531 277.5,275.5 Z"/></g>
<g><path style="opacity:1" fill="#f2f2fa" d="M 216.5,287.5 C 223.896,287.615 225.23,290.448 220.5,296C 214.481,295.445 213.147,292.612 216.5,287.5 Z"/></g>
<g><path style="opacity:1" fill="#f5f5fb" d="M 290.5,287.5 C 296.643,288.026 297.976,290.86 294.5,296C 289.504,296.664 287.67,294.498 289,289.5C 289.717,288.956 290.217,288.289 290.5,287.5 Z"/></g>
<g><path style="opacity:1" fill="#f2f2fa" d="M 204.5,299.5 C 211.358,300.127 212.691,302.96 208.5,308C 203.504,308.664 201.67,306.498 203,301.5C 203.717,300.956 204.217,300.289 204.5,299.5 Z"/></g>
<g><path style="opacity:1" fill="#eeeff8" d="M 301.5,299.5 C 305.789,298.483 308.122,300.15 308.5,304.5C 307.233,308.395 304.733,309.395 301,307.5C 299.089,304.722 299.255,302.056 301.5,299.5 Z"/></g>
<g><path style="opacity:1" fill="#f2f2fa" d="M 192.5,311.5 C 198.643,312.026 199.976,314.86 196.5,320C 189,320.196 187.667,317.363 192.5,311.5 Z"/></g>
<g><path style="opacity:1" fill="#f1f1f9" d="M 315.5,311.5 C 321.293,312.421 322.626,315.255 319.5,320C 314.502,321.33 312.336,319.496 313,314.5C 313.698,313.309 314.531,312.309 315.5,311.5 Z"/></g>
<g><path style="opacity:1" fill="#fcfcfe" d="M 213.5,322.5 C 241.063,339.72 268.73,339.72 296.5,322.5C 305.5,330.833 314.167,339.5 322.5,348.5C 281.942,377.979 239.942,380.146 196.5,355C 193.664,352.993 190.997,350.826 188.5,348.5C 196.855,339.813 205.188,331.146 213.5,322.5 Z"/></g>
<g><path style="opacity:1" fill="#f5f6fb" d="M 179.5,324.5 C 186.004,324.138 187.671,326.638 184.5,332C 177.745,332.756 176.078,330.256 179.5,324.5 Z"/></g>
<g><path style="opacity:1" fill="#fafafd" d="M 326.5,324.5 C 333.004,324.138 334.671,326.638 331.5,332C 324.745,332.756 323.078,330.256 326.5,324.5 Z"/></g>
<g><path style="opacity:1" fill="#fcfcfd" d="M 156.5,330.5 C 175.033,330.527 182.199,339.527 178,357.5C 170.269,368.523 160.769,370.356 149.5,363C 139.649,349.434 141.982,338.601 156.5,330.5 Z"/></g>
<g><path style="opacity:1" fill="#fcfcfd" d="M 344.5,330.5 C 359.509,329.682 367.342,336.682 368,351.5C 363.443,365.529 354.276,370.029 340.5,365C 331.983,358.777 329.483,350.611 333,340.5C 335.794,335.866 339.627,332.533 344.5,330.5 Z"/></g>
</svg>
