<?xml version="1.0" encoding="UTF-8"?>
<!DOCTYPE svg PUBLIC "-//W3C//DTD SVG 1.1//EN" "http://www.w3.org/Graphics/SVG/1.1/DTD/svg11.dtd">
<svg xmlns="http://www.w3.org/2000/svg" version="1.1" width="64px" height="64px" style="shape-rendering:geometricPrecision; text-rendering:geometricPrecision; image-rendering:optimizeQuality; fill-rule:evenodd; clip-rule:evenodd" xmlns:xlink="http://www.w3.org/1999/xlink">
<g><path style="opacity:0.669" fill="#000000" d="M 23.5,2.5 C 41.3623,-0.158261 53.529,6.84174 60,23.5C 63.1496,41.3747 56.3163,53.5413 39.5,60C 21.6253,63.1496 9.45866,56.3163 3,39.5C -0.0230431,21.535 6.81029,9.20168 23.5,2.5 Z M 26.5,5.5 C 31.5388,5.45107 31.7055,6.11774 27,7.5C 26.5357,6.90558 26.369,6.23891 26.5,5.5 Z M 32.5,6.5 C 33.7082,5.21798 35.0416,5.21798 36.5,6.5C 35.4425,6.90591 34.1092,6.90591 32.5,6.5 Z M 21.5,6.5 C 22.3764,6.36912 23.0431,6.70245 23.5,7.5C 22.277,8.61385 20.9437,8.78052 19.5,8C 20.4158,7.72158 21.0825,7.22158 21.5,6.5 Z M 39.5,6.5 C 40.9217,6.70858 42.255,7.20858 43.5,8C 41.5372,8.84421 40.2039,8.34421 39.5,6.5 Z M 16.5,9.5 C 17.6878,11.4959 17.0211,12.3293 14.5,12C 15.3805,11.2917 16.0472,10.4584 16.5,9.5 Z M 45.5,9.5 C 46.6266,10.1217 47.6266,10.955 48.5,12C 46.5106,12.5192 45.5106,11.6859 45.5,9.5 Z M 47.5,39.5 C 44.6136,45.4332 39.9469,48.5999 33.5,49C 35.3333,44.1667 33.8333,42.6667 29,44.5C 28.2797,46.1124 28.4464,47.6124 29.5,49C 19.5575,47.5518 14.2241,41.7184 13.5,31.5C 14.2241,21.2816 19.5575,15.4482 29.5,14C 27.6667,18.8333 29.1667,20.3333 34,18.5C 34.7203,16.8876 34.5536,15.3876 33.5,14C 41.26,14.7434 46.4267,18.91 49,26.5C 49.9387,31.1355 49.4387,35.4689 47.5,39.5 Z M 11.5,14.5 C 12.6878,16.4959 12.0211,17.3293 9.5,17C 10.3805,16.2917 11.0472,15.4584 11.5,14.5 Z M 50.5,14.5 C 51.6266,15.1217 52.6266,15.955 53.5,17C 51.5106,17.5192 50.5106,16.6859 50.5,14.5 Z M 7.5,19.5 C 8.78202,20.7082 8.78202,22.0416 7.5,23.5C 6.7084,22.3002 6.7084,20.9669 7.5,19.5 Z M 54.5,19.5 C 56.0878,20.6353 56.4212,21.9686 55.5,23.5C 54.5713,22.3112 54.238,20.9778 54.5,19.5 Z M 5.5,26.5 C 6.23891,26.369 6.90558,26.5357 7.5,27C 6.11774,31.7055 5.45107,31.5388 5.5,26.5 Z M 55.5,27.5 C 55.56,26.9569 55.8933,26.6236 56.5,26.5C 57.6139,27.723 57.7805,29.0563 57,30.5C 56.7679,29.2625 56.2679,28.2625 55.5,27.5 Z M 18.5,28.5 C 19.2891,28.7828 19.9558,29.2828 20.5,30C 19.184,30.5281 18.5173,30.0281 18.5,28.5 Z M 40.5,31.5 C 42.337,31.6395 42.6704,32.3061 41.5,33.5C 40.7025,33.0431 40.3691,32.3764 40.5,31.5 Z M 5.5,32.5 C 6.24853,33.531 6.9152,34.6976 7.5,36C 7.16667,36.1667 6.83333,36.3333 6.5,36.5C 5.57131,35.3112 5.23798,33.9778 5.5,32.5 Z M 56.5,32.5 C 57.782,33.7082 57.782,35.0416 56.5,36.5C 56.0941,35.4425 56.0941,34.1092 56.5,32.5 Z M 6.5,39.5 C 8.34421,40.2039 8.84421,41.5372 8,43.5C 7.20858,42.255 6.70858,40.9217 6.5,39.5 Z M 54.5,39.5 C 55.3764,39.3691 56.0431,39.7025 56.5,40.5C 54.9929,44.3548 54.3262,44.0214 54.5,39.5 Z M 9.5,46.5 C 11.4959,45.3122 12.3293,45.9789 12,48.5C 11.2917,47.6195 10.4584,46.9528 9.5,46.5 Z M 51.5,45.5 C 53.6569,46.0533 53.4903,47.0533 51,48.5C 50.5304,47.4232 50.6971,46.4232 51.5,45.5 Z M 14.5,51.5 C 16.4959,50.3122 17.3293,50.9789 17,53.5C 16.2917,52.6195 15.4584,51.9528 14.5,51.5 Z M 46.5,50.5 C 48.6569,51.0533 48.4903,52.0533 46,53.5C 45.5304,52.4232 45.6971,51.4232 46.5,50.5 Z M 19.5,55.5 C 20.7082,54.218 22.0416,54.218 23.5,55.5C 22.3002,56.2916 20.9669,56.2916 19.5,55.5 Z M 39.5,54.5 C 44.0214,54.3262 44.3548,54.9929 40.5,56.5C 39.7025,56.0431 39.3691,55.3764 39.5,54.5 Z M 26.5,55.5 C 27.766,56.0899 29.0993,56.5899 30.5,57C 28.5372,57.8442 27.2039,57.3442 26.5,55.5 Z M 35.5,55.5 C 36.0431,55.56 36.3764,55.8933 36.5,56.5C 35.277,57.6139 33.9437,57.7805 32.5,57C 33.7375,56.7679 34.7375,56.2679 35.5,55.5 Z"/></g>
<g><path style="opacity:0.663" fill="#000000" d="M 17.5,23.5 C 18.7206,24.0283 19.8873,24.695 21,25.5C 22.7889,23.771 24.9556,23.1043 27.5,23.5C 27.5,28.8333 27.5,34.1667 27.5,39.5C 23.5899,38.5762 19.7565,38.2428 16,38.5C 14.9768,33.2017 15.4768,28.2017 17.5,23.5 Z M 18.5,28.5 C 18.5173,30.0281 19.184,30.5281 20.5,30C 19.9558,29.2828 19.2891,28.7828 18.5,28.5 Z"/></g>
<g><path style="opacity:0.664" fill="#000000" d="M 47.5,39.5 C 44.1667,39.5 40.8333,39.5 37.5,39.5C 38.0937,31.8982 36.7603,31.5649 33.5,38.5C 31.9547,39.4519 30.288,39.7852 28.5,39.5C 28.5,34.1667 28.5,28.8333 28.5,23.5C 32.4883,23.8305 36.3216,23.8305 40,23.5C 42.2436,24.4302 44.4102,25.5968 46.5,27C 46.2224,31.0928 46.5558,35.2594 47.5,39.5 Z M 40.5,31.5 C 40.3691,32.3764 40.7025,33.0431 41.5,33.5C 42.6704,32.3061 42.337,31.6395 40.5,31.5 Z"/></g>
</svg>
