<?xml version="1.0" encoding="UTF-8"?>
<!DOCTYPE svg PUBLIC "-//W3C//DTD SVG 1.1//EN" "http://www.w3.org/Graphics/SVG/1.1/DTD/svg11.dtd">
<svg xmlns="http://www.w3.org/2000/svg" version="1.1" width="512px" height="512px" style="shape-rendering:geometricPrecision; text-rendering:geometricPrecision; image-rendering:optimizeQuality; fill-rule:evenodd; clip-rule:evenodd" xmlns:xlink="http://www.w3.org/1999/xlink">
<g><path style="opacity:0.934" fill="#000000" d="M 233.5,-0.5 C 248.167,-0.5 262.833,-0.5 277.5,-0.5C 367.555,10.0943 435.388,54.4276 481,132.5C 497.855,164.278 508.022,197.945 511.5,233.5C 511.5,248.167 511.5,262.833 511.5,277.5C 500.906,367.555 456.572,435.388 378.5,481C 346.722,497.855 313.055,508.022 277.5,511.5C 262.833,511.5 248.167,511.5 233.5,511.5C 143.445,500.906 75.612,456.572 30,378.5C 13.1449,346.722 2.97822,313.055 -0.5,277.5C -0.5,262.833 -0.5,248.167 -0.5,233.5C 10.0943,143.445 54.4276,75.612 132.5,30C 164.278,13.1449 197.945,2.97822 233.5,-0.5 Z M 238.5,16.5 C 333.927,14.1239 407.76,52.4573 460,131.5C 498.372,198.224 504.706,267.891 479,340.5C 447.513,417.32 391.68,466.487 311.5,488C 210.277,507.488 127.443,477.322 63,397.5C 14.2533,327.203 3.91994,251.536 32,170.5C 71.0476,79.2927 139.881,27.9593 238.5,16.5 Z M 252.5,138.5 C 258.02,137.684 261.353,140.017 262.5,145.5C 261.089,150.707 257.755,152.541 252.5,151C 247.361,146.973 247.361,142.807 252.5,138.5 Z M 169.5,219.5 C 170.117,219.611 170.617,219.944 171,220.5C 175.641,235.423 180.474,250.256 185.5,265C 175.483,265.832 165.483,265.666 155.5,264.5C 160.575,249.609 165.242,234.609 169.5,219.5 Z M 340.5,219.5 C 345.665,234.329 350.665,249.329 355.5,264.5C 345.517,265.666 335.517,265.832 325.5,265C 330.603,249.858 335.603,234.692 340.5,219.5 Z"/></g>
<g><path style="opacity:0.933" fill="#000000" d="M 254.5,38.5 C 274.821,38.8997 294.821,41.7331 314.5,47C 320.027,48.9043 322.194,52.7376 321,58.5C 319.416,62.248 316.583,64.248 312.5,64.5C 285.611,56.716 258.277,54.5493 230.5,58C 219.053,59.7577 207.72,61.7577 196.5,64C 189.852,61.5304 188.019,57.0304 191,50.5C 192.579,48.9588 194.413,47.7922 196.5,47C 215.648,41.8613 234.981,39.028 254.5,38.5 Z"/></g>
<g><path style="opacity:0.932" fill="#000000" d="M 254.5,78.5 C 331.836,81.8929 386.669,118.56 419,188.5C 436.882,235.016 436.215,281.349 417,327.5C 414.103,332.155 409.937,333.655 404.5,332C 400.673,328.692 399.506,324.526 401,319.5C 427.773,248.766 413.94,187.266 359.5,135C 309.2,94.9509 253.866,86.2843 193.5,109C 137.298,135.537 105.132,179.704 97,241.5C 94.0483,301.754 116.548,349.921 164.5,386C 210.796,416.453 260.129,422.453 312.5,404C 343.343,391.83 368.343,372.164 387.5,345C 392.249,342.727 396.415,343.561 400,347.5C 401.15,349.754 401.484,352.087 401,354.5C 373.696,394.427 336.196,419.26 288.5,429C 213.644,439.808 153.811,414.975 109,354.5C 68.3333,288.5 68.3333,222.5 109,156.5C 144.655,106.753 193.155,80.7531 254.5,78.5 Z M 252.5,138.5 C 247.361,142.807 247.361,146.973 252.5,151C 257.755,152.541 261.089,150.707 262.5,145.5C 261.353,140.017 258.02,137.684 252.5,138.5 Z M 169.5,219.5 C 165.242,234.609 160.575,249.609 155.5,264.5C 165.483,265.666 175.483,265.832 185.5,265C 180.474,250.256 175.641,235.423 171,220.5C 170.617,219.944 170.117,219.611 169.5,219.5 Z M 340.5,219.5 C 335.603,234.692 330.603,249.858 325.5,265C 335.517,265.832 345.517,265.666 355.5,264.5C 350.665,249.329 345.665,234.329 340.5,219.5 Z"/></g>
<g><path style="opacity:0.925" fill="#000000" d="M 253.5,120.5 C 274.3,122.793 282.467,134.126 278,154.5C 275.698,160.635 271.531,164.969 265.5,167.5C 264.508,171.783 264.174,176.116 264.5,180.5C 291.564,180.026 318.564,180.526 345.5,182C 347.049,183.214 348.215,184.714 349,186.5C 357.066,212.197 365.232,237.864 373.5,263.5C 375.137,265.749 377.304,267.415 380,268.5C 383.381,275.468 381.547,280.301 374.5,283C 350.783,283.959 327.117,283.626 303.5,282C 299.965,279.293 298.798,275.793 300,271.5C 302.142,268.166 304.808,265.499 308,263.5C 314.533,242.069 321.366,220.735 328.5,199.5C 307.177,198.5 285.844,198.167 264.5,198.5C 264.5,221.167 264.5,243.833 264.5,266.5C 266.39,266.297 267.89,266.963 269,268.5C 271.881,272.381 271.881,276.381 269,280.5C 267.915,281.293 266.748,281.96 265.5,282.5C 264.501,295.817 264.167,309.15 264.5,322.5C 275.172,322.333 285.839,322.5 296.5,323C 304.001,326.335 305.335,331.335 300.5,338C 298.913,338.862 297.246,339.529 295.5,340C 268.833,340.667 242.167,340.667 215.5,340C 209.099,338.697 206.599,334.863 208,328.5C 208.785,326.714 209.951,325.214 211.5,324C 223.09,322.564 234.757,322.064 246.5,322.5C 246.833,309.15 246.499,295.817 245.5,282.5C 241.914,280.842 239.914,278.009 239.5,274C 240.329,272.184 241.163,270.351 242,268.5C 243.11,266.963 244.61,266.297 246.5,266.5C 246.5,243.833 246.5,221.167 246.5,198.5C 225.156,198.167 203.823,198.5 182.5,199.5C 189.634,220.735 196.467,242.069 203,263.5C 206.192,265.499 208.858,268.166 211,271.5C 212.202,275.793 211.035,279.293 207.5,282C 183.883,283.626 160.217,283.959 136.5,283C 129.453,280.301 127.619,275.468 131,268.5C 133.172,267.415 135.172,266.081 137,264.5C 145.535,238.562 153.868,212.562 162,186.5C 162.785,184.714 163.951,183.214 165.5,182C 192.436,180.526 219.436,180.026 246.5,180.5C 246.826,176.116 246.492,171.783 245.5,167.5C 231.214,158.797 227.714,146.797 235,131.5C 239.82,125.348 245.987,121.682 253.5,120.5 Z M 252.5,138.5 C 247.361,142.807 247.361,146.973 252.5,151C 257.755,152.541 261.089,150.707 262.5,145.5C 261.353,140.017 258.02,137.684 252.5,138.5 Z M 169.5,219.5 C 165.242,234.609 160.575,249.609 155.5,264.5C 165.483,265.666 175.483,265.832 185.5,265C 180.474,250.256 175.641,235.423 171,220.5C 170.617,219.944 170.117,219.611 169.5,219.5 Z M 340.5,219.5 C 335.603,234.692 330.603,249.858 325.5,265C 335.517,265.832 345.517,265.666 355.5,264.5C 350.665,249.329 345.665,234.329 340.5,219.5 Z"/></g>
<g><path style="opacity:0.953" fill="#000000" d="M 50.5,211.5 C 55.2797,210.641 58.7797,212.308 61,216.5C 61.6667,242.5 61.6667,268.5 61,294.5C 57.9867,299.535 53.8201,300.702 48.5,298C 46.5125,296.681 45.3459,294.848 45,292.5C 44.6667,278.833 44.3333,265.167 44,251.5C 36.4379,255.684 31.6046,253.517 29.5,245C 34.2637,235.308 39.4304,225.808 45,216.5C 46.7297,214.598 48.563,212.931 50.5,211.5 Z"/></g>
<g><path style="opacity:0.892" fill="#000000" d="M 451.5,246.5 C 460.568,246.119 469.568,246.619 478.5,248C 483.833,253 483.833,258 478.5,263C 468.487,264.972 458.487,264.972 448.5,263C 444.723,260.089 443.556,256.256 445,251.5C 446.603,248.965 448.769,247.298 451.5,246.5 Z"/></g>
<g><path style="opacity:0.903" fill="#000000" d="M 194.5,347.5 C 235.168,347.333 275.835,347.5 316.5,348C 322.811,350.588 324.644,355.088 322,361.5C 320.2,363.317 318.034,364.484 315.5,365C 275.5,365.667 235.5,365.667 195.5,365C 188.368,362.951 186.201,358.451 189,351.5C 190.5,349.531 192.333,348.198 194.5,347.5 Z"/></g>
<g><path style="opacity:0.931" fill="#000000" d="M 130.5,414.5 C 132.199,414.34 133.866,414.506 135.5,415C 198.786,458.772 266.12,466.106 337.5,437C 350.821,430.677 363.488,423.344 375.5,415C 384.929,415.095 388.096,419.595 385,428.5C 337.812,463.506 284.978,477.34 226.5,470C 189.176,465.123 155.676,451.289 126,428.5C 122.995,422.293 124.495,417.627 130.5,414.5 Z"/></g>
</svg>
