<?xml version="1.0" encoding="UTF-8"?>
<!DOCTYPE svg PUBLIC "-//W3C//DTD SVG 1.1//EN" "http://www.w3.org/Graphics/SVG/1.1/DTD/svg11.dtd">
<svg xmlns="http://www.w3.org/2000/svg" version="1.1" width="512px" height="512px" style="shape-rendering:geometricPrecision; text-rendering:geometricPrecision; image-rendering:optimizeQuality; fill-rule:evenodd; clip-rule:evenodd" xmlns:xlink="http://www.w3.org/1999/xlink">
<g><path style="opacity:0.937" fill="#000000" d="M 233.5,-0.5 C 248.167,-0.5 262.833,-0.5 277.5,-0.5C 367.555,10.0943 435.388,54.4276 481,132.5C 497.855,164.278 508.022,197.945 511.5,233.5C 511.5,248.167 511.5,262.833 511.5,277.5C 500.906,367.555 456.572,435.388 378.5,481C 346.722,497.855 313.055,508.022 277.5,511.5C 262.833,511.5 248.167,511.5 233.5,511.5C 143.445,500.906 75.612,456.572 30,378.5C 13.1449,346.722 2.97822,313.055 -0.5,277.5C -0.5,262.833 -0.5,248.167 -0.5,233.5C 10.0943,143.445 54.4276,75.612 132.5,30C 164.278,13.1449 197.945,2.97822 233.5,-0.5 Z M 241.5,16.5 C 274.142,15.0517 305.809,19.8851 336.5,31C 282.5,31.6667 228.5,31.6667 174.5,31C 196.32,23.1236 218.654,18.2903 241.5,16.5 Z M 152.5,40.5 C 115.5,78.1667 78.1667,115.5 40.5,152.5C 64.8333,102.167 102.167,64.8333 152.5,40.5 Z M 358.5,40.5 C 408.833,64.8333 446.167,102.167 470.5,152.5C 432.833,115.5 395.5,78.1667 358.5,40.5 Z M 170.5,48.5 C 227.168,48.3333 283.834,48.5 340.5,49C 381,89.5 421.5,130 462,170.5C 462.667,227.167 462.667,283.833 462,340.5C 421.5,381 381,421.5 340.5,462C 283.833,462.667 227.167,462.667 170.5,462C 130,421.5 89.5,381 49,340.5C 48.6667,327.167 48.3333,313.833 48,300.5C 44.5638,295.173 40.0638,294.173 34.5,297.5C 33.4164,298.665 32.5831,299.998 32,301.5C 31.6667,313.167 31.3333,324.833 31,336.5C 11.6667,282.5 11.6667,228.5 31,174.5C 31.3333,207.833 31.6667,241.167 32,274.5C 34.8966,279.155 39.0633,280.655 44.5,279C 45.6667,277.833 46.8333,276.667 48,275.5C 48.3333,240.5 48.6667,205.5 49,170.5C 89.7014,129.965 130.201,89.2987 170.5,48.5 Z M 229.5,168.5 C 230.497,189.994 230.831,211.66 230.5,233.5C 229.127,233.657 227.793,233.49 226.5,233C 217.072,220.572 205.072,211.572 190.5,206C 199.158,188.839 212.158,176.339 229.5,168.5 Z M 280.5,168.5 C 298.475,175.973 311.809,188.473 320.5,206C 305.928,211.572 293.928,220.572 284.5,233C 283.207,233.49 281.873,233.657 280.5,233.5C 280.5,211.833 280.5,190.167 280.5,168.5 Z M 479.5,174.5 C 499.322,228.299 499.489,282.299 480,336.5C 479.5,282.501 479.333,228.501 479.5,174.5 Z M 230.5,308.5 C 233.699,308.696 235.699,310.363 236.5,313.5C 233.5,320.167 230.5,320.167 227.5,313.5C 227.757,311.308 228.757,309.641 230.5,308.5 Z M 189.5,322.5 C 196.841,322.334 204.174,322.5 211.5,323C 219.82,335.773 230.82,338.773 244.5,332C 247.4,329.603 249.733,326.77 251.5,323.5C 274.824,322.5 298.157,322.167 321.5,322.5C 313.543,357.79 291.543,377.123 255.5,380.5C 219.457,377.123 197.457,357.79 189.5,322.5 Z M 40.5,358.5 C 78.1667,395.5 115.5,432.833 152.5,470.5C 102.167,446.167 64.8333,408.833 40.5,358.5 Z M 470.5,358.5 C 446.167,408.833 408.833,446.167 358.5,470.5C 395.5,432.833 432.833,395.5 470.5,358.5 Z M 174.5,480.5 C 228.332,479.335 282.332,479.168 336.5,480C 282.556,499.165 228.556,499.331 174.5,480.5 Z"/></g>
<g><path style="opacity:0.902" fill="#000000" d="M 255.5,62.5 C 261.2,62.4197 264.7,65.0863 266,70.5C 266.895,80.5606 266.562,90.5606 265,100.5C 258.727,106.365 253.394,105.698 249,98.5C 248.667,92.5 248.333,86.5 248,80.5C 245.523,77.2762 244.857,73.6095 246,69.5C 248.825,66.524 251.992,64.1907 255.5,62.5 Z"/></g>
<g><path style="opacity:0.93" fill="#000000" d="M 243.5,113.5 C 300.006,111.655 341.172,135.655 367,185.5C 369.466,191.732 371.633,198.066 373.5,204.5C 395.324,213.157 411.158,228.157 421,249.5C 424.023,256.903 426.023,264.569 427,272.5C 433,277.833 433,283.167 427,288.5C 421.116,325.714 399.949,348.881 363.5,358C 352.026,360.853 347.526,356.686 350,345.5C 350.833,344.667 351.667,343.833 352.5,343C 377.123,339.124 394.623,325.957 405,303.5C 406.992,299.04 408.159,294.373 408.5,289.5C 391.497,289.667 374.497,289.5 357.5,289C 350.452,286.351 348.619,281.517 352,274.5C 353.419,273.54 354.919,272.707 356.5,272C 373.83,271.5 391.163,271.333 408.5,271.5C 403.548,244.709 387.882,227.542 361.5,220C 360.667,219.167 359.833,218.333 359,217.5C 348.233,172.4 320.4,144.234 275.5,133C 227.865,126.404 191.031,143.237 165,183.5C 159.286,194.308 154.953,205.642 152,217.5C 151.167,218.333 150.333,219.167 149.5,220C 123.118,227.542 107.452,244.709 102.5,271.5C 119.837,271.333 137.17,271.5 154.5,272C 158.833,273.161 160.833,275.995 160.5,280.5C 160.416,285.16 158.083,287.994 153.5,289C 136.503,289.5 119.503,289.667 102.5,289.5C 105.657,309.991 116.324,325.158 134.5,335C 142.296,338.282 150.296,340.949 158.5,343C 162.973,347.06 163.473,351.56 160,356.5C 157.753,357.98 155.253,358.647 152.5,358.5C 113.397,351.229 90.564,327.896 84,288.5C 78,283.167 78,277.833 84,272.5C 86.9754,249.038 97.8087,230.204 116.5,216C 123.211,211.644 130.211,207.811 137.5,204.5C 150.526,160.64 178.86,131.807 222.5,118C 229.59,116.269 236.59,114.769 243.5,113.5 Z M 229.5,168.5 C 212.158,176.339 199.158,188.839 190.5,206C 205.072,211.572 217.072,220.572 226.5,233C 227.793,233.49 229.127,233.657 230.5,233.5C 230.831,211.66 230.497,189.994 229.5,168.5 Z M 280.5,168.5 C 280.5,190.167 280.5,211.833 280.5,233.5C 281.873,233.657 283.207,233.49 284.5,233C 293.928,220.572 305.928,211.572 320.5,206C 311.809,188.473 298.475,175.973 280.5,168.5 Z M 230.5,308.5 C 228.757,309.641 227.757,311.308 227.5,313.5C 230.5,320.167 233.5,320.167 236.5,313.5C 235.699,310.363 233.699,308.696 230.5,308.5 Z"/></g>
<g><path style="opacity:0.94" fill="#000000" d="M 235.5,140.5 C 240.635,139.426 244.468,141.093 247,145.5C 247.667,178.167 247.667,210.833 247,243.5C 246.167,245.667 244.667,247.167 242.5,248C 213.737,255.929 196.071,274.429 189.5,303.5C 196.811,304.665 204.144,304.831 211.5,304C 219.672,290.95 230.672,287.95 244.5,295C 247.881,297.38 250.547,300.38 252.5,304C 275.507,304.833 298.507,304.666 321.5,303.5C 314.929,274.429 297.263,255.929 268.5,248C 266.333,247.167 264.833,245.667 264,243.5C 263.333,210.833 263.333,178.167 264,145.5C 266.541,140.931 270.375,139.431 275.5,141C 279.39,142.945 281.057,146.112 280.5,150.5C 306.562,158.388 325.395,174.722 337,199.5C 338.48,203.437 339.647,207.437 340.5,211.5C 340.705,214.229 339.872,216.562 338,218.5C 323.004,222.241 310.504,229.908 300.5,241.5C 322.448,256.326 335.281,276.993 339,303.5C 339.953,305.455 341.287,307.122 343,308.5C 345,311.833 345,315.167 343,318.5C 341.287,319.878 339.953,321.545 339,323.5C 333.37,358.467 313.87,381.967 280.5,394C 233.101,404.216 198.601,387.716 177,344.5C 174.546,337.686 172.88,330.686 172,323.5C 171.047,321.545 169.713,319.878 168,318.5C 166,315.167 166,311.833 168,308.5C 169.713,307.122 171.047,305.455 172,303.5C 175.719,276.993 188.552,256.326 210.5,241.5C 200.496,229.908 187.996,222.241 173,218.5C 171.128,216.562 170.295,214.229 170.5,211.5C 176.764,189.06 189.764,171.56 209.5,159C 216.096,155.081 223.096,152.248 230.5,150.5C 230.075,146.017 231.741,142.683 235.5,140.5 Z M 229.5,168.5 C 212.158,176.339 199.158,188.839 190.5,206C 205.072,211.572 217.072,220.572 226.5,233C 227.793,233.49 229.127,233.657 230.5,233.5C 230.831,211.66 230.497,189.994 229.5,168.5 Z M 280.5,168.5 C 280.5,190.167 280.5,211.833 280.5,233.5C 281.873,233.657 283.207,233.49 284.5,233C 293.928,220.572 305.928,211.572 320.5,206C 311.809,188.473 298.475,175.973 280.5,168.5 Z M 230.5,308.5 C 228.757,309.641 227.757,311.308 227.5,313.5C 230.5,320.167 233.5,320.167 236.5,313.5C 235.699,310.363 233.699,308.696 230.5,308.5 Z M 189.5,322.5 C 197.457,357.79 219.457,377.123 255.5,380.5C 291.543,377.123 313.543,357.79 321.5,322.5C 298.157,322.167 274.824,322.5 251.5,323.5C 249.733,326.77 247.4,329.603 244.5,332C 230.82,338.773 219.82,335.773 211.5,323C 204.174,322.5 196.841,322.334 189.5,322.5 Z"/></g>
<g><path style="opacity:0.929" fill="#000000" d="M 138.5,380.5 C 141.518,380.335 144.518,380.502 147.5,381C 197.797,421.217 253.464,430.883 314.5,410C 332.358,402.787 348.691,393.121 363.5,381C 375.411,379.645 378.911,384.478 374,395.5C 315.168,441.047 251.001,450.214 181.5,423C 165.512,415.983 150.845,406.983 137.5,396C 133.284,390.487 133.617,385.32 138.5,380.5 Z"/></g>
</svg>
