<?xml version="1.0" encoding="UTF-8"?>
<!DOCTYPE svg PUBLIC "-//W3C//DTD SVG 1.1//EN" "http://www.w3.org/Graphics/SVG/1.1/DTD/svg11.dtd">
<svg xmlns="http://www.w3.org/2000/svg" version="1.1" width="512px" height="512px" style="shape-rendering:geometricPrecision; text-rendering:geometricPrecision; image-rendering:optimizeQuality; fill-rule:evenodd; clip-rule:evenodd" xmlns:xlink="http://www.w3.org/1999/xlink">
<g><path style="opacity:0.934" fill="#000000" d="M 233.5,-0.5 C 248.167,-0.5 262.833,-0.5 277.5,-0.5C 367.555,10.0943 435.388,54.4276 481,132.5C 497.855,164.278 508.022,197.945 511.5,233.5C 511.5,248.167 511.5,262.833 511.5,277.5C 500.906,367.555 456.572,435.388 378.5,481C 346.722,497.855 313.055,508.022 277.5,511.5C 262.833,511.5 248.167,511.5 233.5,511.5C 143.445,500.906 75.612,456.572 30,378.5C 13.1449,346.722 2.97822,313.055 -0.5,277.5C -0.5,262.833 -0.5,248.167 -0.5,233.5C 10.0943,143.445 54.4276,75.612 132.5,30C 164.278,13.1449 197.945,2.97822 233.5,-0.5 Z M 238.5,16.5 C 333.927,14.1239 407.76,52.4573 460,131.5C 498.372,198.224 504.706,267.891 479,340.5C 447.513,417.32 391.68,466.487 311.5,488C 210.277,507.488 127.443,477.322 63,397.5C 14.2533,327.203 3.91994,251.536 32,170.5C 71.0476,79.2927 139.881,27.9593 238.5,16.5 Z M 184.5,139.5 C 231.833,139.5 279.167,139.5 326.5,139.5C 326.667,166.835 326.5,194.169 326,221.5C 320.472,224.247 314.639,225.08 308.5,224C 292.821,216.668 277.155,216.668 261.5,224C 257.5,224.667 253.5,224.667 249.5,224C 233.845,216.668 218.179,216.668 202.5,224C 196.638,224.952 190.972,224.285 185.5,222C 184.505,194.574 184.172,167.074 184.5,139.5 Z M 239.5,176.5 C 252.171,176.333 264.838,176.5 277.5,177C 280.167,179.667 280.167,182.333 277.5,185C 265.833,185.667 254.167,185.667 242.5,185C 239.876,182.847 238.876,180.013 239.5,176.5 Z M 220.5,235.5 C 229.294,235.152 237.627,236.985 245.5,241C 248.89,241.246 252.223,241.746 255.5,242.5C 265.474,240.673 275.307,238.34 285,235.5C 294.584,238.252 304.25,240.585 314,242.5C 318.105,241.653 322.272,240.987 326.5,240.5C 326.935,262.463 318.601,280.296 301.5,294C 287.417,304.209 272.083,312.042 255.5,317.5C 233.08,311.046 213.914,299.38 198,282.5C 188.65,270.116 184.15,256.116 184.5,240.5C 197.087,243.36 209.087,241.693 220.5,235.5 Z M 238.5,283.5 C 249.659,282.341 260.992,282.174 272.5,283C 261.238,287.496 249.905,287.662 238.5,283.5 Z M 179.5,333.5 C 212.594,363.414 250.594,371.581 293.5,358C 307.87,352.617 320.37,344.451 331,333.5C 334.13,335.628 336.963,338.128 339.5,341C 312.019,367.803 279.019,379.136 240.5,375C 213.344,371.852 190.344,360.518 171.5,341C 174.062,338.267 176.729,335.767 179.5,333.5 Z"/></g>
<g><path style="opacity:0.874" fill="#000000" d="M 253.5,25.5 C 263.24,26.3107 266.407,31.3107 263,40.5C 258,45.8333 253,45.8333 248,40.5C 244.838,33.5142 246.671,28.5142 253.5,25.5 Z"/></g>
<g><path style="opacity:0.874" fill="#000000" d="M 206.5,30.5 C 215.871,30.0341 219.705,34.3675 218,43.5C 215.103,48.1549 210.937,49.6549 205.5,48C 201.275,45.3372 199.775,41.5039 201,36.5C 202.36,33.9774 204.193,31.9774 206.5,30.5 Z"/></g>
<g><path style="opacity:0.874" fill="#000000" d="M 298.5,30.5 C 308.849,30.6843 312.349,35.6843 309,45.5C 305.662,48.3181 301.829,49.1515 297.5,48C 292.845,45.1034 291.345,40.9367 293,35.5C 294.406,33.2563 296.239,31.5897 298.5,30.5 Z"/></g>
<g><path style="opacity:0.887" fill="#000000" d="M 164.5,44.5 C 173.003,45.5079 176.17,50.1745 174,58.5C 169.527,63.708 164.527,64.3746 159,60.5C 154.924,53.0062 156.758,47.6729 164.5,44.5 Z"/></g>
<g><path style="opacity:0.885" fill="#000000" d="M 343.5,44.5 C 352.732,45.6276 355.899,50.6276 353,59.5C 347.373,64.7015 342.04,64.3682 337,58.5C 334.746,51.5755 336.913,46.9089 343.5,44.5 Z"/></g>
<g><path style="opacity:0.93" fill="#000000" d="M 246.5,61.5 C 294.439,60.4254 337.439,74.2587 375.5,103C 377.806,105.061 379.973,107.228 382,109.5C 383.447,118.72 379.614,122.553 370.5,121C 307.139,72.5862 239.805,66.2528 168.5,102C 158.974,107.595 149.974,113.929 141.5,121C 132.075,123.25 127.908,119.417 129,109.5C 154.984,86.5925 185.151,71.7591 219.5,65C 228.619,63.5763 237.619,62.4096 246.5,61.5 Z"/></g>
<g><path style="opacity:0.879" fill="#000000" d="M 124.5,67.5 C 133.004,68.5085 136.17,73.1751 134,81.5C 129.902,86.758 125.069,87.5913 119.5,84C 114.662,76.3548 116.328,70.8548 124.5,67.5 Z"/></g>
<g><path style="opacity:0.88" fill="#000000" d="M 384.5,67.5 C 394,69.4867 396.5,74.82 392,83.5C 386.377,87.7409 381.377,87.0742 377,81.5C 374.684,74.0327 377.184,69.3661 384.5,67.5 Z"/></g>
<g><path style="opacity:0.87" fill="#000000" d="M 89.5,98.5 C 99.4372,99.2634 102.604,104.263 99,113.5C 94,118.833 89,118.833 84,113.5C 80.8377,106.514 82.6711,101.514 89.5,98.5 Z"/></g>
<g><path style="opacity:0.87" fill="#000000" d="M 417.5,98.5 C 427.24,99.3107 430.407,104.311 427,113.5C 422,118.833 417,118.833 412,113.5C 408.651,106.397 410.484,101.397 417.5,98.5 Z"/></g>
<g><path style="opacity:0.948" fill="#000000" d="M 172.5,122.5 C 227.834,122.333 283.168,122.5 338.5,123C 339.931,123.465 341.097,124.299 342,125.5C 343.157,147.247 343.657,169.08 343.5,191C 358.521,266.87 329.188,315.036 255.5,335.5C 226.621,328.323 202.454,313.656 183,291.5C 174.976,280.443 169.976,268.11 168,254.5C 167.333,212.167 167.333,169.833 168,127.5C 169.025,125.313 170.525,123.646 172.5,122.5 Z M 184.5,139.5 C 184.172,167.074 184.505,194.574 185.5,222C 190.972,224.285 196.638,224.952 202.5,224C 218.179,216.668 233.845,216.668 249.5,224C 253.5,224.667 257.5,224.667 261.5,224C 277.155,216.668 292.821,216.668 308.5,224C 314.639,225.08 320.472,224.247 326,221.5C 326.5,194.169 326.667,166.835 326.5,139.5C 279.167,139.5 231.833,139.5 184.5,139.5 Z M 239.5,176.5 C 238.876,180.013 239.876,182.847 242.5,185C 254.167,185.667 265.833,185.667 277.5,185C 280.167,182.333 280.167,179.667 277.5,177C 264.838,176.5 252.171,176.333 239.5,176.5 Z M 220.5,235.5 C 209.087,241.693 197.087,243.36 184.5,240.5C 184.15,256.116 188.65,270.116 198,282.5C 213.914,299.38 233.08,311.046 255.5,317.5C 272.083,312.042 287.417,304.209 301.5,294C 318.601,280.296 326.935,262.463 326.5,240.5C 322.272,240.987 318.105,241.653 314,242.5C 304.25,240.585 294.584,238.252 285,235.5C 275.307,238.34 265.474,240.673 255.5,242.5C 252.223,241.746 248.89,241.246 245.5,241C 237.627,236.985 229.294,235.152 220.5,235.5 Z M 238.5,283.5 C 249.905,287.662 261.238,287.496 272.5,283C 260.992,282.174 249.659,282.341 238.5,283.5 Z"/></g>
<g><path style="opacity:0.928" fill="#000000" d="M 112.5,127.5 C 119.949,128.116 123.116,132.116 122,139.5C 87.7599,182.233 73.7599,230.9 80,285.5C 77.4586,290.069 73.6253,291.569 68.5,290C 66.2739,288.773 64.7739,286.939 64,284.5C 56.24,226.859 70.5733,175.526 107,130.5C 108.876,129.391 110.709,128.391 112.5,127.5 Z"/></g>
<g><path style="opacity:0.928" fill="#000000" d="M 395.5,127.5 C 398.579,127.804 401.413,128.804 404,130.5C 440.427,175.526 454.76,226.859 447,284.5C 444.917,289.904 441.084,291.737 435.5,290C 433.333,289.167 431.833,287.667 431,285.5C 437.24,230.9 423.24,182.233 389,139.5C 387.798,133.565 389.965,129.565 395.5,127.5 Z"/></g>
<g><path style="opacity:0.881" fill="#000000" d="M 60.5,136.5 C 70.1583,134.993 74.325,138.993 73,148.5C 70.6471,153.426 66.8138,155.26 61.5,154C 56.2685,151.367 54.4351,147.201 56,141.5C 57.025,139.313 58.525,137.646 60.5,136.5 Z"/></g>
<g><path style="opacity:0.881" fill="#000000" d="M 442.5,136.5 C 452.158,134.993 456.325,138.993 455,148.5C 452.647,153.426 448.814,155.26 443.5,154C 438.268,151.367 436.435,147.201 438,141.5C 439.025,139.313 440.525,137.646 442.5,136.5 Z"/></g>
<g><path style="opacity:0.935" fill="#000000" d="M 221.5,145.5 C 226.742,145.023 231.742,145.856 236.5,148C 238.931,151.078 239.931,154.578 239.5,158.5C 252.504,158.333 265.504,158.5 278.5,159C 291.879,162.254 298.045,170.754 297,184.5C 295.311,192.22 290.978,197.887 284,201.5C 285.039,211.128 280.872,215.295 271.5,214C 267.093,211.468 265.426,207.635 266.5,202.5C 261.833,202.5 257.167,202.5 252.5,202.5C 253.511,211.657 249.511,215.49 240.5,214C 238.333,213.167 236.833,211.667 236,209.5C 235.821,206.447 235.321,203.447 234.5,200.5C 229.081,197.58 225.247,193.247 223,187.5C 222.832,179.479 222.332,171.479 221.5,163.5C 213.836,160.676 212.002,155.676 216,148.5C 217.876,147.391 219.709,146.391 221.5,145.5 Z M 239.5,176.5 C 238.876,180.013 239.876,182.847 242.5,185C 254.167,185.667 265.833,185.667 277.5,185C 280.167,182.333 280.167,179.667 277.5,177C 264.838,176.5 252.171,176.333 239.5,176.5 Z"/></g>
<g><path style="opacity:0.872" fill="#000000" d="M 41.5,178.5 C 51.6591,177.158 55.8257,181.491 54,191.5C 51.4586,196.069 47.6253,197.569 42.5,196C 34.844,190.569 34.5106,184.736 41.5,178.5 Z"/></g>
<g><path style="opacity:0.869" fill="#000000" d="M 461.5,178.5 C 471.107,176.942 475.274,180.942 474,190.5C 471.367,195.732 467.201,197.565 461.5,196C 456.845,193.103 455.345,188.937 457,183.5C 458.025,181.313 459.525,179.646 461.5,178.5 Z"/></g>
<g><path style="opacity:0.873" fill="#000000" d="M 32.5,223.5 C 41.905,222.735 45.905,226.901 44.5,236C 41.9477,240.939 37.9477,242.605 32.5,241C 24.882,235.014 24.882,229.181 32.5,223.5 Z"/></g>
<g><path style="opacity:0.873" fill="#000000" d="M 471.5,223.5 C 481.362,222.848 485.195,227.182 483,236.5C 480.459,241.069 476.625,242.569 471.5,241C 463.581,235.173 463.581,229.34 471.5,223.5 Z"/></g>
<g><path style="opacity:0.942" fill="#000000" d="M 230.5,247.5 C 233.192,248.009 235.692,249.009 238,250.5C 239.388,255.372 239.888,260.372 239.5,265.5C 241.833,265.5 244.167,265.5 246.5,265.5C 245.898,259.976 246.898,254.81 249.5,250C 256.44,246.313 261.274,248.146 264,255.5C 264.498,258.817 264.665,262.15 264.5,265.5C 266.833,265.5 269.167,265.5 271.5,265.5C 271.334,261.154 271.501,256.821 272,252.5C 276.601,246.37 281.601,246.036 287,251.5C 288.309,256.066 288.809,260.733 288.5,265.5C 296.684,265.537 299.851,269.537 298,277.5C 294.259,288.908 286.759,296.741 275.5,301C 258.933,306.262 242.933,304.928 227.5,297C 217.801,290.765 212.968,281.932 213,270.5C 215.212,267.143 218.378,265.476 222.5,265.5C 222.191,260.733 222.691,256.066 224,251.5C 225.792,249.372 227.958,248.039 230.5,247.5 Z M 238.5,283.5 C 249.905,287.662 261.238,287.496 272.5,283C 260.992,282.174 249.659,282.341 238.5,283.5 Z"/></g>
<g><path style="opacity:0.873" fill="#000000" d="M 32.5,269.5 C 41.905,268.735 45.905,272.901 44.5,282C 41.9477,286.939 37.9477,288.605 32.5,287C 27.2186,284.154 25.7186,279.987 28,274.5C 29.025,272.313 30.525,270.646 32.5,269.5 Z"/></g>
<g><path style="opacity:0.873" fill="#000000" d="M 471.5,269.5 C 481.746,269.015 485.579,273.681 483,283.5C 477.667,288.833 472.333,288.833 467,283.5C 464.606,277.517 466.106,272.851 471.5,269.5 Z"/></g>
<g><path style="opacity:0.881" fill="#000000" d="M 79.5,305.5 C 88.7533,307.673 91.2533,313.006 87,321.5C 78.7919,326.208 73.2919,324.042 70.5,315C 71.6826,309.987 74.6826,306.82 79.5,305.5 Z"/></g>
<g><path style="opacity:0.881" fill="#000000" d="M 430.5,305.5 C 440.344,308.572 442.344,314.239 436.5,322.5C 428.568,325.867 423.568,323.367 421.5,315C 422.359,309.644 425.359,306.478 430.5,305.5 Z"/></g>
<g><path style="opacity:0.935" fill="#000000" d="M 179.5,312.5 C 181.564,312.687 183.564,313.187 185.5,314C 207.677,339.619 235.677,350.286 269.5,346C 291.703,342.449 310.037,332.115 324.5,315C 326.459,314.069 328.459,313.236 330.5,312.5C 332.541,313.236 334.541,314.069 336.5,315C 344.629,321.46 352.463,328.294 360,335.5C 362.12,339.366 361.786,343.033 359,346.5C 356.667,348.833 354.333,351.167 352,353.5C 351.667,359.5 351.333,365.5 351,371.5C 347.236,376.537 342.736,377.37 337.5,374C 335.963,372.89 335.297,371.39 335.5,369.5C 282.167,401.5 228.833,401.5 175.5,369.5C 175.703,371.39 175.037,372.89 173.5,374C 168.264,377.37 163.764,376.537 160,371.5C 159.667,365.5 159.333,359.5 159,353.5C 154.446,350.123 151.28,345.789 149.5,340.5C 150.737,335.748 153.404,331.915 157.5,329C 162.019,325.571 166.352,321.904 170.5,318C 173.263,315.626 176.263,313.792 179.5,312.5 Z M 179.5,333.5 C 176.729,335.767 174.062,338.267 171.5,341C 190.344,360.518 213.344,371.852 240.5,375C 279.019,379.136 312.019,367.803 339.5,341C 336.963,338.128 334.13,335.628 331,333.5C 320.37,344.451 307.87,352.617 293.5,358C 250.594,371.581 212.594,363.414 179.5,333.5 Z"/></g>
<g><path style="opacity:0.869" fill="#000000" d="M 42.5,314.5 C 52.1569,313.658 55.9902,317.991 54,327.5C 51.1034,332.155 46.9367,333.655 41.5,332C 34.6203,325.772 34.9536,319.939 42.5,314.5 Z"/></g>
<g><path style="opacity:0.872" fill="#000000" d="M 461.5,314.5 C 473.689,314.718 477.023,320.218 471.5,331C 460.431,334.891 455.598,331.058 457,319.5C 458.193,317.503 459.693,315.836 461.5,314.5 Z"/></g>
<g><path style="opacity:0.925" fill="#000000" d="M 93.5,339.5 C 96.675,339.503 99.5084,340.503 102,342.5C 134.667,395.449 182.167,425.615 244.5,433C 247.803,436.795 248.303,440.962 246,445.5C 242.319,448.36 238.152,449.193 233.5,448C 169.902,439.344 121.402,407.844 88,353.5C 85.1548,346.872 86.9881,342.205 93.5,339.5 Z"/></g>
<g><path style="opacity:0.925" fill="#000000" d="M 413.5,339.5 C 421.003,339.501 424.503,343.167 424,350.5C 395.305,400.299 352.805,431.799 296.5,445C 287.265,447.155 277.932,448.155 268.5,448C 265.066,446.471 263.4,443.804 263.5,440C 263.408,437.186 264.408,434.853 266.5,433C 328.833,425.615 376.333,395.449 409,342.5C 410.652,341.601 412.152,340.601 413.5,339.5 Z"/></g>
<g><path style="opacity:0.881" fill="#000000" d="M 61.5,356.5 C 70.4775,356.31 74.3108,360.643 73,369.5C 70.1034,374.155 65.9367,375.655 60.5,374C 55.9315,371.459 54.4315,367.625 56,362.5C 57.3597,359.977 59.193,357.977 61.5,356.5 Z"/></g>
<g><path style="opacity:0.881" fill="#000000" d="M 443.5,356.5 C 452.478,356.31 456.311,360.643 455,369.5C 452.103,374.155 447.937,375.655 442.5,374C 437.931,371.459 436.431,367.625 438,362.5C 439.36,359.977 441.193,357.977 443.5,356.5 Z"/></g>
<g><path style="opacity:0.87" fill="#000000" d="M 90.5,393.5 C 98.8777,394.581 102.044,399.248 100,407.5C 94.9581,413.602 89.6248,413.935 84,408.5C 80.7498,401.01 82.9165,396.01 90.5,393.5 Z"/></g>
<g><path style="opacity:0.87" fill="#000000" d="M 418.5,393.5 C 427.568,394.969 430.401,399.969 427,408.5C 421.375,413.935 416.042,413.602 411,407.5C 409.101,400.291 411.601,395.624 418.5,393.5 Z"/></g>
<g><path style="opacity:0.88" fill="#000000" d="M 124.5,424.5 C 133.003,425.508 136.17,430.175 134,438.5C 128.96,444.368 123.627,444.702 118,439.5C 115.302,432.24 117.469,427.24 124.5,424.5 Z"/></g>
<g><path style="opacity:0.879" fill="#000000" d="M 383.5,424.5 C 392.732,425.628 395.899,430.628 393,439.5C 387.373,444.702 382.04,444.368 377,438.5C 374.746,431.576 376.913,426.909 383.5,424.5 Z"/></g>
<g><path style="opacity:0.885" fill="#000000" d="M 164.5,447.5 C 173.004,448.508 176.17,453.175 174,461.5C 169.902,466.758 165.069,467.591 159.5,464C 154.662,456.355 156.328,450.855 164.5,447.5 Z"/></g>
<g><path style="opacity:0.887" fill="#000000" d="M 344.5,447.5 C 353.741,449.648 356.241,454.982 352,463.5C 346.377,467.741 341.377,467.074 337,461.5C 334.684,454.033 337.184,449.366 344.5,447.5 Z"/></g>
<g><path style="opacity:0.874" fill="#000000" d="M 205.5,462.5 C 215.659,461.158 219.826,465.491 218,475.5C 213.015,481.665 207.682,481.998 202,476.5C 199.445,470.782 200.612,466.116 205.5,462.5 Z"/></g>
<g><path style="opacity:0.874" fill="#000000" d="M 297.5,462.5 C 307.139,460.974 311.306,464.974 310,474.5C 304.785,482.09 299.118,482.423 293,475.5C 291.379,469.923 292.879,465.589 297.5,462.5 Z"/></g>
<g><path style="opacity:0.874" fill="#000000" d="M 254.5,466.5 C 263.568,467.969 266.401,472.969 263,481.5C 258,486.833 253,486.833 248,481.5C 244.75,474.01 246.917,469.01 254.5,466.5 Z"/></g>
</svg>
