<?xml version="1.0" encoding="UTF-8"?>
<!DOCTYPE svg PUBLIC "-//W3C//DTD SVG 1.1//EN" "http://www.w3.org/Graphics/SVG/1.1/DTD/svg11.dtd">
<svg xmlns="http://www.w3.org/2000/svg" version="1.1" width="200px" height="199px" style="shape-rendering:geometricPrecision; text-rendering:geometricPrecision; image-rendering:optimizeQuality; fill-rule:evenodd; clip-rule:evenodd" xmlns:xlink="http://www.w3.org/1999/xlink">
<g><path style="opacity:1" fill="#28fcfa" d="M 85.5,0.5 C 134.242,-2.89096 169.408,17.109 191,60.5C 206.406,104.374 197.239,142.207 163.5,174C 130.954,198.721 95.6207,203.388 57.5,188C 11.1912,162.46 -6.64215,123.627 4,71.5C 17.422,31.903 44.5887,8.2363 85.5,0.5 Z"/></g>
<g><path style="opacity:1" fill="#33fe49" d="M 158.5,40.5 C 159.828,45.1194 160.494,50.1194 160.5,55.5C 160.499,60.6782 160.166,65.6782 159.5,70.5C 159.807,60.4176 159.474,50.4176 158.5,40.5 Z"/></g>
<g><path style="opacity:1" fill="#e0fa4d" d="M 117.5,76.5 C 117.5,78.8333 117.5,81.1667 117.5,83.5C 117.5,84.1667 117.167,84.5 116.5,84.5C 107.167,84.5 97.8333,84.5 88.5,84.5C 97.3178,83.5067 106.318,83.1734 115.5,83.5C 115.966,81.7988 115.966,80.2988 115.5,79C 116.066,78.0053 116.733,77.172 117.5,76.5 Z"/></g>
<g><path style="opacity:1" fill="#f8f5f7" d="M 158.5,40.5 C 159.474,50.4176 159.807,60.4176 159.5,70.5C 147.495,70.3335 135.495,70.5001 123.5,71C 122.24,72.113 121.073,72.2797 120,71.5C 118.117,72.6526 117.284,74.3193 117.5,76.5C 116.733,77.172 116.066,78.0053 115.5,79C 115.966,80.2988 115.966,81.7988 115.5,83.5C 106.318,83.1734 97.3178,83.5067 88.5,84.5C 87.5064,93.6517 87.1731,102.985 87.5,112.5C 83.5,112.5 79.5,112.5 75.5,112.5C 73.7708,113.117 72.2708,114.117 71,115.5C 70.6667,115.167 70.3333,114.833 70,114.5C 69.0197,115.981 67.853,117.315 66.5,118.5C 67.7178,119.803 67.3845,120.803 65.5,121.5C 65.9402,127.535 69.7735,131.869 77,134.5C 80.0285,133.383 82.6952,131.716 85,129.5C 85.3333,129.833 85.6667,130.167 86,130.5C 87.2168,124.899 87.7168,119.232 87.5,113.5C 87.8333,113.5 88.1667,113.5 88.5,113.5C 97.5,113.5 106.5,113.5 115.5,113.5C 115.294,117.898 115.627,122.232 116.5,126.5C 116.357,133.245 114.024,139.912 109.5,146.5C 108.675,147.386 107.675,147.719 106.5,147.5C 106.703,149.39 106.037,150.89 104.5,152C 101.095,154.658 97.5951,157.158 94,159.5C 93.2825,158.549 92.4491,158.383 91.5,159C 92.3402,160.666 91.8402,160.833 90,159.5C 87.0059,162.473 83.5059,163.139 79.5,161.5C 77.8333,164.167 76.1667,164.167 74.5,161.5C 70.4941,163.139 66.9941,162.473 64,159.5C 63.2825,160.451 62.4491,160.617 61.5,160C 62.3402,158.334 61.8402,158.167 60,159.5C 56.1353,157.651 53.4686,155.317 52,152.5C 49.8807,152.493 48.0474,151.326 46.5,149C 47.6537,148.086 47.487,147.253 46,146.5C 45.6667,146.833 45.3333,147.167 45,147.5C 43.1933,143.672 41.36,140.338 39.5,137.5C 39.8333,136.833 40.1667,136.167 40.5,135.5C 40.1543,134.304 39.6543,134.304 39,135.5C 37.0966,128.309 37.2633,121.475 39.5,115C 38.1398,113.062 38.4732,111.396 40.5,110C 40.1667,109.667 39.8333,109.333 39.5,109C 40.8333,107.667 42.1667,106.333 43.5,105C 43.1667,104.667 42.8333,104.333 42.5,104C 52.2496,88.6764 67.2496,81.843 87.5,83.5C 88.6714,80.4077 88.6714,77.5744 87.5,75C 87.9054,74.0546 88.572,73.3879 89.5,73C 89.1667,72 88.8333,71 88.5,70C 90.3008,69.6827 90.6341,69.016 89.5,68C 89.9963,66.0036 90.9963,64.3369 92.5,63C 92.1667,62.6667 91.8333,62.3333 91.5,62C 94.5631,60.9339 96.0631,58.7672 96,55.5C 99.5264,50.9893 103.693,48.1559 108.5,47C 108.167,46.6667 107.833,46.3333 107.5,46C 109.717,44.7246 112.051,43.7246 114.5,43C 129.053,40.7527 143.72,39.9194 158.5,40.5 Z"/></g>
<g><path style="opacity:1" fill="#3e289b" d="M 88.5,84.5 C 88.5,94.1667 88.5,103.833 88.5,113.5C 88.1667,113.5 87.8333,113.5 87.5,113.5C 83.2984,113.817 79.2984,113.483 75.5,112.5C 79.5,112.5 83.5,112.5 87.5,112.5C 87.1731,102.985 87.5064,93.6517 88.5,84.5 Z"/></g>
<g><path style="opacity:1" fill="#bfb8f8" d="M 88.5,84.5 C 97.8333,84.5 107.167,84.5 116.5,84.5C 116.5,93.8333 116.5,103.167 116.5,112.5C 126.167,112.5 135.833,112.5 145.5,112.5C 136.348,113.494 127.015,113.827 117.5,113.5C 116.833,113.5 116.167,113.5 115.5,113.5C 106.5,113.5 97.5,113.5 88.5,113.5C 88.5,103.833 88.5,94.1667 88.5,84.5 Z"/></g>
<g><path style="opacity:1" fill="#fdf5ef" d="M 117.5,83.5 C 126.833,83.5 136.167,83.5 145.5,83.5C 145.5,93.1667 145.5,102.833 145.5,112.5C 135.833,112.5 126.167,112.5 116.5,112.5C 116.5,103.167 116.5,93.8333 116.5,84.5C 117.167,84.5 117.5,84.1667 117.5,83.5 Z"/></g>
<g><path style="opacity:1" fill="#1cfdf8" d="M 75.5,112.5 C 79.2984,113.483 83.2984,113.817 87.5,113.5C 87.7168,119.232 87.2168,124.899 86,130.5C 85.6667,130.167 85.3333,129.833 85,129.5C 82.6952,131.716 80.0285,133.383 77,134.5C 69.7735,131.869 65.9402,127.535 65.5,121.5C 67.3845,120.803 67.7178,119.803 66.5,118.5C 67.853,117.315 69.0197,115.981 70,114.5C 70.3333,114.833 70.6667,115.167 71,115.5C 72.2708,114.117 73.7708,113.117 75.5,112.5 Z"/></g>
<g><path style="opacity:1" fill="#2fff82" d="M 115.5,113.5 C 116.167,113.5 116.833,113.5 117.5,113.5C 117.818,118.032 117.485,122.366 116.5,126.5C 115.627,122.232 115.294,117.898 115.5,113.5 Z"/></g>
</svg>
