<?xml version="1.0" encoding="UTF-8"?>
<!DOCTYPE svg PUBLIC "-//W3C//DTD SVG 1.1//EN" "http://www.w3.org/Graphics/SVG/1.1/DTD/svg11.dtd">
<svg xmlns="http://www.w3.org/2000/svg" version="1.1" width="64px" height="64px" style="shape-rendering:geometricPrecision; text-rendering:geometricPrecision; image-rendering:optimizeQuality; fill-rule:evenodd; clip-rule:evenodd" xmlns:xlink="http://www.w3.org/1999/xlink">
<g><path style="opacity:0.84" fill="#000000" d="M 14.5,8.5 C 16.8478,10.6802 19.3478,12.6802 22,14.5C 28.3333,11.8333 34.6667,11.8333 41,14.5C 43.6162,12.8878 45.9495,10.8878 48,8.5C 51.0688,10.5135 52.7354,13.1801 53,16.5C 51.108,18.0542 49.608,19.8876 48.5,22C 51.4014,28.5384 51.068,34.8717 47.5,41C 49.8878,43.0505 51.8878,45.3838 53.5,48C 52.1849,51.3438 49.8516,53.0105 46.5,53C 44.6667,51.1667 42.8333,49.3333 41,47.5C 34.6667,51.5 28.3333,51.5 22,47.5C 19.9495,49.8878 17.6162,51.8878 15,53.5C 12.5515,52.0557 10.3848,50.2224 8.5,48C 10.8878,45.9495 12.8878,43.6162 14.5,41C 11.8333,34.6667 11.8333,28.3333 14.5,22C 12.8878,19.3838 10.8878,17.0505 8.5,15C 10.7059,12.9633 12.7059,10.7966 14.5,8.5 Z M 29.5,20.5 C 38.79,21.2922 42.6233,26.2922 41,35.5C 37.2519,41.5422 32.0852,43.0422 25.5,40C 18.6675,31.8296 20.0008,25.3296 29.5,20.5 Z"/></g>
</svg>
