<?xml version="1.0" encoding="UTF-8"?>
<!DOCTYPE svg PUBLIC "-//W3C//DTD SVG 1.1//EN" "http://www.w3.org/Graphics/SVG/1.1/DTD/svg11.dtd">
<svg xmlns="http://www.w3.org/2000/svg" version="1.1" width="512px" height="512px" style="shape-rendering:geometricPrecision; text-rendering:geometricPrecision; image-rendering:optimizeQuality; fill-rule:evenodd; clip-rule:evenodd" xmlns:xlink="http://www.w3.org/1999/xlink">
<g><path style="opacity:0.993" fill="#262964" d="M 234.5,16.5 C 326.126,11.8348 398.959,46.1681 453,119.5C 499.598,192.144 507.264,268.811 476,349.5C 441.977,424.517 384.811,471.351 304.5,490C 210.729,505.97 132.562,478.47 70,407.5C 18.8344,341.338 4.16776,267.672 26,186.5C 48.6327,115.866 93.7994,65.3662 161.5,35C 185.047,25.1973 209.38,19.0307 234.5,16.5 Z"/></g>
<g><path style="opacity:1" fill="#555abd" d="M 239.5,50.5 C 333.276,48.6116 401.11,89.2783 443,172.5C 474.391,252.297 463.058,325.297 409,391.5C 358.277,445.189 296.11,467.356 222.5,458C 151.753,444.231 100.586,405.064 69,340.5C 36.1956,260.124 47.1956,186.457 102,119.5C 139.205,79.3143 185.038,56.3143 239.5,50.5 Z"/></g>
<g><path style="opacity:1" fill="#fdfdfe" d="M 253.5,119.5 C 255.655,119.372 257.655,119.872 259.5,121C 285.578,135.454 311.411,150.287 337,165.5C 337.667,225.5 337.667,285.5 337,345.5C 310.201,361.483 283.035,376.816 255.5,391.5C 227.972,376.805 200.806,361.472 174,345.5C 173.333,285.5 173.333,225.5 174,165.5C 200.669,150.303 227.169,134.97 253.5,119.5 Z"/></g>
<g><path style="opacity:1" fill="#565bbe" d="M 253.5,137.5 C 255.655,137.372 257.655,137.872 259.5,139C 277.333,149.415 294.999,160.082 312.5,171C 294.998,181.586 277.331,191.919 259.5,202C 257.635,203.301 255.635,203.635 253.5,203C 235.003,192.586 216.669,181.919 198.5,171C 217.005,159.97 235.338,148.803 253.5,137.5 Z"/></g>
<g><path style="opacity:1" fill="#6c70c7" d="M 191.5,186.5 C 190.503,204.659 190.17,222.992 190.5,241.5C 189.82,233.076 189.487,223.909 189.5,214C 189.833,204.5 190.167,195 190.5,185.5C 191.107,185.624 191.44,185.957 191.5,186.5 Z"/></g>
<g><path style="opacity:1" fill="#6d70c7" d="M 319.5,186.5 C 319.56,185.957 319.893,185.624 320.5,185.5C 321.666,204.491 321.833,223.491 321,242.5C 320.005,241.934 319.172,241.267 318.5,240.5C 319.832,231.859 320.498,222.859 320.5,213.5C 320.5,204.327 320.166,195.327 319.5,186.5 Z"/></g>
<g><path style="opacity:1" fill="#565bbe" d="M 191.5,186.5 C 207.275,195.224 222.942,204.224 238.5,213.5C 222.773,223.361 206.773,232.695 190.5,241.5C 190.17,222.992 190.503,204.659 191.5,186.5 Z"/></g>
<g><path style="opacity:1" fill="#565bbe" d="M 319.5,186.5 C 320.166,195.327 320.5,204.327 320.5,213.5C 320.498,222.859 319.832,231.859 318.5,240.5C 302.865,232.016 287.532,223.016 272.5,213.5C 288.058,204.224 303.725,195.224 319.5,186.5 Z"/></g>
<g><path style="opacity:1" fill="#565bbe" d="M 245.5,228.5 C 246.833,246.833 246.833,265.167 245.5,283.5C 229.56,274.861 213.893,265.694 198.5,256C 214.194,246.822 229.861,237.655 245.5,228.5 Z"/></g>
<g><path style="opacity:1" fill="#7e82cd" d="M 245.5,228.5 C 245.56,227.957 245.893,227.624 246.5,227.5C 247.833,246.5 247.833,265.5 246.5,284.5C 245.893,284.376 245.56,284.043 245.5,283.5C 246.833,265.167 246.833,246.833 245.5,228.5 Z"/></g>
<g><path style="opacity:1" fill="#7e82cd" d="M 265.5,228.5 C 264.167,246.833 264.167,265.167 265.5,283.5C 265.44,284.043 265.107,284.376 264.5,284.5C 263.167,265.5 263.167,246.5 264.5,227.5C 265.107,227.624 265.44,227.957 265.5,228.5 Z"/></g>
<g><path style="opacity:1" fill="#565bbe" d="M 265.5,228.5 C 281.139,237.655 296.806,246.822 312.5,256C 297.107,265.694 281.44,274.861 265.5,283.5C 264.167,265.167 264.167,246.833 265.5,228.5 Z"/></g>
<g><path style="opacity:1" fill="#6c70c7" d="M 191.5,271.5 C 190.503,293.327 190.169,315.327 190.5,337.5C 189.172,315.33 189.172,292.996 190.5,270.5C 191.107,270.624 191.44,270.957 191.5,271.5 Z"/></g>
<g><path style="opacity:1" fill="#6c70c7" d="M 319.5,271.5 C 319.56,270.957 319.893,270.624 320.5,270.5C 321.828,292.996 321.828,315.33 320.5,337.5C 320.831,315.327 320.497,293.327 319.5,271.5 Z"/></g>
<g><path style="opacity:1" fill="#555abe" d="M 191.5,271.5 C 213.105,283.305 234.439,295.638 255.5,308.5C 276.868,296.111 298.201,283.778 319.5,271.5C 320.497,293.327 320.831,315.327 320.5,337.5C 299.025,350.407 277.358,363.074 255.5,375.5C 233.816,362.806 212.149,350.139 190.5,337.5C 190.169,315.327 190.503,293.327 191.5,271.5 Z"/></g>
</svg>
