<?xml version="1.0" encoding="UTF-8"?>
<!DOCTYPE svg PUBLIC "-//W3C//DTD SVG 1.1//EN" "http://www.w3.org/Graphics/SVG/1.1/DTD/svg11.dtd">
<svg xmlns="http://www.w3.org/2000/svg" version="1.1" width="64px" height="64px" style="shape-rendering:geometricPrecision; text-rendering:geometricPrecision; image-rendering:optimizeQuality; fill-rule:evenodd; clip-rule:evenodd" xmlns:xlink="http://www.w3.org/1999/xlink">
<g><path style="opacity:0.016" fill="#4035a8" d="M 17.5,-0.5 C 18.1667,-0.5 18.8333,-0.5 19.5,-0.5C 18.8333,0.833333 18.1667,0.833333 17.5,-0.5 Z"/></g>
<g><path style="opacity:0.995" fill="#2c3d7b" d="M 23.5,-0.5 C 28.8333,-0.5 34.1667,-0.5 39.5,-0.5C 39.5,0.166667 39.8333,0.5 40.5,0.5C 40.6107,1.11742 40.944,1.61742 41.5,2C 38.9842,2.09086 37.3176,2.59086 36.5,3.5C 36.5,4.16667 36.5,4.83333 36.5,5.5C 36.5,6.16667 36.5,6.83333 36.5,7.5C 35.8333,9.5 35.1667,11.5 34.5,13.5C 34.7845,11.5853 34.4511,9.91866 33.5,8.5C 33.5,8.16667 33.5,7.83333 33.5,7.5C 33.6716,6.50838 33.3382,5.84171 32.5,5.5C 31.4911,11.4373 31.1577,18.7707 31.5,27.5C 31.1667,27.5 30.8333,27.5 30.5,27.5C 30.6664,19.16 30.4997,10.8267 30,2.5C 28.8118,3.56341 28.3118,4.89674 28.5,6.5C 28.5,7.16667 28.5,7.83333 28.5,8.5C 27.8826,8.61071 27.3826,8.94404 27,9.5C 26.8238,13.6877 26.3238,17.6877 25.5,21.5C 25.058,15.1608 25.7247,8.99411 27.5,3C 26.2506,2.25988 25.2506,2.42654 24.5,3.5C 23.8333,3.5 23.1667,3.5 22.5,3.5C 20.9731,3.57298 19.9731,2.90632 19.5,1.5C 20.9952,1.01131 22.3285,0.344644 23.5,-0.5 Z"/></g>
<g><path style="opacity:0.98" fill="#33437f" d="M 19.5,1.5 C 19.9731,2.90632 20.9731,3.57298 22.5,3.5C 22.5,3.83333 22.5,4.16667 22.5,4.5C 18.4023,5.27189 15.069,7.27189 12.5,10.5C 11.7777,9.44886 10.7777,8.78219 9.5,8.5C 9.5,8.16667 9.5,7.83333 9.5,7.5C 10.1667,7.5 10.5,7.16667 10.5,6.5C 13.2622,4.4042 16.2622,2.73753 19.5,1.5 Z"/></g>
<g><path style="opacity:0.996" fill="#3a4782" d="M 40.5,0.5 C 44.9449,1.21973 48.6116,3.21973 51.5,6.5C 50.5084,6.32842 49.8417,6.66175 49.5,7.5C 49.1667,7.5 48.8333,7.5 48.5,7.5C 46.0221,6.11681 43.3554,5.11681 40.5,4.5C 39.4324,3.56552 38.099,3.23219 36.5,3.5C 37.3176,2.59086 38.9842,2.09086 41.5,2C 40.944,1.61742 40.6107,1.11742 40.5,0.5 Z"/></g>
<g><path style="opacity:0.012" fill="#41548e" d="M 37.5,5.5 C 38.209,4.59603 39.209,4.26269 40.5,4.5C 39.6993,6.04181 39.366,7.70848 39.5,9.5C 39.1667,9.5 38.8333,9.5 38.5,9.5C 38.7678,7.90097 38.4345,6.56764 37.5,5.5 Z"/></g>
<g><path style="opacity:0.004" fill="#1e223f" d="M 53.5,7.5 C 53.8966,6.47498 54.5632,6.30831 55.5,7C 56.7736,7.97722 56.7736,8.81056 55.5,9.5C 55.5,8.83333 55.1667,8.5 54.5,8.5C 54.5,7.83333 54.1667,7.5 53.5,7.5 Z"/></g>
<g><path style="opacity:0.871" fill="#273773" d="M 32.5,5.5 C 32.3284,6.49162 32.6618,7.15829 33.5,7.5C 33.5,7.83333 33.5,8.16667 33.5,8.5C 33.5,13.1667 33.5,17.8333 33.5,22.5C 33.5,22.8333 33.5,23.1667 33.5,23.5C 32.6618,23.8417 32.3284,24.5084 32.5,25.5C 32.5,26.1667 32.5,26.8333 32.5,27.5C 32.1667,27.5 31.8333,27.5 31.5,27.5C 31.1577,18.7707 31.4911,11.4373 32.5,5.5 Z"/></g>
<g><path style="opacity:0.016" fill="#363273" d="M 23.5,7.5 C 23.5,11.5 23.5,15.5 23.5,19.5C 23.1667,19.5 22.8333,19.5 22.5,19.5C 22.5,18.8333 22.1667,18.5 21.5,18.5C 22.1031,14.7272 22.7698,11.0606 23.5,7.5 Z"/></g>
<g><path style="opacity:0.992" fill="#283a78" d="M 49.5,7.5 C 49.8417,6.66175 50.5084,6.32842 51.5,6.5C 52.1667,6.83333 52.8333,7.16667 53.5,7.5C 54.1667,7.5 54.5,7.83333 54.5,8.5C 55.1667,8.5 55.5,8.83333 55.5,9.5C 55.5,9.83333 55.5,10.1667 55.5,10.5C 55.4142,11.4959 55.7476,12.3292 56.5,13C 55.9056,13.4643 55.2389,13.631 54.5,13.5C 54.1788,11.9519 53.1788,11.2852 51.5,11.5C 51.7709,9.6203 51.1042,8.28696 49.5,7.5 Z"/></g>
<g><path style="opacity:1" fill="#3b447e" d="M 10.5,6.5 C 9.83333,6.5 9.5,6.83333 9.5,7.5C 8.83333,7.5 8.5,7.83333 8.5,8.5C 8.52709,10.1993 9.19376,11.5326 10.5,12.5C 9.5,12.8333 8.83333,13.5 8.5,14.5C 8.16667,14.5 7.83333,14.5 7.5,14.5C 7.5,13.1667 6.83333,12.5 5.5,12.5C 4.88757,9.41201 6.22091,7.07867 9.5,5.5C 10.1067,5.62358 10.44,5.95691 10.5,6.5 Z"/></g>
<g><path style="opacity:0.922" fill="#3e4c85" d="M 36.5,5.5 C 36.8333,5.5 37.1667,5.5 37.5,5.5C 37.2322,7.09903 37.5655,8.43236 38.5,9.5C 38.5,12.1667 38.5,14.8333 38.5,17.5C 36.9886,14.4557 36.322,11.1224 36.5,7.5C 36.5,6.83333 36.5,6.16667 36.5,5.5 Z"/></g>
<g><path style="opacity:0.99" fill="#33447d" d="M 48.5,8.5 C 48.5,8.16667 48.5,7.83333 48.5,7.5C 48.8333,7.5 49.1667,7.5 49.5,7.5C 51.1042,8.28696 51.7709,9.6203 51.5,11.5C 53.1788,11.2852 54.1788,11.9519 54.5,13.5C 53.8826,13.3893 53.3826,13.056 53,12.5C 50.1667,15.3333 47.3333,18.1667 44.5,21C 48.1688,22.0928 51.8355,22.9262 55.5,23.5C 50.4889,23.3341 45.4889,23.5007 40.5,24C 42.4727,24.4955 44.4727,24.6621 46.5,24.5C 45.4324,25.4345 44.099,25.7678 42.5,25.5C 41.0413,25.4326 39.7079,25.7659 38.5,26.5C 38.5,25.5 38.5,24.5 38.5,23.5C 38.5,23.1667 38.5,22.8333 38.5,22.5C 38.5,22.1667 38.5,21.8333 38.5,21.5C 39.1667,21.5 39.5,21.1667 39.5,20.5C 40.1667,20.5 40.5,20.1667 40.5,19.5C 41.1667,19.5 41.5,19.1667 41.5,18.5C 42.1667,18.5 42.5,18.1667 42.5,17.5C 43.1667,17.5 43.5,17.1667 43.5,16.5C 44.1667,16.5 44.5,16.1667 44.5,15.5C 45.1667,15.5 45.5,15.1667 45.5,14.5C 46.1667,14.5 46.5,14.1667 46.5,13.5C 47.1667,13.5 47.5,13.1667 47.5,12.5C 48.1667,12.5 48.5,12.1667 48.5,11.5C 49.1667,11.5 49.5,11.1667 49.5,10.5C 50.8333,10.1667 50.8333,9.83333 49.5,9.5C 49.5,8.83333 49.1667,8.5 48.5,8.5 Z"/></g>
<g><path style="opacity:1" fill="#2e3d79" d="M 36.5,7.5 C 36.322,11.1224 36.9886,14.4557 38.5,17.5C 38.3284,18.4916 38.6618,19.1583 39.5,19.5C 39.5,19.8333 39.5,20.1667 39.5,20.5C 38.8333,20.5 38.5,20.8333 38.5,21.5C 37.1667,21.8333 37.1667,22.1667 38.5,22.5C 38.5,22.8333 38.5,23.1667 38.5,23.5C 37.5,24.8333 36.5,24.8333 35.5,23.5C 35.81,20.2869 35.4767,17.2869 34.5,14.5C 34.5,14.1667 34.5,13.8333 34.5,13.5C 35.1667,11.5 35.8333,9.5 36.5,7.5 Z"/></g>
<g><path style="opacity:0.012" fill="#0a0c85" d="M 48.5,8.5 C 49.1667,8.5 49.5,8.83333 49.5,9.5C 49.5,9.83333 49.5,10.1667 49.5,10.5C 48.8333,10.5 48.5,10.8333 48.5,11.5C 47.8333,11.5 47.5,11.8333 47.5,12.5C 46.8333,12.5 46.5,12.8333 46.5,13.5C 45.8333,13.5 45.5,13.8333 45.5,14.5C 44.8333,14.5 44.5,14.8333 44.5,15.5C 43.8333,15.5 43.5,15.8333 43.5,16.5C 42.8333,16.5 42.5,16.8333 42.5,17.5C 42.1667,17.5 41.8333,17.5 41.5,17.5C 41.5,17.1667 41.5,16.8333 41.5,16.5C 44.2421,13.4758 46.5754,10.8092 48.5,8.5 Z"/></g>
<g><path style="opacity:0.977" fill="#3c417a" d="M 5.5,12.5 C 6.83333,12.5 7.5,13.1667 7.5,14.5C 7.83333,15.8333 8.16667,15.8333 8.5,14.5C 9.04309,14.56 9.37642,14.8933 9.5,15.5C 7.87257,17.7654 6.53924,20.0987 5.5,22.5C 5.16667,21.1667 4.83333,21.1667 4.5,22.5C 4.16667,22.5 3.83333,22.5 3.5,22.5C 3.64945,21.448 3.48278,20.448 3,19.5C 1.52524,22.1218 0.358571,24.7884 -0.5,27.5C -0.5,25.8333 -0.5,24.1667 -0.5,22.5C 0.833333,21.8333 0.833333,21.1667 -0.5,20.5C -0.5,19.5 -0.5,18.5 -0.5,17.5C 1.13658,15.6838 2.63658,13.6838 4,11.5C 4.38258,12.056 4.88258,12.3893 5.5,12.5 Z"/></g>
<g><path style="opacity:0.008" fill="#404a77" d="M 39.5,9.5 C 40.1667,11.8333 40.8333,14.1667 41.5,16.5C 41.5,16.8333 41.5,17.1667 41.5,17.5C 41.5,17.8333 41.5,18.1667 41.5,18.5C 40.8333,18.5 40.5,18.8333 40.5,19.5C 40.1667,19.5 39.8333,19.5 39.5,19.5C 39.5,16.1667 39.5,12.8333 39.5,9.5 Z"/></g>
<g><path style="opacity:0.981" fill="#343d77" d="M 55.5,10.5 C 56.4584,10.9528 57.2917,11.6195 58,12.5C 58.3333,12.1667 58.6667,11.8333 59,11.5C 60.3634,13.6838 61.8634,15.6838 63.5,17.5C 63.5,18.5 63.5,19.5 63.5,20.5C 63.1667,20.5 62.8333,20.5 62.5,20.5C 62.1667,17.8333 61.8333,17.8333 61.5,20.5C 61.8799,22.698 61.2132,24.3646 59.5,25.5C 59.1667,25.5 58.8333,25.5 58.5,25.5C 58.5,25.1667 58.5,24.8333 58.5,24.5C 59.8333,23.8333 59.8333,23.1667 58.5,22.5C 58.1667,19.8333 57.8333,19.8333 57.5,22.5C 54.9935,19.8597 53.9935,16.8597 54.5,13.5C 55.2389,13.631 55.9056,13.4643 56.5,13C 55.7476,12.3292 55.4142,11.4959 55.5,10.5 Z"/></g>
<g><path style="opacity:0.992" fill="#2e3d7a" d="M 8.5,8.5 C 8.83333,8.5 9.16667,8.5 9.5,8.5C 10.7777,8.78219 11.7777,9.44886 12.5,10.5C 14.1667,11.5 15.5,12.8333 16.5,14.5C 16.5,15.8333 15.8333,16.5 14.5,16.5C 12.8333,15.5 11.5,14.1667 10.5,12.5C 9.19376,11.5326 8.52709,10.1993 8.5,8.5 Z"/></g>
<g><path style="opacity:0.749" fill="#3c497d" d="M 24.5,3.5 C 25.2506,2.42654 26.2506,2.25988 27.5,3C 25.7247,8.99411 25.058,15.1608 25.5,21.5C 25.631,22.2389 25.4643,22.9056 25,23.5C 23.583,22.9221 22.7496,21.9221 22.5,20.5C 23.1667,20.5 23.5,20.1667 23.5,19.5C 24.8333,15.5 24.8333,11.5 23.5,7.5C 23.4431,6.39105 23.1098,5.39105 22.5,4.5C 24.4008,4.75351 25.0674,4.42018 24.5,3.5 Z"/></g>
<g><path style="opacity:0.992" fill="#30407c" d="M 16.5,14.5 C 18.1667,15.5 19.5,16.8333 20.5,18.5C 20.5,19.8333 19.8333,20.5 18.5,20.5C 16.8333,19.5 15.5,18.1667 14.5,16.5C 15.8333,16.5 16.5,15.8333 16.5,14.5 Z"/></g>
<g><path style="opacity:0.431" fill="#32407b" d="M 30.5,27.5 C 30.19,28.7383 29.69,28.7383 29,27.5C 28.5172,26.552 28.3505,25.552 28.5,24.5C 29.8333,18.5 29.8333,12.5 28.5,6.5C 28.3118,4.89674 28.8118,3.56341 30,2.5C 30.4997,10.8267 30.6664,19.16 30.5,27.5 Z"/></g>
<g><path style="opacity:0.016" fill="#364181" d="M 18.5,21.5 C 18.5,22.1667 18.8333,22.5 19.5,22.5C 15.7016,23.4834 11.7016,23.8168 7.5,23.5C 11.0606,22.7698 14.7272,22.1031 18.5,21.5 Z"/></g>
<g><path style="opacity:0.969" fill="#31407b" d="M 28.5,8.5 C 27.3294,13.8175 27.3294,19.1509 28.5,24.5C 27.1667,24.5 25.8333,24.5 24.5,24.5C 24.1667,24.5 23.8333,24.5 23.5,24.5C 22.8333,24.1667 22.1667,23.8333 21.5,23.5C 20.8333,23.1667 20.1667,22.8333 19.5,22.5C 18.8333,22.5 18.5,22.1667 18.5,21.5C 18.5,21.1667 18.5,20.8333 18.5,20.5C 19.8333,20.5 20.5,19.8333 20.5,18.5C 20.8333,18.5 21.1667,18.5 21.5,18.5C 22.1667,18.5 22.5,18.8333 22.5,19.5C 22.5,19.8333 22.5,20.1667 22.5,20.5C 22.7496,21.9221 23.583,22.9221 25,23.5C 25.4643,22.9056 25.631,22.2389 25.5,21.5C 26.3238,17.6877 26.8238,13.6877 27,9.5C 27.3826,8.94404 27.8826,8.61071 28.5,8.5 Z"/></g>
<g><path style="opacity:0.996" fill="#37457d" d="M 34.5,14.5 C 35.4767,17.2869 35.81,20.2869 35.5,23.5C 34.9744,25.2303 33.9744,26.5637 32.5,27.5C 32.5,26.8333 32.5,26.1667 32.5,25.5C 33.3382,25.1583 33.6716,24.4916 33.5,23.5C 33.5,23.1667 33.5,22.8333 33.5,22.5C 34.4731,20.0521 34.8064,17.3854 34.5,14.5 Z"/></g>
<g><path style="opacity:0.024" fill="#283561" d="M 57.5,22.5 C 57.8333,22.5 58.1667,22.5 58.5,22.5C 58.5,23.1667 58.5,23.8333 58.5,24.5C 57.5,24.5 56.5,24.5 55.5,24.5C 55.5,24.1667 55.5,23.8333 55.5,23.5C 56.4916,23.6716 57.1583,23.3382 57.5,22.5 Z"/></g>
<g><path style="opacity:0.943" fill="#33437d" d="M 61.5,20.5 C 61.8333,20.5 62.1667,20.5 62.5,20.5C 62.2627,21.791 62.596,22.791 63.5,23.5C 63.5,28.8333 63.5,34.1667 63.5,39.5C 63.1667,39.5 62.8333,39.5 62.5,39.5C 62.5,38.8333 62.5,38.1667 62.5,37.5C 62.6655,33.4862 62.4988,29.4862 62,25.5C 61.2917,26.3805 60.4584,27.0472 59.5,27.5C 59.5,27.1667 59.5,26.8333 59.5,26.5C 59.5,26.1667 59.5,25.8333 59.5,25.5C 61.2132,24.3646 61.8799,22.698 61.5,20.5 Z"/></g>
<g><path style="opacity:0.588" fill="#35457e" d="M 21.5,23.5 C 22.1667,23.8333 22.8333,24.1667 23.5,24.5C 22.791,25.404 21.791,25.7373 20.5,25.5C 16.8333,25.5 13.1667,25.5 9.5,25.5C 8.83333,25.5 8.16667,25.5 7.5,25.5C 7.5,25.1667 7.5,24.8333 7.5,24.5C 12.3633,24.8195 17.03,24.4861 21.5,23.5 Z"/></g>
<g><path style="opacity:0.965" fill="#30407c" d="M 23.5,24.5 C 23.8333,24.5 24.1667,24.5 24.5,24.5C 24.5,25.8333 24.5,27.1667 24.5,28.5C 22.5,28.5 20.5,28.5 18.5,28.5C 18.1667,27.8333 17.8333,27.1667 17.5,26.5C 18.791,26.7373 19.791,26.404 20.5,25.5C 21.791,25.7373 22.791,25.404 23.5,24.5 Z"/></g>
<g><path style="opacity:1" fill="#4a548a" d="M 42.5,25.5 C 45.9311,26.1347 49.2644,27.1347 52.5,28.5C 47.9269,27.9766 43.2603,27.9766 38.5,28.5C 38.5,27.8333 38.5,27.1667 38.5,26.5C 39.7079,25.7659 41.0413,25.4326 42.5,25.5 Z"/></g>
<g><path style="opacity:1" fill="#2d3e7c" d="M 46.5,24.5 C 49.5,24.5 52.5,24.5 55.5,24.5C 56.209,25.404 57.209,25.7373 58.5,25.5C 58.5,26.1667 58.8333,26.5 59.5,26.5C 59.5,26.8333 59.5,27.1667 59.5,27.5C 59.1583,28.3382 58.4916,28.6716 57.5,28.5C 57.1667,28.5 56.8333,28.5 56.5,28.5C 55.1667,28.5 53.8333,28.5 52.5,28.5C 49.2644,27.1347 45.9311,26.1347 42.5,25.5C 44.099,25.7678 45.4324,25.4345 46.5,24.5 Z"/></g>
<g><path style="opacity:1" fill="#283a7b" d="M 9.5,25.5 C 13.1667,25.5 16.8333,25.5 20.5,25.5C 19.791,26.404 18.791,26.7373 17.5,26.5C 13.5239,27.3307 9.52387,27.4973 5.5,27C 7.05814,26.79 8.39147,26.29 9.5,25.5 Z"/></g>
<g><path style="opacity:0.989" fill="#283976" d="M 35.5,23.5 C 36.5,24.8333 37.5,24.8333 38.5,23.5C 38.5,24.5 38.5,25.5 38.5,26.5C 38.5,27.1667 38.5,27.8333 38.5,28.5C 37.6618,28.8417 37.3284,29.5084 37.5,30.5C 36.5084,30.3284 35.8417,30.6618 35.5,31.5C 34.6618,31.8417 34.3284,32.5084 34.5,33.5C 34.5,33.8333 34.5,34.1667 34.5,34.5C 33.8333,34.8333 33.1667,35.1667 32.5,35.5C 32.1667,35.5 31.8333,35.5 31.5,35.5C 31.5,34.8333 31.1667,34.5 30.5,34.5C 30.1667,34.5 29.8333,34.5 29.5,34.5C 31.0311,33.0755 30.6977,32.4088 28.5,32.5C 28.5,31.8333 28.1667,31.5 27.5,31.5C 27.5,31.1667 27.5,30.8333 27.5,30.5C 26.7095,29.5987 25.7095,28.9321 24.5,28.5C 24.5,27.1667 24.5,25.8333 24.5,24.5C 25.8333,24.5 27.1667,24.5 28.5,24.5C 28.3505,25.552 28.5172,26.552 29,27.5C 29.69,28.7383 30.19,28.7383 30.5,27.5C 30.8333,27.5 31.1667,27.5 31.5,27.5C 31.8333,27.5 32.1667,27.5 32.5,27.5C 33.9744,26.5637 34.9744,25.2303 35.5,23.5 Z"/></g>
<g><path style="opacity:0.99" fill="#3e4980" d="M 3.5,22.5 C 3.83333,23.8333 4.16667,23.8333 4.5,22.5C 4.83333,22.5 5.16667,22.5 5.5,22.5C 5.84171,23.3382 6.50838,23.6716 7.5,23.5C 7.5,23.8333 7.5,24.1667 7.5,24.5C 3.5,24.8333 3.5,25.1667 7.5,25.5C 8.16667,25.5 8.83333,25.5 9.5,25.5C 8.39147,26.29 7.05814,26.79 5.5,27C 9.52387,27.4973 13.5239,27.3307 17.5,26.5C 17.8333,27.1667 18.1667,27.8333 18.5,28.5C 14.6174,28.1373 10.6174,28.1373 6.5,28.5C 5.29049,28.9321 4.29049,29.5987 3.5,30.5C 0.940537,27.9102 0.940537,25.2435 3.5,22.5 Z"/></g>
<g><path style="opacity:0.999" fill="#283979" d="M 3.5,22.5 C 0.940537,25.2435 0.940537,27.9102 3.5,30.5C 11.5,30.5 19.5,30.5 27.5,30.5C 27.5,30.8333 27.5,31.1667 27.5,31.5C 19.1401,31.1688 10.8068,31.5021 2.5,32.5C 2.95689,33.2975 3.62356,33.6309 4.5,33.5C 4.83333,33.5 5.16667,33.5 5.5,33.5C 5.15829,34.3382 4.49162,34.6716 3.5,34.5C 2.06888,34.8807 1.23555,35.8807 1,37.5C 0.76791,36.2625 0.26791,35.2625 -0.5,34.5C -0.5,32.1667 -0.5,29.8333 -0.5,27.5C 0.358571,24.7884 1.52524,22.1218 3,19.5C 3.48278,20.448 3.64945,21.448 3.5,22.5 Z"/></g>
<g><path style="opacity:0.427" fill="#475588" d="M 6.5,28.5 C 12.5,29.8333 18.5,29.8333 24.5,28.5C 25.7095,28.9321 26.7095,29.5987 27.5,30.5C 19.5,30.5 11.5,30.5 3.5,30.5C 4.29049,29.5987 5.29049,28.9321 6.5,28.5 Z"/></g>
<g><path style="opacity:0.428" fill="#495689" d="M 38.5,28.5 C 44.5,29.8333 50.5,29.8333 56.5,28.5C 56.8333,28.5 57.1667,28.5 57.5,28.5C 57.9175,29.2216 58.5842,29.7216 59.5,30C 52.1742,30.4997 44.8409,30.6663 37.5,30.5C 37.3284,29.5084 37.6618,28.8417 38.5,28.5 Z"/></g>
<g><path style="opacity:0.998" fill="#283a79" d="M 62.5,37.5 C 61.8423,36.6016 61.1757,35.6016 60.5,34.5C 59.7025,34.9569 59.3691,35.6236 59.5,36.5C 58.8333,36.5 58.1667,36.5 57.5,36.5C 55.9731,36.573 54.9731,35.9063 54.5,34.5C 54.8333,34.5 55.1667,34.5 55.5,34.5C 56.391,33.8902 57.391,33.5569 58.5,33.5C 59.3764,33.6309 60.0431,33.2975 60.5,32.5C 52.1932,31.5021 43.8599,31.1688 35.5,31.5C 35.8417,30.6618 36.5084,30.3284 37.5,30.5C 44.8409,30.6663 52.1742,30.4997 59.5,30C 58.5842,29.7216 57.9175,29.2216 57.5,28.5C 58.4916,28.6716 59.1583,28.3382 59.5,27.5C 60.4584,27.0472 61.2917,26.3805 62,25.5C 62.4988,29.4862 62.6655,33.4862 62.5,37.5 Z"/></g>
<g><path style="opacity:0.949" fill="#2b3b77" d="M 27.5,31.5 C 28.1667,31.5 28.5,31.8333 28.5,32.5C 28.1583,33.3382 27.4916,33.6716 26.5,33.5C 19.1667,32.1667 11.8333,32.1667 4.5,33.5C 3.62356,33.6309 2.95689,33.2975 2.5,32.5C 10.8068,31.5021 19.1401,31.1688 27.5,31.5 Z"/></g>
<g><path style="opacity:0.949" fill="#2b3b77" d="M 35.5,31.5 C 43.8599,31.1688 52.1932,31.5021 60.5,32.5C 60.0431,33.2975 59.3764,33.6309 58.5,33.5C 51.1667,32.1667 43.8333,32.1667 36.5,33.5C 35.8333,33.5 35.1667,33.5 34.5,33.5C 34.3284,32.5084 34.6618,31.8417 35.5,31.5 Z"/></g>
<g><path style="opacity:0.114" fill="#4f5b8c" d="M 4.5,33.5 C 11.8333,32.1667 19.1667,32.1667 26.5,33.5C 25.391,33.5569 24.391,33.8902 23.5,34.5C 18.1667,33.1667 12.8333,33.1667 7.5,34.5C 6.83333,34.1667 6.16667,33.8333 5.5,33.5C 5.16667,33.5 4.83333,33.5 4.5,33.5 Z"/></g>
<g><path style="opacity:0.114" fill="#515c8d" d="M 36.5,33.5 C 43.8333,32.1667 51.1667,32.1667 58.5,33.5C 57.391,33.5569 56.391,33.8902 55.5,34.5C 50.1667,33.1667 44.8333,33.1667 39.5,34.5C 38.609,33.8902 37.609,33.5569 36.5,33.5 Z"/></g>
<g><path style="opacity:0.993" fill="#283978" d="M 28.5,32.5 C 30.6977,32.4088 31.0311,33.0755 29.5,34.5C 28.7659,35.7079 28.4326,37.0413 28.5,38.5C 28.5,39.1667 28.5,39.8333 28.5,40.5C 27.8826,40.6107 27.3826,40.944 27,41.5C 26.6667,45.1667 26.3333,48.8333 26,52.5C 25.6174,51.944 25.1174,51.6107 24.5,51.5C 24.5,48.8333 24.5,46.1667 24.5,43.5C 27.4007,40.7009 27.0674,38.3676 23.5,36.5C 24.9002,35.8999 25.9002,34.8999 26.5,33.5C 27.4916,33.6716 28.1583,33.3382 28.5,32.5 Z"/></g>
<g><path style="opacity:0.996" fill="#38427d" d="M 5.5,33.5 C 6.16667,33.8333 6.83333,34.1667 7.5,34.5C 10.5,34.5 13.5,34.5 16.5,34.5C 13.6946,35.3195 10.6946,35.8195 7.5,36C 8.05596,36.3826 8.38929,36.8826 8.5,37.5C 4.55096,37.6932 4.55096,38.1932 8.5,39C 7.26253,39.2321 6.26253,39.7321 5.5,40.5C 5.16667,40.5 4.83333,40.5 4.5,40.5C 4.5,40.1667 4.5,39.8333 4.5,39.5C 4.5,38.8333 4.5,38.1667 4.5,37.5C 4.5,36.8333 4.16667,36.5 3.5,36.5C 3.5,35.8333 3.5,35.1667 3.5,34.5C 4.49162,34.6716 5.15829,34.3382 5.5,33.5 Z"/></g>
<g><path style="opacity:0.992" fill="#263876" d="M 34.5,33.5 C 35.1667,33.5 35.8333,33.5 36.5,33.5C 38.8583,34.8538 40.1917,36.5204 40.5,38.5C 40.5,39.8333 39.8333,40.5 38.5,40.5C 37.719,38.6777 36.5523,38.0111 35,38.5C 34.51,37.2068 34.3433,35.8734 34.5,34.5C 34.5,34.1667 34.5,33.8333 34.5,33.5 Z"/></g>
<g><path style="opacity:1" fill="#2d3d7b" d="M 26.5,33.5 C 25.9002,34.8999 24.9002,35.8999 23.5,36.5C 21.302,36.1201 19.6354,36.7868 18.5,38.5C 15.0613,38.7471 11.728,38.4137 8.5,37.5C 8.38929,36.8826 8.05596,36.3826 7.5,36C 10.6946,35.8195 13.6946,35.3195 16.5,34.5C 18.8333,34.5 21.1667,34.5 23.5,34.5C 24.391,33.8902 25.391,33.5569 26.5,33.5 Z"/></g>
<g><path style="opacity:1" fill="#2e3f7b" d="M 36.5,33.5 C 37.609,33.5569 38.609,33.8902 39.5,34.5C 42.8333,34.5 46.1667,34.5 49.5,34.5C 49.631,35.2389 49.4643,35.9056 49,36.5C 47.6976,37.0848 46.531,37.7515 45.5,38.5C 44.1667,38.5 42.8333,38.5 41.5,38.5C 41.1667,37.1667 40.8333,37.1667 40.5,38.5C 40.1917,36.5204 38.8583,34.8538 36.5,33.5 Z"/></g>
<g><path style="opacity:1" fill="#35447f" d="M 49.5,34.5 C 51.1667,34.5 52.8333,34.5 54.5,34.5C 54.9731,35.9063 55.9731,36.573 57.5,36.5C 57.5,36.8333 57.5,37.1667 57.5,37.5C 53.5341,38.1621 49.5341,38.4955 45.5,38.5C 46.531,37.7515 47.6976,37.0848 49,36.5C 49.4643,35.9056 49.631,35.2389 49.5,34.5 Z"/></g>
<g><path style="opacity:0.959" fill="#3b487c" d="M -0.5,34.5 C 0.26791,35.2625 0.76791,36.2625 1,37.5C 1.23555,35.8807 2.06888,34.8807 3.5,34.5C 3.5,35.1667 3.5,35.8333 3.5,36.5C 4.16667,36.5 4.5,36.8333 4.5,37.5C 4.5,38.1667 4.5,38.8333 4.5,39.5C 4.16667,39.5 3.83333,39.5 3.5,39.5C 2.88258,39.3893 2.38258,39.056 2,38.5C 1.72158,39.4158 1.22158,40.0825 0.5,40.5C 0.166667,40.5 -0.166667,40.5 -0.5,40.5C -0.5,38.5 -0.5,36.5 -0.5,34.5 Z"/></g>
<g><path style="opacity:0.983" fill="#34417d" d="M 23.5,36.5 C 27.0674,38.3676 27.4007,40.7009 24.5,43.5C 23.5166,47.2984 23.1832,51.2984 23.5,55.5C 22.9262,51.8355 22.0928,48.1688 21,44.5C 17.9621,47.3694 15.1288,50.3694 12.5,53.5C 11.2164,52.4427 9.8831,51.4427 8.5,50.5C 8.5,50.1667 8.5,49.8333 8.5,49.5C 8.83333,49.5 9.16667,49.5 9.5,49.5C 9.83333,50.8333 10.1667,50.8333 10.5,49.5C 11.1667,49.5 11.5,49.1667 11.5,48.5C 12.1667,48.5 12.5,48.1667 12.5,47.5C 13.1667,47.5 13.5,47.1667 13.5,46.5C 14.1667,46.5 14.5,46.1667 14.5,45.5C 15.1667,45.5 15.5,45.1667 15.5,44.5C 16.1667,44.5 16.5,44.1667 16.5,43.5C 17.1667,43.5 17.5,43.1667 17.5,42.5C 18.1667,42.5 18.5,42.1667 18.5,41.5C 19.1667,41.5 19.5,41.1667 19.5,40.5C 22.1864,39.0119 21.8531,38.3453 18.5,38.5C 19.6354,36.7868 21.302,36.1201 23.5,36.5 Z"/></g>
<g><path style="opacity:0.943" fill="#313f71" d="M 62.5,37.5 C 62.5,38.1667 62.5,38.8333 62.5,39.5C 62.5,40.1667 62.5,40.8333 62.5,41.5C 61.7321,40.7375 61.2321,39.7375 61,38.5C 60.6174,39.056 60.1174,39.3893 59.5,39.5C 58.794,38.4427 58.4607,38.7761 58.5,40.5C 58.1667,40.5 57.8333,40.5 57.5,40.5C 56.7375,39.7321 55.7375,39.2321 54.5,39C 55.7375,38.7679 56.7375,38.2679 57.5,37.5C 58.4916,37.6716 59.1583,37.3382 59.5,36.5C 59.3691,35.6236 59.7025,34.9569 60.5,34.5C 61.1757,35.6016 61.8423,36.6016 62.5,37.5 Z"/></g>
<g><path style="opacity:0.872" fill="#263574" d="M 31.5,35.5 C 31.8333,35.5 32.1667,35.5 32.5,35.5C 32.5,35.8333 32.5,36.1667 32.5,36.5C 32.3284,37.4916 32.6618,38.1583 33.5,38.5C 33.5,38.8333 33.5,39.1667 33.5,39.5C 33.5,44.5 33.5,49.5 33.5,54.5C 33.5,54.8333 33.5,55.1667 33.5,55.5C 33.1667,55.5 32.8333,55.5 32.5,55.5C 31.5093,49.021 31.176,42.3543 31.5,35.5 Z"/></g>
<g><path style="opacity:0.016" fill="#4d4c7f" d="M 43.5,40.5 C 46.6399,39.3592 49.9733,39.1925 53.5,40C 50.4133,40.2589 47.4133,40.7589 44.5,41.5C 44.5,40.8333 44.1667,40.5 43.5,40.5 Z"/></g>
<g><path style="opacity:0.985" fill="#343f78" d="M 3.5,39.5 C 3.5,40.1667 3.83333,40.5 4.5,40.5C 4.83333,41.8333 5.16667,41.8333 5.5,40.5C 6.53747,41.9303 7.20414,43.597 7.5,45.5C 6.83333,45.5 6.5,45.8333 6.5,46.5C 6.5,47.1667 6.83333,47.5 7.5,47.5C 7.5,48.1667 7.83333,48.5 8.5,48.5C 8.5,48.8333 8.5,49.1667 8.5,49.5C 8.5,49.8333 8.5,50.1667 8.5,50.5C 7.54163,50.0472 6.7083,49.3805 6,48.5C 5.53566,49.0944 5.36899,49.7611 5.5,50.5C 4.83333,50.5 4.5,50.8333 4.5,51.5C 2.83333,49.5 1.16667,47.5 -0.5,45.5C -0.5,44.5 -0.5,43.5 -0.5,42.5C 0.338246,42.1583 0.67158,41.4916 0.5,40.5C 1.22158,40.0825 1.72158,39.4158 2,38.5C 2.38258,39.056 2.88258,39.3893 3.5,39.5 Z"/></g>
<g><path style="opacity:0.992" fill="#32417c" d="M 40.5,38.5 C 40.8333,38.5 41.1667,38.5 41.5,38.5C 41.8333,39.5 42.5,40.1667 43.5,40.5C 44.1667,40.5 44.5,40.8333 44.5,41.5C 44.5,41.8333 44.5,42.1667 44.5,42.5C 43.1667,42.5 42.5,43.1667 42.5,44.5C 42.1667,44.5 41.8333,44.5 41.5,44.5C 41.5,43.8333 41.1667,43.5 40.5,43.5C 40.5,42.8333 40.1667,42.5 39.5,42.5C 39.5,41.8333 39.1667,41.5 38.5,41.5C 38.5,41.1667 38.5,40.8333 38.5,40.5C 39.8333,40.5 40.5,39.8333 40.5,38.5 Z"/></g>
<g><path style="opacity:0.016" fill="#363a59" d="M 19.5,40.5 C 18.8333,40.5 18.5,40.8333 18.5,41.5C 17.8333,41.5 17.5,41.8333 17.5,42.5C 16.8333,42.5 16.5,42.8333 16.5,43.5C 15.8333,43.5 15.5,43.8333 15.5,44.5C 14.8333,44.5 14.5,44.8333 14.5,45.5C 13.8333,45.5 13.5,45.8333 13.5,46.5C 12.8333,46.5 12.5,46.8333 12.5,47.5C 11.8333,47.5 11.5,47.8333 11.5,48.5C 10.8333,48.5 10.5,48.8333 10.5,49.5C 10.1667,49.5 9.83333,49.5 9.5,49.5C 9.5,48.8333 9.16667,48.5 8.5,48.5C 7.83333,48.5 7.5,48.1667 7.5,47.5C 6.83333,47.5 6.5,47.1667 6.5,46.5C 7.16667,46.5 7.5,46.1667 7.5,45.5C 8.45837,45.9528 9.2917,46.6195 10,47.5C 12.1667,45.3333 14.3333,43.1667 16.5,41C 14.1667,40.6667 11.8333,40.3333 9.5,40C 13.0267,39.1925 16.3601,39.3592 19.5,40.5 Z"/></g>
<g><path style="opacity:1" fill="#31417c" d="M 34.5,34.5 C 34.3433,35.8734 34.51,37.2068 35,38.5C 36.5523,38.0111 37.719,38.6777 38.5,40.5C 37.1667,40.8333 37.1667,41.1667 38.5,41.5C 39.1667,41.5 39.5,41.8333 39.5,42.5C 39.5,42.8333 39.5,43.1667 39.5,43.5C 38.5206,46.6248 38.1872,49.9581 38.5,53.5C 37.5655,54.5676 37.2322,55.901 37.5,57.5C 36.8333,57.5 36.1667,57.5 35.5,57.5C 35.5654,57.0618 35.3988,56.7284 35,56.5C 34.0814,59.4016 33.2481,59.7349 32.5,57.5C 33.3382,57.1583 33.6716,56.4916 33.5,55.5C 33.5,55.1667 33.5,54.8333 33.5,54.5C 34.8333,49.5 34.8333,44.5 33.5,39.5C 33.5,39.1667 33.5,38.8333 33.5,38.5C 33.6716,37.5084 33.3382,36.8417 32.5,36.5C 32.5,36.1667 32.5,35.8333 32.5,35.5C 33.1667,35.1667 33.8333,34.8333 34.5,34.5 Z"/></g>
<g><path style="opacity:0.971" fill="#373f7a" d="M 62.5,41.5 C 62.5,42.1667 62.8333,42.5 63.5,42.5C 63.5,43.5 63.5,44.5 63.5,45.5C 61.8333,47.5 60.1667,49.5 58.5,51.5C 58.1667,50.1667 57.8333,50.1667 57.5,51.5C 57.1667,51.5 56.8333,51.5 56.5,51.5C 56.5,50.1667 55.8333,49.5 54.5,49.5C 53.9935,46.1403 54.9935,43.1403 57.5,40.5C 57.8333,43.1667 58.1667,43.1667 58.5,40.5C 59.1667,40.5 59.5,40.1667 59.5,39.5C 60.1174,39.3893 60.6174,39.056 61,38.5C 61.2321,39.7375 61.7321,40.7375 62.5,41.5 Z"/></g>
<g><path style="opacity:0.992" fill="#30407b" d="M 44.5,42.5 C 46.8333,44.1667 48.8333,46.1667 50.5,48.5C 49.1667,48.5 48.5,49.1667 48.5,50.5C 46.1667,48.8333 44.1667,46.8333 42.5,44.5C 42.5,43.1667 43.1667,42.5 44.5,42.5 Z"/></g>
<g><path style="opacity:0.012" fill="#3f4a8b" d="M 39.5,43.5 C 39.8333,43.5 40.1667,43.5 40.5,43.5C 41.1667,43.5 41.5,43.8333 41.5,44.5C 40.9115,47.6104 40.2448,50.6104 39.5,53.5C 39.5,50.1667 39.5,46.8333 39.5,43.5 Z"/></g>
<g><path style="opacity:0.98" fill="#2d3d7a" d="M 50.5,48.5 C 51.7046,50.1376 53.0379,50.4709 54.5,49.5C 55.8333,49.5 56.5,50.1667 56.5,51.5C 56.5,51.8333 56.5,52.1667 56.5,52.5C 55.8333,52.5 55.5,52.8333 55.5,53.5C 54.8333,53.5 54.5,53.8333 54.5,54.5C 53.8333,54.5 53.5,54.8333 53.5,55.5C 52.8333,55.5 52.5,55.8333 52.5,56.5C 51.8333,56.5 51.5,56.8333 51.5,57.5C 51.1667,57.5 50.8333,57.5 50.5,57.5C 50.5,56.1667 49.8333,55.5 48.5,55.5C 48.9528,54.5416 49.6195,53.7083 50.5,53C 49.6195,52.2917 48.9528,51.4584 48.5,50.5C 48.5,49.1667 49.1667,48.5 50.5,48.5 Z"/></g>
<g><path style="opacity:0.016" fill="#3f3f7f" d="M 57.5,51.5 C 57.8333,51.5 58.1667,51.5 58.5,51.5C 58.3147,52.1701 57.9813,52.1701 57.5,51.5 Z"/></g>
<g><path style="opacity:0.884" fill="#293a79" d="M 8.5,50.5 C 9.8831,51.4427 11.2164,52.4427 12.5,53.5C 12.5,54.8333 11.8333,55.5 10.5,55.5C 10.1667,55.5 9.83333,55.5 9.5,55.5C 9.5,54.8333 9.16667,54.5 8.5,54.5C 8.5,53.8333 8.16667,53.5 7.5,53.5C 7.5,52.8333 7.16667,52.5 6.5,52.5C 6.5,51.8333 6.16667,51.5 5.5,51.5C 5.5,51.1667 5.5,50.8333 5.5,50.5C 5.36899,49.7611 5.53566,49.0944 6,48.5C 6.7083,49.3805 7.54163,50.0472 8.5,50.5 Z"/></g>
<g><path style="opacity:0.016" fill="#3f3f7f" d="M 56.5,52.5 C 56.8333,52.5 57.1667,52.5 57.5,52.5C 57.3147,53.1701 56.9813,53.1701 56.5,52.5 Z"/></g>
<g><path style="opacity:0.949" fill="#3b4780" d="M 28.5,40.5 C 27.6234,45.4168 27.6234,50.0835 28.5,54.5C 28.1667,54.5 27.8333,54.5 27.5,54.5C 26.5655,55.5676 26.2322,56.901 26.5,58.5C 25.1667,58.5 23.8333,58.5 22.5,58.5C 23.1098,57.609 23.4431,56.609 23.5,55.5C 24.4345,54.4324 24.7678,53.099 24.5,51.5C 25.1174,51.6107 25.6174,51.944 26,52.5C 26.3333,48.8333 26.6667,45.1667 27,41.5C 27.3826,40.944 27.8826,40.6107 28.5,40.5 Z"/></g>
<g><path style="opacity:0.435" fill="#2f3e78" d="M 29.5,34.5 C 29.8333,34.5 30.1667,34.5 30.5,34.5C 30.6664,43.1731 30.4998,51.8397 30,60.5C 29.2086,59.255 28.7086,57.9217 28.5,56.5C 27.6618,56.1583 27.3284,55.4916 27.5,54.5C 27.8333,54.5 28.1667,54.5 28.5,54.5C 29.8333,49.1667 29.8333,43.8333 28.5,38.5C 28.4326,37.0413 28.7659,35.7079 29.5,34.5 Z"/></g>
<g><path style="opacity:0.004" fill="#242186" d="M 4.5,51.5 C 4.83333,51.5 5.16667,51.5 5.5,51.5C 6.16667,51.5 6.5,51.8333 6.5,52.5C 7.16667,52.5 7.5,52.8333 7.5,53.5C 8.16667,53.5 8.5,53.8333 8.5,54.5C 9.16667,54.5 9.5,54.8333 9.5,55.5C 9.5,56.1667 9.83333,56.5 10.5,56.5C 10.1034,57.525 9.43677,57.6917 8.5,57C 6.53594,55.549 5.20261,53.7157 4.5,51.5 Z"/></g>
<g><path style="opacity:0.981" fill="#33427d" d="M 12.5,53.5 C 15.0472,54.9336 17.3805,56.6002 19.5,58.5C 18.1667,58.5 17.5,59.1667 17.5,60.5C 15.0313,59.4314 12.6979,58.0981 10.5,56.5C 10.5,56.1667 10.5,55.8333 10.5,55.5C 11.8333,55.5 12.5,54.8333 12.5,53.5 Z"/></g>
<g><path style="opacity:0.989" fill="#3c4a83" d="M 48.5,55.5 C 49.8333,55.5 50.5,56.1667 50.5,57.5C 50.5,57.8333 50.5,58.1667 50.5,58.5C 49.5084,58.3284 48.8417,58.6618 48.5,59.5C 47.8333,59.5 47.5,59.8333 47.5,60.5C 46.5084,60.3284 45.8417,60.6618 45.5,61.5C 44.8333,61.5 44.1667,61.5 43.5,61.5C 43.1788,59.9519 42.1788,59.2852 40.5,59.5C 40.5,59.1667 40.5,58.8333 40.5,58.5C 43.1667,57.5 45.8333,56.5 48.5,55.5 Z"/></g>
<g><path style="opacity:0.004" fill="#24223d" d="M 55.5,53.5 C 55.8333,53.5 56.1667,53.5 56.5,53.5C 56.5,55.5 55.5,56.5 53.5,56.5C 53.5,56.1667 53.5,55.8333 53.5,55.5C 54.1667,55.5 54.5,55.1667 54.5,54.5C 55.1667,54.5 55.5,54.1667 55.5,53.5 Z"/></g>
<g><path style="opacity:0.012" fill="#005554" d="M 52.5,56.5 C 52.8333,56.5 53.1667,56.5 53.5,56.5C 53.3147,57.1701 52.9813,57.1701 52.5,56.5 Z"/></g>
<g><path style="opacity:0.016" fill="#3f3f7f" d="M 51.5,57.5 C 51.8333,57.5 52.1667,57.5 52.5,57.5C 52.3147,58.1701 51.9813,58.1701 51.5,57.5 Z"/></g>
<g><path style="opacity:0.99" fill="#3b4882" d="M 19.5,58.5 C 20.5,58.5 21.5,58.5 22.5,58.5C 23.5676,59.4345 24.901,59.7678 26.5,59.5C 27.8333,59.8333 27.8333,60.1667 26.5,60.5C 24.2188,60.0773 22.5521,60.744 21.5,62.5C 20.8333,62.5 20.1667,62.5 19.5,62.5C 18.8333,61.8333 18.1667,61.1667 17.5,60.5C 17.5,59.1667 18.1667,58.5 19.5,58.5 Z"/></g>
<g><path style="opacity:0.012" fill="#545554" d="M 50.5,58.5 C 50.8333,58.5 51.1667,58.5 51.5,58.5C 51.3147,59.1701 50.9813,59.1701 50.5,58.5 Z"/></g>
<g><path style="opacity:0.993" fill="#283a79" d="M 30.5,34.5 C 31.1667,34.5 31.5,34.8333 31.5,35.5C 31.176,42.3543 31.5093,49.021 32.5,55.5C 32.5,56.1667 32.5,56.8333 32.5,57.5C 33.2481,59.7349 34.0814,59.4016 35,56.5C 35.3988,56.7284 35.5654,57.0618 35.5,57.5C 35.4606,58.5832 35.1272,59.5832 34.5,60.5C 35.0253,61.1924 35.6919,61.6924 36.5,62C 35.2625,62.2321 34.2625,62.7321 33.5,63.5C 32.1667,63.5 30.8333,63.5 29.5,63.5C 28.6935,62.2719 27.6935,61.2719 26.5,60.5C 27.8333,60.1667 27.8333,59.8333 26.5,59.5C 26.5,59.1667 26.5,58.8333 26.5,58.5C 26.2322,56.901 26.5655,55.5676 27.5,54.5C 27.3284,55.4916 27.6618,56.1583 28.5,56.5C 28.7086,57.9217 29.2086,59.255 30,60.5C 30.4998,51.8397 30.6664,43.1731 30.5,34.5 Z"/></g>
<g><path style="opacity:0.004" fill="#0000d2" d="M 48.5,60.5 C 48.5,60.1667 48.5,59.8333 48.5,59.5C 49.1667,59.5 49.8333,59.5 50.5,59.5C 50.1583,60.3382 49.4916,60.6716 48.5,60.5 Z"/></g>
<g><path style="opacity:0.973" fill="#2c3d7b" d="M 26.5,60.5 C 27.6935,61.2719 28.6935,62.2719 29.5,63.5C 27.5,63.5 25.5,63.5 23.5,63.5C 23.1583,62.6618 22.4916,62.3284 21.5,62.5C 22.5521,60.744 24.2188,60.0773 26.5,60.5 Z"/></g>
<g><path style="opacity:0.971" fill="#3c4782" d="M 38.5,53.5 C 38.8333,53.5 39.1667,53.5 39.5,53.5C 39.366,55.2915 39.6993,56.9582 40.5,58.5C 35.1667,58.8333 35.1667,59.1667 40.5,59.5C 42.1788,59.2852 43.1788,59.9519 43.5,61.5C 42.8333,61.5 42.5,61.8333 42.5,62.5C 41.209,62.2627 40.209,62.596 39.5,63.5C 37.5,63.5 35.5,63.5 33.5,63.5C 34.2625,62.7321 35.2625,62.2321 36.5,62C 35.6919,61.6924 35.0253,61.1924 34.5,60.5C 35.1272,59.5832 35.4606,58.5832 35.5,57.5C 36.1667,57.5 36.8333,57.5 37.5,57.5C 38.4345,56.4324 38.7678,55.099 38.5,53.5 Z"/></g>
<g><path style="opacity:0.012" fill="#545554" d="M 47.5,60.5 C 47.8333,60.5 48.1667,60.5 48.5,60.5C 48.3147,61.1701 47.9813,61.1701 47.5,60.5 Z"/></g>
<g><path style="opacity:0.004" fill="#211f37" d="M 45.5,62.5 C 45.5,62.1667 45.5,61.8333 45.5,61.5C 46.1667,61.5 46.8333,61.5 47.5,61.5C 47.1583,62.3382 46.4916,62.6716 45.5,62.5 Z"/></g>
<g><path style="opacity:0.016" fill="#4035a8" d="M 17.5,63.5 C 17.8417,62.6618 18.5084,62.3284 19.5,62.5C 19.5,62.8333 19.5,63.1667 19.5,63.5C 18.8333,63.5 18.1667,63.5 17.5,63.5 Z"/></g>
<g><path style="opacity:0.016" fill="#23223f" d="M 42.5,63.5 C 42.5,63.1667 42.5,62.8333 42.5,62.5C 43.5,62.5 44.5,62.5 45.5,62.5C 45.5,62.8333 45.5,63.1667 45.5,63.5C 44.5,63.5 43.5,63.5 42.5,63.5 Z"/></g>
</svg>
