<?xml version="1.0" encoding="UTF-8"?>
<!DOCTYPE svg PUBLIC "-//W3C//DTD SVG 1.1//EN" "http://www.w3.org/Graphics/SVG/1.1/DTD/svg11.dtd">
<svg xmlns="http://www.w3.org/2000/svg" version="1.1" width="512px" height="512px" style="shape-rendering:geometricPrecision; text-rendering:geometricPrecision; image-rendering:optimizeQuality; fill-rule:evenodd; clip-rule:evenodd" xmlns:xlink="http://www.w3.org/1999/xlink">
<g><path style="opacity:0.898" fill="#000000" d="M 234.5,6.5 C 239.844,6.33398 245.177,6.50065 250.5,7C 256.062,12.1626 255.729,16.8292 249.5,21C 243.664,21.4724 237.831,21.9724 232,22.5C 223.549,22.6188 220.716,18.6188 223.5,10.5C 224.5,9.66667 225.5,8.83333 226.5,8C 229.365,7.8171 232.031,7.3171 234.5,6.5 Z"/></g>
<g><path style="opacity:0.898" fill="#000000" d="M 277.5,7.5 C 285.678,7.59676 293.678,8.76342 301.5,11C 304.886,14.3731 305.386,18.2064 303,22.5C 300.753,23.9801 298.253,24.6467 295.5,24.5C 288.685,24.0273 282.019,22.8606 275.5,21C 271.188,15.7307 271.855,11.2307 277.5,7.5 Z"/></g>
<g><path style="opacity:0.89" fill="#000000" d="M 192.5,13.5 C 202.059,12.546 205.559,16.546 203,25.5C 202.097,26.7014 200.931,27.5348 199.5,28C 193.196,29.9346 186.863,31.768 180.5,33.5C 173.834,31.8312 171.668,27.8312 174,21.5C 175.214,19.9512 176.714,18.7845 178.5,18C 183.38,16.7878 188.047,15.2878 192.5,13.5 Z"/></g>
<g><path style="opacity:0.891" fill="#000000" d="M 327.5,17.5 C 335.433,19.0884 343.099,21.5884 350.5,25C 354.646,29.6253 354.313,33.9586 349.5,38C 348.333,38.1667 347.167,38.3333 346,38.5C 339.042,36.7736 332.209,34.6069 325.5,32C 321.054,26.3971 321.721,21.5638 327.5,17.5 Z"/></g>
<g><path style="opacity:0.885" fill="#000000" d="M 146.5,30.5 C 155.61,30.7717 158.443,35.1051 155,43.5C 149.582,46.793 144.082,49.9597 138.5,53C 128.991,54.4948 125.491,50.6615 128,41.5C 133.982,37.4294 140.149,33.7628 146.5,30.5 Z"/></g>
<g><path style="opacity:0.892" fill="#000000" d="M 372.5,38.5 C 381.833,39.9156 390,43.9156 397,50.5C 399.216,58.9427 396.049,62.776 387.5,62C 381.41,58.5396 375.577,54.7062 370,50.5C 367.517,45.7129 368.35,41.7129 372.5,38.5 Z"/></g>
<g><path style="opacity:0.979" fill="#000000" d="M 243.5,41.5 C 329.668,40.4876 395.502,76.1543 441,148.5C 479.837,222.068 478.837,295.068 438,367.5C 398.036,429.087 341.203,462.921 267.5,469C 181.303,470.496 115.47,434.996 70,362.5C 31.1631,288.932 32.1631,215.932 73,143.5C 113.168,81.9859 170.002,47.9859 243.5,41.5 Z M 253.5,102.5 C 261.326,105.409 268.993,108.909 276.5,113C 311.994,132.246 347.327,151.746 382.5,171.5C 376.444,176.196 369.777,179.863 362.5,182.5C 326.993,162.912 291.326,143.579 255.5,124.5C 227.66,139.921 199.66,155.088 171.5,170C 169.74,170.965 169.406,172.132 170.5,173.5C 198.997,189.581 227.33,205.914 255.5,222.5C 265.043,216.896 274.71,211.563 284.5,206.5C 290.937,209.761 297.271,213.261 303.5,217C 289.761,225.731 275.761,234.065 261.5,242C 259.086,243.885 256.419,244.552 253.5,244C 211.833,219.833 170.167,195.667 128.5,171.5C 170.068,148.218 211.735,125.218 253.5,102.5 Z M 118.5,182.5 C 125.054,186.028 131.554,189.695 138,193.5C 138.333,234.833 138.667,276.167 139,317.5C 168.248,336.209 197.748,354.542 227.5,372.5C 228.667,337.838 228.833,303.171 228,268.5C 218.915,263.04 209.749,257.707 200.5,252.5C 199.167,244.833 199.167,237.167 200.5,229.5C 216.33,238.247 231.996,247.247 247.5,256.5C 248.833,306.833 248.833,357.167 247.5,407.5C 204.416,381.543 161.583,355.21 119,328.5C 118.5,279.834 118.333,231.168 118.5,182.5 Z M 391.5,182.5 C 392.665,230.998 392.832,279.665 392,328.5C 349.265,355.563 306.265,382.229 263,408.5C 262.333,400.833 262.333,393.167 263,385.5C 298.915,362.791 335.082,340.457 371.5,318.5C 372.5,284.84 372.833,251.173 372.5,217.5C 342.358,233.825 312.525,250.825 283,268.5C 282.833,280.181 282.333,291.848 281.5,303.5C 275.086,306.789 268.919,310.456 263,314.5C 262.167,295.158 262.334,275.825 263.5,256.5C 306.557,232.312 349.223,207.645 391.5,182.5 Z"/></g>
<g><path style="opacity:0.886" fill="#000000" d="M 103.5,57.5 C 112.105,57.0084 115.272,61.0084 113,69.5C 107.418,75.6024 100.918,80.269 93.5,83.5C 86.5453,82.1528 84.3787,78.1528 87,71.5C 92.3976,66.5934 97.8976,61.9268 103.5,57.5 Z"/></g>
<g><path style="opacity:0.89" fill="#000000" d="M 415.5,67.5 C 417.482,67.9954 419.482,68.4954 421.5,69C 426.333,73.8333 431.167,78.6667 436,83.5C 437.206,93.4934 433.039,96.6601 423.5,93C 419.333,88.8333 415.167,84.6667 411,80.5C 408.098,74.4662 409.598,70.1329 415.5,67.5 Z"/></g>
<g><path style="opacity:0.884" fill="#000000" d="M 67.5,92.5 C 75.2008,92.3622 78.3674,96.0289 77,103.5C 72.8333,109 68.6667,114.5 64.5,120C 55.3228,122.492 51.4895,118.992 53,109.5C 57.3527,103.322 62.1861,97.6558 67.5,92.5 Z"/></g>
<g><path style="opacity:0.89" fill="#000000" d="M 447.5,105.5 C 449.857,105.337 452.19,105.503 454.5,106C 460.528,112.012 464.861,119.012 467.5,127C 466.321,134.257 462.321,136.257 455.5,133C 452,128.167 448.5,123.333 445,118.5C 442.467,113.351 443.3,109.018 447.5,105.5 Z"/></g>
<g><path style="opacity:0.887" fill="#000000" d="M 39.5,134.5 C 47.1485,134.314 50.3152,137.981 49,145.5C 46.1327,152.073 42.6327,158.239 38.5,164C 30.8741,166.023 27.0408,163.19 27,155.5C 29.6842,147.44 33.8509,140.44 39.5,134.5 Z"/></g>
<g><path style="opacity:0.892" fill="#000000" d="M 472.5,149.5 C 476.603,148.769 480.103,149.769 483,152.5C 485.796,159.056 488.296,165.723 490.5,172.5C 488.969,179.044 484.969,181.211 478.5,179C 476.951,177.786 475.785,176.286 475,174.5C 472.687,168.709 470.52,162.876 468.5,157C 468.944,153.941 470.277,151.441 472.5,149.5 Z"/></g>
<g><path style="opacity:0.894" fill="#000000" d="M 20.5,181.5 C 26.5299,180.868 29.8633,183.535 30.5,189.5C 29.1579,195.868 27.6579,202.202 26,208.5C 22.4144,214.029 18.081,214.695 13,210.5C 12.0419,208.801 11.5419,206.967 11.5,205C 12.4485,198.373 13.9485,191.873 16,185.5C 17.3968,183.93 18.8968,182.596 20.5,181.5 Z"/></g>
<g><path style="opacity:0.898" fill="#000000" d="M 488.5,197.5 C 490.857,197.337 493.19,197.503 495.5,198C 497.333,198.5 498.5,199.667 499,201.5C 500.436,207.949 501.603,214.449 502.5,221C 501.729,227.565 498.062,229.898 491.5,228C 489.667,227.5 488.5,226.333 488,224.5C 485.951,216.935 484.951,209.269 485,201.5C 485.69,199.65 486.856,198.316 488.5,197.5 Z"/></g>
<g><path style="opacity:0.908" fill="#000000" d="M 10.5,231.5 C 12.8568,231.337 15.1902,231.503 17.5,232C 19.3333,232.5 20.5,233.667 21,235.5C 21.6667,243.167 21.6667,250.833 21,258.5C 16.8292,264.729 12.1626,265.062 7,259.5C 6.33333,251.833 6.33333,244.167 7,236.5C 7.99728,234.677 9.16394,233.01 10.5,231.5 Z"/></g>
<g><path style="opacity:0.912" fill="#000000" d="M 493.5,247.5 C 495.857,247.337 498.19,247.503 500.5,248C 502.333,248.5 503.5,249.667 504,251.5C 504.667,259.167 504.667,266.833 504,274.5C 501.612,279.226 497.778,280.726 492.5,279C 491.667,278.167 490.833,277.333 490,276.5C 489.333,268.5 489.333,260.5 490,252.5C 490.997,250.677 492.164,249.01 493.5,247.5 Z"/></g>
<g><path style="opacity:0.894" fill="#000000" d="M 14.5,281.5 C 18.4925,281.245 21.3258,282.911 23,286.5C 25.0486,294.065 26.0486,301.731 26,309.5C 21.3333,314.833 16.6667,314.833 12,309.5C 10.564,303.051 9.39732,296.551 8.5,290C 8.45059,285.572 10.4506,282.738 14.5,281.5 Z"/></g>
<g><path style="opacity:0.892" fill="#000000" d="M 488.5,298.5 C 495.067,297.097 498.733,299.597 499.5,306C 498.773,314.095 496.44,321.595 492.5,328.5C 485.619,331.231 481.619,329.064 480.5,322C 481.763,315.449 483.263,308.949 485,302.5C 485.69,300.65 486.856,299.316 488.5,298.5 Z"/></g>
<g><path style="opacity:0.883" fill="#000000" d="M 26.5,330.5 C 30.0254,330.346 32.8587,331.679 35,334.5C 37.0571,340.281 39.3904,345.947 42,351.5C 42.2057,360.618 38.039,363.451 29.5,360C 25.6249,353.21 22.6249,346.044 20.5,338.5C 20.7004,334.32 22.7004,331.653 26.5,330.5 Z"/></g>
<g><path style="opacity:0.886" fill="#000000" d="M 472.5,346.5 C 479.265,344.787 483.265,347.287 484.5,354C 481.804,362.06 477.804,369.393 472.5,376C 464.333,377.167 460.833,373.667 462,365.5C 465.005,358.818 468.505,352.484 472.5,346.5 Z"/></g>
<g><path style="opacity:0.888" fill="#000000" d="M 46.5,376.5 C 49.1873,376.336 51.854,376.503 54.5,377C 58.3333,382.167 62.1667,387.333 66,392.5C 69.007,402.489 65.507,406.323 55.5,404C 49.9704,398.132 45.637,391.465 42.5,384C 42.9937,380.992 44.3271,378.492 46.5,376.5 Z"/></g>
<g><path style="opacity:0.89" fill="#000000" d="M 447.5,390.5 C 456.274,389.108 459.774,392.774 458,401.5C 454.213,406.956 450.046,412.123 445.5,417C 436.319,420.325 432.485,417.158 434,407.5C 438.394,401.622 442.894,395.955 447.5,390.5 Z"/></g>
<g><path style="opacity:0.892" fill="#000000" d="M 80.5,415.5 C 82.9237,416.03 85.257,416.864 87.5,418C 91.6667,422.167 95.8333,426.333 100,430.5C 102.652,440.844 98.819,444.344 88.5,441C 84,436.5 79.5,432 75,427.5C 73.0357,421.532 74.8691,417.532 80.5,415.5 Z"/></g>
<g><path style="opacity:0.884" fill="#000000" d="M 414.5,427.5 C 423.803,427.419 426.636,431.752 423,440.5C 418.123,445.046 412.956,449.213 407.5,453C 398.433,453.938 395.266,450.105 398,441.5C 403.398,436.593 408.898,431.927 414.5,427.5 Z"/></g>
<g><path style="opacity:0.886" fill="#000000" d="M 117.5,448.5 C 119.527,448.338 121.527,448.505 123.5,449C 128.334,452.252 133.334,455.252 138.5,458C 144.062,463.163 143.729,467.829 137.5,472C 135.5,472.667 133.5,472.667 131.5,472C 126.5,469 121.5,466 116.5,463C 111.195,457.737 111.528,452.904 117.5,448.5 Z"/></g>
<g><path style="opacity:0.887" fill="#000000" d="M 373.5,457.5 C 383.387,457.372 386.221,461.706 382,470.5C 376.406,474.048 370.573,477.215 364.5,480C 355.776,480.709 352.609,476.876 355,468.5C 360.982,464.429 367.149,460.763 373.5,457.5 Z"/></g>
<g><path style="opacity:0.891" fill="#000000" d="M 161.5,472.5 C 169.829,473.33 177.829,475.497 185.5,479C 188.769,482.453 189.269,486.286 187,490.5C 185.316,492.066 183.316,493.066 181,493.5C 174.024,491.397 167.191,488.897 160.5,486C 156.305,481.044 156.639,476.544 161.5,472.5 Z"/></g>
<g><path style="opacity:0.898" fill="#000000" d="M 328.5,477.5 C 336.197,478.033 339.03,482.033 337,489.5C 336.167,490.333 335.333,491.167 334.5,492C 326.781,495.265 318.781,496.932 310.5,497C 305.564,493.042 305.231,488.709 309.5,484C 315.968,481.9 322.302,479.734 328.5,477.5 Z"/></g>
<g><path style="opacity:0.908" fill="#000000" d="M 209.5,486.5 C 218.359,486.409 227.026,487.575 235.5,490C 237.934,493.716 238.101,497.549 236,501.5C 233.923,502.958 231.59,503.624 229,503.5C 222.357,502.981 215.857,501.814 209.5,500C 205.541,495.501 205.541,491.001 209.5,486.5 Z"/></g>
<g><path style="opacity:0.906" fill="#000000" d="M 272.5,488.5 C 276.514,488.334 280.514,488.501 284.5,489C 290.062,494.163 289.729,498.829 283.5,503C 275.875,504.372 268.208,504.706 260.5,504C 255.014,498.919 255.347,494.252 261.5,490C 265.356,489.823 269.023,489.323 272.5,488.5 Z"/></g>
</svg>
