<?xml version="1.0" encoding="UTF-8"?>
<!DOCTYPE svg PUBLIC "-//W3C//DTD SVG 1.1//EN" "http://www.w3.org/Graphics/SVG/1.1/DTD/svg11.dtd">
<svg xmlns="http://www.w3.org/2000/svg" version="1.1" width="64px" height="64px" style="shape-rendering:geometricPrecision; text-rendering:geometricPrecision; image-rendering:optimizeQuality; fill-rule:evenodd; clip-rule:evenodd" xmlns:xlink="http://www.w3.org/1999/xlink">
<g><path style="opacity:0.867" fill="#0f0a01" d="M 23.5,1.5 C 50.645,-0.188799 63.145,12.4779 61,39.5C 54.4911,56.8444 41.9911,64.0111 23.5,61C 6.15561,54.4911 -1.01105,41.9911 2,23.5C 5.35008,12.3177 12.5167,4.98437 23.5,1.5 Z"/></g>
<g><path style="opacity:1" fill="#ecb200" d="M 23.5,4.5 C 25.8333,4.5 28.1667,4.5 30.5,4.5C 30.5,6.5 30.5,8.5 30.5,10.5C 28.8008,10.3398 27.1341,10.5065 25.5,11C 22.4751,12.6878 19.4751,14.0211 16.5,15C 14.6707,13.8867 13.8374,12.3867 14,10.5C 16.8426,7.83733 20.0093,5.83733 23.5,4.5 Z"/></g>
<g><path style="opacity:1" fill="#eeb400" d="M 32.5,4.5 C 39.2971,4.31544 44.9638,6.64877 49.5,11.5C 48.5,13.1667 47.1667,14.5 45.5,15.5C 41.6852,12.4237 37.3519,10.757 32.5,10.5C 32.5,8.5 32.5,6.5 32.5,4.5 Z"/></g>
<g><path style="opacity:1" fill="#f1ce2a" d="M 27.5,12.5 C 40.7004,11.8729 48.3671,18.0396 50.5,31C 49.3333,42.8333 42.8333,49.3333 31,50.5C 19.7087,48.8751 13.542,42.3751 12.5,31C 13.6947,21.648 18.6947,15.4814 27.5,12.5 Z"/></g>
<g><path style="opacity:1" fill="#e8af00" d="M 10.5,13.5 C 12.7288,14.0553 14.3954,15.3886 15.5,17.5C 12.4237,21.3148 10.757,25.6481 10.5,30.5C 8.16667,30.5 5.83333,30.5 3.5,30.5C 4.0885,24.0565 6.42183,18.3899 10.5,13.5 Z"/></g>
<g><path style="opacity:1" fill="#ecb200" d="M 50.5,13.5 C 56.5823,17.3535 59.249,23.0202 58.5,30.5C 56.5,30.5 54.5,30.5 52.5,30.5C 52.243,25.6481 50.5763,21.3148 47.5,17.5C 48.5244,16.1482 49.5244,14.8149 50.5,13.5 Z"/></g>
<g><path style="opacity:1" fill="#161205" d="M 35.5,16.5 C 37.6516,17.0768 37.985,18.2435 36.5,20C 38.3031,20.6368 39.6364,21.8035 40.5,23.5C 38.6225,23.6225 36.7891,23.6225 35,23.5C 31.8076,29.2524 29.3076,35.2524 27.5,41.5C 31.874,41.971 35.874,40.971 39.5,38.5C 40.1877,40.7177 39.1877,42.2177 36.5,43C 32.8333,43.3333 29.1667,43.6667 25.5,44C 25,44.5 24.5,45 24,45.5C 23.912,41.9429 22.5787,38.6096 20,35.5C 18.3933,24.436 23.2267,18.936 34.5,19C 35.2524,18.3292 35.5858,17.4959 35.5,16.5 Z"/></g>
<g><path style="opacity:1" fill="#f0cd2a" d="M 27.5,21.5 C 29.5273,21.3379 31.5273,21.5045 33.5,22C 30.627,27.58 27.627,33.08 24.5,38.5C 19.843,31.7523 20.843,26.0856 27.5,21.5 Z"/></g>
<g><path style="opacity:1" fill="#eeb400" d="M 4.5,32.5 C 6.5,32.5 8.5,32.5 10.5,32.5C 10.757,37.3519 12.4237,41.6852 15.5,45.5C 12.2505,50.8248 9.4172,50.4915 7,44.5C 5.22802,40.687 4.39469,36.687 4.5,32.5 Z"/></g>
<g><path style="opacity:1" fill="#eeb400" d="M 52.5,32.5 C 54.5,32.5 56.5,32.5 58.5,32.5C 58.6846,39.2971 56.3512,44.9638 51.5,49.5C 49.8333,48.5 48.5,47.1667 47.5,45.5C 50.5763,41.6852 52.243,37.3519 52.5,32.5 Z"/></g>
<g><path style="opacity:1" fill="#ecb200" d="M 16.5,47.5 C 19.4469,48.9734 22.4469,50.4734 25.5,52C 27.1341,52.4935 28.8008,52.6602 30.5,52.5C 30.5,54.5 30.5,56.5 30.5,58.5C 23.5638,59.081 17.8971,56.7477 13.5,51.5C 14.5244,50.1482 15.5244,48.8149 16.5,47.5 Z"/></g>
<g><path style="opacity:1" fill="#eeb400" d="M 44.5,47.5 C 48.8169,48.5539 49.8169,50.7206 47.5,54C 42.9714,57.009 37.9714,58.509 32.5,58.5C 32.5,56.5 32.5,54.5 32.5,52.5C 37.2441,52.457 41.2441,50.7903 44.5,47.5 Z"/></g>
</svg>
