<?xml version="1.0" encoding="UTF-8"?>
<!DOCTYPE svg PUBLIC "-//W3C//DTD SVG 1.1//EN" "http://www.w3.org/Graphics/SVG/1.1/DTD/svg11.dtd">
<svg xmlns="http://www.w3.org/2000/svg" version="1.1" width="512px" height="512px" style="shape-rendering:geometricPrecision; text-rendering:geometricPrecision; image-rendering:optimizeQuality; fill-rule:evenodd; clip-rule:evenodd" xmlns:xlink="http://www.w3.org/1999/xlink">
<g><path style="opacity:0.952" fill="#000000" d="M 233.5,-0.5 C 248.167,-0.5 262.833,-0.5 277.5,-0.5C 377.766,12.0408 449.266,64.0408 492,155.5C 502.296,180.684 508.796,206.684 511.5,233.5C 511.5,248.167 511.5,262.833 511.5,277.5C 498.959,377.766 446.959,449.266 355.5,492C 330.316,502.296 304.316,508.796 277.5,511.5C 262.833,511.5 248.167,511.5 233.5,511.5C 133.234,498.959 61.734,446.959 19,355.5C 8.70393,330.316 2.20393,304.316 -0.5,277.5C -0.5,262.833 -0.5,248.167 -0.5,233.5C 12.0408,133.234 64.0408,61.734 155.5,19C 180.684,8.70393 206.684,2.20393 233.5,-0.5 Z M 238.5,23.5 C 326.761,20.5512 396.595,54.5512 448,125.5C 487.976,187.663 497.643,254.33 477,325.5C 451.167,400.667 400.667,451.167 325.5,477C 235.811,501.452 157.311,481.952 90,418.5C 28.4777,351.402 9.811,273.736 34,185.5C 59.8333,110.333 110.333,59.8333 185.5,34C 202.967,28.7598 220.634,25.2598 238.5,23.5 Z M 240.5,52.5 C 327.723,50.6784 392.89,87.3451 436,162.5C 470.069,234.865 465.402,304.531 422,371.5C 374.17,435.153 310.336,463.653 230.5,457C 160.757,446.222 108.924,410.055 75,348.5C 40.9314,276.135 45.598,206.469 89,139.5C 126.548,88.1371 177.048,59.1371 240.5,52.5 Z"/></g>
<g><path style="opacity:0.853" fill="#000000" d="M 239.5,44.5 C 327.578,41.9433 394.412,77.9433 440,152.5C 475.333,221.167 475.333,289.833 440,358.5C 401.894,422.163 345.727,457.997 271.5,466C 183.395,469.041 116.562,433.208 71,358.5C 35.6667,289.833 35.6667,221.167 71,152.5C 109.317,88.9102 165.483,52.9102 239.5,44.5 Z M 240.5,52.5 C 177.048,59.1371 126.548,88.1371 89,139.5C 45.598,206.469 40.9314,276.135 75,348.5C 108.924,410.055 160.757,446.222 230.5,457C 310.336,463.653 374.17,435.153 422,371.5C 465.402,304.531 470.069,234.865 436,162.5C 392.89,87.3451 327.723,50.6784 240.5,52.5 Z"/></g>
<g><path style="opacity:0.993" fill="#000000" d="M 241.5,124.5 C 250.833,124.5 260.167,124.5 269.5,124.5C 269.5,211.833 269.5,299.167 269.5,386.5C 260.167,386.5 250.833,386.5 241.5,386.5C 241.5,299.167 241.5,211.833 241.5,124.5 Z"/></g>
<g><path style="opacity:0.94" fill="#000000" d="M 275.5,142.5 C 313.15,151.142 339.15,173.475 353.5,209.5C 342.833,210.833 332.167,210.833 321.5,209.5C 311.457,190.492 296.123,178.158 275.5,172.5C 275.5,162.5 275.5,152.5 275.5,142.5 Z"/></g>
<g><path style="opacity:0.95" fill="#000000" d="M 232.5,144.5 C 233.5,144.5 234.5,144.5 235.5,144.5C 235.666,154.506 235.5,164.506 235,174.5C 202.739,191.66 186.239,218.66 185.5,255.5C 186.239,292.34 202.739,319.34 235,336.5C 235.5,346.494 235.666,356.494 235.5,366.5C 211.935,360.305 193.102,347.305 179,327.5C 153.832,288.648 149.832,247.648 167,204.5C 180.434,175.221 202.267,155.221 232.5,144.5 Z"/></g>
<g><path style="opacity:0.94" fill="#000000" d="M 321.5,300.5 C 332.187,300.168 342.854,300.501 353.5,301.5C 339.15,337.525 313.15,359.858 275.5,368.5C 275.5,358.5 275.5,348.5 275.5,338.5C 296.277,332.442 311.611,319.775 321.5,300.5 Z"/></g>
</svg>
