<?xml version="1.0" encoding="UTF-8"?>
<!DOCTYPE svg PUBLIC "-//W3C//DTD SVG 1.1//EN" "http://www.w3.org/Graphics/SVG/1.1/DTD/svg11.dtd">
<svg xmlns="http://www.w3.org/2000/svg" version="1.1" width="64px" height="64px" style="shape-rendering:geometricPrecision; text-rendering:geometricPrecision; image-rendering:optimizeQuality; fill-rule:evenodd; clip-rule:evenodd" xmlns:xlink="http://www.w3.org/1999/xlink">
<g><path style="opacity:0.853" fill="#000000" d="M 29.5,5.5 C 37.5428,8.68887 45.2095,12.6889 52.5,17.5C 53.7112,18.2739 53.7112,19.1072 52.5,20C 53.549,20.4922 54.549,20.3256 55.5,19.5C 55.8333,21.1667 56.1667,22.8333 56.5,24.5C 54.4012,31.1597 53.0679,38.1597 52.5,45.5C 45.451,49.7169 38.2843,53.7169 31,57.5C 23.518,53.4254 16.1847,49.0921 9,44.5C 8.33333,35.8333 8.33333,27.1667 9,18.5C 15.9823,14.267 22.8156,9.93368 29.5,5.5 Z M 47.5,23.5 C 41.1541,26.3859 38.9874,31.3859 41,38.5C 43.7865,35.6553 45.1198,35.9887 45,39.5C 40.3333,42.1667 35.6667,44.8333 31,47.5C 26.6667,44.8333 22.3333,42.1667 18,39.5C 17.3333,34.1667 17.3333,28.8333 18,23.5C 22.3333,20.8333 26.6667,18.1667 31,15.5C 36.0585,19.1128 41.5585,21.7795 47.5,23.5 Z M 50.5,21.5 C 50.0269,22.9063 49.0269,23.573 47.5,23.5C 47.9731,22.0937 48.9731,21.427 50.5,21.5 Z"/></g>
</svg>
