<?xml version="1.0" encoding="UTF-8"?>
<!DOCTYPE svg PUBLIC "-//W3C//DTD SVG 1.1//EN" "http://www.w3.org/Graphics/SVG/1.1/DTD/svg11.dtd">
<svg xmlns="http://www.w3.org/2000/svg" version="1.1" width="512px" height="512px" style="shape-rendering:geometricPrecision; text-rendering:geometricPrecision; image-rendering:optimizeQuality; fill-rule:evenodd; clip-rule:evenodd" xmlns:xlink="http://www.w3.org/1999/xlink">
<g><path style="opacity:0.952" fill="#000000" d="M 233.5,-0.5 C 248.167,-0.5 262.833,-0.5 277.5,-0.5C 377.766,12.0408 449.266,64.0408 492,155.5C 502.296,180.684 508.796,206.684 511.5,233.5C 511.5,248.167 511.5,262.833 511.5,277.5C 498.959,377.766 446.959,449.266 355.5,492C 330.316,502.296 304.316,508.796 277.5,511.5C 262.833,511.5 248.167,511.5 233.5,511.5C 133.234,498.959 61.734,446.959 19,355.5C 8.70393,330.316 2.20393,304.316 -0.5,277.5C -0.5,262.833 -0.5,248.167 -0.5,233.5C 12.0408,133.234 64.0408,61.734 155.5,19C 180.684,8.70393 206.684,2.20393 233.5,-0.5 Z M 238.5,23.5 C 326.761,20.5512 396.595,54.5512 448,125.5C 487.976,187.663 497.643,254.33 477,325.5C 451.167,400.667 400.667,451.167 325.5,477C 235.811,501.452 157.311,481.952 90,418.5C 28.4777,351.402 9.811,273.736 34,185.5C 59.8333,110.333 110.333,59.8333 185.5,34C 202.967,28.7598 220.634,25.2598 238.5,23.5 Z M 240.5,52.5 C 327.723,50.6784 392.89,87.3451 436,162.5C 470.069,234.865 465.402,304.531 422,371.5C 374.17,435.153 310.336,463.653 230.5,457C 160.757,446.222 108.924,410.055 75,348.5C 40.9314,276.135 45.598,206.469 89,139.5C 126.548,88.1371 177.048,59.1371 240.5,52.5 Z"/></g>
<g><path style="opacity:0.853" fill="#000000" d="M 239.5,44.5 C 327.578,41.9433 394.412,77.9433 440,152.5C 475.333,221.167 475.333,289.833 440,358.5C 401.894,422.163 345.727,457.997 271.5,466C 183.395,469.041 116.562,433.208 71,358.5C 35.6667,289.833 35.6667,221.167 71,152.5C 109.317,88.9102 165.483,52.9102 239.5,44.5 Z M 240.5,52.5 C 177.048,59.1371 126.548,88.1371 89,139.5C 45.598,206.469 40.9314,276.135 75,348.5C 108.924,410.055 160.757,446.222 230.5,457C 310.336,463.653 374.17,435.153 422,371.5C 465.402,304.531 470.069,234.865 436,162.5C 392.89,87.3451 327.723,50.6784 240.5,52.5 Z"/></g>
<g><path style="opacity:0.958" fill="#000000" d="M 250.5,133.5 C 287.942,135.449 315.776,152.782 334,185.5C 355.523,230.04 354.523,274.04 331,317.5C 326.749,324.584 321.583,330.917 315.5,336.5C 308.5,330.167 301.833,323.5 295.5,316.5C 322.085,283.182 327.585,246.516 312,206.5C 303.325,186.491 288.825,172.657 268.5,165C 244.808,159.675 224.975,166.175 209,184.5C 183.278,219.854 179.611,257.521 198,297.5C 209.625,320.228 228.125,332.894 253.5,335.5C 258.514,334.663 263.514,334.163 268.5,334C 275.333,340.833 282.167,347.667 289,354.5C 289.591,355.483 289.257,356.15 288,356.5C 239.525,372.767 201.858,359.101 175,315.5C 151.667,271.167 151.667,226.833 175,182.5C 192.014,153.421 217.181,137.087 250.5,133.5 Z"/></g>
<g><path style="opacity:0.946" fill="#000000" d="M 256.5,283.5 C 257.239,283.369 257.906,283.536 258.5,284C 277.471,303.972 296.805,323.638 316.5,343C 326.851,348.157 333.518,345.157 336.5,334C 335.276,331.61 334.776,329.11 335,326.5C 340.348,320.985 345.848,315.652 351.5,310.5C 362.899,325.42 363.399,340.754 353,356.5C 338.421,371.393 321.921,373.893 303.5,364C 282.667,343.167 261.833,322.333 241,301.5C 240.333,300.833 240.333,300.167 241,299.5C 246.37,294.298 251.536,288.965 256.5,283.5 Z"/></g>
</svg>
