<?xml version="1.0" encoding="UTF-8"?>
<!DOCTYPE svg PUBLIC "-//W3C//DTD SVG 1.1//EN" "http://www.w3.org/Graphics/SVG/1.1/DTD/svg11.dtd">
<svg xmlns="http://www.w3.org/2000/svg" version="1.1" width="48px" height="48px" style="shape-rendering:geometricPrecision; text-rendering:geometricPrecision; image-rendering:optimizeQuality; fill-rule:evenodd; clip-rule:evenodd" xmlns:xlink="http://www.w3.org/1999/xlink">
<g><path style="opacity:0.967" fill="#398f3d" d="M 43.5,20.5 C 32.0165,16.6737 20.6832,12.6737 9.5,8.5C 11.428,6.52594 13.7613,5.02594 16.5,4C 31.0302,0.915422 40.0302,6.41542 43.5,20.5 Z"/></g>
<g><path style="opacity:0.991" fill="#fcd514" d="M 7.5,10.5 C 19.2488,14.6382 30.9154,18.9715 42.5,23.5C 31.1063,28.2979 19.4396,32.2979 7.5,35.5C 6.83333,35.5 6.5,35.1667 6.5,34.5C 11.7861,31.2125 16.7861,27.5458 21.5,23.5C 16.7861,19.4542 11.7861,15.7875 6.5,12.5C 6.83333,11.8333 7.16667,11.1667 7.5,10.5 Z"/></g>
<g><path style="opacity:0.982" fill="#343634" d="M 6.5,12.5 C 11.7861,15.7875 16.7861,19.4542 21.5,23.5C 16.7861,27.5458 11.7861,31.2125 6.5,34.5C 5.66175,34.1583 5.32842,33.4916 5.5,32.5C 9.43194,29.5207 13.4319,26.5207 17.5,23.5C 13.4319,20.4793 9.43194,17.4793 5.5,14.5C 5.32842,13.5084 5.66175,12.8417 6.5,12.5 Z"/></g>
<g><path style="opacity:0.964" fill="#d20101" d="M 5.5,14.5 C 9.43194,17.4793 13.4319,20.4793 17.5,23.5C 13.4319,26.5207 9.43194,29.5207 5.5,32.5C 4.77842,32.0825 4.27842,31.4158 4,30.5C 3.33333,25.8333 3.33333,21.1667 4,16.5C 4.27842,15.5842 4.77842,14.9175 5.5,14.5 Z"/></g>
<g><path style="opacity:0.952" fill="#f7f9f1" d="M 9.5,8.5 C 20.6832,12.6737 32.0165,16.6737 43.5,20.5C 43.5,22.5 43.5,24.5 43.5,26.5C 32.0165,30.3263 20.6832,34.3263 9.5,38.5C 8.09368,38.0269 7.42702,37.0269 7.5,35.5C 19.4396,32.2979 31.1063,28.2979 42.5,23.5C 30.9154,18.9715 19.2488,14.6382 7.5,10.5C 7.83333,9.5 8.5,8.83333 9.5,8.5 Z"/></g>
<g><path style="opacity:0.968" fill="#3a8f3d" d="M 43.5,26.5 C 40.0302,40.5846 31.0302,46.0846 16.5,43C 13.7613,41.9741 11.428,40.4741 9.5,38.5C 20.6832,34.3263 32.0165,30.3263 43.5,26.5 Z"/></g>
</svg>
