<?xml version="1.0" encoding="UTF-8"?>
<!DOCTYPE svg PUBLIC "-//W3C//DTD SVG 1.1//EN" "http://www.w3.org/Graphics/SVG/1.1/DTD/svg11.dtd">
<svg xmlns="http://www.w3.org/2000/svg" version="1.1" width="512px" height="512px" style="shape-rendering:geometricPrecision; text-rendering:geometricPrecision; image-rendering:optimizeQuality; fill-rule:evenodd; clip-rule:evenodd" xmlns:xlink="http://www.w3.org/1999/xlink">
<g><path style="opacity:0.966" fill="#1e81ce" d="M 233.5,15.5 C 326.676,10.6799 400.51,45.6799 455,120.5C 500.8,193.045 508.133,269.379 477,349.5C 441.926,426.813 382.76,474.313 299.5,492C 208.454,505.657 132.287,478.491 71,410.5C 18.3115,343.73 2.97817,269.063 25,186.5C 51.5,105.333 105.333,51.5 186.5,25C 202.057,20.5889 217.723,17.4223 233.5,15.5 Z M 254.5,31.5 C 340.223,34.9233 405.39,72.9233 450,145.5C 480.412,201.541 486.745,260.208 469,321.5C 440.168,404.332 383.001,455.499 297.5,475C 206.386,488.634 132.219,459.467 75,387.5C 30.3273,322.455 20.6607,252.455 46,177.5C 76.3077,103.093 130.474,56.2595 208.5,37C 223.85,33.9971 239.183,32.1638 254.5,31.5 Z M 180.5,144.5 C 186.326,143.489 189.826,145.822 191,151.5C 191.333,171.5 191.667,191.5 192,211.5C 192.5,213.333 193.667,214.5 195.5,215C 235.5,215.667 275.5,215.667 315.5,215C 317.333,214.5 318.5,213.333 319,211.5C 319.333,191.5 319.667,171.5 320,151.5C 322.159,144.408 326.493,142.742 333,146.5C 333.862,148.087 334.529,149.754 335,151.5C 335.667,220.833 335.667,290.167 335,359.5C 332.841,366.592 328.507,368.258 322,364.5C 321.138,362.913 320.471,361.246 320,359.5C 319.667,339.5 319.333,319.5 319,299.5C 318.626,298.584 318.126,297.75 317.5,297C 296.92,295.844 276.253,295.344 255.5,295.5C 234.747,295.344 214.08,295.844 193.5,297C 192.874,297.75 192.374,298.584 192,299.5C 191.667,319.5 191.333,339.5 191,359.5C 188.841,366.592 184.507,368.258 178,364.5C 177.138,362.913 176.471,361.246 176,359.5C 175.333,290.167 175.333,220.833 176,151.5C 176.53,148.415 178.03,146.082 180.5,144.5 Z"/></g>
<g><path style="opacity:0.982" fill="#1f81ce" d="M 235.5,47.5 C 307.369,43.0408 367.202,67.3742 415,120.5C 466.631,186.973 477.298,259.639 447,338.5C 412.593,411.14 355.426,452.64 275.5,463C 203.64,467.967 143.806,443.801 96,390.5C 44.3135,324.033 33.6469,251.366 64,172.5C 98.4829,99.8681 155.65,58.2014 235.5,47.5 Z M 180.5,144.5 C 178.03,146.082 176.53,148.415 176,151.5C 175.333,220.833 175.333,290.167 176,359.5C 176.471,361.246 177.138,362.913 178,364.5C 184.507,368.258 188.841,366.592 191,359.5C 191.333,339.5 191.667,319.5 192,299.5C 192.374,298.584 192.874,297.75 193.5,297C 214.08,295.844 234.747,295.344 255.5,295.5C 276.253,295.344 296.92,295.844 317.5,297C 318.126,297.75 318.626,298.584 319,299.5C 319.333,319.5 319.667,339.5 320,359.5C 320.471,361.246 321.138,362.913 322,364.5C 328.507,368.258 332.841,366.592 335,359.5C 335.667,290.167 335.667,220.833 335,151.5C 334.529,149.754 333.862,148.087 333,146.5C 326.493,142.742 322.159,144.408 320,151.5C 319.667,171.5 319.333,191.5 319,211.5C 318.5,213.333 317.333,214.5 315.5,215C 275.5,215.667 235.5,215.667 195.5,215C 193.667,214.5 192.5,213.333 192,211.5C 191.667,191.5 191.333,171.5 191,151.5C 189.826,145.822 186.326,143.489 180.5,144.5 Z"/></g>
<g><path style="opacity:1" fill="#9ac8fe" d="M 237.5,63.5 C 318.741,60.3611 380.575,93.0277 423,161.5C 456.837,227.224 455.504,292.224 419,356.5C 373.655,423.249 310.488,453.082 229.5,446C 145.872,430.704 92.3719,382.204 69,300.5C 53.3622,223.413 74.8622,158.913 133.5,107C 164.139,82.8435 198.805,68.3435 237.5,63.5 Z M 180.5,144.5 C 178.03,146.082 176.53,148.415 176,151.5C 175.333,220.833 175.333,290.167 176,359.5C 176.471,361.246 177.138,362.913 178,364.5C 184.507,368.258 188.841,366.592 191,359.5C 191.333,339.5 191.667,319.5 192,299.5C 192.374,298.584 192.874,297.75 193.5,297C 214.08,295.844 234.747,295.344 255.5,295.5C 276.253,295.344 296.92,295.844 317.5,297C 318.126,297.75 318.626,298.584 319,299.5C 319.333,319.5 319.667,339.5 320,359.5C 320.471,361.246 321.138,362.913 322,364.5C 328.507,368.258 332.841,366.592 335,359.5C 335.667,290.167 335.667,220.833 335,151.5C 334.529,149.754 333.862,148.087 333,146.5C 326.493,142.742 322.159,144.408 320,151.5C 319.667,171.5 319.333,191.5 319,211.5C 318.5,213.333 317.333,214.5 315.5,215C 275.5,215.667 235.5,215.667 195.5,215C 193.667,214.5 192.5,213.333 192,211.5C 191.667,191.5 191.333,171.5 191,151.5C 189.826,145.822 186.326,143.489 180.5,144.5 Z"/></g>
<g><path style="opacity:0.998" fill="#1e81ce" d="M 177.5,127.5 C 190.6,125.802 200.1,130.802 206,142.5C 207.462,161.432 207.962,180.432 207.5,199.5C 239.5,199.5 271.5,199.5 303.5,199.5C 303.333,181.497 303.5,163.497 304,145.5C 310.539,129.314 322.039,124.148 338.5,130C 344.531,133.694 348.697,138.861 351,145.5C 351.667,218.5 351.667,291.5 351,364.5C 344.906,381.309 333.406,386.809 316.5,381C 310.034,377.206 305.868,371.706 304,364.5C 303.5,346.836 303.333,329.17 303.5,311.5C 271.5,311.5 239.5,311.5 207.5,311.5C 207.667,329.17 207.5,346.836 207,364.5C 202.166,378.666 192.332,384.833 177.5,383C 168.573,379.74 162.739,373.573 160,364.5C 159.333,291.5 159.333,218.5 160,145.5C 163.353,136.982 169.186,130.982 177.5,127.5 Z M 180.5,144.5 C 178.03,146.082 176.53,148.415 176,151.5C 175.333,220.833 175.333,290.167 176,359.5C 176.471,361.246 177.138,362.913 178,364.5C 184.507,368.258 188.841,366.592 191,359.5C 191.333,339.5 191.667,319.5 192,299.5C 192.374,298.584 192.874,297.75 193.5,297C 214.08,295.844 234.747,295.344 255.5,295.5C 276.253,295.344 296.92,295.844 317.5,297C 318.126,297.75 318.626,298.584 319,299.5C 319.333,319.5 319.667,339.5 320,359.5C 320.471,361.246 321.138,362.913 322,364.5C 328.507,368.258 332.841,366.592 335,359.5C 335.667,290.167 335.667,220.833 335,151.5C 334.529,149.754 333.862,148.087 333,146.5C 326.493,142.742 322.159,144.408 320,151.5C 319.667,171.5 319.333,191.5 319,211.5C 318.5,213.333 317.333,214.5 315.5,215C 275.5,215.667 235.5,215.667 195.5,215C 193.667,214.5 192.5,213.333 192,211.5C 191.667,191.5 191.333,171.5 191,151.5C 189.826,145.822 186.326,143.489 180.5,144.5 Z"/></g>
<g><path style="opacity:0.998" fill="#1e81ce" d="M 195.5,231.5 C 235.501,231.333 275.501,231.5 315.5,232C 317.333,232.5 318.5,233.667 319,235.5C 319.667,248.833 319.667,262.167 319,275.5C 318.5,277.333 317.333,278.5 315.5,279C 275.5,279.667 235.5,279.667 195.5,279C 193.667,278.5 192.5,277.333 192,275.5C 191.333,262.167 191.333,248.833 192,235.5C 192.69,233.65 193.856,232.316 195.5,231.5 Z"/></g>
<g><path style="opacity:1" fill="#9bc9ff" d="M 207.5,247.5 C 239.5,247.5 271.5,247.5 303.5,247.5C 303.5,252.833 303.5,258.167 303.5,263.5C 271.5,263.5 239.5,263.5 207.5,263.5C 207.5,258.167 207.5,252.833 207.5,247.5 Z"/></g>
</svg>
