<?xml version="1.0" encoding="UTF-8"?>
<!DOCTYPE svg PUBLIC "-//W3C//DTD SVG 1.1//EN" "http://www.w3.org/Graphics/SVG/1.1/DTD/svg11.dtd">
<svg xmlns="http://www.w3.org/2000/svg" version="1.1" width="512px" height="512px" style="shape-rendering:geometricPrecision; text-rendering:geometricPrecision; image-rendering:optimizeQuality; fill-rule:evenodd; clip-rule:evenodd" xmlns:xlink="http://www.w3.org/1999/xlink">
<g><path style="opacity:0.997" fill="#3948aa" d="M 233.5,-0.5 C 249.167,-0.5 264.833,-0.5 280.5,-0.5C 378.282,12.1406 448.449,62.8073 491,151.5C 501.774,176.933 508.607,203.267 511.5,230.5C 511.5,246.167 511.5,261.833 511.5,277.5C 499.016,377.807 447.016,449.307 355.5,492C 336.48,499.84 316.813,505.34 296.5,508.5C 296.389,507.883 296.056,507.383 295.5,507C 364.667,437.833 433.833,368.667 503,299.5C 503.667,298.833 503.667,298.167 503,297.5C 494.245,288.576 485.411,279.91 476.5,271.5C 461.608,257.275 446.942,242.608 432.5,227.5C 415.255,210.756 398.089,193.756 381,176.5C 380.501,181.823 380.334,187.156 380.5,192.5C 379.51,186.69 379.177,180.69 379.5,174.5C 371.5,174.5 363.5,174.5 355.5,174.5C 355.5,181.167 355.5,187.833 355.5,194.5C 349.846,195.501 344.846,197.835 340.5,201.5C 335.779,196.113 330.779,191.113 325.5,186.5C 312.994,185.175 300.327,185.175 287.5,186.5C 281.815,193.238 276.149,199.905 270.5,206.5C 264.891,199.222 258.558,192.556 251.5,186.5C 251.5,185.833 251.167,185.5 250.5,185.5C 240.833,185.5 231.167,185.5 221.5,185.5C 221.5,189.833 221.5,194.167 221.5,198.5C 217.202,194.704 213.036,190.704 209,186.5C 208.5,214.831 208.333,243.165 208.5,271.5C 208.83,288.009 208.496,304.342 207.5,320.5C 207.5,275.5 207.5,230.5 207.5,185.5C 197.833,185.5 188.167,185.5 178.5,185.5C 178.5,200.5 178.5,215.5 178.5,230.5C 163.5,215.833 148.5,201.167 133.5,186.5C 124.014,185.506 114.348,185.173 104.5,185.5C 103.833,207.998 103.5,230.664 103.5,253.5C 103.5,276.51 104.167,299.177 105.5,321.5C 113.833,330.5 122.5,339.167 131.5,347.5C 145.5,362.167 159.833,376.5 174.5,390.5C 186.167,402.833 198.167,414.833 210.5,426.5C 214.167,430.833 218.167,434.833 222.5,438.5C 230.167,446.833 238.167,454.833 246.5,462.5C 252.833,469.5 259.5,476.167 266.5,482.5C 275.223,491.22 283.556,500.22 291.5,509.5C 286.662,509.911 281.995,510.578 277.5,511.5C 262.5,511.5 247.5,511.5 232.5,511.5C 130.434,498.225 58.6008,444.558 17,350.5C 8.0309,327.127 2.19757,303.127 -0.5,278.5C -0.5,263.167 -0.5,247.833 -0.5,232.5C 9.30698,148.242 49.6403,83.0754 120.5,37C 155.422,15.9704 193.088,3.4704 233.5,-0.5 Z"/></g>
<g><path style="opacity:1" fill="#fcfcfd" d="M 380.5,192.5 C 385.423,193.82 390.423,195.32 395.5,197C 399.046,198.267 402.046,200.267 404.5,203C 401.628,211.144 398.294,218.977 394.5,226.5C 385.484,220.105 375.484,217.271 364.5,218C 357.989,219.882 355.822,224.049 358,230.5C 359.873,232.709 362.04,234.542 364.5,236C 372.955,239.727 381.288,243.727 389.5,248C 393.668,251.002 397.335,254.502 400.5,258.5C 411.976,277.792 409.309,294.959 392.5,310C 388.32,312.84 383.82,315.007 379,316.5C 378.5,323.158 378.334,329.825 378.5,336.5C 376.5,336.5 374.5,336.5 372.5,336.5C 366.167,336.5 359.833,336.5 353.5,336.5C 353.5,330.167 353.5,323.833 353.5,317.5C 349.968,317.69 346.635,317.023 343.5,315.5C 336.473,313.487 330.14,310.153 324.5,305.5C 327.432,297.872 330.265,290.205 333,282.5C 333.414,282.043 333.914,281.709 334.5,281.5C 344.236,290.134 355.569,293.634 368.5,292C 376.398,289.71 379.231,284.543 377,276.5C 375.167,274.667 373.333,272.833 371.5,271C 357.86,265.855 345.527,258.688 334.5,249.5C 323.622,231.803 325.622,215.803 340.5,201.5C 344.846,197.835 349.846,195.501 355.5,194.5C 355.5,187.833 355.5,181.167 355.5,174.5C 363.5,174.5 371.5,174.5 379.5,174.5C 379.177,180.69 379.51,186.69 380.5,192.5 Z"/></g>
<g><path style="opacity:1" fill="#fefefe" d="M 104.5,185.5 C 114.348,185.173 124.014,185.506 133.5,186.5C 133.5,203.167 133.5,219.833 133.5,236.5C 148.5,236.5 163.5,236.5 178.5,236.5C 178.5,234.5 178.5,232.5 178.5,230.5C 178.5,215.5 178.5,200.5 178.5,185.5C 188.167,185.5 197.833,185.5 207.5,185.5C 207.5,230.5 207.5,275.5 207.5,320.5C 197.833,320.5 188.167,320.5 178.5,320.5C 178.5,314.5 178.5,308.5 178.5,302.5C 178.5,289.5 178.5,276.5 178.5,263.5C 163.5,263.5 148.5,263.5 133.5,263.5C 132.503,282.326 132.17,301.326 132.5,320.5C 123.167,320.5 113.833,320.5 104.5,320.5C 104.5,275.5 104.5,230.5 104.5,185.5 Z"/></g>
<g><path style="opacity:1" fill="#fdfdfe" d="M 325.5,186.5 C 308.511,205.494 291.845,224.827 275.5,244.5C 283.834,257.482 292.501,270.149 301.5,282.5C 309.699,295.057 318.032,307.557 326.5,320C 315.172,320.5 303.838,320.667 292.5,320.5C 279.863,302.345 267.363,284.011 255,265.5C 253.667,266.833 252.333,268.167 251,269.5C 250.5,286.497 250.333,303.497 250.5,320.5C 241.167,320.5 231.833,320.5 222.5,320.5C 222.5,275.833 222.5,231.167 222.5,186.5C 231.833,186.5 241.167,186.5 250.5,186.5C 250.333,201.504 250.5,216.504 251,231.5C 251.717,230.956 252.217,230.289 252.5,229.5C 258.75,221.984 264.75,214.318 270.5,206.5C 276.149,199.905 281.815,193.238 287.5,186.5C 300.327,185.175 312.994,185.175 325.5,186.5 Z"/></g>
<g><path style="opacity:1" fill="#757bb3" d="M 250.5,185.5 C 251.167,185.5 251.5,185.833 251.5,186.5C 251.171,201.01 251.504,215.343 252.5,229.5C 252.217,230.289 251.717,230.956 251,231.5C 250.5,216.504 250.333,201.504 250.5,186.5C 250.5,186.167 250.5,185.833 250.5,185.5 Z"/></g>
<g><path style="opacity:1" fill="#1a237e" d="M 133.5,186.5 C 148.5,201.167 163.5,215.833 178.5,230.5C 178.5,232.5 178.5,234.5 178.5,236.5C 163.5,236.5 148.5,236.5 133.5,236.5C 133.5,219.833 133.5,203.167 133.5,186.5 Z"/></g>
<g><path style="opacity:1" fill="#252f8c" d="M 325.5,186.5 C 330.779,191.113 335.779,196.113 340.5,201.5C 325.622,215.803 323.622,231.803 334.5,249.5C 334.649,250.552 334.483,251.552 334,252.5C 324.167,262.333 314.333,272.167 304.5,282C 303.552,282.483 302.552,282.649 301.5,282.5C 292.501,270.149 283.834,257.482 275.5,244.5C 291.845,224.827 308.511,205.494 325.5,186.5 Z"/></g>
<g><path style="opacity:1" fill="#212a85" d="M 251.5,186.5 C 258.558,192.556 264.891,199.222 270.5,206.5C 264.75,214.318 258.75,221.984 252.5,229.5C 251.504,215.343 251.171,201.01 251.5,186.5 Z"/></g>
<g><path style="opacity:1" fill="#2b3694" d="M 432.5,227.5 C 422.447,238.554 411.781,248.887 400.5,258.5C 397.335,254.502 393.668,251.002 389.5,248C 381.288,243.727 372.955,239.727 364.5,236C 362.04,234.542 359.873,232.709 358,230.5C 355.822,224.049 357.989,219.882 364.5,218C 375.484,217.271 385.484,220.105 394.5,226.5C 398.294,218.977 401.628,211.144 404.5,203C 402.046,200.267 399.046,198.267 395.5,197C 390.423,195.32 385.423,193.82 380.5,192.5C 380.334,187.156 380.501,181.823 381,176.5C 398.089,193.756 415.255,210.756 432.5,227.5 Z"/></g>
<g><path style="opacity:1" fill="#1c2682" d="M 221.5,198.5 C 221.5,218.833 221.5,239.167 221.5,259.5C 217.167,263.5 212.833,267.5 208.5,271.5C 208.333,243.165 208.5,214.831 209,186.5C 213.036,190.704 217.202,194.704 221.5,198.5 Z"/></g>
<g><path style="opacity:1" fill="#d0d3e6" d="M 250.5,185.5 C 250.5,185.833 250.5,186.167 250.5,186.5C 241.167,186.5 231.833,186.5 222.5,186.5C 222.5,231.167 222.5,275.833 222.5,320.5C 222.167,320.5 221.833,320.5 221.5,320.5C 221.5,300.167 221.5,279.833 221.5,259.5C 221.5,239.167 221.5,218.833 221.5,198.5C 221.5,194.167 221.5,189.833 221.5,185.5C 231.167,185.5 240.833,185.5 250.5,185.5 Z"/></g>
<g><path style="opacity:1" fill="#1e2782" d="M 133.5,263.5 C 148.5,263.5 163.5,263.5 178.5,263.5C 178.5,276.5 178.5,289.5 178.5,302.5C 163.368,317.131 148.368,331.965 133.5,347C 132.906,347.464 132.239,347.631 131.5,347.5C 122.5,339.167 113.833,330.5 105.5,321.5C 114.833,321.5 124.167,321.5 133.5,321.5C 133.5,302.167 133.5,282.833 133.5,263.5 Z"/></g>
<g><path style="opacity:1" fill="#303e9e" d="M 432.5,227.5 C 446.942,242.608 461.608,257.275 476.5,271.5C 406.5,341.833 336.5,412.167 266.5,482.5C 259.5,476.167 252.833,469.5 246.5,462.5C 288.833,420.833 330.833,378.833 372.5,336.5C 374.5,336.5 376.5,336.5 378.5,336.5C 378.334,329.825 378.5,323.158 379,316.5C 383.82,315.007 388.32,312.84 392.5,310C 409.309,294.959 411.976,277.792 400.5,258.5C 411.781,248.887 422.447,238.554 432.5,227.5 Z"/></g>
<g><path style="opacity:1" fill="#3342a3" d="M 476.5,271.5 C 485.411,279.91 494.245,288.576 503,297.5C 503.667,298.167 503.667,298.833 503,299.5C 433.833,368.667 364.667,437.833 295.5,507C 296.056,507.383 296.389,507.883 296.5,508.5C 294.883,509.038 293.216,509.371 291.5,509.5C 283.556,500.22 275.223,491.22 266.5,482.5C 336.5,412.167 406.5,341.833 476.5,271.5 Z"/></g>
<g><path style="opacity:1" fill="#232d8a" d="M 221.5,259.5 C 221.5,279.833 221.5,300.167 221.5,320.5C 228.989,321.329 236.656,321.829 244.5,322C 221.582,345.419 198.249,368.253 174.5,390.5C 159.833,376.5 145.5,362.167 131.5,347.5C 132.239,347.631 132.906,347.464 133.5,347C 148.368,331.965 163.368,317.131 178.5,302.5C 178.5,308.5 178.5,314.5 178.5,320.5C 188.167,320.5 197.833,320.5 207.5,320.5C 208.496,304.342 208.83,288.009 208.5,271.5C 212.833,267.5 217.167,263.5 221.5,259.5 Z"/></g>
<g><path style="opacity:1" fill="#283491" d="M 292.5,320.5 C 299.989,321.329 307.656,321.829 315.5,322C 280.632,357.035 245.632,391.868 210.5,426.5C 198.167,414.833 186.167,402.833 174.5,390.5C 198.249,368.253 221.582,345.419 244.5,322C 236.656,321.829 228.989,321.329 221.5,320.5C 221.833,320.5 222.167,320.5 222.5,320.5C 231.833,320.5 241.167,320.5 250.5,320.5C 250.333,303.497 250.5,286.497 251,269.5C 252.333,268.167 253.667,266.833 255,265.5C 267.363,284.011 279.863,302.345 292.5,320.5 Z"/></g>
<g><path style="opacity:1" fill="#2b3796" d="M 334.5,249.5 C 345.527,258.688 357.86,265.855 371.5,271C 373.333,272.833 375.167,274.667 377,276.5C 379.231,284.543 376.398,289.71 368.5,292C 355.569,293.634 344.236,290.134 334.5,281.5C 333.914,281.709 333.414,282.043 333,282.5C 330.265,290.205 327.432,297.872 324.5,305.5C 330.14,310.153 336.473,313.487 343.5,315.5C 343.631,316.239 343.464,316.906 343,317.5C 302.632,357.701 262.465,398.035 222.5,438.5C 218.167,434.833 214.167,430.833 210.5,426.5C 245.632,391.868 280.632,357.035 315.5,322C 307.656,321.829 299.989,321.329 292.5,320.5C 303.838,320.667 315.172,320.5 326.5,320C 318.032,307.557 309.699,295.057 301.5,282.5C 302.552,282.649 303.552,282.483 304.5,282C 314.333,272.167 324.167,262.333 334,252.5C 334.483,251.552 334.649,250.552 334.5,249.5 Z"/></g>
<g><path style="opacity:1" fill="#2d3a99" d="M 343.5,315.5 C 346.635,317.023 349.968,317.69 353.5,317.5C 353.5,323.833 353.5,330.167 353.5,336.5C 359.833,336.5 366.167,336.5 372.5,336.5C 330.833,378.833 288.833,420.833 246.5,462.5C 238.167,454.833 230.167,446.833 222.5,438.5C 262.465,398.035 302.632,357.701 343,317.5C 343.464,316.906 343.631,316.239 343.5,315.5 Z"/></g>
<g><path style="opacity:1" fill="#8d92c3" d="M 104.5,185.5 C 104.5,230.5 104.5,275.5 104.5,320.5C 113.833,320.5 123.167,320.5 132.5,320.5C 132.17,301.326 132.503,282.326 133.5,263.5C 133.5,282.833 133.5,302.167 133.5,321.5C 124.167,321.5 114.833,321.5 105.5,321.5C 104.167,299.177 103.5,276.51 103.5,253.5C 103.5,230.664 103.833,207.998 104.5,185.5 Z"/></g>
</svg>
