<?xml version="1.0" encoding="UTF-8"?>
<!DOCTYPE svg PUBLIC "-//W3C//DTD SVG 1.1//EN" "http://www.w3.org/Graphics/SVG/1.1/DTD/svg11.dtd">
<svg xmlns="http://www.w3.org/2000/svg" version="1.1" width="512px" height="512px" style="shape-rendering:geometricPrecision; text-rendering:geometricPrecision; image-rendering:optimizeQuality; fill-rule:evenodd; clip-rule:evenodd" xmlns:xlink="http://www.w3.org/1999/xlink">
<g><path style="opacity:0.938" fill="#000000" d="M 233.5,-0.5 C 248.167,-0.5 262.833,-0.5 277.5,-0.5C 367.555,10.0943 435.388,54.4276 481,132.5C 497.855,164.276 508.021,197.942 511.5,233.5C 511.5,248.167 511.5,262.833 511.5,277.5C 499.016,377.807 447.016,449.307 355.5,492C 330.313,502.297 304.313,508.797 277.5,511.5C 262.833,511.5 248.167,511.5 233.5,511.5C 143.445,500.906 75.612,456.572 30,378.5C 13.1454,346.724 2.97872,313.058 -0.5,277.5C -0.5,262.833 -0.5,248.167 -0.5,233.5C 10.0943,143.445 54.4276,75.612 132.5,30C 164.276,13.1454 197.942,2.97872 233.5,-0.5 Z M 241.5,16.5 C 243.167,16.5 244.833,16.5 246.5,16.5C 248.004,26.493 253.171,29.1596 262,24.5C 263.341,21.978 264.174,19.3113 264.5,16.5C 270.871,16.964 277.204,17.6306 283.5,18.5C 284.166,28.8241 289.166,31.9908 298.5,28C 300.235,25.8078 301.402,23.3078 302,20.5C 307.406,22.2272 312.906,23.7272 318.5,25C 320.188,27.8245 321.021,30.9912 321,34.5C 328.043,40.5178 333.876,39.5178 338.5,31.5C 344.14,33.5452 349.64,35.8785 355,38.5C 352.708,46.253 355.374,51.253 363,53.5C 367.14,52.7001 370.14,50.3668 372,46.5C 377.586,50.0426 383.086,53.7093 388.5,57.5C 384.106,67.2396 387.106,72.0729 397.5,72C 399.624,70.8783 401.457,69.3783 403,67.5C 408.008,71.6767 412.841,76.01 417.5,80.5C 412.126,88.5283 413.959,93.8616 423,96.5C 426.091,96.0083 428.925,95.175 431.5,94C 435.5,98.6667 439.5,103.333 443.5,108C 436.898,113.51 436.898,118.844 443.5,124C 447.118,124.966 450.451,124.466 453.5,122.5C 457.291,127.914 460.957,133.414 464.5,139C 458.831,141.815 456.998,146.315 459,152.5C 460.214,154.049 461.714,155.215 463.5,156C 466.775,156.07 469.942,156.237 473,156.5C 475.264,161.793 477.431,167.127 479.5,172.5C 473.3,175.235 471.134,179.901 473,186.5C 474.167,187.667 475.333,188.833 476.5,190C 479.553,190.179 482.553,190.679 485.5,191.5C 487.816,197.393 488.816,203.393 488.5,209.5C 483.476,210.853 480.809,214.187 480.5,219.5C 481.034,221.614 482.034,223.448 483.5,225C 486.535,226.637 489.535,227.47 492.5,227.5C 493.369,233.796 494.036,240.129 494.5,246.5C 484.507,248.004 481.84,253.171 486.5,262C 489.022,263.341 491.689,264.174 494.5,264.5C 494.036,270.871 493.369,277.204 492.5,283.5C 482.17,284.18 479.003,289.18 483,298.5C 485.192,300.235 487.692,301.402 490.5,302C 488.76,307.788 487.094,313.622 485.5,319.5C 475.972,318.859 471.805,323.192 473,332.5C 474.799,334.83 476.965,336.83 479.5,338.5C 477.455,344.14 475.121,349.64 472.5,355C 461.844,352.658 457.344,356.825 459,367.5C 460.543,369.378 462.376,370.878 464.5,372C 460.957,377.586 457.291,383.086 453.5,388.5C 443.76,384.106 438.927,387.106 439,397.5C 440.122,399.624 441.622,401.457 443.5,403C 439.323,408.008 434.99,412.841 430.5,417.5C 422.472,412.126 417.138,413.959 414.5,423C 414.992,426.091 415.825,428.925 417,431.5C 412.333,435.5 407.667,439.5 403,443.5C 399.446,438.549 394.946,437.382 389.5,440C 385.925,444.21 385.592,448.71 388.5,453.5C 383.086,457.291 377.586,460.957 372,464.5C 368.992,458.637 364.492,456.804 358.5,459C 356.951,460.214 355.785,461.714 355,463.5C 354.93,466.775 354.763,469.942 354.5,473C 349.207,475.264 343.873,477.431 338.5,479.5C 333.876,471.482 328.043,470.482 321,476.5C 320.821,479.553 320.321,482.553 319.5,485.5C 313.622,487.094 307.788,488.76 302,490.5C 301.279,484.279 297.779,480.946 291.5,480.5C 285.866,482.415 283.199,486.415 283.5,492.5C 277.204,493.369 270.871,494.036 264.5,494.5C 262.996,484.507 257.829,481.84 249,486.5C 247.659,489.022 246.826,491.689 246.5,494.5C 240.129,494.036 233.796,493.369 227.5,492.5C 226.82,482.17 221.82,479.003 212.5,483C 210.765,485.192 209.598,487.692 209,490.5C 203.212,488.76 197.378,487.094 191.5,485.5C 192.141,475.972 187.808,471.805 178.5,473C 176.17,474.799 174.17,476.965 172.5,479.5C 166.86,477.455 161.36,475.121 156,472.5C 158.342,461.844 154.175,457.344 143.5,459C 141.622,460.543 140.122,462.376 139,464.5C 133.414,460.957 127.914,457.291 122.5,453.5C 126.894,443.76 123.894,438.927 113.5,439C 111.376,440.122 109.543,441.622 108,443.5C 102.992,439.323 98.1586,434.99 93.5,430.5C 98.874,422.472 97.0407,417.138 88,414.5C 84.9086,414.992 82.0752,415.825 79.5,417C 75.5,412.333 71.5,407.667 67.5,403C 72.4512,399.446 73.6179,394.946 71,389.5C 66.7897,385.925 62.2897,385.592 57.5,388.5C 53.7093,383.086 50.0426,377.586 46.5,372C 52.1691,369.185 54.0024,364.685 52,358.5C 50.786,356.951 49.286,355.785 47.5,355C 44.2251,354.93 41.0584,354.763 38,354.5C 35.7356,349.207 33.5689,343.873 31.5,338.5C 39.5178,333.876 40.5178,328.043 34.5,321C 31.4465,320.821 28.4465,320.321 25.5,319.5C 23.1843,313.607 22.1843,307.607 22.5,301.5C 27.5239,300.147 30.1906,296.813 30.5,291.5C 28.5853,285.866 24.5853,283.199 18.5,283.5C 17.6306,277.204 16.964,270.871 16.5,264.5C 26.493,262.996 29.1596,257.829 24.5,249C 21.978,247.659 19.3113,246.826 16.5,246.5C 16.964,240.129 17.6306,233.796 18.5,227.5C 28.6943,227.129 31.861,222.129 28,212.5C 25.8078,210.765 23.3078,209.598 20.5,209C 22.2272,203.594 23.7272,198.094 25,192.5C 27.8245,190.812 30.9912,189.979 34.5,190C 38.2765,187.045 39.4432,183.212 38,178.5C 36.2014,176.17 34.0348,174.17 31.5,172.5C 33.5452,166.86 35.8785,161.36 38.5,156C 49.1561,158.342 53.6561,154.175 52,143.5C 50.4571,141.622 48.6238,140.122 46.5,139C 50.0426,133.414 53.7093,127.914 57.5,122.5C 62.2199,125.348 66.7199,125.015 71,121.5C 73.6179,116.054 72.4512,111.554 67.5,108C 71.6767,102.992 76.01,98.1586 80.5,93.5C 88.5283,98.874 93.8616,97.0407 96.5,88C 96.0083,84.9086 95.175,82.0752 94,79.5C 98.6667,75.5 103.333,71.5 108,67.5C 111.554,72.4512 116.054,73.6179 121.5,71C 125.075,66.7897 125.408,62.2897 122.5,57.5C 127.914,53.7093 133.414,50.0426 139,46.5C 143.409,53.7791 148.742,54.7791 155,49.5C 155.923,47.9656 156.423,46.299 156.5,44.5C 155.979,42.476 155.812,40.476 156,38.5C 161.36,35.8785 166.86,33.5452 172.5,31.5C 177.124,39.5178 182.957,40.5178 190,34.5C 190.179,31.4465 190.679,28.4465 191.5,25.5C 197.378,23.9062 203.212,22.2395 209,20.5C 209.653,26.486 212.986,29.8193 219,30.5C 224.999,28.8601 227.833,24.8601 227.5,18.5C 232.299,17.8825 236.966,17.2159 241.5,16.5 Z M 247.5,124.5 C 277.238,123.954 301.738,134.954 321,157.5C 347.587,193.845 357.92,234.512 352,279.5C 347.695,313.611 333.195,342.444 308.5,366C 273.167,393.333 237.833,393.333 202.5,366C 177.805,342.444 163.305,313.611 159,279.5C 153.38,236.99 162.38,197.99 186,162.5C 201.603,141.697 222.103,129.03 247.5,124.5 Z M 250.5,151.5 C 265.999,151.254 279.666,156.087 291.5,166C 309.056,183.61 319.889,204.776 324,229.5C 328.167,252.492 326.834,275.159 320,297.5C 300.543,264.75 280.71,232.25 260.5,200C 253.968,197.177 249.135,199.011 246,205.5C 227.667,236.167 209.333,266.833 191,297.5C 179.227,257.122 183.893,218.789 205,182.5C 216.135,166.033 231.302,155.699 250.5,151.5 Z M 254.5,224.5 C 272.202,251.537 289.202,279.204 305.5,307.5C 291.85,308.499 278.183,308.833 264.5,308.5C 264.666,300.826 264.5,293.159 264,285.5C 261.51,278.84 257.01,277.007 250.5,280C 248.513,281.319 247.346,283.152 247,285.5C 246.5,293.159 246.334,300.826 246.5,308.5C 232.817,308.833 219.15,308.499 205.5,307.5C 222.108,279.943 238.442,252.276 254.5,224.5 Z M 204.5,327.5 C 238.331,326.336 272.331,326.169 306.5,327C 304.833,329.333 303.167,331.667 301.5,334C 270.833,334.667 240.167,334.667 209.5,334C 207.934,331.674 206.268,329.508 204.5,327.5 Z M 123.5,341.5 C 126.865,347.897 129.865,354.564 132.5,361.5C 126.528,362.664 120.528,362.83 114.5,362C 117.406,355.113 120.406,348.28 123.5,341.5 Z M 386.5,341.5 C 390.459,347.92 393.792,354.753 396.5,362C 390.472,362.83 384.472,362.664 378.5,361.5C 381.369,354.889 384.036,348.222 386.5,341.5 Z M 229.5,352.5 C 246.662,351.338 263.995,351.171 281.5,352C 264.252,361.824 246.918,361.99 229.5,352.5 Z"/></g>
<g><path style="opacity:0.953" fill="#000000" d="M 235.5,50.5 C 240.021,50.3919 243.188,52.3919 245,56.5C 245.5,63.4921 245.666,70.4921 245.5,77.5C 252.167,77.5 258.833,77.5 265.5,77.5C 265.334,70.4921 265.5,63.4921 266,56.5C 270.886,48.9824 276.219,48.6491 282,55.5C 282.5,62.8258 282.666,70.1591 282.5,77.5C 288.262,77.1493 293.928,77.6493 299.5,79C 304.254,83.3511 304.588,88.0177 300.5,93C 285.59,94.1516 270.59,94.6516 255.5,94.5C 240.41,94.6516 225.41,94.1516 210.5,93C 206.412,88.0177 206.746,83.3511 211.5,79C 217.072,77.6493 222.738,77.1493 228.5,77.5C 228.334,70.1591 228.5,62.8258 229,55.5C 230.603,52.9649 232.769,51.2982 235.5,50.5 Z"/></g>
<g><path style="opacity:0.93" fill="#000000" d="M 179.5,67.5 C 189.648,66.4731 193.481,70.8065 191,80.5C 189.833,81.6667 188.667,82.8333 187.5,84C 138.754,103.746 104.254,137.913 84,186.5C 67.1888,230.064 66.3555,273.897 81.5,318C 80.1786,324.651 76.1786,327.318 69.5,326C 67,324.833 65.1667,323 64,320.5C 39.7465,236 59.2465,163.5 122.5,103C 139.917,88.6247 158.917,76.7914 179.5,67.5 Z"/></g>
<g><path style="opacity:0.93" fill="#000000" d="M 323.5,67.5 C 333.754,69.0873 343.421,72.5873 352.5,78C 428.093,123.679 462.593,190.846 456,279.5C 454.277,293.449 451.277,307.115 447,320.5C 443.96,326.368 439.46,327.868 433.5,325C 431.292,323.164 429.958,320.831 429.5,318C 452.482,242.934 436.815,177.267 382.5,121C 364.957,105.389 345.29,93.0556 323.5,84C 316.884,78.4165 316.884,72.9165 323.5,67.5 Z"/></g>
<g><path style="opacity:0.939" fill="#000000" d="M 242.5,107.5 C 260.954,105.625 278.621,108.459 295.5,116C 314.167,116.333 332.833,116.667 351.5,117C 357.138,121.807 357.471,126.807 352.5,132C 342.573,133.258 332.573,133.924 322.5,134C 327.201,138.366 331.534,143.033 335.5,148C 347.833,148.333 360.167,148.667 372.5,149C 378.161,150.82 380.328,154.653 379,160.5C 378.215,162.286 377.049,163.786 375.5,165C 366.56,166.215 357.56,166.882 348.5,167C 350.961,171.421 353.294,175.921 355.5,180.5C 366.151,181.332 376.818,181.832 387.5,182C 395.074,186.874 395.408,192.208 388.5,198C 379.814,198.168 371.148,198.668 362.5,199.5C 363.992,204.47 365.326,209.47 366.5,214.5C 376.506,214.334 386.506,214.5 396.5,215C 400.277,217.955 401.443,221.788 400,226.5C 399.167,228.667 397.667,230.167 395.5,231C 386.84,231.5 378.173,231.666 369.5,231.5C 370.053,236.482 370.387,241.482 370.5,246.5C 380.233,246.109 389.9,246.609 399.5,248C 404.833,253 404.833,258 399.5,263C 389.9,264.391 380.233,264.891 370.5,264.5C 369.306,307.955 353.639,345.121 323.5,376C 341.776,379.822 360.109,383.322 378.5,386.5C 378.5,384.167 378.5,381.833 378.5,379.5C 372.407,379.861 366.407,379.361 360.5,378C 358.129,376.257 356.795,373.923 356.5,371C 363.867,350.557 372.2,330.557 381.5,311C 386.729,308.379 391.229,309.212 395,313.5C 403.036,332.614 410.869,351.781 418.5,371C 417.686,373.627 416.353,375.96 414.5,378C 408.258,379.37 401.925,379.87 395.5,379.5C 395.18,382.898 395.513,386.232 396.5,389.5C 406.7,391.73 409.034,397.23 403.5,406C 401.634,406.985 399.634,407.485 397.5,407.5C 394.814,406.988 392.147,406.821 389.5,407C 332.878,453.817 268.878,467.817 197.5,449C 189.786,443.73 189.786,438.396 197.5,433C 199.833,432.333 202.167,432.333 204.5,433C 263.502,448.558 317.502,438.392 366.5,402.5C 345.853,398.371 325.187,394.371 304.5,390.5C 271.833,407.833 239.167,407.833 206.5,390.5C 185.813,394.371 165.147,398.371 144.5,402.5C 154.908,410.123 165.741,417.123 177,423.5C 180.462,431.244 178.129,435.91 170,437.5C 152.01,430.254 135.843,420.087 121.5,407C 117.53,407.326 113.53,407.326 109.5,407C 104.931,404.459 103.431,400.625 105,395.5C 107.071,391.875 110.237,389.875 114.5,389.5C 115.487,386.232 115.82,382.898 115.5,379.5C 109.075,379.87 102.742,379.37 96.5,378C 94.6469,375.96 93.3136,373.627 92.5,371C 100.131,351.781 107.964,332.614 116,313.5C 119.771,309.212 124.271,308.379 129.5,311C 138.8,330.557 147.133,350.557 154.5,371C 154.205,373.923 152.871,376.257 150.5,378C 144.593,379.361 138.593,379.861 132.5,379.5C 132.5,381.833 132.5,384.167 132.5,386.5C 150.891,383.322 169.224,379.822 187.5,376C 157.361,345.121 141.694,307.955 140.5,264.5C 130.767,264.891 121.1,264.391 111.5,263C 106.167,258 106.167,253 111.5,248C 121.1,246.609 130.767,246.109 140.5,246.5C 140.613,241.482 140.947,236.482 141.5,231.5C 132.827,231.666 124.16,231.5 115.5,231C 110.845,228.103 109.345,223.937 111,218.5C 112.167,217.333 113.333,216.167 114.5,215C 124.494,214.5 134.494,214.334 144.5,214.5C 145.674,209.47 147.008,204.47 148.5,199.5C 139.852,198.668 131.186,198.168 122.5,198C 115.592,192.208 115.926,186.874 123.5,182C 134.182,181.832 144.849,181.332 155.5,180.5C 157.706,175.921 160.039,171.421 162.5,167C 153.44,166.882 144.44,166.215 135.5,165C 131.387,161.491 130.554,157.324 133,152.5C 134.319,150.513 136.152,149.346 138.5,149C 150.833,148.667 163.167,148.333 175.5,148C 179.466,143.033 183.799,138.366 188.5,134C 178.427,133.924 168.427,133.258 158.5,132C 153.529,126.807 153.862,121.807 159.5,117C 178.167,116.667 196.833,116.333 215.5,116C 224.371,112.373 233.371,109.539 242.5,107.5 Z M 247.5,124.5 C 222.103,129.03 201.603,141.697 186,162.5C 162.38,197.99 153.38,236.99 159,279.5C 163.305,313.611 177.805,342.444 202.5,366C 237.833,393.333 273.167,393.333 308.5,366C 333.195,342.444 347.695,313.611 352,279.5C 357.92,234.512 347.587,193.845 321,157.5C 301.738,134.954 277.238,123.954 247.5,124.5 Z M 250.5,151.5 C 231.302,155.699 216.135,166.033 205,182.5C 183.893,218.789 179.227,257.122 191,297.5C 209.333,266.833 227.667,236.167 246,205.5C 249.135,199.011 253.968,197.177 260.5,200C 280.71,232.25 300.543,264.75 320,297.5C 326.834,275.159 328.167,252.492 324,229.5C 319.889,204.776 309.056,183.61 291.5,166C 279.666,156.087 265.999,151.254 250.5,151.5 Z M 254.5,224.5 C 238.442,252.276 222.108,279.943 205.5,307.5C 219.15,308.499 232.817,308.833 246.5,308.5C 246.334,300.826 246.5,293.159 247,285.5C 247.346,283.152 248.513,281.319 250.5,280C 257.01,277.007 261.51,278.84 264,285.5C 264.5,293.159 264.666,300.826 264.5,308.5C 278.183,308.833 291.85,308.499 305.5,307.5C 289.202,279.204 272.202,251.537 254.5,224.5 Z M 204.5,327.5 C 206.268,329.508 207.934,331.674 209.5,334C 240.167,334.667 270.833,334.667 301.5,334C 303.167,331.667 304.833,329.333 306.5,327C 272.331,326.169 238.331,326.336 204.5,327.5 Z M 123.5,341.5 C 120.406,348.28 117.406,355.113 114.5,362C 120.528,362.83 126.528,362.664 132.5,361.5C 129.865,354.564 126.865,347.897 123.5,341.5 Z M 386.5,341.5 C 384.036,348.222 381.369,354.889 378.5,361.5C 384.472,362.664 390.472,362.83 396.5,362C 393.792,354.753 390.459,347.92 386.5,341.5 Z M 229.5,352.5 C 246.918,361.99 264.252,361.824 281.5,352C 263.995,351.171 246.662,351.338 229.5,352.5 Z"/></g>
<g><path style="opacity:0.938" fill="#000000" d="M 245.5,134.5 C 271.628,132.485 293.462,141.152 311,160.5C 336.235,192.746 346.901,229.413 343,270.5C 340.607,300.598 329.941,327.265 311,350.5C 281.228,380.762 248.394,384.596 212.5,362C 190.595,343.046 176.762,319.212 171,290.5C 162.774,251.185 168.108,213.852 187,178.5C 200.113,155.205 219.613,140.539 245.5,134.5 Z M 250.5,151.5 C 231.302,155.699 216.135,166.033 205,182.5C 183.893,218.789 179.227,257.122 191,297.5C 209.333,266.833 227.667,236.167 246,205.5C 249.135,199.011 253.968,197.177 260.5,200C 280.71,232.25 300.543,264.75 320,297.5C 326.834,275.159 328.167,252.492 324,229.5C 319.889,204.776 309.056,183.61 291.5,166C 279.666,156.087 265.999,151.254 250.5,151.5 Z M 254.5,224.5 C 238.442,252.276 222.108,279.943 205.5,307.5C 219.15,308.499 232.817,308.833 246.5,308.5C 246.334,300.826 246.5,293.159 247,285.5C 247.346,283.152 248.513,281.319 250.5,280C 257.01,277.007 261.51,278.84 264,285.5C 264.5,293.159 264.666,300.826 264.5,308.5C 278.183,308.833 291.85,308.499 305.5,307.5C 289.202,279.204 272.202,251.537 254.5,224.5 Z M 204.5,327.5 C 206.268,329.508 207.934,331.674 209.5,334C 240.167,334.667 270.833,334.667 301.5,334C 303.167,331.667 304.833,329.333 306.5,327C 272.331,326.169 238.331,326.336 204.5,327.5 Z M 229.5,352.5 C 246.918,361.99 264.252,361.824 281.5,352C 263.995,351.171 246.662,351.338 229.5,352.5 Z"/></g>
</svg>
