<?xml version="1.0" encoding="UTF-8"?>
<!DOCTYPE svg PUBLIC "-//W3C//DTD SVG 1.1//EN" "http://www.w3.org/Graphics/SVG/1.1/DTD/svg11.dtd">
<svg xmlns="http://www.w3.org/2000/svg" version="1.1" width="64px" height="64px" style="shape-rendering:geometricPrecision; text-rendering:geometricPrecision; image-rendering:optimizeQuality; fill-rule:evenodd; clip-rule:evenodd" xmlns:xlink="http://www.w3.org/1999/xlink">
<g><path style="opacity:0.79" fill="#000000" d="M 43.5,6.5 C 54.3786,6.20394 58.2119,11.2039 55,21.5C 52.954,23.3761 51.1207,25.3761 49.5,27.5C 51.0648,40.948 45.0648,48.6147 31.5,50.5C 30.1667,50.1667 28.8333,49.8333 27.5,49.5C 25.0029,51.8259 22.3362,53.9926 19.5,56C 10,57.1667 5.83333,53 7,43.5C 8.56895,40.4695 10.7356,37.9695 13.5,36C 11.5572,25.8856 15.2238,18.5523 24.5,14C 28.8368,12.5354 33.1701,12.0354 37.5,12.5C 38.8826,9.7839 40.8826,7.7839 43.5,6.5 Z M 45.5,10.5 C 52.5173,11.9821 53.8506,15.4821 49.5,21C 41.8349,20.8425 39.5016,24.3425 42.5,31.5C 42.3885,36.4507 40.0552,39.9507 35.5,42C 31.4695,42.3257 27.4695,42.3257 23.5,42C 21.9648,44.6239 20.7982,47.4572 20,50.5C 15.5004,53.3839 12.3337,52.2172 10.5,47C 10.8623,45.7753 11.3623,44.6086 12,43.5C 15,42.1667 18,40.8333 21,39.5C 18.5,24.6667 24.6667,18.5 39.5,21C 41.0352,18.3761 42.2018,15.5428 43,12.5C 43.9947,11.9341 44.828,11.2674 45.5,10.5 Z"/></g>
<g><path style="opacity:0.86" fill="#000000" d="M 27.5,24.5 C 37.8069,23.6236 40.8069,27.7902 36.5,37C 29.9871,40.2191 25.9871,38.3857 24.5,31.5C 24.6946,28.7819 25.6946,26.4486 27.5,24.5 Z"/></g>
</svg>
