<?xml version="1.0" encoding="UTF-8"?>
<!DOCTYPE svg PUBLIC "-//W3C//DTD SVG 1.1//EN" "http://www.w3.org/Graphics/SVG/1.1/DTD/svg11.dtd">
<svg xmlns="http://www.w3.org/2000/svg" version="1.1" width="512px" height="512px" style="shape-rendering:geometricPrecision; text-rendering:geometricPrecision; image-rendering:optimizeQuality; fill-rule:evenodd; clip-rule:evenodd" xmlns:xlink="http://www.w3.org/1999/xlink">
<g><path style="opacity:0.963" fill="#020100" d="M 233.5,-0.5 C 248.167,-0.5 262.833,-0.5 277.5,-0.5C 377.764,12.0403 449.264,64.0403 492,155.5C 502.135,180.377 508.635,206.043 511.5,232.5C 511.5,247.5 511.5,262.5 511.5,277.5C 499.016,377.807 447.016,449.307 355.5,492C 330.316,502.296 304.316,508.796 277.5,511.5C 262.5,511.5 247.5,511.5 232.5,511.5C 130.434,498.225 58.6008,444.558 17,350.5C 8.0309,327.127 2.19757,303.127 -0.5,278.5C -0.5,263.167 -0.5,247.833 -0.5,232.5C 9.30698,148.242 49.6403,83.0754 120.5,37C 155.422,15.9704 193.088,3.4704 233.5,-0.5 Z"/></g>
<g><path style="opacity:1" fill="#fce36c" d="M 242.5,15.5 C 328.697,13.5826 397.864,46.5826 450,114.5C 500.245,188.472 508.912,267.139 476,350.5C 434.453,438.046 365.286,486.213 268.5,495C 182.266,497.461 113.099,464.627 61,396.5C 13.839,327.085 3.50569,252.418 30,172.5C 56.8333,104.333 104.333,56.8333 172.5,30C 195.258,21.6373 218.592,16.804 242.5,15.5 Z"/></g>
<g><path style="opacity:1" fill="#0d0b04" d="M 263.5,39.5 C 263.113,44.7191 260.28,47.3858 255,47.5C 250.265,46.932 247.765,44.2653 247.5,39.5C 249.054,32.0558 253.388,29.8892 260.5,33C 262.451,34.7342 263.451,36.9009 263.5,39.5 Z"/></g>
<g><path style="opacity:1" fill="#0b0903" d="M 221.5,41.5 C 221.638,49.2007 217.971,52.3673 210.5,51C 207.944,49.9455 206.277,48.1122 205.5,45.5C 205.255,38.469 208.588,35.3023 215.5,36C 217.996,37.331 219.996,39.1644 221.5,41.5 Z"/></g>
<g><path style="opacity:1" fill="#0c0a04" d="M 305.5,45.5 C 302.49,51.6455 297.99,52.9788 292,49.5C 290.293,47.0912 289.46,44.4245 289.5,41.5C 293.2,34.8563 298.034,33.8563 304,38.5C 305.202,40.6775 305.702,43.0108 305.5,45.5 Z"/></g>
<g><path style="opacity:1" fill="#fed145" d="M 247.5,39.5 C 247.765,44.2653 250.265,46.932 255,47.5C 260.28,47.3858 263.113,44.7191 263.5,39.5C 272.133,40.5632 280.799,41.2298 289.5,41.5C 289.46,44.4245 290.293,47.0912 292,49.5C 297.99,52.9788 302.49,51.6455 305.5,45.5C 313.879,47.6779 322.212,50.0112 330.5,52.5C 329.821,60.6559 333.488,64.1559 341.5,63C 343.35,62.3103 344.684,61.1436 345.5,59.5C 353.612,62.7221 361.279,66.7221 368.5,71.5C 367.338,83.3245 372.005,86.3245 382.5,80.5C 389.127,85.8225 395.794,91.1558 402.5,96.5C 398.607,103.6 400.44,108.267 408,110.5C 410.41,110.518 412.577,109.851 414.5,108.5C 419.844,115.206 425.178,121.873 430.5,128.5C 427.16,132.052 426.66,136.052 429,140.5C 432.041,143.542 435.541,144.208 439.5,142.5C 444.278,149.721 448.278,157.388 451.5,165.5C 446.225,170.289 446.225,175.122 451.5,180C 453.81,180.497 456.143,180.663 458.5,180.5C 461.444,188.664 463.777,196.998 465.5,205.5C 458.87,209.105 457.87,213.939 462.5,220C 464.677,221.202 467.011,221.702 469.5,221.5C 470.167,230.167 470.833,238.833 471.5,247.5C 464.056,249.054 461.889,253.388 465,260.5C 466.734,262.451 468.901,263.451 471.5,263.5C 471.155,272.258 470.155,280.925 468.5,289.5C 461.368,289.802 458.535,293.469 460,300.5C 461.055,303.056 462.888,304.723 465.5,305.5C 463.322,313.879 460.989,322.212 458.5,330.5C 450.344,329.821 446.844,333.488 448,341.5C 448.69,343.35 449.856,344.684 451.5,345.5C 448.278,353.612 444.278,361.279 439.5,368.5C 427.648,367.362 424.648,372.029 430.5,382.5C 425.178,389.127 419.844,395.794 414.5,402.5C 404.994,398.185 400.494,401.185 401,411.5C 401.513,412.527 402.013,413.527 402.5,414.5C 395.794,419.844 389.127,425.178 382.5,430.5C 372.029,424.648 367.362,427.648 368.5,439.5C 361.279,444.278 353.612,448.278 345.5,451.5C 340.758,446.235 335.924,446.235 331,451.5C 330.503,453.81 330.337,456.143 330.5,458.5C 322.211,460.989 313.878,463.322 305.5,465.5C 301.895,458.87 297.061,457.87 291,462.5C 289.872,464.345 289.372,466.345 289.5,468.5C 280.897,469.933 272.231,470.933 263.5,471.5C 263.123,466.291 260.29,463.625 255,463.5C 250.255,464.078 247.755,466.744 247.5,471.5C 238.844,470.701 230.178,470.034 221.5,469.5C 221.686,461.851 218.019,458.685 210.5,460C 207.944,461.055 206.277,462.888 205.5,465.5C 196.998,463.777 188.664,461.444 180.5,458.5C 181.179,450.344 177.512,446.844 169.5,448C 167.676,448.66 166.343,449.827 165.5,451.5C 157.388,448.278 149.721,444.278 142.5,439.5C 144.533,430.364 140.866,426.531 131.5,428C 130.627,429.045 129.627,429.878 128.5,430.5C 121.873,425.178 115.206,419.844 108.5,414.5C 112.69,407.025 110.69,402.358 102.5,400.5C 100.286,400.611 98.2857,401.278 96.5,402.5C 91.1558,395.794 85.8225,389.127 80.5,382.5C 86.3462,372.024 83.3462,367.357 71.5,368.5C 66.7221,361.279 62.7221,353.612 59.5,345.5C 64.7647,340.758 64.7647,335.924 59.5,331C 57.1902,330.503 54.8568,330.337 52.5,330.5C 50.0112,322.212 47.6779,313.879 45.5,305.5C 51.6455,302.49 52.9788,297.99 49.5,292C 47.0912,290.293 44.4245,289.46 41.5,289.5C 41.1339,280.807 40.4672,272.14 39.5,263.5C 44.7191,263.113 47.3858,260.28 47.5,255C 46.932,250.265 44.2653,247.765 39.5,247.5C 40.0345,238.822 40.7011,230.156 41.5,221.5C 49.2007,221.638 52.3673,217.971 51,210.5C 49.9455,207.944 48.1122,206.277 45.5,205.5C 47.2229,196.998 49.5563,188.664 52.5,180.5C 60.6559,181.179 64.1559,177.512 63,169.5C 62.3103,167.65 61.1436,166.316 59.5,165.5C 62.7221,157.388 66.7221,149.721 71.5,142.5C 80.6127,144.557 84.4461,140.89 83,131.5C 81.955,130.627 81.1217,129.627 80.5,128.5C 85.8225,121.873 91.1558,115.206 96.5,108.5C 103.846,112.49 108.513,110.49 110.5,102.5C 110.389,100.286 109.722,98.2857 108.5,96.5C 115.206,91.1558 121.873,85.8225 128.5,80.5C 132.052,83.8397 136.052,84.3397 140.5,82C 143.294,78.8646 143.961,75.3646 142.5,71.5C 149.721,66.7221 157.388,62.7221 165.5,59.5C 170.242,64.7647 175.076,64.7647 180,59.5C 180.497,57.1902 180.663,54.8568 180.5,52.5C 188.664,49.5563 196.998,47.2229 205.5,45.5C 206.277,48.1122 207.944,49.9455 210.5,51C 217.971,52.3673 221.638,49.2007 221.5,41.5C 230.156,40.7011 238.822,40.0345 247.5,39.5 Z"/></g>
<g><path style="opacity:1" fill="#0b0904" d="M 180.5,52.5 C 180.663,54.8568 180.497,57.1902 180,59.5C 175.076,64.7647 170.242,64.7647 165.5,59.5C 164.001,50.8348 167.667,47.3348 176.5,49C 178.35,49.6897 179.684,50.8564 180.5,52.5 Z"/></g>
<g><path style="opacity:1" fill="#060502" d="M 345.5,59.5 C 344.684,61.1436 343.35,62.3103 341.5,63C 333.488,64.1559 329.821,60.6559 330.5,52.5C 334.886,47.6179 339.72,47.2845 345,51.5C 345.497,54.146 345.664,56.8127 345.5,59.5 Z"/></g>
<g><path style="opacity:1" fill="#070602" d="M 142.5,71.5 C 143.961,75.3646 143.294,78.8646 140.5,82C 136.052,84.3397 132.052,83.8397 128.5,80.5C 126.469,71.3621 130.136,67.5287 139.5,69C 140.373,70.045 141.373,70.8783 142.5,71.5 Z"/></g>
<g><path style="opacity:1" fill="#080602" d="M 382.5,80.5 C 372.005,86.3245 367.338,83.3245 368.5,71.5C 373.623,67.2435 378.456,67.5768 383,72.5C 383.602,75.2205 383.435,77.8872 382.5,80.5 Z"/></g>
<g><path style="opacity:1" fill="#0d0b05" d="M 108.5,96.5 C 109.722,98.2857 110.389,100.286 110.5,102.5C 108.513,110.49 103.846,112.49 96.5,108.5C 92.9341,101.294 95.1007,96.6272 103,94.5C 104.939,94.9543 106.772,95.621 108.5,96.5 Z"/></g>
<g><path style="opacity:1" fill="#0d0b05" d="M 414.5,108.5 C 412.577,109.851 410.41,110.518 408,110.5C 400.44,108.267 398.607,103.6 402.5,96.5C 409.706,92.9341 414.373,95.1007 416.5,103C 416.046,104.939 415.379,106.772 414.5,108.5 Z"/></g>
<g><path style="opacity:1" fill="#000000" d="M 180.5,103.5 C 185.152,102.984 188.652,104.651 191,108.5C 191.667,190.167 191.667,271.833 191,353.5C 190.018,357.624 187.352,359.624 183,359.5C 179.112,359.277 176.779,357.277 176,353.5C 175.333,271.833 175.333,190.167 176,108.5C 177.025,106.313 178.525,104.646 180.5,103.5 Z"/></g>
<g><path style="opacity:1" fill="#070602" d="M 80.5,128.5 C 81.1217,129.627 81.955,130.627 83,131.5C 84.4461,140.89 80.6127,144.557 71.5,142.5C 67.2435,137.377 67.5768,132.544 72.5,128C 75.1922,127.57 77.8589,127.737 80.5,128.5 Z"/></g>
<g><path style="opacity:1" fill="#060401" d="M 439.5,142.5 C 435.541,144.208 432.041,143.542 429,140.5C 426.66,136.052 427.16,132.052 430.5,128.5C 439.689,126.522 443.522,130.188 442,139.5C 440.955,140.373 440.122,141.373 439.5,142.5 Z"/></g>
<g><path style="opacity:1" fill="#0b0904" d="M 59.5,165.5 C 61.1436,166.316 62.3103,167.65 63,169.5C 64.1559,177.512 60.6559,181.179 52.5,180.5C 48.7593,177.444 47.5927,173.444 49,168.5C 51.7966,164.778 55.2966,163.778 59.5,165.5 Z"/></g>
<g><path style="opacity:1" fill="#0c0904" d="M 458.5,180.5 C 456.143,180.663 453.81,180.497 451.5,180C 446.225,175.122 446.225,170.289 451.5,165.5C 460.165,164.001 463.665,167.667 462,176.5C 461.31,178.35 460.144,179.684 458.5,180.5 Z"/></g>
<g><path style="opacity:1" fill="#0b0903" d="M 45.5,205.5 C 48.1122,206.277 49.9455,207.944 51,210.5C 52.3673,217.971 49.2007,221.638 41.5,221.5C 35.0395,217.697 34.0395,212.863 38.5,207C 40.6775,205.798 43.0108,205.298 45.5,205.5 Z"/></g>
<g><path style="opacity:1" fill="#0c0a04" d="M 465.5,205.5 C 472.531,205.255 475.698,208.588 475,215.5C 473.64,218.023 471.807,220.023 469.5,221.5C 467.011,221.702 464.677,221.202 462.5,220C 457.87,213.939 458.87,209.105 465.5,205.5 Z"/></g>
<g><path style="opacity:1" fill="#030200" d="M 244.5,215.5 C 249.152,214.984 252.652,216.651 255,220.5C 255.333,227.5 255.667,234.5 256,241.5C 280.102,216.017 308.602,209.517 341.5,222C 374.985,240.14 388.152,267.973 381,305.5C 371.802,335.696 351.635,353.529 320.5,359C 294.72,361.189 273.22,352.689 256,333.5C 255.667,361.5 255.333,389.5 255,417.5C 254.018,421.624 251.352,423.624 247,423.5C 243.112,423.277 240.779,421.277 240,417.5C 239.333,351.833 239.333,286.167 240,220.5C 241.025,218.313 242.525,216.646 244.5,215.5 Z"/></g>
<g><path style="opacity:1" fill="#fdd045" d="M 302.5,231.5 C 336.87,229.748 358.37,245.415 367,278.5C 369.565,308.732 356.899,329.399 329,340.5C 301.906,347.914 280.239,340.248 264,317.5C 248.421,286.719 254.254,260.886 281.5,240C 288.187,236.057 295.187,233.224 302.5,231.5 Z"/></g>
<g><path style="opacity:1" fill="#0d0b04" d="M 39.5,247.5 C 44.2653,247.765 46.932,250.265 47.5,255C 47.3858,260.28 44.7191,263.113 39.5,263.5C 34.2913,263.123 31.6246,260.29 31.5,255C 32.0778,250.255 34.7444,247.755 39.5,247.5 Z"/></g>
<g><path style="opacity:1" fill="#0d0b04" d="M 471.5,247.5 C 478.951,249.068 481.118,253.402 478,260.5C 476.157,262.171 473.991,263.171 471.5,263.5C 468.901,263.451 466.734,262.451 465,260.5C 461.889,253.388 464.056,249.054 471.5,247.5 Z"/></g>
<g><path style="opacity:1" fill="#0c0904" d="M 41.5,289.5 C 44.4245,289.46 47.0912,290.293 49.5,292C 52.9788,297.99 51.6455,302.49 45.5,305.5C 38.1452,305.459 34.9785,301.793 36,294.5C 37.7038,292.627 39.5372,290.96 41.5,289.5 Z"/></g>
<g><path style="opacity:1" fill="#0d0a04" d="M 468.5,289.5 C 476.052,292.659 477.385,297.492 472.5,304C 470.323,305.202 467.989,305.702 465.5,305.5C 462.888,304.723 461.055,303.056 460,300.5C 458.535,293.469 461.368,289.802 468.5,289.5 Z"/></g>
<g><path style="opacity:1" fill="#060502" d="M 52.5,330.5 C 54.8568,330.337 57.1902,330.503 59.5,331C 64.7647,335.924 64.7647,340.758 59.5,345.5C 50.7258,346.892 47.2258,343.226 49,334.5C 49.6897,332.65 50.8564,331.316 52.5,330.5 Z"/></g>
<g><path style="opacity:1" fill="#060502" d="M 458.5,330.5 C 463.382,334.886 463.715,339.72 459.5,345C 456.854,345.497 454.187,345.664 451.5,345.5C 449.856,344.684 448.69,343.35 448,341.5C 446.844,333.488 450.344,329.821 458.5,330.5 Z"/></g>
<g><path style="opacity:1" fill="#070602" d="M 80.5,382.5 C 71.3621,384.531 67.5287,380.864 69,371.5C 70.045,370.627 70.8783,369.627 71.5,368.5C 83.3462,367.357 86.3462,372.024 80.5,382.5 Z"/></g>
<g><path style="opacity:1" fill="#050401" d="M 439.5,368.5 C 442.355,371.592 443.188,375.259 442,379.5C 438.898,383.353 435.065,384.353 430.5,382.5C 424.648,372.029 427.648,367.362 439.5,368.5 Z"/></g>
<g><path style="opacity:1" fill="#0d0b05" d="M 108.5,414.5 C 101.294,418.066 96.6272,415.899 94.5,408C 94.9543,406.061 95.621,404.228 96.5,402.5C 98.2857,401.278 100.286,400.611 102.5,400.5C 110.69,402.358 112.69,407.025 108.5,414.5 Z"/></g>
<g><path style="opacity:1" fill="#0d0b05" d="M 414.5,402.5 C 418.066,409.706 415.899,414.373 408,416.5C 406.061,416.046 404.228,415.379 402.5,414.5C 402.013,413.527 401.513,412.527 401,411.5C 400.494,401.185 404.994,398.185 414.5,402.5 Z"/></g>
<g><path style="opacity:1" fill="#050401" d="M 142.5,439.5 C 139.408,442.355 135.741,443.188 131.5,442C 127.647,438.898 126.647,435.065 128.5,430.5C 129.627,429.878 130.627,429.045 131.5,428C 140.866,426.531 144.533,430.364 142.5,439.5 Z"/></g>
<g><path style="opacity:1" fill="#050401" d="M 382.5,430.5 C 384.478,439.689 380.812,443.522 371.5,442C 370.627,440.955 369.627,440.122 368.5,439.5C 367.362,427.648 372.029,424.648 382.5,430.5 Z"/></g>
<g><path style="opacity:1" fill="#0c0904" d="M 180.5,458.5 C 177.444,462.241 173.444,463.407 168.5,462C 164.778,459.203 163.778,455.703 165.5,451.5C 166.343,449.827 167.676,448.66 169.5,448C 177.512,446.844 181.179,450.344 180.5,458.5 Z"/></g>
<g><path style="opacity:1" fill="#060502" d="M 345.5,451.5 C 346.892,460.274 343.226,463.774 334.5,462C 332.65,461.31 331.316,460.144 330.5,458.5C 330.337,456.143 330.503,453.81 331,451.5C 335.924,446.235 340.758,446.235 345.5,451.5 Z"/></g>
<g><path style="opacity:1" fill="#0c0904" d="M 221.5,469.5 C 217.743,475.951 212.91,476.951 207,472.5C 205.798,470.323 205.298,467.989 205.5,465.5C 206.277,462.888 207.944,461.055 210.5,460C 218.019,458.685 221.686,461.851 221.5,469.5 Z"/></g>
<g><path style="opacity:1" fill="#0c0904" d="M 305.5,465.5 C 305.526,472.832 301.859,475.999 294.5,475C 292.235,473.242 290.568,471.075 289.5,468.5C 289.372,466.345 289.872,464.345 291,462.5C 297.061,457.87 301.895,458.87 305.5,465.5 Z"/></g>
<g><path style="opacity:1" fill="#0d0b04" d="M 263.5,471.5 C 263.113,476.719 260.28,479.386 255,479.5C 250.265,478.932 247.765,476.265 247.5,471.5C 247.755,466.744 250.255,464.078 255,463.5C 260.29,463.625 263.123,466.291 263.5,471.5 Z"/></g>
</svg>
