<?xml version="1.0" encoding="UTF-8"?>
<!DOCTYPE svg PUBLIC "-//W3C//DTD SVG 1.1//EN" "http://www.w3.org/Graphics/SVG/1.1/DTD/svg11.dtd">
<svg xmlns="http://www.w3.org/2000/svg" version="1.1" width="64px" height="64px" style="shape-rendering:geometricPrecision; text-rendering:geometricPrecision; image-rendering:optimizeQuality; fill-rule:evenodd; clip-rule:evenodd" xmlns:xlink="http://www.w3.org/1999/xlink">
<g><path style="opacity:0.952" fill="#fcdb4e" d="M 32.5,1.5 C 50.9695,2.96976 60.6362,12.9698 61.5,31.5C 60.6362,50.0302 50.9695,60.0302 32.5,61.5C 32.762,60.0222 32.4287,58.6888 31.5,57.5C 30.6143,58.325 30.281,59.325 30.5,60.5C 24.0235,59.8451 18.5235,57.1784 14,52.5C 13.5172,51.552 13.3505,50.552 13.5,49.5C 10.8315,48.9011 8.9982,47.2344 8,44.5C 3.99766,34.0162 4.831,24.0162 10.5,14.5C 11.325,13.6143 12.325,13.281 13.5,13.5C 13.7438,10.7374 15.0771,8.57073 17.5,7C 21.4738,4.39787 25.8071,2.89787 30.5,2.5C 30.281,3.67504 30.6143,4.67504 31.5,5.5C 32.4287,4.31116 32.762,2.97782 32.5,1.5 Z"/></g>
<g><path style="opacity:1" fill="#eca037" d="M 24.5,7.5 C 46.1755,6.00965 56.3422,16.0097 55,37.5C 47.8355,54.6595 35.6688,59.4928 18.5,52C 6.92353,42.9352 4.42353,31.7685 11,18.5C 14.6656,13.7582 19.1656,10.0915 24.5,7.5 Z"/></g>
<g><path style="opacity:1" fill="#feaa30" d="M 14.5,26.5 C 17.1177,21.8822 20.7844,18.2155 25.5,15.5C 25.3764,14.8933 25.0431,14.56 24.5,14.5C 36.4322,8.86139 45.2656,12.1947 51,24.5C 53.9321,36.7112 49.7654,45.5446 38.5,51C 21.6783,51.6773 13.6783,43.5106 14.5,26.5 Z"/></g>
<g><path style="opacity:1" fill="#fbd8a8" d="M 27.5,13.5 C 29.337,13.6395 29.6704,14.3061 28.5,15.5C 27.7025,15.0431 27.3691,14.3764 27.5,13.5 Z"/></g>
<g><path style="opacity:1" fill="#f5e9d8" d="M 24.5,14.5 C 25.0431,14.56 25.3764,14.8933 25.5,15.5C 20.7844,18.2155 17.1177,21.8822 14.5,26.5C 15.9778,21.0165 19.3112,17.0165 24.5,14.5 Z"/></g>
<g><path style="opacity:1" fill="#dabc44" d="M 32.5,1.5 C 32.762,2.97782 32.4287,4.31116 31.5,5.5C 30.6143,4.67504 30.281,3.67504 30.5,2.5C 25.8071,2.89787 21.4738,4.39787 17.5,7C 15.0771,8.57073 13.7438,10.7374 13.5,13.5C 12.325,13.281 11.325,13.6143 10.5,14.5C 4.831,24.0162 3.99766,34.0162 8,44.5C 8.9982,47.2344 10.8315,48.9011 13.5,49.5C 13.3505,50.552 13.5172,51.552 14,52.5C 18.5235,57.1784 24.0235,59.8451 30.5,60.5C 30.281,59.325 30.6143,58.325 31.5,57.5C 32.4287,58.6888 32.762,60.0222 32.5,61.5C 12.981,60.9809 2.64764,50.9809 1.5,31.5C 2.64764,12.0191 12.981,2.01915 32.5,1.5 Z"/></g>
<g><path style="opacity:1" fill="#cd7810" d="M 30.5,23.5 C 33.2257,23.2639 35.559,24.0972 37.5,26C 34.9023,25.5783 32.2356,25.5783 29.5,26C 25.5,29.6667 25.5,33.3333 29.5,37C 31.5,37.6667 33.5,37.6667 35.5,37C 36.9255,35.2859 36.5922,33.9525 34.5,33C 35.448,32.5172 36.448,32.3505 37.5,32.5C 38.1368,37.85 35.8034,40.0166 30.5,39C 25.7762,36.5647 24.2762,32.7314 26,27.5C 27.3968,25.9297 28.8968,24.5964 30.5,23.5 Z"/></g>
</svg>
