<?xml version="1.0" encoding="UTF-8"?>
<!DOCTYPE svg PUBLIC "-//W3C//DTD SVG 1.1//EN" "http://www.w3.org/Graphics/SVG/1.1/DTD/svg11.dtd">
<svg xmlns="http://www.w3.org/2000/svg" version="1.1" width="512px" height="512px" style="shape-rendering:geometricPrecision; text-rendering:geometricPrecision; image-rendering:optimizeQuality; fill-rule:evenodd; clip-rule:evenodd" xmlns:xlink="http://www.w3.org/1999/xlink">
<g><path style="opacity:0.934" fill="#000000" d="M 233.5,-0.5 C 248.167,-0.5 262.833,-0.5 277.5,-0.5C 367.555,10.0943 435.388,54.4276 481,132.5C 497.855,164.278 508.022,197.945 511.5,233.5C 511.5,248.167 511.5,262.833 511.5,277.5C 500.906,367.555 456.572,435.388 378.5,481C 346.722,497.855 313.055,508.022 277.5,511.5C 262.833,511.5 248.167,511.5 233.5,511.5C 143.445,500.906 75.612,456.572 30,378.5C 13.1449,346.722 2.97822,313.055 -0.5,277.5C -0.5,262.833 -0.5,248.167 -0.5,233.5C 10.0943,143.445 54.4276,75.612 132.5,30C 164.278,13.1449 197.945,2.97822 233.5,-0.5 Z M 238.5,16.5 C 333.927,14.1239 407.76,52.4573 460,131.5C 498.372,198.224 504.706,267.891 479,340.5C 447.513,417.32 391.68,466.487 311.5,488C 210.277,507.488 127.443,477.322 63,397.5C 14.2533,327.203 3.91994,251.536 32,170.5C 71.0476,79.2927 139.881,27.9593 238.5,16.5 Z M 238.5,75.5 C 315.988,72.1508 374.488,103.484 414,169.5C 448.034,239.602 442.034,305.935 396,368.5C 344.1,427.352 279.933,447.185 203.5,428C 129.55,402.042 87.0495,350.208 76,272.5C 72.1654,194.986 103.332,136.486 169.5,97C 191.332,85.6644 214.332,78.4977 238.5,75.5 Z M 249.5,122.5 C 274.041,121.765 292.375,131.932 304.5,153C 298.915,156.375 293.415,159.875 288,163.5C 280.083,158.792 272.25,153.959 264.5,149C 258.5,144.333 252.5,144.333 246.5,149C 238.75,153.959 230.917,158.792 223,163.5C 217.585,159.875 212.085,156.375 206.5,153C 215.979,135.932 230.312,125.766 249.5,122.5 Z M 184.5,209.5 C 205.167,209.5 225.833,209.5 246.5,209.5C 246.5,225.5 246.5,241.5 246.5,257.5C 225.833,257.5 205.167,257.5 184.5,257.5C 184.5,241.5 184.5,225.5 184.5,209.5 Z M 264.5,209.5 C 285.167,209.5 305.833,209.5 326.5,209.5C 326.5,247.167 326.5,284.833 326.5,322.5C 319.167,322.5 311.833,322.5 304.5,322.5C 304.334,314.16 304.5,305.827 305,297.5C 313.461,291.99 313.627,286.323 305.5,280.5C 304.338,275.533 304.171,270.533 305,265.5C 313.437,260.039 313.604,254.372 305.5,248.5C 304.793,242.806 303.96,237.139 303,231.5C 298.491,226.583 293.658,226.249 288.5,230.5C 287.029,236.388 286.029,242.388 285.5,248.5C 279.296,251.687 277.962,256.354 281.5,262.5C 282.914,263.624 284.414,264.624 286,265.5C 286.829,270.533 286.662,275.533 285.5,280.5C 279.591,283.26 278.091,287.594 281,293.5C 282.378,295.213 284.045,296.547 286,297.5C 286.5,305.827 286.666,314.16 286.5,322.5C 279.167,322.5 271.833,322.5 264.5,322.5C 264.5,284.833 264.5,247.167 264.5,209.5 Z M 184.5,274.5 C 205.167,274.5 225.833,274.5 246.5,274.5C 246.5,290.5 246.5,306.5 246.5,322.5C 225.833,322.5 205.167,322.5 184.5,322.5C 184.5,306.5 184.5,290.5 184.5,274.5 Z M 190.5,341.5 C 208.993,340.503 227.659,340.17 246.5,340.5C 246.833,355.182 246.499,369.848 245.5,384.5C 225.777,377.733 209.277,366.399 196,350.5C 194.141,347.436 192.308,344.436 190.5,341.5 Z M 264.5,340.5 C 283.17,340.333 301.836,340.5 320.5,341C 312.5,355.667 301.167,367 286.5,375C 279.71,378.651 272.71,381.818 265.5,384.5C 264.501,369.848 264.167,355.182 264.5,340.5 Z"/></g>
<g><path style="opacity:0.93" fill="#000000" d="M 242.5,28.5 C 330.576,26.7828 399.076,62.1161 448,134.5C 485.37,197.557 492.37,263.89 469,333.5C 442.364,402.136 394.197,448.303 324.5,472C 313.158,473.503 309.491,469.003 313.5,458.5C 358.854,443.586 396.021,417.252 425,379.5C 468.549,315.435 476.549,247.101 449,174.5C 420.645,111.484 373.145,70.6508 306.5,52C 238.935,37.1095 177.935,50.7762 123.5,93C 115.273,97.7155 109.939,95.5489 107.5,86.5C 108.098,85.2054 108.598,83.8721 109,82.5C 147.607,50.1264 192.107,32.1264 242.5,28.5 Z"/></g>
<g><path style="opacity:0.932" fill="#000000" d="M 248.5,57.5 C 319.49,57.5777 375.99,85.9111 418,142.5C 464.493,216.413 465.16,290.747 420,365.5C 379.999,421.925 325.166,451.259 255.5,453.5C 187.33,451.337 133.163,423.003 93,368.5C 46.5066,294.587 45.84,220.253 91,145.5C 129.323,91.082 181.823,61.7487 248.5,57.5 Z M 238.5,75.5 C 214.332,78.4977 191.332,85.6644 169.5,97C 103.332,136.486 72.1654,194.986 76,272.5C 87.0495,350.208 129.55,402.042 203.5,428C 279.933,447.185 344.1,427.352 396,368.5C 442.034,305.935 448.034,239.602 414,169.5C 374.488,103.484 315.988,72.1508 238.5,75.5 Z M 249.5,122.5 C 230.312,125.766 215.979,135.932 206.5,153C 212.085,156.375 217.585,159.875 223,163.5C 230.917,158.792 238.75,153.959 246.5,149C 252.5,144.333 258.5,144.333 264.5,149C 272.25,153.959 280.083,158.792 288,163.5C 293.415,159.875 298.915,156.375 304.5,153C 292.375,131.932 274.041,121.765 249.5,122.5 Z M 184.5,209.5 C 184.5,225.5 184.5,241.5 184.5,257.5C 205.167,257.5 225.833,257.5 246.5,257.5C 246.5,241.5 246.5,225.5 246.5,209.5C 225.833,209.5 205.167,209.5 184.5,209.5 Z M 264.5,209.5 C 264.5,247.167 264.5,284.833 264.5,322.5C 271.833,322.5 279.167,322.5 286.5,322.5C 286.666,314.16 286.5,305.827 286,297.5C 284.045,296.547 282.378,295.213 281,293.5C 278.091,287.594 279.591,283.26 285.5,280.5C 286.662,275.533 286.829,270.533 286,265.5C 284.414,264.624 282.914,263.624 281.5,262.5C 277.962,256.354 279.296,251.687 285.5,248.5C 286.029,242.388 287.029,236.388 288.5,230.5C 293.658,226.249 298.491,226.583 303,231.5C 303.96,237.139 304.793,242.806 305.5,248.5C 313.604,254.372 313.437,260.039 305,265.5C 304.171,270.533 304.338,275.533 305.5,280.5C 313.627,286.323 313.461,291.99 305,297.5C 304.5,305.827 304.334,314.16 304.5,322.5C 311.833,322.5 319.167,322.5 326.5,322.5C 326.5,284.833 326.5,247.167 326.5,209.5C 305.833,209.5 285.167,209.5 264.5,209.5 Z M 184.5,274.5 C 184.5,290.5 184.5,306.5 184.5,322.5C 205.167,322.5 225.833,322.5 246.5,322.5C 246.5,306.5 246.5,290.5 246.5,274.5C 225.833,274.5 205.167,274.5 184.5,274.5 Z M 190.5,341.5 C 192.308,344.436 194.141,347.436 196,350.5C 209.277,366.399 225.777,377.733 245.5,384.5C 246.499,369.848 246.833,355.182 246.5,340.5C 227.659,340.17 208.993,340.503 190.5,341.5 Z M 264.5,340.5 C 264.167,355.182 264.501,369.848 265.5,384.5C 272.71,381.818 279.71,378.651 286.5,375C 301.167,367 312.5,355.667 320.5,341C 301.836,340.5 283.17,340.333 264.5,340.5 Z"/></g>
<g><path style="opacity:0.934" fill="#000000" d="M 244.5,105.5 C 270.331,102.94 292.164,110.94 310,129.5C 313.394,133.898 316.394,138.565 319,143.5C 320.932,145.038 323.099,146.205 325.5,147C 326.701,147.903 327.535,149.069 328,150.5C 328.667,161.167 328.667,171.833 328,182.5C 322.667,189.167 317.333,189.167 312,182.5C 311.667,178.167 311.333,173.833 311,169.5C 303.759,174.908 295.926,179.241 287.5,182.5C 276.579,177.037 265.912,171.037 255.5,164.5C 245.088,171.037 234.421,177.037 223.5,182.5C 215.074,179.241 207.241,174.908 200,169.5C 199.667,173.833 199.333,178.167 199,182.5C 193.667,189.167 188.333,189.167 183,182.5C 182.045,171.069 182.378,159.736 184,148.5C 185.8,146.683 187.966,145.516 190.5,145C 202.649,123.766 220.649,110.599 244.5,105.5 Z M 249.5,122.5 C 230.312,125.766 215.979,135.932 206.5,153C 212.085,156.375 217.585,159.875 223,163.5C 230.917,158.792 238.75,153.959 246.5,149C 252.5,144.333 258.5,144.333 264.5,149C 272.25,153.959 280.083,158.792 288,163.5C 293.415,159.875 298.915,156.375 304.5,153C 292.375,131.932 274.041,121.765 249.5,122.5 Z"/></g>
<g><path style="opacity:0.929" fill="#000000" d="M 68.5,127.5 C 77.6583,125.835 81.825,129.501 81,138.5C 35.7671,212.865 34.1004,288.198 76,364.5C 105.015,409.779 145.181,440.779 196.5,457.5C 199.845,461.085 200.345,465.085 198,469.5C 193.553,472.909 188.719,473.409 183.5,471C 115.31,446.811 68.1438,400.977 42,333.5C 19.8346,268.326 24.8346,205.326 57,144.5C 60.3483,138.459 64.1817,132.792 68.5,127.5 Z"/></g>
<g><path style="opacity:0.934" fill="#000000" d="M 174.5,191.5 C 228.501,191.333 282.501,191.5 336.5,192C 339.455,192.392 341.622,193.892 343,196.5C 343.969,241.866 343.636,287.199 342,332.5C 335.357,356.143 321.524,374.309 300.5,387C 287.614,394.741 273.947,400.741 259.5,405C 249.029,404.404 239.029,401.737 229.5,397C 217.162,391.504 205.828,384.504 195.5,376C 180.728,362.624 171.562,346.124 168,326.5C 167.333,283.167 167.333,239.833 168,196.5C 169.603,193.965 171.769,192.298 174.5,191.5 Z M 184.5,209.5 C 184.5,225.5 184.5,241.5 184.5,257.5C 205.167,257.5 225.833,257.5 246.5,257.5C 246.5,241.5 246.5,225.5 246.5,209.5C 225.833,209.5 205.167,209.5 184.5,209.5 Z M 264.5,209.5 C 264.5,247.167 264.5,284.833 264.5,322.5C 271.833,322.5 279.167,322.5 286.5,322.5C 286.666,314.16 286.5,305.827 286,297.5C 284.045,296.547 282.378,295.213 281,293.5C 278.091,287.594 279.591,283.26 285.5,280.5C 286.662,275.533 286.829,270.533 286,265.5C 284.414,264.624 282.914,263.624 281.5,262.5C 277.962,256.354 279.296,251.687 285.5,248.5C 286.029,242.388 287.029,236.388 288.5,230.5C 293.658,226.249 298.491,226.583 303,231.5C 303.96,237.139 304.793,242.806 305.5,248.5C 313.604,254.372 313.437,260.039 305,265.5C 304.171,270.533 304.338,275.533 305.5,280.5C 313.627,286.323 313.461,291.99 305,297.5C 304.5,305.827 304.334,314.16 304.5,322.5C 311.833,322.5 319.167,322.5 326.5,322.5C 326.5,284.833 326.5,247.167 326.5,209.5C 305.833,209.5 285.167,209.5 264.5,209.5 Z M 184.5,274.5 C 184.5,290.5 184.5,306.5 184.5,322.5C 205.167,322.5 225.833,322.5 246.5,322.5C 246.5,306.5 246.5,290.5 246.5,274.5C 225.833,274.5 205.167,274.5 184.5,274.5 Z M 190.5,341.5 C 192.308,344.436 194.141,347.436 196,350.5C 209.277,366.399 225.777,377.733 245.5,384.5C 246.499,369.848 246.833,355.182 246.5,340.5C 227.659,340.17 208.993,340.503 190.5,341.5 Z M 264.5,340.5 C 264.167,355.182 264.501,369.848 265.5,384.5C 272.71,381.818 279.71,378.651 286.5,375C 301.167,367 312.5,355.667 320.5,341C 301.836,340.5 283.17,340.333 264.5,340.5 Z"/></g>
</svg>
