<?xml version="1.0" encoding="UTF-8"?>
<!DOCTYPE svg PUBLIC "-//W3C//DTD SVG 1.1//EN" "http://www.w3.org/Graphics/SVG/1.1/DTD/svg11.dtd">
<svg xmlns="http://www.w3.org/2000/svg" version="1.1" width="512px" height="512px" style="shape-rendering:geometricPrecision; text-rendering:geometricPrecision; image-rendering:optimizeQuality; fill-rule:evenodd; clip-rule:evenodd" xmlns:xlink="http://www.w3.org/1999/xlink">
<g><path style="opacity:0.961" fill="#010100" d="M 232.5,-0.5 C 247.833,-0.5 263.167,-0.5 278.5,-0.5C 351.512,7.41504 411.012,39.7484 457,96.5C 459.125,100.394 458.958,104.061 456.5,107.5C 454.393,108.3 452.226,108.967 450,109.5C 447.808,109.137 445.974,108.137 444.5,106.5C 436.907,96.2381 428.241,86.9048 418.5,78.5C 405.319,66.3239 390.986,55.6572 375.5,46.5C 310.469,10.8945 242.802,5.06114 172.5,29C 165.856,31.3715 159.523,34.2048 153.5,37.5C 83.438,72.0827 38.938,127.416 20,203.5C 7.9145,264.175 16.7478,321.508 46.5,375.5C 55.6572,390.986 66.3239,405.319 78.5,418.5C 86.9048,428.241 96.2381,436.907 106.5,444.5C 125.665,460.09 146.999,472.09 170.5,480.5C 247.393,507.895 320.393,499.728 389.5,456C 464.109,402.61 499.609,329.777 496,237.5C 494.028,214.28 488.861,191.947 480.5,170.5C 476.284,157.401 470.45,145.067 463,133.5C 462.333,130.833 462.333,128.167 463,125.5C 464.481,124.529 465.315,123.196 465.5,121.5C 470.223,120.553 474.056,121.886 477,125.5C 496.056,158.833 507.556,194.5 511.5,232.5C 511.5,247.833 511.5,263.167 511.5,278.5C 501.026,367.433 457.36,434.6 380.5,480C 348.466,497.292 314.466,507.792 278.5,511.5C 263.167,511.5 247.833,511.5 232.5,511.5C 143.853,500.61 76.6868,456.943 31,380.5C 13.7076,348.465 3.20759,314.465 -0.5,278.5C -0.5,263.167 -0.5,247.833 -0.5,232.5C 12.3465,131.63 65.0132,60.1301 157.5,18C 181.82,8.50296 206.82,2.33629 232.5,-0.5 Z"/></g>
<g><path style="opacity:1" fill="#fddc4f" d="M 375.5,46.5 C 365.833,56.5 356.167,66.5 346.5,76.5C 265.2,39.759 190.2,49.5923 121.5,106C 62.5333,163.117 43.0333,231.617 63,311.5C 66.82,323.465 71.32,335.132 76.5,346.5C 68.8333,353.833 61.1667,361.167 53.5,368.5C 15.1383,290.033 16.305,212.033 57,134.5C 80.7401,93.5937 112.907,61.2604 153.5,37.5C 159.523,34.2048 165.856,31.3715 172.5,29C 242.802,5.06114 310.469,10.8945 375.5,46.5 Z"/></g>
<g><path style="opacity:1" fill="#eac802" d="M 153.5,37.5 C 112.907,61.2604 80.7401,93.5937 57,134.5C 16.305,212.033 15.1383,290.033 53.5,368.5C 51.5,371.167 49.1667,373.5 46.5,375.5C 16.7478,321.508 7.9145,264.175 20,203.5C 38.938,127.416 83.438,72.0827 153.5,37.5 Z"/></g>
<g><path style="opacity:1" fill="#fde892" d="M 375.5,46.5 C 390.986,55.6572 405.319,66.3239 418.5,78.5C 408.833,87.5 399.5,96.8333 390.5,106.5C 376.836,95.0036 362.17,85.0036 346.5,76.5C 356.167,66.5 365.833,56.5 375.5,46.5 Z"/></g>
<g><path style="opacity:1" fill="#050301" d="M 346.5,76.5 C 362.17,85.0036 376.836,95.0036 390.5,106.5C 399.936,115.596 408.603,125.263 416.5,135.5C 431.263,156.359 442.263,179.025 449.5,203.5C 466.939,282 446.939,349.166 389.5,405C 334.724,450.776 272.39,465.609 202.5,449.5C 178.456,441.978 156.123,430.978 135.5,416.5C 125.263,408.603 115.596,399.936 106.5,390.5C 95.0036,376.836 85.0036,362.17 76.5,346.5C 71.32,335.132 66.82,323.465 63,311.5C 43.0333,231.617 62.5333,163.117 121.5,106C 190.2,49.5923 265.2,39.759 346.5,76.5 Z"/></g>
<g><path style="opacity:1" fill="#fdbb00" d="M 318.5,81.5 C 342.154,94.001 362.821,110.334 380.5,130.5C 349.562,160.938 318.728,191.605 288,222.5C 287.536,221.906 287.369,221.239 287.5,220.5C 296.328,183.678 285.995,153.511 256.5,130C 243.466,121.432 229.133,116.432 213.5,115C 195.5,114.333 177.5,114.333 159.5,115C 154.361,116.735 149.694,119.235 145.5,122.5C 133.42,120.788 124.92,125.454 120,136.5C 119.333,202.833 119.333,269.167 120,335.5C 123.981,347.566 132.148,352.566 144.5,350.5C 147.523,352.533 150.523,354.533 153.5,356.5C 144.114,366.888 134.114,376.554 123.5,385.5C 77.2538,336.207 61.0871,278.207 75,211.5C 94.0593,143.441 137.226,98.6076 204.5,77C 234.259,69.5179 264.259,68.5179 294.5,74C 302.796,75.6536 310.796,78.1536 318.5,81.5 Z"/></g>
<g><path style="opacity:1" fill="#fddc4f" d="M 418.5,78.5 C 428.241,86.9048 436.907,96.2381 444.5,106.5C 435.888,116.78 426.555,126.447 416.5,135.5C 408.603,125.263 399.936,115.596 390.5,106.5C 399.5,96.8333 408.833,87.5 418.5,78.5 Z"/></g>
<g><path style="opacity:1" fill="#f18b00" d="M 318.5,81.5 C 353.703,94.2001 382.536,115.533 405,145.5C 445.786,205.401 451.786,268.735 423,335.5C 400.491,379.508 366.324,410.841 320.5,429.5C 403.285,380.576 437.118,308.243 422,212.5C 414.728,181.621 400.895,154.288 380.5,130.5C 362.821,110.334 342.154,94.001 318.5,81.5 Z"/></g>
<g><path style="opacity:1" fill="#fde892" d="M 444.5,106.5 C 445.974,108.137 447.808,109.137 450,109.5C 452.226,108.967 454.393,108.3 456.5,107.5C 459.474,112.149 462.474,116.816 465.5,121.5C 465.315,123.196 464.481,124.529 463,125.5C 462.333,128.167 462.333,130.833 463,133.5C 470.45,145.067 476.284,157.401 480.5,170.5C 470.535,180.965 460.369,191.298 450,201.5C 449.536,202.094 449.369,202.761 449.5,203.5C 442.263,179.025 431.263,156.359 416.5,135.5C 426.555,126.447 435.888,116.78 444.5,106.5 Z"/></g>
<g><path style="opacity:1" fill="#050402" d="M 287.5,220.5 C 285.264,225.32 283.264,230.32 281.5,235.5C 276.629,243.38 270.963,250.714 264.5,257.5C 261.006,260.144 257.34,262.644 253.5,265C 252.056,266.126 251.39,267.626 251.5,269.5C 255.139,287.862 258.973,306.195 263,324.5C 264.045,350.12 251.878,360.953 226.5,357C 222.476,355.326 218.809,353.159 215.5,350.5C 213.437,347.382 211.604,344.048 210,340.5C 205.667,320.5 201.333,300.5 197,280.5C 195.951,278.893 194.451,278.227 192.5,278.5C 192.798,298.867 192.465,319.2 191.5,339.5C 183.793,355.967 171.126,361.634 153.5,356.5C 150.523,354.533 147.523,352.533 144.5,350.5C 138.08,341.933 135.747,332.266 137.5,321.5C 137.667,315.833 137.833,310.167 138,304.5C 139.571,302.077 141.737,300.744 144.5,300.5C 147.754,301.043 150.254,302.71 152,305.5C 152.07,316.239 152.737,326.906 154,337.5C 159.093,344.039 165.26,345.206 172.5,341C 174.617,339.269 176.117,337.102 177,334.5C 177.333,312.5 177.667,290.5 178,268.5C 178.833,266.333 180.333,264.833 182.5,264C 190.167,263.333 197.833,263.333 205.5,264C 208.094,265.339 209.594,267.506 210,270.5C 214.578,293.398 219.911,316.064 226,338.5C 233.241,345.186 240.241,344.853 247,337.5C 247.958,334.925 248.458,332.259 248.5,329.5C 243.662,306.509 239.162,283.509 235,260.5C 235.465,259.069 236.299,257.903 237.5,257C 268.759,239.306 280.592,212.806 273,177.5C 264.141,151.639 246.307,136.139 219.5,131C 199.5,130.333 179.5,130.333 159.5,131C 156.667,132.5 154.5,134.667 153,137.5C 152.667,184.833 152.333,232.167 152,279.5C 150.744,283.046 148.244,285.046 144.5,285.5C 141.737,285.256 139.571,283.923 138,281.5C 137.333,233.167 137.333,184.833 138,136.5C 139.206,131.084 141.706,126.418 145.5,122.5C 149.694,119.235 154.361,116.735 159.5,115C 177.5,114.333 195.5,114.333 213.5,115C 229.133,116.432 243.466,121.432 256.5,130C 285.995,153.511 296.328,183.678 287.5,220.5 Z"/></g>
<g><path style="opacity:1" fill="#f18b00" d="M 145.5,122.5 C 141.706,126.418 139.206,131.084 138,136.5C 137.333,184.833 137.333,233.167 138,281.5C 139.571,283.923 141.737,285.256 144.5,285.5C 144.5,290.5 144.5,295.5 144.5,300.5C 141.737,300.744 139.571,302.077 138,304.5C 137.833,310.167 137.667,315.833 137.5,321.5C 135.747,332.266 138.08,341.933 144.5,350.5C 132.148,352.566 123.981,347.566 120,335.5C 119.333,269.167 119.333,202.833 120,136.5C 124.92,125.454 133.42,120.788 145.5,122.5 Z"/></g>
<g><path style="opacity:1" fill="#fce892" d="M 144.5,300.5 C 144.5,295.5 144.5,290.5 144.5,285.5C 148.244,285.046 150.744,283.046 152,279.5C 152.333,232.167 152.667,184.833 153,137.5C 154.5,134.667 156.667,132.5 159.5,131C 179.5,130.333 199.5,130.333 219.5,131C 246.307,136.139 264.141,151.639 273,177.5C 280.592,212.806 268.759,239.306 237.5,257C 236.299,257.903 235.465,259.069 235,260.5C 239.162,283.509 243.662,306.509 248.5,329.5C 248.458,332.259 247.958,334.925 247,337.5C 240.241,344.853 233.241,345.186 226,338.5C 219.911,316.064 214.578,293.398 210,270.5C 209.594,267.506 208.094,265.339 205.5,264C 197.833,263.333 190.167,263.333 182.5,264C 180.333,264.833 178.833,266.333 178,268.5C 177.667,290.5 177.333,312.5 177,334.5C 176.117,337.102 174.617,339.269 172.5,341C 165.26,345.206 159.093,344.039 154,337.5C 152.737,326.906 152.07,316.239 152,305.5C 150.254,302.71 147.754,301.043 144.5,300.5 Z"/></g>
<g><path style="opacity:1" fill="#f8a200" d="M 380.5,130.5 C 400.895,154.288 414.728,181.621 422,212.5C 437.118,308.243 403.285,380.576 320.5,429.5C 255.919,451.472 196.252,442.306 141.5,402C 135.304,396.634 129.304,391.134 123.5,385.5C 134.114,376.554 144.114,366.888 153.5,356.5C 171.126,361.634 183.793,355.967 191.5,339.5C 194.689,343.851 198.689,347.351 203.5,350C 207.486,350.499 211.486,350.666 215.5,350.5C 218.809,353.159 222.476,355.326 226.5,357C 251.878,360.953 264.045,350.12 263,324.5C 258.973,306.195 255.139,287.862 251.5,269.5C 251.39,267.626 252.056,266.126 253.5,265C 257.34,262.644 261.006,260.144 264.5,257.5C 264.333,300.168 264.5,342.835 265,385.5C 269.807,396.792 278.307,401.459 290.5,399.5C 303.242,409.837 316.242,410.004 329.5,400C 333.184,395.8 335.684,390.967 337,385.5C 337.5,376.506 337.666,367.506 337.5,358.5C 368.364,360.657 391.198,348.323 406,321.5C 418.842,288.034 411.009,260.534 382.5,239C 373.011,233.059 362.678,229.726 351.5,229C 335.833,228.333 320.167,228.333 304.5,229C 299.074,230.211 294.407,232.711 290.5,236.5C 287.287,236.81 284.287,236.477 281.5,235.5C 283.264,230.32 285.264,225.32 287.5,220.5C 287.369,221.239 287.536,221.906 288,222.5C 318.728,191.605 349.562,160.938 380.5,130.5 Z"/></g>
<g><path style="opacity:1" fill="#040301" d="M 182.5,155.5 C 192.839,155.334 203.172,155.5 213.5,156C 231.801,158.634 243.634,168.801 249,186.5C 252.631,212.834 241.798,229.667 216.5,237C 204.833,237.667 193.167,237.667 181.5,237C 180.667,236.167 179.833,235.333 179,234.5C 177.353,209.921 177.02,185.254 178,160.5C 179.025,158.313 180.525,156.646 182.5,155.5 Z"/></g>
<g><path style="opacity:1" fill="#fab900" d="M 205.5,170.5 C 221.429,187.816 221.429,205.149 205.5,222.5C 201.167,222.5 196.833,222.5 192.5,222.5C 192.5,205.167 192.5,187.833 192.5,170.5C 196.833,170.5 201.167,170.5 205.5,170.5 Z"/></g>
<g><path style="opacity:1" fill="#f28c00" d="M 205.5,170.5 C 218.129,170.059 227.296,175.392 233,186.5C 237.956,209.37 228.789,221.37 205.5,222.5C 221.429,205.149 221.429,187.816 205.5,170.5 Z"/></g>
<g><path style="opacity:1" fill="#fcdb4f" d="M 480.5,170.5 C 488.861,191.947 494.028,214.28 496,237.5C 499.609,329.777 464.109,402.61 389.5,456C 320.393,499.728 247.393,507.895 170.5,480.5C 181.167,470.167 191.833,459.833 202.5,449.5C 272.39,465.609 334.724,450.776 389.5,405C 446.939,349.166 466.939,282 449.5,203.5C 449.369,202.761 449.536,202.094 450,201.5C 460.369,191.298 470.535,180.965 480.5,170.5 Z"/></g>
<g><path style="opacity:1" fill="#040301" d="M 290.5,399.5 C 286.711,395.593 284.211,390.926 283,385.5C 282.333,340.167 282.333,294.833 283,249.5C 284.497,244.523 286.997,240.19 290.5,236.5C 294.407,232.711 299.074,230.211 304.5,229C 320.167,228.333 335.833,228.333 351.5,229C 362.678,229.726 373.011,233.059 382.5,239C 411.009,260.534 418.842,288.034 406,321.5C 391.198,348.323 368.364,360.657 337.5,358.5C 337.666,367.506 337.5,376.506 337,385.5C 335.684,390.967 333.184,395.8 329.5,400C 316.242,410.004 303.242,409.837 290.5,399.5 Z"/></g>
<g><path style="opacity:1" fill="#f18b00" d="M 281.5,235.5 C 284.287,236.477 287.287,236.81 290.5,236.5C 286.997,240.19 284.497,244.523 283,249.5C 282.333,294.833 282.333,340.167 283,385.5C 284.211,390.926 286.711,395.593 290.5,399.5C 278.307,401.459 269.807,396.792 265,385.5C 264.5,342.835 264.333,300.168 264.5,257.5C 270.963,250.714 276.629,243.38 281.5,235.5 Z"/></g>
<g><path style="opacity:1" fill="#fce892" d="M 306.5,243.5 C 322.17,243.333 337.837,243.5 353.5,244C 375.267,248.433 389.434,261.267 396,282.5C 399.558,304.174 392.725,321.674 375.5,335C 370.166,338.168 364.499,340.501 358.5,342C 348.216,343.204 337.882,343.87 327.5,344C 326.069,344.465 324.903,345.299 324,346.5C 322.706,358.738 322.039,371.071 322,383.5C 317.731,392.386 311.231,394.552 302.5,390C 300.106,388.048 298.606,385.548 298,382.5C 297.333,339.167 297.333,295.833 298,252.5C 299.688,248.315 302.521,245.315 306.5,243.5 Z"/></g>
<g><path style="opacity:1" fill="#060503" d="M 326.5,269.5 C 335.173,269.334 343.84,269.5 352.5,270C 368.397,275.287 374.23,286.121 370,302.5C 363.898,314.887 353.898,320.221 340,318.5C 336.167,318.333 332.333,318.167 328.5,318C 326.714,317.215 325.214,316.049 324,314.5C 322.371,301.261 322.038,287.928 323,274.5C 323.997,272.677 325.164,271.01 326.5,269.5 Z"/></g>
<g><path style="opacity:1" fill="#eb8700" d="M 215.5,350.5 C 211.486,350.666 207.486,350.499 203.5,350C 198.689,347.351 194.689,343.851 191.5,339.5C 192.465,319.2 192.798,298.867 192.5,278.5C 194.451,278.227 195.951,278.893 197,280.5C 201.333,300.5 205.667,320.5 210,340.5C 211.604,344.048 213.437,347.382 215.5,350.5 Z"/></g>
<g><path style="opacity:1" fill="#f28c00" d="M 338.5,284.5 C 342.514,284.334 346.514,284.501 350.5,285C 357.148,289.05 358.148,294.217 353.5,300.5C 352.378,301.63 351.044,302.297 349.5,302.5C 345.833,302.5 342.167,302.5 338.5,302.5C 338.5,296.5 338.5,290.5 338.5,284.5 Z"/></g>
<g><path style="opacity:1" fill="#804e00" d="M 338.5,284.5 C 338.5,290.5 338.5,296.5 338.5,302.5C 342.167,302.5 345.833,302.5 349.5,302.5C 345.702,303.483 341.702,303.817 337.5,303.5C 337.177,296.978 337.51,290.645 338.5,284.5 Z"/></g>
<g><path style="opacity:1" fill="#fde892" d="M 76.5,346.5 C 85.0036,362.17 95.0036,376.836 106.5,390.5C 98.1667,398.167 90.1667,406.167 82.5,414.5C 80.8333,415.5 79.5,416.833 78.5,418.5C 66.3239,405.319 55.6572,390.986 46.5,375.5C 49.1667,373.5 51.5,371.167 53.5,368.5C 61.1667,361.167 68.8333,353.833 76.5,346.5 Z"/></g>
<g><path style="opacity:1" fill="#fedd4f" d="M 106.5,390.5 C 115.596,399.936 125.263,408.603 135.5,416.5C 127.167,425.5 118.5,434.167 109.5,442.5C 100.549,433.214 91.5489,423.881 82.5,414.5C 90.1667,406.167 98.1667,398.167 106.5,390.5 Z"/></g>
<g><path style="opacity:1" fill="#e9c703" d="M 82.5,414.5 C 91.5489,423.881 100.549,433.214 109.5,442.5C 109.027,443.906 108.027,444.573 106.5,444.5C 96.2381,436.907 86.9048,428.241 78.5,418.5C 79.5,416.833 80.8333,415.5 82.5,414.5 Z"/></g>
<g><path style="opacity:1" fill="#fde892" d="M 135.5,416.5 C 156.123,430.978 178.456,441.978 202.5,449.5C 191.833,459.833 181.167,470.167 170.5,480.5C 146.999,472.09 125.665,460.09 106.5,444.5C 108.027,444.573 109.027,443.906 109.5,442.5C 118.5,434.167 127.167,425.5 135.5,416.5 Z"/></g>
</svg>
