<?xml version="1.0" encoding="UTF-8"?>
<!DOCTYPE svg PUBLIC "-//W3C//DTD SVG 1.1//EN" "http://www.w3.org/Graphics/SVG/1.1/DTD/svg11.dtd">
<svg xmlns="http://www.w3.org/2000/svg" version="1.1" width="512px" height="512px" style="shape-rendering:geometricPrecision; text-rendering:geometricPrecision; image-rendering:optimizeQuality; fill-rule:evenodd; clip-rule:evenodd" xmlns:xlink="http://www.w3.org/1999/xlink">
<g><path style="opacity:0.999" fill="#ee8c70" d="M 232.5,-0.5 C 242.833,-0.5 253.167,-0.5 263.5,-0.5C 264.163,55.1767 263.496,110.51 261.5,165.5C 247.317,160.236 232.65,158.236 217.5,159.5C 218.162,106.823 217.496,54.4894 215.5,2.5C 221.156,1.42725 226.823,0.42725 232.5,-0.5 Z"/></g>
<g><path style="opacity:0.999" fill="#ef9271" d="M 263.5,-0.5 C 268.5,-0.5 273.5,-0.5 278.5,-0.5C 288.743,0.91 299.076,2.57667 309.5,4.5C 308.836,81.2643 308.17,157.931 307.5,234.5C 305.372,202.549 290.039,179.549 261.5,165.5C 263.496,110.51 264.163,55.1767 263.5,-0.5 Z"/></g>
<g><path style="opacity:0.999" fill="#ee866f" d="M 215.5,2.5 C 217.496,54.4894 218.162,106.823 217.5,159.5C 202.167,159.5 186.833,159.5 171.5,159.5C 171.5,110.833 171.5,62.1667 171.5,13.5C 185.594,7.97639 200.261,4.30973 215.5,2.5 Z"/></g>
<g><path style="opacity:0.998" fill="#ef9872" d="M 309.5,4.5 C 328.125,8.70835 346.125,14.7084 363.5,22.5C 362.505,68.0946 362.172,113.761 362.5,159.5C 352.167,159.5 341.833,159.5 331.5,159.5C 331.5,208.5 331.5,257.5 331.5,306.5C 323.833,306.5 316.167,306.5 308.5,306.5C 308.5,298.5 308.5,290.5 308.5,282.5C 295.323,282.829 282.323,282.495 269.5,281.5C 282.167,281.5 294.833,281.5 307.5,281.5C 307.5,265.833 307.5,250.167 307.5,234.5C 308.17,157.931 308.836,81.2643 309.5,4.5 Z"/></g>
<g><path style="opacity:0.999" fill="#ee7f6e" d="M 171.5,13.5 C 171.5,62.1667 171.5,110.833 171.5,159.5C 162.167,159.5 152.833,159.5 143.5,159.5C 143.5,221.167 143.5,282.833 143.5,344.5C 152.652,345.494 161.985,345.827 171.5,345.5C 171.5,396.167 171.5,446.833 171.5,497.5C 152.129,491.48 134.129,482.813 117.5,471.5C 117.5,327.5 117.5,183.5 117.5,39.5C 134.129,28.1868 152.129,19.5201 171.5,13.5 Z"/></g>
<g><path style="opacity:0.998" fill="#ef9f73" d="M 363.5,22.5 C 379.329,30.2423 394.329,39.2423 408.5,49.5C 407.835,186.504 408.502,323.171 410.5,459.5C 396.508,470.839 381.174,480.172 364.5,487.5C 362.505,440.512 361.838,393.178 362.5,345.5C 365.167,345.5 367.833,345.5 370.5,345.5C 370.5,283.5 370.5,221.5 370.5,159.5C 367.833,159.5 365.167,159.5 362.5,159.5C 362.172,113.761 362.505,68.0946 363.5,22.5 Z"/></g>
<g><path style="opacity:0.998" fill="#ee7a6d" d="M 117.5,39.5 C 117.5,183.5 117.5,327.5 117.5,471.5C 105.289,463.952 93.9555,455.286 83.5,445.5C 84.4996,318.668 84.8329,191.668 84.5,64.5C 94.6247,55.0459 105.625,46.7126 117.5,39.5 Z"/></g>
<g><path style="opacity:0.997" fill="#efa574" d="M 408.5,49.5 C 425.816,62.483 441.15,77.483 454.5,94.5C 454.167,201.668 454.501,308.668 455.5,415.5C 442.462,432.205 427.462,446.872 410.5,459.5C 408.502,323.171 407.835,186.504 408.5,49.5 Z"/></g>
<g><path style="opacity:0.999" fill="#ed776d" d="M 84.5,64.5 C 84.8329,191.668 84.4996,318.668 83.5,445.5C 79.1667,441.833 75.1667,437.833 71.5,433.5C 72.4995,314.668 72.8329,195.668 72.5,76.5C 76.1667,72.1667 80.1667,68.1667 84.5,64.5 Z"/></g>
<g><path style="opacity:0.997" fill="#ed736c" d="M 72.5,76.5 C 72.8329,195.668 72.4995,314.668 71.5,433.5C 52.2878,414.614 36.9545,392.948 25.5,368.5C 26.4993,292.668 26.8326,216.668 26.5,140.5C 37.9138,116.335 53.2471,95.0017 72.5,76.5 Z"/></g>
<g><path style="opacity:0.995" fill="#f0ab75" d="M 454.5,94.5 C 477.437,121.699 493.604,152.699 503,187.5C 506.931,202.438 509.764,217.438 511.5,232.5C 511.5,247.833 511.5,263.167 511.5,278.5C 506.324,329.83 487.657,375.497 455.5,415.5C 454.501,308.668 454.167,201.668 454.5,94.5 Z"/></g>
<g><path style="opacity:0.99" fill="#ed6f6b" d="M 26.5,140.5 C 26.8326,216.668 26.4993,292.668 25.5,368.5C 11.3566,340.071 2.68993,310.071 -0.5,278.5C -0.5,263.167 -0.5,247.833 -0.5,232.5C 2.82786,200.182 11.8279,169.515 26.5,140.5 Z"/></g>
<g><path style="opacity:1" fill="#fefefe" d="M 171.5,159.5 C 186.833,159.5 202.167,159.5 217.5,159.5C 232.65,158.236 247.317,160.236 261.5,165.5C 290.039,179.549 305.372,202.549 307.5,234.5C 307.5,250.167 307.5,265.833 307.5,281.5C 294.833,281.5 282.167,281.5 269.5,281.5C 269.667,265.497 269.5,249.497 269,233.5C 268.42,228.246 266.587,223.579 263.5,219.5C 257.444,207.144 247.444,200.144 233.5,198.5C 216.341,197.503 199.008,197.17 181.5,197.5C 181.5,246.5 181.5,295.5 181.5,344.5C 168.833,344.5 156.167,344.5 143.5,344.5C 143.5,282.833 143.5,221.167 143.5,159.5C 152.833,159.5 162.167,159.5 171.5,159.5 Z"/></g>
<g><path style="opacity:1" fill="#fefdfd" d="M 362.5,159.5 C 365.167,159.5 367.833,159.5 370.5,159.5C 370.5,221.5 370.5,283.5 370.5,345.5C 367.833,345.5 365.167,345.5 362.5,345.5C 344.5,345.5 326.5,345.5 308.5,345.5C 297.162,345.667 285.828,345.5 274.5,345C 270.698,344.591 267.031,343.757 263.5,342.5C 244.259,336.922 228.926,325.922 217.5,309.5C 213.257,301.608 210.09,293.275 208,284.5C 206.599,263.866 206.099,243.199 206.5,222.5C 210.167,222.5 213.833,222.5 217.5,222.5C 226.5,222.5 235.5,222.5 244.5,222.5C 244.333,238.503 244.5,254.503 245,270.5C 246.669,283.2 252.835,292.867 263.5,299.5C 267.299,302.504 271.632,304.67 276.5,306C 287.161,306.5 297.828,306.667 308.5,306.5C 316.167,306.5 323.833,306.5 331.5,306.5C 331.5,257.5 331.5,208.5 331.5,159.5C 341.833,159.5 352.167,159.5 362.5,159.5 Z"/></g>
<g><path style="opacity:1" fill="#f5baae" d="M 233.5,198.5 C 228.167,198.5 222.833,198.5 217.5,198.5C 205.833,198.5 194.167,198.5 182.5,198.5C 182.5,247.5 182.5,296.5 182.5,345.5C 178.833,345.5 175.167,345.5 171.5,345.5C 161.985,345.827 152.652,345.494 143.5,344.5C 156.167,344.5 168.833,344.5 181.5,344.5C 181.5,295.5 181.5,246.5 181.5,197.5C 199.008,197.17 216.341,197.503 233.5,198.5 Z"/></g>
<g><path style="opacity:0.999" fill="#ee866f" d="M 217.5,198.5 C 217.5,206.5 217.5,214.5 217.5,222.5C 213.833,222.5 210.167,222.5 206.5,222.5C 206.099,243.199 206.599,263.866 208,284.5C 210.09,293.275 213.257,301.608 217.5,309.5C 218.163,376.175 217.497,442.508 215.5,508.5C 200.261,506.69 185.594,503.024 171.5,497.5C 171.5,446.833 171.5,396.167 171.5,345.5C 175.167,345.5 178.833,345.5 182.5,345.5C 182.5,296.5 182.5,247.5 182.5,198.5C 194.167,198.5 205.833,198.5 217.5,198.5 Z"/></g>
<g><path style="opacity:1" fill="#ee8e71" d="M 217.5,198.5 C 222.833,198.5 228.167,198.5 233.5,198.5C 247.444,200.144 257.444,207.144 263.5,219.5C 263.5,246.167 263.5,272.833 263.5,299.5C 252.835,292.867 246.669,283.2 245,270.5C 244.5,254.503 244.333,238.503 244.5,222.5C 235.5,222.5 226.5,222.5 217.5,222.5C 217.5,214.5 217.5,206.5 217.5,198.5 Z"/></g>
<g><path style="opacity:1" fill="#ef9373" d="M 263.5,219.5 C 266.587,223.579 268.42,228.246 269,233.5C 269.5,249.497 269.667,265.497 269.5,281.5C 282.323,282.495 295.323,282.829 308.5,282.5C 308.5,290.5 308.5,298.5 308.5,306.5C 297.828,306.667 287.161,306.5 276.5,306C 271.632,304.67 267.299,302.504 263.5,299.5C 263.5,272.833 263.5,246.167 263.5,219.5 Z"/></g>
<g><path style="opacity:0.999" fill="#ee8c70" d="M 217.5,309.5 C 228.926,325.922 244.259,336.922 263.5,342.5C 263.5,398.833 263.5,455.167 263.5,511.5C 253.167,511.5 242.833,511.5 232.5,511.5C 226.823,510.573 221.156,509.573 215.5,508.5C 217.497,442.508 218.163,376.175 217.5,309.5 Z"/></g>
<g><path style="opacity:0.998" fill="#ef9271" d="M 263.5,342.5 C 267.031,343.757 270.698,344.591 274.5,345C 285.828,345.5 297.162,345.667 308.5,345.5C 308.171,399.238 308.505,452.905 309.5,506.5C 299.076,508.423 288.743,510.09 278.5,511.5C 273.5,511.5 268.5,511.5 263.5,511.5C 263.5,455.167 263.5,398.833 263.5,342.5 Z"/></g>
<g><path style="opacity:0.998" fill="#ef9872" d="M 308.5,345.5 C 326.5,345.5 344.5,345.5 362.5,345.5C 361.838,393.178 362.505,440.512 364.5,487.5C 347.021,495.994 328.688,502.327 309.5,506.5C 308.505,452.905 308.171,399.238 308.5,345.5 Z"/></g>
</svg>
