<?xml version="1.0" encoding="UTF-8"?>
<!DOCTYPE svg PUBLIC "-//W3C//DTD SVG 1.1//EN" "http://www.w3.org/Graphics/SVG/1.1/DTD/svg11.dtd">
<svg xmlns="http://www.w3.org/2000/svg" version="1.1" width="512px" height="512px" style="shape-rendering:geometricPrecision; text-rendering:geometricPrecision; image-rendering:optimizeQuality; fill-rule:evenodd; clip-rule:evenodd" xmlns:xlink="http://www.w3.org/1999/xlink">
<g><path style="opacity:0.995" fill="#f8e769" d="M 232.5,-0.5 C 247.833,-0.5 263.167,-0.5 278.5,-0.5C 368.144,10.3879 435.644,54.7213 481,132.5C 497.695,163.971 507.861,197.304 511.5,232.5C 511.5,247.833 511.5,263.167 511.5,278.5C 509.9,293.765 506.9,308.765 502.5,323.5C 487.469,327.839 472.136,330.506 456.5,331.5C 483.733,251.346 470.567,178.679 417,113.5C 360.794,54.3201 292.294,31.4868 211.5,45C 200.537,47.2665 189.87,50.4331 179.5,54.5C 180.241,38.7976 182.908,23.4642 187.5,8.5C 202.276,4.31547 217.276,1.31547 232.5,-0.5 Z"/></g>
<g><path style="opacity:1" fill="#fab659" d="M 187.5,8.5 C 182.908,23.4642 180.241,38.7976 179.5,54.5C 109.625,82.8754 65.1249,133.542 46,206.5C 30.0411,289.212 52.5411,359.379 113.5,417C 180.128,471.654 254.128,484.321 335.5,455C 392.864,430.47 433.197,389.304 456.5,331.5C 472.136,330.506 487.469,327.839 502.5,323.5C 479.727,402.446 430.727,458.613 355.5,492C 330.621,502.136 304.954,508.636 278.5,511.5C 263.167,511.5 247.833,511.5 232.5,511.5C 142.856,500.612 75.3562,456.279 30,378.5C 13.3053,347.029 3.1386,313.696 -0.5,278.5C -0.5,263.167 -0.5,247.833 -0.5,232.5C 9.30366,148.244 49.637,83.0776 120.5,37C 141.427,24.2036 163.76,14.7036 187.5,8.5 Z"/></g>
<g><path style="opacity:1" fill="#f9b658" d="M 456.5,331.5 C 392.103,336.863 333.936,320.529 282,282.5C 261.713,299.546 238.213,308.046 211.5,308C 242.028,338.194 272.195,368.694 302,399.5C 307.317,414.566 302.484,424.733 287.5,430C 281.329,430.946 275.662,429.612 270.5,426C 233.333,388.833 196.167,351.667 159,314.5C 147.737,296.24 150.904,281.074 168.5,269C 170.5,268.333 172.5,267.667 174.5,267C 189.833,266.667 205.167,266.333 220.5,266C 230.814,264.673 240.314,261.173 249,255.5C 249.667,254.833 249.667,254.167 249,253.5C 240.907,244.581 233.407,235.248 226.5,225.5C 241.871,224.85 256.871,225.516 271.5,227.5C 266.983,238.523 259.983,247.69 250.5,255C 260.133,264.975 270.633,273.808 282,281.5C 293.616,271.539 302.616,259.539 309,245.5C 311.553,239.01 313.387,232.343 314.5,225.5C 324.566,225.895 334.566,225.395 344.5,224C 358.378,217.033 361.878,206.533 355,192.5C 352.292,188.896 348.792,186.396 344.5,185C 334.566,183.605 324.566,183.105 314.5,183.5C 312.178,168.357 306.178,154.857 296.5,143C 311.833,142.667 327.167,142.333 342.5,142C 352.656,138.826 357.989,131.826 358.5,121C 357.069,110.901 351.402,104.567 341.5,102C 287.501,101.5 233.501,101.333 179.5,101.5C 178.285,85.8274 178.285,70.1607 179.5,54.5C 189.87,50.4331 200.537,47.2665 211.5,45C 292.294,31.4868 360.794,54.3201 417,113.5C 470.567,178.679 483.733,251.346 456.5,331.5 Z"/></g>
<g><path style="opacity:1" fill="#f59e18" d="M 179.5,54.5 C 178.285,70.1607 178.285,85.8274 179.5,101.5C 160.511,99.9894 151.678,108.656 153,127.5C 155.072,134.573 159.572,139.406 166.5,142C 173.158,142.5 179.825,142.666 186.5,142.5C 186.833,142.5 187.167,142.5 187.5,142.5C 190.975,156.591 195.641,170.258 201.5,183.5C 190.495,183.333 179.495,183.5 168.5,184C 153.007,190.485 148.84,201.319 156,216.5C 159.025,221.038 163.191,223.704 168.5,224.5C 187.326,225.497 206.326,225.83 225.5,225.5C 225.833,225.5 226.167,225.5 226.5,225.5C 233.407,235.248 240.907,244.581 249,253.5C 249.667,254.167 249.667,254.833 249,255.5C 240.314,261.173 230.814,264.673 220.5,266C 205.167,266.333 189.833,266.667 174.5,267C 172.5,267.667 170.5,268.333 168.5,269C 150.904,281.074 147.737,296.24 159,314.5C 196.167,351.667 233.333,388.833 270.5,426C 275.662,429.612 281.329,430.946 287.5,430C 302.484,424.733 307.317,414.566 302,399.5C 272.195,368.694 242.028,338.194 211.5,308C 238.213,308.046 261.713,299.546 282,282.5C 333.936,320.529 392.103,336.863 456.5,331.5C 433.197,389.304 392.864,430.47 335.5,455C 254.128,484.321 180.128,471.654 113.5,417C 52.5411,359.379 30.0411,289.212 46,206.5C 65.1249,133.542 109.625,82.8754 179.5,54.5 Z"/></g>
<g><path style="opacity:1" fill="#f9b658" d="M 179.5,101.5 C 181.078,115.299 183.411,128.965 186.5,142.5C 179.825,142.666 173.158,142.5 166.5,142C 159.572,139.406 155.072,134.573 153,127.5C 151.678,108.656 160.511,99.9894 179.5,101.5 Z"/></g>
<g><path style="opacity:1" fill="#f8e769" d="M 179.5,101.5 C 233.501,101.333 287.501,101.5 341.5,102C 351.402,104.567 357.069,110.901 358.5,121C 357.989,131.826 352.656,138.826 342.5,142C 327.167,142.333 311.833,142.667 296.5,143C 306.178,154.857 312.178,168.357 314.5,183.5C 324.566,183.105 334.566,183.605 344.5,185C 348.792,186.396 352.292,188.896 355,192.5C 361.878,206.533 358.378,217.033 344.5,224C 334.566,225.395 324.566,225.895 314.5,225.5C 313.387,232.343 311.553,239.01 309,245.5C 302.616,259.539 293.616,271.539 282,281.5C 270.633,273.808 260.133,264.975 250.5,255C 259.983,247.69 266.983,238.523 271.5,227.5C 272.404,226.791 272.737,225.791 272.5,224.5C 256.833,224.5 241.167,224.5 225.5,224.5C 225.5,223.833 225.167,223.5 224.5,223.5C 215.889,211.283 208.555,198.283 202.5,184.5C 225.843,184.833 249.176,184.5 272.5,183.5C 272.376,182.893 272.043,182.56 271.5,182.5C 262.319,159.511 245.319,146.344 220.5,143C 209.505,142.5 198.505,142.333 187.5,142.5C 187.167,142.5 186.833,142.5 186.5,142.5C 183.411,128.965 181.078,115.299 179.5,101.5 Z"/></g>
<g><path style="opacity:1" fill="#f9b659" d="M 187.5,142.5 C 198.505,142.333 209.505,142.5 220.5,143C 245.319,146.344 262.319,159.511 271.5,182.5C 248.339,183.498 225.006,183.831 201.5,183.5C 195.641,170.258 190.975,156.591 187.5,142.5 Z"/></g>
<g><path style="opacity:1" fill="#f9d363" d="M 271.5,182.5 C 272.043,182.56 272.376,182.893 272.5,183.5C 249.176,184.5 225.843,184.833 202.5,184.5C 201.833,184.5 201.5,184.167 201.5,183.5C 225.006,183.831 248.339,183.498 271.5,182.5 Z"/></g>
<g><path style="opacity:1" fill="#f9b658" d="M 201.5,183.5 C 201.5,184.167 201.833,184.5 202.5,184.5C 208.555,198.283 215.889,211.283 224.5,223.5C 206.007,224.497 187.341,224.83 168.5,224.5C 163.191,223.704 159.025,221.038 156,216.5C 148.84,201.319 153.007,190.485 168.5,184C 179.495,183.5 190.495,183.333 201.5,183.5 Z"/></g>
<g><path style="opacity:1" fill="#f8be52" d="M 224.5,223.5 C 225.167,223.5 225.5,223.833 225.5,224.5C 225.5,224.833 225.5,225.167 225.5,225.5C 206.326,225.83 187.326,225.497 168.5,224.5C 187.341,224.83 206.007,224.497 224.5,223.5 Z"/></g>
<g><path style="opacity:1" fill="#f9d363" d="M 225.5,225.5 C 225.5,225.167 225.5,224.833 225.5,224.5C 241.167,224.5 256.833,224.5 272.5,224.5C 272.737,225.791 272.404,226.791 271.5,227.5C 256.871,225.516 241.871,224.85 226.5,225.5C 226.167,225.5 225.833,225.5 225.5,225.5 Z"/></g>
</svg>
