<?xml version="1.0" encoding="UTF-8"?>
<!DOCTYPE svg PUBLIC "-//W3C//DTD SVG 1.1//EN" "http://www.w3.org/Graphics/SVG/1.1/DTD/svg11.dtd">
<svg xmlns="http://www.w3.org/2000/svg" version="1.1" width="512px" height="512px" style="shape-rendering:geometricPrecision; text-rendering:geometricPrecision; image-rendering:optimizeQuality; fill-rule:evenodd; clip-rule:evenodd" xmlns:xlink="http://www.w3.org/1999/xlink">
<g><path style="opacity:0.934" fill="#000000" d="M 233.5,-0.5 C 248.167,-0.5 262.833,-0.5 277.5,-0.5C 367.555,10.0943 435.388,54.4276 481,132.5C 497.855,164.278 508.022,197.945 511.5,233.5C 511.5,248.167 511.5,262.833 511.5,277.5C 500.906,367.555 456.572,435.388 378.5,481C 346.722,497.855 313.055,508.022 277.5,511.5C 262.833,511.5 248.167,511.5 233.5,511.5C 143.445,500.906 75.612,456.572 30,378.5C 13.1449,346.722 2.97822,313.055 -0.5,277.5C -0.5,262.833 -0.5,248.167 -0.5,233.5C 10.0943,143.445 54.4276,75.612 132.5,30C 164.278,13.1449 197.945,2.97822 233.5,-0.5 Z M 238.5,16.5 C 333.927,14.1239 407.76,52.4573 460,131.5C 498.372,198.224 504.706,267.891 479,340.5C 447.513,417.32 391.68,466.487 311.5,488C 210.277,507.488 127.443,477.322 63,397.5C 14.2533,327.203 3.91994,251.536 32,170.5C 71.0476,79.2927 139.881,27.9593 238.5,16.5 Z M 242.5,43.5 C 329.125,42.3802 394.958,78.3802 440,151.5C 476.667,220.833 476.667,290.167 440,359.5C 401.185,424.021 344.019,459.854 268.5,467C 181.847,468.604 116.014,432.77 71,359.5C 34.3333,290.167 34.3333,220.833 71,151.5C 110.023,87.0528 167.19,51.0528 242.5,43.5 Z"/></g>
<g><path style="opacity:0.932" fill="#000000" d="M 237.5,26.5 C 334.481,23.2255 407.648,62.8922 457,145.5C 486.835,203.184 492.502,263.184 474,325.5C 448.5,399 399,448.5 325.5,474C 245.261,496.855 172.595,482.522 107.5,431C 41.22,371.168 15.72,297.001 31,208.5C 46.7206,140.17 84.8873,88.6699 145.5,54C 174.502,38.8286 205.169,29.6619 237.5,26.5 Z M 242.5,43.5 C 167.19,51.0528 110.023,87.0528 71,151.5C 34.3333,220.833 34.3333,290.167 71,359.5C 116.014,432.77 181.847,468.604 268.5,467C 344.019,459.854 401.185,424.021 440,359.5C 476.667,290.167 476.667,220.833 440,151.5C 394.958,78.3802 329.125,42.3802 242.5,43.5 Z"/></g>
<g><path style="opacity:0.874" fill="#000000" d="M 254.5,51.5 C 263.568,52.9688 266.401,57.9688 263,66.5C 258,71.8333 253,71.8333 248,66.5C 244.75,59.0096 246.917,54.0096 254.5,51.5 Z"/></g>
<g><path style="opacity:0.878" fill="#000000" d="M 211.5,56.5 C 221.859,56.0139 225.692,60.6806 223,70.5C 219.95,74.1303 216.117,75.297 211.5,74C 209.333,73.1667 207.833,71.6667 207,69.5C 205.243,63.8252 206.743,59.4918 211.5,56.5 Z"/></g>
<g><path style="opacity:0.881" fill="#000000" d="M 292.5,56.5 C 302.157,55.6577 305.99,59.9911 304,69.5C 301.459,74.0685 297.625,75.5685 292.5,74C 284.556,68.1306 284.556,62.2973 292.5,56.5 Z"/></g>
<g><path style="opacity:0.873" fill="#000000" d="M 174.5,68.5 C 184.24,69.3107 187.407,74.3107 184,83.5C 178.95,88.792 173.95,88.792 169,83.5C 165.838,76.5142 167.671,71.5142 174.5,68.5 Z"/></g>
<g><path style="opacity:0.873" fill="#000000" d="M 332.5,68.5 C 342.24,69.3107 345.407,74.3107 342,83.5C 337.05,88.792 332.05,88.792 327,83.5C 323.838,76.5142 325.671,71.5142 332.5,68.5 Z"/></g>
<g><path style="opacity:0.882" fill="#000000" d="M 137.5,89.5 C 147.802,88.9624 151.635,93.629 149,103.5C 143.318,108.998 137.985,108.665 133,102.5C 131.379,96.9227 132.879,92.5894 137.5,89.5 Z"/></g>
<g><path style="opacity:0.882" fill="#000000" d="M 365.5,89.5 C 375.659,88.1581 379.826,92.4914 378,102.5C 373.015,108.665 367.682,108.998 362,103.5C 359.423,97.885 360.589,93.2183 365.5,89.5 Z"/></g>
<g><path style="opacity:0.871" fill="#000000" d="M 107.5,116.5 C 116.905,115.735 120.905,119.901 119.5,129C 116.948,133.939 112.948,135.605 107.5,134C 99.6075,128.244 99.6075,122.411 107.5,116.5 Z"/></g>
<g><path style="opacity:0.874" fill="#000000" d="M 396.5,116.5 C 407.456,116.43 410.956,121.43 407,131.5C 401.719,135.699 396.719,135.366 392,130.5C 389.606,124.517 391.106,119.851 396.5,116.5 Z"/></g>
<g><path style="opacity:0.938" fill="#000000" d="M 246.5,131.5 C 277.296,129.797 296.462,143.797 304,173.5C 304.934,181.605 304.601,189.605 303,197.5C 298.333,201.5 293.667,201.5 289,197.5C 287.883,189.555 286.883,181.555 286,173.5C 281.031,158.379 270.531,150.046 254.5,148.5C 235.53,150.97 224.697,161.637 222,180.5C 221.667,190.167 221.333,199.833 221,209.5C 220.535,210.931 219.701,212.097 218.5,213C 203.597,214.467 188.597,214.967 173.5,214.5C 173.167,237.51 173.5,260.51 174.5,283.5C 213.663,309.249 252.996,334.749 292.5,360C 311.794,365.433 325.96,359.267 335,341.5C 339.224,328.509 336.891,316.842 328,306.5C 315.92,298.209 303.753,290.043 291.5,282C 289.951,280.786 288.785,279.286 288,277.5C 287.333,258.833 287.333,240.167 288,221.5C 291.366,216.391 295.866,215.224 301.5,218C 302.701,218.903 303.535,220.069 304,221.5C 304.333,237.5 304.667,253.5 305,269.5C 316.914,276.915 328.414,284.915 339.5,293.5C 354.275,309.468 358.108,327.801 351,348.5C 336.884,375.632 315.051,384.799 285.5,376C 242.731,348.894 200.231,321.394 158,293.5C 156.349,263.253 156.016,232.919 157,202.5C 157.833,200.333 159.333,198.833 161.5,198C 175.829,197.5 190.163,197.333 204.5,197.5C 200.131,169.071 210.465,148.238 235.5,135C 239.333,133.966 242.999,132.8 246.5,131.5 Z"/></g>
<g><path style="opacity:0.884" fill="#000000" d="M 83.5,149.5 C 93.8018,148.962 97.6352,153.629 95,163.5C 89.1898,169.093 83.8564,168.76 79,162.5C 77.3794,156.923 78.8794,152.589 83.5,149.5 Z"/></g>
<g><path style="opacity:0.883" fill="#000000" d="M 419.5,149.5 C 429.659,148.158 433.826,152.491 432,162.5C 427.144,168.76 421.81,169.093 416,163.5C 413.423,157.885 414.589,153.218 419.5,149.5 Z"/></g>
<g><path style="opacity:0.869" fill="#000000" d="M 66.5,186.5 C 76.6591,185.158 80.8257,189.491 79,199.5C 76.4586,204.069 72.6253,205.569 67.5,204C 59.844,198.569 59.5106,192.736 66.5,186.5 Z"/></g>
<g><path style="opacity:0.875" fill="#000000" d="M 436.5,186.5 C 445.443,185.611 449.61,189.611 449,198.5C 446.367,203.732 442.201,205.565 436.5,204C 431.845,201.103 430.345,196.937 432,191.5C 433.025,189.313 434.525,187.646 436.5,186.5 Z"/></g>
<g><path style="opacity:0.877" fill="#000000" d="M 61.5,225.5 C 71.9124,228.486 73.9124,234.32 67.5,243C 59.4437,245.977 54.7771,243.311 53.5,235C 53.8527,229.819 56.5194,226.652 61.5,225.5 Z"/></g>
<g><path style="opacity:0.877" fill="#000000" d="M 448.5,225.5 C 457.149,227.176 459.815,232.176 456.5,240.5C 451.331,245.766 446.165,245.766 441,240.5C 438.223,232.721 440.723,227.721 448.5,225.5 Z"/></g>
<g><path style="opacity:0.893" fill="#000000" d="M 106.5,246.5 C 116.58,246.077 126.58,246.577 136.5,248C 138.333,248.5 139.5,249.667 140,251.5C 142.13,258.077 139.964,262.244 133.5,264C 123.426,264.923 113.426,264.59 103.5,263C 101.667,262.5 100.5,261.333 100,259.5C 97.998,252.835 100.165,248.501 106.5,246.5 Z"/></g>
<g><path style="opacity:0.891" fill="#000000" d="M 327.5,246.5 C 335.253,246.104 342.92,246.604 350.5,248C 354.277,250.955 355.443,254.788 354,259.5C 352.363,261.81 350.196,263.31 347.5,264C 339.754,264.896 332.087,264.563 324.5,263C 322.667,262.5 321.5,261.333 321,259.5C 318.998,252.835 321.165,248.501 327.5,246.5 Z"/></g>
<g><path style="opacity:0.893" fill="#000000" d="M 377.5,246.5 C 387.58,246.077 397.58,246.577 407.5,248C 409.333,248.5 410.5,249.667 411,251.5C 413.13,258.077 410.964,262.244 404.5,264C 394.426,264.923 384.426,264.59 374.5,263C 372.667,262.5 371.5,261.333 371,259.5C 368.998,252.835 371.165,248.501 377.5,246.5 Z"/></g>
<g><path style="opacity:0.876" fill="#000000" d="M 59.5,266.5 C 70.0865,266.744 73.4199,271.744 69.5,281.5C 64.1096,286.689 58.9429,286.355 54,280.5C 52.0215,274.13 53.8548,269.463 59.5,266.5 Z"/></g>
<g><path style="opacity:0.873" fill="#000000" d="M 446.5,266.5 C 456.019,266.514 459.519,271.181 457,280.5C 452.074,286.243 446.908,286.577 441.5,281.5C 438.208,274.71 439.874,269.71 446.5,266.5 Z"/></g>
<g><path style="opacity:0.868" fill="#000000" d="M 67.5,306.5 C 77.1569,305.658 80.9902,309.991 79,319.5C 76.1034,324.155 71.9367,325.655 66.5,324C 59.6203,317.772 59.9536,311.939 67.5,306.5 Z"/></g>
<g><path style="opacity:0.869" fill="#000000" d="M 436.5,306.5 C 448.689,306.718 452.023,312.218 446.5,323C 435.431,326.891 430.598,323.058 432,311.5C 433.025,309.313 434.525,307.646 436.5,306.5 Z"/></g>
<g><path style="opacity:0.88" fill="#000000" d="M 83.5,343.5 C 92.4777,342.646 96.6443,346.646 96,355.5C 93.5493,361.089 89.3826,362.922 83.5,361C 78.8451,358.103 77.3451,353.937 79,348.5C 80.025,346.313 81.525,344.646 83.5,343.5 Z"/></g>
<g><path style="opacity:0.877" fill="#000000" d="M 420.5,343.5 C 430.655,342.83 434.489,347.496 432,357.5C 428.604,361.203 424.437,362.369 419.5,361C 412.792,354.722 413.126,348.888 420.5,343.5 Z"/></g>
<g><path style="opacity:0.871" fill="#000000" d="M 107.5,376.5 C 116.905,375.735 120.905,379.901 119.5,389C 116.948,393.939 112.948,395.605 107.5,394C 99.6905,388.135 99.6905,382.302 107.5,376.5 Z"/></g>
<g><path style="opacity:0.874" fill="#000000" d="M 396.5,376.5 C 407.456,376.43 410.956,381.43 407,391.5C 401.719,395.699 396.719,395.366 392,390.5C 389.606,384.517 391.106,379.851 396.5,376.5 Z"/></g>
<g><path style="opacity:0.882" fill="#000000" d="M 138.5,403.5 C 146.969,403.135 150.802,407.135 150,415.5C 147.549,421.089 143.383,422.922 137.5,421C 132.845,418.103 131.345,413.937 133,408.5C 134.704,406.627 136.537,404.96 138.5,403.5 Z"/></g>
<g><path style="opacity:0.883" fill="#000000" d="M 366.5,403.5 C 375.842,403.069 379.675,407.402 378,416.5C 375.103,421.155 370.937,422.655 365.5,421C 358.792,414.722 359.126,408.888 366.5,403.5 Z"/></g>
<g><path style="opacity:0.873" fill="#000000" d="M 175.5,423.5 C 184.568,424.969 187.401,429.969 184,438.5C 179,443.833 174,443.833 169,438.5C 165.777,430.959 167.943,425.959 175.5,423.5 Z"/></g>
<g><path style="opacity:0.873" fill="#000000" d="M 333.5,423.5 C 342.543,424.915 345.376,429.915 342,438.5C 337,443.833 332,443.833 327,438.5C 323.75,431.01 325.917,426.01 333.5,423.5 Z"/></g>
<g><path style="opacity:0.878" fill="#000000" d="M 211.5,436.5 C 220.478,435.646 224.644,439.646 224,448.5C 221.367,453.732 217.201,455.565 211.5,454C 209.714,453.215 208.214,452.049 207,450.5C 205.309,444.61 206.809,439.944 211.5,436.5 Z"/></g>
<g><path style="opacity:0.881" fill="#000000" d="M 292.5,436.5 C 302.157,435.658 305.99,439.991 304,449.5C 301.459,454.069 297.625,455.569 292.5,454C 284.686,448.211 284.686,442.378 292.5,436.5 Z"/></g>
<g><path style="opacity:0.874" fill="#000000" d="M 253.5,440.5 C 263.24,441.311 266.407,446.311 263,455.5C 258,460.833 253,460.833 248,455.5C 244.838,448.514 246.671,443.514 253.5,440.5 Z"/></g>
</svg>
