<?xml version="1.0" encoding="UTF-8"?>
<!DOCTYPE svg PUBLIC "-//W3C//DTD SVG 1.1//EN" "http://www.w3.org/Graphics/SVG/1.1/DTD/svg11.dtd">
<svg xmlns="http://www.w3.org/2000/svg" version="1.1" width="512px" height="512px" style="shape-rendering:geometricPrecision; text-rendering:geometricPrecision; image-rendering:optimizeQuality; fill-rule:evenodd; clip-rule:evenodd" xmlns:xlink="http://www.w3.org/1999/xlink">
<g><path style="opacity:0.952" fill="#000000" d="M 233.5,-0.5 C 248.167,-0.5 262.833,-0.5 277.5,-0.5C 377.766,12.0408 449.266,64.0408 492,155.5C 502.296,180.684 508.796,206.684 511.5,233.5C 511.5,248.167 511.5,262.833 511.5,277.5C 498.959,377.766 446.959,449.266 355.5,492C 330.316,502.296 304.316,508.796 277.5,511.5C 262.833,511.5 248.167,511.5 233.5,511.5C 133.234,498.959 61.734,446.959 19,355.5C 8.70393,330.316 2.20393,304.316 -0.5,277.5C -0.5,262.833 -0.5,248.167 -0.5,233.5C 12.0408,133.234 64.0408,61.734 155.5,19C 180.684,8.70393 206.684,2.20393 233.5,-0.5 Z M 238.5,23.5 C 326.761,20.5512 396.595,54.5512 448,125.5C 487.976,187.663 497.643,254.33 477,325.5C 451.167,400.667 400.667,451.167 325.5,477C 235.811,501.452 157.311,481.952 90,418.5C 28.4777,351.402 9.811,273.736 34,185.5C 59.8333,110.333 110.333,59.8333 185.5,34C 202.967,28.7598 220.634,25.2598 238.5,23.5 Z M 240.5,52.5 C 327.723,50.6784 392.89,87.3451 436,162.5C 470.069,234.865 465.402,304.531 422,371.5C 374.17,435.153 310.336,463.653 230.5,457C 160.757,446.222 108.924,410.055 75,348.5C 40.9314,276.135 45.598,206.469 89,139.5C 126.548,88.1371 177.048,59.1371 240.5,52.5 Z"/></g>
<g><path style="opacity:0.853" fill="#000000" d="M 239.5,44.5 C 327.578,41.9433 394.412,77.9433 440,152.5C 475.333,221.167 475.333,289.833 440,358.5C 401.894,422.163 345.727,457.997 271.5,466C 183.395,469.041 116.562,433.208 71,358.5C 35.6667,289.833 35.6667,221.167 71,152.5C 109.317,88.9102 165.483,52.9102 239.5,44.5 Z M 240.5,52.5 C 177.048,59.1371 126.548,88.1371 89,139.5C 45.598,206.469 40.9314,276.135 75,348.5C 108.924,410.055 160.757,446.222 230.5,457C 310.336,463.653 374.17,435.153 422,371.5C 465.402,304.531 470.069,234.865 436,162.5C 392.89,87.3451 327.723,50.6784 240.5,52.5 Z"/></g>
<g><path style="opacity:0.959" fill="#000000" d="M 189.5,136.5 C 211.5,136.5 233.5,136.5 255.5,136.5C 255.667,191.834 255.5,247.168 255,302.5C 252.5,328.67 239,346.503 214.5,356C 186.028,363.165 163.195,354.998 146,331.5C 131.101,302.512 135.268,276.679 158.5,254C 169.612,245.284 182.279,240.784 196.5,240.5C 196.5,250.167 196.5,259.833 196.5,269.5C 175.229,272.708 165.395,285.041 167,306.5C 172.803,323.486 184.636,330.986 202.5,329C 214.224,326.277 221.724,319.11 225,307.5C 226.47,260.2 226.97,212.867 226.5,165.5C 214.167,165.5 201.833,165.5 189.5,165.5C 189.5,155.833 189.5,146.167 189.5,136.5 Z"/></g>
<g><path style="opacity:0.952" fill="#000000" d="M 265.5,137.5 C 274.5,137.5 283.5,137.5 292.5,137.5C 292.333,186.168 292.5,234.834 293,283.5C 299.494,297.219 309.66,301.052 323.5,295C 333.594,286.539 335.427,276.706 329,265.5C 325.361,262.207 322.194,258.54 319.5,254.5C 325.674,248.16 332.174,242.16 339,236.5C 362.858,258.32 365.858,282.653 348,309.5C 328.955,326.986 308.122,329.486 285.5,317C 274.784,308.742 268.284,297.909 266,284.5C 265.5,235.501 265.333,186.501 265.5,137.5 Z"/></g>
<g><path style="opacity:0.945" fill="#000000" d="M 350.5,310.5 C 351.675,310.281 352.675,310.614 353.5,311.5C 356.887,318.273 359.72,325.273 362,332.5C 366.18,358.651 356.014,376.484 331.5,386C 315.504,389.907 301.504,386.407 289.5,375.5C 295.314,368.518 301.314,361.685 307.5,355C 311.144,356.82 315.144,357.986 319.5,358.5C 328.5,357.5 333.5,352.5 334.5,343.5C 333.064,337.298 331.064,331.298 328.5,325.5C 337.606,322.959 344.939,317.959 350.5,310.5 Z"/></g>
<g><path style="opacity:0.895" fill="#000000" d="M 263.5,326.5 C 271.455,326.313 276.121,330.146 277.5,338C 275.987,347.097 270.654,350.764 261.5,349C 255.092,345.677 252.925,340.511 255,333.5C 256.851,329.843 259.684,327.51 263.5,326.5 Z"/></g>
<g><path style="opacity:0.901" fill="#000000" d="M 289.5,326.5 C 299.857,327.021 304.023,332.355 302,342.5C 298.23,349.414 292.73,351.247 285.5,348C 279.66,343.476 278.493,337.976 282,331.5C 284.17,329.177 286.67,327.51 289.5,326.5 Z"/></g>
</svg>
