<?xml version="1.0" encoding="UTF-8"?>
<!DOCTYPE svg PUBLIC "-//W3C//DTD SVG 1.1//EN" "http://www.w3.org/Graphics/SVG/1.1/DTD/svg11.dtd">
<svg xmlns="http://www.w3.org/2000/svg" version="1.1" width="512px" height="512px" style="shape-rendering:geometricPrecision; text-rendering:geometricPrecision; image-rendering:optimizeQuality; fill-rule:evenodd; clip-rule:evenodd" xmlns:xlink="http://www.w3.org/1999/xlink">
<g><path style="opacity:0.987" fill="#22257c" d="M 233.5,15.5 C 326.676,10.6799 400.51,45.6799 455,120.5C 500.8,193.045 508.133,269.379 477,349.5C 441.926,426.813 382.76,474.313 299.5,492C 208.454,505.657 132.287,478.491 71,410.5C 18.3115,343.73 2.97817,269.063 25,186.5C 51.5,105.333 105.333,51.5 186.5,25C 202.057,20.5889 217.723,17.4223 233.5,15.5 Z"/></g>
<g><path style="opacity:1" fill="#e3f0fe" d="M 235.5,31.5 C 330.835,27.9048 403.002,66.5715 452,147.5C 488.328,218.648 488.661,289.981 453,361.5C 412.358,432.264 351.191,471.43 269.5,479C 180.052,481.366 111.219,445.199 63,370.5C 28.1577,308.059 22.491,243.059 46,175.5C 74.1053,107.394 123.272,62.2276 193.5,40C 207.441,36.1813 221.441,33.348 235.5,31.5 Z"/></g>
<g><path style="opacity:1" fill="#51a8ff" d="M 252.5,39.5 C 260.658,38.8229 264.158,42.4895 263,50.5C 260.774,54.8608 257.274,56.3608 252.5,55C 248.139,52.7742 246.639,49.2742 248,44.5C 249.025,42.313 250.525,40.6464 252.5,39.5 Z"/></g>
<g><path style="opacity:1" fill="#4da6ff" d="M 219.5,42.5 C 229.855,42.0383 232.855,46.5383 228.5,56C 218.961,59.6601 214.794,56.4934 216,46.5C 216.69,44.6498 217.856,43.3164 219.5,42.5 Z"/></g>
<g><path style="opacity:1" fill="#4da6ff" d="M 284.5,42.5 C 294.855,42.0383 297.855,46.5383 293.5,56C 283.961,59.6601 279.794,56.4934 281,46.5C 281.69,44.6498 282.856,43.3164 284.5,42.5 Z"/></g>
<g><path style="opacity:1" fill="#51a7ff" d="M 188.5,49.5 C 195.985,49.4831 199.485,53.1498 199,60.5C 194.408,66.6791 189.408,67.0124 184,61.5C 182.474,56.2389 183.974,52.2389 188.5,49.5 Z"/></g>
<g><path style="opacity:1" fill="#51a7ff" d="M 317.5,49.5 C 325.642,49.4807 328.808,53.4807 327,61.5C 321.514,67.0804 316.514,66.747 312,60.5C 311.176,55.4818 313.009,51.8152 317.5,49.5 Z"/></g>
<g><path style="opacity:1" fill="#50a7ff" d="M 157.5,62.5 C 166.778,61.3759 170.278,65.3759 168,74.5C 162.837,80.0623 158.171,79.729 154,73.5C 152.663,68.9159 153.829,65.2493 157.5,62.5 Z"/></g>
<g><path style="opacity:1" fill="#50a7ff" d="M 346.5,62.5 C 354.987,61.4964 358.487,65.1631 357,73.5C 352.829,79.729 348.163,80.0623 343,74.5C 341.593,69.556 342.759,65.556 346.5,62.5 Z"/></g>
<g><path style="opacity:1" fill="#4aa5ff" d="M 238.5,63.5 C 318.34,60.6625 379.506,92.6625 422,159.5C 455.551,222.635 455.885,285.969 423,349.5C 390.711,403.736 343.211,435.902 280.5,446C 213.93,452.782 157.763,431.949 112,383.5C 68.9738,332.385 54.6405,274.051 69,208.5C 89.0638,139.436 133.231,93.6029 201.5,71C 213.81,67.7017 226.144,65.2017 238.5,63.5 Z"/></g>
<g><path style="opacity:1" fill="#51a7ff" d="M 129.5,79.5 C 139.059,78.546 142.559,82.546 140,91.5C 134.837,97.0623 130.171,96.729 126,90.5C 124.662,85.9597 125.829,82.293 129.5,79.5 Z"/></g>
<g><path style="opacity:1" fill="#51a7ff" d="M 374.5,79.5 C 382.656,78.8211 386.156,82.4878 385,90.5C 379.67,97.3107 374.67,96.9773 370,89.5C 369.077,85.0165 370.577,81.6832 374.5,79.5 Z"/></g>
<g><path style="opacity:1" fill="#51a7ff" d="M 105.5,100.5 C 113.658,99.8229 117.158,103.49 116,111.5C 110.951,118.154 105.951,118.154 101,111.5C 99.7758,106.626 101.276,102.959 105.5,100.5 Z"/></g>
<g><path style="opacity:1" fill="#51a7ff" d="M 399.5,100.5 C 407.658,99.8229 411.158,103.49 410,111.5C 405.049,118.154 400.049,118.154 395,111.5C 393.776,106.626 395.276,102.959 399.5,100.5 Z"/></g>
<g><path style="opacity:1" fill="#51a7ff" d="M 83.5,125.5 C 92.8876,124.675 96.3876,128.675 94,137.5C 88.8374,143.062 84.1708,142.729 80,136.5C 78.6624,131.96 79.8291,128.293 83.5,125.5 Z"/></g>
<g><path style="opacity:1" fill="#52a8ff" d="M 420.5,125.5 C 428.656,124.821 432.156,128.488 431,136.5C 425.67,143.311 420.67,142.977 416,135.5C 415.077,131.017 416.577,127.683 420.5,125.5 Z"/></g>
<g><path style="opacity:1" fill="#50a7ff" d="M 66.5,153.5 C 74.6647,152.175 78.498,155.509 78,163.5C 75.5647,168.224 71.7314,169.724 66.5,168C 62.7885,165.487 61.6218,161.987 63,157.5C 64.0319,155.973 65.1986,154.64 66.5,153.5 Z"/></g>
<g><path style="opacity:1" fill="#50a7ff" d="M 437.5,153.5 C 447.554,153.379 450.554,157.879 446.5,167C 437.479,170.949 432.979,168.116 433,158.5C 434.025,156.313 435.525,154.646 437.5,153.5 Z"/></g>
<g><path style="opacity:1" fill="#51a7ff" d="M 54.5,183.5 C 62.709,182.872 66.209,186.539 65,194.5C 59.67,201.311 54.67,200.977 50,193.5C 49.0769,189.017 50.5769,185.683 54.5,183.5 Z"/></g>
<g><path style="opacity:1" fill="#51a7ff" d="M 449.5,183.5 C 459.059,182.546 462.559,186.546 460,195.5C 454.837,201.062 450.171,200.729 446,194.5C 444.662,189.96 445.829,186.293 449.5,183.5 Z"/></g>
<g><path style="opacity:1" fill="#e4f2ff" d="M 188.5,183.5 C 193.194,182.7 196.694,184.367 199,188.5C 199.333,214.5 199.667,240.5 200,266.5C 214.5,252 229,237.5 243.5,223C 253.009,221.505 256.509,225.339 254,234.5C 243.124,245.041 232.624,255.875 222.5,267C 233.203,283.569 244.036,300.069 255,316.5C 256.167,324.667 252.667,328.167 244.5,327C 243.069,326.535 241.903,325.701 241,324.5C 231.058,308.894 220.725,293.56 210,278.5C 206.667,281.833 203.333,285.167 200,288.5C 199.667,299.5 199.333,310.5 199,321.5C 193.91,329.393 188.91,329.393 184,321.5C 183.333,277.167 183.333,232.833 184,188.5C 185.193,186.503 186.693,184.836 188.5,183.5 Z"/></g>
<g><path style="opacity:1" fill="#4da6ff" d="M 46.5,215.5 C 56.8554,215.038 59.8554,219.538 55.5,229C 45.9607,232.66 41.794,229.493 43,219.5C 43.6897,217.65 44.8564,216.316 46.5,215.5 Z"/></g>
<g><path style="opacity:1" fill="#4da6ff" d="M 457.5,215.5 C 467.855,215.038 470.855,219.538 466.5,229C 456.32,232.66 452.154,229.16 454,218.5C 455.145,217.364 456.312,216.364 457.5,215.5 Z"/></g>
<g><path style="opacity:1" fill="#e4f2ff" d="M 276.5,223.5 C 283.893,222.726 287.727,226.059 288,233.5C 298.794,224.258 310.961,221.591 324.5,225.5C 328.455,229.629 328.455,233.796 324.5,238C 309.028,237.653 296.861,243.819 288,256.5C 287.667,278.167 287.333,299.833 287,321.5C 281.91,329.393 276.91,329.393 272,321.5C 271.333,290.5 271.333,259.5 272,228.5C 273.366,226.638 274.866,224.972 276.5,223.5 Z"/></g>
<g><path style="opacity:1" fill="#51a8ff" d="M 44.5,247.5 C 52.6577,246.823 56.1577,250.49 55,258.5C 52.7742,262.861 49.2742,264.361 44.5,263C 40.1392,260.774 38.6392,257.274 40,252.5C 41.025,250.313 42.525,248.646 44.5,247.5 Z"/></g>
<g><path style="opacity:1" fill="#51a8ff" d="M 460.5,247.5 C 468.658,246.823 472.158,250.49 471,258.5C 468.774,262.861 465.274,264.361 460.5,263C 456.139,260.774 454.639,257.274 456,252.5C 457.025,250.313 458.525,248.646 460.5,247.5 Z"/></g>
<g><path style="opacity:1" fill="#4da6ff" d="M 46.5,280.5 C 56.8554,280.038 59.8554,284.538 55.5,294C 45.9607,297.66 41.794,294.493 43,284.5C 43.6897,282.65 44.8564,281.316 46.5,280.5 Z"/></g>
<g><path style="opacity:1" fill="#4da6ff" d="M 457.5,280.5 C 467.855,280.038 470.855,284.538 466.5,294C 456.821,297.983 452.654,294.816 454,284.5C 454.69,282.65 455.856,281.316 457.5,280.5 Z"/></g>
<g><path style="opacity:1" fill="#51a7ff" d="M 55.5,311.5 C 63.1485,311.314 66.3152,314.981 65,322.5C 62.9276,327.143 59.4276,328.643 54.5,327C 47.7544,321.512 48.0878,316.346 55.5,311.5 Z"/></g>
<g><path style="opacity:1" fill="#51a7ff" d="M 450.5,311.5 C 457.985,311.483 461.485,315.15 461,322.5C 458.459,327.069 454.625,328.569 449.5,327C 443.974,321.357 444.308,316.19 450.5,311.5 Z"/></g>
<g><path style="opacity:1" fill="#50a7ff" d="M 66.5,342.5 C 73.253,340.772 77.253,343.272 78.5,350C 77.008,356.418 73.008,358.751 66.5,357C 61.2353,352.076 61.2353,347.242 66.5,342.5 Z"/></g>
<g><path style="opacity:1" fill="#50a7ff" d="M 436.5,342.5 C 445.791,340.702 449.624,344.368 448,353.5C 443.7,358.446 439.033,358.779 434,354.5C 431.696,349.855 432.529,345.855 436.5,342.5 Z"/></g>
<g><path style="opacity:1" fill="#51a7ff" d="M 84.5,369.5 C 91.9852,369.483 95.4852,373.15 95,380.5C 90.4076,386.679 85.4076,387.012 80,381.5C 78.4742,376.239 79.9742,372.239 84.5,369.5 Z"/></g>
<g><path style="opacity:1" fill="#52a8ff" d="M 421.5,369.5 C 429.642,369.481 432.808,373.481 431,381.5C 425.592,387.012 420.592,386.679 416,380.5C 415.176,375.482 417.009,371.815 421.5,369.5 Z"/></g>
<g><path style="opacity:1" fill="#51a7ff" d="M 105.5,394.5 C 113.32,394.152 116.82,397.819 116,405.5C 113.774,409.861 110.274,411.361 105.5,410C 101.139,407.774 99.6392,404.274 101,399.5C 102.025,397.313 103.525,395.646 105.5,394.5 Z"/></g>
<g><path style="opacity:1" fill="#51a7ff" d="M 399.5,394.5 C 407.658,393.823 411.158,397.49 410,405.5C 407.774,409.861 404.274,411.361 399.5,410C 395.139,407.774 393.639,404.274 395,399.5C 396.366,397.638 397.866,395.972 399.5,394.5 Z"/></g>
<g><path style="opacity:1" fill="#51a7ff" d="M 130.5,415.5 C 137.985,415.483 141.485,419.15 141,426.5C 136.408,432.679 131.408,433.012 126,427.5C 124.474,422.239 125.974,418.239 130.5,415.5 Z"/></g>
<g><path style="opacity:1" fill="#52a8ff" d="M 375.5,415.5 C 383.642,415.481 386.808,419.481 385,427.5C 382.398,431.212 378.898,432.378 374.5,431C 367.754,425.512 368.088,420.346 375.5,415.5 Z"/></g>
<g><path style="opacity:1" fill="#50a7ff" d="M 158.5,432.5 C 166.696,432.529 169.863,436.529 168,444.5C 163.428,449.812 158.761,449.812 154,444.5C 152.474,439.239 153.974,435.239 158.5,432.5 Z"/></g>
<g><path style="opacity:1" fill="#50a7ff" d="M 347.5,432.5 C 355.642,432.481 358.808,436.481 357,444.5C 352.239,449.812 347.572,449.812 343,444.5C 341.309,439.131 342.809,435.131 347.5,432.5 Z"/></g>
<g><path style="opacity:1" fill="#51a7ff" d="M 187.5,445.5 C 196.888,444.675 200.388,448.675 198,457.5C 192.837,463.062 188.171,462.729 184,456.5C 182.662,451.96 183.829,448.293 187.5,445.5 Z"/></g>
<g><path style="opacity:1" fill="#51a7ff" d="M 316.5,445.5 C 324.709,444.872 328.209,448.539 327,456.5C 321.67,463.311 316.67,462.977 312,455.5C 311.438,451.232 312.938,447.898 316.5,445.5 Z"/></g>
<g><path style="opacity:1" fill="#4da6ff" d="M 218.5,453.5 C 229.528,452.401 232.861,456.901 228.5,467C 224.549,469.101 220.716,468.934 217,466.5C 214.743,461.805 215.243,457.472 218.5,453.5 Z"/></g>
<g><path style="opacity:1" fill="#4da6ff" d="M 284.5,453.5 C 294.855,453.038 297.855,457.538 293.5,467C 283.961,470.66 279.794,467.493 281,457.5C 281.69,455.65 282.856,454.316 284.5,453.5 Z"/></g>
<g><path style="opacity:1" fill="#51a8ff" d="M 252.5,455.5 C 260.658,454.823 264.158,458.49 263,466.5C 260.774,470.861 257.274,472.361 252.5,471C 248.139,468.774 246.639,465.274 248,460.5C 249.025,458.313 250.525,456.646 252.5,455.5 Z"/></g>
</svg>
