<?xml version="1.0" encoding="UTF-8"?>
<!DOCTYPE svg PUBLIC "-//W3C//DTD SVG 1.1//EN" "http://www.w3.org/Graphics/SVG/1.1/DTD/svg11.dtd">
<svg xmlns="http://www.w3.org/2000/svg" version="1.1" width="512px" height="512px" style="shape-rendering:geometricPrecision; text-rendering:geometricPrecision; image-rendering:optimizeQuality; fill-rule:evenodd; clip-rule:evenodd" xmlns:xlink="http://www.w3.org/1999/xlink">
<g><path style="opacity:0.996" fill="#fad88e" d="M 247.5,17.5 C 343.999,18.3075 416.499,59.9742 465,142.5C 503,217.833 503,293.167 465,368.5C 418.286,448.136 348.453,489.803 255.5,493.5C 162.547,489.803 92.7141,448.136 46,368.5C 8.00018,293.165 8.00018,217.832 46,142.5C 90.9533,65.4421 158.12,23.7755 247.5,17.5 Z"/></g>
<g><path style="opacity:1" fill="#edb53a" d="M 237.5,68.5 C 316.13,65.225 376.296,96.5584 418,162.5C 450.227,223.616 450.561,284.949 419,346.5C 377.67,413.923 317.17,445.756 237.5,442C 174.257,433.694 126.09,402.527 93,348.5C 55.2122,274.525 60.8788,204.192 110,137.5C 143.57,98.1298 186.07,75.1298 237.5,68.5 Z"/></g>
<g><path style="opacity:1" fill="#fee9be" d="M 309.5,375.5 C 309.5,367.833 309.5,360.167 309.5,352.5C 306.5,352.5 303.5,352.5 300.5,352.5C 287.042,351.96 274.376,348.46 262.5,342C 261.919,341.107 261.585,340.107 261.5,339C 262.97,332.935 264.97,327.101 267.5,321.5C 277.622,327.763 288.622,331.43 300.5,332.5C 303.287,333.477 306.287,333.81 309.5,333.5C 309.831,309.994 309.498,286.661 308.5,263.5C 296.138,259.24 285.305,252.573 276,243.5C 261.614,224.268 260.947,204.601 274,184.5C 283.414,173.543 295.247,166.876 309.5,164.5C 309.5,155.5 309.5,146.5 309.5,137.5C 314.833,137.5 320.167,137.5 325.5,137.5C 325.5,146.167 325.5,154.833 325.5,163.5C 335.866,162.606 345.866,164.106 355.5,168C 358.971,168.925 361.971,170.592 364.5,173C 362.531,179.242 360.364,185.409 358,191.5C 347.951,185.788 337.118,182.788 325.5,182.5C 325.5,203.833 325.5,225.167 325.5,246.5C 345.051,251.508 359.551,262.842 369,280.5C 377.935,318.301 363.602,341.967 326,351.5C 325.5,359.493 325.334,367.493 325.5,375.5C 320.167,375.5 314.833,375.5 309.5,375.5 Z"/></g>
<g><path style="opacity:1" fill="#f8d58b" d="M 228.5,142.5 C 219.833,142.5 211.167,142.5 202.5,142.5C 202.832,190.67 202.499,238.67 201.5,286.5C 201.5,238.167 201.5,189.833 201.5,141.5C 210.682,141.173 219.682,141.507 228.5,142.5 Z"/></g>
<g><path style="opacity:1" fill="#fee9bf" d="M 228.5,142.5 C 228.667,193.501 228.5,244.501 228,295.5C 226.762,308.465 222.762,320.465 216,331.5C 206.39,343.393 193.89,350.226 178.5,352C 164.908,353.424 151.575,352.258 138.5,348.5C 138.167,347.5 137.833,346.5 137.5,345.5C 138.666,339.176 139.666,332.843 140.5,326.5C 151.973,329.394 163.64,330.227 175.5,329C 186.066,326.767 193.232,320.6 197,310.5C 199.659,302.718 201.159,294.718 201.5,286.5C 202.499,238.67 202.832,190.67 202.5,142.5C 211.167,142.5 219.833,142.5 228.5,142.5 Z"/></g>
<g><path style="opacity:1" fill="#edb53b" d="M 307.5,185.5 C 308.833,202.833 308.833,220.167 307.5,237.5C 289.004,227.513 284.504,213.18 294,194.5C 297.486,189.85 301.986,186.85 307.5,185.5 Z"/></g>
<g><path style="opacity:1" fill="#f1c15a" d="M 307.5,185.5 C 307.56,184.957 307.893,184.624 308.5,184.5C 309.833,202.5 309.833,220.5 308.5,238.5C 307.893,238.376 307.56,238.043 307.5,237.5C 308.833,220.167 308.833,202.833 307.5,185.5 Z"/></g>
<g><path style="opacity:1" fill="#f2c35f" d="M 308.5,263.5 C 309.498,286.661 309.831,309.994 309.5,333.5C 306.287,333.81 303.287,333.477 300.5,332.5C 303.167,332.5 305.833,332.5 308.5,332.5C 308.5,309.5 308.5,286.5 308.5,263.5 Z"/></g>
<g><path style="opacity:1" fill="#edb53c" d="M 325.5,270.5 C 348.092,281.443 353.592,298.11 342,320.5C 337.614,325.772 332.114,329.105 325.5,330.5C 325.5,310.5 325.5,290.5 325.5,270.5 Z"/></g>
<g><path style="opacity:1" fill="#f2c461" d="M 300.5,352.5 C 303.5,352.5 306.5,352.5 309.5,352.5C 309.5,360.167 309.5,367.833 309.5,375.5C 308.508,368.352 308.175,361.019 308.5,353.5C 305.615,353.806 302.948,353.473 300.5,352.5 Z"/></g>
</svg>
