<?xml version="1.0" encoding="UTF-8"?>
<!DOCTYPE svg PUBLIC "-//W3C//DTD SVG 1.1//EN" "http://www.w3.org/Graphics/SVG/1.1/DTD/svg11.dtd">
<svg xmlns="http://www.w3.org/2000/svg" version="1.1" width="64px" height="64px" style="shape-rendering:geometricPrecision; text-rendering:geometricPrecision; image-rendering:optimizeQuality; fill-rule:evenodd; clip-rule:evenodd" xmlns:xlink="http://www.w3.org/1999/xlink">
<g><path style="opacity:0.808" fill="#000000" d="M 14.5,9.5 C 17.5,9.5 20.5,9.5 23.5,9.5C 23.5,24.1667 23.5,38.8333 23.5,53.5C 20.5,53.5 17.5,53.5 14.5,53.5C 14.5,38.8333 14.5,24.1667 14.5,9.5 Z"/></g>
<g><path style="opacity:0.829" fill="#000000" d="M 42.5,9.5 C 46.1817,9.3347 49.8484,9.50137 53.5,10C 48.3593,17.3077 43.026,24.4744 37.5,31.5C 42.7454,38.3239 47.7454,45.3239 52.5,52.5C 50.8333,52.8333 49.1667,53.1667 47.5,53.5C 44.9886,53.712 42.8219,53.0454 41,51.5C 36.3602,44.6934 31.5269,38.0268 26.5,31.5C 32.2449,24.4284 37.5782,17.0951 42.5,9.5 Z"/></g>
</svg>
