<?xml version="1.0" encoding="UTF-8"?>
<!DOCTYPE svg PUBLIC "-//W3C//DTD SVG 1.1//EN" "http://www.w3.org/Graphics/SVG/1.1/DTD/svg11.dtd">
<svg xmlns="http://www.w3.org/2000/svg" version="1.1" width="64px" height="64px" style="shape-rendering:geometricPrecision; text-rendering:geometricPrecision; image-rendering:optimizeQuality; fill-rule:evenodd; clip-rule:evenodd" xmlns:xlink="http://www.w3.org/1999/xlink">
<g><path style="opacity:0.871" fill="#000000" d="M 13.5,9.5 C 17.5,9.5 21.5,9.5 25.5,9.5C 25.3342,14.1785 25.5008,18.8452 26,23.5C 30.5343,19.3006 34.701,14.8006 38.5,10C 43.202,9.17169 47.8687,9.33836 52.5,10.5C 47.1667,16.1667 41.8333,21.8333 36.5,27.5C 41.9193,36.0065 47.586,44.3399 53.5,52.5C 49.2047,53.6609 44.8713,53.8275 40.5,53C 36.6103,47.3735 32.6103,41.8735 28.5,36.5C 27.5224,36.9767 26.6891,37.6433 26,38.5C 25.5007,43.4889 25.3341,48.4889 25.5,53.5C 21.5,53.5 17.5,53.5 13.5,53.5C 13.5,38.8333 13.5,24.1667 13.5,9.5 Z"/></g>
</svg>
