<?xml version="1.0" encoding="UTF-8"?>
<!DOCTYPE svg PUBLIC "-//W3C//DTD SVG 1.1//EN" "http://www.w3.org/Graphics/SVG/1.1/DTD/svg11.dtd">
<svg xmlns="http://www.w3.org/2000/svg" version="1.1" width="512px" height="512px" style="shape-rendering:geometricPrecision; text-rendering:geometricPrecision; image-rendering:optimizeQuality; fill-rule:evenodd; clip-rule:evenodd" xmlns:xlink="http://www.w3.org/1999/xlink">
<g><path style="opacity:0.934" fill="#000000" d="M 233.5,-0.5 C 248.167,-0.5 262.833,-0.5 277.5,-0.5C 367.555,10.0943 435.388,54.4276 481,132.5C 497.855,164.278 508.022,197.945 511.5,233.5C 511.5,248.167 511.5,262.833 511.5,277.5C 500.906,367.555 456.572,435.388 378.5,481C 346.722,497.855 313.055,508.022 277.5,511.5C 262.833,511.5 248.167,511.5 233.5,511.5C 143.445,500.906 75.612,456.572 30,378.5C 13.1449,346.722 2.97822,313.055 -0.5,277.5C -0.5,262.833 -0.5,248.167 -0.5,233.5C 10.0943,143.445 54.4276,75.612 132.5,30C 164.278,13.1449 197.945,2.97822 233.5,-0.5 Z M 238.5,16.5 C 333.927,14.1239 407.76,52.4573 460,131.5C 498.372,198.224 504.706,267.891 479,340.5C 447.513,417.32 391.68,466.487 311.5,488C 210.277,507.488 127.443,477.322 63,397.5C 14.2533,327.203 3.91994,251.536 32,170.5C 71.0476,79.2927 139.881,27.9593 238.5,16.5 Z M 242.5,43.5 C 329.125,42.3802 394.958,78.3802 440,151.5C 476.667,220.833 476.667,290.167 440,359.5C 401.185,424.021 344.019,459.854 268.5,467C 181.847,468.604 116.014,432.77 71,359.5C 34.3333,290.167 34.3333,220.833 71,151.5C 110.023,87.0528 167.19,51.0528 242.5,43.5 Z M 244.5,114.5 C 251.833,114.5 259.167,114.5 266.5,114.5C 266.5,159.5 266.5,204.5 266.5,249.5C 259.167,249.5 251.833,249.5 244.5,249.5C 244.5,204.5 244.5,159.5 244.5,114.5 Z M 254.5,304.5 C 262.143,310.102 266.477,317.769 267.5,327.5C 259.5,327.5 251.5,327.5 243.5,327.5C 244.766,318.637 248.432,310.971 254.5,304.5 Z M 243.5,344.5 C 251.5,344.5 259.5,344.5 267.5,344.5C 266.387,353.728 262.387,361.395 255.5,367.5C 248.613,361.395 244.613,353.728 243.5,344.5 Z"/></g>
<g><path style="opacity:0.932" fill="#000000" d="M 237.5,26.5 C 334.481,23.2255 407.648,62.8922 457,145.5C 486.835,203.184 492.502,263.184 474,325.5C 448.5,399 399,448.5 325.5,474C 245.261,496.855 172.595,482.522 107.5,431C 41.22,371.168 15.72,297.001 31,208.5C 46.7206,140.17 84.8873,88.6699 145.5,54C 174.502,38.8286 205.169,29.6619 237.5,26.5 Z M 242.5,43.5 C 167.19,51.0528 110.023,87.0528 71,151.5C 34.3333,220.833 34.3333,290.167 71,359.5C 116.014,432.77 181.847,468.604 268.5,467C 344.019,459.854 401.185,424.021 440,359.5C 476.667,290.167 476.667,220.833 440,151.5C 394.958,78.3802 329.125,42.3802 242.5,43.5 Z M 244.5,114.5 C 244.5,159.5 244.5,204.5 244.5,249.5C 251.833,249.5 259.167,249.5 266.5,249.5C 266.5,204.5 266.5,159.5 266.5,114.5C 259.167,114.5 251.833,114.5 244.5,114.5 Z M 254.5,304.5 C 248.432,310.971 244.766,318.637 243.5,327.5C 251.5,327.5 259.5,327.5 267.5,327.5C 266.477,317.769 262.143,310.102 254.5,304.5 Z M 243.5,344.5 C 244.613,353.728 248.613,361.395 255.5,367.5C 262.387,361.395 266.387,353.728 267.5,344.5C 259.5,344.5 251.5,344.5 243.5,344.5 Z"/></g>
<g><path style="opacity:0.926" fill="#000000" d="M 235.5,57.5 C 244.871,57.0341 248.705,61.3675 247,70.5C 245.833,71.6667 244.667,72.8333 243.5,74C 158.338,84.8346 103.505,131.335 79,213.5C 71.3771,219.812 65.8771,218.312 62.5,209C 79.5473,144.564 118.547,98.8975 179.5,72C 197.643,64.678 216.309,59.8447 235.5,57.5 Z"/></g>
<g><path style="opacity:0.92" fill="#000000" d="M 269.5,57.5 C 292.787,59.1241 315.12,64.6241 336.5,74C 343.471,78.5507 344.138,83.884 338.5,90C 336.782,90.346 335.115,90.846 333.5,91.5C 312.401,82.301 290.401,76.4677 267.5,74C 261.731,67.6531 262.398,62.1531 269.5,57.5 Z"/></g>
<g><path style="opacity:0.921" fill="#000000" d="M 360.5,89.5 C 363.425,89.4598 366.091,90.2932 368.5,92C 409.538,121.047 436.205,160.047 448.5,209C 445.123,218.312 439.623,219.812 432,213.5C 422.044,175.742 402.544,143.908 373.5,118C 367.243,113.287 361.076,108.454 355,103.5C 352.143,96.8918 353.977,92.2251 360.5,89.5 Z"/></g>
<g><path style="opacity:0.959" fill="#000000" d="M 232.5,97.5 C 247.837,97.3334 263.17,97.5001 278.5,98C 280.667,98.8333 282.167,100.333 283,102.5C 283.667,155.5 283.667,208.5 283,261.5C 282.167,263.667 280.667,265.167 278.5,266C 263.167,266.667 247.833,266.667 232.5,266C 230.333,265.167 228.833,263.667 228,261.5C 227.667,220.5 227.333,179.5 227,138.5C 225.414,141.341 223.58,144.007 221.5,146.5C 216.497,149.523 211.997,148.857 208,144.5C 207.163,140.705 207.496,137.039 209,133.5C 215,123.5 221,113.5 227,103.5C 228.36,100.977 230.193,98.9774 232.5,97.5 Z M 244.5,114.5 C 244.5,159.5 244.5,204.5 244.5,249.5C 251.833,249.5 259.167,249.5 266.5,249.5C 266.5,204.5 266.5,159.5 266.5,114.5C 259.167,114.5 251.833,114.5 244.5,114.5 Z"/></g>
<g><path style="opacity:0.896" fill="#000000" d="M 64.5,246.5 C 76.1714,246.333 87.8381,246.5 99.5,247C 105.995,248.846 108.162,253.012 106,259.5C 104.363,261.81 102.196,263.31 99.5,264C 87.8333,264.667 76.1667,264.667 64.5,264C 59.4516,263.403 57.1182,260.57 57.5,255.5C 57.2832,250.395 59.6166,247.395 64.5,246.5 Z"/></g>
<g><path style="opacity:0.896" fill="#000000" d="M 411.5,246.5 C 423.171,246.333 434.838,246.5 446.5,247C 452.964,248.756 455.13,252.923 453,259.5C 451.661,262.094 449.494,263.594 446.5,264C 434.833,264.667 423.167,264.667 411.5,264C 405.005,262.154 402.838,257.988 405,251.5C 406.805,249.174 408.972,247.508 411.5,246.5 Z"/></g>
<g><path style="opacity:0.932" fill="#000000" d="M 288.5,369.5 C 292.091,374.182 294.758,379.349 296.5,385C 294.522,392.656 289.856,394.989 282.5,392C 278.943,387.038 275.277,382.205 271.5,377.5C 260.833,388.167 250.167,388.167 239.5,377.5C 235.723,382.205 232.057,387.038 228.5,392C 221.144,394.989 216.478,392.656 214.5,385C 216.242,379.349 218.909,374.182 222.5,369.5C 216.188,371.153 210.188,373.653 204.5,377C 197.167,382.333 189.833,387.667 182.5,393C 176.11,393.979 172.444,391.312 171.5,385C 171.542,383.033 172.042,381.199 173,379.5C 178.708,374.123 184.708,369.123 191,364.5C 191.333,346.833 191.667,329.167 192,311.5C 192.333,305.833 195.333,302.833 201,302.5C 205.104,303.215 207.771,305.548 209,309.5C 209.5,324.496 209.667,339.496 209.5,354.5C 215.168,352.778 220.835,350.944 226.5,349C 223.394,336.546 224.394,324.379 229.5,312.5C 223.578,304.482 218.578,295.982 214.5,287C 217.306,278.62 222.472,276.787 230,281.5C 233,286.167 236,290.833 239,295.5C 250,283.5 261,283.5 272,295.5C 275.042,290.581 278.209,285.748 281.5,281C 287.538,277.236 292.372,278.403 296,284.5C 296.584,287.257 296.25,289.923 295,292.5C 290.304,299.03 285.804,305.697 281.5,312.5C 286.606,324.379 287.606,336.546 284.5,349C 290.165,350.944 295.832,352.778 301.5,354.5C 301.333,339.496 301.5,324.496 302,309.5C 305.345,302.939 310.178,301.439 316.5,305C 317.863,306.945 318.697,309.112 319,311.5C 319.333,329.167 319.667,346.833 320,364.5C 326.292,369.123 332.292,374.123 338,379.5C 341.043,385.616 339.543,390.116 333.5,393C 331.833,393.667 330.167,393.667 328.5,393C 321.167,387.667 313.833,382.333 306.5,377C 300.812,373.653 294.812,371.153 288.5,369.5 Z M 254.5,304.5 C 248.432,310.971 244.766,318.637 243.5,327.5C 251.5,327.5 259.5,327.5 267.5,327.5C 266.477,317.769 262.143,310.102 254.5,304.5 Z M 243.5,344.5 C 244.613,353.728 248.613,361.395 255.5,367.5C 262.387,361.395 266.387,353.728 267.5,344.5C 259.5,344.5 251.5,344.5 243.5,344.5 Z"/></g>
<g><path style="opacity:0.919" fill="#000000" d="M 68.5,293.5 C 72.115,293.206 75.2816,294.206 78,296.5C 88.5751,334.504 108.408,366.671 137.5,393C 141.092,395.713 144.592,398.547 148,401.5C 151.152,411.19 147.652,415.69 137.5,415C 99.0297,386.425 74.0297,348.758 62.5,302C 63.1868,298.16 65.1868,295.327 68.5,293.5 Z"/></g>
<g><path style="opacity:0.932" fill="#000000" d="M 437.5,293.5 C 443.636,293.136 447.302,295.969 448.5,302C 430.04,370.462 387.706,417.462 321.5,443C 267.661,460.19 215.327,456.524 164.5,432C 160.276,428.596 159.109,424.429 161,419.5C 162.743,417.129 165.077,415.795 168,415.5C 181.858,421.453 196.024,426.62 210.5,431C 282.378,446.331 343.211,427.164 393,373.5C 411.831,350.843 425.164,325.176 433,296.5C 434.409,295.219 435.909,294.219 437.5,293.5 Z"/></g>
</svg>
