<?xml version="1.0" encoding="UTF-8"?>
<!DOCTYPE svg PUBLIC "-//W3C//DTD SVG 1.1//EN" "http://www.w3.org/Graphics/SVG/1.1/DTD/svg11.dtd">
<svg xmlns="http://www.w3.org/2000/svg" version="1.1" width="48px" height="48px" style="shape-rendering:geometricPrecision; text-rendering:geometricPrecision; image-rendering:optimizeQuality; fill-rule:evenodd; clip-rule:evenodd" xmlns:xlink="http://www.w3.org/1999/xlink">
<g><path style="opacity:0.992" fill="#1ca15b" d="M 29.5,3.5 C 27.8764,6.79006 25.5431,9.45673 22.5,11.5C 18.1667,12.5 15.5,15.1667 14.5,19.5C 11.4633,23.5372 7.79665,26.8705 3.5,29.5C 1.75458,10.5786 10.4212,1.91194 29.5,3.5 Z"/></g>
<g><path style="opacity:0.99" fill="#13944f" d="M 29.5,3.5 C 34.2368,5.34556 37.9035,8.34556 40.5,12.5C 36.5,17.5 32.5,22.5 28.5,27.5C 28.5,28.1667 28.1667,28.5 27.5,28.5C 25.0108,28.7022 22.6775,28.2022 20.5,27C 24.3705,23.2977 28.0371,19.4643 31.5,15.5C 29.4811,12.3294 26.4811,10.9961 22.5,11.5C 25.5431,9.45673 27.8764,6.79006 29.5,3.5 Z"/></g>
<g><path style="opacity:1" fill="#219857" d="M 31.5,15.5 C 28.0371,19.4643 24.3705,23.2977 20.5,27C 22.6775,28.2022 25.0108,28.7022 27.5,28.5C 19.4712,30.311 15.9712,26.9777 17,18.5C 17.8333,16.3333 19.3333,14.8333 21.5,14C 25.0213,13.3092 28.3546,13.8092 31.5,15.5 Z"/></g>
<g><path style="opacity:0.999" fill="#0c8746" d="M 40.5,12.5 C 45.7963,20.483 45.6297,28.483 40,36.5C 33.3114,43.6302 25.478,45.6302 16.5,42.5C 17.9599,40.5372 19.6266,38.7038 21.5,37C 18.9644,36.8138 16.631,36.3138 14.5,35.5C 38.5,34.8333 38.5,34.1667 14.5,33.5C 16.8333,32.8333 19.1667,32.1667 21.5,31.5C 25.1219,32.076 28.1219,31.076 30.5,28.5C 30.0431,27.7025 29.3764,27.3691 28.5,27.5C 32.5,22.5 36.5,17.5 40.5,12.5 Z"/></g>
<g><path style="opacity:0.94" fill="#169451" d="M 14.5,19.5 C 14.3024,25.1203 16.6357,29.1203 21.5,31.5C 19.1667,32.1667 16.8333,32.8333 14.5,33.5C 14.5,34.1667 14.5,34.8333 14.5,35.5C 16.631,36.3138 18.9644,36.8138 21.5,37C 19.6266,38.7038 17.9599,40.5372 16.5,42.5C 9.89121,40.558 5.55788,36.2247 3.5,29.5C 7.79665,26.8705 11.4633,23.5372 14.5,19.5 Z"/></g>
<g><path style="opacity:1" fill="#edf6f1" d="M 22.5,11.5 C 26.4811,10.9961 29.4811,12.3294 31.5,15.5C 28.3546,13.8092 25.0213,13.3092 21.5,14C 19.3333,14.8333 17.8333,16.3333 17,18.5C 15.9712,26.9777 19.4712,30.311 27.5,28.5C 28.1667,28.5 28.5,28.1667 28.5,27.5C 29.3764,27.3691 30.0431,27.7025 30.5,28.5C 28.1219,31.076 25.1219,32.076 21.5,31.5C 16.6357,29.1203 14.3024,25.1203 14.5,19.5C 15.5,15.1667 18.1667,12.5 22.5,11.5 Z"/></g>
<g><path style="opacity:1" fill="#fdfdfd" d="M 14.5,33.5 C 38.5,34.1667 38.5,34.8333 14.5,35.5C 14.5,34.8333 14.5,34.1667 14.5,33.5 Z"/></g>
</svg>
