<?xml version="1.0" encoding="UTF-8"?>
<!DOCTYPE svg PUBLIC "-//W3C//DTD SVG 1.1//EN" "http://www.w3.org/Graphics/SVG/1.1/DTD/svg11.dtd">
<svg xmlns="http://www.w3.org/2000/svg" version="1.1" width="512px" height="512px" style="shape-rendering:geometricPrecision; text-rendering:geometricPrecision; image-rendering:optimizeQuality; fill-rule:evenodd; clip-rule:evenodd" xmlns:xlink="http://www.w3.org/1999/xlink">
<g><path style="opacity:0.967" fill="#136fff" d="M 232.5,-0.5 C 247.833,-0.5 263.167,-0.5 278.5,-0.5C 378.271,12.4486 449.438,64.4486 492,155.5C 502.136,180.379 508.636,206.046 511.5,232.5C 511.5,247.833 511.5,263.167 511.5,278.5C 498.551,378.271 446.551,449.438 355.5,492C 330.622,502.136 304.955,508.636 278.5,511.5C 263.167,511.5 247.833,511.5 232.5,511.5C 132.727,498.549 61.5605,446.549 19,355.5C 8.86392,330.621 2.36392,304.954 -0.5,278.5C -0.5,263.167 -0.5,247.833 -0.5,232.5C 12.4486,132.729 64.4486,61.5622 155.5,19C 180.379,8.86392 206.046,2.36392 232.5,-0.5 Z"/></g>
<g><path style="opacity:1" fill="#93c0ff" d="M 232.5,10.5 C 320.699,5.70681 392.866,37.0401 449,104.5C 497.921,169.773 512.254,242.106 492,321.5C 465.593,404.907 411.093,461.074 328.5,490C 228.711,516.504 143.211,492.67 72,418.5C 15.8886,351.309 -1.77811,274.976 19,189.5C 39.5637,121.52 81.0637,70.6869 143.5,37C 171.714,22.9813 201.381,14.1479 232.5,10.5 Z"/></g>
<g><path style="opacity:1" fill="#1871ff" d="M 242.5,52.5 C 322.987,51.152 385.153,83.8187 429,150.5C 468.255,220.473 468.255,290.473 429,360.5C 382.53,430.65 317.03,462.816 232.5,457C 167.483,447.598 117.317,415.431 82,360.5C 42.7363,290.436 42.7363,220.436 82,150.5C 119.613,92.0973 173.113,59.4307 242.5,52.5 Z"/></g>
<g><path style="opacity:1" fill="#d6e8ff" d="M 238.5,63.5 C 318.323,60.6548 379.49,92.6548 422,159.5C 455.579,222.636 455.913,285.97 423,349.5C 380.839,417.838 319.339,450.338 238.5,447C 172.194,438.963 122.027,406.463 88,349.5C 55.0144,285.969 55.3478,222.636 89,159.5C 123.396,103.704 173.23,71.7044 238.5,63.5 Z"/></g>
<g><path style="opacity:1" fill="#1770ff" d="M 270.5,206.5 C 270.5,223.167 270.5,239.833 270.5,256.5C 282.833,256.5 295.167,256.5 307.5,256.5C 311.775,258.316 312.608,261.316 310,265.5C 309.329,266.252 308.496,266.586 307.5,266.5C 295.167,266.5 282.833,266.5 270.5,266.5C 270.5,292.167 270.5,317.833 270.5,343.5C 266.775,363.72 254.609,374.72 234,376.5C 211.596,371.912 200.096,358.078 199.5,335C 199.778,323.777 204.112,314.444 212.5,307C 216.731,305.733 219.398,307.233 220.5,311.5C 216.829,316.838 213.662,322.505 211,328.5C 208.525,340.781 211.692,351.281 220.5,360C 233.88,368.642 245.713,366.809 256,354.5C 257.868,351.395 259.035,348.062 259.5,344.5C 260.498,318.672 260.831,292.672 260.5,266.5C 247.5,266.5 234.5,266.5 221.5,266.5C 217.746,265.172 216.579,262.506 218,258.5C 218.816,257.177 219.983,256.511 221.5,256.5C 234.5,256.5 247.5,256.5 260.5,256.5C 260.83,240.658 260.496,224.991 259.5,209.5C 246.869,196.368 234.035,183.368 221,170.5C 212.618,155.316 216.118,143.816 231.5,136C 238.543,134.719 245.21,135.719 251.5,139C 271.638,158.138 291.472,177.638 311,197.5C 312.167,203.667 309.667,206.167 303.5,205C 284.472,185.638 265.138,166.638 245.5,148C 238.203,143.8 232.37,145.3 228,152.5C 227.163,156.295 227.496,159.961 229,163.5C 243.422,177.419 257.255,191.752 270.5,206.5 Z"/></g>
<g><path style="opacity:1" fill="#8ab9ff" d="M 259.5,209.5 C 260.496,224.991 260.83,240.658 260.5,256.5C 247.5,256.5 234.5,256.5 221.5,256.5C 233.989,255.505 246.656,255.171 259.5,255.5C 259.5,240.167 259.5,224.833 259.5,209.5 Z"/></g>
<g><path style="opacity:1" fill="#9fc6ff" d="M 270.5,206.5 C 271.496,222.658 271.83,238.991 271.5,255.5C 283.678,255.172 295.678,255.505 307.5,256.5C 295.167,256.5 282.833,256.5 270.5,256.5C 270.5,239.833 270.5,223.167 270.5,206.5 Z"/></g>
<g><path style="opacity:1" fill="#7db1ff" d="M 221.5,266.5 C 234.5,266.5 247.5,266.5 260.5,266.5C 260.831,292.672 260.498,318.672 259.5,344.5C 259.5,318.833 259.5,293.167 259.5,267.5C 246.656,267.829 233.989,267.495 221.5,266.5 Z"/></g>
<g><path style="opacity:1" fill="#abcdff" d="M 307.5,266.5 C 295.678,267.495 283.678,267.828 271.5,267.5C 271.831,293.005 271.498,318.339 270.5,343.5C 270.5,317.833 270.5,292.167 270.5,266.5C 282.833,266.5 295.167,266.5 307.5,266.5 Z"/></g>
</svg>
