<?xml version="1.0" encoding="UTF-8"?>
<!DOCTYPE svg PUBLIC "-//W3C//DTD SVG 1.1//EN" "http://www.w3.org/Graphics/SVG/1.1/DTD/svg11.dtd">
<svg xmlns="http://www.w3.org/2000/svg" version="1.1" width="512px" height="512px" style="shape-rendering:geometricPrecision; text-rendering:geometricPrecision; image-rendering:optimizeQuality; fill-rule:evenodd; clip-rule:evenodd" xmlns:xlink="http://www.w3.org/1999/xlink">
<g><path style="opacity:0.966" fill="#010102" d="M 232.5,-0.5 C 247.833,-0.5 263.167,-0.5 278.5,-0.5C 346.437,6.88474 403.271,35.8847 449,86.5C 452.471,91.1546 452.304,95.488 448.5,99.5C 445.406,101.347 442.072,101.847 438.5,101C 393.867,50.5172 337.867,22.6839 270.5,17.5C 172.355,14.8128 97.8547,55.1461 47,138.5C 10.4848,207.881 6.98482,278.881 36.5,351.5C 76.8653,435.548 143.532,483.048 236.5,494C 331.249,497.543 405.083,460.377 458,382.5C 495.618,319.221 503.951,252.221 483,181.5C 478.352,167.219 472.352,153.552 465,140.5C 463.882,136.077 465.049,132.41 468.5,129.5C 473.353,127.599 477.52,128.599 481,132.5C 497.694,163.968 507.861,197.302 511.5,232.5C 511.5,247.833 511.5,263.167 511.5,278.5C 499.093,375.181 449.427,445.348 362.5,489C 335.552,500.902 307.552,508.402 278.5,511.5C 263.167,511.5 247.833,511.5 232.5,511.5C 135.779,499.079 65.6128,449.413 22,362.5C 10.0981,335.551 2.59809,307.551 -0.5,278.5C -0.5,263.167 -0.5,247.833 -0.5,232.5C 11.9281,134.769 62.2614,64.2685 150.5,21C 176.89,9.73718 204.224,2.57051 232.5,-0.5 Z"/></g>
<g><path style="opacity:1" fill="#ecf5fd" d="M 270.5,17.5 C 272.123,25.8393 269.123,31.6726 261.5,35C 233.15,39.0057 206.483,48.0057 181.5,62C 180.207,62.49 178.873,62.6567 177.5,62.5C 174.796,59.6967 171.463,58.8634 167.5,60C 163.5,62 159.5,64 155.5,66C 151.142,69.6163 150.476,73.783 153.5,78.5C 148.032,84.1238 142.032,89.2905 135.5,94C 125.266,103.564 115.766,113.731 107,124.5C 106.79,122.942 106.29,121.609 105.5,120.5C 103.492,116.328 100.159,114.495 95.5,115C 89.9547,118.878 85.4547,123.711 82,129.5C 81.2234,138.55 85.3901,142.217 94.5,140.5C 81.8631,158.097 71.5298,177.097 63.5,197.5C 63.0431,198.298 62.3764,198.631 61.5,198.5C 54.5302,195.063 49.6968,197.063 47,204.5C 45.415,209.413 44.7484,214.413 45,219.5C 46.605,223.276 49.4384,225.276 53.5,225.5C 48.333,247.829 45.6663,270.496 45.5,293.5C 45.5,295.833 45.5,298.167 45.5,300.5C 46.9255,314.231 48.4255,327.897 50,341.5C 48.1354,348.352 43.6354,351.686 36.5,351.5C 6.98482,278.881 10.4848,207.881 47,138.5C 97.8547,55.1461 172.355,14.8128 270.5,17.5 Z"/></g>
<g><path style="opacity:1" fill="#cae1f8" d="M 270.5,17.5 C 337.867,22.6839 393.867,50.5172 438.5,101C 442.072,101.847 445.406,101.347 448.5,99.5C 456.169,108.841 462.836,118.841 468.5,129.5C 465.049,132.41 463.882,136.077 465,140.5C 472.352,153.552 478.352,167.219 483,181.5C 503.951,252.221 495.618,319.221 458,382.5C 405.083,460.377 331.249,497.543 236.5,494C 143.532,483.048 76.8653,435.548 36.5,351.5C 43.6354,351.686 48.1354,348.352 50,341.5C 48.4255,327.897 46.9255,314.231 45.5,300.5C 46.9527,304.291 48.1194,308.291 49,312.5C 52.5141,318.069 57.0141,318.902 62.5,315C 63.9801,312.753 64.6467,310.253 64.5,307.5C 63.9831,303.113 63.1497,298.78 62,294.5C 57.0085,286.873 51.5085,286.54 45.5,293.5C 45.6663,270.496 48.333,247.829 53.5,225.5C 56.6433,224.866 59.1433,223.2 61,220.5C 61.9124,215.271 63.079,210.104 64.5,205C 64.1598,202.489 63.1598,200.322 61.5,198.5C 62.3764,198.631 63.0431,198.298 63.5,197.5C 71.5298,177.097 81.8631,158.097 94.5,140.5C 97.9917,136.197 101.492,131.864 105,127.5C 105.497,125.19 105.663,122.857 105.5,120.5C 106.29,121.609 106.79,122.942 107,124.5C 115.766,113.731 125.266,103.564 135.5,94C 142.032,89.2905 148.032,84.1238 153.5,78.5C 155.322,80.1598 157.489,81.1598 160,81.5C 166.685,79.8243 172.685,76.8243 178,72.5C 180.128,68.9752 179.961,65.6418 177.5,62.5C 178.873,62.6567 180.207,62.49 181.5,62C 206.483,48.0057 233.15,39.0057 261.5,35C 269.123,31.6726 272.123,25.8393 270.5,17.5 Z"/></g>
<g><path style="opacity:1" fill="#060607" d="M 245.5,41.5 C 252.615,41.0753 259.615,41.5753 266.5,43C 271.096,49.0865 270.096,54.0865 263.5,58C 257.833,58.6667 252.167,58.6667 246.5,58C 241.845,55.1034 240.345,50.9367 242,45.5C 243.376,44.2949 244.542,42.9616 245.5,41.5 Z"/></g>
<g><path style="opacity:1" fill="#040405" d="M 330.5,57.5 C 339.347,57.3466 346.847,60.3466 353,66.5C 355.108,73.5342 352.608,77.5342 345.5,78.5C 339.093,77.0456 333.259,74.379 328,70.5C 325.606,65.5272 326.44,61.1938 330.5,57.5 Z"/></g>
<g><path style="opacity:1" fill="#070809" d="M 177.5,62.5 C 179.961,65.6418 180.128,68.9752 178,72.5C 172.685,76.8243 166.685,79.8243 160,81.5C 157.489,81.1598 155.322,80.1598 153.5,78.5C 150.476,73.783 151.142,69.6163 155.5,66C 159.5,64 163.5,62 167.5,60C 171.463,58.8634 174.796,59.6967 177.5,62.5 Z"/></g>
<g><path style="opacity:1" fill="#040505" d="M 181.5,376.5 C 183.639,373.21 186.639,372.043 190.5,373C 211.95,383.393 233.616,393.226 255.5,402.5C 287.385,388.559 319.051,374.059 350.5,359C 351.451,358.282 351.617,357.449 351,356.5C 328.218,333.55 305.384,310.884 282.5,288.5C 280.833,278.833 284.833,274.833 294.5,276.5C 318.452,300.118 342.452,323.785 366.5,347.5C 373.882,339.75 380.049,331.084 385,321.5C 412.025,263.919 406.358,209.919 368,159.5C 366.296,157.627 364.463,155.96 362.5,154.5C 358.18,149.667 352.847,146.333 346.5,144.5C 318.855,133.013 291.188,121.513 263.5,110C 262.056,109.219 260.723,109.386 259.5,110.5C 229.091,180.592 199.591,250.926 171,321.5C 222.112,271.388 272.946,220.888 323.5,170C 324.094,169.536 324.761,169.369 325.5,169.5C 334.428,169.758 337.428,174.092 334.5,182.5C 312.833,204.5 291.167,226.5 269.5,248.5C 264.167,253.167 259.167,258.167 254.5,263.5C 221.031,296.302 188.031,329.302 155.5,362.5C 152.529,364.657 149.529,366.824 146.5,369C 144.029,369.706 141.695,369.373 139.5,368C 107.507,334.704 92.0071,294.871 93,248.5C 125.472,215.028 158.305,181.861 191.5,149C 195.682,146.862 199.682,147.029 203.5,149.5C 205.967,152.98 206.134,156.647 204,160.5C 172.667,191.833 141.333,223.167 110,254.5C 110.585,287.923 120.918,317.923 141,344.5C 171.379,274.407 201.213,204.073 230.5,133.5C 236.558,120.374 242.391,107.04 248,93.5C 250.955,89.7235 254.788,88.5568 259.5,90C 295.5,105 331.5,120 367.5,135C 411.437,178.496 426.937,230.663 414,291.5C 406.7,320.943 392.534,346.443 371.5,368C 333.5,385.667 295.5,403.333 257.5,421C 256.167,421.667 254.833,421.667 253.5,421C 230.585,410.14 207.585,399.473 184.5,389C 179.467,385.654 178.467,381.488 181.5,376.5 Z"/></g>
<g><path style="opacity:1" fill="#ecf5fd" d="M 346.5,144.5 C 346.649,145.552 346.483,146.552 346,147.5C 338.572,154.422 331.739,161.756 325.5,169.5C 324.761,169.369 324.094,169.536 323.5,170C 272.946,220.888 222.112,271.388 171,321.5C 199.591,250.926 229.091,180.592 259.5,110.5C 260.723,109.386 262.056,109.219 263.5,110C 291.188,121.513 318.855,133.013 346.5,144.5 Z"/></g>
<g><path style="opacity:1" fill="#050607" d="M 406.5,110.5 C 409.32,110.248 411.986,110.748 414.5,112C 419.217,116.53 422.884,121.696 425.5,127.5C 424.88,134.984 420.88,137.817 413.5,136C 409.631,132.466 406.131,128.633 403,124.5C 400.267,118.722 401.434,114.056 406.5,110.5 Z"/></g>
<g><path style="opacity:1" fill="#070707" d="M 105.5,120.5 C 105.663,122.857 105.497,125.19 105,127.5C 101.492,131.864 97.9917,136.197 94.5,140.5C 85.3901,142.217 81.2234,138.55 82,129.5C 85.4547,123.711 89.9547,118.878 95.5,115C 100.159,114.495 103.492,116.328 105.5,120.5 Z"/></g>
<g><path style="opacity:1" fill="#ecf5fd" d="M 230.5,133.5 C 201.213,204.073 171.379,274.407 141,344.5C 120.918,317.923 110.585,287.923 110,254.5C 141.333,223.167 172.667,191.833 204,160.5C 206.134,156.647 205.967,152.98 203.5,149.5C 210.545,141.287 218.378,133.954 227,127.5C 229.818,128.433 230.984,130.433 230.5,133.5 Z"/></g>
<g><path style="opacity:1" fill="#c9e1f7" d="M 346.5,144.5 C 352.847,146.333 358.18,149.667 362.5,154.5C 353.452,164.215 344.119,173.548 334.5,182.5C 337.428,174.092 334.428,169.758 325.5,169.5C 331.739,161.756 338.572,154.422 346,147.5C 346.483,146.552 346.649,145.552 346.5,144.5 Z"/></g>
<g><path style="opacity:1" fill="#edf6fe" d="M 362.5,154.5 C 364.463,155.96 366.296,157.627 368,159.5C 406.358,209.919 412.025,263.919 385,321.5C 380.049,331.084 373.882,339.75 366.5,347.5C 342.452,323.785 318.452,300.118 294.5,276.5C 287.145,268.311 279.311,260.644 271,253.5C 269.991,251.975 269.491,250.308 269.5,248.5C 291.167,226.5 312.833,204.5 334.5,182.5C 344.119,173.548 353.452,164.215 362.5,154.5 Z"/></g>
<g><path style="opacity:1" fill="#050506" d="M 450.5,191.5 C 457.313,190.812 461.48,193.812 463,200.5C 464.418,205.428 464.751,210.428 464,215.5C 457.333,221.5 452,220.5 448,212.5C 447.45,208.415 446.617,204.415 445.5,200.5C 445.377,196.405 447.044,193.405 450.5,191.5 Z"/></g>
<g><path style="opacity:1" fill="#0a0b0b" d="M 61.5,198.5 C 63.1598,200.322 64.1598,202.489 64.5,205C 63.079,210.104 61.9124,215.271 61,220.5C 59.1433,223.2 56.6433,224.866 53.5,225.5C 49.4384,225.276 46.605,223.276 45,219.5C 44.7484,214.413 45.415,209.413 47,204.5C 49.6968,197.063 54.5302,195.063 61.5,198.5 Z"/></g>
<g><path style="opacity:1" fill="#c9e1f7" d="M 269.5,248.5 C 269.491,250.308 269.991,251.975 271,253.5C 279.311,260.644 287.145,268.311 294.5,276.5C 284.833,274.833 280.833,278.833 282.5,288.5C 274.035,280.536 265.702,272.369 257.5,264C 256.552,263.517 255.552,263.351 254.5,263.5C 259.167,258.167 264.167,253.167 269.5,248.5 Z"/></g>
<g><path style="opacity:1" fill="#edf6fe" d="M 254.5,263.5 C 255.552,263.351 256.552,263.517 257.5,264C 265.702,272.369 274.035,280.536 282.5,288.5C 305.384,310.884 328.218,333.55 351,356.5C 351.617,357.449 351.451,358.282 350.5,359C 319.051,374.059 287.385,388.559 255.5,402.5C 233.616,393.226 211.95,383.393 190.5,373C 186.639,372.043 183.639,373.21 181.5,376.5C 173.229,374.204 165.229,371.038 157.5,367C 155.963,365.89 155.297,364.39 155.5,362.5C 188.031,329.302 221.031,296.302 254.5,263.5 Z"/></g>
<g><path style="opacity:1" fill="#040505" d="M 454.5,283.5 C 461.304,282.221 465.304,284.888 466.5,291.5C 466.025,296.993 464.859,302.326 463,307.5C 459.58,311.753 455.413,312.587 450.5,310C 448.408,308.147 447.408,305.814 447.5,303C 448.333,298.167 449.166,293.334 450,288.5C 451.366,286.638 452.866,284.972 454.5,283.5 Z"/></g>
<g><path style="opacity:1" fill="#060708" d="M 45.5,300.5 C 45.5,298.167 45.5,295.833 45.5,293.5C 51.5085,286.54 57.0085,286.873 62,294.5C 63.1497,298.78 63.9831,303.113 64.5,307.5C 64.6467,310.253 63.9801,312.753 62.5,315C 57.0141,318.902 52.5141,318.069 49,312.5C 48.1194,308.291 46.9527,304.291 45.5,300.5 Z"/></g>
<g><path style="opacity:1" fill="#08090a" d="M 419.5,367.5 C 427.523,367.683 431.023,371.683 430,379.5C 426.882,384.286 423.382,388.786 419.5,393C 410.544,395.385 406.378,391.885 407,382.5C 410.684,376.993 414.851,371.993 419.5,367.5 Z"/></g>
<g><path style="opacity:1" fill="#08090a" d="M 88.5,372.5 C 91.6492,372.211 94.6492,372.711 97.5,374C 100.667,377.833 103.833,381.667 107,385.5C 109.705,392.752 107.205,397.085 99.5,398.5C 97.701,398.423 96.0344,397.923 94.5,397C 91.3333,393.167 88.1667,389.333 85,385.5C 83.5783,382.97 83.245,380.303 84,377.5C 85.7073,375.963 87.2073,374.296 88.5,372.5 Z"/></g>
<g><path style="opacity:1" fill="#050506" d="M 349.5,428.5 C 358.928,428.404 362.428,432.737 360,441.5C 353.802,447.024 346.635,449.857 338.5,450C 334.673,446.692 333.506,442.526 335,437.5C 339.646,434.099 344.479,431.099 349.5,428.5 Z"/></g>
<g><path style="opacity:1" fill="#060707" d="M 159.5,431.5 C 166.787,431.637 173.453,433.804 179.5,438C 183.765,443.347 183.098,448.014 177.5,452C 174.833,452.667 172.167,452.667 169.5,452C 165.5,450 161.5,448 157.5,446C 153.128,440.408 153.794,435.575 159.5,431.5 Z"/></g>
<g><path style="opacity:1" fill="#060607" d="M 249.5,452.5 C 255.952,452.084 262.285,452.584 268.5,454C 272.753,457.42 273.587,461.587 271,466.5C 270.097,467.701 268.931,468.535 267.5,469C 261.167,469.667 254.833,469.667 248.5,469C 244.212,465.229 243.379,460.729 246,455.5C 247.518,454.837 248.685,453.837 249.5,452.5 Z"/></g>
</svg>
