<?xml version="1.0" encoding="UTF-8"?>
<!DOCTYPE svg PUBLIC "-//W3C//DTD SVG 1.1//EN" "http://www.w3.org/Graphics/SVG/1.1/DTD/svg11.dtd">
<svg xmlns="http://www.w3.org/2000/svg" version="1.1" width="512px" height="512px" style="shape-rendering:geometricPrecision; text-rendering:geometricPrecision; image-rendering:optimizeQuality; fill-rule:evenodd; clip-rule:evenodd" xmlns:xlink="http://www.w3.org/1999/xlink">
<g><path style="opacity:0.934" fill="#000000" d="M 233.5,-0.5 C 248.167,-0.5 262.833,-0.5 277.5,-0.5C 367.555,10.0943 435.388,54.4276 481,132.5C 497.855,164.278 508.022,197.945 511.5,233.5C 511.5,248.167 511.5,262.833 511.5,277.5C 500.906,367.555 456.572,435.388 378.5,481C 346.722,497.855 313.055,508.022 277.5,511.5C 262.833,511.5 248.167,511.5 233.5,511.5C 143.445,500.906 75.612,456.572 30,378.5C 13.1449,346.722 2.97822,313.055 -0.5,277.5C -0.5,262.833 -0.5,248.167 -0.5,233.5C 10.0943,143.445 54.4276,75.612 132.5,30C 164.278,13.1449 197.945,2.97822 233.5,-0.5 Z M 238.5,16.5 C 333.927,14.1239 407.76,52.4573 460,131.5C 498.372,198.224 504.706,267.891 479,340.5C 447.513,417.32 391.68,466.487 311.5,488C 210.277,507.488 127.443,477.322 63,397.5C 14.2533,327.203 3.91994,251.536 32,170.5C 71.0476,79.2927 139.881,27.9593 238.5,16.5 Z M 236.5,49.5 C 260.855,47.938 284.855,50.1047 308.5,56C 309.308,56.3076 309.975,56.8076 310.5,57.5C 308.536,61.7543 306.869,66.0876 305.5,70.5C 295.107,68.2402 284.607,66.5736 274,65.5C 269.869,64.9004 266.536,66.2337 264,69.5C 263.333,83.1667 263.333,96.8333 264,110.5C 264.374,111.416 264.874,112.25 265.5,113C 286.538,116.457 306.538,123.124 325.5,133C 332.672,137.419 339.672,142.085 346.5,147C 349.783,147.743 352.783,147.076 355.5,145C 363.333,137.167 371.167,129.333 379,121.5C 382.277,116.699 381.777,112.199 377.5,108C 369.434,101.549 360.934,95.7158 352,90.5C 352.926,85.5683 354.76,80.9016 357.5,76.5C 390.167,95.1667 415.833,120.833 434.5,153.5C 430.098,156.24 425.432,158.074 420.5,159C 415.284,150.066 409.451,141.566 403,133.5C 398.801,129.223 394.301,128.723 389.5,132C 381.667,139.833 373.833,147.667 366,155.5C 362.667,159.833 362.667,164.167 366,168.5C 382.859,189.9 392.859,214.234 396,241.5C 396.685,244.057 398.185,245.891 400.5,247C 414.167,247.667 427.833,247.667 441.5,247C 444.766,244.464 446.1,241.131 445.5,237C 444.644,227.029 442.977,217.195 440.5,207.5C 440.818,206.353 441.484,205.519 442.5,205C 446.207,203.598 449.874,202.098 453.5,200.5C 457.601,212.088 460.101,224.088 461,236.5C 463.21,261.252 461.043,285.586 454.5,309.5C 454.167,309.833 453.833,310.167 453.5,310.5C 449.246,308.536 444.912,306.869 440.5,305.5C 442.76,295.107 444.426,284.607 445.5,274C 446.1,269.869 444.766,266.536 441.5,264C 427.073,263.035 412.74,263.368 398.5,265C 395.779,270.463 394.279,276.296 394,282.5C 388.82,306.189 378.82,327.522 364,346.5C 363.257,349.783 363.924,352.783 366,355.5C 373.833,363.333 381.667,371.167 389.5,379C 394.301,382.277 398.801,381.777 403,377.5C 409.451,369.434 415.284,360.934 420.5,352C 425.432,352.926 430.098,354.76 434.5,357.5C 415.833,390.167 390.167,415.833 357.5,434.5C 354.76,430.098 352.926,425.432 352,420.5C 360.934,415.284 369.434,409.451 377.5,403C 381.777,398.801 382.277,394.301 379,389.5C 370.435,380.265 361.268,371.765 351.5,364C 348.217,363.257 345.217,363.924 342.5,366C 331.777,375.027 319.777,382.027 306.5,387C 292.995,391.459 279.328,395.125 265.5,398C 264.874,398.75 264.374,399.584 264,400.5C 263.333,414.167 263.333,427.833 264,441.5C 266.536,444.766 269.869,446.1 274,445.5C 284.607,444.426 295.107,442.76 305.5,440.5C 306.869,444.912 308.536,449.246 310.5,453.5C 292.739,459.513 274.405,462.18 255.5,461.5C 236.595,462.18 218.261,459.513 200.5,453.5C 202.464,449.246 204.131,444.912 205.5,440.5C 215.893,442.76 226.393,444.426 237,445.5C 241.131,446.1 244.464,444.766 247,441.5C 247.965,427.073 247.632,412.74 246,398.5C 240.537,395.779 234.704,394.279 228.5,394C 204.811,388.82 183.478,378.82 164.5,364C 161.217,363.257 158.217,363.924 155.5,366C 147.667,373.833 139.833,381.667 132,389.5C 128.723,394.301 129.223,398.801 133.5,403C 141.566,409.451 150.066,415.284 159,420.5C 158.074,425.432 156.24,430.098 153.5,434.5C 120.833,415.833 95.1667,390.167 76.5,357.5C 80.9016,354.76 85.5683,352.926 90.5,352C 95.7158,360.934 101.549,369.434 108,377.5C 112.199,381.777 116.699,382.277 121.5,379C 130.735,370.435 139.235,361.268 147,351.5C 147.743,348.217 147.076,345.217 145,342.5C 135.973,331.777 128.973,319.777 124,306.5C 119.541,292.995 115.875,279.328 113,265.5C 112.25,264.874 111.416,264.374 110.5,264C 96.8333,263.333 83.1667,263.333 69.5,264C 66.2337,266.536 64.9004,269.869 65.5,274C 66.5736,284.607 68.2402,295.107 70.5,305.5C 66.0876,306.869 61.7543,308.536 57.5,310.5C 51.4866,292.739 48.82,274.405 49.5,255.5C 48.82,236.595 51.4866,218.261 57.5,200.5C 61.7543,202.464 66.0876,204.131 70.5,205.5C 68.2402,215.893 66.5736,226.393 65.5,237C 64.9004,241.131 66.2337,244.464 69.5,247C 83.927,247.965 98.2604,247.632 112.5,246C 115.221,240.537 116.721,234.704 117,228.5C 122.18,204.811 132.18,183.478 147,164.5C 147.743,161.217 147.076,158.217 145,155.5C 137.167,147.667 129.333,139.833 121.5,132C 116.699,128.723 112.199,129.223 108,133.5C 101.549,141.566 95.7158,150.066 90.5,159C 85.5683,158.074 80.9016,156.24 76.5,153.5C 95.1667,120.833 120.833,95.1667 153.5,76.5C 156.24,80.9016 158.074,85.5683 159,90.5C 150.066,95.7158 141.566,101.549 133.5,108C 129.223,112.199 128.723,116.699 132,121.5C 140.565,130.735 149.732,139.235 159.5,147C 162.783,147.743 165.783,147.076 168.5,145C 179.223,135.973 191.223,128.973 204.5,124C 218.005,119.541 231.672,115.875 245.5,113C 246.126,112.25 246.626,111.416 247,110.5C 247.667,96.8333 247.667,83.1667 247,69.5C 244.464,66.2337 241.131,64.9004 237,65.5C 226.393,66.5736 215.893,68.2402 205.5,70.5C 204.131,66.0876 202.464,61.7543 200.5,57.5C 200.833,57.1667 201.167,56.8333 201.5,56.5C 213.145,53.3967 224.812,51.0633 236.5,49.5 Z M 257.5,165.5 C 258.833,165.5 260.167,165.5 261.5,165.5C 261.5,198.167 261.5,230.833 261.5,263.5C 257.5,263.5 253.5,263.5 249.5,263.5C 249.667,238.498 249.5,213.498 249,188.5C 248.167,186.333 246.667,184.833 244.5,184C 241.447,183.821 238.447,183.321 235.5,182.5C 245.103,179.707 252.436,174.04 257.5,165.5 Z"/></g>
<g><path style="opacity:0.935" fill="#000000" d="M 247.5,31.5 C 274.957,30.7987 301.623,34.9653 327.5,44C 329.764,45.7795 331.097,48.1128 331.5,51C 327.058,62.9941 322.224,74.8275 317,86.5C 315.137,88.949 312.637,89.949 309.5,89.5C 300.17,87.501 290.837,85.501 281.5,83.5C 280.505,88.7921 280.172,94.1254 280.5,99.5C 304.81,102.766 326.81,111.599 346.5,126C 347.5,126.667 348.5,126.667 349.5,126C 352.333,123.167 355.167,120.333 358,117.5C 358.667,116.833 358.667,116.167 358,115.5C 350.301,110.303 342.467,105.303 334.5,100.5C 332.36,98.86 331.36,96.6933 331.5,94C 335.576,80.9326 340.909,68.4326 347.5,56.5C 349.382,55.9067 351.215,55.2401 353,54.5C 399.5,77 434,111.5 456.5,158C 456.1,161.467 454.434,164.134 451.5,166C 440.138,170.934 428.638,175.434 417,179.5C 414.307,179.64 412.14,178.64 410.5,176.5C 405.697,168.533 400.697,160.699 395.5,153C 394.833,152.333 394.167,152.333 393.5,153C 390.667,155.833 387.833,158.667 385,161.5C 384.333,162.5 384.333,163.5 385,164.5C 399.401,184.19 408.234,206.19 411.5,230.5C 416.875,230.828 422.208,230.495 427.5,229.5C 425.499,220.163 423.499,210.83 421.5,201.5C 421.051,198.363 422.051,195.863 424.5,194C 436.173,188.776 448.006,183.942 460,179.5C 463.814,179.981 466.48,181.981 468,185.5C 483.574,232.967 483.24,280.3 467,327.5C 465.355,329.662 463.188,330.995 460.5,331.5C 446.969,327.273 434.135,321.606 422,314.5C 421.333,311.167 421.333,307.833 422,304.5C 424.281,296.928 426.114,289.262 427.5,281.5C 422.208,280.505 416.875,280.172 411.5,280.5C 408.234,304.81 399.401,326.81 385,346.5C 384.333,347.5 384.333,348.5 385,349.5C 387.833,352.333 390.667,355.167 393.5,358C 394.167,358.667 394.833,358.667 395.5,358C 400.697,350.301 405.697,342.467 410.5,334.5C 412.14,332.36 414.307,331.36 417,331.5C 430.067,335.576 442.567,340.909 454.5,347.5C 455.093,349.382 455.76,351.215 456.5,353C 434,399.5 399.5,434 353,456.5C 349.533,456.1 346.866,454.434 345,451.5C 340.066,440.138 335.566,428.638 331.5,417C 331.36,414.307 332.36,412.14 334.5,410.5C 342.467,405.697 350.301,400.697 358,395.5C 358.667,394.833 358.667,394.167 358,393.5C 355.167,390.667 352.333,387.833 349.5,385C 348.5,384.333 347.5,384.333 346.5,385C 326.81,399.401 304.81,408.234 280.5,411.5C 280.172,416.875 280.505,422.208 281.5,427.5C 290.837,425.499 300.17,423.499 309.5,421.5C 312.637,421.051 315.137,422.051 317,424.5C 322.224,436.173 327.058,448.006 331.5,460C 331.019,463.814 329.019,466.48 325.5,468C 278.833,483.333 232.167,483.333 185.5,468C 181.981,466.48 179.981,463.814 179.5,460C 183.942,448.006 188.776,436.173 194,424.5C 195.863,422.051 198.363,421.051 201.5,421.5C 210.83,423.499 220.163,425.499 229.5,427.5C 230.495,422.208 230.828,416.875 230.5,411.5C 206.19,408.234 184.19,399.401 164.5,385C 163.5,384.333 162.5,384.333 161.5,385C 158.667,387.833 155.833,390.667 153,393.5C 152.333,394.167 152.333,394.833 153,395.5C 160.699,400.697 168.533,405.697 176.5,410.5C 178.64,412.14 179.64,414.307 179.5,417C 175.424,430.067 170.091,442.567 163.5,454.5C 161.618,455.093 159.785,455.76 158,456.5C 111.5,434 77,399.5 54.5,353C 54.8996,349.533 56.5663,346.866 59.5,345C 70.8618,340.066 82.3618,335.566 94,331.5C 96.6933,331.36 98.86,332.36 100.5,334.5C 105.303,342.467 110.303,350.301 115.5,358C 116.167,358.667 116.833,358.667 117.5,358C 120.333,355.167 123.167,352.333 126,349.5C 126.667,348.5 126.667,347.5 126,346.5C 111.599,326.81 102.766,304.81 99.5,280.5C 94.1254,280.172 88.7921,280.505 83.5,281.5C 85.501,290.837 87.501,300.17 89.5,309.5C 89.949,312.637 88.949,315.137 86.5,317C 74.8275,322.224 62.9941,327.058 51,331.5C 47.1864,331.019 44.5197,329.019 43,325.5C 27.6667,278.833 27.6667,232.167 43,185.5C 44.5197,181.981 47.1864,179.981 51,179.5C 62.9941,183.942 74.8275,188.776 86.5,194C 88.949,195.863 89.949,198.363 89.5,201.5C 87.501,210.83 85.501,220.163 83.5,229.5C 88.7921,230.495 94.1254,230.828 99.5,230.5C 102.766,206.19 111.599,184.19 126,164.5C 126.667,163.5 126.667,162.5 126,161.5C 123.167,158.667 120.333,155.833 117.5,153C 116.833,152.333 116.167,152.333 115.5,153C 110.303,160.699 105.303,168.533 100.5,176.5C 98.86,178.64 96.6933,179.64 94,179.5C 80.9326,175.424 68.4326,170.091 56.5,163.5C 55.9067,161.618 55.2401,159.785 54.5,158C 77,111.5 111.5,77 158,54.5C 161.467,54.8996 164.134,56.5663 166,59.5C 170.934,70.8618 175.434,82.3618 179.5,94C 179.64,96.6933 178.64,98.86 176.5,100.5C 168.533,105.303 160.699,110.303 153,115.5C 152.333,116.167 152.333,116.833 153,117.5C 155.833,120.333 158.667,123.167 161.5,126C 162.5,126.667 163.5,126.667 164.5,126C 184.19,111.599 206.19,102.766 230.5,99.5C 230.828,94.1254 230.495,88.7921 229.5,83.5C 221.738,84.8861 214.072,86.7195 206.5,89C 203.167,89.6667 199.833,89.6667 196.5,89C 194.044,86.5925 192.211,83.7591 191,80.5C 187.028,70.7224 183.195,60.8891 179.5,51C 181.055,44.8708 185.055,41.5375 191.5,41C 209.964,35.7565 228.63,32.5898 247.5,31.5 Z M 236.5,49.5 C 224.812,51.0633 213.145,53.3967 201.5,56.5C 201.167,56.8333 200.833,57.1667 200.5,57.5C 202.464,61.7543 204.131,66.0876 205.5,70.5C 215.893,68.2402 226.393,66.5736 237,65.5C 241.131,64.9004 244.464,66.2337 247,69.5C 247.667,83.1667 247.667,96.8333 247,110.5C 246.626,111.416 246.126,112.25 245.5,113C 231.672,115.875 218.005,119.541 204.5,124C 191.223,128.973 179.223,135.973 168.5,145C 165.783,147.076 162.783,147.743 159.5,147C 149.732,139.235 140.565,130.735 132,121.5C 128.723,116.699 129.223,112.199 133.5,108C 141.566,101.549 150.066,95.7158 159,90.5C 158.074,85.5683 156.24,80.9016 153.5,76.5C 120.833,95.1667 95.1667,120.833 76.5,153.5C 80.9016,156.24 85.5683,158.074 90.5,159C 95.7158,150.066 101.549,141.566 108,133.5C 112.199,129.223 116.699,128.723 121.5,132C 129.333,139.833 137.167,147.667 145,155.5C 147.076,158.217 147.743,161.217 147,164.5C 132.18,183.478 122.18,204.811 117,228.5C 116.721,234.704 115.221,240.537 112.5,246C 98.2604,247.632 83.927,247.965 69.5,247C 66.2337,244.464 64.9004,241.131 65.5,237C 66.5736,226.393 68.2402,215.893 70.5,205.5C 66.0876,204.131 61.7543,202.464 57.5,200.5C 51.4866,218.261 48.82,236.595 49.5,255.5C 48.82,274.405 51.4866,292.739 57.5,310.5C 61.7543,308.536 66.0876,306.869 70.5,305.5C 68.2402,295.107 66.5736,284.607 65.5,274C 64.9004,269.869 66.2337,266.536 69.5,264C 83.1667,263.333 96.8333,263.333 110.5,264C 111.416,264.374 112.25,264.874 113,265.5C 115.875,279.328 119.541,292.995 124,306.5C 128.973,319.777 135.973,331.777 145,342.5C 147.076,345.217 147.743,348.217 147,351.5C 139.235,361.268 130.735,370.435 121.5,379C 116.699,382.277 112.199,381.777 108,377.5C 101.549,369.434 95.7158,360.934 90.5,352C 85.5683,352.926 80.9016,354.76 76.5,357.5C 95.1667,390.167 120.833,415.833 153.5,434.5C 156.24,430.098 158.074,425.432 159,420.5C 150.066,415.284 141.566,409.451 133.5,403C 129.223,398.801 128.723,394.301 132,389.5C 139.833,381.667 147.667,373.833 155.5,366C 158.217,363.924 161.217,363.257 164.5,364C 183.478,378.82 204.811,388.82 228.5,394C 234.704,394.279 240.537,395.779 246,398.5C 247.632,412.74 247.965,427.073 247,441.5C 244.464,444.766 241.131,446.1 237,445.5C 226.393,444.426 215.893,442.76 205.5,440.5C 204.131,444.912 202.464,449.246 200.5,453.5C 218.261,459.513 236.595,462.18 255.5,461.5C 274.405,462.18 292.739,459.513 310.5,453.5C 308.536,449.246 306.869,444.912 305.5,440.5C 295.107,442.76 284.607,444.426 274,445.5C 269.869,446.1 266.536,444.766 264,441.5C 263.333,427.833 263.333,414.167 264,400.5C 264.374,399.584 264.874,398.75 265.5,398C 279.328,395.125 292.995,391.459 306.5,387C 319.777,382.027 331.777,375.027 342.5,366C 345.217,363.924 348.217,363.257 351.5,364C 361.268,371.765 370.435,380.265 379,389.5C 382.277,394.301 381.777,398.801 377.5,403C 369.434,409.451 360.934,415.284 352,420.5C 352.926,425.432 354.76,430.098 357.5,434.5C 390.167,415.833 415.833,390.167 434.5,357.5C 430.098,354.76 425.432,352.926 420.5,352C 415.284,360.934 409.451,369.434 403,377.5C 398.801,381.777 394.301,382.277 389.5,379C 381.667,371.167 373.833,363.333 366,355.5C 363.924,352.783 363.257,349.783 364,346.5C 378.82,327.522 388.82,306.189 394,282.5C 394.279,276.296 395.779,270.463 398.5,265C 412.74,263.368 427.073,263.035 441.5,264C 444.766,266.536 446.1,269.869 445.5,274C 444.426,284.607 442.76,295.107 440.5,305.5C 444.912,306.869 449.246,308.536 453.5,310.5C 453.833,310.167 454.167,309.833 454.5,309.5C 461.043,285.586 463.21,261.252 461,236.5C 460.101,224.088 457.601,212.088 453.5,200.5C 449.874,202.098 446.207,203.598 442.5,205C 441.484,205.519 440.818,206.353 440.5,207.5C 442.977,217.195 444.644,227.029 445.5,237C 446.1,241.131 444.766,244.464 441.5,247C 427.833,247.667 414.167,247.667 400.5,247C 398.185,245.891 396.685,244.057 396,241.5C 392.859,214.234 382.859,189.9 366,168.5C 362.667,164.167 362.667,159.833 366,155.5C 373.833,147.667 381.667,139.833 389.5,132C 394.301,128.723 398.801,129.223 403,133.5C 409.451,141.566 415.284,150.066 420.5,159C 425.432,158.074 430.098,156.24 434.5,153.5C 415.833,120.833 390.167,95.1667 357.5,76.5C 354.76,80.9016 352.926,85.5683 352,90.5C 360.934,95.7158 369.434,101.549 377.5,108C 381.777,112.199 382.277,116.699 379,121.5C 371.167,129.333 363.333,137.167 355.5,145C 352.783,147.076 349.783,147.743 346.5,147C 339.672,142.085 332.672,137.419 325.5,133C 306.538,123.124 286.538,116.457 265.5,113C 264.874,112.25 264.374,111.416 264,110.5C 263.333,96.8333 263.333,83.1667 264,69.5C 266.536,66.2337 269.869,64.9004 274,65.5C 284.607,66.5736 295.107,68.2402 305.5,70.5C 306.869,66.0876 308.536,61.7543 310.5,57.5C 309.975,56.8076 309.308,56.3076 308.5,56C 284.855,50.1047 260.855,47.938 236.5,49.5 Z M 257.5,165.5 C 252.436,174.04 245.103,179.707 235.5,182.5C 238.447,183.321 241.447,183.821 244.5,184C 246.667,184.833 248.167,186.333 249,188.5C 249.5,213.498 249.667,238.498 249.5,263.5C 253.5,263.5 257.5,263.5 261.5,263.5C 261.5,230.833 261.5,198.167 261.5,165.5C 260.167,165.5 258.833,165.5 257.5,165.5 Z"/></g>
<g><path style="opacity:0.954" fill="#000000" d="M 248.5,148.5 C 256.507,148.334 264.507,148.5 272.5,149C 275.333,149.833 277.167,151.667 278,154.5C 278.5,190.832 278.667,227.165 278.5,263.5C 286.293,261.723 291.293,264.556 293.5,272C 293.089,275.496 291.422,278.163 288.5,280C 266.5,280.667 244.5,280.667 222.5,280C 215.649,274.219 215.982,268.886 223.5,264C 226.482,263.502 229.482,263.335 232.5,263.5C 232.5,242.5 232.5,221.5 232.5,200.5C 229.15,200.665 225.817,200.498 222.5,200C 219.892,198.622 218.392,196.455 218,193.5C 217.333,186.5 217.333,179.5 218,172.5C 218.346,170.152 219.513,168.319 221.5,167C 227.183,166.389 232.516,164.722 237.5,162C 241.305,157.522 244.972,153.022 248.5,148.5 Z M 257.5,165.5 C 252.436,174.04 245.103,179.707 235.5,182.5C 238.447,183.321 241.447,183.821 244.5,184C 246.667,184.833 248.167,186.333 249,188.5C 249.5,213.498 249.667,238.498 249.5,263.5C 253.5,263.5 257.5,263.5 261.5,263.5C 261.5,230.833 261.5,198.167 261.5,165.5C 260.167,165.5 258.833,165.5 257.5,165.5 Z"/></g>
<g><path style="opacity:0.932" fill="#000000" d="M 216.5,295.5 C 231.93,295.032 247.263,295.532 262.5,297C 267.417,303.932 266.083,309.265 258.5,313C 261.04,315.205 263.207,317.705 265,320.5C 266.5,329.667 262.667,333.5 253.5,332C 248.17,327.503 243.17,322.669 238.5,317.5C 234.376,322.125 230.043,326.625 225.5,331C 215.426,334.553 210.926,331.053 212,320.5C 213.793,317.705 215.96,315.205 218.5,313C 212.828,310.66 210.661,306.493 212,300.5C 213.366,298.638 214.866,296.972 216.5,295.5 Z"/></g>
<g><path style="opacity:0.908" fill="#000000" d="M 282.5,295.5 C 287.126,294.7 290.96,296.034 294,299.5C 296,309.167 296,318.833 294,328.5C 289.491,333.417 284.658,333.751 279.5,329.5C 278.423,327.271 277.756,324.937 277.5,322.5C 266.105,321.909 263.438,316.742 269.5,307C 272.014,305.748 274.68,305.248 277.5,305.5C 277.659,301.326 279.325,297.992 282.5,295.5 Z"/></g>
<g><path style="opacity:0.944" fill="#000000" d="M 218.5,339.5 C 222.846,339.555 226.179,341.388 228.5,345C 250.5,345.333 272.5,345.667 294.5,346C 299.069,348.541 300.569,352.375 299,357.5C 297.773,359.726 295.939,361.226 293.5,362C 268.167,362.667 242.833,362.667 217.5,362C 212.762,360.089 210.762,356.589 211.5,351.5C 210.795,345.56 213.128,341.56 218.5,339.5 Z"/></g>
</svg>
