<?xml version="1.0" encoding="UTF-8"?>
<!DOCTYPE svg PUBLIC "-//W3C//DTD SVG 1.1//EN" "http://www.w3.org/Graphics/SVG/1.1/DTD/svg11.dtd">
<svg xmlns="http://www.w3.org/2000/svg" version="1.1" width="512px" height="512px" style="shape-rendering:geometricPrecision; text-rendering:geometricPrecision; image-rendering:optimizeQuality; fill-rule:evenodd; clip-rule:evenodd" xmlns:xlink="http://www.w3.org/1999/xlink">
<g><path style="opacity:0.964" fill="#000000" d="M 232.5,-0.5 C 247.833,-0.5 263.167,-0.5 278.5,-0.5C 378.271,12.4486 449.438,64.4486 492,155.5C 502.136,180.379 508.636,206.046 511.5,232.5C 511.5,247.833 511.5,263.167 511.5,278.5C 498.551,378.271 446.551,449.438 355.5,492C 330.622,502.136 304.955,508.636 278.5,511.5C 263.167,511.5 247.833,511.5 232.5,511.5C 132.727,498.549 61.5605,446.549 19,355.5C 8.86392,330.621 2.36392,304.954 -0.5,278.5C -0.5,263.167 -0.5,247.833 -0.5,232.5C 12.4486,132.729 64.4486,61.5622 155.5,19C 180.379,8.86392 206.046,2.36392 232.5,-0.5 Z M 254.5,31.5 C 350.587,35.9305 419.421,81.2639 461,167.5C 489.399,239.682 483.732,309.015 444,375.5C 398.985,441.771 336.151,476.438 255.5,479.5C 174.849,476.438 112.015,441.771 67,375.5C 29.0863,312.848 22.0863,246.848 46,177.5C 69.4204,118.746 109.92,76.2458 167.5,50C 195.479,38.3725 224.479,32.2058 254.5,31.5 Z M 188.5,249.5 C 197.657,248.342 206.991,248.176 216.5,249C 214.833,253.333 213.167,257.667 211.5,262C 205.141,262.831 198.807,262.664 192.5,261.5C 191.332,257.329 189.998,253.329 188.5,249.5 Z M 251.5,248.5 C 254.247,248.187 256.914,248.52 259.5,249.5C 260.878,253.803 262.544,257.97 264.5,262C 258.5,262.667 252.5,262.667 246.5,262C 248.66,257.686 250.327,253.186 251.5,248.5 Z M 294.5,249.5 C 303.657,248.342 312.991,248.176 322.5,249C 321.073,253.114 319.74,257.281 318.5,261.5C 312.193,262.664 305.859,262.831 299.5,262C 297.909,257.711 296.242,253.544 294.5,249.5 Z"/></g>
<g><path style="opacity:0.973" fill="#000000" d="M 141.5,148.5 C 149.187,146.996 155.687,148.996 161,154.5C 167.397,174.359 173.397,194.359 179,214.5C 195.436,215.824 211.936,215.824 228.5,214.5C 232.765,202.871 236.932,191.205 241,179.5C 250.667,168.833 260.333,168.833 270,179.5C 274.167,191.167 278.333,202.833 282.5,214.5C 298.823,215.666 315.156,215.833 331.5,215C 337.463,194.779 343.629,174.612 350,154.5C 355.319,148.833 361.819,146.999 369.5,149C 376.225,151.937 379.892,157.103 380.5,164.5C 376.144,181.256 371.478,197.923 366.5,214.5C 373.811,215.331 381.144,215.831 388.5,216C 400.416,222.79 402.583,231.957 395,243.5C 393.167,244.667 391.333,245.833 389.5,247C 378.564,248.406 367.564,248.906 356.5,248.5C 355.497,253.173 354.497,257.839 353.5,262.5C 364.172,262.333 374.839,262.5 385.5,263C 397.379,266.587 401.546,274.42 398,286.5C 395.778,290.388 392.612,293.221 388.5,295C 373.489,295.167 358.489,295.667 343.5,296.5C 337.833,316.668 331.666,336.668 325,356.5C 318.055,363.069 310.222,364.236 301.5,360C 299.641,358.442 298.141,356.609 297,354.5C 289.86,334.911 283.026,315.244 276.5,295.5C 262.5,295.5 248.5,295.5 234.5,295.5C 227.974,315.244 221.14,334.911 214,354.5C 209.037,361.714 202.203,364.214 193.5,362C 189,360.167 185.833,357 184,352.5C 178.499,333.828 172.999,315.161 167.5,296.5C 152.511,295.667 137.511,295.167 122.5,295C 113.576,290.985 110.076,284.152 112,274.5C 114.052,267.781 118.552,263.948 125.5,263C 136.161,262.5 146.828,262.333 157.5,262.5C 156.503,257.839 155.503,253.173 154.5,248.5C 143.436,248.906 132.436,248.406 121.5,247C 112.574,241.898 109.741,234.398 113,224.5C 115.222,220.612 118.388,217.779 122.5,216C 129.856,215.831 137.189,215.331 144.5,214.5C 139.522,197.923 134.856,181.256 130.5,164.5C 131.228,157.015 134.895,151.682 141.5,148.5 Z M 188.5,249.5 C 189.998,253.329 191.332,257.329 192.5,261.5C 198.807,262.664 205.141,262.831 211.5,262C 213.167,257.667 214.833,253.333 216.5,249C 206.991,248.176 197.657,248.342 188.5,249.5 Z M 251.5,248.5 C 250.327,253.186 248.66,257.686 246.5,262C 252.5,262.667 258.5,262.667 264.5,262C 262.544,257.97 260.878,253.803 259.5,249.5C 256.914,248.52 254.247,248.187 251.5,248.5 Z M 294.5,249.5 C 296.242,253.544 297.909,257.711 299.5,262C 305.859,262.831 312.193,262.664 318.5,261.5C 319.74,257.281 321.073,253.114 322.5,249C 312.991,248.176 303.657,248.342 294.5,249.5 Z"/></g>
</svg>
