<?xml version="1.0" encoding="UTF-8"?>
<!DOCTYPE svg PUBLIC "-//W3C//DTD SVG 1.1//EN" "http://www.w3.org/Graphics/SVG/1.1/DTD/svg11.dtd">
<svg xmlns="http://www.w3.org/2000/svg" version="1.1" width="512px" height="512px" style="shape-rendering:geometricPrecision; text-rendering:geometricPrecision; image-rendering:optimizeQuality; fill-rule:evenodd; clip-rule:evenodd" xmlns:xlink="http://www.w3.org/1999/xlink">
<g><path style="opacity:1" fill="#e7c22f" d="M 232.5,-0.5 C 247.833,-0.5 263.167,-0.5 278.5,-0.5C 368.145,10.3883 435.645,54.7216 481,132.5C 497.695,163.97 507.861,197.303 511.5,232.5C 511.5,247.833 511.5,263.167 511.5,278.5C 501.902,358.894 464.235,422.394 398.5,469C 361.869,492.821 321.869,506.987 278.5,511.5C 263.5,511.5 248.5,511.5 233.5,511.5C 146.573,501.473 80.0727,459.473 34,385.5C 14.9427,352.165 3.44269,316.498 -0.5,278.5C -0.5,263.167 -0.5,247.833 -0.5,232.5C 9.835,145.947 51.835,79.7805 125.5,34C 158.833,14.9435 194.5,3.44351 232.5,-0.5 Z"/></g>
<g><path style="opacity:1" fill="#fcd734" d="M 242.5,10.5 C 242.5,25.1667 242.5,39.8333 242.5,54.5C 251.167,54.5 259.833,54.5 268.5,54.5C 268.5,39.8333 268.5,25.1667 268.5,10.5C 281.457,10.8762 294.124,12.5428 306.5,15.5C 302.665,29.4757 299.165,43.4757 296,57.5C 303.926,60.3565 312.093,62.3565 320.5,63.5C 323.705,49.6759 327.372,36.0093 331.5,22.5C 343.857,25.615 355.524,30.2817 366.5,36.5C 359.777,48.9411 352.777,61.2744 345.5,73.5C 352.065,78.705 359.232,83.0383 367,86.5C 375.002,74.5008 382.502,62.1674 389.5,49.5C 400.39,56.3905 410.39,64.3905 419.5,73.5C 408.993,83.1735 398.993,93.3402 389.5,104C 394.455,109.957 399.788,115.623 405.5,121C 406.5,121.667 407.5,121.667 408.5,121C 418.368,110.964 428.368,101.131 438.5,91.5C 446.933,100.93 454.6,110.93 461.5,121.5C 448.696,128.737 436.029,136.237 423.5,144C 427.711,150.253 431.545,156.753 435,163.5C 435.689,164.357 436.522,165.023 437.5,165.5C 449.726,158.223 462.059,151.223 474.5,144.5C 480.326,155.819 485.326,167.485 489.5,179.5C 476.099,182.684 462.766,186.184 449.5,190C 448.484,190.519 447.818,191.353 447.5,192.5C 449.643,199.738 451.476,207.071 453,214.5C 453.561,215.022 454.228,215.355 455,215.5C 467.708,211.615 480.542,208.281 493.5,205.5C 494.496,205.414 495.329,205.748 496,206.5C 498.929,218.317 500.429,230.317 500.5,242.5C 485.99,242.171 471.657,242.504 457.5,243.5C 457.5,251.5 457.5,259.5 457.5,267.5C 471.657,268.496 485.99,268.829 500.5,268.5C 500.279,280.655 498.779,292.655 496,304.5C 495.329,305.252 494.496,305.586 493.5,305.5C 480.107,302.318 466.773,299.151 453.5,296C 451.104,303.194 449.104,310.527 447.5,318C 447.755,319.326 448.422,320.326 449.5,321C 462.459,324.656 475.459,328.156 488.5,331.5C 485.183,343.787 480.516,355.454 474.5,366.5C 461.958,359.644 449.458,352.644 437,345.5C 432.208,352.245 428.041,359.411 424.5,367C 436.499,375.002 448.833,382.502 461.5,389.5C 454.6,400.07 446.933,410.07 438.5,419.5C 428.368,409.869 418.368,400.036 408.5,390C 407.5,389.333 406.5,389.333 405.5,390C 399.788,395.377 394.455,401.043 389.5,407C 399.326,417.66 409.326,428.16 419.5,438.5C 410.115,446.716 400.282,454.382 390,461.5C 389.617,460.944 389.117,460.611 388.5,460.5C 382.088,448.003 374.921,436.003 367,424.5C 359.232,427.962 352.065,432.295 345.5,437.5C 352.777,449.726 359.777,462.059 366.5,474.5C 355.477,480.84 343.811,485.84 331.5,489.5C 328.313,476.083 324.813,462.75 321,449.5C 320.481,448.484 319.647,447.818 318.5,447.5C 311.078,449.048 303.745,450.881 296.5,453C 296.043,453.414 295.709,453.914 295.5,454.5C 299.325,468.136 302.992,481.802 306.5,495.5C 294.197,498.952 281.531,500.619 268.5,500.5C 268.5,486.167 268.5,471.833 268.5,457.5C 259.833,457.5 251.167,457.5 242.5,457.5C 242.5,471.833 242.5,486.167 242.5,500.5C 229.388,501.112 216.722,499.445 204.5,495.5C 208.004,481.819 211.671,468.152 215.5,454.5C 208.158,451.612 200.492,449.279 192.5,447.5C 191.353,447.818 190.519,448.484 190,449.5C 186.786,462.922 183.286,476.255 179.5,489.5C 167.185,485.838 155.518,480.838 144.5,474.5C 151.057,462.392 157.89,450.392 165,438.5C 165.749,437.365 165.583,436.365 164.5,435.5C 157.42,431.878 150.587,427.878 144,423.5C 136.317,435.533 129.15,447.867 122.5,460.5C 121.883,460.611 121.383,460.944 121,461.5C 109.978,454.768 100.144,446.768 91.5,437.5C 101.465,428.036 111.298,418.369 121,408.5C 121.667,407.5 121.667,406.5 121,405.5C 115.623,399.788 109.957,394.455 104,389.5C 93.3402,398.993 83.1735,408.993 73.5,419.5C 64.0995,410.744 56.0995,400.744 49.5,389.5C 62.304,382.263 74.9706,374.763 87.5,367C 83.1251,359.749 78.6251,352.582 74,345.5C 61.5263,352.651 49.0263,359.651 36.5,366.5C 30.5438,355.315 25.5438,343.649 21.5,331.5C 35.3864,327.528 49.3864,323.861 63.5,320.5C 62.3565,312.093 60.3565,303.926 57.5,296C 43.4617,299.176 29.4617,302.676 15.5,306.5C 12.2395,294.18 10.5728,281.514 10.5,268.5C 25.0097,268.829 39.3431,268.496 53.5,267.5C 53.5,259.5 53.5,251.5 53.5,243.5C 39.3431,242.504 25.0097,242.171 10.5,242.5C 10.5325,232.438 11.3658,222.438 13,212.5C 13.2794,209.543 14.1127,206.877 15.5,204.5C 29.5116,208.176 43.5116,211.842 57.5,215.5C 59.6621,207.186 61.6621,198.852 63.5,190.5C 49.4025,187.142 35.4025,183.476 21.5,179.5C 25.545,167.346 30.545,155.68 36.5,144.5C 49.0423,151.356 61.5423,158.356 74,165.5C 78.6138,158.447 83.1138,151.28 87.5,144C 74.9706,136.237 62.304,128.737 49.5,121.5C 56.3905,110.61 64.3905,100.61 73.5,91.5C 83.1735,102.007 93.3402,112.007 104,121.5C 109.957,116.545 115.623,111.212 121,105.5C 121.667,104.5 121.667,103.5 121,102.5C 110.964,92.6317 101.131,82.6317 91.5,72.5C 100.93,64.0671 110.93,56.4004 121.5,49.5C 128.737,62.304 136.237,74.9706 144,87.5C 150.253,83.2886 156.753,79.4553 163.5,76C 164.357,75.3109 165.023,74.4776 165.5,73.5C 158.223,61.2744 151.223,48.9411 144.5,36.5C 155.518,30.1621 167.185,25.1621 179.5,21.5C 183.475,35.3983 187.141,49.3983 190.5,63.5C 198.903,62.3209 207.069,60.3209 215,57.5C 211.824,43.4617 208.324,29.4617 204.5,15.5C 211.862,13.1704 219.528,11.6704 227.5,11C 232.489,10.5007 237.489,10.3341 242.5,10.5 Z"/></g>
<g><path style="opacity:1" fill="#f68d1b" d="M 268.5,10.5 C 268.5,25.1667 268.5,39.8333 268.5,54.5C 259.833,54.5 251.167,54.5 242.5,54.5C 242.5,39.8333 242.5,25.1667 242.5,10.5C 251.167,9.16667 259.833,9.16667 268.5,10.5 Z"/></g>
<g><path style="opacity:1" fill="#f47f16" d="M 243.5,10.5 C 251.5,10.5 259.5,10.5 267.5,10.5C 267.5,24.8333 267.5,39.1667 267.5,53.5C 259.5,53.5 251.5,53.5 243.5,53.5C 243.5,39.1667 243.5,24.8333 243.5,10.5 Z"/></g>
<g><path style="opacity:1" fill="#f58017" d="M 204.5,15.5 C 208.324,29.4617 211.824,43.4617 215,57.5C 207.069,60.3209 198.903,62.3209 190.5,63.5C 187.141,49.3983 183.475,35.3983 179.5,21.5C 187.553,18.4037 195.886,16.4037 204.5,15.5 Z"/></g>
<g><path style="opacity:1" fill="#f58017" d="M 306.5,15.5 C 315.248,16.7671 323.581,19.1004 331.5,22.5C 327.372,36.0093 323.705,49.6759 320.5,63.5C 312.093,62.3565 303.926,60.3565 296,57.5C 299.165,43.4757 302.665,29.4757 306.5,15.5 Z"/></g>
<g><path style="opacity:1" fill="#f58017" d="M 144.5,36.5 C 151.223,48.9411 158.223,61.2744 165.5,73.5C 165.023,74.4776 164.357,75.3109 163.5,76C 156.753,79.4553 150.253,83.2886 144,87.5C 136.237,74.9706 128.737,62.304 121.5,49.5C 128.672,44.4106 136.339,40.0773 144.5,36.5 Z"/></g>
<g><path style="opacity:1" fill="#f58017" d="M 366.5,36.5 C 374.661,40.0773 382.328,44.4106 389.5,49.5C 382.502,62.1674 375.002,74.5008 367,86.5C 359.232,83.0383 352.065,78.705 345.5,73.5C 352.777,61.2744 359.777,48.9411 366.5,36.5 Z"/></g>
<g><path style="opacity:1" fill="#f58117" d="M 91.5,72.5 C 101.131,82.6317 110.964,92.6317 121,102.5C 121.667,103.5 121.667,104.5 121,105.5C 115.623,111.212 109.957,116.545 104,121.5C 93.3402,112.007 83.1735,102.007 73.5,91.5C 78.7751,84.5561 84.7751,78.2228 91.5,72.5 Z"/></g>
<g><path style="opacity:1" fill="#f58117" d="M 419.5,73.5 C 426.444,78.7751 432.777,84.7751 438.5,91.5C 428.368,101.131 418.368,110.964 408.5,121C 407.5,121.667 406.5,121.667 405.5,121C 399.788,115.623 394.455,109.957 389.5,104C 398.993,93.3402 408.993,83.1735 419.5,73.5 Z"/></g>
<g><path style="opacity:1" fill="#f58017" d="M 49.5,121.5 C 62.304,128.737 74.9706,136.237 87.5,144C 83.1138,151.28 78.6138,158.447 74,165.5C 61.5423,158.356 49.0423,151.356 36.5,144.5C 40.0773,136.339 44.4106,128.672 49.5,121.5 Z"/></g>
<g><path style="opacity:1" fill="#f58017" d="M 461.5,121.5 C 466.589,128.672 470.923,136.339 474.5,144.5C 462.059,151.223 449.726,158.223 437.5,165.5C 436.522,165.023 435.689,164.357 435,163.5C 431.545,156.753 427.711,150.253 423.5,144C 436.029,136.237 448.696,128.737 461.5,121.5 Z"/></g>
<g><path style="opacity:1" fill="#f57f17" d="M 293.5,127.5 C 316.478,144.311 336.311,164.311 353,187.5C 359.33,197.161 364.33,207.494 368,218.5C 372.123,247.736 359.956,266.57 331.5,275C 315.143,279.442 298.477,281.275 281.5,280.5C 281.5,267.833 281.5,255.167 281.5,242.5C 297.274,243.115 312.607,240.948 327.5,236C 329.91,234.438 331.244,232.271 331.5,229.5C 330.511,224.518 328.677,219.852 326,215.5C 310.825,193.654 292.825,174.321 272,157.5C 271.333,156.5 271.333,155.5 272,154.5C 279.656,145.834 286.823,136.834 293.5,127.5 Z"/></g>
<g><path style="opacity:1" fill="#f58017" d="M 21.5,179.5 C 35.4025,183.476 49.4025,187.142 63.5,190.5C 61.6621,198.852 59.6621,207.186 57.5,215.5C 43.5116,211.842 29.5116,208.176 15.5,204.5C 16.9913,196.043 18.9913,187.71 21.5,179.5 Z"/></g>
<g><path style="opacity:1" fill="#f58017" d="M 489.5,179.5 C 491.748,187.06 493.748,194.726 495.5,202.5C 495.058,203.739 494.391,204.739 493.5,205.5C 480.542,208.281 467.708,211.615 455,215.5C 454.228,215.355 453.561,215.022 453,214.5C 451.476,207.071 449.643,199.738 447.5,192.5C 447.818,191.353 448.484,190.519 449.5,190C 462.766,186.184 476.099,182.684 489.5,179.5 Z"/></g>
<g><path style="opacity:1" fill="#f7a022" d="M 141.5,220.5 C 183.663,219.501 225.997,219.168 268.5,219.5C 268.5,232.5 268.5,245.5 268.5,258.5C 250.5,258.5 232.5,258.5 214.5,258.5C 231.992,257.503 249.659,257.17 267.5,257.5C 267.5,245.167 267.5,232.833 267.5,220.5C 225.5,220.5 183.5,220.5 141.5,220.5 Z"/></g>
<g><path style="opacity:1" fill="#f57f17" d="M 141.5,220.5 C 183.5,220.5 225.5,220.5 267.5,220.5C 267.5,232.833 267.5,245.167 267.5,257.5C 249.659,257.17 231.992,257.503 214.5,258.5C 207.018,270.466 200.851,283.132 196,296.5C 185.051,323.771 193.885,339.604 222.5,344C 237.176,344.583 251.843,344.416 266.5,343.5C 268.221,356.103 269.221,368.77 269.5,381.5C 249.098,383.269 228.764,382.769 208.5,380C 169.34,370.504 151.507,345.67 155,305.5C 158.078,289.432 163.245,274.098 170.5,259.5C 171.043,259.44 171.376,259.107 171.5,258.5C 161.522,257.501 151.522,257.168 141.5,257.5C 141.5,245.167 141.5,232.833 141.5,220.5 Z"/></g>
<g><path style="opacity:1" fill="#f58719" d="M 10.5,242.5 C 25.0097,242.171 39.3431,242.504 53.5,243.5C 39.1667,243.5 24.8333,243.5 10.5,243.5C 10.5,251.5 10.5,259.5 10.5,267.5C 24.8333,267.5 39.1667,267.5 53.5,267.5C 39.3431,268.496 25.0097,268.829 10.5,268.5C 9.16667,259.833 9.16667,251.167 10.5,242.5 Z"/></g>
<g><path style="opacity:1" fill="#f58719" d="M 457.5,243.5 C 471.657,242.504 485.99,242.171 500.5,242.5C 501.833,251.167 501.833,259.833 500.5,268.5C 485.99,268.829 471.657,268.496 457.5,267.5C 471.833,267.5 486.167,267.5 500.5,267.5C 500.5,259.5 500.5,251.5 500.5,243.5C 486.167,243.5 471.833,243.5 457.5,243.5 Z"/></g>
<g><path style="opacity:1" fill="#f47f16" d="M 53.5,243.5 C 53.5,251.5 53.5,259.5 53.5,267.5C 39.1667,267.5 24.8333,267.5 10.5,267.5C 10.5,259.5 10.5,251.5 10.5,243.5C 24.8333,243.5 39.1667,243.5 53.5,243.5 Z"/></g>
<g><path style="opacity:1" fill="#f47f16" d="M 457.5,243.5 C 471.833,243.5 486.167,243.5 500.5,243.5C 500.5,251.5 500.5,259.5 500.5,267.5C 486.167,267.5 471.833,267.5 457.5,267.5C 457.5,259.5 457.5,251.5 457.5,243.5 Z"/></g>
<g><path style="opacity:1" fill="#f9b328" d="M 141.5,257.5 C 151.522,257.168 161.522,257.501 171.5,258.5C 171.376,259.107 171.043,259.44 170.5,259.5C 160.833,258.833 151.167,258.167 141.5,257.5 Z"/></g>
<g><path style="opacity:1" fill="#f57f17" d="M 227.5,281.5 C 239.799,279.084 248.632,283.418 254,294.5C 256.045,313.455 247.545,322.289 228.5,321C 217,315.834 212.5,307.001 215,294.5C 218.025,288.977 222.191,284.644 227.5,281.5 Z"/></g>
<g><path style="opacity:1" fill="#f58017" d="M 21.5,331.5 C 19.0294,323.284 17.0294,314.951 15.5,306.5C 29.4617,302.676 43.4617,299.176 57.5,296C 60.3565,303.926 62.3565,312.093 63.5,320.5C 49.3864,323.861 35.3864,327.528 21.5,331.5 Z"/></g>
<g><path style="opacity:1" fill="#f58017" d="M 493.5,305.5 C 494.391,306.261 495.058,307.261 495.5,308.5C 494.033,316.564 491.7,324.23 488.5,331.5C 475.459,328.156 462.459,324.656 449.5,321C 448.422,320.326 447.755,319.326 447.5,318C 449.104,310.527 451.104,303.194 453.5,296C 466.773,299.151 480.107,302.318 493.5,305.5 Z"/></g>
<g><path style="opacity:1" fill="#f58017" d="M 49.5,389.5 C 44.4106,382.328 40.0773,374.661 36.5,366.5C 49.0263,359.651 61.5263,352.651 74,345.5C 78.6251,352.582 83.1251,359.749 87.5,367C 74.9706,374.763 62.304,382.263 49.5,389.5 Z"/></g>
<g><path style="opacity:1" fill="#f58017" d="M 474.5,366.5 C 470.923,374.661 466.589,382.328 461.5,389.5C 448.833,382.502 436.499,375.002 424.5,367C 428.041,359.411 432.208,352.245 437,345.5C 449.458,352.644 461.958,359.644 474.5,366.5 Z"/></g>
<g><path style="opacity:1" fill="#f58117" d="M 91.5,437.5 C 84.5,432.5 78.5,426.5 73.5,419.5C 83.1735,408.993 93.3402,398.993 104,389.5C 109.957,394.455 115.623,399.788 121,405.5C 121.667,406.5 121.667,407.5 121,408.5C 111.298,418.369 101.465,428.036 91.5,437.5 Z"/></g>
<g><path style="opacity:1" fill="#f58117" d="M 438.5,419.5 C 432.5,426.167 426.167,432.5 419.5,438.5C 409.326,428.16 399.326,417.66 389.5,407C 394.455,401.043 399.788,395.377 405.5,390C 406.5,389.333 407.5,389.333 408.5,390C 418.368,400.036 428.368,409.869 438.5,419.5 Z"/></g>
<g><path style="opacity:1" fill="#f58017" d="M 144.5,474.5 C 138.396,471.614 132.396,468.447 126.5,465C 124.365,464.124 123.031,462.624 122.5,460.5C 129.15,447.867 136.317,435.533 144,423.5C 150.587,427.878 157.42,431.878 164.5,435.5C 165.583,436.365 165.749,437.365 165,438.5C 157.89,450.392 151.057,462.392 144.5,474.5 Z"/></g>
<g><path style="opacity:1" fill="#f58017" d="M 388.5,460.5 C 387.969,462.624 386.635,464.124 384.5,465C 378.604,468.447 372.604,471.614 366.5,474.5C 359.777,462.059 352.777,449.726 345.5,437.5C 352.065,432.295 359.232,427.962 367,424.5C 374.921,436.003 382.088,448.003 388.5,460.5 Z"/></g>
<g><path style="opacity:1" fill="#f58017" d="M 204.5,495.5 C 195.976,494.262 187.643,492.262 179.5,489.5C 183.286,476.255 186.786,462.922 190,449.5C 190.519,448.484 191.353,447.818 192.5,447.5C 200.492,449.279 208.158,451.612 215.5,454.5C 211.671,468.152 208.004,481.819 204.5,495.5 Z"/></g>
<g><path style="opacity:1" fill="#f58017" d="M 331.5,489.5 C 323.284,491.971 314.951,493.971 306.5,495.5C 302.992,481.802 299.325,468.136 295.5,454.5C 295.709,453.914 296.043,453.414 296.5,453C 303.745,450.881 311.078,449.048 318.5,447.5C 319.647,447.818 320.481,448.484 321,449.5C 324.813,462.75 328.313,476.083 331.5,489.5 Z"/></g>
<g><path style="opacity:1" fill="#f58017" d="M 268.5,500.5 C 259.833,501.833 251.167,501.833 242.5,500.5C 242.5,486.167 242.5,471.833 242.5,457.5C 251.167,457.5 259.833,457.5 268.5,457.5C 268.5,471.833 268.5,486.167 268.5,500.5 Z"/></g>
</svg>
