<?xml version="1.0" encoding="UTF-8"?>
<!DOCTYPE svg PUBLIC "-//W3C//DTD SVG 1.1//EN" "http://www.w3.org/Graphics/SVG/1.1/DTD/svg11.dtd">
<svg xmlns="http://www.w3.org/2000/svg" version="1.1" width="512px" height="512px" style="shape-rendering:geometricPrecision; text-rendering:geometricPrecision; image-rendering:optimizeQuality; fill-rule:evenodd; clip-rule:evenodd" xmlns:xlink="http://www.w3.org/1999/xlink">
<g><path style="opacity:0.937" fill="#000000" d="M 233.5,-0.5 C 248.167,-0.5 262.833,-0.5 277.5,-0.5C 367.555,10.0943 435.388,54.4276 481,132.5C 497.855,164.278 508.022,197.945 511.5,233.5C 511.5,248.167 511.5,262.833 511.5,277.5C 500.906,367.555 456.572,435.388 378.5,481C 346.722,497.855 313.055,508.022 277.5,511.5C 262.833,511.5 248.167,511.5 233.5,511.5C 143.445,500.906 75.612,456.572 30,378.5C 13.1449,346.722 2.97822,313.055 -0.5,277.5C -0.5,262.833 -0.5,248.167 -0.5,233.5C 10.0943,143.445 54.4276,75.612 132.5,30C 164.278,13.1449 197.945,2.97822 233.5,-0.5 Z M 241.5,16.5 C 336.729,15.02 409.895,54.02 461,133.5C 497.761,198.625 504.094,266.625 480,337.5C 451.701,409.132 401.201,457.632 328.5,483C 231.502,509.712 148.002,487.212 78,415.5C 17.5943,343.767 1.92764,263.1 31,173.5C 64.0545,91.7833 123.555,40.95 209.5,21C 220.268,19.1562 230.935,17.6562 241.5,16.5 Z M 286.5,182.5 C 293.833,182.5 301.167,182.5 308.5,182.5C 316.074,235.524 296.074,274.024 248.5,298C 224.602,307.691 200.602,308.358 176.5,300C 213.738,261.265 250.405,222.099 286.5,182.5 Z M 399.5,182.5 C 400.498,217.663 400.832,252.996 400.5,288.5C 394.833,288.5 389.167,288.5 383.5,288.5C 383.167,255.16 383.5,221.827 384.5,188.5C 389.701,186.723 394.701,184.723 399.5,182.5 Z M 89.5,225.5 C 97.6563,224.343 105.99,224.177 114.5,225C 131.833,245 149.167,265 166.5,285C 164.65,287.018 162.65,288.851 160.5,290.5C 158.972,289.139 157.305,287.972 155.5,287C 133.626,266.254 111.626,245.754 89.5,225.5 Z M 418.5,339.5 C 409.728,356.787 398.395,372.287 384.5,386C 331.65,403.172 278.817,420.339 226,437.5C 206.97,433.934 188.803,427.768 171.5,419C 200.091,408.914 228.924,399.414 258,390.5C 260.449,391.944 262.615,393.778 264.5,396C 273.744,397.745 277.744,394.078 276.5,385C 280.461,383.402 284.461,381.902 288.5,380.5C 293.346,385.845 298.346,391.012 303.5,396C 312.72,397.447 316.553,393.614 315,384.5C 313.262,380.759 310.762,377.592 307.5,375C 344.354,362.66 381.354,350.826 418.5,339.5 Z"/></g>
<g><path style="opacity:0.932" fill="#000000" d="M 241.5,26.5 C 332.54,24.7613 402.706,61.7613 452,137.5C 490.322,205.708 494.656,276.042 465,348.5C 432.551,417.279 379.384,460.779 305.5,479C 230.227,493.766 163.227,476.766 104.5,428C 57.1271,385.418 31.6271,332.251 28,268.5C 29.5293,265.066 32.196,263.4 36,263.5C 38.8139,263.408 41.1473,264.408 43,266.5C 50.2141,338.145 83.3808,393.978 142.5,434C 205.165,471.436 270.498,476.769 338.5,450C 420.098,411.014 462.764,346.181 466.5,255.5C 463.781,174.191 427.781,112.691 358.5,71C 301.113,40.5137 241.78,36.1804 180.5,58C 99.427,92.9061 53.927,154.406 44,242.5C 40.6338,247.609 36.1338,248.776 30.5,246C 29.2986,245.097 28.4652,243.931 28,242.5C 33.0637,169.529 64.897,111.362 123.5,68C 159.271,43.9105 198.604,30.0772 241.5,26.5 Z M 418.5,339.5 C 381.354,350.826 344.354,362.66 307.5,375C 310.762,377.592 313.262,380.759 315,384.5C 316.553,393.614 312.72,397.447 303.5,396C 298.346,391.012 293.346,385.845 288.5,380.5C 284.461,381.902 280.461,383.402 276.5,385C 277.744,394.078 273.744,397.745 264.5,396C 262.615,393.778 260.449,391.944 258,390.5C 228.924,399.414 200.091,408.914 171.5,419C 188.803,427.768 206.97,433.934 226,437.5C 278.817,420.339 331.65,403.172 384.5,386C 398.395,372.287 409.728,356.787 418.5,339.5 Z"/></g>
<g><path style="opacity:0.933" fill="#000000" d="M 238.5,54.5 C 241.311,54.8257 243.978,55.6591 246.5,57C 256.345,66.1794 266.179,75.3461 276,84.5C 292.167,79.3333 308.333,74.1667 324.5,69C 334.167,67.6692 338,71.8359 336,81.5C 334.269,83.6166 332.102,85.1166 329.5,86C 298.698,95.6007 268.031,105.601 237.5,116C 248.637,126.137 259.471,136.637 270,147.5C 272.134,154.912 269.467,159.246 262,160.5C 259.679,160.091 257.513,159.257 255.5,158C 242.922,145.583 229.922,133.749 216.5,122.5C 208.409,124.697 200.409,127.197 192.5,130C 174.839,149.661 156.506,168.661 137.5,187C 128.142,187.648 124.642,183.481 127,174.5C 136.464,163.368 146.297,152.534 156.5,142C 136.144,147.894 115.81,154.228 95.5,161C 86.1311,161.637 82.6311,157.471 85,148.5C 86.1094,146.185 87.9427,144.685 90.5,144C 127.833,132 165.167,120 202.5,108C 194.165,100.198 195.165,94.0313 205.5,89.5C 206.795,90.0983 208.128,90.5983 209.5,91C 213.725,94.8961 218.225,98.3961 223,101.5C 234.167,98 245.333,94.5 256.5,91C 248.03,83.531 239.863,75.6977 232,67.5C 230.097,60.9519 232.263,56.6185 238.5,54.5 Z"/></g>
<g><path style="opacity:0.962" fill="#000000" d="M 405.5,161.5 C 410.635,160.426 414.468,162.093 417,166.5C 417.5,207.165 417.667,247.832 417.5,288.5C 424.946,290.733 426.946,295.4 423.5,302.5C 422.5,303.333 421.5,304.167 420.5,305C 411,305.167 401.5,305.333 392,305.5C 381.739,305.644 371.572,305.144 361.5,304C 357.5,299.333 357.5,294.667 361.5,290C 363.025,288.991 364.692,288.491 366.5,288.5C 366.667,257.165 366.5,225.832 366,194.5C 359.749,192.334 357.416,188.001 359,181.5C 360.227,179.274 362.061,177.774 364.5,177C 378.382,172.099 392.049,166.933 405.5,161.5 Z M 399.5,182.5 C 394.701,184.723 389.701,186.723 384.5,188.5C 383.5,221.827 383.167,255.16 383.5,288.5C 389.167,288.5 394.833,288.5 400.5,288.5C 400.832,252.996 400.498,217.663 399.5,182.5 Z"/></g>
<g><path style="opacity:0.936" fill="#000000" d="M 279.5,165.5 C 298.836,165.333 318.17,165.5 337.5,166C 344.152,171.381 344.152,176.715 337.5,182C 333.848,182.499 330.182,182.665 326.5,182.5C 333.307,235.039 314.974,276.205 271.5,306C 256.579,314.641 240.579,320.307 223.5,323C 237.033,338.861 250.866,354.361 265,369.5C 268.894,368.536 272.727,367.369 276.5,366C 266.98,355.781 257.813,345.281 249,334.5C 247.669,324.833 251.836,321 261.5,323C 272.667,335.5 283.833,348 295,360.5C 341.596,344.801 388.43,329.801 435.5,315.5C 440.603,316.103 443.603,318.936 444.5,324C 433.89,353.608 417.223,379.275 394.5,401C 340.313,419.062 285.979,436.729 231.5,454C 209.057,452.722 187.724,447.055 167.5,437C 159.671,432.92 152.004,428.587 144.5,424C 140.329,420.146 139.496,415.646 142,410.5C 145.783,407.902 149.95,406.068 154.5,405C 184.333,395.5 214.167,386 244,376.5C 245.257,376.15 245.591,375.483 245,374.5C 230.167,357.667 215.333,340.833 200.5,324C 187.754,322.418 175.42,319.251 163.5,314.5C 152.679,325.489 142.012,336.655 131.5,348C 124.138,350.61 119.805,348.11 118.5,340.5C 118.515,338.366 119.015,336.366 120,334.5C 129.5,324.333 139,314.167 148.5,304C 119.333,276.833 90.1667,249.667 61,222.5C 57.0493,216.698 57.8826,211.865 63.5,208C 83.1667,207.333 102.833,207.333 122.5,208C 141.685,228.884 160.519,250.051 179,271.5C 212.394,235.942 245.894,200.609 279.5,165.5 Z M 286.5,182.5 C 250.405,222.099 213.738,261.265 176.5,300C 200.602,308.358 224.602,307.691 248.5,298C 296.074,274.024 316.074,235.524 308.5,182.5C 301.167,182.5 293.833,182.5 286.5,182.5 Z M 89.5,225.5 C 111.626,245.754 133.626,266.254 155.5,287C 157.305,287.972 158.972,289.139 160.5,290.5C 162.65,288.851 164.65,287.018 166.5,285C 149.167,265 131.833,245 114.5,225C 105.99,224.177 97.6563,224.343 89.5,225.5 Z M 418.5,339.5 C 381.354,350.826 344.354,362.66 307.5,375C 310.762,377.592 313.262,380.759 315,384.5C 316.553,393.614 312.72,397.447 303.5,396C 298.346,391.012 293.346,385.845 288.5,380.5C 284.461,381.902 280.461,383.402 276.5,385C 277.744,394.078 273.744,397.745 264.5,396C 262.615,393.778 260.449,391.944 258,390.5C 228.924,399.414 200.091,408.914 171.5,419C 188.803,427.768 206.97,433.934 226,437.5C 278.817,420.339 331.65,403.172 384.5,386C 398.395,372.287 409.728,356.787 418.5,339.5 Z"/></g>
</svg>
