<?xml version="1.0" encoding="UTF-8"?>
<!DOCTYPE svg PUBLIC "-//W3C//DTD SVG 1.1//EN" "http://www.w3.org/Graphics/SVG/1.1/DTD/svg11.dtd">
<svg xmlns="http://www.w3.org/2000/svg" version="1.1" width="60px" height="60px" style="shape-rendering:geometricPrecision; text-rendering:geometricPrecision; image-rendering:optimizeQuality; fill-rule:evenodd; clip-rule:evenodd" xmlns:xlink="http://www.w3.org/1999/xlink">
<g><path style="opacity:0.747" fill="#0c0b09" d="M 21.5,-0.5 C 26.8333,-0.5 32.1667,-0.5 37.5,-0.5C 45.7202,2.28647 52.0535,7.45314 56.5,15C 56.2716,15.3988 55.9382,15.5654 55.5,15.5C 54.0638,17.3185 52.3971,17.6518 50.5,16.5C 52.0396,15.4679 52.5396,14.1346 52,12.5C 48.0603,7.78726 43.227,4.45392 37.5,2.5C 35.1944,2.00745 32.861,1.67412 30.5,1.5C 30.7148,3.17876 30.0481,4.17876 28.5,4.5C 28.5,3.5 28.5,2.5 28.5,1.5C 19.635,1.84917 12.4683,5.51584 7,12.5C 6.46037,14.1346 6.96037,15.4679 8.5,16.5C 6.92217,17.0724 5.42217,17.4057 4,17.5C 2.62821,21.8972 1.46154,26.2305 0.5,30.5C 0.166667,30.5 -0.166667,30.5 -0.5,30.5C -0.5,27.5 -0.5,24.5 -0.5,21.5C 3.16667,10.5 10.5,3.16667 21.5,-0.5 Z"/></g>
<g><path style="opacity:1" fill="#f5eecd" d="M 28.5,4.5 C 27.5,5.83333 26.5,7.16667 25.5,8.5C 16.8333,11.1667 11.1667,16.8333 8.5,25.5C 6.09759,27.9092 3.43092,29.9092 0.5,31.5C 0.5,31.1667 0.5,30.8333 0.5,30.5C 1.46154,26.2305 2.62821,21.8972 4,17.5C 5.42217,17.4057 6.92217,17.0724 8.5,16.5C 6.96037,15.4679 6.46037,14.1346 7,12.5C 12.4683,5.51584 19.635,1.84917 28.5,1.5C 28.5,2.5 28.5,3.5 28.5,4.5 Z"/></g>
<g><path style="opacity:1" fill="#f9eba6" d="M 37.5,2.5 C 36.2464,5.09343 34.5798,7.42676 32.5,9.5C 31.8333,9.5 31.1667,9.5 30.5,9.5C 29.0813,8.54885 27.4147,8.21552 25.5,8.5C 26.5,7.16667 27.5,5.83333 28.5,4.5C 30.0481,4.17876 30.7148,3.17876 30.5,1.5C 32.861,1.67412 35.1944,2.00745 37.5,2.5 Z"/></g>
<g><path style="opacity:1" fill="#f6edc1" d="M 37.5,2.5 C 43.227,4.45392 48.0603,7.78726 52,12.5C 52.5396,14.1346 52.0396,15.4679 50.5,16.5C 52.3971,17.6518 54.0638,17.3185 55.5,15.5C 56.1667,16.8333 56.8333,18.1667 57.5,19.5C 57.136,23.3776 57.136,27.3776 57.5,31.5C 54.5,34.1667 51.5,36.8333 48.5,39.5C 53.3137,25.9362 49.3137,15.9362 36.5,9.5C 35.8933,9.62358 35.56,9.95691 35.5,10.5C 34.391,10.4431 33.391,10.1098 32.5,9.5C 34.5798,7.42676 36.2464,5.09343 37.5,2.5 Z"/></g>
<g><path style="opacity:0.755" fill="#0a0907" d="M 57.5,19.5 C 58.1667,20.1667 58.8333,20.8333 59.5,21.5C 59.5,26.8333 59.5,32.1667 59.5,37.5C 55.8333,48.5 48.5,55.8333 37.5,59.5C 32.1667,59.5 26.8333,59.5 21.5,59.5C 10.4254,56.0913 3.42538,48.758 0.5,37.5C 1.60895,37.5569 2.60895,37.8902 3.5,38.5C 3.31181,40.1033 3.81181,41.4366 5,42.5C 6.04946,41.4829 7.21613,41.3162 8.5,42C 6.78885,43.1332 6.28885,44.6332 7,46.5C 12.4683,53.4842 19.635,57.1508 28.5,57.5C 28.281,56.325 28.6143,55.325 29.5,54.5C 30.1757,55.6016 30.8423,56.6016 31.5,57.5C 39.9612,56.8529 46.7945,53.1863 52,46.5C 52.7112,44.6332 52.2112,43.1332 50.5,42C 51.9506,42.2626 53.2839,42.0959 54.5,41.5C 56.3124,38.3974 57.3124,35.0641 57.5,31.5C 57.136,27.3776 57.136,23.3776 57.5,19.5 Z"/></g>
<g><path style="opacity:1" fill="#1b1913" d="M 25.5,8.5 C 27.4147,8.21552 29.0813,8.54885 30.5,9.5C 16.3501,11.8209 9.85009,20.1543 11,34.5C 11.941,36.7274 13.1077,38.7274 14.5,40.5C 24.5055,51.1601 34.6722,51.1601 45,40.5C 51.5722,27.6441 48.4055,17.9774 35.5,11.5C 35.5,11.1667 35.5,10.8333 35.5,10.5C 35.56,9.95691 35.8933,9.62358 36.5,9.5C 49.3137,15.9362 53.3137,25.9362 48.5,39.5C 45.8151,43.1831 42.4818,46.1831 38.5,48.5C 23.7185,53.1092 13.7185,48.1092 8.5,33.5C 8.5,30.8333 8.5,28.1667 8.5,25.5C 11.1667,16.8333 16.8333,11.1667 25.5,8.5 Z"/></g>
<g><path style="opacity:1" fill="#f8e16f" d="M 35.5,11.5 C 48.4055,17.9774 51.5722,27.6441 45,40.5C 34.6722,51.1601 24.5055,51.1601 14.5,40.5C 12.9203,24.6699 19.9203,15.0032 35.5,11.5 Z"/></g>
<g><path style="opacity:1" fill="#15130a" d="M 22.5,18.5 C 24.0799,20.7171 25.0799,23.3837 25.5,26.5C 28.5,24 31.5,21.5 34.5,19C 35.3317,18.3123 35.9984,18.479 36.5,19.5C 33.3926,22.5604 30.0593,25.3937 26.5,28C 39.8333,29 39.8333,30 26.5,31C 29.6667,33.5 32.8333,36 36,38.5C 36.6877,39.3317 36.521,39.9984 35.5,40.5C 32.1667,37.8333 28.8333,35.1667 25.5,32.5C 24.8333,35.1667 24.1667,37.8333 23.5,40.5C 22.513,37.2317 22.1796,33.8984 22.5,30.5C 18.5,29.8333 18.5,29.1667 22.5,28.5C 22.5,25.1667 22.5,21.8333 22.5,18.5 Z"/></g>
<g><path style="opacity:1" fill="#f7d346" d="M 30.5,9.5 C 31.1667,9.5 31.8333,9.5 32.5,9.5C 33.391,10.1098 34.391,10.4431 35.5,10.5C 35.5,10.8333 35.5,11.1667 35.5,11.5C 19.9203,15.0032 12.9203,24.6699 14.5,40.5C 13.1077,38.7274 11.941,36.7274 11,34.5C 9.85009,20.1543 16.3501,11.8209 30.5,9.5 Z"/></g>
<g><path style="opacity:0.957" fill="#fef0a9" d="M 8.5,25.5 C 8.5,28.1667 8.5,30.8333 8.5,33.5C 6.5,34.8333 4.83333,36.5 3.5,38.5C 2.60895,37.8902 1.60895,37.5569 0.5,37.5C 0.5,35.5 0.5,33.5 0.5,31.5C 3.43092,29.9092 6.09759,27.9092 8.5,25.5 Z"/></g>
<g><path style="opacity:1" fill="#f2e4a0" d="M 57.5,31.5 C 57.3124,35.0641 56.3124,38.3974 54.5,41.5C 53.2839,42.0959 51.9506,42.2626 50.5,42C 52.2112,43.1332 52.7112,44.6332 52,46.5C 46.7945,53.1863 39.9612,56.8529 31.5,57.5C 34.2394,54.7673 36.5727,51.7673 38.5,48.5C 42.4818,46.1831 45.8151,43.1831 48.5,39.5C 51.5,36.8333 54.5,34.1667 57.5,31.5 Z"/></g>
<g><path style="opacity:1" fill="#f6edc2" d="M 8.5,33.5 C 13.7185,48.1092 23.7185,53.1092 38.5,48.5C 36.5727,51.7673 34.2394,54.7673 31.5,57.5C 30.8423,56.6016 30.1757,55.6016 29.5,54.5C 28.6143,55.325 28.281,56.325 28.5,57.5C 19.635,57.1508 12.4683,53.4842 7,46.5C 6.28885,44.6332 6.78885,43.1332 8.5,42C 7.21613,41.3162 6.04946,41.4829 5,42.5C 3.81181,41.4366 3.31181,40.1033 3.5,38.5C 4.83333,36.5 6.5,34.8333 8.5,33.5 Z"/></g>
</svg>
