<?xml version="1.0" encoding="UTF-8"?>
<!DOCTYPE svg PUBLIC "-//W3C//DTD SVG 1.1//EN" "http://www.w3.org/Graphics/SVG/1.1/DTD/svg11.dtd">
<svg xmlns="http://www.w3.org/2000/svg" version="1.1" width="48px" height="48px" style="shape-rendering:geometricPrecision; text-rendering:geometricPrecision; image-rendering:optimizeQuality; fill-rule:evenodd; clip-rule:evenodd" xmlns:xlink="http://www.w3.org/1999/xlink">
<g><path style="opacity:0.939" fill="#ff3c00" d="M 41.5,13.5 C 29.5,13.5 17.5,13.5 5.5,13.5C 11.3323,4.26617 19.6656,1.09951 30.5,4C 35.4406,5.78751 39.1073,8.95417 41.5,13.5 Z"/></g>
<g><path style="opacity:0.979" fill="#eaeeef" d="M 5.5,13.5 C 17.5,13.5 29.5,13.5 41.5,13.5C 44.1193,20.1402 44.1193,26.8069 41.5,33.5C 29.5,33.5 17.5,33.5 5.5,33.5C 2.83333,26.8333 2.83333,20.1667 5.5,13.5 Z"/></g>
<g><path style="opacity:1" fill="#32b169" d="M 22.5,16.5 C 23.7206,17.0283 24.8873,17.695 26,18.5C 28.2643,22.0442 29.5977,25.3775 30,28.5C 29.2753,27.9415 28.4419,27.6082 27.5,27.5C 26.0505,28.2798 24.5505,28.9465 23,29.5C 21.9574,28.215 20.1241,27.0483 17.5,26C 18.8175,23.0691 20.4842,19.9024 22.5,16.5 Z"/></g>
<g><path style="opacity:0.95" fill="#ff3c00" d="M 5.5,33.5 C 17.5,33.5 29.5,33.5 41.5,33.5C 37.6212,40.4437 31.6212,43.777 23.5,43.5C 15.3788,43.777 9.37879,40.4437 5.5,33.5 Z"/></g>
</svg>
