<?xml version="1.0" encoding="UTF-8"?>
<!DOCTYPE svg PUBLIC "-//W3C//DTD SVG 1.1//EN" "http://www.w3.org/Graphics/SVG/1.1/DTD/svg11.dtd">
<svg xmlns="http://www.w3.org/2000/svg" version="1.1" width="48px" height="48px" style="shape-rendering:geometricPrecision; text-rendering:geometricPrecision; image-rendering:optimizeQuality; fill-rule:evenodd; clip-rule:evenodd" xmlns:xlink="http://www.w3.org/1999/xlink">
<g><path style="opacity:0.975" fill="#fac429" d="M 16.5,3.5 C 36.6499,1.48275 45.4833,10.4828 43,30.5C 37.6574,41.7523 28.8241,45.9189 16.5,43C 5.24773,37.6574 1.08107,28.8241 4,16.5C 6.35314,10.3154 10.5198,5.98203 16.5,3.5 Z"/></g>
<g><path style="opacity:1" fill="#8b154e" d="M 18.5,5.5 C 36.0065,5.16264 43.1732,13.496 40,30.5C 34.5497,40.3607 26.5497,43.3607 16,39.5C 15.3333,28.8333 15.3333,18.1667 16,7.5C 16.9947,6.93406 17.828,6.26739 18.5,5.5 Z"/></g>
<g><path style="opacity:1" fill="#ef6d00" d="M 9.5,34.5 C 9.5,27.1667 9.5,19.8333 9.5,12.5C 10.4577,11.0384 11.6244,9.70507 13,8.5C 13.6667,18.5 13.6667,28.5 13,38.5C 11.6244,37.2949 10.4577,35.9616 9.5,34.5 Z"/></g>
<g><path style="opacity:1" fill="#476e4e" d="M 9.5,12.5 C 9.5,19.8333 9.5,27.1667 9.5,34.5C 4.16667,27.1667 4.16667,19.8333 9.5,12.5 Z"/></g>
<g><path style="opacity:1" fill="#b45042" d="M 33.5,18.5 C 34.4345,19.5676 34.7678,20.901 34.5,22.5C 32.5856,21.8153 30.5856,21.3153 28.5,21C 30.3008,20.6827 30.6341,20.016 29.5,19C 31.0187,19.3308 32.352,19.1641 33.5,18.5 Z"/></g>
<g><path style="opacity:1" fill="#efa72f" d="M 33.5,18.5 C 32.352,19.1641 31.0187,19.3308 29.5,19C 30.6341,20.016 30.3008,20.6827 28.5,21C 30.5856,21.3153 32.5856,21.8153 34.5,22.5C 34.0074,24.8056 33.6741,27.139 33.5,29.5C 32.1266,29.6567 30.7932,29.49 29.5,29C 30.8213,27.4555 30.4879,26.2888 28.5,25.5C 27.1552,26.3467 26.1552,27.5134 25.5,29C 23.4144,29.6266 23.0811,29.1266 24.5,27.5C 23.3493,26.269 22.1827,26.269 21,27.5C 20.3333,24.1667 20.3333,20.8333 21,17.5C 21.1922,19.5767 21.6922,21.5767 22.5,23.5C 23.452,22.467 23.452,21.3004 22.5,20C 22.9054,19.0546 23.572,18.3879 24.5,18C 27.4222,17.717 30.4222,17.8836 33.5,18.5 Z"/></g>
</svg>
