<?xml version="1.0" encoding="UTF-8"?>
<!DOCTYPE svg PUBLIC "-//W3C//DTD SVG 1.1//EN" "http://www.w3.org/Graphics/SVG/1.1/DTD/svg11.dtd">
<svg xmlns="http://www.w3.org/2000/svg" version="1.1" width="48px" height="48px" style="shape-rendering:geometricPrecision; text-rendering:geometricPrecision; image-rendering:optimizeQuality; fill-rule:evenodd; clip-rule:evenodd" xmlns:xlink="http://www.w3.org/1999/xlink">
<g><path style="opacity:0.971" fill="#4152b5" d="M 22.5,3.5 C 22.5,4.16667 22.5,4.83333 22.5,5.5C 22.5,6.83333 22.5,8.16667 22.5,9.5C 22.5,10.8333 22.5,12.1667 22.5,13.5C 22.5,14.8333 22.5,16.1667 22.5,17.5C 22.5,18.8333 22.5,20.1667 22.5,21.5C 16.1667,21.5 9.83333,21.5 3.5,21.5C 4.63852,10.0284 10.9719,4.02837 22.5,3.5 Z"/></g>
<g><path style="opacity:0.793" fill="#f44235" d="M 22.5,3.5 C 26.1595,3.1588 29.4928,3.82547 32.5,5.5C 29.1667,5.5 25.8333,5.5 22.5,5.5C 22.5,4.83333 22.5,4.16667 22.5,3.5 Z"/></g>
<g><path style="opacity:0.963" fill="#eceef1" d="M 22.5,5.5 C 25.8333,5.5 29.1667,5.5 32.5,5.5C 34.8525,6.34026 36.8525,7.6736 38.5,9.5C 33.1667,9.5 27.8333,9.5 22.5,9.5C 22.5,8.16667 22.5,6.83333 22.5,5.5 Z"/></g>
<g><path style="opacity:0.988" fill="#f44336" d="M 22.5,9.5 C 27.8333,9.5 33.1667,9.5 38.5,9.5C 39.4884,10.795 40.4884,12.1283 41.5,13.5C 35.1667,13.5 28.8333,13.5 22.5,13.5C 22.5,12.1667 22.5,10.8333 22.5,9.5 Z"/></g>
<g><path style="opacity:1" fill="#dee1f2" d="M 13.5,9.5 C 15.0481,9.82124 15.7148,10.8212 15.5,12.5C 19.0993,12.2619 19.4327,13.2619 16.5,15.5C 17.847,19.1096 17.1804,19.4429 14.5,16.5C 11.8196,19.4429 11.153,19.1096 12.5,15.5C 9.56732,13.2619 9.90065,12.2619 13.5,12.5C 13.5,11.5 13.5,10.5 13.5,9.5 Z"/></g>
<g><path style="opacity:0.986" fill="#eceff1" d="M 22.5,13.5 C 28.8333,13.5 35.1667,13.5 41.5,13.5C 42.1667,14.8333 42.8333,16.1667 43.5,17.5C 36.5,17.5 29.5,17.5 22.5,17.5C 22.5,16.1667 22.5,14.8333 22.5,13.5 Z"/></g>
<g><path style="opacity:0.978" fill="#f44335" d="M 22.5,17.5 C 29.5,17.5 36.5,17.5 43.5,17.5C 43.5,18.8333 43.5,20.1667 43.5,21.5C 36.5,21.5 29.5,21.5 22.5,21.5C 22.5,20.1667 22.5,18.8333 22.5,17.5 Z"/></g>
<g><path style="opacity:0.998" fill="#ebeff0" d="M 3.5,21.5 C 9.83333,21.5 16.1667,21.5 22.5,21.5C 29.5,21.5 36.5,21.5 43.5,21.5C 43.5,22.8333 43.5,24.1667 43.5,25.5C 30.1667,25.5 16.8333,25.5 3.5,25.5C 3.5,24.1667 3.5,22.8333 3.5,21.5 Z"/></g>
<g><path style="opacity:0.977" fill="#f44235" d="M 3.5,25.5 C 16.8333,25.5 30.1667,25.5 43.5,25.5C 43.5,26.8333 43.5,28.1667 43.5,29.5C 30.1667,29.5 16.8333,29.5 3.5,29.5C 3.5,28.1667 3.5,26.8333 3.5,25.5 Z"/></g>
<g><path style="opacity:0.985" fill="#eceff1" d="M 3.5,29.5 C 16.8333,29.5 30.1667,29.5 43.5,29.5C 42.8333,30.8333 42.1667,32.1667 41.5,33.5C 29.5,33.5 17.5,33.5 5.5,33.5C 4.83333,32.1667 4.16667,30.8333 3.5,29.5 Z"/></g>
<g><path style="opacity:0.979" fill="#f44336" d="M 5.5,33.5 C 17.5,33.5 29.5,33.5 41.5,33.5C 40.4884,34.8717 39.4884,36.205 38.5,37.5C 28.5,37.5 18.5,37.5 8.5,37.5C 7.51163,36.205 6.51163,34.8717 5.5,33.5 Z"/></g>
<g><path style="opacity:0.959" fill="#eceff1" d="M 8.5,37.5 C 18.5,37.5 28.5,37.5 38.5,37.5C 36.8525,39.3264 34.8525,40.6597 32.5,41.5C 26.5,41.5 20.5,41.5 14.5,41.5C 12.1475,40.6597 10.1475,39.3264 8.5,37.5 Z"/></g>
<g><path style="opacity:0.764" fill="#f44235" d="M 14.5,41.5 C 20.5,41.5 26.5,41.5 32.5,41.5C 29.8136,42.9908 26.8136,43.6575 23.5,43.5C 20.1864,43.6575 17.1864,42.9908 14.5,41.5 Z"/></g>
</svg>
