<?xml version="1.0" encoding="UTF-8"?>
<!DOCTYPE svg PUBLIC "-//W3C//DTD SVG 1.1//EN" "http://www.w3.org/Graphics/SVG/1.1/DTD/svg11.dtd">
<svg xmlns="http://www.w3.org/2000/svg" version="1.1" width="48px" height="48px" style="shape-rendering:geometricPrecision; text-rendering:geometricPrecision; image-rendering:optimizeQuality; fill-rule:evenodd; clip-rule:evenodd" xmlns:xlink="http://www.w3.org/1999/xlink">
<g><path style="opacity:0.957" fill="#283492" d="M 42.5,15.5 C 29.8333,15.5 17.1667,15.5 4.5,15.5C 11.4113,3.23522 21.4113,0.0685534 34.5,6C 38.2239,8.28398 40.8906,11.4507 42.5,15.5 Z"/></g>
<g><path style="opacity:0.982" fill="#ebeef0" d="M 4.5,15.5 C 17.1667,15.5 29.8333,15.5 42.5,15.5C 43.8333,20.8333 43.8333,26.1667 42.5,31.5C 29.8333,31.5 17.1667,31.5 4.5,31.5C 3.16667,26.1667 3.16667,20.8333 4.5,15.5 Z"/></g>
<g><path style="opacity:1" fill="#778084" d="M 25.5,23.5 C 24.1667,22.1667 22.8333,22.1667 21.5,23.5C 19.8231,19.0143 21.3231,17.681 26,19.5C 26.765,21.0657 26.5983,22.3991 25.5,23.5 Z"/></g>
<g><path style="opacity:1" fill="#2a363c" d="M 25.5,23.5 C 25.8333,24.1667 26.1667,24.8333 26.5,25.5C 24.5,26.8333 22.5,26.8333 20.5,25.5C 20.8333,24.8333 21.1667,24.1667 21.5,23.5C 22.8333,22.1667 24.1667,22.1667 25.5,23.5 Z"/></g>
<g><path style="opacity:1" fill="#656e73" d="M 20.5,25.5 C 22.5,26.8333 24.5,26.8333 26.5,25.5C 27.2891,25.7828 27.9558,26.2828 28.5,27C 25.1667,29 21.8333,29 18.5,27C 19.0442,26.2828 19.7109,25.7828 20.5,25.5 Z"/></g>
<g><path style="opacity:0.957" fill="#378e3b" d="M 4.5,31.5 C 17.1667,31.5 29.8333,31.5 42.5,31.5C 35.5887,43.7648 25.5887,46.9314 12.5,41C 8.77612,38.716 6.10945,35.5493 4.5,31.5 Z"/></g>
</svg>
