<?xml version="1.0" encoding="UTF-8"?>
<!DOCTYPE svg PUBLIC "-//W3C//DTD SVG 1.1//EN" "http://www.w3.org/Graphics/SVG/1.1/DTD/svg11.dtd">
<svg xmlns="http://www.w3.org/2000/svg" version="1.1" width="64px" height="64px" style="shape-rendering:geometricPrecision; text-rendering:geometricPrecision; image-rendering:optimizeQuality; fill-rule:evenodd; clip-rule:evenodd" xmlns:xlink="http://www.w3.org/1999/xlink">
<g><path style="opacity:0.826" fill="#000000" d="M 27.5,6.5 C 47.1411,6.47108 56.4744,16.1377 55.5,35.5C 51.0559,32.559 47.0559,29.059 43.5,25C 44.5,24.6667 45.5,24.3333 46.5,24C 37.5102,21.6706 29.0102,18.1706 21,13.5C 20.3333,12.1667 20.3333,10.8333 21,9.5C 23.166,8.26852 25.3326,7.26852 27.5,6.5 Z"/></g>
<g><path style="opacity:0.903" fill="#000000" d="M 14.5,12.5 C 16.5234,16.9927 18.6901,21.6593 21,26.5C 29.7705,37.9098 41.2705,42.0764 55.5,39C 48.4586,54.4664 36.7919,59.4664 20.5,54C 7.7271,46.0173 3.89376,34.8506 9,20.5C 10.5963,17.6305 12.4297,14.9639 14.5,12.5 Z"/></g>
</svg>
