<?xml version="1.0" encoding="UTF-8"?>
<!DOCTYPE svg PUBLIC "-//W3C//DTD SVG 1.1//EN" "http://www.w3.org/Graphics/SVG/1.1/DTD/svg11.dtd">
<svg xmlns="http://www.w3.org/2000/svg" version="1.1" width="48px" height="48px" style="shape-rendering:geometricPrecision; text-rendering:geometricPrecision; image-rendering:optimizeQuality; fill-rule:evenodd; clip-rule:evenodd" xmlns:xlink="http://www.w3.org/1999/xlink">
<g><path style="opacity:0.962" fill="#b61b1b" d="M 43.5,17.5 C 30.1667,17.5 16.8333,17.5 3.5,17.5C 8.63162,5.60057 17.6316,1.10057 30.5,4C 37.056,6.38884 41.3894,10.8888 43.5,17.5 Z"/></g>
<g><path style="opacity:0.983" fill="#ebeff0" d="M 3.5,17.5 C 16.8333,17.5 30.1667,17.5 43.5,17.5C 43.5,21.5 43.5,25.5 43.5,29.5C 30.1667,29.5 16.8333,29.5 3.5,29.5C 3.5,25.5 3.5,21.5 3.5,17.5 Z"/></g>
<g><path style="opacity:0.963" fill="#b61b1b" d="M 3.5,29.5 C 16.8333,29.5 30.1667,29.5 43.5,29.5C 38.3684,41.3994 29.3684,45.8994 16.5,43C 9.94398,40.6112 5.61065,36.1112 3.5,29.5 Z"/></g>
</svg>
