<?xml version="1.0" encoding="UTF-8"?>
<!DOCTYPE svg PUBLIC "-//W3C//DTD SVG 1.1//EN" "http://www.w3.org/Graphics/SVG/1.1/DTD/svg11.dtd">
<svg xmlns="http://www.w3.org/2000/svg" version="1.1" width="48px" height="48px" style="shape-rendering:geometricPrecision; text-rendering:geometricPrecision; image-rendering:optimizeQuality; fill-rule:evenodd; clip-rule:evenodd" xmlns:xlink="http://www.w3.org/1999/xlink">
<g><path style="opacity:0.949" fill="#d50000" d="M 41.5,14.5 C 29.5,14.5 17.5,14.5 5.5,14.5C 8.8945,6.80483 14.8945,3.13816 23.5,3.5C 32.1055,3.13816 38.1055,6.80483 41.5,14.5 Z"/></g>
<g><path style="opacity:0.981" fill="#434343" d="M 5.5,14.5 C 17.5,14.5 29.5,14.5 41.5,14.5C 42.9908,17.1864 43.6575,20.1864 43.5,23.5C 43.6575,26.8136 42.9908,29.8136 41.5,32.5C 29.5,32.5 17.5,32.5 5.5,32.5C 4.77842,32.0825 4.27842,31.4158 4,30.5C 3.33333,25.8333 3.33333,21.1667 4,16.5C 4.27842,15.5842 4.77842,14.9175 5.5,14.5 Z"/></g>
<g><path style="opacity:1" fill="#e2e2e2" d="M 19.5,18.5 C 20.552,18.3505 21.552,18.5172 22.5,19C 17.1667,22 17.1667,25 22.5,28C 18.9792,28.6561 16.9792,27.1561 16.5,23.5C 16.7573,21.3076 17.7573,19.6409 19.5,18.5 Z"/></g>
<g><path style="opacity:1" fill="#e9e9e9" d="M 26.5,20.5 C 27.766,21.0899 29.0993,21.5899 30.5,22C 29.1667,23 29.1667,24 30.5,25C 29.2341,25.3095 28.0674,25.8095 27,26.5C 26.3551,25.354 25.5217,24.354 24.5,23.5C 25.6119,22.7348 26.2786,21.7348 26.5,20.5 Z"/></g>
<g><path style="opacity:0.956" fill="#4baf4f" d="M 5.5,32.5 C 17.5,32.5 29.5,32.5 41.5,32.5C 38.1055,40.1952 32.1055,43.8618 23.5,43.5C 14.8945,43.8618 8.8945,40.1952 5.5,32.5 Z"/></g>
</svg>
