<?xml version="1.0" encoding="UTF-8"?>
<!DOCTYPE svg PUBLIC "-//W3C//DTD SVG 1.1//EN" "http://www.w3.org/Graphics/SVG/1.1/DTD/svg11.dtd">
<svg xmlns="http://www.w3.org/2000/svg" version="1.1" width="512px" height="512px" style="shape-rendering:geometricPrecision; text-rendering:geometricPrecision; image-rendering:optimizeQuality; fill-rule:evenodd; clip-rule:evenodd" xmlns:xlink="http://www.w3.org/1999/xlink">
<g><path style="opacity:0.997" fill="#ffa726" d="M 232.5,-0.5 C 247.833,-0.5 263.167,-0.5 278.5,-0.5C 368.144,10.3879 435.644,54.7213 481,132.5C 497.695,163.971 507.861,197.304 511.5,232.5C 511.5,247.833 511.5,263.167 511.5,278.5C 500.612,368.144 456.279,435.644 378.5,481C 347.029,497.695 313.696,507.861 278.5,511.5C 263.167,511.5 247.833,511.5 232.5,511.5C 142.856,500.612 75.3562,456.279 30,378.5C 13.3053,347.029 3.1386,313.696 -0.5,278.5C -0.5,263.167 -0.5,247.833 -0.5,232.5C 10.3875,142.857 54.7208,75.3573 132.5,30C 163.971,13.3053 197.304,3.1386 232.5,-0.5 Z"/></g>
<g><path style="opacity:1" fill="#fffbf5" d="M 240.5,107.5 C 310.616,105.119 361.116,135.119 392,197.5C 415.476,262.374 402.643,318.874 353.5,367C 313.487,399.668 268.154,410.335 217.5,399C 168.309,384.475 134.476,353.308 116,305.5C 97.1063,244.242 110.273,191.076 155.5,146C 179.915,124.458 208.249,111.625 240.5,107.5 Z"/></g>
<g><path style="opacity:1" fill="#ffa829" d="M 244.5,113.5 C 308.003,112.483 354.503,139.816 384,195.5C 404.361,243.224 401.027,289.224 374,333.5C 336.887,384.455 287.054,404.622 224.5,394C 169.612,379.445 134.112,344.945 118,290.5C 105.627,228.124 124.46,177.624 174.5,139C 195.774,124.633 219.107,116.133 244.5,113.5 Z"/></g>
<g><path style="opacity:1" fill="#fff9f0" d="M 236.5,124.5 C 241.159,124.015 242.492,125.848 240.5,130C 235.728,130.81 234.395,128.977 236.5,124.5 Z"/></g>
<g><path style="opacity:1" fill="#fff9f0" d="M 270.5,124.5 C 275.159,124.015 276.492,125.848 274.5,130C 269.728,130.81 268.395,128.977 270.5,124.5 Z"/></g>
<g><path style="opacity:1" fill="#fff8ed" d="M 203.5,133.5 C 205.199,133.34 206.866,133.506 208.5,134C 209.813,137.692 208.48,139.359 204.5,139C 203.594,137.301 203.261,135.467 203.5,133.5 Z"/></g>
<g><path style="opacity:1" fill="#fff3e0" d="M 303.5,132.5 C 308.493,132.997 309.493,135.164 306.5,139C 301.382,138.824 300.382,136.658 303.5,132.5 Z"/></g>
<g><path style="opacity:1" fill="#fffbf4" d="M 246.5,138.5 C 301.459,137.875 340.626,162.209 364,211.5C 379.891,256.157 372.891,296.823 343,333.5C 309.416,367.607 269.25,379.107 222.5,368C 175.161,351.318 147.327,318.151 139,268.5C 136.166,218.663 155.666,180.497 197.5,154C 212.921,145.468 229.254,140.302 246.5,138.5 Z"/></g>
<g><path style="opacity:1" fill="#ffa727" d="M 240.5,145.5 C 288.273,141.806 325.107,159.806 351,199.5C 368.461,232.707 370.128,266.707 356,301.5C 331.223,348.647 292.057,369.814 238.5,365C 187.222,354.056 156.389,322.889 146,271.5C 141.403,224.874 158.236,188.374 196.5,162C 210.196,153.605 224.863,148.105 240.5,145.5 Z"/></g>
<g><path style="opacity:1" fill="#fff8ed" d="M 174.5,150.5 C 176.167,150.5 177.833,150.5 179.5,150.5C 180.322,156.209 178.489,157.543 174,154.5C 173.421,153.072 173.588,151.738 174.5,150.5 Z"/></g>
<g><path style="opacity:1" fill="#fff3e0" d="M 332.5,149.5 C 337.493,149.997 338.493,152.164 335.5,156C 330.382,155.824 329.382,153.658 332.5,149.5 Z"/></g>
<g><path style="opacity:1" fill="#fff4e4" d="M 151.5,173.5 C 156.493,173.997 157.493,176.164 154.5,180C 149.382,179.824 148.382,177.658 151.5,173.5 Z"/></g>
<g><path style="opacity:1" fill="#fff4e4" d="M 356.5,173.5 C 361.493,173.997 362.493,176.164 359.5,180C 354.382,179.824 353.382,177.658 356.5,173.5 Z"/></g>
<g><path style="opacity:1" fill="#fffcf7" d="M 190.5,199.5 C 202.365,198.904 214.032,200.071 225.5,203C 236.256,207.422 243.089,215.255 246,226.5C 246.667,245.167 246.667,263.833 246,282.5C 241.967,300.189 230.8,309.689 212.5,311C 202.833,311.667 193.167,311.667 183.5,311C 182.584,310.626 181.75,310.126 181,309.5C 180.333,273.5 180.333,237.5 181,201.5C 184.27,200.868 187.437,200.201 190.5,199.5 Z"/></g>
<g><path style="opacity:1" fill="#fffefd" d="M 270.5,202.5 C 270.5,219.167 270.5,235.833 270.5,252.5C 288.5,252.5 306.5,252.5 324.5,252.5C 324.5,235.833 324.5,219.167 324.5,202.5C 325.901,199.201 327.735,198.868 330,201.5C 330.667,237.5 330.667,273.5 330,309.5C 327.442,312.362 325.609,312.029 324.5,308.5C 324.5,291.833 324.5,275.167 324.5,258.5C 306.5,258.5 288.5,258.5 270.5,258.5C 270.5,275.167 270.5,291.833 270.5,308.5C 269.644,311.513 267.811,312.18 265,310.5C 264.333,274.167 264.333,237.833 265,201.5C 267.265,198.868 269.099,199.201 270.5,202.5 Z"/></g>
<g><path style="opacity:1" fill="#fff7ea" d="M 134.5,202.5 C 139.493,202.997 140.493,205.164 137.5,209C 136.216,209.684 135.049,209.517 134,208.5C 133.322,206.402 133.489,204.402 134.5,202.5 Z"/></g>
<g><path style="opacity:1" fill="#fff3e2" d="M 373.5,202.5 C 378.493,202.997 379.493,205.164 376.5,209C 371.382,208.824 370.382,206.658 373.5,202.5 Z"/></g>
<g><path style="opacity:1" fill="#ffa729" d="M 186.5,206.5 C 195.839,206.334 205.173,206.5 214.5,207C 226.727,207.904 234.893,214.071 239,225.5C 240.115,235.444 240.615,245.444 240.5,255.5C 240.333,264.167 240.167,272.833 240,281.5C 236.708,295.455 227.875,302.955 213.5,304C 204.506,304.5 195.506,304.666 186.5,304.5C 186.5,271.833 186.5,239.167 186.5,206.5 Z"/></g>
<g><path style="opacity:1" fill="#fffaf3" d="M 125.5,235.5 C 130.159,235.015 131.492,236.848 129.5,241C 124.728,241.81 123.395,239.977 125.5,235.5 Z"/></g>
<g><path style="opacity:1" fill="#fff9f1" d="M 381.5,235.5 C 386.159,235.015 387.492,236.848 385.5,241C 380.728,241.81 379.395,239.977 381.5,235.5 Z"/></g>
<g><path style="opacity:1" fill="#ffb951" d="M 270.5,202.5 C 271.496,218.658 271.83,234.991 271.5,251.5C 288.833,251.5 306.167,251.5 323.5,251.5C 323.17,234.991 323.504,218.658 324.5,202.5C 324.5,219.167 324.5,235.833 324.5,252.5C 306.5,252.5 288.5,252.5 270.5,252.5C 270.5,235.833 270.5,219.167 270.5,202.5 Z"/></g>
<g><path style="opacity:1" fill="#ffb951" d="M 324.5,308.5 C 323.504,292.342 323.17,276.009 323.5,259.5C 306.167,259.5 288.833,259.5 271.5,259.5C 271.83,276.009 271.496,292.342 270.5,308.5C 270.5,291.833 270.5,275.167 270.5,258.5C 288.5,258.5 306.5,258.5 324.5,258.5C 324.5,275.167 324.5,291.833 324.5,308.5 Z"/></g>
<g><path style="opacity:1" fill="#fff9f0" d="M 125.5,269.5 C 130.159,269.015 131.492,270.848 129.5,275C 124.728,275.81 123.395,273.977 125.5,269.5 Z"/></g>
<g><path style="opacity:1" fill="#fffaf1" d="M 381.5,269.5 C 386.159,269.015 387.492,270.848 385.5,275C 380.728,275.81 379.395,273.977 381.5,269.5 Z"/></g>
<g><path style="opacity:1" fill="#fff6e9" d="M 134.5,301.5 C 139.493,301.997 140.493,304.164 137.5,308C 136.216,308.684 135.049,308.517 134,307.5C 133.322,305.402 133.489,303.402 134.5,301.5 Z"/></g>
<g><path style="opacity:1" fill="#fff3e2" d="M 373.5,301.5 C 378.493,301.997 379.493,304.164 376.5,308C 371.382,307.824 370.382,305.658 373.5,301.5 Z"/></g>
<g><path style="opacity:1" fill="#fff6e9" d="M 150.5,331.5 C 152.199,331.34 153.866,331.506 155.5,332C 156.813,335.692 155.48,337.359 151.5,337C 149.365,335.444 149.032,333.611 150.5,331.5 Z"/></g>
<g><path style="opacity:1" fill="#fff6e9" d="M 355.5,331.5 C 357.199,331.34 358.866,331.506 360.5,332C 361.813,335.692 360.48,337.359 356.5,337C 354.365,335.444 354.032,333.611 355.5,331.5 Z"/></g>
<g><path style="opacity:1" fill="#fff2e0" d="M 175.5,354.5 C 180.493,354.997 181.493,357.164 178.5,361C 173.382,360.824 172.382,358.658 175.5,354.5 Z"/></g>
<g><path style="opacity:1" fill="#fff3e1" d="M 332.5,354.5 C 337.493,354.997 338.493,357.164 335.5,361C 330.382,360.824 329.382,358.658 332.5,354.5 Z"/></g>
<g><path style="opacity:1" fill="#fff5e6" d="M 203.5,372.5 C 205.199,372.34 206.866,372.506 208.5,373C 209.813,376.692 208.48,378.359 204.5,378C 202.365,376.444 202.032,374.611 203.5,372.5 Z"/></g>
<g><path style="opacity:1" fill="#fff5e5" d="M 302.5,372.5 C 304.199,372.34 305.866,372.506 307.5,373C 308.813,376.692 307.48,378.359 303.5,378C 301.365,376.444 301.032,374.611 302.5,372.5 Z"/></g>
<g><path style="opacity:1" fill="#fff9f0" d="M 270.5,380.5 C 275.159,380.015 276.492,381.848 274.5,386C 269.728,386.81 268.395,384.977 270.5,380.5 Z"/></g>
<g><path style="opacity:1" fill="#fffaf2" d="M 236.5,380.5 C 241.159,380.015 242.492,381.848 240.5,386C 235.728,386.81 234.395,384.977 236.5,380.5 Z"/></g>
</svg>
