<?xml version="1.0" encoding="UTF-8"?>
<!DOCTYPE svg PUBLIC "-//W3C//DTD SVG 1.1//EN" "http://www.w3.org/Graphics/SVG/1.1/DTD/svg11.dtd">
<svg xmlns="http://www.w3.org/2000/svg" version="1.1" width="48px" height="48px" style="shape-rendering:geometricPrecision; text-rendering:geometricPrecision; image-rendering:optimizeQuality; fill-rule:evenodd; clip-rule:evenodd" xmlns:xlink="http://www.w3.org/1999/xlink">
<g><path style="opacity:0.978" fill="#fbd634" d="M 31.5,4.5 C 31.5,17.1667 31.5,29.8333 31.5,42.5C 26.1667,43.8333 20.8333,43.8333 15.5,42.5C 15.5,29.8333 15.5,17.1667 15.5,4.5C 20.8333,3.16667 26.1667,3.16667 31.5,4.5 Z"/></g>
<g><path style="opacity:0.953" fill="#b61b1b" d="M 31.5,4.5 C 43.7648,11.4113 46.9314,21.4113 41,34.5C 38.716,38.2239 35.5493,40.8906 31.5,42.5C 31.5,29.8333 31.5,17.1667 31.5,4.5 Z"/></g>
<g><path style="opacity:0.97" fill="#0d46a1" d="M 15.5,4.5 C 15.5,17.1667 15.5,29.8333 15.5,42.5C 3.23522,35.5887 0.0685534,25.5887 6,12.5C 8.28398,8.77612 11.4507,6.10945 15.5,4.5 Z"/></g>
<g><path style="opacity:1" fill="#925c41" d="M 26.5,19.5 C 27.4345,20.5676 27.7678,21.901 27.5,23.5C 26.5,23.5 25.5,23.5 24.5,23.5C 24.5,24.5 24.5,25.5 24.5,26.5C 23.5,26.5 22.5,26.5 21.5,26.5C 20.2502,26.5774 19.4169,27.244 19,28.5C 18.5017,25.1832 18.335,21.8499 18.5,18.5C 18.56,17.9569 18.8933,17.6236 19.5,17.5C 21.2189,20.0484 22.5522,19.715 23.5,16.5C 24.1411,17.9935 25.1411,18.9935 26.5,19.5 Z"/></g>
<g><path style="opacity:1" fill="#a1893d" d="M 18.5,18.5 C 18.335,21.8499 18.5017,25.1832 19,28.5C 19.4169,27.244 20.2502,26.5774 21.5,26.5C 22.057,28.2352 22.3903,29.9018 22.5,31.5C 20.9891,30.4975 19.3224,29.8308 17.5,29.5C 17.185,25.6286 17.5184,21.9619 18.5,18.5 Z"/></g>
<g><path style="opacity:1" fill="#6c5f62" d="M 28.5,18.5 C 28.6646,21.5184 28.498,24.5184 28,27.5C 26.7567,26.6637 25.5901,26.997 24.5,28.5C 25.7914,29.5272 25.7914,30.5272 24.5,31.5C 23.8333,31.5 23.1667,31.5 22.5,31.5C 22.3903,29.9018 22.057,28.2352 21.5,26.5C 22.5,26.5 23.5,26.5 24.5,26.5C 24.5,25.5 24.5,24.5 24.5,23.5C 25.5,23.5 26.5,23.5 27.5,23.5C 27.7678,21.901 27.4345,20.5676 26.5,19.5C 26.7107,17.5759 27.3774,17.2426 28.5,18.5 Z"/></g>
<g><path style="opacity:1" fill="#b08d41" d="M 28.5,18.5 C 29.8077,22.0187 29.8077,25.6853 28.5,29.5C 27.3777,30.6302 26.0443,31.2969 24.5,31.5C 25.7914,30.5272 25.7914,29.5272 24.5,28.5C 25.5901,26.997 26.7567,26.6637 28,27.5C 28.498,24.5184 28.6646,21.5184 28.5,18.5 Z"/></g>
</svg>
