<?xml version="1.0" encoding="UTF-8"?>
<!DOCTYPE svg PUBLIC "-//W3C//DTD SVG 1.1//EN" "http://www.w3.org/Graphics/SVG/1.1/DTD/svg11.dtd">
<svg xmlns="http://www.w3.org/2000/svg" version="1.1" width="512px" height="512px" style="shape-rendering:geometricPrecision; text-rendering:geometricPrecision; image-rendering:optimizeQuality; fill-rule:evenodd; clip-rule:evenodd" xmlns:xlink="http://www.w3.org/1999/xlink">
<g><path style="opacity:0.934" fill="#000000" d="M 233.5,-0.5 C 248.167,-0.5 262.833,-0.5 277.5,-0.5C 367.555,10.0943 435.388,54.4276 481,132.5C 497.855,164.278 508.022,197.945 511.5,233.5C 511.5,248.167 511.5,262.833 511.5,277.5C 500.906,367.555 456.572,435.388 378.5,481C 346.722,497.855 313.055,508.022 277.5,511.5C 262.833,511.5 248.167,511.5 233.5,511.5C 143.445,500.906 75.612,456.572 30,378.5C 13.1449,346.722 2.97822,313.055 -0.5,277.5C -0.5,262.833 -0.5,248.167 -0.5,233.5C 10.0943,143.445 54.4276,75.612 132.5,30C 164.278,13.1449 197.945,2.97822 233.5,-0.5 Z M 238.5,16.5 C 333.927,14.1239 407.76,52.4573 460,131.5C 498.372,198.224 504.706,267.891 479,340.5C 447.513,417.32 391.68,466.487 311.5,488C 210.277,507.488 127.443,477.322 63,397.5C 14.2533,327.203 3.91994,251.536 32,170.5C 71.0476,79.2927 139.881,27.9593 238.5,16.5 Z M 242.5,43.5 C 329.125,42.3802 394.958,78.3802 440,151.5C 476.667,220.833 476.667,290.167 440,359.5C 401.185,424.021 344.019,459.854 268.5,467C 181.847,468.604 116.014,432.77 71,359.5C 34.3333,290.167 34.3333,220.833 71,151.5C 110.023,87.0528 167.19,51.0528 242.5,43.5 Z M 158.5,145.5 C 160.341,173.184 172.174,195.517 194,212.5C 192.723,223.227 197.223,227.06 207.5,224C 209.5,220.667 212.167,218 215.5,216C 242.167,215.333 268.833,215.333 295.5,216C 298.939,218.527 301.939,221.527 304.5,225C 314.337,226.497 318.503,222.33 317,212.5C 338.897,195.712 350.564,173.379 352,145.5C 358.458,182.586 345.792,211.253 314,231.5C 311.083,229.607 307.916,229.107 304.5,230C 302.333,230.833 300.833,232.333 300,234.5C 294.559,267.481 289.225,300.481 284,333.5C 283.226,337.714 281.393,341.381 278.5,344.5C 279.807,312.05 281.807,279.55 284.5,247C 283.741,237.953 279.075,234.953 270.5,238C 269.667,238.833 268.833,239.667 268,240.5C 264.861,276.452 262.194,312.452 260,348.5C 257,349.833 254,349.833 251,348.5C 248.806,312.452 246.139,276.452 243,240.5C 236.816,234.754 231.482,235.421 227,242.5C 228.546,275.69 230.713,308.856 233.5,342C 233.167,342.833 232.833,343.667 232.5,344.5C 229.246,341.585 227.412,337.919 227,333.5C 221.775,300.481 216.441,267.481 211,234.5C 208.459,229.931 204.625,228.431 199.5,230C 198.584,230.374 197.75,230.874 197,231.5C 165.38,211.258 152.546,182.591 158.5,145.5 Z"/></g>
<g><path style="opacity:0.932" fill="#000000" d="M 237.5,26.5 C 334.481,23.2255 407.648,62.8922 457,145.5C 486.835,203.184 492.502,263.184 474,325.5C 448.5,399 399,448.5 325.5,474C 245.261,496.855 172.595,482.522 107.5,431C 41.22,371.168 15.72,297.001 31,208.5C 46.7206,140.17 84.8873,88.6699 145.5,54C 174.502,38.8286 205.169,29.6619 237.5,26.5 Z M 242.5,43.5 C 167.19,51.0528 110.023,87.0528 71,151.5C 34.3333,220.833 34.3333,290.167 71,359.5C 116.014,432.77 181.847,468.604 268.5,467C 344.019,459.854 401.185,424.021 440,359.5C 476.667,290.167 476.667,220.833 440,151.5C 394.958,78.3802 329.125,42.3802 242.5,43.5 Z M 158.5,145.5 C 152.546,182.591 165.38,211.258 197,231.5C 197.75,230.874 198.584,230.374 199.5,230C 204.625,228.431 208.459,229.931 211,234.5C 216.441,267.481 221.775,300.481 227,333.5C 227.412,337.919 229.246,341.585 232.5,344.5C 232.833,343.667 233.167,342.833 233.5,342C 230.713,308.856 228.546,275.69 227,242.5C 231.482,235.421 236.816,234.754 243,240.5C 246.139,276.452 248.806,312.452 251,348.5C 254,349.833 257,349.833 260,348.5C 262.194,312.452 264.861,276.452 268,240.5C 268.833,239.667 269.667,238.833 270.5,238C 279.075,234.953 283.741,237.953 284.5,247C 281.807,279.55 279.807,312.05 278.5,344.5C 281.393,341.381 283.226,337.714 284,333.5C 289.225,300.481 294.559,267.481 300,234.5C 300.833,232.333 302.333,230.833 304.5,230C 307.916,229.107 311.083,229.607 314,231.5C 345.792,211.253 358.458,182.586 352,145.5C 350.564,173.379 338.897,195.712 317,212.5C 318.503,222.33 314.337,226.497 304.5,225C 301.939,221.527 298.939,218.527 295.5,216C 268.833,215.333 242.167,215.333 215.5,216C 212.167,218 209.5,220.667 207.5,224C 197.223,227.06 192.723,223.227 194,212.5C 172.174,195.517 160.341,173.184 158.5,145.5 Z"/></g>
<g><path style="opacity:0.94" fill="#000000" d="M 204.5,73.5 C 214.853,74.7327 217.52,79.8994 212.5,89C 178.203,111.229 169.37,141.062 186,178.5C 191.309,187.643 198.476,194.976 207.5,200.5C 210.692,199.134 214.026,198.301 217.5,198C 242.833,197.333 268.167,197.333 293.5,198C 296.974,198.301 300.308,199.134 303.5,200.5C 330.898,180.805 339.398,154.805 329,122.5C 321.928,108.432 311.761,97.2651 298.5,89C 293.715,81.1863 295.715,76.0197 304.5,73.5C 338.734,86.2329 360.567,110.233 370,145.5C 376.011,181.806 365.178,211.972 337.5,236C 356.167,236.333 374.833,236.667 393.5,237C 398.609,240.366 399.776,244.866 397,250.5C 383.432,271.29 364.099,281.957 339,282.5C 335.255,281.703 331.421,281.203 327.5,281C 321.632,277.96 320.132,273.46 323,267.5C 323.903,266.299 325.069,265.465 326.5,265C 342.843,266.402 357.843,262.736 371.5,254C 352.491,253.167 333.491,253.334 314.5,254.5C 309.567,284.865 304.4,315.198 299,345.5C 289.649,362.757 275.149,369.757 255.5,366.5C 231.738,369.849 216.571,360.182 210,337.5C 205.714,309.781 201.214,282.115 196.5,254.5C 177.509,253.334 158.509,253.167 139.5,254C 144.412,257.421 149.746,260.088 155.5,262C 165.813,263.763 176.147,265.096 186.5,266C 191.096,272.086 190.096,277.086 183.5,281C 159.351,284.395 138.518,277.562 121,260.5C 117.837,256.844 115.171,252.844 113,248.5C 111.431,243.375 112.931,239.541 117.5,237C 136.167,236.667 154.833,236.333 173.5,236C 136.954,201.892 129.787,162.392 152,117.5C 165.126,97.5346 182.626,82.8679 204.5,73.5 Z M 158.5,145.5 C 152.546,182.591 165.38,211.258 197,231.5C 197.75,230.874 198.584,230.374 199.5,230C 204.625,228.431 208.459,229.931 211,234.5C 216.441,267.481 221.775,300.481 227,333.5C 227.412,337.919 229.246,341.585 232.5,344.5C 232.833,343.667 233.167,342.833 233.5,342C 230.713,308.856 228.546,275.69 227,242.5C 231.482,235.421 236.816,234.754 243,240.5C 246.139,276.452 248.806,312.452 251,348.5C 254,349.833 257,349.833 260,348.5C 262.194,312.452 264.861,276.452 268,240.5C 268.833,239.667 269.667,238.833 270.5,238C 279.075,234.953 283.741,237.953 284.5,247C 281.807,279.55 279.807,312.05 278.5,344.5C 281.393,341.381 283.226,337.714 284,333.5C 289.225,300.481 294.559,267.481 300,234.5C 300.833,232.333 302.333,230.833 304.5,230C 307.916,229.107 311.083,229.607 314,231.5C 345.792,211.253 358.458,182.586 352,145.5C 350.564,173.379 338.897,195.712 317,212.5C 318.503,222.33 314.337,226.497 304.5,225C 301.939,221.527 298.939,218.527 295.5,216C 268.833,215.333 242.167,215.333 215.5,216C 212.167,218 209.5,220.667 207.5,224C 197.223,227.06 192.723,223.227 194,212.5C 172.174,195.517 160.341,173.184 158.5,145.5 Z"/></g>
<g><path style="opacity:0.941" fill="#000000" d="M 91.5,194.5 C 97.82,193.985 101.487,196.819 102.5,203C 85.4675,261.504 95.9675,314.337 134,361.5C 163.615,394.057 200.448,412.391 244.5,416.5C 248.135,415.228 251.802,413.895 255.5,412.5C 259.198,413.895 262.865,415.228 266.5,416.5C 336.942,408.212 384.442,370.879 409,304.5C 419.055,270.633 418.888,236.8 408.5,203C 410.914,193.996 416.08,192.163 424,197.5C 426.939,205.317 429.272,213.317 431,221.5C 434.071,216.701 438.238,215.535 443.5,218C 445.764,219.779 447.097,222.113 447.5,225C 443.42,235.995 438.92,246.828 434,257.5C 433.497,264.201 433.164,270.868 433,277.5C 438.695,273.281 443.362,274.281 447,280.5C 447.667,282.5 447.667,284.5 447,286.5C 439.667,295.167 432.333,303.833 425,312.5C 422.691,318.432 420.191,324.266 417.5,330C 426.963,329.127 430.797,333.293 429,342.5C 428.535,343.931 427.701,345.097 426.5,346C 417.833,351 409.167,356 400.5,361C 395.833,366.333 391.167,371.667 386.5,377C 393.362,377.856 396.529,381.69 396,388.5C 395.215,390.286 394.049,391.786 392.5,393C 381.631,396.134 370.631,398.8 359.5,401C 353.833,404.667 348.167,408.333 342.5,412C 349.16,414.49 350.993,418.99 348,425.5C 346.164,427.708 343.831,429.042 341,429.5C 330.326,428.233 319.659,426.899 309,425.5C 297.842,429.399 286.342,431.899 274.5,433C 274.382,436.03 274.215,439.197 274,442.5C 270.634,447.609 266.134,448.776 260.5,446C 258.954,443.743 257.288,441.576 255.5,439.5C 251.477,447.899 245.643,449.566 238,444.5C 236.583,440.657 236.083,436.824 236.5,433C 224.658,431.899 213.158,429.399 202,425.5C 191.341,426.899 180.674,428.233 170,429.5C 160.692,426.161 159.192,420.661 165.5,413C 166.5,412.667 167.5,412.333 168.5,412C 162.833,408.333 157.167,404.667 151.5,401C 140.369,398.8 129.369,396.134 118.5,393C 113.021,387.694 113.355,382.694 119.5,378C 121.167,377.667 122.833,377.333 124.5,377C 119.833,371.667 115.167,366.333 110.5,361C 101.085,355.877 91.9181,350.377 83,344.5C 79.5108,334.652 83.0108,329.818 93.5,330C 90.8094,324.266 88.3094,318.432 86,312.5C 78.6667,303.833 71.3333,295.167 64,286.5C 62.6606,279.848 65.3273,275.848 72,274.5C 74.3161,274.934 76.3161,275.934 78,277.5C 77.836,270.868 77.5027,264.201 77,257.5C 72.08,246.828 67.58,235.995 63.5,225C 65.5586,217.533 70.2253,215.199 77.5,218C 78.7014,218.903 79.5348,220.069 80,221.5C 81.6874,214.084 83.6874,206.75 86,199.5C 87.3516,197.251 89.1849,195.584 91.5,194.5 Z"/></g>
</svg>
