<?xml version="1.0" encoding="UTF-8"?>
<!DOCTYPE svg PUBLIC "-//W3C//DTD SVG 1.1//EN" "http://www.w3.org/Graphics/SVG/1.1/DTD/svg11.dtd">
<svg xmlns="http://www.w3.org/2000/svg" version="1.1" width="64px" height="64px" style="shape-rendering:geometricPrecision; text-rendering:geometricPrecision; image-rendering:optimizeQuality; fill-rule:evenodd; clip-rule:evenodd" xmlns:xlink="http://www.w3.org/1999/xlink">
<g><path style="opacity:0.591" fill="#000000" d="M 13.5,9.5 C 15.1992,9.33982 16.8659,9.50649 18.5,10C 20.4005,13.6841 22.9005,16.8508 26,19.5C 27.4136,28.4759 28.5803,37.4759 29.5,46.5C 30.8333,46.5 32.1667,46.5 33.5,46.5C 34.4197,37.4759 35.5864,28.4759 37,19.5C 40.0995,16.8508 42.5995,13.6841 44.5,10C 46.1667,9.33333 47.8333,9.33333 49.5,10C 50.7759,13.5003 52.6092,16.6669 55,19.5C 55.4998,30.495 55.6665,41.495 55.5,52.5C 53.1667,52.5 50.8333,52.5 48.5,52.5C 48.5,40.5 48.5,28.5 48.5,16.5C 47.1667,16.5 45.8333,16.5 44.5,16.5C 43.744,25.5482 42.5773,34.5482 41,43.5C 37.6072,45.691 35.2739,48.691 34,52.5C 32.3333,53.8333 30.6667,53.8333 29,52.5C 27.6783,48.6832 25.3449,45.6832 22,43.5C 20.4227,34.5482 19.256,25.5482 18.5,16.5C 17.1667,16.5 15.8333,16.5 14.5,16.5C 14.5,28.5 14.5,40.5 14.5,52.5C 12.1667,52.5 9.83333,52.5 7.5,52.5C 7.33349,41.495 7.50015,30.495 8,19.5C 10.4908,16.5267 12.3242,13.1933 13.5,9.5 Z M 15.5,11.5 C 17.6246,12.3676 17.7913,13.3676 16,14.5C 14.3167,13.8235 14.1501,12.8235 15.5,11.5 Z M 46.5,11.5 C 48.6246,12.3676 48.7913,13.3676 47,14.5C 45.3167,13.8235 45.1501,12.8235 46.5,11.5 Z M 20.5,17.5 C 22.1733,18.343 23.34,19.6763 24,21.5C 25.2859,29.4144 26.1192,37.081 26.5,44.5C 25.2011,43.91 24.3678,42.91 24,41.5C 22.831,33.478 21.6644,25.478 20.5,17.5 Z M 41.5,17.5 C 42.0431,17.56 42.3764,17.8933 42.5,18.5C 41.2534,26.1358 40.0867,33.8025 39,41.5C 38.5756,43.6145 37.4089,44.4479 35.5,44C 36.9485,36.5897 38.1152,29.0897 39,21.5C 39.6622,20.0161 40.4955,18.6828 41.5,17.5 Z M 10.5,19.5 C 11.3091,21.2922 11.8091,23.2922 12,25.5C 12.4997,33.8267 12.6664,42.16 12.5,50.5C 11.5,50.5 10.5,50.5 9.5,50.5C 9.2145,40.1148 9.54783,29.7815 10.5,19.5 Z M 51.5,19.5 C 52.2216,19.9175 52.7216,20.5842 53,21.5C 53.4998,31.1609 53.6665,40.8276 53.5,50.5C 52.5,50.5 51.5,50.5 50.5,50.5C 50.3277,40.143 50.661,29.8097 51.5,19.5 Z M 30.5,48.5 C 32.337,48.6395 32.6704,49.3061 31.5,50.5C 30.7025,50.0431 30.3691,49.3764 30.5,48.5 Z"/></g>
</svg>
