<?xml version="1.0" encoding="UTF-8"?>
<!DOCTYPE svg PUBLIC "-//W3C//DTD SVG 1.1//EN" "http://www.w3.org/Graphics/SVG/1.1/DTD/svg11.dtd">
<svg xmlns="http://www.w3.org/2000/svg" version="1.1" width="48px" height="48px" style="shape-rendering:geometricPrecision; text-rendering:geometricPrecision; image-rendering:optimizeQuality; fill-rule:evenodd; clip-rule:evenodd" xmlns:xlink="http://www.w3.org/1999/xlink">
<g><path style="opacity:0.962" fill="#c82f28" d="M 20.5,3.5 C 22.5,19.5 24.5,19.5 26.5,3.5C 31.35,3.92492 35.35,5.92492 38.5,9.5C 36.0381,12.4639 33.3714,15.2972 30.5,18C 34.117,16.9292 37.4503,15.0958 40.5,12.5C 42.8676,14.9557 43.8676,17.9557 43.5,21.5C 27.5,22.8333 27.5,24.1667 43.5,25.5C 43.4725,28.9164 42.4725,31.9164 40.5,34.5C 37.4503,31.9042 34.117,30.0708 30.5,29C 33.3714,31.7028 36.0381,34.5361 38.5,37.5C 35.35,41.0751 31.35,43.0751 26.5,43.5C 24.5,27.5 22.5,27.5 20.5,43.5C 15.65,43.0751 11.65,41.0751 8.5,37.5C 10.9619,34.5361 13.6286,31.7028 16.5,29C 12.883,30.0708 9.5497,31.9042 6.5,34.5C 4.1324,32.0443 3.1324,29.0443 3.5,25.5C 19.5,24.1667 19.5,22.8333 3.5,21.5C 3.1324,17.9557 4.1324,14.9557 6.5,12.5C 9.5497,15.0958 12.883,16.9292 16.5,18C 13.6286,15.2972 10.9619,12.4639 8.5,9.5C 11.65,5.92492 15.65,3.92492 20.5,3.5 Z"/></g>
<g><path style="opacity:0.981" fill="#fce03a" d="M 20.5,3.5 C 22.5,3.5 24.5,3.5 26.5,3.5C 24.5,19.5 22.5,19.5 20.5,3.5 Z"/></g>
<g><path style="opacity:0.949" fill="#fce33b" d="M 8.5,9.5 C 10.9619,12.4639 13.6286,15.2972 16.5,18C 12.883,16.9292 9.5497,15.0958 6.5,12.5C 6.93205,11.2905 7.59872,10.2905 8.5,9.5 Z"/></g>
<g><path style="opacity:0.948" fill="#fce43b" d="M 38.5,9.5 C 39.4013,10.2905 40.0679,11.2905 40.5,12.5C 37.4503,15.0958 34.117,16.9292 30.5,18C 33.3714,15.2972 36.0381,12.4639 38.5,9.5 Z"/></g>
<g><path style="opacity:0.994" fill="#fee83a" d="M 20.5,18.5 C 28.4863,17.998 30.4863,21.1647 26.5,28C 18.424,28.8047 16.424,25.638 20.5,18.5 Z"/></g>
<g><path style="opacity:0.984" fill="#fbdd39" d="M 3.5,21.5 C 19.5,22.8333 19.5,24.1667 3.5,25.5C 3.5,24.1667 3.5,22.8333 3.5,21.5 Z"/></g>
<g><path style="opacity:0.984" fill="#f9d639" d="M 43.5,21.5 C 43.5,22.8333 43.5,24.1667 43.5,25.5C 27.5,24.1667 27.5,22.8333 43.5,21.5 Z"/></g>
<g><path style="opacity:0.948" fill="#fde43b" d="M 8.5,37.5 C 7.59872,36.7095 6.93205,35.7095 6.5,34.5C 9.5497,31.9042 12.883,30.0708 16.5,29C 13.6286,31.7028 10.9619,34.5361 8.5,37.5 Z"/></g>
<g><path style="opacity:0.947" fill="#fde53b" d="M 40.5,34.5 C 40.0679,35.7095 39.4013,36.7095 38.5,37.5C 36.0381,34.5361 33.3714,31.7028 30.5,29C 34.117,30.0708 37.4503,31.9042 40.5,34.5 Z"/></g>
<g><path style="opacity:0.981" fill="#fbde39" d="M 26.5,43.5 C 24.5,43.5 22.5,43.5 20.5,43.5C 22.5,27.5 24.5,27.5 26.5,43.5 Z"/></g>
</svg>
