<?xml version="1.0" encoding="UTF-8"?>
<!DOCTYPE svg PUBLIC "-//W3C//DTD SVG 1.1//EN" "http://www.w3.org/Graphics/SVG/1.1/DTD/svg11.dtd">
<svg xmlns="http://www.w3.org/2000/svg" version="1.1" width="512px" height="512px" style="shape-rendering:geometricPrecision; text-rendering:geometricPrecision; image-rendering:optimizeQuality; fill-rule:evenodd; clip-rule:evenodd" xmlns:xlink="http://www.w3.org/1999/xlink">
<g><path style="opacity:0.965" fill="#2a8cff" d="M 240.5,31.5 C 249.5,31.5 258.5,31.5 267.5,31.5C 266.167,46.5 266.167,61.5 267.5,76.5C 258.5,76.5 249.5,76.5 240.5,76.5C 240.5,61.5 240.5,46.5 240.5,31.5 Z M 252.5,45.5 C 260.658,44.8229 264.158,48.4895 263,56.5C 260.774,60.8608 257.274,62.3608 252.5,61C 248.139,58.7742 246.639,55.2742 248,50.5C 249.366,48.6383 250.866,46.9717 252.5,45.5 Z"/></g>
<g><path style="opacity:0.986" fill="#2f86ff" d="M 267.5,31.5 C 276.066,31.7098 284.399,32.7098 292.5,34.5C 292.5,49.5 292.5,64.5 292.5,79.5C 284.178,78.4181 275.845,77.4181 267.5,76.5C 266.167,61.5 266.167,46.5 267.5,31.5 Z"/></g>
<g><path style="opacity:0.985" fill="#2592ff" d="M 240.5,31.5 C 240.5,46.5 240.5,61.5 240.5,76.5C 231.844,77.8315 223.177,79.1648 214.5,80.5C 214.5,65.1667 214.5,49.8333 214.5,34.5C 223.13,33.2078 231.796,32.2078 240.5,31.5 Z"/></g>
<g><path style="opacity:0.985" fill="#347fff" d="M 292.5,34.5 C 303.107,35.7356 313.44,38.069 323.5,41.5C 322.516,57.4225 322.183,73.4225 322.5,89.5C 312.619,85.5397 302.619,82.2064 292.5,79.5C 292.5,64.5 292.5,49.5 292.5,34.5 Z"/></g>
<g><path style="opacity:0.984" fill="#1f99ff" d="M 214.5,34.5 C 214.5,49.8333 214.5,65.1667 214.5,80.5C 204.522,83.6037 194.522,86.937 184.5,90.5C 184.183,74.4225 184.516,58.4225 185.5,42.5C 194.852,39.0761 204.519,36.4095 214.5,34.5 Z"/></g>
<g><path style="opacity:0.984" fill="#1a9fff" d="M 185.5,42.5 C 184.516,58.4225 184.183,74.4225 184.5,90.5C 175.623,94.6944 166.957,99.361 158.5,104.5C 159.152,87.4665 158.485,70.7998 156.5,54.5C 165.538,49.1531 175.204,45.1531 185.5,42.5 Z"/></g>
<g><path style="opacity:0.987" fill="#3979ff" d="M 323.5,41.5 C 332.393,44.2811 341.059,47.6144 349.5,51.5C 348.847,68.2647 348.18,84.9314 347.5,101.5C 339.567,96.7006 331.234,92.7006 322.5,89.5C 322.183,73.4225 322.516,57.4225 323.5,41.5 Z"/></g>
<g><path style="opacity:0.985" fill="#15a5ff" d="M 156.5,54.5 C 158.485,70.7998 159.152,87.4665 158.5,104.5C 149.572,110.753 140.906,117.419 132.5,124.5C 132.83,105.659 132.497,86.9925 131.5,68.5C 139.317,63.0401 147.651,58.3734 156.5,54.5 Z"/></g>
<g><path style="opacity:0.987" fill="#3f73ff" d="M 349.5,51.5 C 358.353,55.422 366.687,60.0887 374.5,65.5C 373.833,83.5 373.167,101.5 372.5,119.5C 364.658,112.753 356.325,106.753 347.5,101.5C 348.18,84.9314 348.847,68.2647 349.5,51.5 Z"/></g>
<g><path style="opacity:0.984" fill="#436dff" d="M 374.5,65.5 C 383.415,70.7571 391.748,76.7571 399.5,83.5C 399.205,90.5878 399.538,97.5878 400.5,104.5C 390.487,105.692 388.154,110.525 393.5,119C 395.345,120.128 397.345,120.628 399.5,120.5C 399.827,129.682 399.493,138.682 398.5,147.5C 390.879,137.212 382.213,127.879 372.5,119.5C 373.167,101.5 373.833,83.5 374.5,65.5 Z"/></g>
<g><path style="opacity:0.968" fill="#11abff" d="M 131.5,68.5 C 132.497,86.9925 132.83,105.659 132.5,124.5C 123.051,134.273 114.385,144.606 106.5,155.5C 106.5,143.167 106.5,130.833 106.5,118.5C 117.415,122.416 121.582,118.75 119,107.5C 115.351,104.119 111.517,103.786 107.5,106.5C 106.833,100.5 106.167,94.5 105.5,88.5C 113.407,80.876 122.073,74.2094 131.5,68.5 Z"/></g>
<g><path style="opacity:0.98" fill="#4866ff" d="M 399.5,83.5 C 411.205,92.8708 421.538,103.537 430.5,115.5C 429.833,146.833 429.167,178.167 428.5,209.5C 422.749,186.668 412.749,166.001 398.5,147.5C 399.493,138.682 399.827,129.682 399.5,120.5C 408.337,115.79 408.67,110.457 400.5,104.5C 399.538,97.5878 399.205,90.5878 399.5,83.5 Z"/></g>
<g><path style="opacity:0.995" fill="#2a8cff" d="M 240.5,91.5 C 249.5,91.5 258.5,91.5 267.5,91.5C 266.171,127.598 266.171,163.598 267.5,199.5C 259.484,206.846 251.151,213.846 242.5,220.5C 240.505,177.846 239.839,134.846 240.5,91.5 Z"/></g>
<g><path style="opacity:0.987" fill="#2f86ff" d="M 267.5,91.5 C 276.271,92.1878 284.938,93.5211 293.5,95.5C 292.87,101.934 292.203,108.267 291.5,114.5C 284.351,114.817 281.517,118.484 283,125.5C 284.86,128.204 287.36,129.871 290.5,130.5C 292.136,146.436 293.136,162.436 293.5,178.5C 285.418,186.252 276.751,193.252 267.5,199.5C 266.171,163.598 266.171,127.598 267.5,91.5 Z"/></g>
<g><path style="opacity:0.992" fill="#2592ff" d="M 240.5,91.5 C 239.839,134.846 240.505,177.846 242.5,220.5C 234.645,226.694 226.812,233.028 219,239.5C 218.667,219.833 218.333,200.167 218,180.5C 216.624,179.295 215.458,177.962 214.5,176.5C 214.5,150.167 214.5,123.833 214.5,97.5C 213.5,97.5 212.5,97.5 211.5,97.5C 220.861,94.5468 230.527,92.5468 240.5,91.5 Z"/></g>
<g><path style="opacity:0.958" fill="#3480ff" d="M 293.5,95.5 C 303.46,98.042 313.127,101.375 322.5,105.5C 322.5,112.5 322.5,119.5 322.5,126.5C 312.237,122.083 301.904,118.083 291.5,114.5C 292.203,108.267 292.87,101.934 293.5,95.5 Z"/></g>
<g><path style="opacity:0.983" fill="#0bb2ff" d="M 105.5,88.5 C 106.167,94.5 106.833,100.5 107.5,106.5C 103.913,110.198 103.579,114.198 106.5,118.5C 106.5,130.833 106.5,143.167 106.5,155.5C 91.1304,178.932 81.4638,204.599 77.5,232.5C 76.8333,195.5 76.1667,158.5 75.5,121.5C 84.0511,109.278 94.0511,98.2775 105.5,88.5 Z"/></g>
<g><path style="opacity:0.984" fill="#2097ff" d="M 211.5,97.5 C 212.5,97.5 213.5,97.5 214.5,97.5C 214.5,123.833 214.5,150.167 214.5,176.5C 209.191,175.565 205.691,177.565 204,182.5C 203.333,231.167 203.333,279.833 204,328.5C 205.446,333.898 208.946,335.898 214.5,334.5C 214.176,361.241 214.509,387.908 215.5,414.5C 208.833,413.276 202.499,411.276 196.5,408.5C 197.499,306.335 197.833,204.001 197.5,101.5C 202.109,99.9637 206.776,98.6304 211.5,97.5 Z"/></g>
<g><path style="opacity:0.998" fill="#1e9bff" d="M 197.5,101.5 C 197.833,204.001 197.499,306.335 196.5,408.5C 192.213,407.352 188.213,405.685 184.5,403.5C 184.5,304.833 184.5,206.167 184.5,107.5C 188.649,105.261 192.982,103.261 197.5,101.5 Z"/></g>
<g><path style="opacity:0.997" fill="#1a9fff" d="M 184.5,107.5 C 184.5,206.167 184.5,304.833 184.5,403.5C 175.035,399.348 166.368,394.015 158.5,387.5C 158.5,299.5 158.5,211.5 158.5,123.5C 166.155,116.665 174.821,111.332 184.5,107.5 Z"/></g>
<g><path style="opacity:0.96" fill="#3978ff" d="M 322.5,105.5 C 331.824,109.491 340.49,114.491 348.5,120.5C 348.825,128.352 348.492,136.018 347.5,143.5C 339.417,137.409 331.084,131.743 322.5,126.5C 322.5,119.5 322.5,112.5 322.5,105.5 Z"/></g>
<g><path style="opacity:0.987" fill="#4d60ff" d="M 430.5,115.5 C 440.576,127.304 448.91,140.304 455.5,154.5C 455.5,185.5 455.5,216.5 455.5,247.5C 449.593,250.223 448.093,254.557 451,260.5C 452.271,261.883 453.771,262.883 455.5,263.5C 455.5,294.5 455.5,325.5 455.5,356.5C 448.822,371.206 440.155,384.539 429.5,396.5C 429.831,365.329 429.498,334.329 428.5,303.5C 436.463,272.124 436.463,240.79 428.5,209.5C 429.167,178.167 429.833,146.833 430.5,115.5 Z"/></g>
<g><path style="opacity:0.991" fill="#07b6ff" d="M 75.5,121.5 C 76.1667,158.5 76.8333,195.5 77.5,232.5C 76.1861,247.503 76.1861,262.503 77.5,277.5C 76.5015,314.996 76.1682,352.663 76.5,390.5C 71.7748,385.397 67.7748,379.731 64.5,373.5C 65.8333,294.833 65.8333,216.167 64.5,137.5C 67.6856,131.782 71.3523,126.448 75.5,121.5 Z"/></g>
<g><path style="opacity:0.996" fill="#15a5ff" d="M 158.5,123.5 C 158.5,211.5 158.5,299.5 158.5,387.5C 148.64,381.314 139.973,373.647 132.5,364.5C 132.5,291.833 132.5,219.167 132.5,146.5C 139.973,137.353 148.64,129.686 158.5,123.5 Z"/></g>
<g><path style="opacity:0.993" fill="#347fff" d="M 290.5,130.5 C 302.011,133.44 312.678,138.107 322.5,144.5C 322.167,231.335 322.501,318.002 323.5,404.5C 314.282,409.131 304.616,412.798 294.5,415.5C 293.184,401.722 292.517,387.722 292.5,373.5C 292.5,359.663 292.833,345.996 293.5,332.5C 300.202,336.281 304.869,334.614 307.5,327.5C 306.902,326.205 306.402,324.872 306,323.5C 301.306,319.635 296.806,315.635 292.5,311.5C 292.5,274.167 292.5,236.833 292.5,199.5C 296.806,195.365 301.306,191.365 306,187.5C 308.314,181.462 306.314,177.462 300,175.5C 297.779,176.406 295.612,177.406 293.5,178.5C 293.136,162.436 292.136,146.436 290.5,130.5 Z"/></g>
<g><path style="opacity:0.99" fill="#05b9ff" d="M 64.5,137.5 C 65.8333,216.167 65.8333,294.833 64.5,373.5C 59.055,364.945 54.3883,355.945 50.5,346.5C 50.1687,318.662 50.5021,290.995 51.5,263.5C 57.5299,264.132 60.8633,261.465 61.5,255.5C 60.5921,249.201 56.9254,246.534 50.5,247.5C 50.8312,219.995 50.4979,192.662 49.5,165.5C 53.9911,155.849 58.9911,146.515 64.5,137.5 Z"/></g>
<g><path style="opacity:0.991" fill="#426eff" d="M 348.5,120.5 C 366.546,132.212 381.213,147.212 392.5,165.5C 392.168,225.336 392.501,285.002 393.5,344.5C 388.024,353.785 381.357,362.119 373.5,369.5C 373.5,311.167 373.5,252.833 373.5,194.5C 382.375,192.039 384.209,187.039 379,179.5C 370.469,165.801 359.969,153.801 347.5,143.5C 348.492,136.018 348.825,128.352 348.5,120.5 Z"/></g>
<g><path style="opacity:0.997" fill="#3979ff" d="M 322.5,144.5 C 332.33,149.99 340.996,156.99 348.5,165.5C 348.5,240.5 348.5,315.5 348.5,390.5C 344.285,394.195 339.618,397.361 334.5,400C 331.029,402.072 327.362,403.572 323.5,404.5C 322.501,318.002 322.167,231.335 322.5,144.5 Z"/></g>
<g><path style="opacity:0.993" fill="#11abff" d="M 132.5,146.5 C 132.5,219.167 132.5,291.833 132.5,364.5C 121.138,352.114 112.138,338.114 105.5,322.5C 106.833,277.833 106.833,233.167 105.5,188.5C 112.142,172.883 121.142,158.883 132.5,146.5 Z"/></g>
<g><path style="opacity:0.967" fill="#02bdff" d="M 49.5,165.5 C 50.4979,192.662 50.8312,219.995 50.5,247.5C 43.7022,253.205 44.0356,258.538 51.5,263.5C 50.5021,290.995 50.1687,318.662 50.5,346.5C 30.3141,300.477 25.8141,252.81 37,203.5C 40.0759,190.439 44.2426,177.773 49.5,165.5 Z"/></g>
<g><path style="opacity:0.996" fill="#3d75ff" d="M 348.5,165.5 C 353.594,169.258 357.594,173.925 360.5,179.5C 360.5,246.833 360.5,314.167 360.5,381.5C 357.071,385.262 353.071,388.262 348.5,390.5C 348.5,315.5 348.5,240.5 348.5,165.5 Z"/></g>
<g><path style="opacity:0.971" fill="#525bff" d="M 455.5,154.5 C 479.885,203.12 486.052,254.12 474,307.5C 470.019,324.772 463.852,341.105 455.5,356.5C 455.5,325.5 455.5,294.5 455.5,263.5C 461.136,263.685 464.47,261.018 465.5,255.5C 464.863,249.535 461.53,246.868 455.5,247.5C 455.5,216.5 455.5,185.5 455.5,154.5 Z"/></g>
<g><path style="opacity:0.974" fill="#4669ff" d="M 392.5,165.5 C 413.943,197.841 422.777,233.507 419,272.5C 416.122,298.643 407.622,322.643 393.5,344.5C 392.501,285.002 392.168,225.336 392.5,165.5 Z"/></g>
<g><path style="opacity:0.996" fill="#3f72ff" d="M 360.5,179.5 C 363.471,182.754 365.971,186.42 368,190.5C 369.5,192.469 371.333,193.802 373.5,194.5C 373.5,252.833 373.5,311.167 373.5,369.5C 369.793,374.208 365.46,378.208 360.5,381.5C 360.5,314.167 360.5,246.833 360.5,179.5 Z"/></g>
<g><path style="opacity:0.985" fill="#0db0ff" d="M 105.5,188.5 C 106.833,233.167 106.833,277.833 105.5,322.5C 90.9716,289.359 87.4716,255.026 95,219.5C 97.6133,208.826 101.113,198.493 105.5,188.5 Z"/></g>
<g><path style="opacity:0.99" fill="#2f86ff" d="M 292.5,199.5 C 292.5,236.833 292.5,274.167 292.5,311.5C 282.91,304.874 273.91,297.541 265.5,289.5C 266.498,266.673 266.831,243.673 266.5,220.5C 274.761,213.031 283.428,206.031 292.5,199.5 Z"/></g>
<g><path style="opacity:0.98" fill="#2a8dff" d="M 266.5,220.5 C 266.831,243.673 266.498,266.673 265.5,289.5C 251.205,278.539 237.205,267.206 223.5,255.5C 237.538,243.461 251.871,231.795 266.5,220.5 Z"/></g>
<g><path style="opacity:0.983" fill="#0bb2ff" d="M 77.5,277.5 C 81.2595,305.788 90.9261,331.788 106.5,355.5C 106.5,367.833 106.5,380.167 106.5,392.5C 103.579,396.802 103.913,400.802 107.5,404.5C 106.226,411.037 106.226,417.704 107.5,424.5C 95.7188,414.39 85.3855,403.057 76.5,390.5C 76.1682,352.663 76.5015,314.996 77.5,277.5 Z"/></g>
<g><path style="opacity:0.995" fill="#2591ff" d="M 240.5,289.5 C 240.5,332.5 240.5,375.5 240.5,418.5C 242.099,418.232 243.432,418.566 244.5,419.5C 234.505,419.002 224.838,417.335 215.5,414.5C 214.509,387.908 214.176,361.241 214.5,334.5C 216.144,333.684 217.31,332.35 218,330.5C 218.333,310.833 218.667,291.167 219,271.5C 226.357,277.364 233.524,283.364 240.5,289.5 Z"/></g>
<g><path style="opacity:0.995" fill="#2a8cff" d="M 240.5,289.5 C 250.086,296.083 259.086,303.416 267.5,311.5C 266.502,347.329 266.168,383.329 266.5,419.5C 259.167,419.5 251.833,419.5 244.5,419.5C 243.432,418.566 242.099,418.232 240.5,418.5C 240.5,375.5 240.5,332.5 240.5,289.5 Z"/></g>
<g><path style="opacity:0.991" fill="#2f86ff" d="M 267.5,311.5 C 276.751,317.748 285.418,324.748 293.5,332.5C 292.833,345.996 292.5,359.663 292.5,373.5C 292.517,387.722 293.184,401.722 294.5,415.5C 285.264,417.48 275.931,418.814 266.5,419.5C 266.168,383.329 266.502,347.329 267.5,311.5 Z"/></g>
<g><path style="opacity:0.98" fill="#4866ff" d="M 428.5,303.5 C 429.498,334.329 429.831,365.329 429.5,396.5C 421.227,407.774 411.56,417.774 400.5,426.5C 399.509,420.021 399.176,413.354 399.5,406.5C 408.401,401.596 408.735,396.263 400.5,390.5C 399.528,381.25 399.195,371.917 399.5,362.5C 412.329,344.352 421.995,324.686 428.5,303.5 Z"/></g>
<g><path style="opacity:0.97" fill="#10abff" d="M 106.5,355.5 C 114.719,366.728 123.719,377.395 133.5,387.5C 132.175,406.069 132.175,424.736 133.5,443.5C 124.291,437.964 115.624,431.631 107.5,424.5C 106.226,417.704 106.226,411.037 107.5,404.5C 114.175,407.663 118.508,405.663 120.5,398.5C 118.513,390.51 113.846,388.51 106.5,392.5C 106.5,380.167 106.5,367.833 106.5,355.5 Z"/></g>
<g><path style="opacity:0.982" fill="#436dff" d="M 399.5,362.5 C 399.195,371.917 399.528,381.25 400.5,390.5C 394.47,389.868 391.137,392.535 390.5,398.5C 391.269,403.599 394.269,406.265 399.5,406.5C 399.176,413.354 399.509,420.021 400.5,426.5C 392.551,433.808 383.885,440.142 374.5,445.5C 373.503,427.341 373.17,409.008 373.5,390.5C 382.622,381.589 391.289,372.255 399.5,362.5 Z"/></g>
<g><path style="opacity:0.987" fill="#15a5ff" d="M 133.5,387.5 C 141.573,394.248 149.907,400.582 158.5,406.5C 158.5,423.5 158.5,440.5 158.5,457.5C 149.35,454.097 141.017,449.43 133.5,443.5C 132.175,424.736 132.175,406.069 133.5,387.5 Z"/></g>
<g><path style="opacity:0.983" fill="#3e73ff" d="M 373.5,390.5 C 373.17,409.008 373.503,427.341 374.5,445.5C 366.479,451.18 357.812,455.847 348.5,459.5C 348.5,442.5 348.5,425.5 348.5,408.5C 357.363,403.235 365.696,397.235 373.5,390.5 Z"/></g>
<g><path style="opacity:0.985" fill="#1a9fff" d="M 158.5,406.5 C 166.957,411.639 175.623,416.306 184.5,420.5C 184.5,436.5 184.5,452.5 184.5,468.5C 175.303,465.897 166.637,462.23 158.5,457.5C 158.5,440.5 158.5,423.5 158.5,406.5 Z"/></g>
<g><path style="opacity:0.985" fill="#3979ff" d="M 348.5,408.5 C 348.5,425.5 348.5,442.5 348.5,459.5C 340.289,463.796 331.622,467.13 322.5,469.5C 322.83,453.658 322.496,437.991 321.5,422.5C 330.56,418.135 339.56,413.469 348.5,408.5 Z"/></g>
<g><path style="opacity:0.985" fill="#347fff" d="M 321.5,422.5 C 322.496,437.991 322.83,453.658 322.5,469.5C 312.818,473.087 302.818,475.42 292.5,476.5C 292.5,461.167 292.5,445.833 292.5,430.5C 302.38,428.613 312.047,425.947 321.5,422.5 Z"/></g>
<g><path style="opacity:0.986" fill="#2098ff" d="M 184.5,420.5 C 194.522,424.063 204.522,427.396 214.5,430.5C 214.183,445.911 214.517,461.245 215.5,476.5C 204.946,474.612 194.613,471.945 184.5,468.5C 184.5,452.5 184.5,436.5 184.5,420.5 Z"/></g>
<g><path style="opacity:0.986" fill="#2f86ff" d="M 292.5,430.5 C 292.5,445.833 292.5,461.167 292.5,476.5C 284.071,478.363 275.405,479.363 266.5,479.5C 266.5,464.5 266.5,449.5 266.5,434.5C 275.329,433.981 283.996,432.647 292.5,430.5 Z"/></g>
<g><path style="opacity:0.985" fill="#2591ff" d="M 214.5,430.5 C 223.178,431.835 231.845,433.169 240.5,434.5C 240.184,449.578 240.517,464.578 241.5,479.5C 232.775,478.938 224.109,477.938 215.5,476.5C 214.517,461.245 214.183,445.911 214.5,430.5 Z"/></g>
<g><path style="opacity:0.962" fill="#2a8cff" d="M 240.5,434.5 C 249.167,434.5 257.833,434.5 266.5,434.5C 266.5,449.5 266.5,464.5 266.5,479.5C 258.167,479.5 249.833,479.5 241.5,479.5C 240.517,464.578 240.184,449.578 240.5,434.5 Z M 252.5,449.5 C 260.658,448.823 264.158,452.49 263,460.5C 257.485,467.368 252.485,467.035 248,459.5C 247.077,455.017 248.577,451.683 252.5,449.5 Z"/></g>
</svg>
