<?xml version="1.0" encoding="UTF-8"?>
<!DOCTYPE svg PUBLIC "-//W3C//DTD SVG 1.1//EN" "http://www.w3.org/Graphics/SVG/1.1/DTD/svg11.dtd">
<svg xmlns="http://www.w3.org/2000/svg" version="1.1" width="512px" height="512px" style="shape-rendering:geometricPrecision; text-rendering:geometricPrecision; image-rendering:optimizeQuality; fill-rule:evenodd; clip-rule:evenodd" xmlns:xlink="http://www.w3.org/1999/xlink">
<g><path style="opacity:0.995" fill="#00b0fe" d="M 232.5,-0.5 C 247.833,-0.5 263.167,-0.5 278.5,-0.5C 366.568,9.92543 433.401,52.9254 479,128.5C 495.288,157.864 505.455,189.197 509.5,222.5C 507.167,220.5 504.833,218.5 502.5,216.5C 495.167,208.5 487.5,200.833 479.5,193.5C 473.167,186.5 466.5,179.833 459.5,173.5C 453.5,166.833 447.167,160.5 440.5,154.5C 434.167,147.5 427.5,140.833 420.5,134.5C 411.167,124.5 401.5,114.833 391.5,105.5C 390.36,104.199 389.027,103.032 387.5,102C 299.167,101.333 210.833,101.333 122.5,102C 121.333,103.167 120.167,104.333 119,105.5C 118.333,123.833 118.333,142.167 119,160.5C 119.996,162.66 121.496,164.327 123.5,165.5C 134.5,177.167 145.833,188.5 157.5,199.5C 165.833,208.5 174.5,217.167 183.5,225.5C 188.797,231.298 194.297,236.965 200,242.5C 206.035,236.297 212.202,230.297 218.5,224.5C 218.5,229.5 218.5,234.5 218.5,239.5C 186.088,250.693 153.755,262.193 121.5,274C 119.675,275.466 119.175,277.299 120,279.5C 123.863,289.423 127.53,299.423 131,309.5C 132.444,311.155 134.278,311.822 136.5,311.5C 136.082,312.222 135.416,312.722 134.5,313C 139.702,318.37 145.035,323.536 150.5,328.5C 151.167,329.5 151.833,330.5 152.5,331.5C 150.142,333.129 147.476,334.295 144.5,335C 143.101,336.062 142.101,337.395 141.5,339C 145.778,349.557 149.778,360.224 153.5,371C 154.13,372.31 155.13,373.144 156.5,373.5C 173.5,391.167 190.833,408.5 208.5,425.5C 214.833,432.5 221.5,439.167 228.5,445.5C 235.833,453.5 243.5,461.167 251.5,468.5C 255.5,473.167 259.833,477.5 264.5,481.5C 266.167,483.833 268.167,485.833 270.5,487.5C 276.833,494.5 283.5,501.167 290.5,507.5C 290.833,508.167 291.167,508.833 291.5,509.5C 286.99,509.884 282.657,510.551 278.5,511.5C 263.167,511.5 247.833,511.5 232.5,511.5C 134.558,499.363 64.058,449.03 21,360.5C 9.73692,334.108 2.57026,306.775 -0.5,278.5C -0.5,263.167 -0.5,247.833 -0.5,232.5C 11.636,134.559 61.9693,64.0588 150.5,21C 176.892,9.73692 204.225,2.57026 232.5,-0.5 Z"/></g>
<g><path style="opacity:1" fill="#fdfefe" d="M 391.5,105.5 C 391.667,124.17 391.5,142.836 391,161.5C 389.786,163.049 388.286,164.215 386.5,165C 372.504,165.5 358.504,165.667 344.5,165.5C 326.833,165.5 309.167,165.5 291.5,165.5C 291.333,181.17 291.5,196.837 292,212.5C 296.059,210.536 300.226,208.87 304.5,207.5C 319.848,202.106 335.181,196.606 350.5,191C 355.076,189.647 358.076,191.147 359.5,195.5C 363.035,205.438 366.368,215.438 369.5,225.5C 367.3,227.64 364.633,229.14 361.5,230C 338.392,238.055 315.392,246.388 292.5,255C 291.184,263.774 291.184,272.607 292.5,281.5C 319.5,271.667 346.5,261.833 373.5,252C 376.171,251.167 378.504,251.667 380.5,253.5C 383.638,262.914 386.971,272.247 390.5,281.5C 392.17,284.306 391.837,286.806 389.5,289C 384.944,290.566 380.61,292.399 376.5,294.5C 348.307,303.898 320.307,313.898 292.5,324.5C 291.5,343.488 291.167,362.488 291.5,381.5C 291.938,389.943 291.438,398.277 290,406.5C 289.167,407.333 288.333,408.167 287.5,409C 279.507,409.5 271.507,409.666 263.5,409.5C 250.5,409.5 237.5,409.5 224.5,409.5C 221.708,409.548 219.875,408.215 219,405.5C 218.833,387.491 218.333,369.491 217.5,351.5C 197.143,358.841 176.81,366.174 156.5,373.5C 155.13,373.144 154.13,372.31 153.5,371C 149.778,360.224 145.778,349.557 141.5,339C 142.101,337.395 143.101,336.062 144.5,335C 147.476,334.295 150.142,333.129 152.5,331.5C 159.715,329.762 166.715,327.428 173.5,324.5C 188.22,319.371 202.886,314.037 217.5,308.5C 218.665,299.518 218.832,290.518 218,281.5C 215.031,282.737 212.197,284.07 209.5,285.5C 199.876,288.262 190.543,291.595 181.5,295.5C 166.344,300.441 151.344,305.774 136.5,311.5C 134.278,311.822 132.444,311.155 131,309.5C 127.53,299.423 123.863,289.423 120,279.5C 119.175,277.299 119.675,275.466 121.5,274C 153.755,262.193 186.088,250.693 218.5,239.5C 218.5,234.5 218.5,229.5 218.5,224.5C 218.5,213.5 218.5,202.5 218.5,191.5C 218.5,182.833 218.5,174.167 218.5,165.5C 209.833,165.5 201.167,165.5 192.5,165.5C 169.5,165.5 146.5,165.5 123.5,165.5C 121.496,164.327 119.996,162.66 119,160.5C 118.333,142.167 118.333,123.833 119,105.5C 120.167,104.333 121.333,103.167 122.5,102C 210.833,101.333 299.167,101.333 387.5,102C 389.027,103.032 390.36,104.199 391.5,105.5 Z"/></g>
<g><path style="opacity:1" fill="#038ccb" d="M 391.5,105.5 C 401.5,114.833 411.167,124.5 420.5,134.5C 400.5,155.167 380.167,175.5 359.5,195.5C 358.076,191.147 355.076,189.647 350.5,191C 335.181,196.606 319.848,202.106 304.5,207.5C 304.369,206.761 304.536,206.094 305,205.5C 318.369,192.299 331.535,178.965 344.5,165.5C 358.504,165.667 372.504,165.5 386.5,165C 388.286,164.215 389.786,163.049 391,161.5C 391.5,142.836 391.667,124.17 391.5,105.5 Z"/></g>
<g><path style="opacity:1" fill="#0090d1" d="M 420.5,134.5 C 427.5,140.833 434.167,147.5 440.5,154.5C 417.167,178.5 393.5,202.167 369.5,225.5C 366.368,215.438 363.035,205.438 359.5,195.5C 380.167,175.5 400.5,155.167 420.5,134.5 Z"/></g>
<g><path style="opacity:1" fill="#0394d6" d="M 440.5,154.5 C 447.167,160.5 453.5,166.833 459.5,173.5C 433.884,200.783 407.55,227.45 380.5,253.5C 378.504,251.667 376.171,251.167 373.5,252C 346.5,261.833 319.5,271.667 292.5,281.5C 291.184,272.607 291.184,263.774 292.5,255C 315.392,246.388 338.392,238.055 361.5,230C 364.633,229.14 367.3,227.64 369.5,225.5C 393.5,202.167 417.167,178.5 440.5,154.5 Z"/></g>
<g><path style="opacity:1" fill="#0092d4" d="M 123.5,165.5 C 146.5,165.5 169.5,165.5 192.5,165.5C 181.448,177.554 169.781,188.887 157.5,199.5C 145.833,188.5 134.5,177.167 123.5,165.5 Z"/></g>
<g><path style="opacity:1" fill="#009de4" d="M 192.5,165.5 C 201.167,165.5 209.833,165.5 218.5,165.5C 218.5,174.167 218.5,182.833 218.5,191.5C 206.833,202.833 195.167,214.167 183.5,225.5C 174.5,217.167 165.833,208.5 157.5,199.5C 169.781,188.887 181.448,177.554 192.5,165.5 Z"/></g>
<g><path style="opacity:1" fill="#0087c4" d="M 344.5,165.5 C 331.535,178.965 318.369,192.299 305,205.5C 304.536,206.094 304.369,206.761 304.5,207.5C 300.226,208.87 296.059,210.536 292,212.5C 291.5,196.837 291.333,181.17 291.5,165.5C 309.167,165.5 326.833,165.5 344.5,165.5 Z"/></g>
<g><path style="opacity:1" fill="#0099dd" d="M 459.5,173.5 C 466.5,179.833 473.167,186.5 479.5,193.5C 450.45,223.55 420.784,252.884 390.5,281.5C 386.971,272.247 383.638,262.914 380.5,253.5C 407.55,227.45 433.884,200.783 459.5,173.5 Z"/></g>
<g><path style="opacity:1" fill="#00a7f2" d="M 218.5,191.5 C 218.5,202.5 218.5,213.5 218.5,224.5C 212.202,230.297 206.035,236.297 200,242.5C 194.297,236.965 188.797,231.298 183.5,225.5C 195.167,214.167 206.833,202.833 218.5,191.5 Z"/></g>
<g><path style="opacity:1" fill="#009de4" d="M 479.5,193.5 C 487.5,200.833 495.167,208.5 502.5,216.5C 418.833,300.5 335.167,384.5 251.5,468.5C 243.5,461.167 235.833,453.5 228.5,445.5C 240.167,433.5 251.833,421.5 263.5,409.5C 271.507,409.666 279.507,409.5 287.5,409C 288.333,408.167 289.167,407.333 290,406.5C 291.438,398.277 291.938,389.943 291.5,381.5C 320.632,352.868 349.632,324.035 378.5,295C 377.906,294.536 377.239,294.369 376.5,294.5C 380.61,292.399 384.944,290.566 389.5,289C 391.837,286.806 392.17,284.306 390.5,281.5C 420.784,252.884 450.45,223.55 479.5,193.5 Z"/></g>
<g><path style="opacity:1" fill="#00a1e9" d="M 502.5,216.5 C 504.833,218.5 507.167,220.5 509.5,222.5C 510.479,225.625 510.813,228.958 510.5,232.5C 510.649,233.552 510.483,234.552 510,235.5C 427.965,317.368 346.132,399.368 264.5,481.5C 259.833,477.5 255.5,473.167 251.5,468.5C 335.167,384.5 418.833,300.5 502.5,216.5 Z"/></g>
<g><path style="opacity:1" fill="#00a3ec" d="M 510.5,232.5 C 510.833,232.5 511.167,232.5 511.5,232.5C 511.5,237.5 511.5,242.5 511.5,247.5C 431.167,327.5 350.833,407.5 270.5,487.5C 268.167,485.833 266.167,483.833 264.5,481.5C 346.132,399.368 427.965,317.368 510,235.5C 510.483,234.552 510.649,233.552 510.5,232.5 Z"/></g>
<g><path style="opacity:1" fill="#00a5f0" d="M 511.5,247.5 C 511.5,252.833 511.5,258.167 511.5,263.5C 510.309,272.014 509.142,280.681 508,289.5C 435.299,362.035 362.799,434.701 290.5,507.5C 283.5,501.167 276.833,494.5 270.5,487.5C 350.833,407.5 431.167,327.5 511.5,247.5 Z"/></g>
<g><path style="opacity:1" fill="#08a5ef" d="M 173.5,324.5 C 185.244,311.253 197.578,298.419 210.5,286C 210.272,285.601 209.938,285.435 209.5,285.5C 212.197,284.07 215.031,282.737 218,281.5C 218.832,290.518 218.665,299.518 217.5,308.5C 202.886,314.037 188.22,319.371 173.5,324.5 Z"/></g>
<g><path style="opacity:1" fill="#0a9ce0" d="M 209.5,285.5 C 209.938,285.435 210.272,285.601 210.5,286C 197.578,298.419 185.244,311.253 173.5,324.5C 166.715,327.428 159.715,329.762 152.5,331.5C 151.833,330.5 151.167,329.5 150.5,328.5C 161.632,317.869 172.632,307.035 183.5,296C 182.906,295.536 182.239,295.369 181.5,295.5C 190.543,291.595 199.876,288.262 209.5,285.5 Z"/></g>
<g><path style="opacity:1" fill="#0599dd" d="M 376.5,294.5 C 377.239,294.369 377.906,294.536 378.5,295C 349.632,324.035 320.632,352.868 291.5,381.5C 291.167,362.488 291.5,343.488 292.5,324.5C 320.307,313.898 348.307,303.898 376.5,294.5 Z"/></g>
<g><path style="opacity:1" fill="#0b93d4" d="M 181.5,295.5 C 182.239,295.369 182.906,295.536 183.5,296C 172.632,307.035 161.632,317.869 150.5,328.5C 145.035,323.536 139.702,318.37 134.5,313C 135.416,312.722 136.082,312.222 136.5,311.5C 151.344,305.774 166.344,300.441 181.5,295.5 Z"/></g>
<g><path style="opacity:0.998" fill="#00a9f6" d="M 511.5,263.5 C 511.5,268.5 511.5,273.5 511.5,278.5C 510.009,289.06 508.343,299.727 506.5,310.5C 505.503,310.47 504.836,310.97 504.5,312C 501.667,321.833 498.833,331.667 496,341.5C 443.938,393.728 391.772,445.728 339.5,497.5C 324.076,503.356 308.076,507.356 291.5,509.5C 291.167,508.833 290.833,508.167 290.5,507.5C 362.799,434.701 435.299,362.035 508,289.5C 509.142,280.681 510.309,272.014 511.5,263.5 Z"/></g>
<g><path style="opacity:0.994" fill="#00adfb" d="M 506.5,310.5 C 486.256,393.566 437.589,453.399 360.5,490C 353.683,493.078 346.683,495.578 339.5,497.5C 391.772,445.728 443.938,393.728 496,341.5C 498.833,331.667 501.667,321.833 504.5,312C 504.836,310.97 505.503,310.47 506.5,310.5 Z"/></g>
<g><path style="opacity:1" fill="#0391d2" d="M 224.5,409.5 C 219.5,415.167 214.167,420.5 208.5,425.5C 190.833,408.5 173.5,391.167 156.5,373.5C 176.81,366.174 197.143,358.841 217.5,351.5C 218.333,369.491 218.833,387.491 219,405.5C 219.875,408.215 221.708,409.548 224.5,409.5 Z"/></g>
<g><path style="opacity:1" fill="#0099dd" d="M 224.5,409.5 C 237.5,409.5 250.5,409.5 263.5,409.5C 251.833,421.5 240.167,433.5 228.5,445.5C 221.5,439.167 214.833,432.5 208.5,425.5C 214.167,420.5 219.5,415.167 224.5,409.5 Z"/></g>
</svg>
