<?xml version="1.0" encoding="UTF-8"?>
<!DOCTYPE svg PUBLIC "-//W3C//DTD SVG 1.1//EN" "http://www.w3.org/Graphics/SVG/1.1/DTD/svg11.dtd">
<svg xmlns="http://www.w3.org/2000/svg" version="1.1" width="50px" height="50px" style="shape-rendering:geometricPrecision; text-rendering:geometricPrecision; image-rendering:optimizeQuality; fill-rule:evenodd; clip-rule:evenodd" xmlns:xlink="http://www.w3.org/1999/xlink">
<g><path style="opacity:0.812" fill="#000000" d="M 22.5,-0.5 C 23.8333,-0.5 25.1667,-0.5 26.5,-0.5C 27.8089,2.7777 29.6422,5.7777 32,8.5C 32.8283,13.202 32.6616,17.8687 31.5,22.5C 30.5108,18.8927 30.1774,15.226 30.5,11.5C 26.5,11.5 22.5,11.5 18.5,11.5C 18.8226,15.226 18.4892,18.8927 17.5,22.5C 16.3384,17.8687 16.1717,13.202 17,8.5C 19.3578,5.7777 21.1911,2.7777 22.5,-0.5 Z M 23.5,4.5 C 25.922,5.08521 27.5887,6.58521 28.5,9C 25.8333,9.66667 23.1667,9.66667 20.5,9C 21.3862,7.38533 22.3862,5.88533 23.5,4.5 Z"/></g>
<g><path style="opacity:0.853" fill="#000000" d="M 49.5,12.5 C 49.5,24.8333 49.5,37.1667 49.5,49.5C 44.5,49.5 39.5,49.5 34.5,49.5C 33.1227,43.4035 29.7894,38.7368 24.5,35.5C 19.2106,38.7368 15.8773,43.4035 14.5,49.5C 9.5,49.5 4.5,49.5 -0.5,49.5C -0.5,37.1667 -0.5,24.8333 -0.5,12.5C 2.38156,3.35155 5.21489,3.35155 8,12.5C 8.49863,16.1516 8.6653,19.8183 8.5,23.5C 19.1667,23.5 29.8333,23.5 40.5,23.5C 39.8898,17.5195 40.8898,11.8528 43.5,6.5C 44.5,5.16667 45.5,5.16667 46.5,6.5C 47.5195,8.60396 48.5195,10.604 49.5,12.5 Z M 3.5,10.5 C 4.24853,11.531 4.9152,12.6976 5.5,14C 4.5,14.6667 3.5,14.6667 2.5,14C 3.33663,12.9887 3.66997,11.8221 3.5,10.5 Z M 44.5,10.5 C 45.2485,11.531 45.9152,12.6976 46.5,14C 45.5,14.6667 44.5,14.6667 43.5,14C 44.3366,12.9887 44.67,11.8221 44.5,10.5 Z M 1.5,16.5 C 3.16667,16.5 4.83333,16.5 6.5,16.5C 6.5,19.5 6.5,22.5 6.5,25.5C 18.5,25.5 30.5,25.5 42.5,25.5C 42.5,22.5 42.5,19.5 42.5,16.5C 44.1667,16.5 45.8333,16.5 47.5,16.5C 47.5,26.8333 47.5,37.1667 47.5,47.5C 43.8333,47.5 40.1667,47.5 36.5,47.5C 35.4832,40.1464 31.4832,35.1464 24.5,32.5C 17.5168,35.1464 13.5168,40.1464 12.5,47.5C 8.83333,47.5 5.16667,47.5 1.5,47.5C 1.5,37.1667 1.5,26.8333 1.5,16.5 Z"/></g>
<g><path style="opacity:0.75" fill="#000000" d="M 10.5,12.5 C 11.8333,12.5 13.1667,12.5 14.5,12.5C 15.5527,15.8515 15.5527,19.1849 14.5,22.5C 13.1667,18.5 11.8333,18.5 10.5,22.5C 9.4473,19.1849 9.4473,15.8515 10.5,12.5 Z"/></g>
<g><path style="opacity:0.75" fill="#000000" d="M 34.5,12.5 C 35.8333,12.5 37.1667,12.5 38.5,12.5C 39.5527,15.8515 39.5527,19.1849 38.5,22.5C 37.1667,18.5 35.8333,18.5 34.5,22.5C 33.4473,19.1849 33.4473,15.8515 34.5,12.5 Z"/></g>
<g><path style="opacity:0.786" fill="#000000" d="M 21.5,14.5 C 28.232,13.4816 30.232,16.1483 27.5,22.5C 25.5,15.8333 23.5,15.8333 21.5,22.5C 20.2706,19.8013 20.2706,17.1346 21.5,14.5 Z"/></g>
<g><path style="opacity:0.664" fill="#000000" d="M 8.5,29.5 C 10.0174,29.5106 11.1841,30.1772 12,31.5C 12.4955,33.4727 12.6621,35.4727 12.5,37.5C 10.8333,37.5 9.16667,37.5 7.5,37.5C 7.27863,34.7212 7.61197,32.0545 8.5,29.5 Z"/></g>
<g><path style="opacity:0.683" fill="#000000" d="M 38.5,29.5 C 39.4959,29.4142 40.3292,29.7476 41,30.5C 41.4966,32.8098 41.6633,35.1432 41.5,37.5C 39.8333,37.5 38.1667,37.5 36.5,37.5C 36.2826,34.5794 36.9493,31.9128 38.5,29.5 Z"/></g>
</svg>
