<?xml version="1.0" encoding="UTF-8"?>
<!DOCTYPE svg PUBLIC "-//W3C//DTD SVG 1.1//EN" "http://www.w3.org/Graphics/SVG/1.1/DTD/svg11.dtd">
<svg xmlns="http://www.w3.org/2000/svg" version="1.1" width="48px" height="48px" style="shape-rendering:geometricPrecision; text-rendering:geometricPrecision; image-rendering:optimizeQuality; fill-rule:evenodd; clip-rule:evenodd" xmlns:xlink="http://www.w3.org/1999/xlink">
<g><path style="opacity:0.928" fill="#d22f2f" d="M 39.5,10.5 C 28.8333,10.5 18.1667,10.5 7.5,10.5C 13.7032,3.83407 21.3698,1.6674 30.5,4C 33.9614,5.64284 36.9614,7.8095 39.5,10.5 Z"/></g>
<g><path style="opacity:0.984" fill="#1d5e1f" d="M 7.5,10.5 C 18.1667,10.5 28.8333,10.5 39.5,10.5C 43.3504,16.5666 44.5171,23.2333 43,30.5C 42.074,32.6917 40.9073,34.6917 39.5,36.5C 28.8333,36.5 18.1667,36.5 7.5,36.5C 3.64959,30.4334 2.48292,23.7667 4,16.5C 4.92601,14.3083 6.09267,12.3083 7.5,10.5 Z"/></g>
<g><path style="opacity:1" fill="#e5b804" d="M 22.5,15.5 C 26.3274,16.4363 27.1607,18.4363 25,21.5C 24,20.1667 23,20.1667 22,21.5C 21.6905,20.2341 21.1905,19.0674 20.5,18C 21.756,17.5831 22.4226,16.7498 22.5,15.5 Z"/></g>
<g><path style="opacity:1" fill="#e1b605" d="M 13.5,19.5 C 16.8166,27.8323 22.4833,29.6656 30.5,25C 31.717,23.3523 32.5503,21.519 33,19.5C 33.5723,26.5984 30.239,30.2651 23,30.5C 16.6019,29.7381 13.4353,26.0715 13.5,19.5 Z"/></g>
<g><path style="opacity:0.931" fill="#d22f2f" d="M 7.5,36.5 C 18.1667,36.5 28.8333,36.5 39.5,36.5C 33.2968,43.1659 25.6302,45.3326 16.5,43C 13.0386,41.3572 10.0386,39.1905 7.5,36.5 Z"/></g>
</svg>
