<?xml version="1.0" encoding="UTF-8"?>
<!DOCTYPE svg PUBLIC "-//W3C//DTD SVG 1.1//EN" "http://www.w3.org/Graphics/SVG/1.1/DTD/svg11.dtd">
<svg xmlns="http://www.w3.org/2000/svg" version="1.1" width="48px" height="48px" style="shape-rendering:geometricPrecision; text-rendering:geometricPrecision; image-rendering:optimizeQuality; fill-rule:evenodd; clip-rule:evenodd" xmlns:xlink="http://www.w3.org/1999/xlink">
<g><path style="opacity:1" fill="#d22f2e" d="M 45.5,13.5 C 30.8333,13.5 16.1667,13.5 1.5,13.5C 1.5,11.8333 1.5,10.1667 1.5,8.5C 16.1667,8.5 30.8333,8.5 45.5,8.5C 45.5,10.1667 45.5,11.8333 45.5,13.5 Z"/></g>
<g><path style="opacity:1" fill="#1e5f1f" d="M 1.5,13.5 C 16.1667,13.5 30.8333,13.5 45.5,13.5C 45.5,20.1667 45.5,26.8333 45.5,33.5C 30.8333,33.5 16.1667,33.5 1.5,33.5C 1.5,26.8333 1.5,20.1667 1.5,13.5 Z"/></g>
<g><path style="opacity:1" fill="#e5b804" d="M 22.5,15.5 C 26.3274,16.4363 27.1607,18.4363 25,21.5C 24,20.1667 23,20.1667 22,21.5C 21.6905,20.2341 21.1905,19.0674 20.5,18C 21.756,17.5831 22.4226,16.7498 22.5,15.5 Z"/></g>
<g><path style="opacity:1" fill="#e1b605" d="M 13.5,19.5 C 16.8166,27.8323 22.4833,29.6656 30.5,25C 31.717,23.3523 32.5503,21.519 33,19.5C 33.5723,26.5984 30.239,30.2651 23,30.5C 16.6019,29.7381 13.4353,26.0715 13.5,19.5 Z"/></g>
<g><path style="opacity:1" fill="#d22f2e" d="M 1.5,33.5 C 16.1667,33.5 30.8333,33.5 45.5,33.5C 45.5,35.1667 45.5,36.8333 45.5,38.5C 30.8333,38.5 16.1667,38.5 1.5,38.5C 1.5,36.8333 1.5,35.1667 1.5,33.5 Z"/></g>
</svg>
