<?xml version="1.0" encoding="UTF-8"?>
<!DOCTYPE svg PUBLIC "-//W3C//DTD SVG 1.1//EN" "http://www.w3.org/Graphics/SVG/1.1/DTD/svg11.dtd">
<svg xmlns="http://www.w3.org/2000/svg" version="1.1" width="512px" height="512px" style="shape-rendering:geometricPrecision; text-rendering:geometricPrecision; image-rendering:optimizeQuality; fill-rule:evenodd; clip-rule:evenodd" xmlns:xlink="http://www.w3.org/1999/xlink">
<g><path style="opacity:0.976" fill="#1adb7c" d="M 356.5,37.5 C 289.331,37.8325 222.331,37.4992 155.5,36.5C 205.08,14.6771 256.413,9.51041 309.5,21C 326.013,24.4467 341.679,29.9467 356.5,37.5 Z"/></g>
<g><path style="opacity:0.997" fill="#19d77d" d="M 155.5,36.5 C 222.331,37.4992 289.331,37.8325 356.5,37.5C 384.7,50.2636 409.367,67.9303 430.5,90.5C 313.528,90.5037 196.862,90.5037 80.5,90.5C 102.108,67.8559 127.108,49.8559 155.5,36.5 Z"/></g>
<g><path style="opacity:0.999" fill="#19d37e" d="M 80.5,90.5 C 196.862,90.5037 313.528,90.5037 430.5,90.5C 436.555,96.2224 441.889,102.556 446.5,109.5C 319.167,109.5 191.833,109.5 64.5,109.5C 69.1112,102.556 74.4445,96.2224 80.5,90.5 Z"/></g>
<g><path style="opacity:0.999" fill="#18d07f" d="M 64.5,109.5 C 191.833,109.5 319.167,109.5 446.5,109.5C 455.407,120.096 462.741,131.762 468.5,144.5C 326.5,143.167 184.5,143.167 42.5,144.5C 48.2593,131.762 55.5926,120.096 64.5,109.5 Z"/></g>
<g><path style="opacity:0.999" fill="#17cb81" d="M 468.5,144.5 C 478.576,163.053 485.91,182.719 490.5,203.5C 458.736,204.828 427.069,204.828 395.5,203.5C 404.636,192.047 402.636,182.88 389.5,176C 384.889,174.993 380.555,175.66 376.5,178C 365.521,187.814 353.855,196.647 341.5,204.5C 328.833,204.5 316.167,204.5 303.5,204.5C 299.68,196.86 295.847,189.193 292,181.5C 281.379,172.493 272.379,173.826 265,185.5C 264.296,187.278 263.796,189.112 263.5,191C 264.412,195.648 265.745,200.148 267.5,204.5C 185.167,204.5 102.833,204.5 20.5,204.5C 24.8877,183.329 32.2211,163.329 42.5,144.5C 184.5,143.167 326.5,143.167 468.5,144.5 Z"/></g>
<g><path style="opacity:0.999" fill="#d8fee5" d="M 303.5,204.5 C 306.32,210.14 309.153,215.807 312,221.5C 312.561,222.022 313.228,222.355 314,222.5C 323.471,216.855 332.638,210.855 341.5,204.5C 353.855,196.647 365.521,187.814 376.5,178C 380.555,175.66 384.889,174.993 389.5,176C 402.636,182.88 404.636,192.047 395.5,203.5C 381.446,214.221 367.113,224.554 352.5,234.5C 343.195,240.489 333.862,246.489 324.5,252.5C 325.456,254.075 326.123,255.742 326.5,257.5C 330.653,266.474 334.819,275.474 339,284.5C 341.633,293.881 338.799,300.881 330.5,305.5C 326.5,306.833 322.5,306.833 318.5,305.5C 315.586,304.094 313.086,302.094 311,299.5C 306.165,288.496 300.831,277.829 295,267.5C 270.246,281.627 244.746,294.294 218.5,305.5C 201.832,312.665 184.832,318.998 167.5,324.5C 153.969,329.288 140.136,332.954 126,335.5C 117.191,335.837 111.691,331.837 109.5,323.5C 109.36,317.259 111.026,311.592 114.5,306.5C 160.215,293.804 204.548,277.471 247.5,257.5C 260.148,252.178 272.148,245.845 283.5,238.5C 283.332,236.829 282.665,235.496 281.5,234.5C 277.343,224.19 272.677,214.19 267.5,204.5C 265.745,200.148 264.412,195.648 263.5,191C 263.796,189.112 264.296,187.278 265,185.5C 272.379,173.826 281.379,172.493 292,181.5C 295.847,189.193 299.68,196.86 303.5,204.5 Z"/></g>
<g><path style="opacity:0.998" fill="#16c583" d="M 395.5,203.5 C 427.069,204.828 458.736,204.828 490.5,203.5C 492.541,214.118 494.207,224.785 495.5,235.5C 447.664,235.832 399.997,235.499 352.5,234.5C 367.113,224.554 381.446,214.221 395.5,203.5 Z"/></g>
<g><path style="opacity:0.999" fill="#15c582" d="M 20.5,204.5 C 102.833,204.5 185.167,204.5 267.5,204.5C 272.677,214.19 277.343,224.19 281.5,234.5C 237.501,235.167 193.335,235.5 149,235.5C 104.495,235.5 60.3283,234.833 16.5,233.5C 16.8576,223.689 18.191,214.022 20.5,204.5 Z"/></g>
<g><path style="opacity:1" fill="#1ec784" d="M 303.5,204.5 C 316.167,204.5 328.833,204.5 341.5,204.5C 332.638,210.855 323.471,216.855 314,222.5C 313.228,222.355 312.561,222.022 312,221.5C 309.153,215.807 306.32,210.14 303.5,204.5 Z"/></g>
<g><path style="opacity:0.999" fill="#15c284" d="M 16.5,233.5 C 60.3283,234.833 104.495,235.5 149,235.5C 193.335,235.5 237.501,235.167 281.5,234.5C 282.665,235.496 283.332,236.829 283.5,238.5C 272.148,245.845 260.148,252.178 247.5,257.5C 170.167,257.5 92.8333,257.5 15.5,257.5C 15.1743,249.316 15.5076,241.316 16.5,233.5 Z"/></g>
<g><path style="opacity:0.999" fill="#15c284" d="M 352.5,234.5 C 399.997,235.499 447.664,235.832 495.5,235.5C 495.5,242.833 495.5,250.167 495.5,257.5C 439.167,257.5 382.833,257.5 326.5,257.5C 326.123,255.742 325.456,254.075 324.5,252.5C 333.862,246.489 343.195,240.489 352.5,234.5 Z"/></g>
<g><path style="opacity:0.999" fill="#14bf85" d="M 15.5,257.5 C 92.8333,257.5 170.167,257.5 247.5,257.5C 204.548,277.471 160.215,293.804 114.5,306.5C 83.1667,306.5 51.8333,306.5 20.5,306.5C 16.7895,290.396 15.1228,274.062 15.5,257.5 Z"/></g>
<g><path style="opacity:0.998" fill="#14be85" d="M 326.5,257.5 C 382.833,257.5 439.167,257.5 495.5,257.5C 495.879,273.757 494.212,289.757 490.5,305.5C 437.069,306.83 383.736,306.83 330.5,305.5C 338.799,300.881 341.633,293.881 339,284.5C 334.819,275.474 330.653,266.474 326.5,257.5 Z"/></g>
<g><path style="opacity:1" fill="#16bd86" d="M 318.5,305.5 C 285.167,306.833 251.833,306.833 218.5,305.5C 244.746,294.294 270.246,281.627 295,267.5C 300.831,277.829 306.165,288.496 311,299.5C 313.086,302.094 315.586,304.094 318.5,305.5 Z"/></g>
<g><path style="opacity:0.997" fill="#13ba86" d="M 20.5,306.5 C 51.8333,306.5 83.1667,306.5 114.5,306.5C 111.026,311.592 109.36,317.259 109.5,323.5C 81.8533,325.492 53.8533,326.158 25.5,325.5C 23.3693,319.312 21.7027,312.978 20.5,306.5 Z"/></g>
<g><path style="opacity:0.999" fill="#13ba86" d="M 218.5,305.5 C 251.833,306.833 285.167,306.833 318.5,305.5C 322.5,306.833 326.5,306.833 330.5,305.5C 383.736,306.83 437.069,306.83 490.5,305.5C 489.455,312.345 487.789,319.011 485.5,325.5C 379.332,325.833 273.332,325.499 167.5,324.5C 184.832,318.998 201.832,312.665 218.5,305.5 Z"/></g>
<g><path style="opacity:0.999" fill="#12b787" d="M 109.5,323.5 C 111.691,331.837 117.191,335.837 126,335.5C 140.136,332.954 153.969,329.288 167.5,324.5C 273.332,325.499 379.332,325.833 485.5,325.5C 482.934,334.872 479.601,343.872 475.5,352.5C 328.763,352.168 182.097,352.502 35.5,353.5C 31.5735,344.388 28.2401,335.054 25.5,325.5C 53.8533,326.158 81.8533,325.492 109.5,323.5 Z"/></g>
<g><path style="opacity:0.999" fill="#10b288" d="M 475.5,352.5 C 468.182,369.821 458.849,385.821 447.5,400.5C 447.565,400.062 447.399,399.728 447,399.5C 319.402,400.166 191.902,400.832 64.5,401.5C 52.8373,386.865 43.1706,370.865 35.5,353.5C 182.097,352.502 328.763,352.168 475.5,352.5 Z"/></g>
<g><path style="opacity:0.999" fill="#10ae89" d="M 447.5,400.5 C 445.727,403.06 443.727,405.393 441.5,407.5C 317.334,406.5 193.001,406.167 68.5,406.5C 66.9373,405.055 65.604,403.389 64.5,401.5C 191.902,400.832 319.402,400.166 447,399.5C 447.399,399.728 447.565,400.062 447.5,400.5 Z"/></g>
<g><path style="opacity:0.998" fill="#0fab8a" d="M 68.5,406.5 C 193.001,406.167 317.334,406.5 441.5,407.5C 427.664,426.006 410.997,441.34 391.5,453.5C 300.833,453.5 210.167,453.5 119.5,453.5C 99.6883,441.027 82.6883,425.361 68.5,406.5 Z"/></g>
<g><path style="opacity:0.99" fill="#0da68c" d="M 119.5,453.5 C 210.167,453.5 300.833,453.5 391.5,453.5C 350.767,481.74 305.434,495.74 255.5,495.5C 205.486,496.007 160.153,482.007 119.5,453.5 Z"/></g>
</svg>
