<?xml version="1.0" encoding="UTF-8"?>
<!DOCTYPE svg PUBLIC "-//W3C//DTD SVG 1.1//EN" "http://www.w3.org/Graphics/SVG/1.1/DTD/svg11.dtd">
<svg xmlns="http://www.w3.org/2000/svg" version="1.1" width="512px" height="512px" style="shape-rendering:geometricPrecision; text-rendering:geometricPrecision; image-rendering:optimizeQuality; fill-rule:evenodd; clip-rule:evenodd" xmlns:xlink="http://www.w3.org/1999/xlink">
<g><path style="opacity:0.934" fill="#000000" d="M 233.5,-0.5 C 248.167,-0.5 262.833,-0.5 277.5,-0.5C 367.555,10.0943 435.388,54.4276 481,132.5C 497.855,164.278 508.022,197.945 511.5,233.5C 511.5,248.167 511.5,262.833 511.5,277.5C 500.906,367.555 456.572,435.388 378.5,481C 346.722,497.855 313.055,508.022 277.5,511.5C 262.833,511.5 248.167,511.5 233.5,511.5C 143.445,500.906 75.612,456.572 30,378.5C 13.1449,346.722 2.97822,313.055 -0.5,277.5C -0.5,262.833 -0.5,248.167 -0.5,233.5C 10.0943,143.445 54.4276,75.612 132.5,30C 164.278,13.1449 197.945,2.97822 233.5,-0.5 Z M 238.5,16.5 C 333.927,14.1239 407.76,52.4573 460,131.5C 498.372,198.224 504.706,267.891 479,340.5C 447.513,417.32 391.68,466.487 311.5,488C 210.277,507.488 127.443,477.322 63,397.5C 14.2533,327.203 3.91994,251.536 32,170.5C 71.0476,79.2927 139.881,27.9593 238.5,16.5 Z M 282.5,130.5 C 292.855,130.168 303.188,130.501 313.5,131.5C 314.309,133.071 314.643,134.738 314.5,136.5C 309.156,136.334 303.823,136.501 298.5,137C 291.833,142.333 291.833,147.667 298.5,153C 303.489,153.499 308.489,153.666 313.5,153.5C 313.5,155.5 313.5,157.5 313.5,159.5C 307.738,159.149 302.072,159.649 296.5,161C 291.004,166.357 291.337,171.357 297.5,176C 301.152,176.499 304.818,176.665 308.5,176.5C 299.633,207.407 281.3,230.907 253.5,247C 240.5,247.667 227.5,247.667 214.5,247C 229.329,213.851 244.163,180.684 259,147.5C 265.05,139.238 272.883,133.571 282.5,130.5 Z M 149.5,265.5 C 188.839,265.167 228.172,265.5 267.5,266.5C 255.727,279.64 241.227,288.307 224,292.5C 221.805,283.664 216.638,281.164 208.5,285C 206.873,287.754 205.373,290.588 204,293.5C 180.49,293.77 160.324,285.604 143.5,269C 145.727,268.059 147.727,266.892 149.5,265.5 Z"/></g>
<g><path style="opacity:0.931" fill="#000000" d="M 237.5,26.5 C 320.39,22.8206 387.557,53.154 439,117.5C 465.184,153.371 480.351,193.537 484.5,238C 483.441,245.725 479.108,248.725 471.5,247C 470.333,245.833 469.167,244.667 468,243.5C 460.912,172.451 428.079,116.951 369.5,77C 293.492,32.3339 217.492,32.3339 141.5,77C 64.4029,131.069 33.2362,204.902 48,298.5C 65.179,369.728 107.012,420.561 173.5,451C 241.648,477.318 306.982,471.651 369.5,434C 428.079,394.049 460.912,338.549 468,267.5C 473.046,262.176 478.046,262.176 483,267.5C 483.422,269.355 483.922,271.189 484.5,273C 475.783,351.156 438.45,411.156 372.5,453C 313.18,486.299 250.847,493.299 185.5,474C 112,448.5 62.5,399 37,325.5C 14.1447,245.261 28.478,172.595 80,107.5C 121.711,59.7266 174.211,32.7266 237.5,26.5 Z M 282.5,130.5 C 272.883,133.571 265.05,139.238 259,147.5C 244.163,180.684 229.329,213.851 214.5,247C 227.5,247.667 240.5,247.667 253.5,247C 281.3,230.907 299.633,207.407 308.5,176.5C 304.818,176.665 301.152,176.499 297.5,176C 291.337,171.357 291.004,166.357 296.5,161C 302.072,159.649 307.738,159.149 313.5,159.5C 313.5,157.5 313.5,155.5 313.5,153.5C 308.489,153.666 303.489,153.499 298.5,153C 291.833,147.667 291.833,142.333 298.5,137C 303.823,136.501 309.156,136.334 314.5,136.5C 314.643,134.738 314.309,133.071 313.5,131.5C 303.188,130.501 292.855,130.168 282.5,130.5 Z M 149.5,265.5 C 147.727,266.892 145.727,268.059 143.5,269C 160.324,285.604 180.49,293.77 204,293.5C 205.373,290.588 206.873,287.754 208.5,285C 216.638,281.164 221.805,283.664 224,292.5C 241.227,288.307 255.727,279.64 267.5,266.5C 228.172,265.5 188.839,265.167 149.5,265.5 Z"/></g>
<g><path style="opacity:0.947" fill="#000000" d="M 127.5,113.5 C 149.503,113.333 171.503,113.5 193.5,114C 200.121,120.164 199.454,125.497 191.5,130C 170.833,130.667 150.167,130.667 129.5,130C 125.181,128.877 123.181,126.044 123.5,121.5C 123.667,120.167 123.833,118.833 124,117.5C 125.376,116.295 126.542,114.962 127.5,113.5 Z"/></g>
<g><path style="opacity:0.935" fill="#000000" d="M 278.5,113.5 C 313.502,113.333 348.502,113.5 383.5,114C 387.788,117.771 388.621,122.271 386,127.5C 384.829,128.893 383.329,129.727 381.5,130C 364.837,130.5 348.17,130.667 331.5,130.5C 331.5,132.5 331.5,134.5 331.5,136.5C 345.171,136.333 358.837,136.5 372.5,137C 377.069,139.541 378.569,143.375 377,148.5C 376.052,150.57 374.552,152.07 372.5,153C 358.821,153.167 345.154,153.667 331.5,154.5C 330.691,156.071 330.357,157.738 330.5,159.5C 340.247,159.08 349.914,159.58 359.5,161C 363.787,166.357 363.453,171.357 358.5,176C 348.167,176.333 337.833,176.667 327.5,177C 319.638,204.749 304.971,228.083 283.5,247C 304.167,247.333 324.833,247.667 345.5,248C 352.377,251.618 353.71,256.618 349.5,263C 347.608,263.973 345.608,264.64 343.5,265C 325.5,265.333 307.5,265.667 289.5,266C 287.15,268.869 285.484,272.035 284.5,275.5C 304.558,280.014 324.558,284.848 344.5,290C 351.106,292.253 353.273,296.753 351,303.5C 347.95,307.13 344.117,308.297 339.5,307C 316.542,301.011 293.542,295.177 270.5,289.5C 254.467,301.341 236.467,308.508 216.5,311C 210.292,322.942 204.458,335.109 199,347.5C 195.13,351.059 190.963,351.392 186.5,348.5C 184.826,346.651 183.826,344.484 183.5,342C 187.078,332.009 191.078,322.175 195.5,312.5C 193.724,310.553 191.724,310.22 189.5,311.5C 184.141,324.382 178.141,336.882 171.5,349C 164.123,351.978 159.456,349.645 157.5,342C 161.951,330.098 166.951,318.432 172.5,307C 155.599,301.397 141.266,292.064 129.5,279C 125.365,280.547 121.032,281.213 116.5,281C 108.872,276.207 108.539,270.874 115.5,265C 125.5,259.333 135.5,253.667 145.5,248C 150.864,247.829 156.198,247.329 161.5,246.5C 173.376,219.374 185.542,192.374 198,165.5C 203.162,158.839 209.662,154.005 217.5,151C 226.71,150.223 230.21,154.389 228,163.5C 222.117,167.115 216.783,171.448 212,176.5C 201.597,199.875 191.097,223.209 180.5,246.5C 185.467,247.662 190.467,247.829 195.5,247C 211.996,210.184 228.496,173.351 245,136.5C 253.44,124.709 264.607,117.042 278.5,113.5 Z M 282.5,130.5 C 272.883,133.571 265.05,139.238 259,147.5C 244.163,180.684 229.329,213.851 214.5,247C 227.5,247.667 240.5,247.667 253.5,247C 281.3,230.907 299.633,207.407 308.5,176.5C 304.818,176.665 301.152,176.499 297.5,176C 291.337,171.357 291.004,166.357 296.5,161C 302.072,159.649 307.738,159.149 313.5,159.5C 313.5,157.5 313.5,155.5 313.5,153.5C 308.489,153.666 303.489,153.499 298.5,153C 291.833,147.667 291.833,142.333 298.5,137C 303.823,136.501 309.156,136.334 314.5,136.5C 314.643,134.738 314.309,133.071 313.5,131.5C 303.188,130.501 292.855,130.168 282.5,130.5 Z M 149.5,265.5 C 147.727,266.892 145.727,268.059 143.5,269C 160.324,285.604 180.49,293.77 204,293.5C 205.373,290.588 206.873,287.754 208.5,285C 216.638,281.164 221.805,283.664 224,292.5C 241.227,288.307 255.727,279.64 267.5,266.5C 228.172,265.5 188.839,265.167 149.5,265.5 Z"/></g>
<g><path style="opacity:0.929" fill="#000000" d="M 79.5,246.5 C 83.514,246.56 86.6806,248.227 89,251.5C 90.6501,315.16 117.983,364.16 171,398.5C 173.621,403.729 172.788,408.229 168.5,412C 165.036,412.817 161.702,412.483 158.5,411C 111.149,380.181 82.9827,336.681 74,280.5C 72.7052,271.195 72.3718,261.862 73,252.5C 74.4361,249.558 76.6028,247.558 79.5,246.5 Z"/></g>
<g><path style="opacity:0.933" fill="#000000" d="M 428.5,246.5 C 436.694,247.522 440.027,252.188 438.5,260.5C 432.966,339.122 394.299,394.289 322.5,426C 277.068,443.143 231.902,442.643 187,424.5C 183.206,416.493 185.539,411.826 194,410.5C 261.908,433.017 321.908,420.017 374,371.5C 405.245,337.797 421.245,297.797 422,251.5C 423.805,249.174 425.972,247.508 428.5,246.5 Z"/></g>
</svg>
