<?xml version="1.0" encoding="UTF-8"?>
<!DOCTYPE svg PUBLIC "-//W3C//DTD SVG 1.1//EN" "http://www.w3.org/Graphics/SVG/1.1/DTD/svg11.dtd">
<svg xmlns="http://www.w3.org/2000/svg" version="1.1" width="512px" height="512px" style="shape-rendering:geometricPrecision; text-rendering:geometricPrecision; image-rendering:optimizeQuality; fill-rule:evenodd; clip-rule:evenodd" xmlns:xlink="http://www.w3.org/1999/xlink">
<g><path style="opacity:0.987" fill="#feeffc" d="M 343.5,70.5 C 335.992,74.865 335.659,79.6983 342.5,85C 351.604,84.9601 354.27,80.7934 350.5,72.5C 369.996,81.003 387.329,92.6697 402.5,107.5C 402.335,113.002 405.002,116.002 410.5,116.5C 446.994,163.151 456.16,214.818 438,271.5C 432.448,286.954 424.615,300.954 414.5,313.5C 428.731,238.173 406.064,176.673 346.5,129C 294.268,93.5731 238.268,86.0731 178.5,106.5C 219.292,67.6345 267.626,53.4679 323.5,64C 330.509,65.5038 337.175,67.6705 343.5,70.5 Z"/></g>
<g><path style="opacity:0.995" fill="#532c25" d="M 343.5,70.5 C 346.188,70.1658 348.521,70.8325 350.5,72.5C 354.27,80.7934 351.604,84.9601 342.5,85C 335.659,79.6983 335.992,74.865 343.5,70.5 Z"/></g>
<g><path style="opacity:0.951" fill="#4b241d" d="M 410.5,116.5 C 405.002,116.002 402.335,113.002 402.5,107.5C 403.663,103.992 405.663,100.992 408.5,98.5C 406.851,96.3501 405.018,94.3501 403,92.5C 400.943,84.225 404.11,80.725 412.5,82C 414.977,83.6427 417.31,85.476 419.5,87.5C 421.69,85.476 424.023,83.6427 426.5,82C 433.631,80.4706 437.131,83.3039 437,90.5C 435.6,93.9024 433.433,96.7357 430.5,99C 433.04,101.205 435.207,103.705 437,106.5C 437.833,113.667 434.667,116.833 427.5,116C 424.705,114.207 422.205,112.04 420,109.5C 417.499,112.848 414.332,115.182 410.5,116.5 Z"/></g>
<g><path style="opacity:0.985" fill="#4d251d" d="M 414.5,313.5 C 397.832,378.672 357.498,421.838 293.5,443C 221.839,461.548 160.339,444.381 109,391.5C 62.2493,334.66 51.916,271.66 78,202.5C 98.3686,156.629 131.869,124.629 178.5,106.5C 238.268,86.0731 294.268,93.5731 346.5,129C 406.064,176.673 428.731,238.173 414.5,313.5 Z"/></g>
<g><path style="opacity:1" fill="#a7b759" d="M 228.5,109.5 C 230.5,109.5 232.5,109.5 234.5,109.5C 234.194,112.385 234.527,115.052 235.5,117.5C 239.108,123.649 243.275,123.983 248,118.5C 248.498,115.518 248.665,112.518 248.5,109.5C 288.412,111.076 323.079,125.242 352.5,152C 346.768,155.608 345.268,160.441 348,166.5C 350.243,168.282 352.743,168.782 355.5,168C 357.792,166.71 359.792,165.043 361.5,163C 362.167,162.333 362.833,162.333 363.5,163C 389.483,192.148 403.483,226.315 405.5,265.5C 394.271,263.546 390.604,267.712 394.5,278C 398.026,279.337 401.692,279.837 405.5,279.5C 403.462,318.721 389.462,352.888 363.5,382C 360.18,381.735 357.513,380.069 355.5,377C 348.506,376.33 345.673,379.497 347,386.5C 348.458,388.96 350.291,391.127 352.5,393C 323.256,420.112 288.589,434.279 248.5,435.5C 249.498,430.465 248.165,426.298 244.5,423C 240.108,421.863 237.108,423.363 235.5,427.5C 234.527,429.948 234.194,432.615 234.5,435.5C 232.833,435.5 231.167,435.5 229.5,435.5C 191.829,432.95 159.163,418.95 131.5,393.5C 133.333,391.167 135.167,388.833 137,386.5C 138.037,379.87 135.203,376.703 128.5,377C 126.023,378.643 123.69,380.476 121.5,382.5C 107.161,367.842 96.3272,350.842 89,331.5C 82.6454,314.748 79.1454,297.414 78.5,279.5C 85.3396,281.32 89.6729,278.987 91.5,272.5C 91.5938,270.088 90.5938,268.255 88.5,267C 85.3117,265.684 81.9783,265.184 78.5,265.5C 79.9557,225.612 94.289,191.279 121.5,162.5C 123.69,164.524 126.023,166.357 128.5,168C 135.156,168.342 137.989,165.175 137,158.5C 134.387,156.599 132.72,154.265 132,151.5C 159.289,126.561 191.455,112.561 228.5,109.5 Z"/></g>
<g><path style="opacity:1" fill="#7a6d3b" d="M 228.5,109.5 C 230.607,108.532 232.941,108.198 235.5,108.5C 235.5,111.5 235.5,114.5 235.5,117.5C 234.527,115.052 234.194,112.385 234.5,109.5C 232.5,109.5 230.5,109.5 228.5,109.5 Z"/></g>
<g><path style="opacity:1" fill="#4e261d" d="M 225.5,129.5 C 294.185,126.244 343.685,155.244 374,216.5C 393.759,269.941 386.425,319.275 352,364.5C 310.662,409.468 260.162,424.635 200.5,410C 157.261,396.094 126.761,368.26 109,326.5C 87.63,265.824 99.4633,212.657 144.5,167C 167.76,146.37 194.76,133.87 225.5,129.5 Z"/></g>
<g><path style="opacity:1" fill="#fecd55" d="M 231.5,142.5 C 286.343,141.328 327.843,163.995 356,210.5C 381.034,262.363 376.034,311.03 341,356.5C 303.464,396.595 257.964,410.095 204.5,397C 152.731,378.889 122.231,342.722 113,288.5C 108.97,231.055 131.47,187.555 180.5,158C 196.806,150.118 213.806,144.951 231.5,142.5 Z"/></g>
<g><path style="opacity:1" fill="#4d261d" d="M 310.5,245.5 C 309.532,247.607 309.198,249.941 309.5,252.5C 314.833,252.5 320.167,252.5 325.5,252.5C 330.473,254.812 331.64,258.479 329,263.5C 327.67,264.582 326.17,265.249 324.5,265.5C 319.5,265.5 314.5,265.5 309.5,265.5C 309.5,267.833 309.5,270.167 309.5,272.5C 305.604,295.896 291.937,309.396 268.5,313C 255.171,313.5 241.837,313.667 228.5,313.5C 228.667,326.171 228.5,338.838 228,351.5C 223.458,364.854 214.292,370.021 200.5,367C 192.9,363.57 188.567,357.737 187.5,349.5C 187.5,321.5 187.5,293.5 187.5,265.5C 182.5,265.5 177.5,265.5 172.5,265.5C 164.938,261.698 164.605,257.364 171.5,252.5C 176.833,252.5 182.167,252.5 187.5,252.5C 187.802,249.941 187.468,247.607 186.5,245.5C 181.489,245.666 176.489,245.499 171.5,245C 165.297,241.171 164.964,236.838 170.5,232C 176.157,231.501 181.824,231.334 187.5,231.5C 179.862,191.638 196.029,175.638 236,183.5C 246.833,183.667 257.667,183.833 268.5,184C 294.605,189.261 308.271,205.095 309.5,231.5C 314.844,231.334 320.177,231.501 325.5,232C 332.059,236.245 332.059,240.578 325.5,245C 320.511,245.499 315.511,245.666 310.5,245.5 Z"/></g>
<g><path style="opacity:1" fill="#a6b658" d="M 204.5,197.5 C 226.503,197.333 248.503,197.5 270.5,198C 287.267,202.928 295.934,214.095 296.5,231.5C 291.833,231.5 287.167,231.5 282.5,231.5C 282.365,221.724 277.698,215.224 268.5,212C 260.167,211.833 251.833,211.667 243.5,211.5C 234.404,211.36 225.404,211.86 216.5,213C 215.874,213.75 215.374,214.584 215,215.5C 214.501,220.823 214.334,226.156 214.5,231.5C 209.833,231.5 205.167,231.5 200.5,231.5C 200.334,221.828 200.5,212.161 201,202.5C 201.997,200.677 203.164,199.01 204.5,197.5 Z"/></g>
<g><path style="opacity:1" fill="#f8c753" d="M 228.5,224.5 C 240.838,224.333 253.171,224.5 265.5,225C 267.923,226.571 269.256,228.737 269.5,231.5C 255.833,231.5 242.167,231.5 228.5,231.5C 228.5,229.167 228.5,226.833 228.5,224.5 Z"/></g>
<g><path style="opacity:1" fill="#a8ba59" d="M 201.5,245.5 C 205.833,245.5 210.167,245.5 214.5,245.5C 214.5,247.5 214.5,249.5 214.5,251.5C 210.167,251.5 205.833,251.5 201.5,251.5C 201.5,249.5 201.5,247.5 201.5,245.5 Z"/></g>
<g><path style="opacity:1" fill="#a8b959" d="M 283.5,245.5 C 287.833,245.5 292.167,245.5 296.5,245.5C 296.5,247.5 296.5,249.5 296.5,251.5C 292.167,251.5 287.833,251.5 283.5,251.5C 283.5,249.5 283.5,247.5 283.5,245.5 Z"/></g>
<g><path style="opacity:1" fill="#bc8e41" d="M 186.5,245.5 C 187.468,247.607 187.802,249.941 187.5,252.5C 182.167,252.5 176.833,252.5 171.5,252.5C 176.305,251.513 181.305,251.179 186.5,251.5C 186.5,249.5 186.5,247.5 186.5,245.5 Z"/></g>
<g><path style="opacity:1" fill="#827c41" d="M 201.5,245.5 C 201.5,247.5 201.5,249.5 201.5,251.5C 205.833,251.5 210.167,251.5 214.5,251.5C 210.03,252.486 205.363,252.819 200.5,252.5C 200.198,249.941 200.532,247.607 201.5,245.5 Z"/></g>
<g><path style="opacity:1" fill="#b0843d" d="M 228.5,245.5 C 228.5,247.5 228.5,249.5 228.5,251.5C 241.833,251.5 255.167,251.5 268.5,251.5C 268.5,249.5 268.5,247.5 268.5,245.5C 269.468,247.607 269.802,249.941 269.5,252.5C 255.5,252.5 241.5,252.5 227.5,252.5C 227.198,249.941 227.532,247.607 228.5,245.5 Z"/></g>
<g><path style="opacity:1" fill="#fece55" d="M 228.5,245.5 C 241.833,245.5 255.167,245.5 268.5,245.5C 268.5,247.5 268.5,249.5 268.5,251.5C 255.167,251.5 241.833,251.5 228.5,251.5C 228.5,249.5 228.5,247.5 228.5,245.5 Z"/></g>
<g><path style="opacity:1" fill="#847f42" d="M 283.5,245.5 C 283.5,247.5 283.5,249.5 283.5,251.5C 287.833,251.5 292.167,251.5 296.5,251.5C 292.03,252.486 287.363,252.819 282.5,252.5C 282.198,249.941 282.532,247.607 283.5,245.5 Z"/></g>
<g><path style="opacity:1" fill="#ad813c" d="M 310.5,245.5 C 310.5,247.5 310.5,249.5 310.5,251.5C 315.695,251.179 320.695,251.513 325.5,252.5C 320.167,252.5 314.833,252.5 309.5,252.5C 309.198,249.941 309.532,247.607 310.5,245.5 Z"/></g>
<g><path style="opacity:1" fill="#cc9e46" d="M 228.5,266.5 C 241.99,265.504 255.656,265.171 269.5,265.5C 269.737,266.791 269.404,267.791 268.5,268.5C 255.542,266.519 242.209,265.852 228.5,266.5 Z"/></g>
<g><path style="opacity:1" fill="#c49643" d="M 324.5,265.5 C 320.03,266.486 315.363,266.819 310.5,266.5C 310.795,268.735 310.461,270.735 309.5,272.5C 309.5,270.167 309.5,267.833 309.5,265.5C 314.5,265.5 319.5,265.5 324.5,265.5 Z"/></g>
<g><path style="opacity:1" fill="#cea046" d="M 172.5,265.5 C 177.5,265.5 182.5,265.5 187.5,265.5C 187.5,293.5 187.5,321.5 187.5,349.5C 186.502,322.005 186.169,294.338 186.5,266.5C 181.637,266.819 176.97,266.486 172.5,265.5 Z"/></g>
<g><path style="opacity:1" fill="#858142" d="M 214.5,266.5 C 210.167,266.5 205.833,266.5 201.5,266.5C 201.5,294.167 201.5,321.833 201.5,349.5C 200.502,321.672 200.169,293.672 200.5,265.5C 205.363,265.181 210.03,265.514 214.5,266.5 Z"/></g>
<g><path style="opacity:1" fill="#a8b859" d="M 201.5,349.5 C 201.5,321.833 201.5,294.167 201.5,266.5C 205.833,266.5 210.167,266.5 214.5,266.5C 214.334,271.511 214.501,276.511 215,281.5C 215.465,282.931 216.299,284.097 217.5,285C 225.903,286.138 234.403,286.638 243,286.5C 250.833,286.333 258.667,286.167 266.5,286C 277.251,283.413 282.585,276.58 282.5,265.5C 287.167,265.5 291.833,265.5 296.5,265.5C 296.008,282.495 287.674,293.662 271.5,299C 253.41,299.026 235.41,299.693 217.5,301C 216.667,301.833 215.833,302.667 215,303.5C 214.667,319.167 214.333,334.833 214,350.5C 209.143,356.099 204.976,355.766 201.5,349.5 Z"/></g>
<g><path style="opacity:1" fill="#fecd55" d="M 228.5,266.5 C 242.209,265.852 255.542,266.519 268.5,268.5C 268.426,270.411 267.426,271.578 265.5,272C 253.171,272.5 240.838,272.667 228.5,272.5C 228.5,270.5 228.5,268.5 228.5,266.5 Z"/></g>
<g><path style="opacity:1" fill="#7e743e" d="M 235.5,427.5 C 235.5,430.5 235.5,433.5 235.5,436.5C 233.265,436.795 231.265,436.461 229.5,435.5C 231.167,435.5 232.833,435.5 234.5,435.5C 234.194,432.615 234.527,429.948 235.5,427.5 Z"/></g>
</svg>
