<?xml version="1.0" encoding="UTF-8"?>
<!DOCTYPE svg PUBLIC "-//W3C//DTD SVG 1.1//EN" "http://www.w3.org/Graphics/SVG/1.1/DTD/svg11.dtd">
<svg xmlns="http://www.w3.org/2000/svg" version="1.1" width="512px" height="512px" style="shape-rendering:geometricPrecision; text-rendering:geometricPrecision; image-rendering:optimizeQuality; fill-rule:evenodd; clip-rule:evenodd" xmlns:xlink="http://www.w3.org/1999/xlink">
<g><path style="opacity:1" fill="#fff59e" d="M 232.5,-0.5 C 247.833,-0.5 263.167,-0.5 278.5,-0.5C 375.141,11.893 445.308,61.5596 489,148.5C 494.015,159.528 498.182,170.862 501.5,182.5C 500.761,182.369 500.094,182.536 499.5,183C 488.965,193.702 478.298,204.202 467.5,214.5C 459.326,172.811 440.659,136.811 411.5,106.5C 410.833,105.5 410.167,104.5 409.5,103.5C 417.408,94.0877 425.908,85.0877 435,76.5C 434.107,73.5638 432.274,71.0638 429.5,69C 421.25,62.2509 412.584,56.0843 403.5,50.5C 395.092,59.91 386.092,68.5766 376.5,76.5C 352.188,60.6194 325.855,49.6194 297.5,43.5C 305.631,34.8683 313.964,26.3683 322.5,18C 219.461,-1.87833 133.961,27.955 66,107.5C 17.1428,171.759 1.14284,243.425 18,322.5C 26.3683,313.964 34.8683,305.631 43.5,297.5C 49.6194,325.855 60.6194,352.188 76.5,376.5C 68.5766,386.092 59.91,395.092 50.5,403.5C 57.4083,414.809 65.4083,425.309 74.5,435C 75.1667,435.667 75.8333,435.667 76.5,435C 85.3963,426.272 94.0629,417.438 102.5,408.5C 104.167,409.833 105.833,411.167 107.5,412.5C 137.654,441.08 173.321,459.413 214.5,467.5C 204.202,478.298 193.702,488.965 183,499.5C 182.536,500.094 182.369,500.761 182.5,501.5C 106.176,477.346 51.6757,428.679 19,355.5C 8.86392,330.621 2.36392,304.954 -0.5,278.5C -0.5,263.167 -0.5,247.833 -0.5,232.5C 10.3875,142.857 54.7208,75.3573 132.5,30C 163.971,13.3053 197.304,3.1386 232.5,-0.5 Z"/></g>
<g><path style="opacity:1" fill="#fee56e" d="M 297.5,43.5 C 214.232,29.9748 144.732,54.6414 89,117.5C 47.1438,170.574 31.9771,230.574 43.5,297.5C 34.8683,305.631 26.3683,313.964 18,322.5C 1.14284,243.425 17.1428,171.759 66,107.5C 133.961,27.955 219.461,-1.87833 322.5,18C 313.964,26.3683 305.631,34.8683 297.5,43.5 Z"/></g>
<g><path style="opacity:1" fill="#fabe32" d="M 297.5,43.5 C 325.855,49.6194 352.188,60.6194 376.5,76.5C 388.347,84.3353 399.347,93.3353 409.5,103.5C 410.167,104.5 410.833,105.5 411.5,106.5C 409.938,106.267 408.605,105.6 407.5,104.5C 354.402,62.7277 294.402,48.2277 227.5,61C 174.639,73.0896 131.972,100.59 99.5,143.5C 98.1667,143.5 96.8333,143.5 95.5,143.5C 95.5,145.5 95.5,147.5 95.5,149.5C 60.5018,200.441 49.0018,256.441 61,317.5C 68.335,351.165 82.835,381.165 104.5,407.5C 105.925,408.922 106.925,410.589 107.5,412.5C 105.833,411.167 104.167,409.833 102.5,408.5C 92.8645,398.527 84.1978,387.861 76.5,376.5C 60.6194,352.188 49.6194,325.855 43.5,297.5C 31.9771,230.574 47.1438,170.574 89,117.5C 144.732,54.6414 214.232,29.9748 297.5,43.5 Z"/></g>
<g><path style="opacity:1" fill="#fee66e" d="M 409.5,103.5 C 399.347,93.3353 388.347,84.3353 376.5,76.5C 386.092,68.5766 395.092,59.91 403.5,50.5C 412.584,56.0843 421.25,62.2509 429.5,69C 432.274,71.0638 434.107,73.5638 435,76.5C 425.908,85.0877 417.408,94.0877 409.5,103.5 Z"/></g>
<g><path style="opacity:1" fill="#f9c740" d="M 407.5,104.5 C 406.761,104.369 406.094,104.536 405.5,105C 381.632,129.035 357.632,152.868 333.5,176.5C 330.718,166.032 328.218,155.365 326,144.5C 320.734,143.176 315.567,143.176 310.5,144.5C 301.25,143.528 291.917,143.195 282.5,143.5C 278.978,175.533 275.311,207.533 271.5,239.5C 250.535,259.965 229.701,280.632 209,301.5C 208.517,302.448 208.351,303.448 208.5,304.5C 199.944,293.748 191.611,282.748 183.5,271.5C 224.956,261.261 243.122,234.927 238,192.5C 227.411,159.371 204.911,143.371 170.5,144.5C 146.859,143.54 123.193,143.207 99.5,143.5C 131.972,100.59 174.639,73.0896 227.5,61C 294.402,48.2277 354.402,62.7277 407.5,104.5 Z"/></g>
<g><path style="opacity:1" fill="#fbd24d" d="M 407.5,104.5 C 408.605,105.6 409.938,106.267 411.5,106.5C 440.659,136.811 459.326,172.811 467.5,214.5C 480.503,294.659 457.503,362.492 398.5,418C 344.92,462.91 283.586,479.41 214.5,467.5C 173.321,459.413 137.654,441.08 107.5,412.5C 106.925,410.589 105.925,408.922 104.5,407.5C 104.369,406.761 104.536,406.094 105,405.5C 117.702,392.965 130.202,380.298 142.5,367.5C 142.833,367.5 143.167,367.5 143.5,367.5C 153.798,357.702 163.965,347.702 174,337.5C 174.483,336.552 174.649,335.552 174.5,334.5C 182.934,345.174 191.268,356.008 199.5,367C 212.673,367.827 225.673,367.66 238.5,366.5C 244.084,367.618 249.751,367.785 255.5,367C 239.46,346.405 223.793,325.572 208.5,304.5C 208.351,303.448 208.517,302.448 209,301.5C 229.701,280.632 250.535,259.965 271.5,239.5C 266.906,282.183 262.239,324.849 257.5,367.5C 268.167,367.5 278.833,367.5 289.5,367.5C 289.216,365.585 289.549,363.919 290.5,362.5C 290.5,364.167 290.5,365.833 290.5,367.5C 295.833,367.5 301.167,367.5 306.5,367.5C 308.061,347.122 310.061,326.788 312.5,306.5C 317.903,326.544 322.57,346.877 326.5,367.5C 335.167,367.5 343.833,367.5 352.5,367.5C 357.833,367.5 363.167,367.5 368.5,367.5C 372.225,350.157 376.058,332.824 380,315.5C 381.095,310.22 381.595,304.887 381.5,299.5C 383.933,322.058 386.6,344.724 389.5,367.5C 400.167,367.5 410.833,367.5 421.5,367.5C 426.833,367.5 432.167,367.5 437.5,367.5C 429.312,292.811 420.979,218.144 412.5,143.5C 407.167,143.5 401.833,143.5 396.5,143.5C 387.475,143.168 378.475,143.502 369.5,144.5C 362.324,175.993 354.991,207.326 347.5,238.5C 342.232,218.086 337.566,197.419 333.5,176.5C 357.632,152.868 381.632,129.035 405.5,105C 406.094,104.536 406.761,104.369 407.5,104.5 Z"/></g>
<g><path style="opacity:1" fill="#feef81" d="M 99.5,143.5 C 123.193,143.207 146.859,143.54 170.5,144.5C 203.261,152.517 220.928,173.35 223.5,207C 221.112,242.559 202.446,264.059 167.5,271.5C 191.419,303.018 215.086,334.684 238.5,366.5C 225.673,367.66 212.673,367.827 199.5,367C 191.268,356.008 182.934,345.174 174.5,334.5C 164.52,320.526 154.186,306.859 143.5,293.5C 138.831,286.174 133.664,279.174 128,272.5C 127.5,304.165 127.333,335.832 127.5,367.5C 116.833,367.5 106.167,367.5 95.5,367.5C 95.5,294.833 95.5,222.167 95.5,149.5C 95.5,147.5 95.5,145.5 95.5,143.5C 96.8333,143.5 98.1667,143.5 99.5,143.5 Z"/></g>
<g><path style="opacity:1" fill="#f5b932" d="M 170.5,144.5 C 204.911,143.371 227.411,159.371 238,192.5C 243.122,234.927 224.956,261.261 183.5,271.5C 191.611,282.748 199.944,293.748 208.5,304.5C 223.793,325.572 239.46,346.405 255.5,367C 249.751,367.785 244.084,367.618 238.5,366.5C 215.086,334.684 191.419,303.018 167.5,271.5C 202.446,264.059 221.112,242.559 223.5,207C 220.928,173.35 203.261,152.517 170.5,144.5 Z"/></g>
<g><path style="opacity:1" fill="#feef81" d="M 310.5,144.5 C 319.351,188.044 329.018,231.377 339.5,274.5C 340.251,273.624 340.751,272.624 341,271.5C 343.488,260.544 345.654,249.544 347.5,238.5C 354.991,207.326 362.324,175.993 369.5,144.5C 378.475,143.502 387.475,143.168 396.5,143.5C 404.687,218.182 413.02,292.849 421.5,367.5C 410.833,367.5 400.167,367.5 389.5,367.5C 386.6,344.724 383.933,322.058 381.5,299.5C 379.964,285.512 378.464,271.512 377,257.5C 368.512,294.094 360.345,330.761 352.5,367.5C 343.833,367.5 335.167,367.5 326.5,367.5C 322.57,346.877 317.903,326.544 312.5,306.5C 309.727,290.013 306.227,273.68 302,257.5C 298.203,292.51 294.369,327.51 290.5,362.5C 289.549,363.919 289.216,365.585 289.5,367.5C 278.833,367.5 268.167,367.5 257.5,367.5C 262.239,324.849 266.906,282.183 271.5,239.5C 275.311,207.533 278.978,175.533 282.5,143.5C 291.917,143.195 301.25,143.528 310.5,144.5 Z"/></g>
<g><path style="opacity:1" fill="#f5b933" d="M 333.5,176.5 C 337.566,197.419 342.232,218.086 347.5,238.5C 345.654,249.544 343.488,260.544 341,271.5C 340.751,272.624 340.251,273.624 339.5,274.5C 329.018,231.377 319.351,188.044 310.5,144.5C 315.567,143.176 320.734,143.176 326,144.5C 328.218,155.365 330.718,166.032 333.5,176.5 Z"/></g>
<g><path style="opacity:1" fill="#f5b933" d="M 396.5,143.5 C 401.833,143.5 407.167,143.5 412.5,143.5C 420.979,218.144 429.312,292.811 437.5,367.5C 432.167,367.5 426.833,367.5 421.5,367.5C 413.02,292.849 404.687,218.182 396.5,143.5 Z"/></g>
<g><path style="opacity:1" fill="#fac740" d="M 95.5,149.5 C 95.5,222.167 95.5,294.833 95.5,367.5C 106.167,367.5 116.833,367.5 127.5,367.5C 132.5,367.5 137.5,367.5 142.5,367.5C 130.202,380.298 117.702,392.965 105,405.5C 104.536,406.094 104.369,406.761 104.5,407.5C 82.835,381.165 68.335,351.165 61,317.5C 49.0018,256.441 60.5018,200.441 95.5,149.5 Z"/></g>
<g><path style="opacity:1" fill="#f4b931" d="M 143.5,175.5 C 143.5,196.833 143.5,218.167 143.5,239.5C 138.167,239.5 132.833,239.5 127.5,239.5C 127.5,218.167 127.5,196.833 127.5,175.5C 132.833,175.5 138.167,175.5 143.5,175.5 Z"/></g>
<g><path style="opacity:1" fill="#fac841" d="M 143.5,175.5 C 150.175,175.334 156.842,175.5 163.5,176C 180.449,178.947 189.782,188.947 191.5,206C 191.116,222.032 183.449,232.698 168.5,238C 160.227,239.33 151.893,239.83 143.5,239.5C 143.5,218.167 143.5,196.833 143.5,175.5 Z"/></g>
<g><path style="opacity:0.991" fill="#fee66e" d="M 501.5,182.5 C 506.267,199.004 509.601,215.67 511.5,232.5C 511.5,247.833 511.5,263.167 511.5,278.5C 500.612,368.144 456.279,435.644 378.5,481C 347.029,497.695 313.696,507.861 278.5,511.5C 263.167,511.5 247.833,511.5 232.5,511.5C 215.695,509.473 199.028,506.14 182.5,501.5C 182.369,500.761 182.536,500.094 183,499.5C 193.702,488.965 204.202,478.298 214.5,467.5C 283.586,479.41 344.92,462.91 398.5,418C 457.503,362.492 480.503,294.659 467.5,214.5C 478.298,204.202 488.965,193.702 499.5,183C 500.094,182.536 500.761,182.369 501.5,182.5 Z"/></g>
<g><path style="opacity:1" fill="#f5b933" d="M 312.5,306.5 C 310.061,326.788 308.061,347.122 306.5,367.5C 301.167,367.5 295.833,367.5 290.5,367.5C 290.5,365.833 290.5,364.167 290.5,362.5C 294.369,327.51 298.203,292.51 302,257.5C 306.227,273.68 309.727,290.013 312.5,306.5 Z"/></g>
<g><path style="opacity:1" fill="#f5b933" d="M 381.5,299.5 C 381.595,304.887 381.095,310.22 380,315.5C 376.058,332.824 372.225,350.157 368.5,367.5C 363.167,367.5 357.833,367.5 352.5,367.5C 360.345,330.761 368.512,294.094 377,257.5C 378.464,271.512 379.964,285.512 381.5,299.5 Z"/></g>
<g><path style="opacity:1" fill="#f5b932" d="M 143.5,293.5 C 143.5,318.167 143.5,342.833 143.5,367.5C 143.167,367.5 142.833,367.5 142.5,367.5C 137.5,367.5 132.5,367.5 127.5,367.5C 127.333,335.832 127.5,304.165 128,272.5C 133.664,279.174 138.831,286.174 143.5,293.5 Z"/></g>
<g><path style="opacity:1" fill="#fac841" d="M 143.5,293.5 C 154.186,306.859 164.52,320.526 174.5,334.5C 174.649,335.552 174.483,336.552 174,337.5C 163.965,347.702 153.798,357.702 143.5,367.5C 143.5,342.833 143.5,318.167 143.5,293.5 Z"/></g>
<g><path style="opacity:1" fill="#fee66e" d="M 76.5,376.5 C 84.1978,387.861 92.8645,398.527 102.5,408.5C 94.0629,417.438 85.3963,426.272 76.5,435C 75.8333,435.667 75.1667,435.667 74.5,435C 65.4083,425.309 57.4083,414.809 50.5,403.5C 59.91,395.092 68.5766,386.092 76.5,376.5 Z"/></g>
</svg>
