<?xml version="1.0" encoding="UTF-8"?>
<!DOCTYPE svg PUBLIC "-//W3C//DTD SVG 1.1//EN" "http://www.w3.org/Graphics/SVG/1.1/DTD/svg11.dtd">
<svg xmlns="http://www.w3.org/2000/svg" version="1.1" width="48px" height="48px" style="shape-rendering:geometricPrecision; text-rendering:geometricPrecision; image-rendering:optimizeQuality; fill-rule:evenodd; clip-rule:evenodd" xmlns:xlink="http://www.w3.org/1999/xlink">
<g><path style="opacity:1" fill="#2f7c31" d="M 2.5,8.5 C 16.8333,8.5 31.1667,8.5 45.5,8.5C 45.5,11.5 45.5,14.5 45.5,17.5C 35.8333,17.5 26.1667,17.5 16.5,17.5C 11.457,14.985 6.79038,11.985 2.5,8.5 Z"/></g>
<g><path style="opacity:1" fill="#e41d1a" d="M 2.5,8.5 C 6.79038,11.985 11.457,14.985 16.5,17.5C 17.2905,18.4013 18.2905,19.0679 19.5,19.5C 21.3186,20.5845 22.9853,21.9178 24.5,23.5C 22.9853,25.0822 21.3186,26.4155 19.5,27.5C 18.2905,27.9321 17.2905,28.5987 16.5,29.5C 11.457,32.015 6.79038,35.015 2.5,38.5C 1.16667,28.5 1.16667,18.5 2.5,8.5 Z"/></g>
<g><path style="opacity:1" fill="#fffcfc" d="M 16.5,17.5 C 26.1667,17.5 35.8333,17.5 45.5,17.5C 45.5,18.1667 45.5,18.8333 45.5,19.5C 36.8333,19.5 28.1667,19.5 19.5,19.5C 18.2905,19.0679 17.2905,18.4013 16.5,17.5 Z"/></g>
<g><path style="opacity:1" fill="#dba710" d="M 10.5,20.5 C 9.50838,20.6716 8.84171,20.3382 8.5,19.5C 9.6226,18.2426 10.2893,18.5759 10.5,20.5 Z"/></g>
<g><path style="opacity:1" fill="#283137" d="M 19.5,19.5 C 28.1667,19.5 36.8333,19.5 45.5,19.5C 45.5,22.1667 45.5,24.8333 45.5,27.5C 36.8333,27.5 28.1667,27.5 19.5,27.5C 21.3186,26.4155 22.9853,25.0822 24.5,23.5C 22.9853,21.9178 21.3186,20.5845 19.5,19.5 Z"/></g>
<g><path style="opacity:1" fill="#f4800d" d="M 10.5,21.5 C 10.5,21.1667 10.5,20.8333 10.5,20.5C 11.9778,20.238 13.3112,20.5713 14.5,21.5C 14.1445,22.5223 13.4778,23.189 12.5,23.5C 12.5,22.1667 11.8333,21.5 10.5,21.5 Z"/></g>
<g><path style="opacity:1" fill="#686059" d="M 8.5,19.5 C 8.84171,20.3382 9.50838,20.6716 10.5,20.5C 10.5,20.8333 10.5,21.1667 10.5,21.5C 8.86076,22.4725 7.52743,23.8058 6.5,25.5C 3.53952,22.4282 4.20619,20.4282 8.5,19.5 Z"/></g>
<g><path style="opacity:1" fill="#abb0b3" d="M 10.5,21.5 C 11.8333,21.5 12.5,22.1667 12.5,23.5C 12.5,24.1667 12.5,24.8333 12.5,25.5C 10.5,25.5 8.5,25.5 6.5,25.5C 7.52743,23.8058 8.86076,22.4725 10.5,21.5 Z"/></g>
<g><path style="opacity:1" fill="#febb05" d="M 6.5,25.5 C 8.5,25.5 10.5,25.5 12.5,25.5C 12.631,26.2389 12.4643,26.9056 12,27.5C 10.5421,26.2532 9.04213,26.2532 7.5,27.5C 6.70245,27.0431 6.36912,26.3764 6.5,25.5 Z"/></g>
<g><path style="opacity:1" fill="#fffdfd" d="M 19.5,27.5 C 28.1667,27.5 36.8333,27.5 45.5,27.5C 45.5,28.1667 45.5,28.8333 45.5,29.5C 35.8333,29.5 26.1667,29.5 16.5,29.5C 17.2905,28.5987 18.2905,27.9321 19.5,27.5 Z"/></g>
<g><path style="opacity:1" fill="#fec504" d="M 16.5,29.5 C 26.1667,29.5 35.8333,29.5 45.5,29.5C 45.5,32.5 45.5,35.5 45.5,38.5C 31.1667,38.5 16.8333,38.5 2.5,38.5C 6.79038,35.015 11.457,32.015 16.5,29.5 Z"/></g>
</svg>
