<?xml version="1.0" encoding="UTF-8"?>
<!DOCTYPE svg PUBLIC "-//W3C//DTD SVG 1.1//EN" "http://www.w3.org/Graphics/SVG/1.1/DTD/svg11.dtd">
<svg xmlns="http://www.w3.org/2000/svg" version="1.1" width="48px" height="48px" style="shape-rendering:geometricPrecision; text-rendering:geometricPrecision; image-rendering:optimizeQuality; fill-rule:evenodd; clip-rule:evenodd" xmlns:xlink="http://www.w3.org/1999/xlink">
<g><path style="opacity:0.945" fill="#20267e" d="M 34.5,6.5 C 24.4453,13.8839 14.112,20.8839 3.5,27.5C 3.08267,9.02297 12.0827,1.18964 30.5,4C 32.0664,4.6082 33.3998,5.44153 34.5,6.5 Z"/></g>
<g><path style="opacity:0.948" fill="#f5eef1" d="M 34.5,6.5 C 35.7095,6.93205 36.7095,7.59872 37.5,8.5C 26.5178,15.8075 15.5178,23.1408 4.5,30.5C 3.89022,29.609 3.55688,28.609 3.5,27.5C 14.112,20.8839 24.4453,13.8839 34.5,6.5 Z"/></g>
<g><path style="opacity:0.982" fill="#d50b06" d="M 37.5,8.5 C 39.9501,10.6291 41.6167,13.2957 42.5,16.5C 31.4822,23.8592 20.4822,31.1925 9.5,38.5C 7.04993,36.3709 5.38326,33.7043 4.5,30.5C 15.5178,23.1408 26.5178,15.8075 37.5,8.5 Z"/></g>
<g><path style="opacity:1" fill="#7b6a4e" d="M 12.5,8.5 C 19.1584,7.34448 21.1584,9.84448 18.5,16C 11.7496,17.4689 9.74962,14.9689 12.5,8.5 Z"/></g>
<g><path style="opacity:1" fill="#f0ca08" d="M 14.5,10.5 C 17.8606,11.2032 18.1939,12.5365 15.5,14.5C 13.3576,13.5629 13.0243,12.2296 14.5,10.5 Z"/></g>
<g><path style="opacity:0.949" fill="#f7f2ef" d="M 42.5,16.5 C 43.1098,17.391 43.4431,18.391 43.5,19.5C 32.888,26.1161 22.5547,33.1161 12.5,40.5C 11.2905,40.0679 10.2905,39.4013 9.5,38.5C 20.4822,31.1925 31.4822,23.8592 42.5,16.5 Z"/></g>
<g><path style="opacity:0.974" fill="#398e3d" d="M 43.5,19.5 C 43.9173,37.977 34.9173,45.8104 16.5,43C 14.9336,42.3918 13.6002,41.5585 12.5,40.5C 22.5547,33.1161 32.888,26.1161 43.5,19.5 Z"/></g>
</svg>
