<?xml version="1.0" encoding="UTF-8"?>
<!DOCTYPE svg PUBLIC "-//W3C//DTD SVG 1.1//EN" "http://www.w3.org/Graphics/SVG/1.1/DTD/svg11.dtd">
<svg xmlns="http://www.w3.org/2000/svg" version="1.1" width="64px" height="64px" style="shape-rendering:geometricPrecision; text-rendering:geometricPrecision; image-rendering:optimizeQuality; fill-rule:evenodd; clip-rule:evenodd" xmlns:xlink="http://www.w3.org/1999/xlink">
<g><path style="opacity:1" fill="#fdfdfd" d="M -0.5,-0.5 C 20.8333,-0.5 42.1667,-0.5 63.5,-0.5C 63.5,20.8333 63.5,42.1667 63.5,63.5C 42.1667,63.5 20.8333,63.5 -0.5,63.5C -0.5,42.1667 -0.5,20.8333 -0.5,-0.5 Z"/></g>
<g><path style="opacity:1" fill="#040404" d="M 16.5,15.5 C 18.1992,15.3398 19.8659,15.5065 21.5,16C 28.3333,24.1667 35.1667,32.3333 42,40.5C 42.6667,34.5 42.6667,28.5 42,22.5C 39.3723,24.1255 37.039,26.1255 35,28.5C 34.8333,28 34.6667,27.5 34.5,27C 36.8179,23.3436 39.1512,19.6769 41.5,16C 43.7008,15.1751 45.5341,15.6751 47,17.5C 47.6667,26.8333 47.6667,36.1667 47,45.5C 45.5341,47.3249 43.7008,47.8249 41.5,47C 34.5476,38.9258 27.7143,30.7591 21,22.5C 20.3333,28.5 20.3333,34.5 21,40.5C 22.8333,38.6667 24.6667,36.8333 26.5,35C 27.3317,34.3123 27.9984,34.479 28.5,35.5C 25.9566,39.4206 23.2899,43.2539 20.5,47C 19.1011,47.5946 17.7678,47.4279 16.5,46.5C 15.1929,36.1059 15.1929,25.7726 16.5,15.5 Z"/></g>
</svg>
