<?xml version="1.0" encoding="UTF-8"?>
<!DOCTYPE svg PUBLIC "-//W3C//DTD SVG 1.1//EN" "http://www.w3.org/Graphics/SVG/1.1/DTD/svg11.dtd">
<svg xmlns="http://www.w3.org/2000/svg" version="1.1" width="512px" height="512px" style="shape-rendering:geometricPrecision; text-rendering:geometricPrecision; image-rendering:optimizeQuality; fill-rule:evenodd; clip-rule:evenodd" xmlns:xlink="http://www.w3.org/1999/xlink">
<g><path style="opacity:0.964" fill="#010102" d="M 232.5,-0.5 C 247.5,-0.5 262.5,-0.5 277.5,-0.5C 376.176,12.033 447.01,63.033 490,152.5C 502.607,182.721 509.774,214.054 511.5,246.5C 511.5,252.5 511.5,258.5 511.5,264.5C 504.782,359.482 460.782,431.315 379.5,480C 347.466,497.292 313.466,507.792 277.5,511.5C 262.5,511.5 247.5,511.5 232.5,511.5C 128.589,498.414 56.0886,443.747 15,347.5C 7.89241,328.57 3.05907,309.07 0.5,289C 0.0540667,283.708 2.3874,280.541 7.5,279.5C 12.6321,279.477 16.1321,281.81 18,286.5C 21.8392,316.852 31.3392,345.185 46.5,371.5C 74.8287,421.651 115.829,457.485 169.5,479C 242.089,504.49 311.756,498.156 378.5,460C 447.557,415.851 485.724,352.685 493,270.5C 495.958,179.583 460.458,108.083 386.5,56C 340.41,26.0613 290.077,13.228 235.5,17.5C 152.028,26.462 88.8612,66.7953 46,138.5C 30.306,166.915 20.6393,197.249 17,229.5C 15.1893,233.655 12.0226,235.655 7.5,235.5C 3.54036,234.535 0.873694,232.201 -0.5,228.5C -0.5,227.167 -0.5,225.833 -0.5,224.5C 14.2471,129.158 65.2471,60.9913 152.5,20C 178.241,9.06548 204.908,2.23215 232.5,-0.5 Z"/></g>
<g><path style="opacity:1" fill="#c9e1f8" d="M 235.5,17.5 C 245.167,17.5 254.833,17.5 264.5,17.5C 264.276,21.5616 262.276,24.395 258.5,26C 165.075,38.6118 97.5745,87.1118 56,171.5C 33.8705,223.571 29.2038,277.237 42,332.5C 45.0301,342.722 48.1968,352.889 51.5,363C 51.4912,366.856 49.8246,369.69 46.5,371.5C 31.3392,345.185 21.8392,316.852 18,286.5C 16.1321,281.81 12.6321,279.477 7.5,279.5C 6.27739,264.829 6.27739,250.162 7.5,235.5C 12.0226,235.655 15.1893,233.655 17,229.5C 20.6393,197.249 30.306,166.915 46,138.5C 88.8612,66.7953 152.028,26.462 235.5,17.5 Z"/></g>
<g><path style="opacity:1" fill="#b3d2f2" d="M 235.5,17.5 C 290.077,13.228 340.41,26.0613 386.5,56C 460.458,108.083 495.958,179.583 493,270.5C 485.724,352.685 447.557,415.851 378.5,460C 311.756,498.156 242.089,504.49 169.5,479C 115.829,457.485 74.8287,421.651 46.5,371.5C 49.8246,369.69 51.4912,366.856 51.5,363C 48.1968,352.889 45.0301,342.722 42,332.5C 29.2038,277.237 33.8705,223.571 56,171.5C 97.5745,87.1118 165.075,38.6118 258.5,26C 262.276,24.395 264.276,21.5616 264.5,17.5C 254.833,17.5 245.167,17.5 235.5,17.5 Z"/></g>
<g><path style="opacity:1" fill="#030303" d="M 394.5,402.5 C 392.653,399.406 392.153,396.072 393,392.5C 447.747,332.105 462.08,263.105 436,185.5C 408.597,121.104 360.764,80.9376 292.5,65C 284.604,63.193 276.604,62.3597 268.5,62.5C 190.569,59.2142 130.403,90.2142 88,155.5C 56.9065,210.289 52.2399,267.289 74,326.5C 76.8094,334.786 80.6427,342.452 85.5,349.5C 111.971,396.607 151.304,427.774 203.5,443C 258.876,456.436 310.876,448.436 359.5,419C 363.327,418.024 366.66,418.857 369.5,421.5C 372.912,427.88 371.246,432.714 364.5,436C 300.773,472.078 235.106,476.078 167.5,448C 97.2605,413.405 56.4272,357.238 45,279.5C 38.3828,201.932 64.8828,138.432 124.5,89C 181.863,46.4359 245.196,34.4359 314.5,53C 384.014,75.8472 431.18,121.68 456,190.5C 476.409,262.778 464.076,328.778 419,388.5C 414.867,393.634 410.367,398.468 405.5,403C 401.719,405.035 398.052,404.868 394.5,402.5 Z"/></g>
<g><path style="opacity:1" fill="#e7fdd7" d="M 268.5,62.5 C 268.957,67.4206 266.957,70.9206 262.5,73C 200.347,83.3135 152.181,114.814 118,167.5C 84.1778,221.089 75.6778,278.422 92.5,339.5C 92.1167,344.287 89.7833,347.621 85.5,349.5C 80.6427,342.452 76.8094,334.786 74,326.5C 52.2399,267.289 56.9065,210.289 88,155.5C 130.403,90.2142 190.569,59.2142 268.5,62.5 Z"/></g>
<g><path style="opacity:1" fill="#d9fdbe" d="M 268.5,62.5 C 276.604,62.3597 284.604,63.193 292.5,65C 360.764,80.9376 408.597,121.104 436,185.5C 462.08,263.105 447.747,332.105 393,392.5C 392.153,396.072 392.653,399.406 394.5,402.5C 388.706,407.123 383.039,411.956 377.5,417C 375.183,419.157 372.516,420.657 369.5,421.5C 366.66,418.857 363.327,418.024 359.5,419C 310.876,448.436 258.876,456.436 203.5,443C 151.304,427.774 111.971,396.607 85.5,349.5C 89.7833,347.621 92.1167,344.287 92.5,339.5C 75.6778,278.422 84.1778,221.089 118,167.5C 152.181,114.814 200.347,83.3135 262.5,73C 266.957,70.9206 268.957,67.4206 268.5,62.5 Z"/></g>
<g><path style="opacity:1" fill="#030402" d="M 219.5,135.5 C 220.447,140.223 219.114,144.056 215.5,147C 191.388,156.223 167.388,165.723 143.5,175.5C 142.167,228.833 142.167,282.167 143.5,335.5C 177.191,348.84 210.857,362.173 244.5,375.5C 244.56,376.043 244.893,376.376 245.5,376.5C 246.5,323.171 246.833,269.837 246.5,216.5C 247.552,212.443 250.218,209.943 254.5,209C 286.946,196.277 319.28,183.277 351.5,170C 318.913,156.804 286.246,143.804 253.5,131C 250.379,130.033 248.046,128.2 246.5,125.5C 245.175,117.335 248.509,113.502 256.5,114C 298.423,130.298 340.09,147.132 381.5,164.5C 384.789,169.99 383.789,174.49 378.5,178C 340.46,193.069 302.46,208.235 264.5,223.5C 263.667,279.164 263.167,334.83 263,390.5C 261.46,395.853 257.96,398.019 252.5,397C 212.087,381.196 171.754,365.196 131.5,349C 128.572,347.74 126.739,345.573 126,342.5C 125.333,284.167 125.333,225.833 126,167.5C 127.167,165 129,163.167 131.5,162C 156.58,152.196 181.58,142.196 206.5,132C 211.833,129.676 216.167,130.843 219.5,135.5 Z"/></g>
<g><path style="opacity:1" fill="#bdf990" d="M 246.5,125.5 C 248.046,128.2 250.379,130.033 253.5,131C 286.246,143.804 318.913,156.804 351.5,170C 319.28,183.277 286.946,196.277 254.5,209C 250.218,209.943 247.552,212.443 246.5,216.5C 245.833,269.5 245.167,322.5 244.5,375.5C 210.857,362.173 177.191,348.84 143.5,335.5C 142.167,282.167 142.167,228.833 143.5,175.5C 167.388,165.723 191.388,156.223 215.5,147C 219.114,144.056 220.447,140.223 219.5,135.5C 228.599,132.452 237.599,129.118 246.5,125.5 Z"/></g>
<g><path style="opacity:1" fill="#020302" d="M 375.5,216.5 C 349.754,226.203 324.087,236.203 298.5,246.5C 297.5,264.821 297.167,283.155 297.5,301.5C 320.233,309.967 342.9,318.634 365.5,327.5C 365.56,328.043 365.893,328.376 366.5,328.5C 367.5,306.844 367.833,285.177 367.5,263.5C 368.144,260.856 369.811,259.189 372.5,258.5C 376.909,257.618 380.409,258.952 383,262.5C 383.667,289.833 383.667,317.167 383,344.5C 380.489,348.34 376.989,349.84 372.5,349C 343.246,337.138 313.913,325.471 284.5,314C 283.667,313.167 282.833,312.333 282,311.5C 280.353,286.921 280.02,262.254 281,237.5C 282.543,235.622 284.376,234.122 286.5,233C 314.913,221.862 343.246,210.529 371.5,199C 380.686,197.519 384.519,201.353 383,210.5C 380.925,213.11 378.425,215.11 375.5,216.5 Z"/></g>
<g><path style="opacity:1" fill="#bdf990" d="M 375.5,216.5 C 375.5,230.167 375.5,243.833 375.5,257.5C 374.209,257.263 373.209,257.596 372.5,258.5C 369.811,259.189 368.144,260.856 367.5,263.5C 366.833,284.833 366.167,306.167 365.5,327.5C 342.9,318.634 320.233,309.967 297.5,301.5C 297.167,283.155 297.5,264.821 298.5,246.5C 324.087,236.203 349.754,226.203 375.5,216.5 Z"/></g>
<g><path style="opacity:1" fill="#789f5c" d="M 246.5,216.5 C 246.833,269.837 246.5,323.171 245.5,376.5C 244.893,376.376 244.56,376.043 244.5,375.5C 245.167,322.5 245.833,269.5 246.5,216.5 Z"/></g>
<g><path style="opacity:1" fill="#222d1a" d="M 367.5,263.5 C 367.833,285.177 367.5,306.844 366.5,328.5C 365.893,328.376 365.56,328.043 365.5,327.5C 366.167,306.167 366.833,284.833 367.5,263.5 Z"/></g>
</svg>
