<?xml version="1.0" encoding="UTF-8"?>
<!DOCTYPE svg PUBLIC "-//W3C//DTD SVG 1.1//EN" "http://www.w3.org/Graphics/SVG/1.1/DTD/svg11.dtd">
<svg xmlns="http://www.w3.org/2000/svg" version="1.1" width="512px" height="512px" style="shape-rendering:geometricPrecision; text-rendering:geometricPrecision; image-rendering:optimizeQuality; fill-rule:evenodd; clip-rule:evenodd" xmlns:xlink="http://www.w3.org/1999/xlink">
<g><path style="opacity:0.98" fill="#010000" d="M 409.5,396.5 C 403.975,391.696 402.142,385.696 404,378.5C 452.236,313.939 460.236,244.606 428,170.5C 390.949,102.354 333.449,66.6874 255.5,63.5C 221.27,63.5196 189.27,72.0196 159.5,89C 148.486,95.8395 137.819,103.173 127.5,111C 124.5,111.667 121.5,111.667 118.5,111C 115.589,109.239 112.589,107.739 109.5,106.5C 105.348,99.0418 105.514,91.7085 110,84.5C 165.062,39.3567 227.895,22.8567 298.5,35C 373.744,51.8543 427.91,95.0209 461,164.5C 481.874,214.996 485.207,266.662 471,319.5C 462.231,348.213 448.398,374.047 429.5,397C 422.613,400.475 415.947,400.309 409.5,396.5 Z"/></g>
<g><path style="opacity:1" fill="#fcbf19" d="M 255.5,63.5 C 255.5,116.833 255.5,170.167 255.5,223.5C 252.102,223.82 248.768,223.487 245.5,222.5C 230.955,202.578 216.289,182.744 201.5,163C 189.84,156.664 181.34,159.498 176,171.5C 175.5,188.83 175.333,206.163 175.5,223.5C 167.747,223.104 160.08,223.604 152.5,225C 144.244,230.1 141.744,237.266 145,246.5C 146.833,249.667 149.333,252.167 152.5,254C 160.08,255.396 167.747,255.896 175.5,255.5C 175.5,260.833 175.5,266.167 175.5,271.5C 167.747,271.104 160.08,271.604 152.5,273C 144.244,278.1 141.744,285.266 145,294.5C 146.833,297.667 149.333,300.167 152.5,302C 160.08,303.396 167.747,303.896 175.5,303.5C 175.333,320.837 175.5,338.17 176,355.5C 181.394,367.52 189.894,370.353 201.5,364C 203.969,361.559 205.802,358.726 207,355.5C 207.5,338.17 207.667,320.837 207.5,303.5C 223.5,303.5 239.5,303.5 255.5,303.5C 255.5,351.5 255.5,399.5 255.5,447.5C 173.17,444.271 114.337,405.604 79,331.5C 51.12,259.797 60.4534,193.464 107,132.5C 108.858,125.304 107.025,119.304 101.5,114.5C 104.527,112.14 107.194,109.473 109.5,106.5C 112.589,107.739 115.589,109.239 118.5,111C 121.5,111.667 124.5,111.667 127.5,111C 137.819,103.173 148.486,95.8395 159.5,89C 189.27,72.0196 221.27,63.5196 255.5,63.5 Z"/></g>
<g><path style="opacity:1" fill="#fc9e0f" d="M 255.5,63.5 C 333.449,66.6874 390.949,102.354 428,170.5C 460.236,244.606 452.236,313.939 404,378.5C 402.142,385.696 403.975,391.696 409.5,396.5C 406.473,398.86 403.806,401.527 401.5,404.5C 399.391,403.609 397.391,402.442 395.5,401C 391.572,399.675 387.572,399.342 383.5,400C 357.018,421.573 327.018,436.24 293.5,444C 280.895,445.894 268.228,447.061 255.5,447.5C 255.5,399.5 255.5,351.5 255.5,303.5C 258.898,303.18 262.232,303.513 265.5,304.5C 280.134,324.934 295.134,345.101 310.5,365C 321.954,370.074 330.121,366.907 335,355.5C 335.5,338.17 335.667,320.837 335.5,303.5C 343.253,303.896 350.92,303.396 358.5,302C 366.589,296.821 369.089,289.655 366,280.5C 364.167,277.333 361.667,274.833 358.5,273C 350.92,271.604 343.253,271.104 335.5,271.5C 335.5,266.167 335.5,260.833 335.5,255.5C 343.253,255.896 350.92,255.396 358.5,254C 366.589,248.821 369.089,241.655 366,232.5C 364.167,229.333 361.667,226.833 358.5,225C 350.92,223.604 343.253,223.104 335.5,223.5C 335.667,205.83 335.5,188.164 335,170.5C 329.496,160.08 321.329,157.247 310.5,162C 307.567,164.264 305.4,167.098 304,170.5C 303.5,188.164 303.333,205.83 303.5,223.5C 287.5,223.5 271.5,223.5 255.5,223.5C 255.5,170.167 255.5,116.833 255.5,63.5 Z"/></g>
<g><path style="opacity:0.98" fill="#010000" d="M 101.5,114.5 C 107.025,119.304 108.858,125.304 107,132.5C 60.4534,193.464 51.12,259.797 79,331.5C 114.337,405.604 173.17,444.271 255.5,447.5C 268.228,447.061 280.895,445.894 293.5,444C 327.018,436.24 357.018,421.573 383.5,400C 387.572,399.342 391.572,399.675 395.5,401C 397.391,402.442 399.391,403.609 401.5,404.5C 405.656,411.953 405.489,419.286 401,426.5C 336.764,477.947 264.93,492.113 185.5,469C 107.86,441.028 58.3603,387.194 37,307.5C 23.2372,245.827 32.9039,188.16 66,134.5C 70.7825,127.383 75.9492,120.55 81.5,114C 88.3867,110.525 95.0534,110.691 101.5,114.5 Z"/></g>
<g><path style="opacity:1" fill="#fef5e2" d="M 255.5,223.5 C 271.5,223.5 287.5,223.5 303.5,223.5C 303.333,205.83 303.5,188.164 304,170.5C 305.4,167.098 307.567,164.264 310.5,162C 321.329,157.247 329.496,160.08 335,170.5C 335.5,188.164 335.667,205.83 335.5,223.5C 343.253,223.104 350.92,223.604 358.5,225C 361.667,226.833 364.167,229.333 366,232.5C 369.089,241.655 366.589,248.821 358.5,254C 350.92,255.396 343.253,255.896 335.5,255.5C 335.5,260.833 335.5,266.167 335.5,271.5C 343.253,271.104 350.92,271.604 358.5,273C 361.667,274.833 364.167,277.333 366,280.5C 369.089,289.655 366.589,296.821 358.5,302C 350.92,303.396 343.253,303.896 335.5,303.5C 335.667,320.837 335.5,338.17 335,355.5C 330.121,366.907 321.954,370.074 310.5,365C 295.134,345.101 280.134,324.934 265.5,304.5C 262.232,303.513 258.898,303.18 255.5,303.5C 239.5,303.5 223.5,303.5 207.5,303.5C 207.667,320.837 207.5,338.17 207,355.5C 205.802,358.726 203.969,361.559 201.5,364C 189.894,370.353 181.394,367.52 176,355.5C 175.5,338.17 175.333,320.837 175.5,303.5C 167.747,303.896 160.08,303.396 152.5,302C 149.333,300.167 146.833,297.667 145,294.5C 141.744,285.266 144.244,278.1 152.5,273C 160.08,271.604 167.747,271.104 175.5,271.5C 175.5,266.167 175.5,260.833 175.5,255.5C 167.747,255.896 160.08,255.396 152.5,254C 149.333,252.167 146.833,249.667 145,246.5C 141.744,237.266 144.244,230.1 152.5,225C 160.08,223.604 167.747,223.104 175.5,223.5C 175.333,206.163 175.5,188.83 176,171.5C 181.34,159.498 189.84,156.664 201.5,163C 216.289,182.744 230.955,202.578 245.5,222.5C 248.768,223.487 252.102,223.82 255.5,223.5 Z"/></g>
<g><path style="opacity:1" fill="#fdc01b" d="M 207.5,255.5 C 215.174,255.334 222.841,255.5 230.5,256C 234.167,261 237.833,266 241.5,271C 230.172,271.5 218.838,271.667 207.5,271.5C 207.5,266.167 207.5,260.833 207.5,255.5 Z"/></g>
<g><path style="opacity:1" fill="#fd9f11" d="M 269.5,256.5 C 280.654,255.505 291.988,255.172 303.5,255.5C 303.5,260.833 303.5,266.167 303.5,271.5C 295.826,271.666 288.159,271.5 280.5,271C 276.97,265.982 273.303,261.149 269.5,256.5 Z"/></g>
</svg>
