<?xml version="1.0" encoding="UTF-8"?>
<!DOCTYPE svg PUBLIC "-//W3C//DTD SVG 1.1//EN" "http://www.w3.org/Graphics/SVG/1.1/DTD/svg11.dtd">
<svg xmlns="http://www.w3.org/2000/svg" version="1.1" width="512px" height="512px" style="shape-rendering:geometricPrecision; text-rendering:geometricPrecision; image-rendering:optimizeQuality; fill-rule:evenodd; clip-rule:evenodd" xmlns:xlink="http://www.w3.org/1999/xlink">
<g><path style="opacity:0.98" fill="#401033" d="M 242.5,3.5 C 332.347,1.51355 404.513,35.8469 459,106.5C 505.441,173.475 518.108,246.475 497,325.5C 465.45,420.386 400.95,478.886 303.5,501C 207.519,516.123 127.352,487.623 63,415.5C 7.88919,345.28 -7.77748,266.946 16,180.5C 44.8603,95.6392 102.027,39.8059 187.5,13C 205.682,8.09734 224.015,4.93068 242.5,3.5 Z"/></g>
<g><path style="opacity:1" fill="#fde792" d="M 411.5,78.5 C 381.028,62.6307 348.694,52.7974 314.5,49C 308.651,48.1816 302.985,48.3483 297.5,49.5C 217.3,35.9532 150.133,59.2866 96,119.5C 54.8203,170.198 39.6536,227.864 50.5,292.5C 50.4173,335.049 60.7506,375.049 81.5,412.5C 41.0563,367.707 20.723,314.874 20.5,254C 23.4877,163.652 63.4877,95.3191 140.5,49C 220.497,7.2608 299.83,8.59413 378.5,53C 390.291,60.5523 401.291,69.0523 411.5,78.5 Z"/></g>
<g><path style="opacity:1" fill="#421233" d="M 297.5,49.5 C 372.653,67.156 424.486,111.823 453,183.5C 456.221,192.659 458.721,201.992 460.5,211.5C 474.891,297.176 448.557,367.343 381.5,422C 331.523,457.764 276.189,470.264 215.5,459.5C 140.566,442.734 88.7324,398.734 60,327.5C 55.9088,316.063 52.7421,304.397 50.5,292.5C 39.6536,227.864 54.8203,170.198 96,119.5C 150.133,59.2866 217.3,35.9532 297.5,49.5 Z"/></g>
<g><path style="opacity:1" fill="#f8d434" d="M 297.5,49.5 C 302.985,48.3483 308.651,48.1816 314.5,49C 348.694,52.7974 381.028,62.6307 411.5,78.5C 418.11,83.4412 424.11,89.1078 429.5,95.5C 446.485,125.29 456.985,157.29 461,191.5C 461.821,198.346 461.654,205.013 460.5,211.5C 458.721,201.992 456.221,192.659 453,183.5C 424.486,111.823 372.653,67.156 297.5,49.5 Z"/></g>
<g><path style="opacity:1" fill="#ef7b17" d="M 397.5,114.5 C 392.893,117.768 388.559,121.435 384.5,125.5C 331.826,77.2493 270.826,62.416 201.5,81C 136.198,104.062 95.0314,149.228 78,216.5C 66.7716,280.623 83.2716,336.29 127.5,383.5C 123.167,387.167 119.167,391.167 115.5,395.5C 70.8266,349.324 51.6599,293.99 58,229.5C 71.1743,151.336 114.341,97.1693 187.5,67C 254.483,44.6694 316.817,53.6694 374.5,94C 382.659,100.328 390.325,107.161 397.5,114.5 Z"/></g>
<g><path style="opacity:1" fill="#421233" d="M 384.5,125.5 C 437.157,182.522 450.657,247.855 425,321.5C 399.863,379.966 356.363,416.8 294.5,432C 230.389,444.234 174.722,428.067 127.5,383.5C 83.2716,336.29 66.7716,280.623 78,216.5C 95.0314,149.228 136.198,104.062 201.5,81C 270.826,62.416 331.826,77.2493 384.5,125.5 Z"/></g>
<g><path style="opacity:1" fill="#fee993" d="M 377.5,133.5 C 349.035,161.465 320.701,189.632 292.5,218C 289.305,218.181 286.305,218.681 283.5,219.5C 282.523,222.287 282.19,225.287 282.5,228.5C 265.5,245.167 248.5,261.833 231.5,278.5C 227.276,273.075 223.276,267.409 219.5,261.5C 233.681,247.485 248.015,233.651 262.5,220C 254.167,219.333 245.833,219.333 237.5,220C 222.631,234.701 207.965,249.535 193.5,264.5C 192.833,234.833 192.167,205.167 191.5,175.5C 185.167,175.5 178.833,175.5 172.5,175.5C 172.5,228.167 172.5,280.833 172.5,333.5C 173.833,333.5 175.167,333.5 176.5,333.5C 162.833,347.833 148.833,361.833 134.5,375.5C 106.267,347.027 89.7666,312.693 85,272.5C 80.632,198.628 109.799,142.461 172.5,104C 223.219,77.6492 274.886,75.6492 327.5,98C 346.293,106.978 362.959,118.811 377.5,133.5 Z"/></g>
<g><path style="opacity:1" fill="#f07c16" d="M 429.5,95.5 C 483.568,156.42 502.402,227.086 486,307.5C 460.684,401.069 401.184,460.236 307.5,485C 235.968,499.529 170.968,485.196 112.5,442C 107.305,437.634 102.305,433.134 97.5,428.5C 134.112,449.747 173.445,460.081 215.5,459.5C 276.189,470.264 331.523,457.764 381.5,422C 448.557,367.343 474.891,297.176 460.5,211.5C 461.654,205.013 461.821,198.346 461,191.5C 456.985,157.29 446.485,125.29 429.5,95.5 Z"/></g>
<g><path style="opacity:1" fill="#f3a424" d="M 397.5,114.5 C 448.71,168.678 465.877,232.345 449,305.5C 427.77,376.396 381.937,423.23 311.5,446C 236.549,465.388 171.216,448.555 115.5,395.5C 119.167,391.167 123.167,387.167 127.5,383.5C 174.722,428.067 230.389,444.234 294.5,432C 356.363,416.8 399.863,379.966 425,321.5C 450.657,247.855 437.157,182.522 384.5,125.5C 388.559,121.435 392.893,117.768 397.5,114.5 Z"/></g>
<g><path style="opacity:1" fill="#fad634" d="M 377.5,133.5 C 415.273,171.968 431.773,218.302 427,272.5C 417.951,337.12 384.118,383.62 325.5,412C 266.066,436.346 209.732,430.679 156.5,395C 148.675,389.006 141.342,382.506 134.5,375.5C 148.833,361.833 162.833,347.833 176.5,333.5C 181.833,333.5 187.167,333.5 192.5,333.5C 192.5,328.167 192.5,322.833 192.5,317.5C 200.833,309.5 209.167,301.5 217.5,293.5C 226.032,306.724 234.699,319.89 243.5,333C 251.5,333.667 259.5,333.667 267.5,333C 255.107,315.034 243.107,296.867 231.5,278.5C 248.5,261.833 265.5,245.167 282.5,228.5C 282.5,263.833 282.5,299.167 282.5,334.5C 289.354,334.824 296.021,334.491 302.5,333.5C 302.333,309.498 302.5,285.498 303,261.5C 303.805,252.395 307.639,244.895 314.5,239C 322.559,235.524 330.392,236.024 338,240.5C 340.629,234.74 343.129,228.907 345.5,223C 325.969,210.797 311.135,214.963 301,235.5C 300.501,230.177 300.334,224.844 300.5,219.5C 294.833,219.5 289.167,219.5 283.5,219.5C 286.305,218.681 289.305,218.181 292.5,218C 320.701,189.632 349.035,161.465 377.5,133.5 Z"/></g>
<g><path style="opacity:1" fill="#b35b11" d="M 191.5,175.5 C 191.167,205.507 191.5,235.507 192.5,265.5C 193.107,265.376 193.44,265.043 193.5,264.5C 207.965,249.535 222.631,234.701 237.5,220C 245.833,219.333 254.167,219.333 262.5,220C 248.015,233.651 233.681,247.485 219.5,261.5C 223.276,267.409 227.276,273.075 231.5,278.5C 243.107,296.867 255.107,315.034 267.5,333C 259.5,333.667 251.5,333.667 243.5,333C 234.699,319.89 226.032,306.724 217.5,293.5C 214.344,288.528 211.177,283.528 208,278.5C 207.28,276.745 206.113,275.911 204.5,276C 200.667,279.833 196.833,283.667 193,287.5C 192.5,297.494 192.334,307.494 192.5,317.5C 192.5,322.833 192.5,328.167 192.5,333.5C 187.167,333.5 181.833,333.5 176.5,333.5C 175.167,333.5 173.833,333.5 172.5,333.5C 172.5,280.833 172.5,228.167 172.5,175.5C 178.833,175.5 185.167,175.5 191.5,175.5 Z"/></g>
<g><path style="opacity:1" fill="#d7a151" d="M 191.5,175.5 C 192.167,205.167 192.833,234.833 193.5,264.5C 193.44,265.043 193.107,265.376 192.5,265.5C 191.5,235.507 191.167,205.507 191.5,175.5 Z"/></g>
<g><path style="opacity:1" fill="#b25910" d="M 302.5,333.5 C 296.167,333.5 289.833,333.5 283.5,333.5C 283.5,295.5 283.5,257.5 283.5,219.5C 289.167,219.5 294.833,219.5 300.5,219.5C 300.334,224.844 300.501,230.177 301,235.5C 311.135,214.963 325.969,210.797 345.5,223C 343.129,228.907 340.629,234.74 338,240.5C 330.392,236.024 322.559,235.524 314.5,239C 307.639,244.895 303.805,252.395 303,261.5C 302.5,285.498 302.333,309.498 302.5,333.5 Z"/></g>
<g><path style="opacity:1" fill="#d79a26" d="M 283.5,219.5 C 283.5,257.5 283.5,295.5 283.5,333.5C 289.833,333.5 296.167,333.5 302.5,333.5C 296.021,334.491 289.354,334.824 282.5,334.5C 282.5,299.167 282.5,263.833 282.5,228.5C 282.19,225.287 282.523,222.287 283.5,219.5 Z"/></g>
<g><path style="opacity:1" fill="#fee892" d="M 217.5,293.5 C 209.167,301.5 200.833,309.5 192.5,317.5C 192.334,307.494 192.5,297.494 193,287.5C 196.833,283.667 200.667,279.833 204.5,276C 206.113,275.911 207.28,276.745 208,278.5C 211.177,283.528 214.344,288.528 217.5,293.5 Z"/></g>
<g><path style="opacity:1" fill="#f8d434" d="M 50.5,292.5 C 52.7421,304.397 55.9088,316.063 60,327.5C 88.7324,398.734 140.566,442.734 215.5,459.5C 173.445,460.081 134.112,449.747 97.5,428.5C 91.1667,424.167 85.8333,418.833 81.5,412.5C 60.7506,375.049 50.4173,335.049 50.5,292.5 Z"/></g>
</svg>
