<?xml version="1.0" encoding="UTF-8"?>
<!DOCTYPE svg PUBLIC "-//W3C//DTD SVG 1.1//EN" "http://www.w3.org/Graphics/SVG/1.1/DTD/svg11.dtd">
<svg xmlns="http://www.w3.org/2000/svg" version="1.1" width="512px" height="512px" style="shape-rendering:geometricPrecision; text-rendering:geometricPrecision; image-rendering:optimizeQuality; fill-rule:evenodd; clip-rule:evenodd" xmlns:xlink="http://www.w3.org/1999/xlink">
<g><path style="opacity:0.991" fill="#000000" d="M 232.5,-0.5 C 247.833,-0.5 263.167,-0.5 278.5,-0.5C 368.144,10.3879 435.644,54.7213 481,132.5C 497.695,163.971 507.861,197.304 511.5,232.5C 511.5,247.833 511.5,263.167 511.5,278.5C 498.551,378.271 446.551,449.438 355.5,492C 330.622,502.136 304.955,508.636 278.5,511.5C 263.167,511.5 247.833,511.5 232.5,511.5C 132.727,498.549 61.5605,446.549 19,355.5C 8.86392,330.621 2.36392,304.954 -0.5,278.5C -0.5,263.167 -0.5,247.833 -0.5,232.5C 10.3879,142.856 54.7213,75.3562 132.5,30C 163.971,13.3053 197.304,3.1386 232.5,-0.5 Z M 177.5,139.5 C 199.836,139.333 222.169,139.5 244.5,140C 272.241,144.073 290.574,159.407 299.5,186C 319.542,184.685 327.042,193.519 322,212.5C 315.64,219.222 307.806,221.888 298.5,220.5C 291.755,242.412 277.422,256.912 255.5,264C 247.292,265.951 238.959,266.951 230.5,267C 250.167,282.667 269.833,298.333 289.5,314C 305.167,314.667 320.833,314.667 336.5,314C 337.576,312.274 337.743,310.441 337,308.5C 319.559,310.25 305.559,304.25 295,290.5C 285.328,271.5 288.161,254.667 303.5,240C 307.221,237.473 311.221,235.473 315.5,234C 329.453,232.425 343.453,232.091 357.5,233C 370.609,238.049 374.109,246.882 368,259.5C 365.635,262.869 362.468,265.036 358.5,266C 346.838,266.5 335.171,266.667 323.5,266.5C 322.167,268.833 322.167,271.167 323.5,273.5C 344.764,270.378 359.931,278.378 369,297.5C 375.247,324.899 364.747,341.732 337.5,348C 317.79,348.937 298.123,348.604 278.5,347C 251.976,326.309 225.309,305.809 198.5,285.5C 197.944,302.876 197.111,320.209 196,337.5C 191.321,346.282 184.154,349.449 174.5,347C 169.243,344.744 165.743,340.91 164,335.5C 163.5,297.168 163.333,258.835 163.5,220.5C 153.443,221.668 145.943,218.001 141,209.5C 137.846,198.971 141.346,191.471 151.5,187C 155.486,186.501 159.486,186.334 163.5,186.5C 163.333,175.162 163.5,163.828 164,152.5C 166.451,145.88 170.951,141.546 177.5,139.5 Z"/></g>
<g><path style="opacity:0.972" fill="#000000" d="M 197.5,173.5 C 212.837,173.333 228.17,173.5 243.5,174C 263.229,180.088 270.729,193.255 266,213.5C 262.833,222 257,227.833 248.5,231C 231.556,232.442 214.556,232.942 197.5,232.5C 197.5,212.833 197.5,193.167 197.5,173.5 Z"/></g>
</svg>
