<?xml version="1.0" encoding="UTF-8"?>
<!DOCTYPE svg PUBLIC "-//W3C//DTD SVG 1.1//EN" "http://www.w3.org/Graphics/SVG/1.1/DTD/svg11.dtd">
<svg xmlns="http://www.w3.org/2000/svg" version="1.1" width="512px" height="512px" style="shape-rendering:geometricPrecision; text-rendering:geometricPrecision; image-rendering:optimizeQuality; fill-rule:evenodd; clip-rule:evenodd" xmlns:xlink="http://www.w3.org/1999/xlink">
<g><path style="opacity:0.963" fill="#010000" d="M 234.5,23.5 C 333.128,19.2202 407.961,58.8869 459,142.5C 489.593,200.25 495.926,260.583 478,323.5C 453.791,395.709 406.291,445.876 335.5,474C 253.559,500.787 178.226,488.454 109.5,437C 35.4928,371.972 9.32613,291.138 31,194.5C 52.4744,121.697 97.9744,70.1968 167.5,40C 189.227,31.4845 211.56,25.9845 234.5,23.5 Z"/></g>
<g><path style="opacity:1" fill="#ebbc07" d="M 255.5,39.5 C 255.5,44.8333 255.5,50.1667 255.5,55.5C 179.582,58.0057 121.749,91.339 82,155.5C 46.7073,222.149 46.7073,288.816 82,355.5C 121.747,419.658 179.58,452.992 255.5,455.5C 255.5,460.833 255.5,466.167 255.5,471.5C 175.06,468.713 113.227,433.713 70,366.5C 33.6152,301.291 29.9486,234.291 59,165.5C 92.6285,97.5643 146.795,56.3977 221.5,42C 232.763,40.1754 244.096,39.342 255.5,39.5 Z"/></g>
<g><path style="opacity:1" fill="#fac500" d="M 255.5,39.5 C 339.454,42.3689 402.621,79.7022 445,151.5C 475.79,210.375 479.79,271.041 457,333.5C 424.979,408.505 368.813,453.672 288.5,469C 277.534,470.331 266.534,471.164 255.5,471.5C 255.5,466.167 255.5,460.833 255.5,455.5C 331.428,452.979 389.261,419.646 429,355.5C 464.192,288.806 464.192,222.14 429,155.5C 389.264,91.3587 331.431,58.0254 255.5,55.5C 255.5,50.1667 255.5,44.8333 255.5,39.5 Z"/></g>
<g><path style="opacity:0.998" fill="#030200" d="M 255.5,55.5 C 331.431,58.0254 389.264,91.3587 429,155.5C 464.192,222.14 464.192,288.806 429,355.5C 389.261,419.646 331.428,452.979 255.5,455.5C 179.58,452.992 121.747,419.658 82,355.5C 46.7073,288.816 46.7073,222.149 82,155.5C 121.749,91.339 179.582,58.0057 255.5,55.5 Z"/></g>
<g><path style="opacity:1" fill="#f5d100" d="M 255.5,71.5 C 255.5,108.833 255.5,146.167 255.5,183.5C 249.158,183.334 242.825,183.5 236.5,184C 231.465,187.013 230.298,191.18 233,196.5C 233.903,197.701 235.069,198.535 236.5,199C 249.513,199.167 262.513,199.667 275.5,200.5C 260.433,240.035 245.767,279.702 231.5,319.5C 231.549,323.104 233.216,325.604 236.5,327C 242.825,327.5 249.158,327.666 255.5,327.5C 255.5,364.833 255.5,402.167 255.5,439.5C 188.042,437.368 135.875,408.368 99,352.5C 63.6066,290.054 62.6066,227.054 96,163.5C 132.507,104.596 185.674,73.929 255.5,71.5 Z"/></g>
<g><path style="opacity:1" fill="#fed800" d="M 255.5,71.5 C 325.332,73.9385 378.499,104.605 415,163.5C 448.393,227.055 447.393,290.055 412,352.5C 375.141,408.361 322.974,437.361 255.5,439.5C 255.5,402.167 255.5,364.833 255.5,327.5C 267.171,327.667 278.838,327.5 290.5,327C 295.535,323.987 296.702,319.82 294,314.5C 293.097,313.299 291.931,312.465 290.5,312C 277.487,311.833 264.487,311.333 251.5,310.5C 266.567,270.965 281.233,231.298 295.5,191.5C 295.451,187.896 293.784,185.396 290.5,184C 278.838,183.5 267.171,183.333 255.5,183.5C 255.5,146.167 255.5,108.833 255.5,71.5 Z"/></g>
<g><path style="opacity:0.998" fill="#030200" d="M 342.5,171.5 C 351.833,171.443 355.5,176.11 353.5,185.5C 371.106,193.361 378.94,207.028 377,226.5C 373.987,231.535 369.82,232.702 364.5,230C 363.299,229.097 362.465,227.931 362,226.5C 362.212,216.43 358.712,207.93 351.5,201C 344.757,198.009 339.257,199.509 335,205.5C 327.723,217.472 327.723,229.472 335,241.5C 339.742,246.427 345.575,248.927 352.5,249C 365.238,254.072 373.404,263.239 377,276.5C 380.344,294.133 375.51,308.967 362.5,321C 359.714,323.06 356.714,324.56 353.5,325.5C 355.288,336.552 350.955,340.719 340.5,338C 339.299,337.097 338.465,335.931 338,334.5C 337.667,331.833 337.333,329.167 337,326.5C 319.918,317.67 312.251,303.67 314,284.5C 317.013,279.465 321.18,278.298 326.5,281C 327.701,281.903 328.535,283.069 329,284.5C 328.718,294.088 331.885,302.255 338.5,309C 345.297,312.949 351.13,311.783 356,305.5C 363.277,293.472 363.277,281.472 356,269.5C 354.457,267.622 352.624,266.122 350.5,265C 321.755,259.699 309.589,242.532 314,213.5C 317.189,200.308 324.856,190.641 337,184.5C 336.363,178.939 338.197,174.606 342.5,171.5 Z"/></g>
<g><path style="opacity:1" fill="#010000" d="M 140.5,183.5 C 144.192,182.971 147.358,183.971 150,186.5C 166.333,219.167 182.667,251.833 199,284.5C 199.333,252.5 199.667,220.5 200,188.5C 203.013,183.465 207.18,182.298 212.5,185C 213.701,185.903 214.535,187.069 215,188.5C 215.667,233.167 215.667,277.833 215,322.5C 211.108,328.259 206.441,328.926 201,324.5C 184.667,291.833 168.333,259.167 152,226.5C 151.667,258.5 151.333,290.5 151,322.5C 147.987,327.535 143.82,328.702 138.5,326C 137.299,325.097 136.465,323.931 136,322.5C 135.333,277.833 135.333,233.167 136,188.5C 137.025,186.313 138.525,184.646 140.5,183.5 Z"/></g>
<g><path style="opacity:0.999" fill="#020100" d="M 255.5,183.5 C 267.171,183.333 278.838,183.5 290.5,184C 293.784,185.396 295.451,187.896 295.5,191.5C 281.233,231.298 266.567,270.965 251.5,310.5C 264.487,311.333 277.487,311.833 290.5,312C 291.931,312.465 293.097,313.299 294,314.5C 296.702,319.82 295.535,323.987 290.5,327C 278.838,327.5 267.171,327.667 255.5,327.5C 249.158,327.666 242.825,327.5 236.5,327C 233.216,325.604 231.549,323.104 231.5,319.5C 245.767,279.702 260.433,240.035 275.5,200.5C 262.513,199.667 249.513,199.167 236.5,199C 235.069,198.535 233.903,197.701 233,196.5C 230.298,191.18 231.465,187.013 236.5,184C 242.825,183.5 249.158,183.334 255.5,183.5 Z"/></g>
</svg>
