<?xml version="1.0" encoding="UTF-8"?>
<!DOCTYPE svg PUBLIC "-//W3C//DTD SVG 1.1//EN" "http://www.w3.org/Graphics/SVG/1.1/DTD/svg11.dtd">
<svg xmlns="http://www.w3.org/2000/svg" version="1.1" width="64px" height="64px" style="shape-rendering:geometricPrecision; text-rendering:geometricPrecision; image-rendering:optimizeQuality; fill-rule:evenodd; clip-rule:evenodd" xmlns:xlink="http://www.w3.org/1999/xlink">
<g><path style="opacity:0.892" fill="#000000" d="M 9.5,9.5 C 14.5,9.5 19.5,9.5 24.5,9.5C 24.5,14.1667 24.5,18.8333 24.5,23.5C 29.1667,23.5 33.8333,23.5 38.5,23.5C 38.5,18.8333 38.5,14.1667 38.5,9.5C 43.5,9.5 48.5,9.5 53.5,9.5C 53.5,14.5 53.5,19.5 53.5,24.5C 48.8333,24.5 44.1667,24.5 39.5,24.5C 39.5,29.1667 39.5,33.8333 39.5,38.5C 44.1667,38.5 48.8333,38.5 53.5,38.5C 53.5,43.5 53.5,48.5 53.5,53.5C 48.5,53.5 43.5,53.5 38.5,53.5C 38.5,48.8333 38.5,44.1667 38.5,39.5C 33.8333,39.5 29.1667,39.5 24.5,39.5C 24.5,44.1667 24.5,48.8333 24.5,53.5C 19.5,53.5 14.5,53.5 9.5,53.5C 9.5,48.5 9.5,43.5 9.5,38.5C 14.1667,38.5 18.8333,38.5 23.5,38.5C 23.5,33.8333 23.5,29.1667 23.5,24.5C 18.8333,24.5 14.1667,24.5 9.5,24.5C 9.5,19.5 9.5,14.5 9.5,9.5 Z"/></g>
</svg>
