<?xml version="1.0" encoding="UTF-8"?>
<!DOCTYPE svg PUBLIC "-//W3C//DTD SVG 1.1//EN" "http://www.w3.org/Graphics/SVG/1.1/DTD/svg11.dtd">
<svg xmlns="http://www.w3.org/2000/svg" version="1.1" width="48px" height="48px" style="shape-rendering:geometricPrecision; text-rendering:geometricPrecision; image-rendering:optimizeQuality; fill-rule:evenodd; clip-rule:evenodd" xmlns:xlink="http://www.w3.org/1999/xlink">
<g><path style="opacity:0.976" fill="#c52c2a" d="M 25.5,3.5 C 25.5,8.16667 25.5,12.8333 25.5,17.5C 31.358,17.8222 37.0247,17.4889 42.5,16.5C 43.8333,21.1667 43.8333,25.8333 42.5,30.5C 36.8333,30.5 31.1667,30.5 25.5,30.5C 25.5,34.8333 25.5,39.1667 25.5,43.5C 11.4694,44.1341 4.13608,37.4674 3.5,23.5C 4.13608,9.53255 11.4694,2.86589 25.5,3.5 Z"/></g>
<g><path style="opacity:0.97" fill="#dfd9da" d="M 25.5,3.5 C 34.0059,4.24018 39.6726,8.57352 42.5,16.5C 37.0247,17.4889 31.358,17.8222 25.5,17.5C 25.5,12.8333 25.5,8.16667 25.5,3.5 Z"/></g>
<g><path style="opacity:1" fill="#dcb5b5" d="M 18.5,9.5 C 19.6527,10.3132 19.6527,11.3132 18.5,12.5C 19.0253,13.1924 19.6919,13.6924 20.5,14C 17.9718,14.5138 15.8051,15.6805 14,17.5C 12.5,16.6667 11.3333,15.5 10.5,14C 13.97,13.6648 16.6366,12.1648 18.5,9.5 Z"/></g>
<g><path style="opacity:0.978" fill="#2f7c32" d="M 42.5,30.5 C 39.6726,38.4265 34.0059,42.7598 25.5,43.5C 25.5,39.1667 25.5,34.8333 25.5,30.5C 31.1667,30.5 36.8333,30.5 42.5,30.5 Z"/></g>
</svg>
