<?xml version="1.0" encoding="UTF-8"?>
<!DOCTYPE svg PUBLIC "-//W3C//DTD SVG 1.1//EN" "http://www.w3.org/Graphics/SVG/1.1/DTD/svg11.dtd">
<svg xmlns="http://www.w3.org/2000/svg" version="1.1" width="512px" height="512px" style="shape-rendering:geometricPrecision; text-rendering:geometricPrecision; image-rendering:optimizeQuality; fill-rule:evenodd; clip-rule:evenodd" xmlns:xlink="http://www.w3.org/1999/xlink">
<g><path style="opacity:0.98" fill="#fe7589" d="M 247.5,30.5 C 249.265,31.4614 251.265,31.7947 253.5,31.5C 253.5,51.1667 253.5,70.8333 253.5,90.5C 237.14,90.4491 221.14,92.7824 205.5,97.5C 203.55,92.2649 202.883,86.5982 203.5,80.5C 217.886,76.4922 232.553,74.1589 247.5,73.5C 247.5,65.1667 247.5,56.8333 247.5,48.5C 232.577,48.7271 217.911,50.7271 203.5,54.5C 203.822,48.642 203.489,42.9753 202.5,37.5C 217.107,33.4619 232.107,31.1286 247.5,30.5 Z"/></g>
<g><path style="opacity:0.975" fill="#fe6d88" d="M 247.5,30.5 C 258.177,30.5672 268.844,30.9005 279.5,31.5C 278.545,37.4093 278.211,43.4093 278.5,49.5C 273.595,48.5546 268.595,48.2213 263.5,48.5C 263.5,56.8333 263.5,65.1667 263.5,73.5C 268.507,73.7509 273.507,74.0843 278.5,74.5C 278.5,80.1667 278.5,85.8333 278.5,91.5C 270.191,90.7119 261.858,90.3786 253.5,90.5C 253.5,70.8333 253.5,51.1667 253.5,31.5C 251.265,31.7947 249.265,31.4614 247.5,30.5 Z"/></g>
<g><path style="opacity:0.961" fill="#fe6287" d="M 279.5,31.5 C 297.532,33.9241 315.199,38.0908 332.5,44C 339.568,46.9965 341.235,51.8298 337.5,58.5C 335.651,60.1742 333.484,61.1742 331,61.5C 313.974,55.3683 296.474,51.3683 278.5,49.5C 278.211,43.4093 278.545,37.4093 279.5,31.5 Z"/></g>
<g><path style="opacity:0.969" fill="#fe848a" d="M 202.5,37.5 C 203.489,42.9753 203.822,48.642 203.5,54.5C 184.594,59.6889 166.594,67.0222 149.5,76.5C 149.791,70.077 149.458,63.7436 148.5,57.5C 165.544,48.263 183.544,41.5963 202.5,37.5 Z"/></g>
<g><path style="opacity:0.965" fill="#fd4e86" d="M 411.5,94.5 C 411.825,102.352 411.492,110.018 410.5,117.5C 409.542,117.047 408.708,116.381 408,115.5C 402.167,121.333 396.333,127.167 390.5,133C 399.2,142.254 406.533,152.421 412.5,163.5C 411.833,175.167 411.167,186.833 410.5,198.5C 403.988,180.467 394.655,164.133 382.5,149.5C 382.828,138.986 382.494,128.653 381.5,118.5C 385.59,112.905 390.256,107.739 395.5,103C 383.463,91.6266 370.297,81.7933 356,73.5C 352.993,66.1815 355.326,61.5148 363,59.5C 381.391,68.1095 397.558,79.7762 411.5,94.5 Z"/></g>
<g><path style="opacity:0.971" fill="#ff918b" d="M 148.5,57.5 C 149.458,63.7436 149.791,70.077 149.5,76.5C 137.33,84.1056 125.997,92.939 115.5,103C 119.037,106.369 122.371,109.869 125.5,113.5C 124.167,126.5 124.167,139.5 125.5,152.5C 115.375,166.408 107.042,181.408 100.5,197.5C 99.8333,186.167 99.1667,174.833 98.5,163.5C 104.467,152.421 111.8,142.254 120.5,133C 114.667,127.167 108.833,121.333 103,115.5C 102.292,116.381 101.458,117.047 100.5,117.5C 99.5343,109.92 99.201,102.253 99.5,94.5C 113.825,79.5083 130.158,67.175 148.5,57.5 Z"/></g>
<g><path style="opacity:0.97" fill="#fe808a" d="M 203.5,80.5 C 202.883,86.5982 203.55,92.2649 205.5,97.5C 195.331,101.247 185.331,105.58 175.5,110.5C 174.51,104.69 174.177,98.69 174.5,92.5C 183.76,87.709 193.427,83.709 203.5,80.5 Z"/></g>
<g><path style="opacity:0.956" fill="#fe6287" d="M 278.5,74.5 C 297.424,77.0599 315.424,82.3933 332.5,90.5C 332.789,96.5907 332.455,102.591 331.5,108.5C 314.689,100.23 297.022,94.5633 278.5,91.5C 278.5,85.8333 278.5,80.1667 278.5,74.5 Z"/></g>
<g><path style="opacity:0.953" fill="#ff9a8c" d="M 99.5,94.5 C 99.201,102.253 99.5343,109.92 100.5,117.5C 88.9093,130.752 78.9093,145.085 70.5,160.5C 70.5,149.833 70.5,139.167 70.5,128.5C 78.5281,116.629 87.5281,105.463 97.5,95C 98.0944,94.5357 98.7611,94.369 99.5,94.5 Z"/></g>
<g><path style="opacity:0.958" fill="#fd5686" d="M 332.5,90.5 C 348.952,98.1185 363.952,107.952 377.5,120C 379.066,120.3 380.399,119.8 381.5,118.5C 382.494,128.653 382.828,138.986 382.5,149.5C 368.125,132.447 351.125,118.78 331.5,108.5C 332.455,102.591 332.789,96.5907 332.5,90.5 Z"/></g>
<g><path style="opacity:0.966" fill="#fe8b8a" d="M 174.5,92.5 C 174.177,98.69 174.51,104.69 175.5,110.5C 156.572,121.656 139.905,135.656 125.5,152.5C 124.167,139.5 124.167,126.5 125.5,113.5C 128.13,115.628 130.63,117.961 133,120.5C 145.367,108.962 159.2,99.6283 174.5,92.5 Z"/></g>
<g><path style="opacity:0.957" fill="#ffa18d" d="M 70.5,128.5 C 70.5,139.167 70.5,149.833 70.5,160.5C 56.7456,187.851 49.4123,216.851 48.5,247.5C 55.8333,247.5 63.1667,247.5 70.5,247.5C 70.5,252.833 70.5,258.167 70.5,263.5C 63.1667,263.5 55.8333,263.5 48.5,263.5C 49.4123,294.149 56.7456,323.149 70.5,350.5C 70.8274,360.681 70.494,370.681 69.5,380.5C 31.1678,321.017 21.6678,257.017 41,188.5C 47.9681,166.9 57.8014,146.9 70.5,128.5 Z"/></g>
<g><path style="opacity:0.959" fill="#ff988c" d="M 98.5,163.5 C 99.1667,174.833 99.8333,186.167 100.5,197.5C 87.1668,236.164 87.1668,274.831 100.5,313.5C 99.5049,325.322 99.1716,337.322 99.5,349.5C 83.4059,323.207 74.7392,294.541 73.5,263.5C 72.5,263.5 71.5,263.5 70.5,263.5C 70.5,258.167 70.5,252.833 70.5,247.5C 71.5,247.5 72.5,247.5 73.5,247.5C 74.6,217.213 82.9333,189.213 98.5,163.5 Z"/></g>
<g><path style="opacity:0.965" fill="#fd4785" d="M 412.5,163.5 C 425.12,184.024 432.787,206.357 435.5,230.5C 435.171,245.676 435.504,260.676 436.5,275.5C 433.863,301.412 425.863,325.412 412.5,347.5C 411.505,335.678 411.172,323.678 411.5,311.5C 423.809,273.683 423.475,236.016 410.5,198.5C 411.167,186.833 411.833,175.167 412.5,163.5 Z"/></g>
<g><path style="opacity:0.984" fill="#fe7288" d="M 278.5,164.5 C 278.5,169.833 278.5,175.167 278.5,180.5C 275.615,180.194 272.948,180.527 270.5,181.5C 262.167,181.5 253.833,181.5 245.5,181.5C 245.5,203.5 245.5,225.5 245.5,247.5C 256.5,247.5 267.5,247.5 278.5,247.5C 278.5,252.833 278.5,258.167 278.5,263.5C 267.5,263.5 256.5,263.5 245.5,263.5C 245.5,271.833 245.5,280.167 245.5,288.5C 258.171,288.333 270.838,288.5 283.5,289C 288.609,292.366 289.776,296.866 287,302.5C 286.097,303.701 284.931,304.535 283.5,305C 270.504,305.5 257.504,305.667 244.5,305.5C 244.667,317.838 244.5,330.171 244,342.5C 240.229,346.788 235.729,347.621 230.5,345C 229.283,343.352 228.45,341.519 228,339.5C 227.5,328.172 227.333,316.838 227.5,305.5C 228.449,300.26 228.782,294.927 228.5,289.5C 226.901,289.768 225.568,289.434 224.5,288.5C 225.5,288.5 226.5,288.5 227.5,288.5C 227.5,280.167 227.5,271.833 227.5,263.5C 228.488,258.36 228.821,253.026 228.5,247.5C 228.176,220.789 228.509,194.122 229.5,167.5C 230.5,166.667 231.5,165.833 232.5,165C 247.83,164.5 263.163,164.333 278.5,164.5 Z"/></g>
<g><path style="opacity:0.971" fill="#fd3f84" d="M 411.5,94.5 C 456.575,138.15 479.242,191.65 479.5,255C 479.224,318.419 456.558,371.919 411.5,415.5C 411.825,407.981 411.492,400.648 410.5,393.5C 442.884,356.38 460.217,313.047 462.5,263.5C 454.167,263.5 445.833,263.5 437.5,263.5C 437.605,267.548 437.272,271.548 436.5,275.5C 435.504,260.676 435.171,245.676 435.5,230.5C 436.737,235.96 437.404,241.627 437.5,247.5C 445.833,247.5 454.167,247.5 462.5,247.5C 460.217,197.953 442.884,154.62 410.5,117.5C 411.492,110.018 411.825,102.352 411.5,94.5 Z"/></g>
<g><path style="opacity:0.961" fill="#fe6387" d="M 278.5,164.5 C 299.912,165.961 314.746,176.628 323,196.5C 331.243,227.76 320.41,249.594 290.5,262C 286.582,263.156 282.582,263.656 278.5,263.5C 278.5,258.167 278.5,252.833 278.5,247.5C 302.674,241.823 312.174,226.823 307,202.5C 299.888,186.857 287.721,179.857 270.5,181.5C 272.948,180.527 275.615,180.194 278.5,180.5C 278.5,175.167 278.5,169.833 278.5,164.5 Z"/></g>
<g><path style="opacity:1" fill="#fe7b89" d="M 228.5,247.5 C 228.821,253.026 228.488,258.36 227.5,263.5C 214.163,263.667 200.829,263.5 187.5,263C 184.484,261.471 183.151,258.971 183.5,255.5C 183.151,252.029 184.484,249.529 187.5,248C 201.163,247.5 214.829,247.333 228.5,247.5 Z"/></g>
<g><path style="opacity:0.939" fill="#fe7b89" d="M 224.5,288.5 C 225.568,289.434 226.901,289.768 228.5,289.5C 228.782,294.927 228.449,300.26 227.5,305.5C 214.496,305.667 201.496,305.5 188.5,305C 186.714,304.215 185.214,303.049 184,301.5C 183.333,298.5 183.333,295.5 184,292.5C 185.214,290.951 186.714,289.785 188.5,289C 200.495,288.5 212.495,288.333 224.5,288.5 Z"/></g>
<g><path style="opacity:0.961" fill="#fd4f86" d="M 411.5,311.5 C 411.172,323.678 411.505,335.678 412.5,347.5C 406.533,358.579 399.2,368.746 390.5,378C 396.333,383.833 402.167,389.667 408,395.5C 408.708,394.619 409.542,393.953 410.5,393.5C 411.492,400.648 411.825,407.981 411.5,415.5C 395.983,431.926 377.983,444.926 357.5,454.5C 357.5,448.5 357.5,442.5 357.5,436.5C 371.114,428.402 383.781,418.902 395.5,408C 390.63,403.298 385.963,398.465 381.5,393.5C 382.494,383.013 382.828,372.346 382.5,361.5C 394.748,346.338 404.415,329.672 411.5,311.5 Z"/></g>
<g><path style="opacity:0.966" fill="#ff928b" d="M 100.5,313.5 C 106.781,329.403 115.114,344.069 125.5,357.5C 124.179,370.735 124.179,384.069 125.5,397.5C 122.371,401.131 119.037,404.631 115.5,408C 118.396,411.066 121.396,413.899 124.5,416.5C 124.793,423.255 124.46,429.922 123.5,436.5C 114.874,429.876 106.541,422.876 98.5,415.5C 99.1355,408.067 99.8022,400.734 100.5,393.5C 101.458,393.953 102.292,394.619 103,395.5C 108.833,389.667 114.667,383.833 120.5,378C 112.148,369.449 105.148,359.949 99.5,349.5C 99.1716,337.322 99.5049,325.322 100.5,313.5 Z"/></g>
<g><path style="opacity:0.954" fill="#ff998c" d="M 70.5,350.5 C 78.9093,365.915 88.9093,380.248 100.5,393.5C 99.8022,400.734 99.1355,408.067 98.5,415.5C 87.7316,404.733 78.065,393.066 69.5,380.5C 70.494,370.681 70.8274,360.681 70.5,350.5 Z"/></g>
<g><path style="opacity:0.968" fill="#fe898a" d="M 125.5,357.5 C 140.402,375.572 157.902,390.572 178,402.5C 180.863,412.641 177.03,416.808 166.5,415C 154.357,408.178 143.191,400.011 133,390.5C 130.63,393.039 128.13,395.372 125.5,397.5C 124.179,384.069 124.179,370.735 125.5,357.5 Z"/></g>
<g><path style="opacity:0.957" fill="#fd5887" d="M 382.5,361.5 C 382.828,372.346 382.494,383.013 381.5,393.5C 380.206,392.71 379.039,391.71 378,390.5C 364.576,403.13 349.409,413.13 332.5,420.5C 332.5,414.5 332.5,408.5 332.5,402.5C 351.517,391.828 368.183,378.161 382.5,361.5 Z"/></g>
<g><path style="opacity:0.956" fill="#fe6487" d="M 332.5,402.5 C 332.5,408.5 332.5,414.5 332.5,420.5C 315.424,428.607 297.424,433.94 278.5,436.5C 278.5,430.833 278.5,425.167 278.5,419.5C 297.402,416.609 315.402,410.943 332.5,402.5 Z"/></g>
<g><path style="opacity:0.974" fill="#fe7589" d="M 253.5,421.5 C 253.5,440.5 253.5,459.5 253.5,478.5C 251.901,478.232 250.568,478.566 249.5,479.5C 233.988,478.811 218.654,476.811 203.5,473.5C 203.5,467.833 203.5,462.167 203.5,456.5C 217.886,460.453 232.553,462.453 247.5,462.5C 247.5,454.167 247.5,445.833 247.5,437.5C 231.135,436.717 215.135,433.884 199.5,429C 194.931,426.459 193.431,422.625 195,417.5C 196.727,414.717 199.227,413.05 202.5,412.5C 219.19,417.559 236.19,420.559 253.5,421.5 Z"/></g>
<g><path style="opacity:0.97" fill="#fe6d88" d="M 278.5,419.5 C 278.5,425.167 278.5,430.833 278.5,436.5C 273.507,436.916 268.507,437.249 263.5,437.5C 263.5,445.833 263.5,454.167 263.5,462.5C 268.263,462.774 272.93,462.441 277.5,461.5C 278.167,467.167 278.833,472.833 279.5,478.5C 269.509,479.055 259.509,479.388 249.5,479.5C 250.568,478.566 251.901,478.232 253.5,478.5C 253.5,459.5 253.5,440.5 253.5,421.5C 261.839,420.881 270.172,420.214 278.5,419.5 Z"/></g>
<g><path style="opacity:0.971" fill="#fe888a" d="M 124.5,416.5 C 139.873,428.526 156.54,438.526 174.5,446.5C 174.5,452.5 174.5,458.5 174.5,464.5C 156.084,457.464 139.084,448.131 123.5,436.5C 124.46,429.922 124.793,423.255 124.5,416.5 Z"/></g>
<g><path style="opacity:0.957" fill="#fe5a87" d="M 357.5,436.5 C 357.5,442.5 357.5,448.5 357.5,454.5C 349.659,459.12 341.326,462.787 332.5,465.5C 332.5,459.833 332.5,454.167 332.5,448.5C 340.917,444.793 349.25,440.793 357.5,436.5 Z"/></g>
<g><path style="opacity:0.965" fill="#fe808a" d="M 174.5,446.5 C 183.873,450.625 193.54,453.958 203.5,456.5C 203.5,462.167 203.5,467.833 203.5,473.5C 193.656,471.108 183.989,468.108 174.5,464.5C 174.5,458.5 174.5,452.5 174.5,446.5 Z"/></g>
<g><path style="opacity:0.949" fill="#fe6487" d="M 332.5,448.5 C 332.5,454.167 332.5,459.833 332.5,465.5C 315.442,471.982 297.775,476.315 279.5,478.5C 278.833,472.833 278.167,467.167 277.5,461.5C 296.478,459.839 314.811,455.505 332.5,448.5 Z"/></g>
</svg>
