<?xml version="1.0" encoding="UTF-8"?>
<!DOCTYPE svg PUBLIC "-//W3C//DTD SVG 1.1//EN" "http://www.w3.org/Graphics/SVG/1.1/DTD/svg11.dtd">
<svg xmlns="http://www.w3.org/2000/svg" version="1.1" width="64px" height="64px" style="shape-rendering:geometricPrecision; text-rendering:geometricPrecision; image-rendering:optimizeQuality; fill-rule:evenodd; clip-rule:evenodd" xmlns:xlink="http://www.w3.org/1999/xlink">
<g><path style="opacity:0.867" fill="#0f0a01" d="M 23.5,1.5 C 50.645,-0.188799 63.145,12.4779 61,39.5C 54.4911,56.8444 41.9911,64.0111 23.5,61C 6.15561,54.4911 -1.01105,41.9911 2,23.5C 5.35008,12.3177 12.5167,4.98437 23.5,1.5 Z"/></g>
<g><path style="opacity:1" fill="#ecb200" d="M 23.5,4.5 C 25.8333,4.5 28.1667,4.5 30.5,4.5C 30.5,6.5 30.5,8.5 30.5,10.5C 28.8008,10.3398 27.1341,10.5065 25.5,11C 22.4751,12.6878 19.4751,14.0211 16.5,15C 14.6707,13.8867 13.8374,12.3867 14,10.5C 16.8426,7.83733 20.0093,5.83733 23.5,4.5 Z"/></g>
<g><path style="opacity:1" fill="#eeb400" d="M 32.5,4.5 C 39.2971,4.31544 44.9638,6.64877 49.5,11.5C 48.5,13.1667 47.1667,14.5 45.5,15.5C 41.6852,12.4237 37.3519,10.757 32.5,10.5C 32.5,8.5 32.5,6.5 32.5,4.5 Z"/></g>
<g><path style="opacity:1" fill="#f5d12b" d="M 27.5,12.5 C 40.7004,11.8729 48.3671,18.0396 50.5,31C 49.3333,42.8333 42.8333,49.3333 31,50.5C 19.7087,48.8751 13.542,42.3751 12.5,31C 13.6947,21.648 18.6947,15.4814 27.5,12.5 Z"/></g>
<g><path style="opacity:1" fill="#e8af00" d="M 10.5,13.5 C 12.7288,14.0553 14.3954,15.3886 15.5,17.5C 12.4237,21.3148 10.757,25.6481 10.5,30.5C 8.16667,30.5 5.83333,30.5 3.5,30.5C 4.0885,24.0565 6.42183,18.3899 10.5,13.5 Z"/></g>
<g><path style="opacity:1" fill="#ecb200" d="M 50.5,13.5 C 56.5823,17.3535 59.249,23.0202 58.5,30.5C 56.5,30.5 54.5,30.5 52.5,30.5C 52.243,25.6481 50.5763,21.3148 47.5,17.5C 48.5244,16.1482 49.5244,14.8149 50.5,13.5 Z"/></g>
<g><path style="opacity:1" fill="#241f0a" d="M 18.5,22.5 C 21.5184,22.3354 24.5184,22.502 27.5,23C 31.0019,25.4962 31.3353,28.3295 28.5,31.5C 31.3353,34.6705 31.0019,37.5038 27.5,40C 24.2397,40.7835 21.0731,40.6168 18,39.5C 17.2153,33.7507 17.3819,28.084 18.5,22.5 Z"/></g>
<g><path style="opacity:1" fill="#201b09" d="M 38.5,22.5 C 39.4778,22.811 40.1445,23.4777 40.5,24.5C 38.0114,29.9948 35.3447,35.3282 32.5,40.5C 33.244,34.2849 35.244,28.2849 38.5,22.5 Z"/></g>
<g><path style="opacity:1" fill="#f1ce2a" d="M 20.5,25.5 C 22.5273,25.3379 24.5273,25.5045 26.5,26C 27.8333,27.3333 27.8333,28.6667 26.5,30C 24.5273,30.4955 22.5273,30.6621 20.5,30.5C 20.5,28.8333 20.5,27.1667 20.5,25.5 Z"/></g>
<g><path style="opacity:1" fill="#eeb400" d="M 4.5,32.5 C 6.5,32.5 8.5,32.5 10.5,32.5C 10.757,37.3519 12.4237,41.6852 15.5,45.5C 12.2505,50.8248 9.4172,50.4915 7,44.5C 5.22802,40.687 4.39469,36.687 4.5,32.5 Z"/></g>
<g><path style="opacity:1" fill="#f1ce2a" d="M 20.5,32.5 C 22.5273,32.3379 24.5273,32.5045 26.5,33C 27.8333,34.3333 27.8333,35.6667 26.5,37C 24.5273,37.4955 22.5273,37.6621 20.5,37.5C 20.5,35.8333 20.5,34.1667 20.5,32.5 Z"/></g>
<g><path style="opacity:1" fill="#2d270e" d="M 39.5,32.5 C 45.4877,32.664 46.821,35.164 43.5,40C 37.4034,40.1475 36.0701,37.6475 39.5,32.5 Z"/></g>
<g><path style="opacity:1" fill="#eeb400" d="M 52.5,32.5 C 54.5,32.5 56.5,32.5 58.5,32.5C 58.6846,39.2971 56.3512,44.9638 51.5,49.5C 49.8333,48.5 48.5,47.1667 47.5,45.5C 50.5763,41.6852 52.243,37.3519 52.5,32.5 Z"/></g>
<g><path style="opacity:1" fill="#f5d22a" d="M 40.5,35.5 C 42.337,35.6395 42.6704,36.3061 41.5,37.5C 40.7025,37.0431 40.3691,36.3764 40.5,35.5 Z"/></g>
<g><path style="opacity:1" fill="#ecb200" d="M 16.5,47.5 C 19.4469,48.9734 22.4469,50.4734 25.5,52C 27.1341,52.4935 28.8008,52.6602 30.5,52.5C 30.5,54.5 30.5,56.5 30.5,58.5C 23.5638,59.081 17.8971,56.7477 13.5,51.5C 14.5244,50.1482 15.5244,48.8149 16.5,47.5 Z"/></g>
<g><path style="opacity:1" fill="#eeb400" d="M 44.5,47.5 C 48.8169,48.5539 49.8169,50.7206 47.5,54C 42.9714,57.009 37.9714,58.509 32.5,58.5C 32.5,56.5 32.5,54.5 32.5,52.5C 37.2441,52.457 41.2441,50.7903 44.5,47.5 Z"/></g>
</svg>
