<?xml version="1.0" encoding="UTF-8"?>
<!DOCTYPE svg PUBLIC "-//W3C//DTD SVG 1.1//EN" "http://www.w3.org/Graphics/SVG/1.1/DTD/svg11.dtd">
<svg xmlns="http://www.w3.org/2000/svg" version="1.1" width="512px" height="512px" style="shape-rendering:geometricPrecision; text-rendering:geometricPrecision; image-rendering:optimizeQuality; fill-rule:evenodd; clip-rule:evenodd" xmlns:xlink="http://www.w3.org/1999/xlink">
<g><path style="opacity:0.993" fill="#262964" d="M 234.5,16.5 C 326.126,11.8348 398.959,46.1681 453,119.5C 499.598,192.144 507.264,268.811 476,349.5C 441.977,424.517 384.811,471.351 304.5,490C 210.729,505.97 132.562,478.47 70,407.5C 18.8344,341.338 4.16776,267.672 26,186.5C 48.6327,115.866 93.7994,65.3662 161.5,35C 185.047,25.1973 209.38,19.0307 234.5,16.5 Z"/></g>
<g><path style="opacity:1" fill="#555abd" d="M 239.5,50.5 C 333.276,48.6116 401.11,89.2783 443,172.5C 474.391,252.297 463.058,325.297 409,391.5C 358.277,445.189 296.11,467.356 222.5,458C 151.753,444.231 100.586,405.064 69,340.5C 36.1956,260.124 47.1956,186.457 102,119.5C 139.205,79.3143 185.038,56.3143 239.5,50.5 Z"/></g>
<g><path style="opacity:1" fill="#fefefe" d="M 166.5,148.5 C 240.834,148.333 315.167,148.5 389.5,149C 391.396,150.808 391.896,152.975 391,155.5C 375.805,171.029 360.305,186.196 344.5,201C 269.833,201.667 195.167,201.667 120.5,201C 119.409,198.936 119.242,196.769 120,194.5C 135.395,178.938 150.895,163.604 166.5,148.5 Z"/></g>
<g><path style="opacity:1" fill="#fefefe" d="M 121.5,228.5 C 195.834,228.333 270.167,228.5 344.5,229C 360.305,243.804 375.805,258.971 391,274.5C 391.896,277.025 391.396,279.192 389.5,281C 315.167,281.667 240.833,281.667 166.5,281C 150.695,266.196 135.195,251.029 120,235.5C 119.185,232.802 119.685,230.468 121.5,228.5 Z"/></g>
<g><path style="opacity:1" fill="#fefefe" d="M 165.5,309.5 C 240.501,309.333 315.501,309.5 390.5,310C 391.591,312.064 391.758,314.231 391,316.5C 376.167,331.333 361.333,346.167 346.5,361C 345.5,361.333 344.5,361.667 343.5,362C 269.5,362.667 195.5,362.667 121.5,362C 119.604,360.192 119.104,358.025 120,355.5C 135.368,340.299 150.535,324.965 165.5,309.5 Z"/></g>
</svg>
