<?xml version="1.0" encoding="UTF-8"?>
<!DOCTYPE svg PUBLIC "-//W3C//DTD SVG 1.1//EN" "http://www.w3.org/Graphics/SVG/1.1/DTD/svg11.dtd">
<svg xmlns="http://www.w3.org/2000/svg" version="1.1" width="48px" height="48px" style="shape-rendering:geometricPrecision; text-rendering:geometricPrecision; image-rendering:optimizeQuality; fill-rule:evenodd; clip-rule:evenodd" xmlns:xlink="http://www.w3.org/1999/xlink">
<g><path style="opacity:0.954" fill="#b7211c" d="M 39.5,35.5 C 29.0323,27.097 18.0323,19.4303 6.5,12.5C 12.2306,3.92417 20.2306,1.09084 30.5,4C 41.7523,9.34258 45.9189,18.1759 43,30.5C 42.3028,32.5844 41.1361,34.2511 39.5,35.5 Z"/></g>
<g><path style="opacity:1" fill="#fbc027" d="M 35.5,18.5 C 34.6043,17.4937 33.9377,17.4937 33.5,18.5C 32.7611,18.369 32.0944,18.5357 31.5,19C 32.731,20.1827 32.731,21.3493 31.5,22.5C 28.405,20.0651 25.0717,18.0651 21.5,16.5C 22.3805,15.0295 23.7139,14.1962 25.5,14C 24.6598,12.3335 25.1598,12.1669 27,13.5C 27.3603,11.5789 28.1936,9.91223 29.5,8.5C 30.4287,9.68884 30.762,11.0222 30.5,12.5C 34.314,12.6509 35.9807,14.6509 35.5,18.5 Z"/></g>
<g><path style="opacity:0.978" fill="#293339" d="M 6.5,12.5 C 18.0323,19.4303 29.0323,27.097 39.5,35.5C 39.4894,37.0174 38.8228,38.1841 37.5,39C 28.1388,44.9527 18.8055,44.9527 9.5,39C 3.79762,32.5546 1.96429,25.0546 4,16.5C 4.6082,14.9336 5.44153,13.6002 6.5,12.5 Z"/></g>
<g><path style="opacity:1" fill="#f3f4f4" d="M 9.5,18.5 C 11.337,18.6395 11.6704,19.3061 10.5,20.5C 9.70245,20.0431 9.36912,19.3764 9.5,18.5 Z"/></g>
<g><path style="opacity:1" fill="#df7d22" d="M 35.5,18.5 C 36.7393,20.7072 37.2393,23.0405 37,25.5C 36.6667,24.8333 36.3333,24.1667 36,23.5C 34.9505,24.5171 33.7839,24.6838 32.5,24C 36.0676,22.7092 36.401,20.8759 33.5,18.5C 33.9377,17.4937 34.6043,17.4937 35.5,18.5 Z"/></g>
<g><path style="opacity:1" fill="#b7bbbd" d="M 14.5,21.5 C 16.0481,21.8212 16.7148,22.8212 16.5,24.5C 13.7524,24.5983 13.0857,23.5983 14.5,21.5 Z"/></g>
<g><path style="opacity:1" fill="#c3c6c8" d="M 6.5,23.5 C 7.5,23.5 8.5,23.5 9.5,23.5C 8.75419,27.31 7.75419,27.31 6.5,23.5 Z"/></g>
<g><path style="opacity:1" fill="#eaebeb" d="M 11.5,32.5 C 13.337,32.6395 13.6704,33.3061 12.5,34.5C 11.7025,34.0431 11.3691,33.3764 11.5,32.5 Z"/></g>
</svg>
