<?xml version="1.0" encoding="UTF-8"?>
<!DOCTYPE svg PUBLIC "-//W3C//DTD SVG 1.1//EN" "http://www.w3.org/Graphics/SVG/1.1/DTD/svg11.dtd">
<svg xmlns="http://www.w3.org/2000/svg" version="1.1" width="512px" height="512px" style="shape-rendering:geometricPrecision; text-rendering:geometricPrecision; image-rendering:optimizeQuality; fill-rule:evenodd; clip-rule:evenodd" xmlns:xlink="http://www.w3.org/1999/xlink">
<g><path style="opacity:0.989" fill="#689f38" d="M 232.5,-0.5 C 247.5,-0.5 262.5,-0.5 277.5,-0.5C 377.764,12.0403 449.264,64.0403 492,155.5C 502.135,180.377 508.635,206.043 511.5,232.5C 511.5,247.833 511.5,263.167 511.5,278.5C 500.612,368.144 456.279,435.644 378.5,481C 347.029,497.695 313.696,507.861 278.5,511.5C 263.167,511.5 247.833,511.5 232.5,511.5C 142.856,500.612 75.3562,456.279 30,378.5C 13.3053,347.029 3.1386,313.696 -0.5,278.5C -0.5,263.167 -0.5,247.833 -0.5,232.5C 10.3875,142.857 54.7208,75.3573 132.5,30C 163.971,13.3053 197.304,3.1386 232.5,-0.5 Z"/></g>
<g><path style="opacity:1" fill="#c4e0a4" d="M 231.5,25.5 C 321.435,20.2281 392.935,53.5614 446,125.5C 490.694,194.617 498.027,267.617 468,344.5C 438.155,411.18 388.321,455.346 318.5,477C 226.644,499.487 148.144,476.653 83,408.5C 30.8015,345.694 14.1348,274.36 33,194.5C 57.7393,115.427 109.239,62.2605 187.5,35C 202.143,31.0662 216.81,27.8995 231.5,25.5 Z"/></g>
<g><path style="opacity:1" fill="#689f38" d="M 240.5,50.5 C 325.191,48.4175 389.691,83.0841 434,154.5C 469.313,221.81 469.313,289.143 434,356.5C 389.714,428.069 325.214,462.569 240.5,460C 160.583,451.05 103.083,410.55 68,338.5C 36.6095,259.223 47.6095,186.557 101,120.5C 138.598,79.451 185.098,56.1176 240.5,50.5 Z"/></g>
<g><path style="opacity:1" fill="#9bcb64" d="M 236.5,76.5 C 314.271,72.4599 373.104,103.46 413,169.5C 442.465,228.979 441.465,287.979 410,346.5C 369.883,409.144 312.383,438.311 237.5,434C 172.268,425.067 124.434,391.567 94,333.5C 69.4331,278.119 70.7665,223.452 98,169.5C 129.273,116.405 175.44,85.4053 236.5,76.5 Z"/></g>
<g><path style="opacity:1" fill="#689f38" d="M 218.5,153.5 C 244.835,153.333 271.169,153.5 297.5,154C 326.203,160.369 344.036,177.869 351,206.5C 353.75,242.523 338.25,266.69 304.5,279C 301.086,279.297 297.753,279.964 294.5,281C 275.17,281.5 255.836,281.667 236.5,281.5C 236.5,289.833 236.5,298.167 236.5,306.5C 250.504,306.333 264.504,306.5 278.5,307C 287.677,311.537 289.844,318.371 285,327.5C 282.742,329.43 280.242,330.93 277.5,332C 263.837,332.5 250.171,332.667 236.5,332.5C 236.666,342.172 236.5,351.839 236,361.5C 231.251,370.306 224.417,372.472 215.5,368C 213.106,366.048 211.606,363.548 211,360.5C 210.5,351.173 210.334,341.839 210.5,332.5C 200.828,332.666 191.161,332.5 181.5,332C 172.694,327.251 170.528,320.417 175,311.5C 176.731,309.383 178.898,307.883 181.5,307C 191.161,306.5 200.828,306.334 210.5,306.5C 210.5,298.167 210.5,289.833 210.5,281.5C 200.088,281.926 189.754,281.426 179.5,280C 172.836,275.337 171.003,269.17 174,261.5C 175.938,258.894 178.438,257.061 181.5,256C 191.161,255.5 200.828,255.334 210.5,255.5C 210.333,224.498 210.5,193.498 211,162.5C 212.642,158.7 215.142,155.7 218.5,153.5 Z"/></g>
<g><path style="opacity:1" fill="#9bcb64" d="M 236.5,178.5 C 255.17,178.333 273.836,178.5 292.5,179C 316.776,185.04 327.609,200.54 325,225.5C 320.171,241.998 309.338,251.831 292.5,255C 273.836,255.5 255.17,255.667 236.5,255.5C 236.5,229.833 236.5,204.167 236.5,178.5 Z"/></g>
</svg>
