<?xml version="1.0" encoding="UTF-8"?>
<!DOCTYPE svg PUBLIC "-//W3C//DTD SVG 1.1//EN" "http://www.w3.org/Graphics/SVG/1.1/DTD/svg11.dtd">
<svg xmlns="http://www.w3.org/2000/svg" version="1.1" width="512px" height="512px" style="shape-rendering:geometricPrecision; text-rendering:geometricPrecision; image-rendering:optimizeQuality; fill-rule:evenodd; clip-rule:evenodd" xmlns:xlink="http://www.w3.org/1999/xlink">
<g><path style="opacity:0.99" fill="#000000" d="M 232.5,-0.5 C 247.833,-0.5 263.167,-0.5 278.5,-0.5C 358.893,9.09801 422.393,46.7647 469,112.5C 492.821,149.131 506.987,189.131 511.5,232.5C 511.5,247.833 511.5,263.167 511.5,278.5C 501.902,358.893 464.235,422.393 398.5,469C 361.869,492.821 321.869,506.987 278.5,511.5C 263.167,511.5 247.833,511.5 232.5,511.5C 152.107,501.902 88.6066,464.235 42,398.5C 18.1791,361.868 4.01239,321.868 -0.5,278.5C -0.5,263.167 -0.5,247.833 -0.5,232.5C 9.09756,152.108 46.7642,88.6077 112.5,42C 149.131,18.1794 189.131,4.01272 232.5,-0.5 Z M 150.5,120.5 C 173.169,120.333 195.836,120.5 218.5,121C 252.207,126.369 273.707,145.536 283,178.5C 288.685,207.275 280.852,231.609 259.5,251.5C 272.455,261.076 280.622,273.743 284,289.5C 285.415,313.135 285.915,336.802 285.5,360.5C 275.5,360.5 265.5,360.5 255.5,360.5C 255.667,337.831 255.5,315.164 255,292.5C 251.833,281.333 244.667,274.167 233.5,271C 215.503,270.5 197.503,270.333 179.5,270.5C 179.5,300.5 179.5,330.5 179.5,360.5C 169.833,360.5 160.167,360.5 150.5,360.5C 150.5,280.5 150.5,200.5 150.5,120.5 Z M 357.5,210.5 C 373.5,210.5 389.5,210.5 405.5,210.5C 405.5,220.167 405.5,229.833 405.5,239.5C 388.777,239.059 372.11,239.559 355.5,241C 347.129,244.909 343.963,251.409 346,260.5C 348.451,266.616 352.951,270.116 359.5,271C 387.59,273.032 402.924,288.032 405.5,316C 404.205,338.251 392.872,352.584 371.5,359C 353.214,360.433 334.88,360.933 316.5,360.5C 316.5,350.833 316.5,341.167 316.5,331.5C 332.503,331.667 348.503,331.5 364.5,331C 376.524,325.595 379.357,317.095 373,305.5C 371.269,303.383 369.102,301.883 366.5,301C 332.557,299.064 316.057,281.231 317,247.5C 322.445,226.217 335.945,213.883 357.5,210.5 Z"/></g>
<g><path style="opacity:0.973" fill="#000000" d="M 179.5,149.5 C 191.838,149.333 204.171,149.5 216.5,150C 245.497,157.132 258.331,175.632 255,205.5C 250.056,224.111 238.223,235.611 219.5,240C 206.171,240.5 192.837,240.667 179.5,240.5C 179.5,210.167 179.5,179.833 179.5,149.5 Z"/></g>
</svg>
