<?xml version="1.0" encoding="UTF-8"?>
<!DOCTYPE svg PUBLIC "-//W3C//DTD SVG 1.1//EN" "http://www.w3.org/Graphics/SVG/1.1/DTD/svg11.dtd">
<svg xmlns="http://www.w3.org/2000/svg" version="1.1" width="512px" height="512px" style="shape-rendering:geometricPrecision; text-rendering:geometricPrecision; image-rendering:optimizeQuality; fill-rule:evenodd; clip-rule:evenodd" xmlns:xlink="http://www.w3.org/1999/xlink">
<g><path style="opacity:0.979" fill="#00eaff" d="M 232.5,-0.5 C 247.833,-0.5 263.167,-0.5 278.5,-0.5C 302.757,2.22226 326.423,7.88893 349.5,16.5C 342.174,17.1664 334.674,17.4997 327,17.5C 273.16,16.8979 219.326,16.2312 165.5,15.5C 187.141,7.17278 209.475,1.83944 232.5,-0.5 Z"/></g>
<g><path style="opacity:0.948" fill="#00e4ff" d="M 165.5,15.5 C 219.326,16.2312 273.16,16.8979 327,17.5C 334.674,17.4997 342.174,17.1664 349.5,16.5C 360.898,21.0323 371.898,26.3657 382.5,32.5C 368.329,33.5553 353.996,33.5553 339.5,32.5C 284.613,12.9145 229.613,12.5812 174.5,31.5C 160.167,31.5 145.833,31.5 131.5,31.5C 142.009,24.5809 153.342,19.2475 165.5,15.5 Z"/></g>
<g><path style="opacity:0.96" fill="#00ddff" d="M 131.5,31.5 C 145.833,31.5 160.167,31.5 174.5,31.5C 164.293,35.6019 154.293,40.2685 144.5,45.5C 133.346,44.5052 122.012,44.1719 110.5,44.5C 116.7,38.9859 123.7,34.6525 131.5,31.5 Z"/></g>
<g><path style="opacity:0.953" fill="#00deff" d="M 339.5,32.5 C 353.996,33.5553 368.329,33.5553 382.5,32.5C 389.544,36.3489 396.211,40.6822 402.5,45.5C 392.167,46.1667 381.833,46.8333 371.5,47.5C 360.795,42.4796 350.128,37.4796 339.5,32.5 Z"/></g>
<g><path style="opacity:0.943" fill="#00dcff" d="M 325.5,45.5 C 279.674,45.6506 233.674,45.6506 187.5,45.5C 233.369,30.865 279.369,30.865 325.5,45.5 Z"/></g>
<g><path style="opacity:0.956" fill="#00d8ff" d="M 110.5,44.5 C 122.012,44.1719 133.346,44.5052 144.5,45.5C 136.644,49.5921 128.977,53.9254 121.5,58.5C 111.916,57.5268 102.25,57.1935 92.5,57.5C 97.9359,52.3993 103.936,48.0659 110.5,44.5 Z"/></g>
<g><path style="opacity:0.963" fill="#00d7ff" d="M 187.5,45.5 C 233.674,45.6506 279.674,45.6506 325.5,45.5C 336.699,49.103 347.366,53.7696 357.5,59.5C 341.658,59.1704 325.991,59.5037 310.5,60.5C 274.587,50.521 238.587,50.1877 202.5,59.5C 187.5,58.8333 172.5,58.1667 157.5,57.5C 166.878,52.1472 176.878,48.1472 187.5,45.5 Z"/></g>
<g><path style="opacity:0.961" fill="#00d7ff" d="M 402.5,45.5 C 408.901,49.6946 414.901,54.3613 420.5,59.5C 411.348,60.4936 402.015,60.8269 392.5,60.5C 385.324,56.4141 378.324,52.0808 371.5,47.5C 381.833,46.8333 392.167,46.1667 402.5,45.5 Z"/></g>
<g><path style="opacity:0.962" fill="#00d1ff" d="M 92.5,57.5 C 102.25,57.1935 111.916,57.5268 121.5,58.5C 116.142,63.1856 110.475,67.5189 104.5,71.5C 95.5,71.5 86.5,71.5 77.5,71.5C 81.8714,66.1275 86.8714,61.4608 92.5,57.5 Z"/></g>
<g><path style="opacity:0.958" fill="#00d1ff" d="M 157.5,57.5 C 172.5,58.1667 187.5,58.8333 202.5,59.5C 191.237,62.9572 180.237,67.2906 169.5,72.5C 157.678,71.5049 145.678,71.1716 133.5,71.5C 140.836,65.8274 148.836,61.1607 157.5,57.5 Z"/></g>
<g><path style="opacity:0.956" fill="#00d1ff" d="M 310.5,60.5 C 325.991,59.5037 341.658,59.1704 357.5,59.5C 365.699,63.3804 373.365,68.047 380.5,73.5C 368.988,73.1719 357.654,73.5052 346.5,74.5C 334.883,68.8497 322.883,64.1831 310.5,60.5 Z"/></g>
<g><path style="opacity:0.957" fill="#00d1ff" d="M 420.5,59.5 C 426.129,63.4608 431.129,68.1275 435.5,73.5C 426.5,73.5 417.5,73.5 408.5,73.5C 403.127,69.156 397.794,64.8227 392.5,60.5C 402.015,60.8269 411.348,60.4936 420.5,59.5 Z"/></g>
<g><path style="opacity:0.957" fill="#00cbff" d="M 77.5,71.5 C 86.5,71.5 95.5,71.5 104.5,71.5C 99.1557,76.8431 93.489,81.8431 87.5,86.5C 78.7794,86.2246 70.1127,86.5579 61.5,87.5C 66.5,81.8333 71.8333,76.5 77.5,71.5 Z"/></g>
<g><path style="opacity:0.959" fill="#00cbff" d="M 133.5,71.5 C 145.678,71.1716 157.678,71.5049 169.5,72.5C 159.849,76.9911 150.515,81.9911 141.5,87.5C 132.127,87.7517 122.793,87.4183 113.5,86.5C 119.443,80.5294 126.109,75.5294 133.5,71.5 Z"/></g>
<g><path style="opacity:0.955" fill="#00cbff" d="M 346.5,74.5 C 357.654,73.5052 368.988,73.1719 380.5,73.5C 387.738,77.7376 394.404,82.7376 400.5,88.5C 390.79,89.4168 381.123,89.7501 371.5,89.5C 363.429,84.1023 355.095,79.1023 346.5,74.5 Z"/></g>
<g><path style="opacity:0.96" fill="#00caff" d="M 408.5,73.5 C 417.5,73.5 426.5,73.5 435.5,73.5C 441.205,78.204 446.205,83.5374 450.5,89.5C 442.5,89.5 434.5,89.5 426.5,89.5C 420.177,84.5092 414.177,79.1759 408.5,73.5 Z"/></g>
<g><path style="opacity:0.963" fill="#00c4ff" d="M 87.5,86.5 C 83.8734,91.7944 79.54,96.461 74.5,100.5C 67.1781,99.9625 59.8447,99.6291 52.5,99.5C 55.0043,95.172 58.0043,91.172 61.5,87.5C 70.1127,86.5579 78.7794,86.2246 87.5,86.5 Z"/></g>
<g><path style="opacity:0.955" fill="#00c4ff" d="M 113.5,86.5 C 122.793,87.4183 132.127,87.7517 141.5,87.5C 135.81,92.5179 129.81,97.1846 123.5,101.5C 115.35,100.507 107.017,100.174 98.5,100.5C 102.825,95.1775 107.825,90.5108 113.5,86.5 Z"/></g>
<g><path style="opacity:0.961" fill="#00c4ff" d="M 400.5,88.5 C 405.167,92.5 409.5,96.8333 413.5,101.5C 405.35,102.493 397.017,102.826 388.5,102.5C 382.975,97.9128 377.308,93.5795 371.5,89.5C 381.123,89.7501 390.79,89.4168 400.5,88.5 Z"/></g>
<g><path style="opacity:0.96" fill="#00c4ff" d="M 426.5,89.5 C 434.5,89.5 442.5,89.5 450.5,89.5C 454.922,93.5873 458.589,98.2539 461.5,103.5C 453.514,102.901 445.514,102.568 437.5,102.5C 433.464,98.4656 429.798,94.1323 426.5,89.5 Z"/></g>
<g><path style="opacity:0.958" fill="#00bcff" d="M 52.5,99.5 C 59.8447,99.6291 67.1781,99.9625 74.5,100.5C 68.1596,109.172 61.8262,117.839 55.5,126.5C 48.3134,126.825 41.3134,126.491 34.5,125.5C 39.5261,116.099 45.5261,107.432 52.5,99.5 Z"/></g>
<g><path style="opacity:0.959" fill="#00beff" d="M 98.5,100.5 C 107.017,100.174 115.35,100.507 123.5,101.5C 119.778,106.189 115.445,110.189 110.5,113.5C 102.5,113.5 94.5,113.5 86.5,113.5C 89.7923,108.54 93.7923,104.207 98.5,100.5 Z"/></g>
<g><path style="opacity:0.951" fill="#01beff" d="M 413.5,101.5 C 418.873,105.871 423.539,110.871 427.5,116.5C 419.316,116.174 411.316,116.508 403.5,117.5C 398.833,112.167 393.833,107.167 388.5,102.5C 397.017,102.826 405.35,102.493 413.5,101.5 Z"/></g>
<g><path style="opacity:0.95" fill="#00bcff" d="M 437.5,102.5 C 445.514,102.568 453.514,102.901 461.5,103.5C 467.823,110.804 473.156,118.804 477.5,127.5C 471.167,128.833 464.833,130.167 458.5,131.5C 451.919,121.577 444.919,111.911 437.5,102.5 Z"/></g>
<g><path style="opacity:0.961" fill="#01b8ff" d="M 86.5,113.5 C 94.5,113.5 102.5,113.5 110.5,113.5C 106.511,118.821 102.178,123.821 97.5,128.5C 90.7466,126.779 83.7466,126.112 76.5,126.5C 79.0745,121.591 82.4078,117.258 86.5,113.5 Z"/></g>
<g><path style="opacity:0.95" fill="#01b9ff" d="M 427.5,116.5 C 430.488,120.462 433.488,124.462 436.5,128.5C 429.274,128.849 422.274,129.849 415.5,131.5C 411.904,126.564 407.904,121.897 403.5,117.5C 411.316,116.508 419.316,116.174 427.5,116.5 Z"/></g>
<g><path style="opacity:0.953" fill="#00b2ff" d="M 34.5,125.5 C 41.3134,126.491 48.3134,126.825 55.5,126.5C 52.5,131.833 49.5,137.167 46.5,142.5C 39.4163,143.126 32.7496,142.459 26.5,140.5C 28.4068,135.016 31.0734,130.016 34.5,125.5 Z"/></g>
<g><path style="opacity:0.957" fill="#00b2ff" d="M 76.5,126.5 C 83.7466,126.112 90.7466,126.779 97.5,128.5C 94.0657,133.716 90.399,138.716 86.5,143.5C 79.8333,142.833 73.1667,142.167 66.5,141.5C 69.0563,135.951 72.3897,130.951 76.5,126.5 Z"/></g>
<g><path style="opacity:0.956" fill="#00b2ff" d="M 477.5,127.5 C 481.26,132.684 484.26,138.35 486.5,144.5C 479.629,145.777 472.629,145.777 465.5,144.5C 463.421,140.007 461.088,135.674 458.5,131.5C 464.833,130.167 471.167,128.833 477.5,127.5 Z"/></g>
<g><path style="opacity:0.978" fill="#00b2ff" d="M 321.5,144.5 C 315.5,144.5 309.5,144.5 303.5,144.5C 303.334,139.156 303.501,133.823 304,128.5C 309.215,120.91 314.882,120.577 321,127.5C 321.499,133.157 321.666,138.824 321.5,144.5 Z"/></g>
<g><path style="opacity:0.959" fill="#01b1ff" d="M 436.5,128.5 C 440.527,133.875 444.193,139.541 447.5,145.5C 440.08,145.797 432.746,145.464 425.5,144.5C 421.936,140.386 418.603,136.052 415.5,131.5C 422.274,129.849 429.274,128.849 436.5,128.5 Z"/></g>
<g><path style="opacity:0.964" fill="#00a7ff" d="M 26.5,140.5 C 32.7496,142.459 39.4163,143.126 46.5,142.5C 41.8765,151.412 37.5432,160.412 33.5,169.5C 27.3554,168.51 21.0221,168.177 14.5,168.5C 17.4314,158.645 21.4314,149.312 26.5,140.5 Z"/></g>
<g><path style="opacity:0.957" fill="#01a8ff" d="M 66.5,141.5 C 73.1667,142.167 79.8333,142.833 86.5,143.5C 81.2165,152.406 76.2165,161.406 71.5,170.5C 65.1667,169.833 58.8333,169.167 52.5,168.5C 55.8797,158.738 60.5464,149.738 66.5,141.5 Z"/></g>
<g><path style="opacity:0.979" fill="#00a7ff" d="M 303.5,144.5 C 309.5,144.5 315.5,144.5 321.5,144.5C 321.5,153.5 321.5,162.5 321.5,171.5C 315.208,170.947 309.208,171.614 303.5,173.5C 303.5,163.833 303.5,154.167 303.5,144.5 Z"/></g>
<g><path style="opacity:0.955" fill="#01a8ff" d="M 425.5,144.5 C 432.746,145.464 440.08,145.797 447.5,145.5C 452.632,154.099 456.966,163.099 460.5,172.5C 453.833,172.5 447.167,172.5 440.5,172.5C 435.518,163.206 430.518,153.873 425.5,144.5 Z"/></g>
<g><path style="opacity:0.952" fill="#01a7ff" d="M 465.5,144.5 C 472.629,145.777 479.629,145.777 486.5,144.5C 491.288,153.756 495.288,163.422 498.5,173.5C 491.833,172.167 485.167,172.167 478.5,173.5C 474.97,163.443 470.637,153.777 465.5,144.5 Z"/></g>
<g><path style="opacity:0.931" fill="#009eff" d="M 275.5,184.5 C 236.171,183.748 196.838,183.415 157.5,183.5C 157.469,179.403 159.469,176.903 163.5,176C 198.833,175.333 234.167,175.333 269.5,176C 273.323,177.641 275.323,180.474 275.5,184.5 Z"/></g>
<g><path style="opacity:0.956" fill="#009bff" d="M 14.5,168.5 C 21.0221,168.177 27.3554,168.51 33.5,169.5C 30.4946,178.849 27.4946,188.182 24.5,197.5C 18.1667,197.5 11.8333,197.5 5.5,197.5C 7.74449,187.5 10.7445,177.834 14.5,168.5 Z"/></g>
<g><path style="opacity:0.961" fill="#009aff" d="M 52.5,168.5 C 58.8333,169.167 65.1667,169.833 71.5,170.5C 67.969,179.093 64.6357,187.76 61.5,196.5C 54.8333,197.833 48.1667,199.167 41.5,200.5C 43.9992,189.333 47.6658,178.666 52.5,168.5 Z"/></g>
<g><path style="opacity:0.938" fill="#0099ff" d="M 157.5,183.5 C 196.838,183.415 236.171,183.748 275.5,184.5C 274.137,190.517 271.471,195.85 267.5,200.5C 260.687,199.509 253.687,199.175 246.5,199.5C 246.703,197.956 247.37,196.622 248.5,195.5C 220.506,194.667 192.506,194.167 164.5,194C 158.924,192.318 156.591,188.818 157.5,183.5 Z"/></g>
<g><path style="opacity:0.981" fill="#009aff" d="M 321.5,171.5 C 321.5,181.167 321.5,190.833 321.5,200.5C 315.5,200.5 309.5,200.5 303.5,200.5C 303.5,191.5 303.5,182.5 303.5,173.5C 309.208,171.614 315.208,170.947 321.5,171.5 Z"/></g>
<g><path style="opacity:0.952" fill="#009bff" d="M 498.5,173.5 C 501.942,182.935 504.609,192.601 506.5,202.5C 500.256,201.542 493.923,201.209 487.5,201.5C 484.931,192.123 481.931,182.79 478.5,173.5C 485.167,172.167 491.833,172.167 498.5,173.5 Z"/></g>
<g><path style="opacity:0.956" fill="#009bff" d="M 440.5,172.5 C 447.167,172.5 453.833,172.5 460.5,172.5C 464.503,181.843 467.503,191.51 469.5,201.5C 463.31,201.177 457.31,201.51 451.5,202.5C 448.253,192.432 444.586,182.432 440.5,172.5 Z"/></g>
<g><path style="opacity:0.953" fill="#018eff" d="M 5.5,197.5 C 11.8333,197.5 18.1667,197.5 24.5,197.5C 22.7247,206.485 21.0581,215.485 19.5,224.5C 13.077,224.791 6.74365,224.458 0.5,223.5C 1.9476,214.818 3.61427,206.152 5.5,197.5 Z"/></g>
<g><path style="opacity:0.957" fill="#008eff" d="M 61.5,196.5 C 58.8691,205.691 56.8691,215.025 55.5,224.5C 49.077,224.791 42.7436,224.458 36.5,223.5C 37.6337,215.689 39.3004,208.023 41.5,200.5C 48.1667,199.167 54.8333,197.833 61.5,196.5 Z"/></g>
<g><path style="opacity:0.954" fill="#018eff" d="M 246.5,199.5 C 253.687,199.175 260.687,199.509 267.5,200.5C 262.069,209.705 256.403,218.705 250.5,227.5C 243.687,226.509 236.687,226.175 229.5,226.5C 234.779,217.228 240.446,208.228 246.5,199.5 Z"/></g>
<g><path style="opacity:0.983" fill="#008eff" d="M 303.5,200.5 C 309.5,200.5 315.5,200.5 321.5,200.5C 321.5,209.5 321.5,218.5 321.5,227.5C 315.223,227.312 309.223,226.312 303.5,224.5C 303.5,216.5 303.5,208.5 303.5,200.5 Z"/></g>
<g><path style="opacity:0.957" fill="#018eff" d="M 469.5,201.5 C 472.335,210.164 474.002,219.164 474.5,228.5C 468.409,228.211 462.409,228.545 456.5,229.5C 454.942,220.485 453.275,211.485 451.5,202.5C 457.31,201.51 463.31,201.177 469.5,201.5 Z"/></g>
<g><path style="opacity:0.959" fill="#008eff" d="M 487.5,201.5 C 493.923,201.209 500.256,201.542 506.5,202.5C 508.265,211.089 509.598,219.755 510.5,228.5C 504.167,228.5 497.833,228.5 491.5,228.5C 490.684,219.42 489.351,210.42 487.5,201.5 Z"/></g>
<g><path style="opacity:0.961" fill="#0187ff" d="M 36.5,223.5 C 42.7436,224.458 49.077,224.791 55.5,224.5C 54.8333,229.167 54.1667,233.833 53.5,238.5C 47.5,238.5 41.5,238.5 35.5,238.5C 35.5029,233.473 35.8363,228.473 36.5,223.5 Z"/></g>
<g><path style="opacity:0.973" fill="#0087ff" d="M 340.5,240.5 C 328.167,240.5 315.833,240.5 303.5,240.5C 303.5,235.167 303.5,229.833 303.5,224.5C 309.223,226.312 315.223,227.312 321.5,227.5C 321.369,228.376 321.702,229.043 322.5,229.5C 328.833,226 335.167,222.5 341.5,219C 351.716,217.898 355.549,222.398 353,232.5C 349.468,236.206 345.302,238.873 340.5,240.5 Z"/></g>
<g><path style="opacity:0.962" fill="#0086ff" d="M 474.5,228.5 C 475.23,232.061 475.897,235.727 476.5,239.5C 470.37,241.147 464.036,242.147 457.5,242.5C 457.261,238.158 456.927,233.824 456.5,229.5C 462.409,228.545 468.409,228.211 474.5,228.5 Z"/></g>
<g><path style="opacity:0.97" fill="#0082ff" d="M 0.5,223.5 C 6.74365,224.458 13.077,224.791 19.5,224.5C 18.5021,234.475 17.8354,244.475 17.5,254.5C 11.5907,253.545 5.59074,253.211 -0.5,253.5C -0.5,246.5 -0.5,239.5 -0.5,232.5C 0.476669,229.713 0.810002,226.713 0.5,223.5 Z"/></g>
<g><path style="opacity:0.947" fill="#0080ff" d="M 35.5,238.5 C 41.5,238.5 47.5,238.5 53.5,238.5C 53.5,243.5 53.5,248.5 53.5,253.5C 47.1667,253.5 40.8333,253.5 34.5,253.5C 34.1795,248.305 34.5128,243.305 35.5,238.5 Z"/></g>
<g><path style="opacity:0.948" fill="#0182ff" d="M 229.5,226.5 C 236.687,226.175 243.687,226.509 250.5,227.5C 244.985,237.21 238.985,246.543 232.5,255.5C 225.5,255.5 218.5,255.5 211.5,255.5C 216.752,245.322 222.752,235.655 229.5,226.5 Z"/></g>
<g><path style="opacity:0.972" fill="#0082ff" d="M 491.5,228.5 C 497.833,228.5 504.167,228.5 510.5,228.5C 510.232,230.099 510.566,231.432 511.5,232.5C 511.5,240.833 511.5,249.167 511.5,257.5C 505.5,257.5 499.5,257.5 493.5,257.5C 493.54,247.761 492.873,238.094 491.5,228.5 Z"/></g>
<g><path style="opacity:0.961" fill="#0080ff" d="M 303.5,240.5 C 315.833,240.5 328.167,240.5 340.5,240.5C 334.898,244.643 328.898,248.31 322.5,251.5C 321.548,253.045 321.215,254.712 321.5,256.5C 307.337,256.013 293.337,255.346 279.5,254.5C 287.5,249.833 295.5,245.167 303.5,240.5 Z"/></g>
<g><path style="opacity:0.974" fill="#0077ff" d="M 279.5,254.5 C 293.337,255.346 307.337,256.013 321.5,256.5C 321.5,265.167 321.5,273.833 321.5,282.5C 315.5,282.5 309.5,282.5 303.5,282.5C 303.666,275.825 303.5,269.158 303,262.5C 295.982,267.425 288.482,271.425 280.5,274.5C 272.825,272.821 269.991,268.154 272,260.5C 274.035,257.902 276.535,255.902 279.5,254.5 Z"/></g>
<g><path style="opacity:0.933" fill="#007bff" d="M 476.5,239.5 C 476.5,250.167 476.5,260.833 476.5,271.5C 470.256,270.542 463.923,270.209 457.5,270.5C 458.238,261.095 458.238,251.762 457.5,242.5C 464.036,242.147 470.37,241.147 476.5,239.5 Z"/></g>
<g><path style="opacity:0.958" fill="#0075ff" d="M -0.5,253.5 C 5.59074,253.211 11.5907,253.545 17.5,254.5C 17.691,262.84 18.0244,271.174 18.5,279.5C 12.5907,280.455 6.59074,280.789 0.5,280.5C 0.67158,279.508 0.338246,278.842 -0.5,278.5C -0.5,270.167 -0.5,261.833 -0.5,253.5 Z"/></g>
<g><path style="opacity:0.957" fill="#0075ff" d="M 34.5,253.5 C 40.8333,253.5 47.1667,253.5 53.5,253.5C 53.1961,254.15 52.8627,254.817 52.5,255.5C 53.3059,263.803 53.9726,272.136 54.5,280.5C 48.0738,279.88 42.0738,280.547 36.5,282.5C 34.8598,273.05 34.1932,263.384 34.5,253.5 Z"/></g>
<g><path style="opacity:0.958" fill="#0075ff" d="M 211.5,255.5 C 218.5,255.5 225.5,255.5 232.5,255.5C 227.221,264.772 221.554,273.772 215.5,282.5C 208.661,282.111 201.994,281.444 195.5,280.5C 200.088,271.65 205.421,263.316 211.5,255.5 Z"/></g>
<g><path style="opacity:0.949" fill="#0075ff" d="M 493.5,257.5 C 499.5,257.5 505.5,257.5 511.5,257.5C 511.5,264.5 511.5,271.5 511.5,278.5C 510.532,280.607 510.198,282.941 510.5,285.5C 504.167,284.833 497.833,284.167 491.5,283.5C 492.523,274.873 493.189,266.206 493.5,257.5 Z"/></g>
<g><path style="opacity:0.963" fill="#006fff" d="M 457.5,270.5 C 463.923,270.209 470.256,270.542 476.5,271.5C 475.496,280.189 474.163,288.855 472.5,297.5C 466.074,298.12 460.074,297.453 454.5,295.5C 455.582,287.178 456.582,278.845 457.5,270.5 Z"/></g>
<g><path style="opacity:0.959" fill="#0069ff" d="M 18.5,279.5 C 20.1607,289.464 21.8274,299.464 23.5,309.5C 17.4751,309.571 11.1417,309.571 4.5,309.5C 2.43009,299.941 1.09676,290.275 0.5,280.5C 6.59074,280.789 12.5907,280.455 18.5,279.5 Z"/></g>
<g><path style="opacity:0.98" fill="#0069ff" d="M 303.5,282.5 C 309.5,282.5 315.5,282.5 321.5,282.5C 321.5,292.167 321.5,301.833 321.5,311.5C 315.208,312.053 309.208,311.386 303.5,309.5C 303.5,300.5 303.5,291.5 303.5,282.5 Z"/></g>
<g><path style="opacity:0.955" fill="#0069ff" d="M 54.5,280.5 C 55.7516,290.35 57.7516,300.016 60.5,309.5C 54.1667,309.5 47.8333,309.5 41.5,309.5C 38.6649,300.836 36.9983,291.836 36.5,282.5C 42.0738,280.547 48.0738,279.88 54.5,280.5 Z"/></g>
<g><path style="opacity:0.96" fill="#0068ff" d="M 195.5,280.5 C 201.994,281.444 208.661,282.111 215.5,282.5C 209.86,291.816 204.194,301.149 198.5,310.5C 191.167,310.5 183.833,310.5 176.5,310.5C 182.337,300.154 188.67,290.154 195.5,280.5 Z"/></g>
<g><path style="opacity:0.954" fill="#0068ff" d="M 491.5,283.5 C 497.833,284.167 504.167,284.833 510.5,285.5C 509.265,294.907 507.599,304.241 505.5,313.5C 499.077,313.791 492.744,313.458 486.5,312.5C 488.706,302.932 490.373,293.265 491.5,283.5 Z"/></g>
<g><path style="opacity:0.962" fill="#0067ff" d="M 454.5,295.5 C 460.074,297.453 466.074,298.12 472.5,297.5C 471.768,303.094 470.435,308.427 468.5,313.5C 462.34,313.018 456.34,312.351 450.5,311.5C 451.469,305.961 452.802,300.628 454.5,295.5 Z"/></g>
<g><path style="opacity:0.951" fill="#0060ff" d="M 176.5,310.5 C 183.833,310.5 191.167,310.5 198.5,310.5C 195.5,315.167 192.5,319.833 189.5,324.5C 182.167,324.5 174.833,324.5 167.5,324.5C 170.015,319.457 173.015,314.79 176.5,310.5 Z"/></g>
<g><path style="opacity:0.961" fill="#005cff" d="M 4.5,309.5 C 11.1417,309.571 17.4751,309.571 23.5,309.5C 26.1299,318.401 28.7966,327.401 31.5,336.5C 25.1667,336.5 18.8333,336.5 12.5,336.5C 9.07749,327.828 6.41082,318.828 4.5,309.5 Z"/></g>
<g><path style="opacity:0.957" fill="#005cff" d="M 41.5,309.5 C 47.8333,309.5 54.1667,309.5 60.5,309.5C 62.7088,318.46 65.7088,327.127 69.5,335.5C 62.8333,336.833 56.1667,336.833 49.5,335.5C 45.8547,327.225 43.1881,318.558 41.5,309.5 Z"/></g>
<g><path style="opacity:0.909" fill="#0059ff" d="M 167.5,324.5 C 174.833,324.5 182.167,324.5 189.5,324.5C 187.636,327.723 185.636,330.89 183.5,334C 212.167,334.333 240.833,334.667 269.5,335C 271.066,335.608 272.4,336.442 273.5,337.5C 235.573,337.876 197.573,337.876 159.5,337.5C 161.919,332.991 164.586,328.658 167.5,324.5 Z"/></g>
<g><path style="opacity:0.948" fill="#005cff" d="M 486.5,312.5 C 492.744,313.458 499.077,313.791 505.5,313.5C 503.256,323.5 500.256,333.166 496.5,342.5C 495.411,340.883 493.744,340.05 491.5,340C 487.179,339.501 482.846,339.334 478.5,339.5C 481.172,330.485 483.839,321.485 486.5,312.5 Z"/></g>
<g><path style="opacity:0.981" fill="#005cff" d="M 303.5,309.5 C 309.208,311.386 315.208,312.053 321.5,311.5C 321.5,320.5 321.5,329.5 321.5,338.5C 315.5,338.5 309.5,338.5 303.5,338.5C 303.5,328.833 303.5,319.167 303.5,309.5 Z"/></g>
<g><path style="opacity:0.948" fill="#005cff" d="M 450.5,311.5 C 456.34,312.351 462.34,313.018 468.5,313.5C 466.438,322.352 463.772,331.019 460.5,339.5C 453.5,339.5 446.5,339.5 439.5,339.5C 443.581,330.243 447.248,320.91 450.5,311.5 Z"/></g>
<g><path style="opacity:0.992" fill="#0054ff" d="M 159.5,337.5 C 197.573,337.876 235.573,337.876 273.5,337.5C 276.567,342.793 275.9,347.626 271.5,352C 253.05,353.141 234.55,353.641 216,353.5C 198.833,353.333 181.667,353.167 164.5,353C 159.849,351.515 157.182,348.348 156.5,343.5C 157.136,341.22 158.136,339.22 159.5,337.5 Z"/></g>
<g><path style="opacity:0.944" fill="#0054ff" d="M 303.5,338.5 C 309.5,338.5 315.5,338.5 321.5,338.5C 323.8,346.838 320.8,351.838 312.5,353.5C 304.676,351.532 301.676,346.532 303.5,338.5 Z"/></g>
<g><path style="opacity:0.959" fill="#004fff" d="M 12.5,336.5 C 18.8333,336.5 25.1667,336.5 31.5,336.5C 35.5379,346.247 39.8712,355.914 44.5,365.5C 37.6457,365.176 30.979,365.509 24.5,366.5C 19.4273,357.008 15.4273,347.008 12.5,336.5 Z"/></g>
<g><path style="opacity:0.956" fill="#004fff" d="M 49.5,335.5 C 56.1667,336.833 62.8333,336.833 69.5,335.5C 74.5759,345.986 79.9092,356.319 85.5,366.5C 78.2537,365.536 70.9204,365.203 63.5,365.5C 57.7587,356.017 53.092,346.017 49.5,335.5 Z"/></g>
<g><path style="opacity:0.945" fill="#004fff" d="M 439.5,339.5 C 446.5,339.5 453.5,339.5 460.5,339.5C 456.183,350.138 450.85,360.138 444.5,369.5C 437.833,368.833 431.167,368.167 424.5,367.5C 430.011,358.48 435.011,349.147 439.5,339.5 Z"/></g>
<g><path style="opacity:0.956" fill="#0050ff" d="M 478.5,339.5 C 482.846,339.334 487.179,339.501 491.5,340C 493.744,340.05 495.411,340.883 496.5,342.5C 493.569,352.355 489.569,361.688 484.5,370.5C 478.25,368.541 471.584,367.874 464.5,368.5C 469.473,358.89 474.139,349.224 478.5,339.5 Z"/></g>
<g><path style="opacity:0.957" fill="#0047ff" d="M 63.5,365.5 C 70.9204,365.203 78.2537,365.536 85.5,366.5C 89.0642,370.614 92.3975,374.948 95.5,379.5C 87.9809,379.175 80.6476,379.508 73.5,380.5C 69.4357,376.053 66.1024,371.053 63.5,365.5 Z"/></g>
<g><path style="opacity:0.952" fill="#0043ff" d="M 44.5,365.5 C 49.8255,374.495 55.1588,383.495 60.5,392.5C 53.1667,392.5 45.8333,392.5 38.5,392.5C 33.3121,384.125 28.6455,375.458 24.5,366.5C 30.979,365.509 37.6457,365.176 44.5,365.5 Z"/></g>
<g><path style="opacity:0.955" fill="#0043ff" d="M 424.5,367.5 C 431.167,368.167 437.833,368.833 444.5,369.5C 439.663,378.998 433.663,387.665 426.5,395.5C 418.316,395.826 410.316,395.492 402.5,394.5C 410.562,386.011 417.896,377.011 424.5,367.5 Z"/></g>
<g><path style="opacity:0.95" fill="#0043ff" d="M 464.5,368.5 C 471.584,367.874 478.25,368.541 484.5,370.5C 480.507,379.828 475.507,388.495 469.5,396.5C 462.352,395.508 455.019,395.175 447.5,395.5C 453.917,387.006 459.583,378.006 464.5,368.5 Z"/></g>
<g><path style="opacity:0.962" fill="#003dff" d="M 95.5,379.5 C 103.16,388.493 111.16,397.16 119.5,405.5C 111.35,406.493 103.017,406.826 94.5,406.5C 86.0633,398.94 79.0633,390.274 73.5,380.5C 80.6476,379.508 87.9809,379.175 95.5,379.5 Z"/></g>
<g><path style="opacity:0.96" fill="#003bff" d="M 402.5,394.5 C 410.316,395.492 418.316,395.826 426.5,395.5C 423.208,400.46 419.208,404.793 414.5,408.5C 405.833,408.5 397.167,408.5 388.5,408.5C 393.209,403.825 397.876,399.158 402.5,394.5 Z"/></g>
<g><path style="opacity:0.962" fill="#0037ff" d="M 38.5,392.5 C 45.8333,392.5 53.1667,392.5 60.5,392.5C 68.4933,402.161 76.4933,411.828 84.5,421.5C 76.5,421.5 68.5,421.5 60.5,421.5C 52.4301,412.425 45.0968,402.758 38.5,392.5 Z"/></g>
<g><path style="opacity:0.959" fill="#0036ff" d="M 447.5,395.5 C 455.019,395.175 462.352,395.508 469.5,396.5C 463.238,406.423 456.238,415.756 448.5,424.5C 440.167,424.5 431.833,424.5 423.5,424.5C 431.739,415.018 439.739,405.351 447.5,395.5 Z"/></g>
<g><path style="opacity:0.957" fill="#0030ff" d="M 119.5,405.5 C 132.399,416.727 146.399,426.394 161.5,434.5C 150.346,435.495 139.012,435.828 127.5,435.5C 114.967,427.637 103.967,417.97 94.5,406.5C 103.017,406.826 111.35,406.493 119.5,405.5 Z"/></g>
<g><path style="opacity:0.955" fill="#0030ff" d="M 388.5,408.5 C 397.167,408.5 405.833,408.5 414.5,408.5C 410.064,413.438 405.397,418.271 400.5,423C 394.216,428.464 387.55,433.297 380.5,437.5C 368.833,437.5 357.167,437.5 345.5,437.5C 360.66,429.085 374.993,419.418 388.5,408.5 Z"/></g>
<g><path style="opacity:0.951" fill="#002aff" d="M 60.5,421.5 C 68.5,421.5 76.5,421.5 84.5,421.5C 94.6054,431.281 105.272,440.281 116.5,448.5C 106.985,448.173 97.6517,448.506 88.5,449.5C 78.1877,441.188 68.8544,431.854 60.5,421.5 Z"/></g>
<g><path style="opacity:0.95" fill="#002aff" d="M 423.5,424.5 C 431.833,424.5 440.167,424.5 448.5,424.5C 439.801,434.2 430.467,443.2 420.5,451.5C 410.976,451.399 401.643,450.733 392.5,449.5C 403.142,441.523 413.475,433.189 423.5,424.5 Z"/></g>
<g><path style="opacity:0.961" fill="#0024ff" d="M 161.5,434.5 C 222.313,464.803 283.646,465.803 345.5,437.5C 357.167,437.5 368.833,437.5 380.5,437.5C 365.089,449.04 348.089,457.706 329.5,463.5C 279.164,463.513 228.83,463.18 178.5,462.5C 159.856,456.348 142.856,447.348 127.5,435.5C 139.012,435.828 150.346,435.495 161.5,434.5 Z"/></g>
<g><path style="opacity:0.961" fill="#001dff" d="M 116.5,448.5 C 133.322,460.246 151.322,469.913 170.5,477.5C 156.334,478.367 142,478.367 127.5,477.5C 113.257,469.88 100.257,460.547 88.5,449.5C 97.6517,448.506 106.985,448.173 116.5,448.5 Z"/></g>
<g><path style="opacity:0.952" fill="#001dff" d="M 178.5,462.5 C 228.83,463.18 279.164,463.513 329.5,463.5C 294.206,476.229 257.872,479.729 220.5,474C 205.96,471.701 191.96,467.868 178.5,462.5 Z"/></g>
<g><path style="opacity:0.96" fill="#001dff" d="M 392.5,449.5 C 401.643,450.733 410.976,451.399 420.5,451.5C 407.624,462.695 393.624,472.361 378.5,480.5C 365.167,479.833 351.833,479.167 338.5,478.5C 357.71,470.898 375.71,461.231 392.5,449.5 Z"/></g>
<g><path style="opacity:0.976" fill="#0011ff" d="M 127.5,477.5 C 142,478.367 156.334,478.367 170.5,477.5C 226.348,498.442 282.348,498.775 338.5,478.5C 351.833,479.167 365.167,479.833 378.5,480.5C 347.256,497.643 313.923,507.976 278.5,511.5C 263.167,511.5 247.833,511.5 232.5,511.5C 195.029,507.788 160.029,496.454 127.5,477.5 Z"/></g>
</svg>
