<?xml version="1.0" encoding="UTF-8"?>
<!DOCTYPE svg PUBLIC "-//W3C//DTD SVG 1.1//EN" "http://www.w3.org/Graphics/SVG/1.1/DTD/svg11.dtd">
<svg xmlns="http://www.w3.org/2000/svg" version="1.1" width="512px" height="512px" style="shape-rendering:geometricPrecision; text-rendering:geometricPrecision; image-rendering:optimizeQuality; fill-rule:evenodd; clip-rule:evenodd" xmlns:xlink="http://www.w3.org/1999/xlink">
<g><path style="opacity:0.952" fill="#000000" d="M 233.5,-0.5 C 248.167,-0.5 262.833,-0.5 277.5,-0.5C 377.766,12.0408 449.266,64.0408 492,155.5C 502.296,180.684 508.796,206.684 511.5,233.5C 511.5,248.167 511.5,262.833 511.5,277.5C 498.959,377.766 446.959,449.266 355.5,492C 330.316,502.296 304.316,508.796 277.5,511.5C 262.833,511.5 248.167,511.5 233.5,511.5C 133.234,498.959 61.734,446.959 19,355.5C 8.70393,330.316 2.20393,304.316 -0.5,277.5C -0.5,262.833 -0.5,248.167 -0.5,233.5C 12.0408,133.234 64.0408,61.734 155.5,19C 180.684,8.70393 206.684,2.20393 233.5,-0.5 Z M 238.5,23.5 C 326.761,20.5512 396.595,54.5512 448,125.5C 487.976,187.663 497.643,254.33 477,325.5C 451.167,400.667 400.667,451.167 325.5,477C 235.811,501.452 157.311,481.952 90,418.5C 28.4777,351.402 9.811,273.736 34,185.5C 59.8333,110.333 110.333,59.8333 185.5,34C 202.967,28.7598 220.634,25.2598 238.5,23.5 Z M 240.5,52.5 C 327.723,50.6784 392.89,87.3451 436,162.5C 470.069,234.865 465.402,304.531 422,371.5C 374.17,435.153 310.336,463.653 230.5,457C 160.757,446.222 108.924,410.055 75,348.5C 40.9314,276.135 45.598,206.469 89,139.5C 126.548,88.1371 177.048,59.1371 240.5,52.5 Z"/></g>
<g><path style="opacity:0.853" fill="#000000" d="M 239.5,44.5 C 327.578,41.9433 394.412,77.9433 440,152.5C 475.333,221.167 475.333,289.833 440,358.5C 401.894,422.163 345.727,457.997 271.5,466C 183.395,469.041 116.562,433.208 71,358.5C 35.6667,289.833 35.6667,221.167 71,152.5C 109.317,88.9102 165.483,52.9102 239.5,44.5 Z M 240.5,52.5 C 177.048,59.1371 126.548,88.1371 89,139.5C 45.598,206.469 40.9314,276.135 75,348.5C 108.924,410.055 160.757,446.222 230.5,457C 310.336,463.653 374.17,435.153 422,371.5C 465.402,304.531 470.069,234.865 436,162.5C 392.89,87.3451 327.723,50.6784 240.5,52.5 Z"/></g>
<g><path style="opacity:0.962" fill="#000000" d="M 228.5,120.5 C 238.167,120.5 247.833,120.5 257.5,120.5C 257.5,210.5 257.5,300.5 257.5,390.5C 247.833,390.5 238.167,390.5 228.5,390.5C 228.5,300.5 228.5,210.5 228.5,120.5 Z"/></g>
<g><path style="opacity:0.944" fill="#000000" d="M 260.5,135.5 C 282.5,135.5 304.5,135.5 326.5,135.5C 326.5,145.167 326.5,154.833 326.5,164.5C 304.5,164.5 282.5,164.5 260.5,164.5C 260.5,154.833 260.5,145.167 260.5,135.5 Z"/></g>
<g><path style="opacity:0.956" fill="#000000" d="M 223.5,140.5 C 224.659,150.992 224.825,161.659 224,172.5C 212.402,180.372 204.735,191.038 201,204.5C 199.87,221.458 199.37,238.458 199.5,255.5C 199.37,272.542 199.87,289.542 201,306.5C 204.735,319.962 212.402,330.628 224,338.5C 224.667,349.167 224.667,359.833 224,370.5C 193.264,358.09 175.598,335.423 171,302.5C 170.333,271.167 170.333,239.833 171,208.5C 175.626,175.727 193.126,153.061 223.5,140.5 Z"/></g>
<g><path style="opacity:0.954" fill="#000000" d="M 276.5,268.5 C 297.833,268.5 319.167,268.5 340.5,268.5C 340.5,304.167 340.5,339.833 340.5,375.5C 313.833,375.5 287.167,375.5 260.5,375.5C 260.5,365.833 260.5,356.167 260.5,346.5C 277.5,346.5 294.5,346.5 311.5,346.5C 311.5,330.167 311.5,313.833 311.5,297.5C 299.833,297.5 288.167,297.5 276.5,297.5C 276.5,287.833 276.5,278.167 276.5,268.5 Z"/></g>
</svg>
