<?xml version="1.0" encoding="UTF-8"?>
<!DOCTYPE svg PUBLIC "-//W3C//DTD SVG 1.1//EN" "http://www.w3.org/Graphics/SVG/1.1/DTD/svg11.dtd">
<svg xmlns="http://www.w3.org/2000/svg" version="1.1" width="48px" height="48px" style="shape-rendering:geometricPrecision; text-rendering:geometricPrecision; image-rendering:optimizeQuality; fill-rule:evenodd; clip-rule:evenodd" xmlns:xlink="http://www.w3.org/1999/xlink">
<g><path style="opacity:0.975" fill="#891150" d="M 17.5,4.5 C 37.0319,1.86643 45.5319,10.5331 43,30.5C 38.4903,40.6745 30.657,45.0079 19.5,43.5C 18.1525,41.5197 16.1525,40.353 13.5,40C 15.8333,39 18.1667,38 20.5,37C 12.5,35.3333 12.5,33.6667 20.5,32C 12.7292,29.9305 12.7292,28.2639 20.5,27C 18.3651,25.6189 16.0318,24.6189 13.5,24C 20.6804,22.7491 21.0137,21.0825 14.5,19C 16.3772,17.8147 18.3772,16.8147 20.5,16C 12.7292,13.9305 12.7292,12.2639 20.5,11C 18.1667,10 15.8333,9 13.5,8C 15.6314,7.45694 17.6314,6.62361 19.5,5.5C 19.0431,4.70245 18.3764,4.36912 17.5,4.5 Z"/></g>
<g><path style="opacity:0.964" fill="#eae9ed" d="M 17.5,4.5 C 18.3764,4.36912 19.0431,4.70245 19.5,5.5C 17.6314,6.62361 15.6314,7.45694 13.5,8C 15.8333,9 18.1667,10 20.5,11C 12.7292,12.2639 12.7292,13.9305 20.5,16C 18.3772,16.8147 16.3772,17.8147 14.5,19C 21.0137,21.0825 20.6804,22.7491 13.5,24C 16.0318,24.6189 18.3651,25.6189 20.5,27C 12.7292,28.2639 12.7292,29.9305 20.5,32C 12.5,33.6667 12.5,35.3333 20.5,37C 18.1667,38 15.8333,39 13.5,40C 16.1525,40.353 18.1525,41.5197 19.5,43.5C 6.13954,39.4676 0.972876,30.4676 4,16.5C 6.19057,9.80476 10.6906,5.80476 17.5,4.5 Z"/></g>
</svg>
