<?xml version="1.0" encoding="UTF-8"?>
<!DOCTYPE svg PUBLIC "-//W3C//DTD SVG 1.1//EN" "http://www.w3.org/Graphics/SVG/1.1/DTD/svg11.dtd">
<svg xmlns="http://www.w3.org/2000/svg" version="1.1" width="512px" height="512px" style="shape-rendering:geometricPrecision; text-rendering:geometricPrecision; image-rendering:optimizeQuality; fill-rule:evenodd; clip-rule:evenodd" xmlns:xlink="http://www.w3.org/1999/xlink">
<g><path style="opacity:0.934" fill="#000000" d="M 233.5,-0.5 C 248.167,-0.5 262.833,-0.5 277.5,-0.5C 367.555,10.0943 435.388,54.4276 481,132.5C 497.855,164.278 508.022,197.945 511.5,233.5C 511.5,248.167 511.5,262.833 511.5,277.5C 500.906,367.555 456.572,435.388 378.5,481C 346.722,497.855 313.055,508.022 277.5,511.5C 262.833,511.5 248.167,511.5 233.5,511.5C 143.445,500.906 75.612,456.572 30,378.5C 13.1449,346.722 2.97822,313.055 -0.5,277.5C -0.5,262.833 -0.5,248.167 -0.5,233.5C 10.0943,143.445 54.4276,75.612 132.5,30C 164.278,13.1449 197.945,2.97822 233.5,-0.5 Z M 238.5,16.5 C 333.927,14.1239 407.76,52.4573 460,131.5C 498.372,198.224 504.706,267.891 479,340.5C 447.513,417.32 391.68,466.487 311.5,488C 210.277,507.488 127.443,477.322 63,397.5C 14.2533,327.203 3.91994,251.536 32,170.5C 71.0476,79.2927 139.881,27.9593 238.5,16.5 Z M 254.5,85.5 C 273.44,86.3008 287.773,94.8008 297.5,111C 293.068,113.965 288.568,116.798 284,119.5C 276.933,115.716 270.1,111.55 263.5,107C 258.167,103.667 252.833,103.667 247.5,107C 240.595,112.113 233.261,116.113 225.5,119C 221.5,116.333 217.5,113.667 213.5,111C 222.83,95.3438 236.497,86.8438 254.5,85.5 Z M 253.5,123.5 C 262.326,126.916 270.659,131.416 278.5,137C 282.167,139 285.833,139 289.5,137C 293.916,134.042 298.416,131.208 303,128.5C 303.5,134.825 303.666,141.158 303.5,147.5C 271.5,147.5 239.5,147.5 207.5,147.5C 207.334,141.158 207.5,134.825 208,128.5C 213.811,132.905 220.144,136.238 227,138.5C 236.515,134.66 245.348,129.66 253.5,123.5 Z M 203.5,164.5 C 222.845,164.167 242.178,164.5 261.5,165.5C 237.542,198.308 205.209,212.974 164.5,209.5C 164.201,207.396 164.534,205.396 165.5,203.5C 181.592,193.742 194.259,180.742 203.5,164.5 Z M 282.5,164.5 C 290.86,164.169 299.193,164.502 307.5,165.5C 317.167,181.167 329.833,193.833 345.5,203.5C 346.466,205.396 346.799,207.396 346.5,209.5C 317.013,212.801 291.013,204.967 268.5,186C 273.768,179.231 278.435,172.064 282.5,164.5 Z M 128.5,193.5 C 141.293,193.458 147.459,199.792 147,212.5C 142.667,222.912 135.167,226.078 124.5,222C 114.397,213.63 114.064,204.963 123.5,196C 125.315,195.243 126.981,194.41 128.5,193.5 Z M 374.5,193.5 C 389.144,193.299 395.31,200.299 393,214.5C 388.764,222.361 382.264,225.195 373.5,223C 364.002,217.837 361.502,210.337 366,200.5C 368.441,197.546 371.275,195.213 374.5,193.5 Z M 119.5,238.5 C 127.992,242.105 136.658,242.438 145.5,239.5C 148.984,271.39 152.984,303.224 157.5,335C 157.415,336.107 157.081,337.107 156.5,338C 140.167,344 123.833,344 107.5,338C 110.866,304.899 114.866,271.733 119.5,238.5 Z M 390.5,238.5 C 395.602,270.794 400.269,303.294 404.5,336C 404.355,336.772 404.022,337.439 403.5,338C 387.167,344 370.833,344 354.5,338C 353.919,337.107 353.585,336.107 353.5,335C 358.016,303.224 362.016,271.39 365.5,239.5C 369.998,240.111 374.498,240.777 379,241.5C 383.135,241.18 386.968,240.18 390.5,238.5 Z M 215.5,306.5 C 242.167,306.5 268.833,306.5 295.5,306.5C 295.667,322.837 295.5,339.17 295,355.5C 288.049,381.565 271.215,392.398 244.5,388C 228.601,382.768 219.101,371.935 216,355.5C 215.5,339.17 215.333,322.837 215.5,306.5 Z"/></g>
<g><path style="opacity:0.931" fill="#000000" d="M 237.5,26.5 C 301.261,23.1426 357.428,41.8093 406,82.5C 409.553,92.5739 406.053,97.0739 395.5,96C 328.471,42.0329 254.471,30.0329 173.5,60C 107.012,90.4392 65.179,141.272 48,212.5C 33.5572,302.891 62.7239,375.391 135.5,430C 206.517,475.399 279.85,479.399 355.5,442C 422.264,403.033 459.764,344.866 468,267.5C 472.509,262.583 477.342,262.249 482.5,266.5C 483.243,268.638 483.91,270.804 484.5,273C 475.783,351.156 438.45,411.156 372.5,453C 313.18,486.299 250.847,493.299 185.5,474C 112,448.5 62.5,399 37,325.5C 14.1447,245.261 28.478,172.595 80,107.5C 121.711,59.7266 174.211,32.7266 237.5,26.5 Z M 215.5,306.5 C 215.333,322.837 215.5,339.17 216,355.5C 219.101,371.935 228.601,382.768 244.5,388C 271.215,392.398 288.049,381.565 295,355.5C 295.5,339.17 295.667,322.837 295.5,306.5C 268.833,306.5 242.167,306.5 215.5,306.5 Z"/></g>
<g><path style="opacity:0.94" fill="#000000" d="M 253.5,57.5 C 261.307,57.6418 264.973,61.6418 264.5,69.5C 286.305,72.8076 302.472,84.1409 313,103.5C 317.237,104.615 319.904,107.281 321,111.5C 321.333,126.167 321.667,140.833 322,155.5C 329.977,168.643 340.477,179.31 353.5,187.5C 367.82,174.123 383.154,172.623 399.5,183C 412.176,195.73 414.843,210.396 407.5,227C 413.089,266.782 417.922,306.616 422,346.5C 421.535,347.931 420.701,349.097 419.5,350C 392.992,362.3 366.326,362.633 339.5,351C 338.333,349.833 337.167,348.667 336,347.5C 339.517,307.362 344.351,267.362 350.5,227.5C 315.063,230.685 283.396,221.352 255.5,199.5C 227.615,221.347 195.948,230.681 160.5,227.5C 166.649,267.362 171.483,307.362 175,347.5C 173.833,348.667 172.667,349.833 171.5,351C 144.666,362.633 118,362.3 91.5,350C 88.6403,346.319 87.8069,342.152 89,337.5C 93.8743,300.672 98.7077,263.839 103.5,227C 96.1571,210.396 98.8237,195.73 111.5,183C 127.846,172.623 143.18,174.123 157.5,187.5C 170.523,179.31 181.023,168.643 189,155.5C 189.333,140.833 189.667,126.167 190,111.5C 191.096,107.281 193.763,104.615 198,103.5C 208.528,84.1409 224.695,72.8076 246.5,69.5C 245.934,63.5954 248.267,59.5954 253.5,57.5 Z M 254.5,85.5 C 236.497,86.8438 222.83,95.3438 213.5,111C 217.5,113.667 221.5,116.333 225.5,119C 233.261,116.113 240.595,112.113 247.5,107C 252.833,103.667 258.167,103.667 263.5,107C 270.1,111.55 276.933,115.716 284,119.5C 288.568,116.798 293.068,113.965 297.5,111C 287.773,94.8008 273.44,86.3008 254.5,85.5 Z M 253.5,123.5 C 245.348,129.66 236.515,134.66 227,138.5C 220.144,136.238 213.811,132.905 208,128.5C 207.5,134.825 207.334,141.158 207.5,147.5C 239.5,147.5 271.5,147.5 303.5,147.5C 303.666,141.158 303.5,134.825 303,128.5C 298.416,131.208 293.916,134.042 289.5,137C 285.833,139 282.167,139 278.5,137C 270.659,131.416 262.326,126.916 253.5,123.5 Z M 203.5,164.5 C 194.259,180.742 181.592,193.742 165.5,203.5C 164.534,205.396 164.201,207.396 164.5,209.5C 205.209,212.974 237.542,198.308 261.5,165.5C 242.178,164.5 222.845,164.167 203.5,164.5 Z M 282.5,164.5 C 278.435,172.064 273.768,179.231 268.5,186C 291.013,204.967 317.013,212.801 346.5,209.5C 346.799,207.396 346.466,205.396 345.5,203.5C 329.833,193.833 317.167,181.167 307.5,165.5C 299.193,164.502 290.86,164.169 282.5,164.5 Z M 128.5,193.5 C 126.981,194.41 125.315,195.243 123.5,196C 114.064,204.963 114.397,213.63 124.5,222C 135.167,226.078 142.667,222.912 147,212.5C 147.459,199.792 141.293,193.458 128.5,193.5 Z M 374.5,193.5 C 371.275,195.213 368.441,197.546 366,200.5C 361.502,210.337 364.002,217.837 373.5,223C 382.264,225.195 388.764,222.361 393,214.5C 395.31,200.299 389.144,193.299 374.5,193.5 Z M 119.5,238.5 C 114.866,271.733 110.866,304.899 107.5,338C 123.833,344 140.167,344 156.5,338C 157.081,337.107 157.415,336.107 157.5,335C 152.984,303.224 148.984,271.39 145.5,239.5C 136.658,242.438 127.992,242.105 119.5,238.5 Z M 390.5,238.5 C 386.968,240.18 383.135,241.18 379,241.5C 374.498,240.777 369.998,240.111 365.5,239.5C 362.016,271.39 358.016,303.224 353.5,335C 353.585,336.107 353.919,337.107 354.5,338C 370.833,344 387.167,344 403.5,338C 404.022,337.439 404.355,336.772 404.5,336C 400.269,303.294 395.602,270.794 390.5,238.5 Z"/></g>
<g><path style="opacity:0.926" fill="#000000" d="M 418.5,102.5 C 421.649,102.211 424.649,102.711 427.5,104C 460.967,142.294 479.967,186.961 484.5,238C 483.441,245.725 479.108,248.725 471.5,247C 470.333,245.833 469.167,244.667 468,243.5C 463.795,194.508 445.795,151.508 414,114.5C 412.998,109.512 414.498,105.512 418.5,102.5 Z"/></g>
<g><path style="opacity:0.938" fill="#000000" d="M 251.5,235.5 C 258.084,233.868 262.25,236.202 264,242.5C 264.333,245.167 264.667,247.833 265,250.5C 269.738,254.241 274.738,257.574 280,260.5C 287.744,255.089 295.744,250.089 304,245.5C 307.505,245.915 310.172,247.581 312,250.5C 312.667,260.5 312.667,270.5 312,280.5C 305.923,287.168 300.59,286.501 296,278.5C 295.667,276.167 295.333,273.833 295,271.5C 290.039,277.168 283.872,280.001 276.5,280C 269.5,275.167 262.5,270.333 255.5,265.5C 249.167,270 242.833,274.5 236.5,279C 232.333,281.086 228.333,280.753 224.5,278C 221.577,275.955 218.743,273.788 216,271.5C 216.474,278.581 213.474,283.247 207,285.5C 203.585,285.094 200.918,283.428 199,280.5C 198.333,270.5 198.333,260.5 199,250.5C 200.828,247.581 203.495,245.915 207,245.5C 215.256,250.089 223.256,255.089 231,260.5C 236.262,257.574 241.262,254.241 246,250.5C 245.608,244.493 247.441,239.493 251.5,235.5 Z"/></g>
<g><path style="opacity:0.949" fill="#000000" d="M 203.5,289.5 C 238.168,289.333 272.835,289.5 307.5,290C 308.931,290.465 310.097,291.299 311,292.5C 312.645,315.078 312.978,337.745 312,360.5C 304.472,389.689 285.639,405.356 255.5,407.5C 225.361,405.356 206.528,389.689 199,360.5C 198.333,338.5 198.333,316.5 199,294.5C 200.025,292.313 201.525,290.646 203.5,289.5 Z M 215.5,306.5 C 215.333,322.837 215.5,339.17 216,355.5C 219.101,371.935 228.601,382.768 244.5,388C 271.215,392.398 288.049,381.565 295,355.5C 295.5,339.17 295.667,322.837 295.5,306.5C 268.833,306.5 242.167,306.5 215.5,306.5 Z"/></g>
<g><path style="opacity:0.929" fill="#000000" d="M 126.5,364.5 C 130.803,363.796 134.303,365.13 137,368.5C 137.999,374.687 138.832,380.853 139.5,387C 168.365,401.266 198.031,413.599 228.5,424C 235.471,425.826 242.471,427.493 249.5,429C 261.891,429.541 273.891,427.541 285.5,423C 315.098,412.617 343.931,400.45 372,386.5C 372.195,380.436 372.861,374.436 374,368.5C 379,363.167 384,363.167 389,368.5C 390.572,376.755 390.905,385.089 390,393.5C 389.654,395.848 388.487,397.681 386.5,399C 349.53,418.656 310.864,433.989 270.5,445C 254.83,447.722 239.497,446.388 224.5,441C 190.028,429.731 156.694,415.731 124.5,399C 122.513,397.681 121.346,395.848 121,393.5C 120.095,385.089 120.428,376.755 122,368.5C 123.397,366.93 124.897,365.596 126.5,364.5 Z"/></g>
</svg>
