<?xml version="1.0" encoding="UTF-8"?>
<!DOCTYPE svg PUBLIC "-//W3C//DTD SVG 1.1//EN" "http://www.w3.org/Graphics/SVG/1.1/DTD/svg11.dtd">
<svg xmlns="http://www.w3.org/2000/svg" version="1.1" width="512px" height="512px" style="shape-rendering:geometricPrecision; text-rendering:geometricPrecision; image-rendering:optimizeQuality; fill-rule:evenodd; clip-rule:evenodd" xmlns:xlink="http://www.w3.org/1999/xlink">
<g><path style="opacity:0.973" fill="#000000" d="M 233.5,-0.5 C 248.167,-0.5 262.833,-0.5 277.5,-0.5C 377.807,11.9842 449.307,63.9842 492,155.5C 502.296,180.684 508.796,206.684 511.5,233.5C 511.5,248.167 511.5,262.833 511.5,277.5C 499.016,377.807 447.016,449.307 355.5,492C 330.316,502.296 304.316,508.796 277.5,511.5C 262.833,511.5 248.167,511.5 233.5,511.5C 133.193,499.016 61.693,447.016 19,355.5C 8.70393,330.316 2.20393,304.316 -0.5,277.5C -0.5,262.833 -0.5,248.167 -0.5,233.5C 11.9842,133.193 63.9842,61.693 155.5,19C 180.684,8.70393 206.684,2.20393 233.5,-0.5 Z M 243.5,41.5 C 326.665,40.3248 391.165,73.9915 437,142.5C 479.17,215.592 480.17,289.259 440,363.5C 389.63,441.762 317.797,476.262 224.5,467C 150.228,453.645 96.0616,413.478 62,346.5C 32.2016,278.66 35.2016,212.327 71,147.5C 110.841,83.8122 168.341,48.4788 243.5,41.5 Z M 250.5,93.5 C 275.177,93.2014 298.677,98.2014 321,108.5C 324.451,115.538 322.451,119.872 315,121.5C 278.377,107.28 241.543,106.447 204.5,119C 153.709,140.076 122.876,177.576 112,231.5C 108.076,257.008 110.409,282.008 119,306.5C 122.27,314.149 125.437,321.816 128.5,329.5C 127.203,336.649 123.203,338.815 116.5,336C 105.936,319.316 99.1025,301.15 96,281.5C 87.9737,211.737 112.807,157.237 170.5,118C 195.269,103.241 221.935,95.0742 250.5,93.5 Z M 362.5,131.5 C 373.064,132.627 375.564,137.627 370,146.5C 335.968,181.531 302.302,216.864 269,252.5C 268.362,253.609 267.862,254.775 267.5,256C 284.558,279.065 302.391,301.565 321,323.5C 323.702,328.82 322.535,332.987 317.5,336C 261.209,350.489 204.876,364.823 148.5,379C 142.569,379.912 138.902,377.412 137.5,371.5C 138.137,368.893 139.304,366.56 141,364.5C 175.032,329.469 208.698,294.136 242,258.5C 242.638,257.391 243.138,256.225 243.5,255C 226.442,231.935 208.609,209.435 190,187.5C 187.298,182.18 188.465,178.013 193.5,175C 249.993,160.628 306.326,146.128 362.5,131.5 Z M 387.5,173.5 C 391.426,173.047 394.592,174.38 397,177.5C 424.26,229.497 424.26,281.497 397,333.5C 360.735,393.053 307.568,420.553 237.5,416C 221.087,414.314 205.42,409.98 190.5,403C 186.487,395.929 188.32,391.429 196,389.5C 229.24,401.973 263.074,403.806 297.5,395C 356.227,374.709 390.394,333.876 400,272.5C 402.591,249.291 399.924,226.624 392,204.5C 388.73,196.851 385.563,189.184 382.5,181.5C 382.672,177.807 384.339,175.141 387.5,173.5 Z"/></g>
<g><path style="opacity:0.975" fill="#000000" d="M 244.5,57.5 C 324.079,56.6946 384.913,89.6946 427,156.5C 462.333,222.5 462.333,288.5 427,354.5C 387.72,417.844 330.554,450.844 255.5,453.5C 170.3,449.509 109.466,409.176 73,332.5C 44.9564,257.101 55.9564,188.101 106,125.5C 143.288,84.7728 189.455,62.1061 244.5,57.5 Z M 250.5,93.5 C 221.935,95.0742 195.269,103.241 170.5,118C 112.807,157.237 87.9737,211.737 96,281.5C 99.1025,301.15 105.936,319.316 116.5,336C 123.203,338.815 127.203,336.649 128.5,329.5C 125.437,321.816 122.27,314.149 119,306.5C 110.409,282.008 108.076,257.008 112,231.5C 122.876,177.576 153.709,140.076 204.5,119C 241.543,106.447 278.377,107.28 315,121.5C 322.451,119.872 324.451,115.538 321,108.5C 298.677,98.2014 275.177,93.2014 250.5,93.5 Z M 362.5,131.5 C 306.326,146.128 249.993,160.628 193.5,175C 188.465,178.013 187.298,182.18 190,187.5C 208.609,209.435 226.442,231.935 243.5,255C 243.138,256.225 242.638,257.391 242,258.5C 208.698,294.136 175.032,329.469 141,364.5C 139.304,366.56 138.137,368.893 137.5,371.5C 138.902,377.412 142.569,379.912 148.5,379C 204.876,364.823 261.209,350.489 317.5,336C 322.535,332.987 323.702,328.82 321,323.5C 302.391,301.565 284.558,279.065 267.5,256C 267.862,254.775 268.362,253.609 269,252.5C 302.302,216.864 335.968,181.531 370,146.5C 375.564,137.627 373.064,132.627 362.5,131.5 Z M 387.5,173.5 C 384.339,175.141 382.672,177.807 382.5,181.5C 385.563,189.184 388.73,196.851 392,204.5C 399.924,226.624 402.591,249.291 400,272.5C 390.394,333.876 356.227,374.709 297.5,395C 263.074,403.806 229.24,401.973 196,389.5C 188.32,391.429 186.487,395.929 190.5,403C 205.42,409.98 221.087,414.314 237.5,416C 307.568,420.553 360.735,393.053 397,333.5C 424.26,281.497 424.26,229.497 397,177.5C 394.592,174.38 391.426,173.047 387.5,173.5 Z"/></g>
<g><path style="opacity:0.958" fill="#000000" d="M 320.5,158.5 C 324.007,157.994 327.174,158.66 330,160.5C 330.667,162.167 330.667,163.833 330,165.5C 306.5,190.333 283,215.167 259.5,240C 257.5,240.667 255.5,240.667 253.5,240C 239.379,223.888 226.046,207.222 213.5,190C 213.833,187 215.5,185.333 218.5,185C 252.703,176.451 286.703,167.617 320.5,158.5 Z"/></g>
<g><path style="opacity:0.958" fill="#000000" d="M 251.5,270.5 C 253.527,270.338 255.527,270.505 257.5,271C 271.621,287.112 284.954,303.778 297.5,321C 296.809,322.067 296.309,323.234 296,324.5C 260.969,334.05 225.802,343.216 190.5,352C 187.007,353.004 183.841,352.504 181,350.5C 180.333,348.833 180.333,347.167 181,345.5C 204.705,320.631 228.205,295.631 251.5,270.5 Z"/></g>
</svg>
