<?xml version="1.0" encoding="UTF-8"?>
<!DOCTYPE svg PUBLIC "-//W3C//DTD SVG 1.1//EN" "http://www.w3.org/Graphics/SVG/1.1/DTD/svg11.dtd">
<svg xmlns="http://www.w3.org/2000/svg" version="1.1" width="512px" height="512px" style="shape-rendering:geometricPrecision; text-rendering:geometricPrecision; image-rendering:optimizeQuality; fill-rule:evenodd; clip-rule:evenodd" xmlns:xlink="http://www.w3.org/1999/xlink">
<g><path style="opacity:0.934" fill="#000000" d="M 233.5,-0.5 C 248.167,-0.5 262.833,-0.5 277.5,-0.5C 367.555,10.0943 435.388,54.4276 481,132.5C 497.855,164.278 508.022,197.945 511.5,233.5C 511.5,248.167 511.5,262.833 511.5,277.5C 500.906,367.555 456.572,435.388 378.5,481C 346.722,497.855 313.055,508.022 277.5,511.5C 262.833,511.5 248.167,511.5 233.5,511.5C 143.445,500.906 75.612,456.572 30,378.5C 13.1449,346.722 2.97822,313.055 -0.5,277.5C -0.5,262.833 -0.5,248.167 -0.5,233.5C 10.0943,143.445 54.4276,75.612 132.5,30C 164.278,13.1449 197.945,2.97822 233.5,-0.5 Z M 238.5,16.5 C 333.927,14.1239 407.76,52.4573 460,131.5C 498.372,198.224 504.706,267.891 479,340.5C 447.513,417.32 391.68,466.487 311.5,488C 210.277,507.488 127.443,477.322 63,397.5C 14.2533,327.203 3.91994,251.536 32,170.5C 71.0476,79.2927 139.881,27.9593 238.5,16.5 Z M 242.5,43.5 C 329.125,42.3802 394.958,78.3802 440,151.5C 476.667,220.833 476.667,290.167 440,359.5C 401.185,424.021 344.019,459.854 268.5,467C 181.847,468.604 116.014,432.77 71,359.5C 34.3333,290.167 34.3333,220.833 71,151.5C 110.023,87.0528 167.19,51.0528 242.5,43.5 Z"/></g>
<g><path style="opacity:0.932" fill="#000000" d="M 237.5,26.5 C 334.481,23.2255 407.648,62.8922 457,145.5C 486.835,203.184 492.502,263.184 474,325.5C 448.5,399 399,448.5 325.5,474C 245.261,496.855 172.595,482.522 107.5,431C 41.22,371.168 15.72,297.001 31,208.5C 46.7206,140.17 84.8873,88.6699 145.5,54C 174.502,38.8286 205.169,29.6619 237.5,26.5 Z M 242.5,43.5 C 167.19,51.0528 110.023,87.0528 71,151.5C 34.3333,220.833 34.3333,290.167 71,359.5C 116.014,432.77 181.847,468.604 268.5,467C 344.019,459.854 401.185,424.021 440,359.5C 476.667,290.167 476.667,220.833 440,151.5C 394.958,78.3802 329.125,42.3802 242.5,43.5 Z"/></g>
<g><path style="opacity:0.931" fill="#000000" d="M 253.5,58.5 C 260.809,59.184 268.142,59.684 275.5,60C 282.362,60.522 289.029,61.8554 295.5,64C 300.096,70.0865 299.096,75.0865 292.5,79C 235.401,69.6896 184.401,83.023 139.5,119C 129.408,121.696 125.241,117.862 127,107.5C 163.318,76.2649 205.484,59.9315 253.5,58.5 Z"/></g>
<g><path style="opacity:0.919" fill="#000000" d="M 319.5,70.5 C 343.978,77.8171 365.478,90.1504 384,107.5C 385.759,117.862 381.592,121.696 371.5,119C 354.616,105.146 335.949,94.1461 315.5,86C 311.024,79.2682 312.358,74.1015 319.5,70.5 Z"/></g>
<g><path style="opacity:0.939" fill="#000000" d="M 254.5,87.5 C 261.748,88.6082 265.248,92.9416 265,100.5C 272.506,96.4321 277.34,98.4321 279.5,106.5C 274.633,118.4 269.633,130.233 264.5,142C 264.833,143.167 265.167,144.333 265.5,145.5C 272.705,142.18 277.372,144.347 279.5,152C 275.358,162.787 270.524,173.287 265,183.5C 264.333,186.167 264.333,188.833 265,191.5C 272.455,187.432 277.288,189.432 279.5,197.5C 274.633,209.4 269.633,221.233 264.5,233C 264.833,234.167 265.167,235.333 265.5,236.5C 273.03,233.121 277.697,235.454 279.5,243.5C 275.224,254.053 270.391,264.387 265,274.5C 264.333,283.167 264.333,291.833 265,300.5C 268.667,295.5 272.333,290.5 276,285.5C 278.16,274.028 280.827,262.695 284,251.5C 288.667,247.5 293.333,247.5 298,251.5C 298.862,253.087 299.529,254.754 300,256.5C 301.333,254.5 302.667,252.5 304,250.5C 306.415,239.087 309.082,227.753 312,216.5C 315.509,212.387 319.676,211.554 324.5,214C 326.317,215.8 327.484,217.966 328,220.5C 329,219.5 330,218.5 331,217.5C 334.299,206.675 336.966,195.675 339,184.5C 341.157,177.886 345.657,175.719 352.5,178C 354.617,179.731 356.117,181.898 357,184.5C 360.392,178.533 365.226,177.033 371.5,180C 375.699,185.281 375.366,190.281 370.5,195C 379.117,196.555 381.951,201.388 379,209.5C 368.556,215.639 357.723,221.139 346.5,226C 344.787,227.378 343.453,229.045 342.5,231C 350.245,232.313 353.079,236.813 351,244.5C 349.833,245.667 348.667,246.833 347.5,248C 337.5,252.667 327.5,257.333 317.5,262C 316.547,263.955 315.213,265.622 313.5,267C 322.633,268.096 325.466,272.929 322,281.5C 311.731,287.051 301.231,292.218 290.5,297C 282,307.5 273.5,318 265,328.5C 264.667,357.5 264.333,386.5 264,415.5C 261.274,422.854 256.44,424.687 249.5,421C 248.283,419.352 247.45,417.519 247,415.5C 246.961,403.071 246.294,390.738 245,378.5C 223.333,351.5 201.667,324.5 180,297.5C 175.279,288.949 177.612,283.615 187,281.5C 188.067,282.191 189.234,282.691 190.5,283C 209.379,305.544 227.879,328.377 246,351.5C 246.667,325.833 246.667,300.167 246,274.5C 240.609,264.387 235.776,254.053 231.5,243.5C 233.303,235.454 237.97,233.121 245.5,236.5C 245.833,235.333 246.167,234.167 246.5,233C 241.367,221.233 236.367,209.4 231.5,197.5C 233.712,189.432 238.545,187.432 246,191.5C 246.667,188.833 246.667,186.167 246,183.5C 240.476,173.287 235.642,162.787 231.5,152C 233.628,144.347 238.295,142.18 245.5,145.5C 245.833,144.333 246.167,143.167 246.5,142C 241.367,130.233 236.367,118.4 231.5,106.5C 233.66,98.4321 238.494,96.4321 246,100.5C 245.904,93.975 248.737,89.6417 254.5,87.5 Z"/></g>
<g><path style="opacity:0.928" fill="#000000" d="M 107.5,126.5 C 115.991,124.797 120.157,128.13 120,136.5C 113.364,146.479 106.697,156.479 100,166.5C 84.3427,194.795 76.3427,225.128 76,257.5C 74.7116,261.578 71.8782,263.912 67.5,264.5C 61.9417,263.775 58.9417,260.608 58.5,255C 59.703,206.143 76.0364,163.31 107.5,126.5 Z"/></g>
<g><path style="opacity:0.928" fill="#000000" d="M 395.5,126.5 C 398.187,126.336 400.854,126.503 403.5,127C 435.106,163.589 451.439,206.256 452.5,255C 450.312,263.503 445.312,265.836 437.5,262C 436.107,260.829 435.273,259.329 435,257.5C 434.679,212.895 420.346,173.562 392,139.5C 389.676,134.167 390.843,129.833 395.5,126.5 Z"/></g>
<g><path style="opacity:0.931" fill="#000000" d="M 182.5,421.5 C 184.857,421.337 187.19,421.503 189.5,422C 234.711,438.759 279.878,438.593 325,421.5C 330.167,422 333,424.833 333.5,430C 333.592,432.814 332.592,435.147 330.5,437C 282.077,456.32 233.41,456.987 184.5,439C 178.513,436.86 176.346,432.693 178,426.5C 179.366,424.638 180.866,422.972 182.5,421.5 Z"/></g>
</svg>
