<?xml version="1.0" encoding="UTF-8"?>
<!DOCTYPE svg PUBLIC "-//W3C//DTD SVG 1.1//EN" "http://www.w3.org/Graphics/SVG/1.1/DTD/svg11.dtd">
<svg xmlns="http://www.w3.org/2000/svg" version="1.1" width="512px" height="512px" style="shape-rendering:geometricPrecision; text-rendering:geometricPrecision; image-rendering:optimizeQuality; fill-rule:evenodd; clip-rule:evenodd" xmlns:xlink="http://www.w3.org/1999/xlink">
<g><path style="opacity:0.987" fill="#00effe" d="M 395.5,60.5 C 301.668,61.4994 207.668,61.8327 113.5,61.5C 167.397,22.8609 227.397,8.36088 293.5,18C 331.222,23.7264 365.222,37.8931 395.5,60.5 Z"/></g>
<g><path style="opacity:0.997" fill="#00ebfe" d="M 395.5,60.5 C 414.023,72.6858 430.023,87.6858 443.5,105.5C 380.664,105.168 317.998,105.501 255.5,106.5C 249.136,95.2184 240.136,92.7184 228.5,99C 226.686,101.479 225.019,103.979 223.5,106.5C 218.167,105.167 212.833,105.167 207.5,106.5C 201.136,95.2184 192.136,92.7184 180.5,99C 178.686,101.479 177.019,103.979 175.5,106.5C 139.671,105.502 103.671,105.168 67.5,105.5C 80.5796,88.4192 95.9129,73.7525 113.5,61.5C 207.668,61.8327 301.668,61.4994 395.5,60.5 Z"/></g>
<g><path style="opacity:0.999" fill="#d8fefd" d="M 207.5,106.5 C 207.5,118.5 207.5,130.5 207.5,142.5C 207.5,153.167 207.5,163.833 207.5,174.5C 207.5,184.5 207.5,194.5 207.5,204.5C 207.5,221.833 207.5,239.167 207.5,256.5C 207.5,264.833 207.5,273.167 207.5,281.5C 206.228,289.984 203.561,297.984 199.5,305.5C 192.708,316.295 183.708,324.628 172.5,330.5C 153.144,337.113 133.811,337.113 114.5,330.5C 103.292,324.628 94.292,316.295 87.5,305.5C 83.439,297.984 80.7724,289.984 79.5,281.5C 80.0198,264.478 88.3532,258.645 104.5,264C 110.073,268.638 112.74,274.471 112.5,281.5C 114.74,291.576 120.74,298.41 130.5,302C 142.96,305.235 154.626,303.568 165.5,297C 170.183,292.799 173.183,287.632 174.5,281.5C 175.493,273.35 175.826,265.017 175.5,256.5C 175.5,247.167 175.5,237.833 175.5,228.5C 175.5,220.5 175.5,212.5 175.5,204.5C 175.5,194.5 175.5,184.5 175.5,174.5C 175.5,163.833 175.5,153.167 175.5,142.5C 175.5,130.5 175.5,118.5 175.5,106.5C 177.019,103.979 178.686,101.479 180.5,99C 192.136,92.7184 201.136,95.2184 207.5,106.5 Z"/></g>
<g><path style="opacity:1" fill="#d8fefd" d="M 255.5,106.5 C 255.5,118.5 255.5,130.5 255.5,142.5C 255.5,153.167 255.5,163.833 255.5,174.5C 255.5,184.5 255.5,194.5 255.5,204.5C 255.5,212.5 255.5,220.5 255.5,228.5C 249.872,259.706 262.872,273.873 294.5,271C 310.764,269.403 319.597,260.57 321,244.5C 325.536,237.156 332.036,234.656 340.5,237C 349.366,240.406 353.033,246.906 351.5,256.5C 350.278,265.94 346.612,274.273 340.5,281.5C 321.185,300.099 298.185,306.933 271.5,302C 256.863,299.168 244.529,292.335 234.5,281.5C 228.388,274.273 224.722,265.94 223.5,256.5C 223.5,239.167 223.5,221.833 223.5,204.5C 223.5,194.5 223.5,184.5 223.5,174.5C 223.5,163.833 223.5,153.167 223.5,142.5C 223.5,130.5 223.5,118.5 223.5,106.5C 225.019,103.979 226.686,101.479 228.5,99C 240.136,92.7184 249.136,95.2184 255.5,106.5 Z"/></g>
<g><path style="opacity:0.996" fill="#00e3fe" d="M 67.5,105.5 C 103.671,105.168 139.671,105.502 175.5,106.5C 175.5,118.5 175.5,130.5 175.5,142.5C 131.5,142.5 87.5,142.5 43.5,142.5C 49.9325,129.084 57.9325,116.75 67.5,105.5 Z"/></g>
<g><path style="opacity:1" fill="#00e4fe" d="M 223.5,106.5 C 223.5,118.5 223.5,130.5 223.5,142.5C 218.167,142.5 212.833,142.5 207.5,142.5C 207.5,130.5 207.5,118.5 207.5,106.5C 212.833,105.167 218.167,105.167 223.5,106.5 Z"/></g>
<g><path style="opacity:0.998" fill="#00e3fe" d="M 443.5,105.5 C 453.068,116.75 461.068,129.084 467.5,142.5C 396.833,142.5 326.167,142.5 255.5,142.5C 255.5,130.5 255.5,118.5 255.5,106.5C 317.998,105.501 380.664,105.168 443.5,105.5 Z"/></g>
<g><path style="opacity:0.997" fill="#00ddfd" d="M 43.5,142.5 C 87.5,142.5 131.5,142.5 175.5,142.5C 175.5,153.167 175.5,163.833 175.5,174.5C 126.833,174.5 78.1667,174.5 29.5,174.5C 32.5495,163.073 37.2162,152.406 43.5,142.5 Z"/></g>
<g><path style="opacity:1" fill="#00ddfd" d="M 207.5,142.5 C 212.833,142.5 218.167,142.5 223.5,142.5C 223.5,153.167 223.5,163.833 223.5,174.5C 218.167,174.5 212.833,174.5 207.5,174.5C 207.5,163.833 207.5,153.167 207.5,142.5 Z"/></g>
<g><path style="opacity:0.998" fill="#00ddfd" d="M 255.5,142.5 C 326.167,142.5 396.833,142.5 467.5,142.5C 473.784,152.406 478.45,163.073 481.5,174.5C 406.167,174.5 330.833,174.5 255.5,174.5C 255.5,163.833 255.5,153.167 255.5,142.5 Z"/></g>
<g><path style="opacity:0.998" fill="#00d7fd" d="M 29.5,174.5 C 78.1667,174.5 126.833,174.5 175.5,174.5C 175.5,184.5 175.5,194.5 175.5,204.5C 123.762,204.829 72.095,204.495 20.5,203.5C 22.5279,193.423 25.5279,183.756 29.5,174.5 Z"/></g>
<g><path style="opacity:1" fill="#00d7fd" d="M 207.5,174.5 C 212.833,174.5 218.167,174.5 223.5,174.5C 223.5,184.5 223.5,194.5 223.5,204.5C 218.167,204.5 212.833,204.5 207.5,204.5C 207.5,194.5 207.5,184.5 207.5,174.5 Z"/></g>
<g><path style="opacity:0.998" fill="#00d7fd" d="M 255.5,174.5 C 330.833,174.5 406.167,174.5 481.5,174.5C 486.035,184.627 489.035,195.293 490.5,206.5C 412.38,204.508 334.046,203.841 255.5,204.5C 255.5,194.5 255.5,184.5 255.5,174.5 Z"/></g>
<g><path style="opacity:0.998" fill="#00d1fd" d="M 20.5,203.5 C 72.095,204.495 123.762,204.829 175.5,204.5C 175.5,212.5 175.5,220.5 175.5,228.5C 122.5,228.5 69.5,228.5 16.5,228.5C 17.5092,220.111 18.8426,211.778 20.5,203.5 Z"/></g>
<g><path style="opacity:0.998" fill="#00d1fd" d="M 255.5,204.5 C 334.046,203.841 412.38,204.508 490.5,206.5C 492.563,213.913 493.896,221.579 494.5,229.5C 414.904,228.503 335.237,228.17 255.5,228.5C 255.5,220.5 255.5,212.5 255.5,204.5 Z"/></g>
<g><path style="opacity:0.998" fill="#00cafc" d="M 16.5,228.5 C 69.5,228.5 122.5,228.5 175.5,228.5C 175.5,237.833 175.5,247.167 175.5,256.5C 122.167,256.5 68.8333,256.5 15.5,256.5C 15.3129,247.139 15.6462,237.805 16.5,228.5 Z"/></g>
<g><path style="opacity:1" fill="#00cdfc" d="M 207.5,204.5 C 212.833,204.5 218.167,204.5 223.5,204.5C 223.5,221.833 223.5,239.167 223.5,256.5C 218.167,256.5 212.833,256.5 207.5,256.5C 207.5,239.167 207.5,221.833 207.5,204.5 Z"/></g>
<g><path style="opacity:0.999" fill="#02cafc" d="M 255.5,228.5 C 335.237,228.17 414.904,228.503 494.5,229.5C 495.383,238.467 495.716,247.467 495.5,256.5C 468.833,256.5 442.167,256.5 415.5,256.5C 415.599,245.432 410.099,239.765 399,239.5C 391.459,239.765 386.459,243.431 384,250.5C 383.829,258.344 383.329,266.011 382.5,273.5C 382.5,267.833 382.5,262.167 382.5,256.5C 372.167,256.5 361.833,256.5 351.5,256.5C 353.033,246.906 349.366,240.406 340.5,237C 332.036,234.656 325.536,237.156 321,244.5C 319.597,260.57 310.764,269.403 294.5,271C 262.872,273.873 249.872,259.706 255.5,228.5 Z"/></g>
<g><path style="opacity:0.999" fill="#d8fefd" d="M 415.5,256.5 C 415.218,264.836 414.884,273.169 414.5,281.5C 413.314,289.471 412.314,297.471 411.5,305.5C 409.345,313.774 407.012,322.107 404.5,330.5C 401.635,338.562 397.969,346.229 393.5,353.5C 388.881,360.121 383.881,366.454 378.5,372.5C 369.287,380.937 358.954,387.604 347.5,392.5C 330.534,398.256 313.201,400.089 295.5,398C 292.977,396.64 290.977,394.807 289.5,392.5C 286.599,385.632 286.932,378.965 290.5,372.5C 293.009,370.745 295.676,369.245 298.5,368C 309.335,367.976 320.002,366.643 330.5,364C 337.452,361.857 343.786,358.691 349.5,354.5C 353.086,352.42 356.253,349.754 359,346.5C 362.812,341.866 365.979,336.866 368.5,331.5C 373.262,323.888 376.262,315.555 377.5,306.5C 380.214,298.858 381.547,290.858 381.5,282.5C 382.477,279.713 382.81,276.713 382.5,273.5C 383.329,266.011 383.829,258.344 384,250.5C 386.459,243.431 391.459,239.765 399,239.5C 410.099,239.765 415.599,245.432 415.5,256.5 Z"/></g>
<g><path style="opacity:0.998" fill="#01c4fc" d="M 15.5,256.5 C 68.8333,256.5 122.167,256.5 175.5,256.5C 175.826,265.017 175.493,273.35 174.5,281.5C 153.833,281.5 133.167,281.5 112.5,281.5C 112.74,274.471 110.073,268.638 104.5,264C 88.3532,258.645 80.0198,264.478 79.5,281.5C 58.5,281.5 37.5,281.5 16.5,281.5C 15.6287,273.2 15.2953,264.867 15.5,256.5 Z"/></g>
<g><path style="opacity:1" fill="#06c4fc" d="M 207.5,256.5 C 212.833,256.5 218.167,256.5 223.5,256.5C 224.722,265.94 228.388,274.273 234.5,281.5C 225.5,281.5 216.5,281.5 207.5,281.5C 207.5,273.167 207.5,264.833 207.5,256.5 Z"/></g>
<g><path style="opacity:1" fill="#03c4fc" d="M 351.5,256.5 C 361.833,256.5 372.167,256.5 382.5,256.5C 382.5,262.167 382.5,267.833 382.5,273.5C 382.81,276.713 382.477,279.713 381.5,282.5C 368.01,281.504 354.344,281.171 340.5,281.5C 346.612,274.273 350.278,265.94 351.5,256.5 Z"/></g>
<g><path style="opacity:0.996" fill="#02c4fc" d="M 415.5,256.5 C 442.167,256.5 468.833,256.5 495.5,256.5C 495.673,265.195 495.34,273.862 494.5,282.5C 467.908,281.509 441.241,281.176 414.5,281.5C 414.884,273.169 415.218,264.836 415.5,256.5 Z"/></g>
<g><path style="opacity:0.993" fill="#01befb" d="M 16.5,281.5 C 37.5,281.5 58.5,281.5 79.5,281.5C 80.7724,289.984 83.439,297.984 87.5,305.5C 65.0915,305.178 42.7582,305.511 20.5,306.5C 18.6273,298.263 17.2939,289.93 16.5,281.5 Z"/></g>
<g><path style="opacity:1" fill="#04bffb" d="M 112.5,281.5 C 133.167,281.5 153.833,281.5 174.5,281.5C 173.183,287.632 170.183,292.799 165.5,297C 154.626,303.568 142.96,305.235 130.5,302C 120.74,298.41 114.74,291.576 112.5,281.5 Z"/></g>
<g><path style="opacity:1" fill="#06befb" d="M 207.5,281.5 C 216.5,281.5 225.5,281.5 234.5,281.5C 244.529,292.335 256.863,299.168 271.5,302C 298.185,306.933 321.185,300.099 340.5,281.5C 354.344,281.171 368.01,281.504 381.5,282.5C 381.547,290.858 380.214,298.858 377.5,306.5C 318.336,305.501 259.002,305.168 199.5,305.5C 203.561,297.984 206.228,289.984 207.5,281.5 Z"/></g>
<g><path style="opacity:0.996" fill="#02befb" d="M 414.5,281.5 C 441.241,281.176 467.908,281.509 494.5,282.5C 493.701,290.293 492.368,297.96 490.5,305.5C 464.167,305.5 437.833,305.5 411.5,305.5C 412.314,297.471 413.314,289.471 414.5,281.5 Z"/></g>
<g><path style="opacity:0.994" fill="#01b8fb" d="M 87.5,305.5 C 94.292,316.295 103.292,324.628 114.5,330.5C 85.3285,330.169 56.3285,330.502 27.5,331.5C 24.4104,323.487 22.0771,315.154 20.5,306.5C 42.7582,305.511 65.0915,305.178 87.5,305.5 Z"/></g>
<g><path style="opacity:1" fill="#01b8fb" d="M 199.5,305.5 C 259.002,305.168 318.336,305.501 377.5,306.5C 376.262,315.555 373.262,323.888 368.5,331.5C 352.342,330.504 336.009,330.17 319.5,330.5C 313.828,319.998 305.494,317.165 294.5,322C 291.546,324.441 289.213,327.275 287.5,330.5C 282.167,330.5 276.833,330.5 271.5,330.5C 265.828,319.998 257.494,317.165 246.5,322C 243.546,324.441 241.213,327.275 239.5,330.5C 217.167,330.5 194.833,330.5 172.5,330.5C 183.708,324.628 192.708,316.295 199.5,305.5 Z"/></g>
<g><path style="opacity:0.995" fill="#01b8fb" d="M 411.5,305.5 C 437.833,305.5 464.167,305.5 490.5,305.5C 489.233,314.248 486.9,322.581 483.5,330.5C 457.167,330.5 430.833,330.5 404.5,330.5C 407.012,322.107 409.345,313.774 411.5,305.5 Z"/></g>
<g><path style="opacity:0.995" fill="#d7fefd" d="M 271.5,330.5 C 271.437,348.078 263.104,354.245 246.5,349C 240.728,344.189 238.394,338.022 239.5,330.5C 241.213,327.275 243.546,324.441 246.5,322C 257.494,317.165 265.828,319.998 271.5,330.5 Z"/></g>
<g><path style="opacity:0.995" fill="#d7fefd" d="M 319.5,330.5 C 319.437,348.078 311.104,354.245 294.5,349C 288.728,344.189 286.394,338.022 287.5,330.5C 289.213,327.275 291.546,324.441 294.5,322C 305.494,317.165 313.828,319.998 319.5,330.5 Z"/></g>
<g><path style="opacity:0.999" fill="#01b2fb" d="M 114.5,330.5 C 133.811,337.113 153.144,337.113 172.5,330.5C 194.833,330.5 217.167,330.5 239.5,330.5C 238.394,338.022 240.728,344.189 246.5,349C 263.104,354.245 271.437,348.078 271.5,330.5C 276.833,330.5 282.167,330.5 287.5,330.5C 286.394,338.022 288.728,344.189 294.5,349C 311.104,354.245 319.437,348.078 319.5,330.5C 336.009,330.17 352.342,330.504 368.5,331.5C 365.979,336.866 362.812,341.866 359,346.5C 356.253,349.754 353.086,352.42 349.5,354.5C 245.167,353.167 140.833,353.167 36.5,354.5C 32.7099,347.236 29.7099,339.569 27.5,331.5C 56.3285,330.502 85.3285,330.169 114.5,330.5 Z"/></g>
<g><path style="opacity:0.996" fill="#00b2fb" d="M 404.5,330.5 C 430.833,330.5 457.167,330.5 483.5,330.5C 481.798,338.279 479.132,345.613 475.5,352.5C 448.241,353.491 420.907,353.824 393.5,353.5C 397.969,346.229 401.635,338.562 404.5,330.5 Z"/></g>
<g><path style="opacity:0.996" fill="#00abfa" d="M 475.5,352.5 C 472.675,359.484 469.341,366.151 465.5,372.5C 436.5,372.5 407.5,372.5 378.5,372.5C 383.881,366.454 388.881,360.121 393.5,353.5C 420.907,353.824 448.241,353.491 475.5,352.5 Z"/></g>
<g><path style="opacity:0.999" fill="#00abfa" d="M 349.5,354.5 C 343.786,358.691 337.452,361.857 330.5,364C 320.002,366.643 309.335,367.976 298.5,368C 295.676,369.245 293.009,370.745 290.5,372.5C 208.763,372.17 127.096,372.503 45.5,373.5C 42.2294,367.292 39.2294,360.959 36.5,354.5C 140.833,353.167 245.167,353.167 349.5,354.5 Z"/></g>
<g><path style="opacity:0.999" fill="#00a5fa" d="M 290.5,372.5 C 286.932,378.965 286.599,385.632 289.5,392.5C 212.167,392.5 134.833,392.5 57.5,392.5C 53.25,386.335 49.25,380.002 45.5,373.5C 127.096,372.503 208.763,372.17 290.5,372.5 Z"/></g>
<g><path style="opacity:0.997" fill="#01a5fa" d="M 378.5,372.5 C 407.5,372.5 436.5,372.5 465.5,372.5C 461.915,380.011 457.582,387.011 452.5,393.5C 417.671,392.502 382.671,392.168 347.5,392.5C 358.954,387.604 369.287,380.937 378.5,372.5 Z"/></g>
<g><path style="opacity:0.998" fill="#009ffa" d="M 57.5,392.5 C 134.833,392.5 212.167,392.5 289.5,392.5C 290.977,394.807 292.977,396.64 295.5,398C 313.201,400.089 330.534,398.256 347.5,392.5C 382.671,392.168 417.671,392.502 452.5,393.5C 447.85,400.145 442.85,406.478 437.5,412.5C 316.069,411.168 194.736,411.168 73.5,412.5C 67.8171,406.146 62.4838,399.48 57.5,392.5 Z"/></g>
<g><path style="opacity:0.998" fill="#0099fa" d="M 437.5,412.5 C 431.146,420.854 423.812,428.188 415.5,434.5C 308.833,434.5 202.167,434.5 95.5,434.5C 87.1878,428.188 79.8544,420.854 73.5,412.5C 194.736,411.168 316.069,411.168 437.5,412.5 Z"/></g>
<g><path style="opacity:0.998" fill="#0094fa" d="M 95.5,434.5 C 202.167,434.5 308.833,434.5 415.5,434.5C 412.789,438.212 409.456,441.212 405.5,443.5C 305.665,443.167 205.999,443.501 106.5,444.5C 102.209,441.877 98.5425,438.544 95.5,434.5 Z"/></g>
<g><path style="opacity:0.998" fill="#0091f9" d="M 106.5,444.5 C 205.999,443.501 305.665,443.167 405.5,443.5C 401.194,447.321 396.527,450.655 391.5,453.5C 300.998,453.167 210.665,453.501 120.5,454.5C 115.555,451.555 110.888,448.221 106.5,444.5 Z"/></g>
<g><path style="opacity:0.996" fill="#008cf9" d="M 391.5,453.5 C 380.868,461.758 369.202,468.425 356.5,473.5C 289.665,473.168 222.998,473.501 156.5,474.5C 143.525,469.351 131.525,462.685 120.5,454.5C 210.665,453.501 300.998,453.167 391.5,453.5 Z"/></g>
<g><path style="opacity:0.989" fill="#0086f9" d="M 356.5,473.5 C 306.842,496.221 255.175,501.721 201.5,490C 185.885,486.296 170.885,481.129 156.5,474.5C 222.998,473.501 289.665,473.168 356.5,473.5 Z"/></g>
</svg>
