<?xml version="1.0" encoding="UTF-8"?>
<!DOCTYPE svg PUBLIC "-//W3C//DTD SVG 1.1//EN" "http://www.w3.org/Graphics/SVG/1.1/DTD/svg11.dtd">
<svg xmlns="http://www.w3.org/2000/svg" version="1.1" width="48px" height="48px" style="shape-rendering:geometricPrecision; text-rendering:geometricPrecision; image-rendering:optimizeQuality; fill-rule:evenodd; clip-rule:evenodd" xmlns:xlink="http://www.w3.org/1999/xlink">
<g><path style="opacity:0.99" fill="#fdbe0a" d="M 34.5,6.5 C 25.5271,16.1396 16.1937,25.4729 6.5,34.5C 5.06873,33.2196 4.40206,31.5529 4.5,29.5C 9.28736,21.5905 13.2874,13.2571 16.5,4.5C 20.9811,3.35159 25.6478,3.18492 30.5,4C 32.0664,4.6082 33.3998,5.44153 34.5,6.5 Z"/></g>
<g><path style="opacity:0.958" fill="#4353b1" d="M 16.5,4.5 C 13.2874,13.2571 9.28736,21.5905 4.5,29.5C 1.2393,17.6879 5.2393,9.35458 16.5,4.5 Z"/></g>
<g><path style="opacity:0.981" fill="#d50802" d="M 34.5,6.5 C 40.8869,10.2693 43.8869,15.936 43.5,23.5C 31.938,27.9469 20.6046,32.9469 9.5,38.5C 8.02561,37.5637 7.02561,36.2303 6.5,34.5C 16.1937,25.4729 25.5271,16.1396 34.5,6.5 Z"/></g>
<g><path style="opacity:0.974" fill="#ebebec" d="M 43.5,23.5 C 44.055,27.7065 43.055,31.3731 40.5,34.5C 31.2192,35.5595 21.8858,37.5595 12.5,40.5C 11.2905,40.0679 10.2905,39.4013 9.5,38.5C 20.6046,32.9469 31.938,27.9469 43.5,23.5 Z"/></g>
<g><path style="opacity:0.919" fill="#4aa24d" d="M 40.5,34.5 C 38.0303,38.751 34.3637,41.5843 29.5,43C 25.1667,43.6667 20.8333,43.6667 16.5,43C 14.9336,42.3918 13.6002,41.5585 12.5,40.5C 21.8858,37.5595 31.2192,35.5595 40.5,34.5 Z"/></g>
</svg>
