<?xml version="1.0" encoding="UTF-8"?>
<!DOCTYPE svg PUBLIC "-//W3C//DTD SVG 1.1//EN" "http://www.w3.org/Graphics/SVG/1.1/DTD/svg11.dtd">
<svg xmlns="http://www.w3.org/2000/svg" version="1.1" width="64px" height="64px" style="shape-rendering:geometricPrecision; text-rendering:geometricPrecision; image-rendering:optimizeQuality; fill-rule:evenodd; clip-rule:evenodd" xmlns:xlink="http://www.w3.org/1999/xlink">
<g><path style="opacity:0.785" fill="#070708" d="M 23.5,0.5 C 42.7909,-2.33544 55.6242,5.33122 62,23.5C 65.3285,42.8055 57.8285,55.6389 39.5,62C 20.1945,65.3285 7.36112,57.8285 1,39.5C -2.1151,20.1648 5.3849,7.16479 23.5,0.5 Z"/></g>
<g><path style="opacity:1" fill="#78777e" d="M 24.5,2.5 C 26.604,2.2011 28.604,2.53443 30.5,3.5C 24.0942,4.95349 18.2609,7.62016 13,11.5C 12.8374,9.61327 13.6707,8.11327 15.5,7C 18.5919,5.45406 21.5919,3.95406 24.5,2.5 Z"/></g>
<g><path style="opacity:1" fill="#77767d" d="M 32.5,2.5 C 39.6867,2.66683 45.6867,5.33349 50.5,10.5C 50.1667,10.8333 49.8333,11.1667 49.5,11.5C 44.0743,7.62533 38.4077,4.62533 32.5,2.5 Z"/></g>
<g><path style="opacity:1" fill="#545358" d="M 25.5,6.5 C 46.0238,5.52744 56.1904,15.1941 56,35.5C 51.7933,51.0201 41.6267,57.8535 25.5,56C 11.1016,50.9157 4.93492,40.749 7,25.5C 10.0174,15.9839 16.1841,9.65054 25.5,6.5 Z"/></g>
<g><path style="opacity:1" fill="#0b0b0c" d="M 27.5,8.5 C 29.288,8.21478 30.9547,8.54811 32.5,9.5C 25.9159,10.2928 20.2492,12.9595 15.5,17.5C 14.7176,15.6707 15.3843,14.1707 17.5,13C 20.8153,11.1702 24.1486,9.6702 27.5,8.5 Z"/></g>
<g><path style="opacity:1" fill="#0e0e0e" d="M 27.5,16.5 C 40.5134,15.6815 46.6801,21.6815 46,34.5C 43.1586,43.511 36.992,47.3444 27.5,46C 17.9596,41.7274 14.7929,34.5608 18,24.5C 20.3616,20.7553 23.5283,18.0886 27.5,16.5 Z"/></g>
<g><path style="opacity:1" fill="#080809" d="M 12.5,18.5 C 13.7122,20.2637 13.3788,21.9303 11.5,23.5C 10.7992,21.8084 11.1325,20.1417 12.5,18.5 Z"/></g>
<g><path style="opacity:1" fill="#d7d7d8" d="M 27.5,18.5 C 41.0263,18.1826 46.193,24.516 43,37.5C 37.8788,44.7115 31.3788,46.2115 23.5,42C 15.8722,32.55 17.2056,24.7167 27.5,18.5 Z"/></g>
<g><path style="opacity:1" fill="#78777e" d="M 9.5,12.5 C 10.2389,12.369 10.9056,12.5357 11.5,13C 7.62016,18.2609 4.95349,24.0942 3.5,30.5C 2.59901,23.6135 4.59901,17.6135 9.5,12.5 Z"/></g>
<g><path style="opacity:1" fill="#78777e" d="M 51.5,13.5 C 51.56,12.9569 51.8933,12.6236 52.5,12.5C 58.2174,17.2559 60.5507,23.2559 59.5,30.5C 58.1397,24.1173 55.473,18.4506 51.5,13.5 Z"/></g>
<g><path style="opacity:1" fill="#0d0d0e" d="M 30.5,25.5 C 33.6802,25.1762 34.8469,26.5096 34,29.5C 33.2904,28.0267 32.1238,27.3601 30.5,27.5C 30.5,28.5 30.5,29.5 30.5,30.5C 34.3354,31.0035 34.3354,32.0035 30.5,33.5C 32.1667,34.1667 33.8333,34.8333 35.5,35.5C 33.2573,36.4742 30.924,36.8076 28.5,36.5C 27.0159,32.4592 27.6826,28.7925 30.5,25.5 Z"/></g>
<g><path style="opacity:1" fill="#78777e" d="M 2.5,32.5 C 4.62533,38.4077 7.62533,44.0743 11.5,49.5C 11.1667,49.8333 10.8333,50.1667 10.5,50.5C 5.33349,45.6867 2.66683,39.6867 2.5,32.5 Z"/></g>
<g><path style="opacity:1" fill="#77767d" d="M 58.5,32.5 C 59.6491,32.7911 60.3158,33.6244 60.5,35C 59.7891,41.2572 57.1225,46.4238 52.5,50.5C 52.1667,50.1667 51.8333,49.8333 51.5,49.5C 55.5876,44.574 57.9209,38.9074 58.5,32.5 Z"/></g>
<g><path style="opacity:1" fill="#79787f" d="M 49.5,51.5 C 50.525,51.8966 50.6917,52.5632 50,53.5C 44.9982,58.2222 39.1648,60.2222 32.5,59.5C 38.8778,58.1423 44.5445,55.4756 49.5,51.5 Z"/></g>
<g><path style="opacity:1" fill="#79787f" d="M 12.5,51.5 C 17.9822,55.2392 23.9822,57.9059 30.5,59.5C 25.1239,60.4078 20.1239,59.2411 15.5,56C 13.8588,54.871 12.8588,53.371 12.5,51.5 Z"/></g>
</svg>
