<?xml version="1.0" encoding="UTF-8"?>
<!DOCTYPE svg PUBLIC "-//W3C//DTD SVG 1.1//EN" "http://www.w3.org/Graphics/SVG/1.1/DTD/svg11.dtd">
<svg xmlns="http://www.w3.org/2000/svg" version="1.1" width="512px" height="512px" style="shape-rendering:geometricPrecision; text-rendering:geometricPrecision; image-rendering:optimizeQuality; fill-rule:evenodd; clip-rule:evenodd" xmlns:xlink="http://www.w3.org/1999/xlink">
<g><path style="opacity:0.971" fill="#000000" d="M 232.5,-0.5 C 247.833,-0.5 263.167,-0.5 278.5,-0.5C 373.455,10.3237 442.955,57.9903 487,142.5C 500.186,171.252 508.352,201.252 511.5,232.5C 511.5,247.833 511.5,263.167 511.5,278.5C 500.676,373.455 453.01,442.955 368.5,487C 339.75,500.185 309.75,508.352 278.5,511.5C 263.167,511.5 247.833,511.5 232.5,511.5C 137.545,500.676 68.0446,453.01 24,368.5C 10.8145,339.748 2.64783,309.748 -0.5,278.5C -0.5,263.167 -0.5,247.833 -0.5,232.5C 10.3228,137.545 57.9895,68.0452 142.5,24C 171.252,10.8145 201.252,2.64783 232.5,-0.5 Z M 254.5,39.5 C 334.694,41.4985 396.528,75.8319 440,142.5C 473.989,202.426 479.989,265.093 458,330.5C 429.554,402.477 377.721,447.644 302.5,466C 219.725,481.407 149.559,458.574 92,397.5C 49.5191,345.596 33.1857,286.263 43,219.5C 59.7925,133.707 109.626,76.8735 192.5,49C 212.936,43.3142 233.603,40.1475 254.5,39.5 Z"/></g>
<g><path style="opacity:0.976" fill="#000000" d="M 254.5,106.5 C 264.746,115.242 274.579,124.575 284,134.5C 284.667,135.167 284.667,135.833 284,136.5C 244.32,176.014 204.82,215.68 165.5,255.5C 205.167,295.5 244.833,335.5 284.5,375.5C 275.348,385.153 266.014,394.653 256.5,404C 255.833,404.667 255.167,404.667 254.5,404C 221.667,371.167 188.833,338.333 156,305.5C 155.5,335.498 155.333,365.498 155.5,395.5C 142.167,395.5 128.833,395.5 115.5,395.5C 115.5,302.167 115.5,208.833 115.5,115.5C 128.833,115.5 142.167,115.5 155.5,115.5C 155.333,145.502 155.5,175.502 156,205.5C 189.035,172.632 221.868,139.632 254.5,106.5 Z"/></g>
<g><path style="opacity:0.991" fill="#000000" d="M 315.5,235.5 C 328.833,235.5 342.167,235.5 355.5,235.5C 355.334,241.842 355.5,248.175 356,254.5C 379.895,237.949 406.395,231.615 435.5,235.5C 435.5,248.833 435.5,262.167 435.5,275.5C 421.542,274.647 407.875,276.147 394.5,280C 374.406,288.428 361.906,303.261 357,324.5C 355.623,348.141 355.123,371.808 355.5,395.5C 342.167,395.5 328.833,395.5 315.5,395.5C 315.5,342.167 315.5,288.833 315.5,235.5 Z"/></g>
</svg>
