<?xml version="1.0" encoding="UTF-8"?>
<!DOCTYPE svg PUBLIC "-//W3C//DTD SVG 1.1//EN" "http://www.w3.org/Graphics/SVG/1.1/DTD/svg11.dtd">
<svg xmlns="http://www.w3.org/2000/svg" version="1.1" width="512px" height="512px" style="shape-rendering:geometricPrecision; text-rendering:geometricPrecision; image-rendering:optimizeQuality; fill-rule:evenodd; clip-rule:evenodd" xmlns:xlink="http://www.w3.org/1999/xlink">
<g><path style="opacity:0.985" fill="#020100" d="M 233.5,15.5 C 325.182,10.602 398.349,44.602 453,117.5C 500.037,189.838 508.371,266.504 478,347.5C 451.833,408.333 408.333,451.833 347.5,478C 266.504,508.371 189.838,500.037 117.5,453C 44.4467,398.372 10.6134,325.205 16,233.5C 25.627,150.008 66.4604,87.1747 138.5,45C 168.379,28.982 200.046,19.1487 233.5,15.5 Z"/></g>
<g><path style="opacity:1" fill="#fbbd00" d="M 239.5,35.5 C 241.5,35.5 243.5,35.5 245.5,35.5C 245.5,52.5 245.5,69.5 245.5,86.5C 206.218,88.6494 171.885,102.649 142.5,128.5C 131.014,116.514 119.348,104.681 107.5,93C 145.14,59.3493 189.14,40.1827 239.5,35.5 Z"/></g>
<g><path style="opacity:1" fill="#fbbd00" d="M 265.5,36.5 C 318.537,38.5298 364.537,57.3631 403.5,93C 391.652,104.681 379.986,116.514 368.5,128.5C 339.06,102.791 304.727,88.7907 265.5,86.5C 265.5,69.8333 265.5,53.1667 265.5,36.5 Z"/></g>
<g><path style="opacity:1" fill="#fdd92c" d="M 239.5,105.5 C 306.939,102.621 357.105,130.288 390,188.5C 411.829,236.944 410.162,284.611 385,331.5C 344.946,391.871 289.113,415.038 217.5,401C 161.951,384.426 126.117,348.26 110,292.5C 96.2278,221.249 119.394,165.749 179.5,126C 198.33,115.402 218.33,108.569 239.5,105.5 Z"/></g>
<g><path style="opacity:1" fill="#fbbd00" d="M 92.5,107.5 C 104.479,119.145 116.479,130.812 128.5,142.5C 102.645,171.892 88.6454,206.225 86.5,245.5C 69.5,245.5 52.5,245.5 35.5,245.5C 38.579,192.706 57.579,146.706 92.5,107.5 Z"/></g>
<g><path style="opacity:1" fill="#fabd00" d="M 417.5,107.5 C 453.231,146.33 472.564,192.33 475.5,245.5C 458.5,245.5 441.5,245.5 424.5,245.5C 422.355,206.225 408.355,171.892 382.5,142.5C 394.521,131.146 406.188,119.479 417.5,107.5 Z"/></g>
<g><path style="opacity:1" fill="#020100" d="M 302.5,165.5 C 308.327,164.937 312.494,167.27 315,172.5C 315.5,180.159 315.666,187.826 315.5,195.5C 323.917,195.094 332.251,195.594 340.5,197C 347.046,202.628 347.046,208.295 340.5,214C 322.566,215.294 304.566,215.96 286.5,216C 275.186,221.282 272.686,229.449 279,240.5C 281.258,242.43 283.758,243.93 286.5,245C 299.167,245.333 311.833,245.667 324.5,246C 343.095,249.261 353.428,260.261 355.5,279C 353.49,303.507 340.157,315.674 315.5,315.5C 315.906,323.917 315.406,332.251 314,340.5C 306.56,347.878 300.56,346.878 296,337.5C 295.5,330.174 295.334,322.841 295.5,315.5C 287.057,315.938 278.723,315.438 270.5,314C 263.954,308.295 263.954,302.628 270.5,297C 288.076,295.693 305.743,295.027 323.5,295C 331.288,293.116 335.288,288.116 335.5,280C 335.004,272.346 331.004,267.679 323.5,266C 308.779,265.933 294.112,265.266 279.5,264C 261.758,256.361 253.925,242.861 256,223.5C 262.058,204.215 275.225,194.882 295.5,195.5C 295.334,187.826 295.5,180.159 296,172.5C 297.694,169.642 299.861,167.309 302.5,165.5 Z"/></g>
<g><path style="opacity:1" fill="#020200" d="M 173.5,195.5 C 191.503,195.333 209.503,195.5 227.5,196C 234.709,198.583 236.875,203.417 234,210.5C 232.363,212.81 230.196,214.31 227.5,215C 209.434,215.04 191.434,215.706 173.5,217C 164.783,223.321 163.283,231.155 169,240.5C 170.41,241.787 171.91,242.954 173.5,244C 188.811,245.035 204.144,246.035 219.5,247C 239.679,254.187 247.846,268.353 244,289.5C 239.747,304.417 229.914,312.917 214.5,315C 197.167,315.667 179.833,315.667 162.5,315C 153.288,308.625 153.288,302.292 162.5,296C 179.5,295.667 196.5,295.333 213.5,295C 223.784,291.264 227.284,284.098 224,273.5C 222.437,270.272 219.937,268.105 216.5,267C 200.847,265.983 185.18,264.983 169.5,264C 150.202,255.238 142.702,240.404 147,219.5C 151.944,207.05 160.777,199.05 173.5,195.5 Z"/></g>
<g><path style="opacity:1" fill="#fbbd00" d="M 36.5,265.5 C 53.1667,265.5 69.8333,265.5 86.5,265.5C 88.7907,304.727 102.791,339.06 128.5,368.5C 116.514,379.986 104.681,391.652 93,403.5C 57.3478,364.511 38.5144,318.511 36.5,265.5 Z"/></g>
<g><path style="opacity:1" fill="#fbbd00" d="M 424.5,265.5 C 441.167,265.5 457.833,265.5 474.5,265.5C 472.486,318.511 453.652,364.511 418,403.5C 406.167,391.667 394.333,379.833 382.5,368C 408.299,338.795 422.299,304.628 424.5,265.5 Z"/></g>
<g><path style="opacity:1" fill="#fbbd00" d="M 141.5,382.5 C 161.409,398.794 183.742,410.96 208.5,419C 220.584,422.552 232.918,424.385 245.5,424.5C 245.5,441.5 245.5,458.5 245.5,475.5C 192.561,472.517 146.561,453.351 107.5,418C 119.423,406.58 130.756,394.747 141.5,382.5 Z"/></g>
<g><path style="opacity:1" fill="#fbbd00" d="M 367.5,382.5 C 379.584,394.083 391.584,405.916 403.5,418C 364.53,453.641 318.53,472.474 265.5,474.5C 265.5,457.833 265.5,441.167 265.5,424.5C 304.597,422.37 338.597,408.37 367.5,382.5 Z"/></g>
</svg>
