<?xml version="1.0" encoding="UTF-8"?>
<!DOCTYPE svg PUBLIC "-//W3C//DTD SVG 1.1//EN" "http://www.w3.org/Graphics/SVG/1.1/DTD/svg11.dtd">
<svg xmlns="http://www.w3.org/2000/svg" version="1.1" width="50px" height="50px" style="shape-rendering:geometricPrecision; text-rendering:geometricPrecision; image-rendering:optimizeQuality; fill-rule:evenodd; clip-rule:evenodd" xmlns:xlink="http://www.w3.org/1999/xlink">
<g><path style="opacity:0.705" fill="#000000" d="M 36.5,1.5 C 39.0539,6.05432 42.7205,9.72099 47.5,12.5C 45.9179,16.3134 43.0846,18.6468 39,19.5C 38.3969,25.66 36.0636,30.9933 32,35.5C 31.9567,39.217 32.4567,42.8836 33.5,46.5C 31.1432,46.6633 28.8098,46.4966 26.5,46C 25.8666,42.541 25.2,39.041 24.5,35.5C 18.3827,33.2351 13.3827,34.5685 9.5,39.5C 11.3274,41.4872 12.3274,43.8205 12.5,46.5C 9.5,46.5 6.5,46.5 3.5,46.5C 2.74567,34.9421 3.74567,23.6088 6.5,12.5C 9.54895,10.534 12.8823,10.034 16.5,11C 20.6601,17.7754 24.4934,17.2754 28,9.5C 30.7291,6.60066 33.5624,3.93399 36.5,1.5 Z M 29.5,43.5 C 28.8826,43.3893 28.3826,43.056 28,42.5C 27.5017,39.1832 27.335,35.8499 27.5,32.5C 20.3494,30.2942 13.8494,31.2942 8,35.5C 7.50258,38.146 7.33591,40.8127 7.5,43.5C 6.88258,43.3893 6.38258,43.056 6,42.5C 5.2891,35.7848 5.62243,29.1182 7,22.5C 8.21559,20.038 8.88226,17.3713 9,14.5C 10.9435,13.193 12.7768,13.193 14.5,14.5C 9.93151,14.0826 8.43151,16.0826 10,20.5C 10.414,20.0426 10.914,19.7093 11.5,19.5C 12.934,21.2199 13.7674,23.2199 14,25.5C 15.0113,26.3366 16.1779,26.67 17.5,26.5C 18.1667,23.8333 18.8333,21.1667 19.5,18.5C 22.3198,18.7525 24.9865,18.2525 27.5,17C 29.276,13.5589 31.4426,10.3922 34,7.5C 37.5613,9.09303 40.7279,11.2597 43.5,14C 41.6079,14.9734 39.6079,15.6401 37.5,16C 35.7999,19.2909 34.6333,22.7909 34,26.5C 33.1628,28.8442 31.8294,30.8442 30,32.5C 29.5014,36.1516 29.3347,39.8183 29.5,43.5 Z"/></g>
</svg>
