<?xml version="1.0" encoding="UTF-8"?>
<!DOCTYPE svg PUBLIC "-//W3C//DTD SVG 1.1//EN" "http://www.w3.org/Graphics/SVG/1.1/DTD/svg11.dtd">
<svg xmlns="http://www.w3.org/2000/svg" version="1.1" width="512px" height="512px" style="shape-rendering:geometricPrecision; text-rendering:geometricPrecision; image-rendering:optimizeQuality; fill-rule:evenodd; clip-rule:evenodd" xmlns:xlink="http://www.w3.org/1999/xlink">
<g><path style="opacity:0.934" fill="#000000" d="M 233.5,-0.5 C 248.167,-0.5 262.833,-0.5 277.5,-0.5C 367.555,10.0943 435.388,54.4276 481,132.5C 497.855,164.278 508.022,197.945 511.5,233.5C 511.5,248.167 511.5,262.833 511.5,277.5C 500.906,367.555 456.572,435.388 378.5,481C 346.722,497.855 313.055,508.022 277.5,511.5C 262.833,511.5 248.167,511.5 233.5,511.5C 143.445,500.906 75.612,456.572 30,378.5C 13.1449,346.722 2.97822,313.055 -0.5,277.5C -0.5,262.833 -0.5,248.167 -0.5,233.5C 10.0943,143.445 54.4276,75.612 132.5,30C 164.278,13.1449 197.945,2.97822 233.5,-0.5 Z M 238.5,16.5 C 333.927,14.1239 407.76,52.4573 460,131.5C 498.372,198.224 504.706,267.891 479,340.5C 447.513,417.32 391.68,466.487 311.5,488C 210.277,507.488 127.443,477.322 63,397.5C 14.2533,327.203 3.91994,251.536 32,170.5C 71.0476,79.2927 139.881,27.9593 238.5,16.5 Z M 246.5,136.5 C 247.33,146.325 247.83,156.325 248,166.5C 252.862,172.158 257.862,172.492 263,167.5C 264.286,157.265 264.952,146.932 265,136.5C 284.548,166.429 303.714,196.596 322.5,227C 308.281,236.202 293.781,245.036 279,253.5C 277.688,275.412 277.021,297.412 277,319.5C 273,322.167 269,324.833 265,327.5C 264.667,282.167 264.333,236.833 264,191.5C 261.413,186.932 257.579,185.432 252.5,187C 250.333,187.833 248.833,189.333 248,191.5C 247.667,236.833 247.333,282.167 247,327.5C 217.417,309.959 187.917,292.292 158.5,274.5C 187.844,228.472 217.177,182.472 246.5,136.5 Z M 334.5,240.5 C 338.773,242.305 342.773,244.639 346.5,247.5C 336,253.582 325.666,259.916 315.5,266.5C 311.34,264.588 307.34,262.421 303.5,260C 313.898,253.475 324.231,246.975 334.5,240.5 Z M 363.5,257.5 C 364.662,275.662 364.829,293.995 364,312.5C 353.168,318.581 342.502,324.915 332,331.5C 331.167,313.158 331.334,294.824 332.5,276.5C 343.064,270.392 353.398,264.059 363.5,257.5 Z M 294.5,275.5 C 301.094,278.911 307.594,282.577 314,286.5C 314.667,301.5 314.667,316.5 314,331.5C 307.667,327.5 301.333,323.5 295,319.5C 294.5,304.837 294.333,290.17 294.5,275.5 Z"/></g>
<g><path style="opacity:0.932" fill="#000000" d="M 238.5,26.5 C 335.001,23.6546 407.834,63.3213 457,145.5C 486.835,203.184 492.502,263.184 474,325.5C 448.5,399 399,448.5 325.5,474C 245.261,496.855 172.595,482.522 107.5,431C 37.6948,367.341 13.1948,289.174 34,196.5C 43.0017,163.992 58.1684,134.826 79.5,109C 88.4045,105.904 92.9045,109.071 93,118.5C 41.5917,185.293 30.5917,258.293 60,337.5C 87.5763,398.073 133.076,438.573 196.5,459C 283.882,480.201 357.716,457.701 418,391.5C 469.713,325.159 480.713,252.493 451,173.5C 420.561,107.012 369.728,65.179 298.5,48C 238.218,36.7886 182.884,48.4553 132.5,83C 125.452,89.0492 118.119,94.7159 110.5,100C 100.43,101.267 96.9304,97.1007 100,87.5C 139.169,51.5032 185.336,31.1699 238.5,26.5 Z M 246.5,136.5 C 217.177,182.472 187.844,228.472 158.5,274.5C 187.917,292.292 217.417,309.959 247,327.5C 247.333,282.167 247.667,236.833 248,191.5C 248.833,189.333 250.333,187.833 252.5,187C 257.579,185.432 261.413,186.932 264,191.5C 264.333,236.833 264.667,282.167 265,327.5C 269,324.833 273,322.167 277,319.5C 277.021,297.412 277.688,275.412 279,253.5C 293.781,245.036 308.281,236.202 322.5,227C 303.714,196.596 284.548,166.429 265,136.5C 264.952,146.932 264.286,157.265 263,167.5C 257.862,172.492 252.862,172.158 248,166.5C 247.83,156.325 247.33,146.325 246.5,136.5 Z M 334.5,240.5 C 324.231,246.975 313.898,253.475 303.5,260C 307.34,262.421 311.34,264.588 315.5,266.5C 325.666,259.916 336,253.582 346.5,247.5C 342.773,244.639 338.773,242.305 334.5,240.5 Z M 363.5,257.5 C 353.398,264.059 343.064,270.392 332.5,276.5C 331.334,294.824 331.167,313.158 332,331.5C 342.502,324.915 353.168,318.581 364,312.5C 364.829,293.995 364.662,275.662 363.5,257.5 Z M 294.5,275.5 C 294.333,290.17 294.5,304.837 295,319.5C 301.333,323.5 307.667,327.5 314,331.5C 314.667,316.5 314.667,301.5 314,286.5C 307.594,282.577 301.094,278.911 294.5,275.5 Z"/></g>
<g><path style="opacity:0.929" fill="#000000" d="M 246.5,61.5 C 325.764,61.3651 385.598,95.0318 426,162.5C 430.275,171.382 434.275,180.382 438,189.5C 439.652,196.533 436.986,200.867 430,202.5C 427.113,202.097 424.779,200.764 423,198.5C 397.63,133.134 350.464,93.9672 281.5,81C 213.697,73.4947 158.197,95.9947 115,148.5C 103.937,163.954 94.9367,180.621 88,198.5C 82.3206,203.67 77.3206,203.004 73,196.5C 72.3333,194.167 72.3333,191.833 73,189.5C 99.0057,124.165 146.172,82.9986 214.5,66C 225.245,63.9924 235.912,62.4924 246.5,61.5 Z"/></g>
<g><path style="opacity:0.943" fill="#000000" d="M 252.5,97.5 C 256.516,96.8999 260.016,97.8999 263,100.5C 289,141.167 315,181.833 341,222.5C 347.914,227.375 355.081,231.875 362.5,236C 366.11,235.964 369.61,235.131 373,233.5C 376.814,233.981 379.48,235.981 381,239.5C 381.667,266.5 381.667,293.5 381,320.5C 379.5,323.333 377.333,325.5 374.5,327C 358.5,336.333 342.5,345.667 326.5,355C 324.5,355.667 322.5,355.667 320.5,355C 308.903,348.62 297.403,342.12 286,335.5C 277.435,340.2 268.935,345.033 260.5,350C 258.246,351.15 255.913,351.484 253.5,351C 216.833,329.667 180.167,308.333 143.5,287C 138.268,284.367 136.435,280.201 138,274.5C 174.417,216.664 211.084,158.997 248,101.5C 249.397,99.9297 250.897,98.5964 252.5,97.5 Z M 246.5,136.5 C 217.177,182.472 187.844,228.472 158.5,274.5C 187.917,292.292 217.417,309.959 247,327.5C 247.333,282.167 247.667,236.833 248,191.5C 248.833,189.333 250.333,187.833 252.5,187C 257.579,185.432 261.413,186.932 264,191.5C 264.333,236.833 264.667,282.167 265,327.5C 269,324.833 273,322.167 277,319.5C 277.021,297.412 277.688,275.412 279,253.5C 293.781,245.036 308.281,236.202 322.5,227C 303.714,196.596 284.548,166.429 265,136.5C 264.952,146.932 264.286,157.265 263,167.5C 257.862,172.492 252.862,172.158 248,166.5C 247.83,156.325 247.33,146.325 246.5,136.5 Z M 334.5,240.5 C 324.231,246.975 313.898,253.475 303.5,260C 307.34,262.421 311.34,264.588 315.5,266.5C 325.666,259.916 336,253.582 346.5,247.5C 342.773,244.639 338.773,242.305 334.5,240.5 Z M 363.5,257.5 C 353.398,264.059 343.064,270.392 332.5,276.5C 331.334,294.824 331.167,313.158 332,331.5C 342.502,324.915 353.168,318.581 364,312.5C 364.829,293.995 364.662,275.662 363.5,257.5 Z M 294.5,275.5 C 294.333,290.17 294.5,304.837 295,319.5C 301.333,323.5 307.667,327.5 314,331.5C 314.667,316.5 314.667,301.5 314,286.5C 307.594,282.577 301.094,278.911 294.5,275.5 Z"/></g>
<g><path style="opacity:0.936" fill="#000000" d="M 74.5,313.5 C 88.0585,316.391 101.392,320.225 114.5,325C 119.155,327.897 120.655,332.063 119,337.5C 116.536,344.69 114.703,352.023 113.5,359.5C 122.884,359.184 132.218,359.684 141.5,361C 143.049,362.214 144.215,363.714 145,365.5C 145.333,374.833 145.667,384.167 146,393.5C 154.208,391.124 162.542,389.124 171,387.5C 175.749,387.583 178.749,389.916 180,394.5C 182.149,401.775 183.982,409.108 185.5,416.5C 194.315,413.176 202.815,409.176 211,404.5C 212.734,405.249 214.567,405.749 216.5,406C 222.039,413.576 227.206,421.41 232,429.5C 238.135,424.366 243.969,418.866 249.5,413C 251.459,412.069 253.459,411.236 255.5,410.5C 257.541,411.236 259.541,412.069 261.5,413C 267.031,418.866 272.865,424.366 279,429.5C 283.794,421.41 288.961,413.576 294.5,406C 296.433,405.749 298.266,405.249 300,404.5C 308.185,409.176 316.685,413.176 325.5,416.5C 327.018,409.108 328.851,401.775 331,394.5C 332.251,389.916 335.251,387.583 340,387.5C 348.458,389.124 356.792,391.124 365,393.5C 365.333,384.167 365.667,374.833 366,365.5C 366.785,363.714 367.951,362.214 369.5,361C 378.782,359.684 388.116,359.184 397.5,359.5C 396.297,352.023 394.464,344.69 392,337.5C 390.345,332.063 391.845,327.897 396.5,325C 408.687,320.66 421.021,316.826 433.5,313.5C 441.133,314.91 443.633,319.243 441,326.5C 439.833,327.667 438.667,328.833 437.5,330C 428.377,332.874 419.377,336.041 410.5,339.5C 414.588,349.839 416.754,360.506 417,371.5C 416.167,372.333 415.333,373.167 414.5,374C 404.071,375.905 393.571,377.072 383,377.5C 382.954,388.265 382.287,398.931 381,409.5C 379.014,411.742 376.514,412.742 373.5,412.5C 364.389,410.972 355.389,408.972 346.5,406.5C 343.373,415.717 340.539,425.051 338,434.5C 335.045,438.277 331.212,439.443 326.5,438C 318.429,434.215 310.595,430.049 303,425.5C 297.375,433.915 291.875,442.415 286.5,451C 283.594,452.318 280.594,452.652 277.5,452C 270.315,445.314 262.982,438.814 255.5,432.5C 248.716,437.781 242.383,443.614 236.5,450C 231.902,453.32 227.402,453.153 223,449.5C 218.396,441.234 213.396,433.234 208,425.5C 200.405,430.049 192.571,434.215 184.5,438C 179.788,439.443 175.955,438.277 173,434.5C 170.461,425.051 167.627,415.717 164.5,406.5C 156.88,408.488 149.214,410.321 141.5,412C 136.063,413.655 131.897,412.155 129,407.5C 128.667,397.5 128.333,387.5 128,377.5C 118.209,376.803 108.375,375.97 98.5,375C 96.714,374.215 95.214,373.049 94,371.5C 94.2458,360.506 96.4124,349.839 100.5,339.5C 91.6227,336.041 82.6227,332.874 73.5,330C 66.777,324.024 67.1104,318.524 74.5,313.5 Z"/></g>
</svg>
