<?xml version="1.0" encoding="UTF-8"?>
<!DOCTYPE svg PUBLIC "-//W3C//DTD SVG 1.1//EN" "http://www.w3.org/Graphics/SVG/1.1/DTD/svg11.dtd">
<svg xmlns="http://www.w3.org/2000/svg" version="1.1" width="48px" height="48px" style="shape-rendering:geometricPrecision; text-rendering:geometricPrecision; image-rendering:optimizeQuality; fill-rule:evenodd; clip-rule:evenodd" xmlns:xlink="http://www.w3.org/1999/xlink">
<g><path style="opacity:0.968" fill="#43a5f5" d="M 16.5,3.5 C 36.6499,1.48275 45.4833,10.4828 43,30.5C 37.6574,41.7523 28.8241,45.9189 16.5,43C 5.24773,37.6574 1.08107,28.8241 4,16.5C 6.35314,10.3154 10.5198,5.98203 16.5,3.5 Z"/></g>
<g><path style="opacity:1" fill="#f0f7fe" d="M 22.5,16.5 C 24.1852,17.1837 25.1852,18.517 25.5,20.5C 27.0777,21.2978 28.7444,21.7978 30.5,22C 29.3147,23.353 27.9814,24.5197 26.5,25.5C 27.8181,29.6922 26.8181,30.3588 23.5,27.5C 18.7981,31.7925 17.7981,31.1258 20.5,25.5C 19.3947,24.1076 18.0614,22.941 16.5,22C 20.4663,22.1425 22.4663,20.3092 22.5,16.5 Z"/></g>
</svg>
