<?xml version="1.0" encoding="UTF-8"?>
<!DOCTYPE svg PUBLIC "-//W3C//DTD SVG 1.1//EN" "http://www.w3.org/Graphics/SVG/1.1/DTD/svg11.dtd">
<svg xmlns="http://www.w3.org/2000/svg" version="1.1" width="512px" height="512px" style="shape-rendering:geometricPrecision; text-rendering:geometricPrecision; image-rendering:optimizeQuality; fill-rule:evenodd; clip-rule:evenodd" xmlns:xlink="http://www.w3.org/1999/xlink">
<g><path style="opacity:0.934" fill="#000000" d="M 233.5,-0.5 C 248.167,-0.5 262.833,-0.5 277.5,-0.5C 367.555,10.0943 435.388,54.4276 481,132.5C 497.855,164.278 508.022,197.945 511.5,233.5C 511.5,248.167 511.5,262.833 511.5,277.5C 500.906,367.555 456.572,435.388 378.5,481C 346.722,497.855 313.055,508.022 277.5,511.5C 262.833,511.5 248.167,511.5 233.5,511.5C 143.445,500.906 75.612,456.572 30,378.5C 13.1449,346.722 2.97822,313.055 -0.5,277.5C -0.5,262.833 -0.5,248.167 -0.5,233.5C 10.0943,143.445 54.4276,75.612 132.5,30C 164.278,13.1449 197.945,2.97822 233.5,-0.5 Z M 238.5,16.5 C 333.927,14.1239 407.76,52.4573 460,131.5C 498.372,198.224 504.706,267.891 479,340.5C 447.513,417.32 391.68,466.487 311.5,488C 210.277,507.488 127.443,477.322 63,397.5C 14.2533,327.203 3.91994,251.536 32,170.5C 71.0476,79.2927 139.881,27.9593 238.5,16.5 Z M 253.5,43.5 C 259.31,43.6391 262.643,46.6391 263.5,52.5C 258.167,69.8333 252.833,69.8333 247.5,52.5C 248.286,48.5675 250.286,45.5675 253.5,43.5 Z M 207.5,49.5 C 215.163,50.7674 222.83,50.7674 230.5,49.5C 230.244,60.8182 234.244,70.3182 242.5,78C 229.473,90.5857 227.306,104.752 236,120.5C 243.023,128.729 251.856,131.563 262.5,129C 277.742,122.317 283.242,110.817 279,94.5C 276.636,88.2714 273.136,82.7714 268.5,78C 276.756,70.3182 280.756,60.8182 280.5,49.5C 290.531,49.9261 300.531,50.4261 310.5,51C 318.959,55.0632 327.293,59.3965 335.5,64C 342.455,66.1555 349.455,68.1555 356.5,70C 359.938,70.92 362.938,72.5867 365.5,75C 371.198,81.0325 377.198,86.6991 383.5,92C 375.52,99.7611 371.52,109.261 371.5,120.5C 358.67,120.332 348.503,125.332 341,135.5C 334.916,148.08 336.749,159.246 346.5,169C 363.949,177.695 377.449,173.528 387,156.5C 388.769,150.949 389.935,145.282 390.5,139.5C 401.739,139.48 411.239,135.48 419,127.5C 424.301,133.802 429.968,139.802 436,145.5C 438.413,148.062 440.08,151.062 441,154.5C 442.845,161.545 444.845,168.545 447,175.5C 451.603,183.707 455.937,192.041 460,200.5C 460.5,203.5 461,206.5 461.5,209.5C 460.408,216.493 460.408,223.493 461.5,230.5C 450.182,230.244 440.682,234.244 433,242.5C 420.408,229.47 406.241,227.304 390.5,236C 382.271,243.023 379.437,251.856 382,262.5C 388.69,277.743 400.19,283.243 416.5,279C 422.729,276.636 428.229,273.136 433,268.5C 440.682,276.756 450.182,280.756 461.5,280.5C 460.408,287.507 460.408,294.507 461.5,301.5C 461,304.5 460.5,307.5 460,310.5C 455.937,318.959 451.603,327.293 447,335.5C 444.845,342.455 442.845,349.455 441,356.5C 440.08,359.938 438.413,362.938 436,365.5C 429.968,371.198 424.301,377.198 419,383.5C 411.239,375.52 401.739,371.52 390.5,371.5C 390.758,355.145 383.424,343.979 368.5,338C 353.142,335.062 342.975,340.895 338,355.5C 335.733,370.135 341.233,380.635 354.5,387C 360.051,388.769 365.718,389.935 371.5,390.5C 371.52,401.739 375.52,411.239 383.5,419C 377.198,424.301 371.198,429.968 365.5,436C 362.938,438.413 359.938,440.08 356.5,441C 349.455,442.845 342.455,444.845 335.5,447C 327.293,451.603 318.959,455.937 310.5,460C 300.531,460.574 290.531,461.074 280.5,461.5C 280.756,450.182 276.756,440.682 268.5,433C 281.527,420.414 283.694,406.248 275,390.5C 267.977,382.271 259.144,379.437 248.5,382C 233.258,388.683 227.758,400.183 232,416.5C 234.364,422.729 237.864,428.229 242.5,433C 234.244,440.682 230.244,450.182 230.5,461.5C 220.469,461.074 210.469,460.574 200.5,460C 192.041,455.937 183.707,451.603 175.5,447C 168.545,444.845 161.545,442.845 154.5,441C 151.062,440.08 148.062,438.413 145.5,436C 139.802,429.968 133.802,424.301 127.5,419C 135.48,411.239 139.48,401.739 139.5,390.5C 152.33,390.668 162.497,385.668 170,375.5C 176.084,362.92 174.251,351.754 164.5,342C 147.051,333.305 133.551,337.472 124,354.5C 122.231,360.051 121.065,365.718 120.5,371.5C 109.261,371.52 99.7611,375.52 92,383.5C 86.6991,377.198 81.0325,371.198 75,365.5C 72.5867,362.938 70.92,359.938 70,356.5C 68.1555,349.455 66.1555,342.455 64,335.5C 59.3965,327.293 55.0632,318.959 51,310.5C 50.5,307.5 50,304.5 49.5,301.5C 50.5923,294.507 50.5923,287.507 49.5,280.5C 60.8182,280.756 70.3182,276.756 78,268.5C 90.5924,281.53 104.759,283.696 120.5,275C 128.729,267.977 131.563,259.144 129,248.5C 122.31,233.257 110.81,227.757 94.5,232C 88.2714,234.364 82.7714,237.864 78,242.5C 70.3182,234.244 60.8182,230.244 49.5,230.5C 50.5923,223.493 50.5923,216.493 49.5,209.5C 50,206.5 50.5,203.5 51,200.5C 55.0632,192.041 59.3965,183.707 64,175.5C 66.1555,168.545 68.1555,161.545 70,154.5C 70.92,151.062 72.5867,148.062 75,145.5C 81.0325,139.802 86.6991,133.802 92,127.5C 99.7611,135.48 109.261,139.48 120.5,139.5C 120.332,152.33 125.332,162.497 135.5,170C 149.83,176.982 161.663,174.149 171,161.5C 177.161,144.667 172.328,132.167 156.5,124C 150.949,122.231 145.282,121.065 139.5,120.5C 139.48,109.261 135.48,99.7611 127.5,92C 134.833,85.3333 142.167,78.6667 149.5,72C 158.062,69.0255 166.729,66.3589 175.5,64C 182.833,60 190.167,56 197.5,52C 200.952,51.1153 204.286,50.282 207.5,49.5 Z M 186.5,83.5 C 194.559,86.2823 197.392,91.9489 195,100.5C 194.529,102.246 193.862,103.913 193,105.5C 187.782,103.614 183.782,100.281 181,95.5C 179.393,89.7212 181.227,85.7212 186.5,83.5 Z M 323.5,83.5 C 329.547,85.2541 331.714,89.2541 330,95.5C 327.218,100.281 323.218,103.614 318,105.5C 314.513,98.8557 314.68,92.3557 318.5,86C 320.315,85.2432 321.981,84.4098 323.5,83.5 Z M 254.5,90.5 C 261.687,94.5405 264.187,100.54 262,108.5C 254.629,114.895 249.795,113.228 247.5,103.5C 248.578,98.4396 250.911,94.1063 254.5,90.5 Z M 108.5,103.5 C 118.645,105.077 122.978,111.077 121.5,121.5C 112.254,122.887 106.254,119.22 103.5,110.5C 104.06,107.288 105.727,104.955 108.5,103.5 Z M 398.5,103.5 C 406.537,104.245 408.87,108.245 405.5,115.5C 401.368,120.436 396.035,122.436 389.5,121.5C 388.345,113.237 391.345,107.237 398.5,103.5 Z M 201.5,127.5 C 210.235,129.392 214.735,134.725 215,143.5C 210.468,150.09 205.801,150.09 201,143.5C 200.192,141.577 199.692,139.577 199.5,137.5C 200.38,134.198 201.046,130.865 201.5,127.5 Z M 306.5,127.5 C 307.5,127.5 308.5,127.5 309.5,127.5C 310.758,131.762 311.258,136.096 311,140.5C 308.453,148.785 303.787,150.451 297,145.5C 294.963,141.666 295.296,137.999 298,134.5C 300.628,131.79 303.461,129.456 306.5,127.5 Z M 138.5,138.5 C 145.04,137.837 150.54,139.837 155,144.5C 157.83,152.031 155.33,155.864 147.5,156C 140.306,152.52 137.306,146.687 138.5,138.5 Z M 365.5,138.5 C 367.833,138.5 370.167,138.5 372.5,138.5C 373.163,145.04 371.163,150.54 366.5,155C 358.429,157.931 354.596,155.098 355,146.5C 357.587,142.475 361.087,139.809 365.5,138.5 Z M 249.5,156.5 C 299.1,156.962 332.6,180.295 350,226.5C 361.462,277.051 345.296,315.884 301.5,343C 261.178,361.41 223.845,356.743 189.5,329C 157.782,297.624 149.282,260.79 164,218.5C 180.89,181.771 209.39,161.104 249.5,156.5 Z M 88.5,180.5 C 97.0615,180.542 102.728,184.709 105.5,193C 99.075,196.228 92.7417,196.228 86.5,193C 82.6281,188.114 83.2947,183.947 88.5,180.5 Z M 416.5,180.5 C 426.01,180.143 428.843,184.143 425,192.5C 418.708,196.273 412.208,196.44 405.5,193C 407.659,187.351 411.325,183.184 416.5,180.5 Z M 135.5,199.5 C 144.134,199.184 148.301,203.184 148,211.5C 143.994,216.166 139.494,216.666 134.5,213C 130.996,209.816 128.663,205.982 127.5,201.5C 130.373,201.198 133.039,200.531 135.5,199.5 Z M 370.5,199.5 C 374.876,199.909 379.21,200.575 383.5,201.5C 381.903,208.931 377.403,213.598 370,215.5C 362.485,214.012 360.652,210.012 364.5,203.5C 366.29,201.684 368.29,200.351 370.5,199.5 Z M 229.5,241.5 C 242.829,240.994 248.663,247.328 247,260.5C 241.95,269.516 234.783,271.683 225.5,267C 216.711,256.903 218.044,248.403 229.5,241.5 Z M 300.5,241.5 C 315.749,241.898 320.915,249.231 316,263.5C 310.442,269.924 303.942,271.091 296.5,267C 287.577,256.882 288.91,248.382 300.5,241.5 Z M 52.5,247.5 C 69.8068,252.788 69.8068,258.121 52.5,263.5C 43.9492,261.584 41.9492,257.084 46.5,250C 48.6115,249.155 50.6115,248.322 52.5,247.5 Z M 102.5,247.5 C 108.076,247.777 111.409,250.61 112.5,256C 111.026,260.504 107.859,263.004 103,263.5C 97.9201,262.252 93.7534,259.585 90.5,255.5C 93.7519,251.559 97.7519,248.892 102.5,247.5 Z M 407.5,247.5 C 412.849,248.515 417.182,251.182 420.5,255.5C 415.443,262.509 409.11,264.342 401.5,261C 397.5,257.333 397.5,253.667 401.5,250C 403.611,249.155 405.611,248.322 407.5,247.5 Z M 457.5,247.5 C 466.641,248.827 468.975,253.327 464.5,261C 456.89,264.342 450.557,262.509 445.5,255.5C 448.577,251.305 452.577,248.639 457.5,247.5 Z M 138.5,295.5 C 147.39,295.685 150.056,299.685 146.5,307.5C 144.193,309.884 141.359,311.217 138,311.5C 134.499,310.766 130.999,310.1 127.5,309.5C 128.94,303.062 132.607,298.396 138.5,295.5 Z M 367.5,295.5 C 376.247,296.246 381.58,300.912 383.5,309.5C 380.001,310.1 376.501,310.766 373,311.5C 365.554,310.734 362.221,306.734 363,299.5C 364.397,297.93 365.897,296.596 367.5,295.5 Z M 89.5,315.5 C 106.461,313.304 109.128,317.804 97.5,329C 90.6577,332.27 85.991,330.436 83.5,323.5C 84.5608,320.009 86.5608,317.342 89.5,315.5 Z M 410.5,315.5 C 418.651,313.371 424.318,316.037 427.5,323.5C 425.009,330.436 420.342,332.27 413.5,329C 409.855,326.042 407.188,322.375 405.5,318C 407.315,317.243 408.981,316.41 410.5,315.5 Z M 147.5,354.5 C 154.091,354.594 156.924,357.927 156,364.5C 151.959,370.82 146.126,373.486 138.5,372.5C 137.371,364.191 140.371,358.191 147.5,354.5 Z M 358.5,354.5 C 364.327,353.937 368.494,356.27 371,361.5C 372.108,365.086 372.608,368.753 372.5,372.5C 365.96,373.163 360.46,371.163 356,366.5C 353.696,361.855 354.529,357.855 358.5,354.5 Z M 205.5,362.5 C 215.032,363.226 217.532,367.892 213,376.5C 209.816,380.004 205.982,382.337 201.5,383.5C 200.242,379.238 199.742,374.904 200,370.5C 201.104,367.279 202.937,364.612 205.5,362.5 Z M 299.5,362.5 C 306.951,362.281 310.951,365.948 311.5,373.5C 310.62,376.802 309.954,380.135 309.5,383.5C 300.765,381.608 296.265,376.275 296,367.5C 296.997,365.677 298.164,364.01 299.5,362.5 Z M 113.5,389.5 C 116.167,389.5 118.833,389.5 121.5,389.5C 122.887,398.746 119.22,404.746 110.5,407.5C 103.342,405.177 101.842,400.844 106,394.5C 108.17,392.177 110.67,390.51 113.5,389.5 Z M 389.5,389.5 C 397.689,388.265 403.522,391.265 407,398.5C 406.361,407.071 402.195,409.238 394.5,405C 390.342,400.693 388.676,395.526 389.5,389.5 Z M 252.5,398.5 C 258.824,398.151 262.491,401.151 263.5,407.5C 262.458,412.867 259.791,417.2 255.5,420.5C 246.987,413.88 245.987,406.547 252.5,398.5 Z M 192.5,405.5 C 196.452,411.922 196.452,418.422 192.5,425C 183.519,428.711 179.686,425.545 181,415.5C 183.794,410.866 187.627,407.533 192.5,405.5 Z M 317.5,405.5 C 322.995,407.161 327.162,410.494 330,415.5C 331.314,425.545 327.481,428.711 318.5,425C 314.838,418.722 314.504,412.222 317.5,405.5 Z M 254.5,445.5 C 259.685,448.168 262.685,452.501 263.5,458.5C 261.57,467.058 257.07,469.058 250,464.5C 246.898,457.235 248.398,450.902 254.5,445.5 Z"/></g>
<g><path style="opacity:0.939" fill="#000000" d="M 248.5,26.5 C 260.167,26.1997 271.5,28.033 282.5,32C 293.542,32.1495 304.542,32.8161 315.5,34C 324.729,38.2293 333.729,42.896 342.5,48C 352.14,50.0761 361.474,53.0761 370.5,57C 378.766,63.2622 386.432,70.2622 393.5,78C 401.094,81.9349 408.427,86.2682 415.5,91C 422.451,99.0617 428.285,107.895 433,117.5C 442.167,125.325 449.833,134.325 456,144.5C 458.644,152.409 460.977,160.409 463,168.5C 468.104,177.271 472.771,186.271 477,195.5C 478.184,206.458 478.851,217.458 479,228.5C 481.946,237.283 483.779,246.283 484.5,255.5C 483.779,264.717 481.946,273.717 479,282.5C 478.667,291.5 478.333,300.5 478,309.5C 477.743,313.377 476.743,317.043 475,320.5C 471,327.833 467,335.167 463,342.5C 460.924,352.14 457.924,361.474 454,370.5C 447.738,378.766 440.738,386.432 433,393.5C 429.065,401.094 424.732,408.427 420,415.5C 411.938,422.451 403.105,428.285 393.5,433C 385.675,442.167 376.675,449.833 366.5,456C 358.591,458.644 350.591,460.977 342.5,463C 333.729,468.104 324.729,472.771 315.5,477C 304.542,478.184 293.542,478.851 282.5,479C 273.717,481.946 264.717,483.779 255.5,484.5C 246.283,483.779 237.283,481.946 228.5,479C 219.5,478.667 210.5,478.333 201.5,478C 197.623,477.743 193.957,476.743 190.5,475C 183.167,471 175.833,467 168.5,463C 158.86,460.924 149.526,457.924 140.5,454C 132.234,447.738 124.568,440.738 117.5,433C 109.906,429.065 102.573,424.732 95.5,420C 88.5488,411.938 82.7155,403.105 78,393.5C 68.8334,385.675 61.1668,376.675 55,366.5C 52.356,358.591 50.0226,350.591 48,342.5C 42.896,333.729 38.2293,324.729 34,315.5C 32.8161,304.542 32.1495,293.542 32,282.5C 29.0539,273.717 27.2206,264.717 26.5,255.5C 27.2206,246.283 29.0539,237.283 32,228.5C 32.3333,219.5 32.6667,210.5 33,201.5C 33.2565,197.623 34.2565,193.957 36,190.5C 40,183.167 44,175.833 48,168.5C 50.0761,158.86 53.0761,149.526 57,140.5C 63.2622,132.234 70.2622,124.568 78,117.5C 81.9349,109.906 86.2682,102.573 91,95.5C 99.0617,88.5488 107.895,82.7155 117.5,78C 125.325,68.8334 134.325,61.1668 144.5,55C 152.409,52.356 160.409,50.0226 168.5,48C 177.271,42.896 186.271,38.2293 195.5,34C 206.458,32.8161 217.458,32.1495 228.5,32C 235.312,30.2222 241.979,28.3888 248.5,26.5 Z M 253.5,43.5 C 250.286,45.5675 248.286,48.5675 247.5,52.5C 252.833,69.8333 258.167,69.8333 263.5,52.5C 262.643,46.6391 259.31,43.6391 253.5,43.5 Z M 207.5,49.5 C 204.286,50.282 200.952,51.1153 197.5,52C 190.167,56 182.833,60 175.5,64C 166.729,66.3589 158.062,69.0255 149.5,72C 142.167,78.6667 134.833,85.3333 127.5,92C 135.48,99.7611 139.48,109.261 139.5,120.5C 145.282,121.065 150.949,122.231 156.5,124C 172.328,132.167 177.161,144.667 171,161.5C 161.663,174.149 149.83,176.982 135.5,170C 125.332,162.497 120.332,152.33 120.5,139.5C 109.261,139.48 99.7611,135.48 92,127.5C 86.6991,133.802 81.0325,139.802 75,145.5C 72.5867,148.062 70.92,151.062 70,154.5C 68.1555,161.545 66.1555,168.545 64,175.5C 59.3965,183.707 55.0632,192.041 51,200.5C 50.5,203.5 50,206.5 49.5,209.5C 50.5923,216.493 50.5923,223.493 49.5,230.5C 60.8182,230.244 70.3182,234.244 78,242.5C 82.7714,237.864 88.2714,234.364 94.5,232C 110.81,227.757 122.31,233.257 129,248.5C 131.563,259.144 128.729,267.977 120.5,275C 104.759,283.696 90.5924,281.53 78,268.5C 70.3182,276.756 60.8182,280.756 49.5,280.5C 50.5923,287.507 50.5923,294.507 49.5,301.5C 50,304.5 50.5,307.5 51,310.5C 55.0632,318.959 59.3965,327.293 64,335.5C 66.1555,342.455 68.1555,349.455 70,356.5C 70.92,359.938 72.5867,362.938 75,365.5C 81.0325,371.198 86.6991,377.198 92,383.5C 99.7611,375.52 109.261,371.52 120.5,371.5C 121.065,365.718 122.231,360.051 124,354.5C 133.551,337.472 147.051,333.305 164.5,342C 174.251,351.754 176.084,362.92 170,375.5C 162.497,385.668 152.33,390.668 139.5,390.5C 139.48,401.739 135.48,411.239 127.5,419C 133.802,424.301 139.802,429.968 145.5,436C 148.062,438.413 151.062,440.08 154.5,441C 161.545,442.845 168.545,444.845 175.5,447C 183.707,451.603 192.041,455.937 200.5,460C 210.469,460.574 220.469,461.074 230.5,461.5C 230.244,450.182 234.244,440.682 242.5,433C 237.864,428.229 234.364,422.729 232,416.5C 227.758,400.183 233.258,388.683 248.5,382C 259.144,379.437 267.977,382.271 275,390.5C 283.694,406.248 281.527,420.414 268.5,433C 276.756,440.682 280.756,450.182 280.5,461.5C 290.531,461.074 300.531,460.574 310.5,460C 318.959,455.937 327.293,451.603 335.5,447C 342.455,444.845 349.455,442.845 356.5,441C 359.938,440.08 362.938,438.413 365.5,436C 371.198,429.968 377.198,424.301 383.5,419C 375.52,411.239 371.52,401.739 371.5,390.5C 365.718,389.935 360.051,388.769 354.5,387C 341.233,380.635 335.733,370.135 338,355.5C 342.975,340.895 353.142,335.062 368.5,338C 383.424,343.979 390.758,355.145 390.5,371.5C 401.739,371.52 411.239,375.52 419,383.5C 424.301,377.198 429.968,371.198 436,365.5C 438.413,362.938 440.08,359.938 441,356.5C 442.845,349.455 444.845,342.455 447,335.5C 451.603,327.293 455.937,318.959 460,310.5C 460.5,307.5 461,304.5 461.5,301.5C 460.408,294.507 460.408,287.507 461.5,280.5C 450.182,280.756 440.682,276.756 433,268.5C 428.229,273.136 422.729,276.636 416.5,279C 400.19,283.243 388.69,277.743 382,262.5C 379.437,251.856 382.271,243.023 390.5,236C 406.241,227.304 420.408,229.47 433,242.5C 440.682,234.244 450.182,230.244 461.5,230.5C 460.408,223.493 460.408,216.493 461.5,209.5C 461,206.5 460.5,203.5 460,200.5C 455.937,192.041 451.603,183.707 447,175.5C 444.845,168.545 442.845,161.545 441,154.5C 440.08,151.062 438.413,148.062 436,145.5C 429.968,139.802 424.301,133.802 419,127.5C 411.239,135.48 401.739,139.48 390.5,139.5C 389.935,145.282 388.769,150.949 387,156.5C 377.449,173.528 363.949,177.695 346.5,169C 336.749,159.246 334.916,148.08 341,135.5C 348.503,125.332 358.67,120.332 371.5,120.5C 371.52,109.261 375.52,99.7611 383.5,92C 377.198,86.6991 371.198,81.0325 365.5,75C 362.938,72.5867 359.938,70.92 356.5,70C 349.455,68.1555 342.455,66.1555 335.5,64C 327.293,59.3965 318.959,55.0632 310.5,51C 300.531,50.4261 290.531,49.9261 280.5,49.5C 280.756,60.8182 276.756,70.3182 268.5,78C 273.136,82.7714 276.636,88.2714 279,94.5C 283.242,110.817 277.742,122.317 262.5,129C 251.856,131.563 243.023,128.729 236,120.5C 227.306,104.752 229.473,90.5857 242.5,78C 234.244,70.3182 230.244,60.8182 230.5,49.5C 222.83,50.7674 215.163,50.7674 207.5,49.5 Z M 186.5,83.5 C 181.227,85.7212 179.393,89.7212 181,95.5C 183.782,100.281 187.782,103.614 193,105.5C 193.862,103.913 194.529,102.246 195,100.5C 197.392,91.9489 194.559,86.2823 186.5,83.5 Z M 323.5,83.5 C 321.981,84.4098 320.315,85.2432 318.5,86C 314.68,92.3557 314.513,98.8557 318,105.5C 323.218,103.614 327.218,100.281 330,95.5C 331.714,89.2541 329.547,85.2541 323.5,83.5 Z M 254.5,90.5 C 250.911,94.1063 248.578,98.4396 247.5,103.5C 249.795,113.228 254.629,114.895 262,108.5C 264.187,100.54 261.687,94.5405 254.5,90.5 Z M 108.5,103.5 C 105.727,104.955 104.06,107.288 103.5,110.5C 106.254,119.22 112.254,122.887 121.5,121.5C 122.978,111.077 118.645,105.077 108.5,103.5 Z M 398.5,103.5 C 391.345,107.237 388.345,113.237 389.5,121.5C 396.035,122.436 401.368,120.436 405.5,115.5C 408.87,108.245 406.537,104.245 398.5,103.5 Z M 201.5,127.5 C 201.046,130.865 200.38,134.198 199.5,137.5C 199.692,139.577 200.192,141.577 201,143.5C 205.801,150.09 210.468,150.09 215,143.5C 214.735,134.725 210.235,129.392 201.5,127.5 Z M 306.5,127.5 C 303.461,129.456 300.628,131.79 298,134.5C 295.296,137.999 294.963,141.666 297,145.5C 303.787,150.451 308.453,148.785 311,140.5C 311.258,136.096 310.758,131.762 309.5,127.5C 308.5,127.5 307.5,127.5 306.5,127.5 Z M 138.5,138.5 C 137.306,146.687 140.306,152.52 147.5,156C 155.33,155.864 157.83,152.031 155,144.5C 150.54,139.837 145.04,137.837 138.5,138.5 Z M 365.5,138.5 C 361.087,139.809 357.587,142.475 355,146.5C 354.596,155.098 358.429,157.931 366.5,155C 371.163,150.54 373.163,145.04 372.5,138.5C 370.167,138.5 367.833,138.5 365.5,138.5 Z M 249.5,156.5 C 209.39,161.104 180.89,181.771 164,218.5C 149.282,260.79 157.782,297.624 189.5,329C 223.845,356.743 261.178,361.41 301.5,343C 345.296,315.884 361.462,277.051 350,226.5C 332.6,180.295 299.1,156.962 249.5,156.5 Z M 88.5,180.5 C 83.2947,183.947 82.6281,188.114 86.5,193C 92.7417,196.228 99.075,196.228 105.5,193C 102.728,184.709 97.0615,180.542 88.5,180.5 Z M 416.5,180.5 C 411.325,183.184 407.659,187.351 405.5,193C 412.208,196.44 418.708,196.273 425,192.5C 428.843,184.143 426.01,180.143 416.5,180.5 Z M 135.5,199.5 C 133.039,200.531 130.373,201.198 127.5,201.5C 128.663,205.982 130.996,209.816 134.5,213C 139.494,216.666 143.994,216.166 148,211.5C 148.301,203.184 144.134,199.184 135.5,199.5 Z M 370.5,199.5 C 368.29,200.351 366.29,201.684 364.5,203.5C 360.652,210.012 362.485,214.012 370,215.5C 377.403,213.598 381.903,208.931 383.5,201.5C 379.21,200.575 374.876,199.909 370.5,199.5 Z M 229.5,241.5 C 218.044,248.403 216.711,256.903 225.5,267C 234.783,271.683 241.95,269.516 247,260.5C 248.663,247.328 242.829,240.994 229.5,241.5 Z M 300.5,241.5 C 288.91,248.382 287.577,256.882 296.5,267C 303.942,271.091 310.442,269.924 316,263.5C 320.915,249.231 315.749,241.898 300.5,241.5 Z M 52.5,247.5 C 50.6115,248.322 48.6115,249.155 46.5,250C 41.9492,257.084 43.9492,261.584 52.5,263.5C 69.8068,258.121 69.8068,252.788 52.5,247.5 Z M 102.5,247.5 C 97.7519,248.892 93.7519,251.559 90.5,255.5C 93.7534,259.585 97.9201,262.252 103,263.5C 107.859,263.004 111.026,260.504 112.5,256C 111.409,250.61 108.076,247.777 102.5,247.5 Z M 407.5,247.5 C 405.611,248.322 403.611,249.155 401.5,250C 397.5,253.667 397.5,257.333 401.5,261C 409.11,264.342 415.443,262.509 420.5,255.5C 417.182,251.182 412.849,248.515 407.5,247.5 Z M 457.5,247.5 C 452.577,248.639 448.577,251.305 445.5,255.5C 450.557,262.509 456.89,264.342 464.5,261C 468.975,253.327 466.641,248.827 457.5,247.5 Z M 138.5,295.5 C 132.607,298.396 128.94,303.062 127.5,309.5C 130.999,310.1 134.499,310.766 138,311.5C 141.359,311.217 144.193,309.884 146.5,307.5C 150.056,299.685 147.39,295.685 138.5,295.5 Z M 367.5,295.5 C 365.897,296.596 364.397,297.93 363,299.5C 362.221,306.734 365.554,310.734 373,311.5C 376.501,310.766 380.001,310.1 383.5,309.5C 381.58,300.912 376.247,296.246 367.5,295.5 Z M 89.5,315.5 C 86.5608,317.342 84.5608,320.009 83.5,323.5C 85.991,330.436 90.6577,332.27 97.5,329C 109.128,317.804 106.461,313.304 89.5,315.5 Z M 410.5,315.5 C 408.981,316.41 407.315,317.243 405.5,318C 407.188,322.375 409.855,326.042 413.5,329C 420.342,332.27 425.009,330.436 427.5,323.5C 424.318,316.037 418.651,313.371 410.5,315.5 Z M 147.5,354.5 C 140.371,358.191 137.371,364.191 138.5,372.5C 146.126,373.486 151.959,370.82 156,364.5C 156.924,357.927 154.091,354.594 147.5,354.5 Z M 358.5,354.5 C 354.529,357.855 353.696,361.855 356,366.5C 360.46,371.163 365.96,373.163 372.5,372.5C 372.608,368.753 372.108,365.086 371,361.5C 368.494,356.27 364.327,353.937 358.5,354.5 Z M 205.5,362.5 C 202.937,364.612 201.104,367.279 200,370.5C 199.742,374.904 200.242,379.238 201.5,383.5C 205.982,382.337 209.816,380.004 213,376.5C 217.532,367.892 215.032,363.226 205.5,362.5 Z M 299.5,362.5 C 298.164,364.01 296.997,365.677 296,367.5C 296.265,376.275 300.765,381.608 309.5,383.5C 309.954,380.135 310.62,376.802 311.5,373.5C 310.951,365.948 306.951,362.281 299.5,362.5 Z M 113.5,389.5 C 110.67,390.51 108.17,392.177 106,394.5C 101.842,400.844 103.342,405.177 110.5,407.5C 119.22,404.746 122.887,398.746 121.5,389.5C 118.833,389.5 116.167,389.5 113.5,389.5 Z M 389.5,389.5 C 388.676,395.526 390.342,400.693 394.5,405C 402.195,409.238 406.361,407.071 407,398.5C 403.522,391.265 397.689,388.265 389.5,389.5 Z M 252.5,398.5 C 245.987,406.547 246.987,413.88 255.5,420.5C 259.791,417.2 262.458,412.867 263.5,407.5C 262.491,401.151 258.824,398.151 252.5,398.5 Z M 192.5,405.5 C 187.627,407.533 183.794,410.866 181,415.5C 179.686,425.545 183.519,428.711 192.5,425C 196.452,418.422 196.452,411.922 192.5,405.5 Z M 317.5,405.5 C 314.504,412.222 314.838,418.722 318.5,425C 327.481,428.711 331.314,425.545 330,415.5C 327.162,410.494 322.995,407.161 317.5,405.5 Z M 254.5,445.5 C 248.398,450.902 246.898,457.235 250,464.5C 257.07,469.058 261.57,467.058 263.5,458.5C 262.685,452.501 259.685,448.168 254.5,445.5 Z"/></g>
<g><path style="opacity:0.94" fill="#000000" d="M 182.5,66.5 C 201.9,66.0651 212.234,75.5651 213.5,95C 212.65,100.568 211.816,106.068 211,111.5C 224.647,116.964 231.814,126.964 232.5,141.5C 247.833,138.833 263.167,138.833 278.5,141.5C 279.186,126.964 286.353,116.964 300,111.5C 298.431,104.631 297.764,97.6315 298,90.5C 299.859,78.2567 306.693,70.4233 318.5,67C 340.785,66.6183 350.285,77.4516 347,99.5C 345.861,103.112 344.194,106.446 342,109.5C 336.907,114.436 331.407,118.769 325.5,122.5C 328.269,129.596 329.103,136.929 328,144.5C 326.382,150.057 324.049,155.057 321,159.5C 333.34,168.007 343.84,178.34 352.5,190.5C 363.417,181.857 375.417,180.19 388.5,185.5C 392.231,179.593 396.564,174.093 401.5,169C 412.67,161.03 424.004,160.696 435.5,168C 446.43,179.469 447.263,191.636 438,204.5C 431.912,210.421 424.578,213.421 416,213.5C 410.432,212.65 404.932,211.816 399.5,211C 394.036,224.647 384.036,231.814 369.5,232.5C 372.167,247.833 372.167,263.167 369.5,278.5C 384.036,279.186 394.036,286.353 399.5,300C 406.369,298.431 413.369,297.764 420.5,298C 439.179,302.188 446.679,313.688 443,332.5C 436.473,345.793 425.973,350.626 411.5,347C 407.888,345.861 404.554,344.194 401.5,342C 396.564,336.907 392.231,331.407 388.5,325.5C 381.404,328.269 374.071,329.103 366.5,328C 360.943,326.382 355.943,324.049 351.5,321C 342.993,333.34 332.66,343.84 320.5,352.5C 329.143,363.417 330.81,375.417 325.5,388.5C 331.407,392.231 336.907,396.564 342,401.5C 351.591,415.364 350.425,428.198 338.5,440C 324.113,447.852 311.946,445.352 302,432.5C 299.237,427.355 297.737,421.855 297.5,416C 298.35,410.432 299.184,404.932 300,399.5C 286.353,394.036 279.186,384.036 278.5,369.5C 263.167,372.167 247.833,372.167 232.5,369.5C 231.814,384.036 224.647,394.036 211,399.5C 212.569,406.369 213.236,413.369 213,420.5C 211.141,432.743 204.307,440.577 192.5,444C 170.215,444.382 160.715,433.548 164,411.5C 165.139,407.888 166.806,404.554 169,401.5C 174.093,396.564 179.593,392.231 185.5,388.5C 182.731,381.404 181.897,374.071 183,366.5C 184.618,360.943 186.951,355.943 190,351.5C 177.66,342.993 167.16,332.66 158.5,320.5C 147.583,329.143 135.583,330.81 122.5,325.5C 118.769,331.407 114.436,336.907 109.5,342C 98.3297,349.97 86.9964,350.304 75.5,343C 64.5699,331.531 63.7365,319.364 73,306.5C 79.0883,300.579 86.4216,297.579 95,297.5C 100.568,298.35 106.068,299.184 111.5,300C 116.964,286.353 126.964,279.186 141.5,278.5C 138.833,263.167 138.833,247.833 141.5,232.5C 126.964,231.814 116.964,224.647 111.5,211C 106.068,211.816 100.568,212.65 95,213.5C 75.4189,212.258 66.0856,201.925 67,182.5C 72.9727,165.097 84.806,159.264 102.5,165C 104.996,166.08 107.33,167.414 109.5,169C 114.436,174.093 118.769,179.593 122.5,185.5C 135.583,180.19 147.583,181.857 158.5,190.5C 167.16,178.34 177.66,168.007 190,159.5C 186.951,155.057 184.618,150.057 183,144.5C 181.897,136.929 182.731,129.596 185.5,122.5C 179.593,118.769 174.093,114.436 169,109.5C 159.409,95.6356 160.575,82.8023 172.5,71C 175.815,69.1702 179.149,67.6702 182.5,66.5 Z M 186.5,83.5 C 181.227,85.7212 179.393,89.7212 181,95.5C 183.782,100.281 187.782,103.614 193,105.5C 193.862,103.913 194.529,102.246 195,100.5C 197.392,91.9489 194.559,86.2823 186.5,83.5 Z M 323.5,83.5 C 321.981,84.4098 320.315,85.2432 318.5,86C 314.68,92.3557 314.513,98.8557 318,105.5C 323.218,103.614 327.218,100.281 330,95.5C 331.714,89.2541 329.547,85.2541 323.5,83.5 Z M 254.5,90.5 C 250.911,94.1063 248.578,98.4396 247.5,103.5C 249.795,113.228 254.629,114.895 262,108.5C 264.187,100.54 261.687,94.5405 254.5,90.5 Z M 201.5,127.5 C 201.046,130.865 200.38,134.198 199.5,137.5C 199.692,139.577 200.192,141.577 201,143.5C 205.801,150.09 210.468,150.09 215,143.5C 214.735,134.725 210.235,129.392 201.5,127.5 Z M 306.5,127.5 C 303.461,129.456 300.628,131.79 298,134.5C 295.296,137.999 294.963,141.666 297,145.5C 303.787,150.451 308.453,148.785 311,140.5C 311.258,136.096 310.758,131.762 309.5,127.5C 308.5,127.5 307.5,127.5 306.5,127.5 Z M 249.5,156.5 C 209.39,161.104 180.89,181.771 164,218.5C 149.282,260.79 157.782,297.624 189.5,329C 223.845,356.743 261.178,361.41 301.5,343C 345.296,315.884 361.462,277.051 350,226.5C 332.6,180.295 299.1,156.962 249.5,156.5 Z M 88.5,180.5 C 83.2947,183.947 82.6281,188.114 86.5,193C 92.7417,196.228 99.075,196.228 105.5,193C 102.728,184.709 97.0615,180.542 88.5,180.5 Z M 416.5,180.5 C 411.325,183.184 407.659,187.351 405.5,193C 412.208,196.44 418.708,196.273 425,192.5C 428.843,184.143 426.01,180.143 416.5,180.5 Z M 135.5,199.5 C 133.039,200.531 130.373,201.198 127.5,201.5C 128.663,205.982 130.996,209.816 134.5,213C 139.494,216.666 143.994,216.166 148,211.5C 148.301,203.184 144.134,199.184 135.5,199.5 Z M 370.5,199.5 C 368.29,200.351 366.29,201.684 364.5,203.5C 360.652,210.012 362.485,214.012 370,215.5C 377.403,213.598 381.903,208.931 383.5,201.5C 379.21,200.575 374.876,199.909 370.5,199.5 Z M 229.5,241.5 C 218.044,248.403 216.711,256.903 225.5,267C 234.783,271.683 241.95,269.516 247,260.5C 248.663,247.328 242.829,240.994 229.5,241.5 Z M 300.5,241.5 C 288.91,248.382 287.577,256.882 296.5,267C 303.942,271.091 310.442,269.924 316,263.5C 320.915,249.231 315.749,241.898 300.5,241.5 Z M 138.5,295.5 C 132.607,298.396 128.94,303.062 127.5,309.5C 130.999,310.1 134.499,310.766 138,311.5C 141.359,311.217 144.193,309.884 146.5,307.5C 150.056,299.685 147.39,295.685 138.5,295.5 Z M 367.5,295.5 C 365.897,296.596 364.397,297.93 363,299.5C 362.221,306.734 365.554,310.734 373,311.5C 376.501,310.766 380.001,310.1 383.5,309.5C 381.58,300.912 376.247,296.246 367.5,295.5 Z M 89.5,315.5 C 86.5608,317.342 84.5608,320.009 83.5,323.5C 85.991,330.436 90.6577,332.27 97.5,329C 109.128,317.804 106.461,313.304 89.5,315.5 Z M 410.5,315.5 C 408.981,316.41 407.315,317.243 405.5,318C 407.188,322.375 409.855,326.042 413.5,329C 420.342,332.27 425.009,330.436 427.5,323.5C 424.318,316.037 418.651,313.371 410.5,315.5 Z M 205.5,362.5 C 202.937,364.612 201.104,367.279 200,370.5C 199.742,374.904 200.242,379.238 201.5,383.5C 205.982,382.337 209.816,380.004 213,376.5C 217.532,367.892 215.032,363.226 205.5,362.5 Z M 299.5,362.5 C 298.164,364.01 296.997,365.677 296,367.5C 296.265,376.275 300.765,381.608 309.5,383.5C 309.954,380.135 310.62,376.802 311.5,373.5C 310.951,365.948 306.951,362.281 299.5,362.5 Z M 252.5,398.5 C 245.987,406.547 246.987,413.88 255.5,420.5C 259.791,417.2 262.458,412.867 263.5,407.5C 262.491,401.151 258.824,398.151 252.5,398.5 Z M 192.5,405.5 C 187.627,407.533 183.794,410.866 181,415.5C 179.686,425.545 183.519,428.711 192.5,425C 196.452,418.422 196.452,411.922 192.5,405.5 Z M 317.5,405.5 C 314.504,412.222 314.838,418.722 318.5,425C 327.481,428.711 331.314,425.545 330,415.5C 327.162,410.494 322.995,407.161 317.5,405.5 Z"/></g>
<g><path style="opacity:0.942" fill="#000000" d="M 185.5,223.5 C 189.845,224.078 192.679,226.412 194,230.5C 194.667,247.167 194.667,263.833 194,280.5C 189.497,288.454 184.164,289.121 178,282.5C 177.333,264.5 177.333,246.5 178,228.5C 179.913,225.72 182.413,224.053 185.5,223.5 Z"/></g>
<g><path style="opacity:0.934" fill="#000000" d="M 233.5,223.5 C 257.255,227.085 267.421,240.752 264,264.5C 256.091,283.538 242.257,290.372 222.5,285C 206.967,277.772 200.467,265.605 203,248.5C 207.538,233.165 217.705,224.831 233.5,223.5 Z M 229.5,241.5 C 218.044,248.403 216.711,256.903 225.5,267C 234.783,271.683 241.95,269.516 247,260.5C 248.663,247.328 242.829,240.994 229.5,241.5 Z"/></g>
<g><path style="opacity:0.932" fill="#000000" d="M 303.5,223.5 C 323.031,225.364 334.031,236.031 336.5,255.5C 334.167,274.5 323.5,285.167 304.5,287.5C 285.5,285.167 274.833,274.5 272.5,255.5C 274.803,236.866 285.136,226.2 303.5,223.5 Z M 300.5,241.5 C 288.91,248.382 287.577,256.882 296.5,267C 303.942,271.091 310.442,269.924 316,263.5C 320.915,249.231 315.749,241.898 300.5,241.5 Z"/></g>
</svg>
