<?xml version="1.0" encoding="UTF-8"?>
<!DOCTYPE svg PUBLIC "-//W3C//DTD SVG 1.1//EN" "http://www.w3.org/Graphics/SVG/1.1/DTD/svg11.dtd">
<svg xmlns="http://www.w3.org/2000/svg" version="1.1" width="48px" height="48px" style="shape-rendering:geometricPrecision; text-rendering:geometricPrecision; image-rendering:optimizeQuality; fill-rule:evenodd; clip-rule:evenodd" xmlns:xlink="http://www.w3.org/1999/xlink">
<g><path style="opacity:0.944" fill="#414141" d="M 41.5,13.5 C 31.1667,13.5 20.8333,13.5 10.5,13.5C 8.97306,13.573 7.97306,12.9063 7.5,11.5C 11.0961,5.70148 16.4294,3.03481 23.5,3.5C 31.5978,3.21238 37.5978,6.54571 41.5,13.5 Z"/></g>
<g><path style="opacity:0.976" fill="#4451b1" d="M 7.5,11.5 C 7.97306,12.9063 8.97306,13.573 10.5,13.5C 11.6594,15.2503 13.326,16.2503 15.5,16.5C 18.25,19.0551 21.25,21.3884 24.5,23.5C 21.25,25.6116 18.25,27.9449 15.5,30.5C 13.326,30.7497 11.6594,31.7497 10.5,33.5C 8.97306,33.427 7.97306,34.0937 7.5,35.5C 4.10313,32.3139 2.76979,28.3139 3.5,23.5C 2.76979,18.6861 4.10313,14.6861 7.5,11.5 Z"/></g>
<g><path style="opacity:0.988" fill="#eaedf0" d="M 10.5,13.5 C 20.8333,13.5 31.1667,13.5 41.5,13.5C 42.1098,14.391 42.4431,15.391 42.5,16.5C 33.5,16.5 24.5,16.5 15.5,16.5C 13.326,16.2503 11.6594,15.2503 10.5,13.5 Z"/></g>
<g><path style="opacity:0.987" fill="#d40001" d="M 15.5,16.5 C 24.5,16.5 33.5,16.5 42.5,16.5C 43.8333,21.1667 43.8333,25.8333 42.5,30.5C 33.5,30.5 24.5,30.5 15.5,30.5C 18.25,27.9449 21.25,25.6116 24.5,23.5C 21.25,21.3884 18.25,19.0551 15.5,16.5 Z"/></g>
<g><path style="opacity:1" fill="#dfd054" d="M 9.5,19.5 C 10.8304,20.8321 12.4971,21.6655 14.5,22C 14.0563,23.5333 13.723,25.0333 13.5,26.5C 12.0944,25.3318 10.9277,25.6652 10,27.5C 9.51722,26.552 9.35055,25.552 9.5,24.5C 8.44802,24.6495 7.44802,24.4828 6.5,24C 8.43862,23.0922 9.43862,21.5922 9.5,19.5 Z"/></g>
<g><path style="opacity:0.988" fill="#eaedf0" d="M 15.5,30.5 C 24.5,30.5 33.5,30.5 42.5,30.5C 42.4431,31.609 42.1098,32.609 41.5,33.5C 31.1667,33.5 20.8333,33.5 10.5,33.5C 11.6594,31.7497 13.326,30.7497 15.5,30.5 Z"/></g>
<g><path style="opacity:0.963" fill="#378d3b" d="M 10.5,33.5 C 20.8333,33.5 31.1667,33.5 41.5,33.5C 34.8737,43.2066 25.8737,46.0399 14.5,42C 11.2136,40.7183 8.88031,38.5517 7.5,35.5C 7.97306,34.0937 8.97306,33.427 10.5,33.5 Z"/></g>
</svg>
