<?xml version="1.0" encoding="UTF-8"?>
<!DOCTYPE svg PUBLIC "-//W3C//DTD SVG 1.1//EN" "http://www.w3.org/Graphics/SVG/1.1/DTD/svg11.dtd">
<svg xmlns="http://www.w3.org/2000/svg" version="1.1" width="48px" height="48px" style="shape-rendering:geometricPrecision; text-rendering:geometricPrecision; image-rendering:optimizeQuality; fill-rule:evenodd; clip-rule:evenodd" xmlns:xlink="http://www.w3.org/1999/xlink">
<g><path style="opacity:0.968" fill="#459f47" d="M 42.5,16.5 C 33.5,16.5 24.5,16.5 15.5,16.5C 13.1468,14.1401 11.1468,11.4735 9.5,8.5C 11.428,6.52594 13.7613,5.02594 16.5,4C 28.8591,1.01514 37.5258,5.18181 42.5,16.5 Z"/></g>
<g><path style="opacity:1" fill="#e13f35" d="M 9.5,8.5 C 11.1468,11.4735 13.1468,14.1401 15.5,16.5C 17.4025,18.6279 19.0692,20.9613 20.5,23.5C 19.0692,26.0387 17.4025,28.3721 15.5,30.5C 13.1468,32.8599 11.1468,35.5265 9.5,38.5C 5.0406,34.5685 3.0406,29.5685 3.5,23.5C 3.0406,17.4315 5.0406,12.4315 9.5,8.5 Z"/></g>
<g><path style="opacity:0.979" fill="#f0c32a" d="M 15.5,16.5 C 24.5,16.5 33.5,16.5 42.5,16.5C 43.8333,21.1667 43.8333,25.8333 42.5,30.5C 33.5,30.5 24.5,30.5 15.5,30.5C 17.4025,28.3721 19.0692,26.0387 20.5,23.5C 19.0692,20.9613 17.4025,18.6279 15.5,16.5 Z"/></g>
<g><path style="opacity:1" fill="#3f4237" d="M 25.5,19.5 C 26.3164,21.1436 27.6498,22.3103 29.5,23C 28.9288,24.2051 28.2621,25.3717 27.5,26.5C 26.0944,25.3318 24.9277,25.6652 24,27.5C 23.7266,25.8988 23.2266,24.3988 22.5,23C 23.448,22.5172 24.448,22.3505 25.5,22.5C 25.5,21.5 25.5,20.5 25.5,19.5 Z"/></g>
<g><path style="opacity:1" fill="#404237" d="M 36.5,19.5 C 37.404,20.209 37.7373,21.209 37.5,22.5C 38.552,22.3505 39.552,22.5172 40.5,23C 39.7734,24.3988 39.2734,25.8988 39,27.5C 37.6667,24.8333 36.3333,24.8333 35,27.5C 34.7266,25.8988 34.2266,24.3988 33.5,23C 34.448,22.5172 35.448,22.3505 36.5,22.5C 36.5,21.5 36.5,20.5 36.5,19.5 Z"/></g>
<g><path style="opacity:0.962" fill="#449f47" d="M 15.5,30.5 C 24.5,30.5 33.5,30.5 42.5,30.5C 37.5258,41.8182 28.8591,45.9849 16.5,43C 13.7613,41.9741 11.428,40.4741 9.5,38.5C 11.1468,35.5265 13.1468,32.8599 15.5,30.5 Z"/></g>
</svg>
