<?xml version="1.0" encoding="UTF-8"?>
<!DOCTYPE svg PUBLIC "-//W3C//DTD SVG 1.1//EN" "http://www.w3.org/Graphics/SVG/1.1/DTD/svg11.dtd">
<svg xmlns="http://www.w3.org/2000/svg" version="1.1" width="32px" height="32px" style="shape-rendering:geometricPrecision; text-rendering:geometricPrecision; image-rendering:optimizeQuality; fill-rule:evenodd; clip-rule:evenodd" xmlns:xlink="http://www.w3.org/1999/xlink">
<g><path style="opacity:0.263" fill="#f4faf5" d="M 11.5,0.5 C 11.5,0.166667 11.5,-0.166667 11.5,-0.5C 14.1667,-0.5 16.8333,-0.5 19.5,-0.5C 25.1667,1.83333 29.1667,5.83333 31.5,11.5C 31.5,13.8333 31.5,16.1667 31.5,18.5C 31.1667,18.5 30.8333,18.5 30.5,18.5C 30.7947,16.2646 30.4614,14.2646 29.5,12.5C 26.9658,3.55164 20.9658,-0.448361 11.5,0.5 Z"/></g>
<g><path style="opacity:1" fill="#48bc52" d="M 11.5,0.5 C 20.9658,-0.448361 26.9658,3.55164 29.5,12.5C 21.5,12.5 13.5,12.5 5.5,12.5C 4.16667,11.8333 3.16667,10.8333 2.5,9.5C 4.50621,5.49378 7.50621,2.49378 11.5,0.5 Z"/></g>
<g><path style="opacity:0.203" fill="#f6f8f5" d="M 11.5,0.5 C 7.50621,2.49378 4.50621,5.49378 2.5,9.5C 1.59603,10.209 1.26269,11.209 1.5,12.5C 0.833333,14.5 0.166667,16.5 -0.5,18.5C -0.5,16.1667 -0.5,13.8333 -0.5,11.5C 1.57282,5.76162 5.57282,2.09495 11.5,0.5 Z"/></g>
<g><path style="opacity:1" fill="#d83a53" d="M 2.5,9.5 C 3.16667,10.8333 4.16667,11.8333 5.5,12.5C 6.14083,13.4822 6.80749,14.4822 7.5,15.5C 6.80749,16.5178 6.14083,17.5178 5.5,18.5C 4.5,19.1667 3.5,19.8333 2.5,20.5C 1.52693,18.0521 1.1936,15.3854 1.5,12.5C 1.26269,11.209 1.59603,10.209 2.5,9.5 Z"/></g>
<g><path style="opacity:1" fill="#f9d234" d="M 5.5,12.5 C 13.5,12.5 21.5,12.5 29.5,12.5C 30.4614,14.2646 30.7947,16.2646 30.5,18.5C 30.1667,18.5 29.8333,18.5 29.5,18.5C 21.5,18.5 13.5,18.5 5.5,18.5C 6.14083,17.5178 6.80749,16.5178 7.5,15.5C 6.80749,14.4822 6.14083,13.4822 5.5,12.5 Z"/></g>
<g><path style="opacity:1" fill="#534c33" d="M 14.5,14.5 C 16.337,14.6395 16.6704,15.3061 15.5,16.5C 14.7025,16.0431 14.3691,15.3764 14.5,14.5 Z"/></g>
<g><path style="opacity:1" fill="#585033" d="M 21.5,14.5 C 23.337,14.6395 23.6704,15.3061 22.5,16.5C 21.7025,16.0431 21.3691,15.3764 21.5,14.5 Z"/></g>
<g><path style="opacity:0.239" fill="#a7afa5" d="M 1.5,12.5 C 1.1936,15.3854 1.52693,18.0521 2.5,20.5C 4.51679,26.6865 8.85012,29.6865 15.5,29.5C 23.1156,29.5481 27.7822,25.8814 29.5,18.5C 29.8333,18.5 30.1667,18.5 30.5,18.5C 30.8333,18.5 31.1667,18.5 31.5,18.5C 31.5,18.8333 31.5,19.1667 31.5,19.5C 29.249,24.753 25.5823,28.753 20.5,31.5C 17.1667,31.5 13.8333,31.5 10.5,31.5C 5.4177,28.753 1.75103,24.753 -0.5,19.5C -0.5,19.1667 -0.5,18.8333 -0.5,18.5C 0.166667,16.5 0.833333,14.5 1.5,12.5 Z"/></g>
<g><path style="opacity:1" fill="#22b036" d="M 5.5,18.5 C 13.5,18.5 21.5,18.5 29.5,18.5C 27.7822,25.8814 23.1156,29.5481 15.5,29.5C 8.85012,29.6865 4.51679,26.6865 2.5,20.5C 3.5,19.8333 4.5,19.1667 5.5,18.5 Z"/></g>
</svg>
