<?xml version="1.0" encoding="UTF-8"?>
<!DOCTYPE svg PUBLIC "-//W3C//DTD SVG 1.1//EN" "http://www.w3.org/Graphics/SVG/1.1/DTD/svg11.dtd">
<svg xmlns="http://www.w3.org/2000/svg" version="1.1" width="512px" height="512px" style="shape-rendering:geometricPrecision; text-rendering:geometricPrecision; image-rendering:optimizeQuality; fill-rule:evenodd; clip-rule:evenodd" xmlns:xlink="http://www.w3.org/1999/xlink">
<g><path style="opacity:0.936" fill="#000000" d="M 233.5,-0.5 C 248.167,-0.5 262.833,-0.5 277.5,-0.5C 367.555,10.0943 435.388,54.4276 481,132.5C 497.855,164.278 508.022,197.945 511.5,233.5C 511.5,248.167 511.5,262.833 511.5,277.5C 500.906,367.555 456.572,435.388 378.5,481C 346.722,497.855 313.055,508.022 277.5,511.5C 262.833,511.5 248.167,511.5 233.5,511.5C 143.445,500.906 75.612,456.572 30,378.5C 13.1449,346.722 2.97822,313.055 -0.5,277.5C -0.5,262.833 -0.5,248.167 -0.5,233.5C 10.0943,143.445 54.4276,75.612 132.5,30C 164.278,13.1449 197.945,2.97822 233.5,-0.5 Z M 78.5,95.5 C 121.926,47.9566 175.926,22.1233 240.5,18C 226.289,25.2721 211.956,32.2721 197.5,39C 193.5,43.6667 193.5,48.3333 197.5,53C 200.702,54.4833 204.036,54.8166 207.5,54C 223.377,45.8946 239.377,38.0613 255.5,30.5C 314.077,58.7051 372.577,87.0385 431,115.5C 445,176.833 459,238.167 473,299.5C 473.667,301.5 473.667,303.5 473,305.5C 433.287,355.758 393.454,405.924 353.5,456C 288.167,456.667 222.833,456.667 157.5,456C 118,406.5 78.5,357 39,307.5C 37.5783,304.97 37.245,302.303 38,299.5C 52,238.167 66,176.833 80,115.5C 113.212,99.4773 146.379,83.3107 179.5,67C 181.942,62.9476 182.109,58.7809 180,54.5C 177.507,52.3278 174.674,51.4944 171.5,52C 140.467,66.5174 109.467,81.0174 78.5,95.5 Z M 432.5,95.5 C 378.411,69.9564 324.411,44.1231 270.5,18C 335.074,22.1233 389.074,47.9566 432.5,95.5 Z M 60.5,117.5 C 48.1897,176.769 34.8564,236.103 20.5,295.5C 9.99182,230.695 23.3252,171.362 60.5,117.5 Z M 449.5,117.5 C 479.412,158.75 494.412,205.083 494.5,256.5C 494.432,269.649 493.099,282.649 490.5,295.5C 476.516,236.231 462.849,176.898 449.5,117.5 Z M 232.5,146.5 C 263.942,145.466 289.775,157.133 310,181.5C 314.696,187.556 318.363,194.223 321,201.5C 321.667,202.833 321.667,204.167 321,205.5C 318.079,210.341 315.412,215.341 313,220.5C 312.586,220.957 312.086,221.291 311.5,221.5C 276.517,203.676 241.85,185.343 207.5,166.5C 209.412,162.34 211.579,158.34 214,154.5C 237.921,171.21 261.754,188.044 285.5,205C 296.152,208.347 300.652,204.514 299,193.5C 297.833,192.333 296.667,191.167 295.5,190C 274.79,174.987 253.79,160.487 232.5,146.5 Z M 191.5,179.5 C 230.76,199.13 269.76,219.297 308.5,240C 311.858,248.406 315.025,256.906 318,265.5C 319.743,281.598 312.576,290.932 296.5,293.5C 281.883,291.046 274.05,282.38 273,267.5C 259.891,260.067 248.224,250.733 238,239.5C 229.926,228.021 223.426,215.687 218.5,202.5C 215.711,200.702 212.711,200.202 209.5,201C 205.512,204.827 200.845,207.327 195.5,208.5C 181.7,205.235 177.867,197.235 184,184.5C 186.426,182.548 188.926,180.881 191.5,179.5 Z M 183.5,223.5 C 191.29,226.15 199.123,226.15 207,223.5C 218.133,246.465 234.633,264.465 256.5,277.5C 260.684,293.682 270.684,304.349 286.5,309.5C 287.777,312.034 287.777,314.534 286.5,317C 272.07,321.199 257.736,325.699 243.5,330.5C 240.33,323.322 236.996,316.156 233.5,309C 219.927,307.702 206.261,307.035 192.5,307C 185.611,304.606 182.611,299.773 183.5,292.5C 193.157,293.342 196.99,289.009 195,279.5C 192.056,275.886 188.223,274.553 183.5,275.5C 183.5,258.167 183.5,240.833 183.5,223.5 Z M 141.5,464.5 C 89.2473,435.737 52.4139,393.403 31,337.5C 28.6862,331.575 27.0196,325.575 26,319.5C 64.5085,367.864 103.008,416.197 141.5,464.5 Z M 369.5,464.5 C 407.992,416.197 446.492,367.864 485,319.5C 468.45,377.059 435.283,422.559 385.5,456C 380.509,459.495 375.175,462.328 369.5,464.5 Z M 161.5,475.5 C 223.999,474.335 286.665,474.168 349.5,475C 286.907,500.831 224.24,500.997 161.5,475.5 Z"/></g>
<g><path style="opacity:0.932" fill="#000000" d="M 246.5,70.5 C 320.628,70.1337 377.128,101.134 416,163.5C 447.409,222.677 448.409,282.344 419,342.5C 414.283,351.213 408.783,359.379 402.5,367C 395.166,370 390.499,367.666 388.5,360C 395.687,347.801 402.52,335.301 409,322.5C 433.199,260.229 425.199,202.563 385,149.5C 337.255,96.1448 278.422,77.9781 208.5,95C 139.629,118.547 99.7956,166.38 89,238.5C 86.226,267.625 90.5593,295.625 102,322.5C 108.48,335.301 115.313,347.801 122.5,360C 120.501,367.666 115.834,370 108.5,367C 83.5522,334.56 70.8856,297.726 70.5,256.5C 73.6234,176.271 111.29,119.104 183.5,85C 203.875,76.8203 224.875,71.987 246.5,70.5 Z M 232.5,146.5 C 253.79,160.487 274.79,174.987 295.5,190C 296.667,191.167 297.833,192.333 299,193.5C 300.652,204.514 296.152,208.347 285.5,205C 261.754,188.044 237.921,171.21 214,154.5C 211.579,158.34 209.412,162.34 207.5,166.5C 241.85,185.343 276.517,203.676 311.5,221.5C 312.086,221.291 312.586,220.957 313,220.5C 315.412,215.341 318.079,210.341 321,205.5C 321.667,204.167 321.667,202.833 321,201.5C 318.363,194.223 314.696,187.556 310,181.5C 289.775,157.133 263.942,145.466 232.5,146.5 Z M 191.5,179.5 C 188.926,180.881 186.426,182.548 184,184.5C 177.867,197.235 181.7,205.235 195.5,208.5C 200.845,207.327 205.512,204.827 209.5,201C 212.711,200.202 215.711,200.702 218.5,202.5C 223.426,215.687 229.926,228.021 238,239.5C 248.224,250.733 259.891,260.067 273,267.5C 274.05,282.38 281.883,291.046 296.5,293.5C 312.576,290.932 319.743,281.598 318,265.5C 315.025,256.906 311.858,248.406 308.5,240C 269.76,219.297 230.76,199.13 191.5,179.5 Z M 183.5,223.5 C 183.5,240.833 183.5,258.167 183.5,275.5C 188.223,274.553 192.056,275.886 195,279.5C 196.99,289.009 193.157,293.342 183.5,292.5C 182.611,299.773 185.611,304.606 192.5,307C 206.261,307.035 219.927,307.702 233.5,309C 236.996,316.156 240.33,323.322 243.5,330.5C 257.736,325.699 272.07,321.199 286.5,317C 287.777,314.534 287.777,312.034 286.5,309.5C 270.684,304.349 260.684,293.682 256.5,277.5C 234.633,264.465 218.133,246.465 207,223.5C 199.123,226.15 191.29,226.15 183.5,223.5 Z"/></g>
<g><path style="opacity:0.935" fill="#000000" d="M 189.5,120.5 C 191.857,120.337 194.19,120.503 196.5,121C 202.01,124.515 207.51,128.015 213,131.5C 254.898,123.356 290.565,134.689 320,165.5C 329.971,176.772 336.804,189.772 340.5,204.5C 336.027,214.779 331.027,224.779 325.5,234.5C 330.888,246.162 334.554,258.329 336.5,271C 335.177,291.151 324.844,303.984 305.5,309.5C 305.042,312.394 305.709,314.894 307.5,317C 328.833,323.667 350.167,330.333 371.5,337C 376.833,342 376.833,347 371.5,352C 323.653,386.705 270.653,398.038 212.5,386C 184.443,379.553 159.277,367.387 137,349.5C 134.504,344.644 135.338,340.478 139.5,337C 147.786,334.179 156.119,331.512 164.5,329C 175.572,327.403 179.405,331.903 176,342.5C 172.696,344.712 169.196,346.545 165.5,348C 225.5,382 285.5,382 345.5,348C 329.509,342.448 313.342,337.281 297,332.5C 279.776,337.464 262.609,342.63 245.5,348C 243.809,351.401 242.309,354.901 241,358.5C 235.643,363.996 230.643,363.663 226,357.5C 225.291,352.384 225.791,347.384 227.5,342.5C 225.798,336.561 223.798,330.727 221.5,325C 213.984,324.334 206.484,324.501 199,325.5C 183.394,325.715 172.727,318.715 167,304.5C 165.661,295.893 165.161,287.226 165.5,278.5C 154.972,279.112 151.472,274.445 155,264.5C 158.081,258.669 161.415,253.002 165,247.5C 165.05,235.872 166.217,224.372 168.5,213C 157.399,188.049 164.566,170.882 190,161.5C 192.833,155.833 195.667,150.167 198.5,144.5C 194.791,140.627 190.624,137.294 186,134.5C 183.443,128.759 184.609,124.093 189.5,120.5 Z M 232.5,146.5 C 253.79,160.487 274.79,174.987 295.5,190C 296.667,191.167 297.833,192.333 299,193.5C 300.652,204.514 296.152,208.347 285.5,205C 261.754,188.044 237.921,171.21 214,154.5C 211.579,158.34 209.412,162.34 207.5,166.5C 241.85,185.343 276.517,203.676 311.5,221.5C 312.086,221.291 312.586,220.957 313,220.5C 315.412,215.341 318.079,210.341 321,205.5C 321.667,204.167 321.667,202.833 321,201.5C 318.363,194.223 314.696,187.556 310,181.5C 289.775,157.133 263.942,145.466 232.5,146.5 Z M 191.5,179.5 C 188.926,180.881 186.426,182.548 184,184.5C 177.867,197.235 181.7,205.235 195.5,208.5C 200.845,207.327 205.512,204.827 209.5,201C 212.711,200.202 215.711,200.702 218.5,202.5C 223.426,215.687 229.926,228.021 238,239.5C 248.224,250.733 259.891,260.067 273,267.5C 274.05,282.38 281.883,291.046 296.5,293.5C 312.576,290.932 319.743,281.598 318,265.5C 315.025,256.906 311.858,248.406 308.5,240C 269.76,219.297 230.76,199.13 191.5,179.5 Z M 183.5,223.5 C 183.5,240.833 183.5,258.167 183.5,275.5C 188.223,274.553 192.056,275.886 195,279.5C 196.99,289.009 193.157,293.342 183.5,292.5C 182.611,299.773 185.611,304.606 192.5,307C 206.261,307.035 219.927,307.702 233.5,309C 236.996,316.156 240.33,323.322 243.5,330.5C 257.736,325.699 272.07,321.199 286.5,317C 287.777,314.534 287.777,312.034 286.5,309.5C 270.684,304.349 260.684,293.682 256.5,277.5C 234.633,264.465 218.133,246.465 207,223.5C 199.123,226.15 191.29,226.15 183.5,223.5 Z"/></g>
<g><path style="opacity:0.931" fill="#000000" d="M 178.5,405.5 C 189.363,409.622 200.363,413.455 211.5,417C 252.726,427.509 292.56,423.676 331,405.5C 339.503,407.688 341.836,412.688 338,420.5C 308.411,435.818 276.911,442.318 243.5,440C 218.48,438.705 194.98,432.205 173,420.5C 169.407,413.441 171.24,408.441 178.5,405.5 Z"/></g>
</svg>
