<?xml version="1.0" encoding="UTF-8"?>
<!DOCTYPE svg PUBLIC "-//W3C//DTD SVG 1.1//EN" "http://www.w3.org/Graphics/SVG/1.1/DTD/svg11.dtd">
<svg xmlns="http://www.w3.org/2000/svg" version="1.1" width="48px" height="48px" style="shape-rendering:geometricPrecision; text-rendering:geometricPrecision; image-rendering:optimizeQuality; fill-rule:evenodd; clip-rule:evenodd" xmlns:xlink="http://www.w3.org/1999/xlink">
<g><path style="opacity:0.953" fill="#3949aa" d="M 38.5,9.5 C 28.5,9.5 18.5,9.5 8.5,9.5C 12.4315,5.0406 17.4315,3.0406 23.5,3.5C 29.5685,3.0406 34.5685,5.0406 38.5,9.5 Z"/></g>
<g><path style="opacity:0.975" fill="#ffd700" d="M 8.5,9.5 C 18.5,9.5 28.5,9.5 38.5,9.5C 39.3382,9.84171 39.6716,10.5084 39.5,11.5C 28.8333,11.5 18.1667,11.5 7.5,11.5C 7.32842,10.5084 7.66175,9.84171 8.5,9.5 Z"/></g>
<g><path style="opacity:0.972" fill="#c83029" d="M 7.5,11.5 C 18.1667,11.5 28.8333,11.5 39.5,11.5C 42.8969,14.6861 44.2302,18.6861 43.5,23.5C 44.2302,28.3139 42.8969,32.3139 39.5,35.5C 28.8333,35.5 18.1667,35.5 7.5,35.5C 4.10313,32.3139 2.76979,28.3139 3.5,23.5C 2.76979,18.6861 4.10313,14.6861 7.5,11.5 Z"/></g>
<g><path style="opacity:1" fill="#dcdad9" d="M 22.5,16.5 C 25.3274,16.5838 27.994,17.2504 30.5,18.5C 32.8504,20.2133 33.8504,22.5466 33.5,25.5C 31.1698,27.6672 28.5032,29.3338 25.5,30.5C 24.5285,29.6009 23.8618,28.4343 23.5,27C 24.2521,24.8463 24.4188,22.6797 24,20.5C 23.6174,19.944 23.1174,19.6107 22.5,19.5C 22.5,18.5 22.5,17.5 22.5,16.5 Z"/></g>
<g><path style="opacity:1" fill="#474e96" d="M 22.5,16.5 C 22.5,17.5 22.5,18.5 22.5,19.5C 20.9117,21.7458 19.5783,21.4124 18.5,18.5C 19.287,16.8958 20.6203,16.2291 22.5,16.5 Z"/></g>
<g><path style="opacity:1" fill="#4b5156" d="M 18.5,18.5 C 19.5783,21.4124 20.9117,21.7458 22.5,19.5C 23.1174,19.6107 23.6174,19.944 24,20.5C 24.4188,22.6797 24.2521,24.8463 23.5,27C 23.8618,28.4343 24.5285,29.6009 25.5,30.5C 20.4037,30.6 16.2371,28.6 13,24.5C 13.4947,21.4953 15.3281,19.4953 18.5,18.5 Z"/></g>
<g><path style="opacity:1" fill="#eea069" d="M 30.5,18.5 C 33.5184,18.3354 36.5184,18.502 39.5,19C 37.6061,20.1011 36.9394,21.4345 37.5,23C 36.2624,22.9227 35.2624,23.0894 34.5,23.5C 35.6888,24.4287 37.0222,24.762 38.5,24.5C 38.5,25.1667 38.1667,25.5 37.5,25.5C 36.1667,25.5 34.8333,25.5 33.5,25.5C 33.8504,22.5466 32.8504,20.2133 30.5,18.5 Z"/></g>
<g><path style="opacity:1" fill="#5b4991" d="M 6.5,24.5 C 7.5,24.5 8.5,24.5 9.5,24.5C 9.42613,28.5412 8.0928,29.2079 5.5,26.5C 5.86273,25.8165 6.19607,25.1499 6.5,24.5 Z"/></g>
<g><path style="opacity:1" fill="#5c4a91" d="M 38.5,24.5 C 41.5688,24.963 42.0688,26.2963 40,28.5C 38.583,27.9221 37.7496,26.9221 37.5,25.5C 38.1667,25.5 38.5,25.1667 38.5,24.5 Z"/></g>
<g><path style="opacity:0.976" fill="#ffd700" d="M 7.5,35.5 C 18.1667,35.5 28.8333,35.5 39.5,35.5C 39.6716,36.4916 39.3382,37.1583 38.5,37.5C 28.5,37.5 18.5,37.5 8.5,37.5C 7.66175,37.1583 7.32842,36.4916 7.5,35.5 Z"/></g>
<g><path style="opacity:0.927" fill="#3949aa" d="M 8.5,37.5 C 18.5,37.5 28.5,37.5 38.5,37.5C 34.5685,41.9594 29.5685,43.9594 23.5,43.5C 17.4315,43.9594 12.4315,41.9594 8.5,37.5 Z"/></g>
</svg>
