<?xml version="1.0" encoding="UTF-8"?>
<!DOCTYPE svg PUBLIC "-//W3C//DTD SVG 1.1//EN" "http://www.w3.org/Graphics/SVG/1.1/DTD/svg11.dtd">
<svg xmlns="http://www.w3.org/2000/svg" version="1.1" width="512px" height="512px" style="shape-rendering:geometricPrecision; text-rendering:geometricPrecision; image-rendering:optimizeQuality; fill-rule:evenodd; clip-rule:evenodd" xmlns:xlink="http://www.w3.org/1999/xlink">
<g><path style="opacity:0.998" fill="#ffc107" d="M 232.5,-0.5 C 247.833,-0.5 263.167,-0.5 278.5,-0.5C 368.144,10.3879 435.644,54.7213 481,132.5C 497.695,163.971 507.861,197.304 511.5,232.5C 511.5,247.833 511.5,263.167 511.5,278.5C 500.612,368.144 456.279,435.644 378.5,481C 347.029,497.695 313.696,507.861 278.5,511.5C 263.167,511.5 247.833,511.5 232.5,511.5C 142.856,500.612 75.3562,456.279 30,378.5C 13.3053,347.029 3.1386,313.696 -0.5,278.5C -0.5,263.167 -0.5,247.833 -0.5,232.5C 10.3875,142.857 54.7208,75.3573 132.5,30C 163.971,13.3053 197.304,3.1386 232.5,-0.5 Z"/></g>
<g><path style="opacity:1" fill="#faf9f8" d="M 244.5,139.5 C 260.936,138.938 268.603,146.938 267.5,163.5C 298.851,171.192 314.017,191.192 313,223.5C 312.004,232.824 308.837,241.324 303.5,249C 328.135,271.372 331.968,296.872 315,325.5C 302.938,340.78 287.105,348.447 267.5,348.5C 267.631,366.547 258.965,373.714 241.5,370C 234.141,364.779 231.141,357.613 232.5,348.5C 221.162,348.667 209.828,348.5 198.5,348C 191.483,345.648 187.316,340.815 186,333.5C 185.333,280.833 185.333,228.167 186,175.5C 188.193,169.307 192.359,165.141 198.5,163C 209.828,162.5 221.162,162.333 232.5,162.5C 231.038,151.75 235.038,144.083 244.5,139.5 Z"/></g>
<g><path style="opacity:1" fill="#ffc109" d="M 220.5,197.5 C 235.905,197.048 251.238,197.548 266.5,199C 277.649,205.147 281.149,214.314 277,226.5C 274.5,230.333 271.333,233.5 267.5,236C 251.904,237.453 236.238,237.953 220.5,237.5C 220.5,224.167 220.5,210.833 220.5,197.5 Z"/></g>
<g><path style="opacity:1" fill="#ffc109" d="M 220.5,273.5 C 239.17,273.333 257.836,273.5 276.5,274C 290.167,280.668 293.667,290.835 287,304.5C 285.093,308.039 282.26,310.539 278.5,312C 259.221,313.45 239.888,313.95 220.5,313.5C 220.5,300.167 220.5,286.833 220.5,273.5 Z"/></g>
</svg>
