<?xml version="1.0" encoding="UTF-8"?>
<!DOCTYPE svg PUBLIC "-//W3C//DTD SVG 1.1//EN" "http://www.w3.org/Graphics/SVG/1.1/DTD/svg11.dtd">
<svg xmlns="http://www.w3.org/2000/svg" version="1.1" width="48px" height="48px" style="shape-rendering:geometricPrecision; text-rendering:geometricPrecision; image-rendering:optimizeQuality; fill-rule:evenodd; clip-rule:evenodd" xmlns:xlink="http://www.w3.org/1999/xlink">
<g><path style="opacity:0.982" fill="#398e3d" d="M 18.5,3.5 C 37.6372,2.4726 45.8039,11.4726 43,30.5C 38.2123,40.9795 30.0457,45.3128 18.5,43.5C 18.5,32.5 18.5,21.5 18.5,10.5C 18.5,9.83333 18.5,9.16667 18.5,8.5C 18.5,6.83333 18.5,5.16667 18.5,3.5 Z"/></g>
<g><path style="opacity:0.965" fill="#e14e31" d="M 18.5,3.5 C 18.5,5.16667 18.5,6.83333 18.5,8.5C 16.7028,7.27024 14.7028,6.60357 12.5,6.5C 14.2504,5.13022 16.2504,4.13022 18.5,3.5 Z"/></g>
<g><path style="opacity:1" fill="#d5ab6e" d="M 12.5,6.5 C 14.7028,6.60357 16.7028,7.27024 18.5,8.5C 18.5,9.16667 18.5,9.83333 18.5,10.5C 15.1667,13.1667 11.8333,13.1667 8.5,10.5C 8.5,10.1667 8.5,9.83333 8.5,9.5C 9.43634,8.02561 10.7697,7.02561 12.5,6.5 Z"/></g>
<g><path style="opacity:0.943" fill="#388f3b" d="M 8.5,9.5 C 8.5,9.83333 8.5,10.1667 8.5,10.5C 8.5,19.5 8.5,28.5 8.5,37.5C 4.61868,33.7167 2.95202,29.05 3.5,23.5C 2.95202,17.95 4.61868,13.2833 8.5,9.5 Z"/></g>
<g><path style="opacity:1" fill="#accdb0" d="M 30.5,10.5 C 33.6613,14.62 32.6613,17.62 27.5,19.5C 26.6919,19.1924 26.0253,18.6924 25.5,18C 30.0246,17.6177 31.6913,15.1177 30.5,10.5 Z"/></g>
<g><path style="opacity:0.918" fill="#de592f" d="M 8.5,10.5 C 11.8333,13.1667 15.1667,13.1667 18.5,10.5C 18.5,21.5 18.5,32.5 18.5,43.5C 15.6829,42.9049 13.3495,41.5716 11.5,39.5C 14.0558,39.8678 16.0558,39.0345 17.5,37C 15.696,34.7017 13.3627,34.035 10.5,35C 9.66337,36.0113 9.33003,37.1779 9.5,38.5C 8.83333,38.5 8.5,38.1667 8.5,37.5C 8.5,28.5 8.5,19.5 8.5,10.5 Z"/></g>
<g><path style="opacity:1" fill="#a69831" d="M 12.5,13.5 C 15.7967,13.6317 17.4633,15.2984 17.5,18.5C 16.5,18.5 15.5,18.5 14.5,18.5C 13.9965,14.6646 12.9965,14.6646 11.5,18.5C 10.5,18.1667 9.83333,17.5 9.5,16.5C 10.3398,15.265 11.3398,14.265 12.5,13.5 Z"/></g>
<g><path style="opacity:1" fill="#73a639" d="M 14.5,28.5 C 18.5,29.8333 18.5,31.1667 14.5,32.5C 14.5,31.1667 14.5,29.8333 14.5,28.5 Z"/></g>
<g><path style="opacity:1" fill="#8f723d" d="M 12.5,28.5 C 13.1667,28.5 13.8333,28.5 14.5,28.5C 14.5,29.8333 14.5,31.1667 14.5,32.5C 13.8333,32.5 13.1667,32.5 12.5,32.5C 12.5,31.1667 12.5,29.8333 12.5,28.5 Z"/></g>
<g><path style="opacity:1" fill="#74a43a" d="M 12.5,28.5 C 12.5,29.8333 12.5,31.1667 12.5,32.5C 8.5,31.1667 8.5,29.8333 12.5,28.5 Z"/></g>
<g><path style="opacity:1" fill="#dfa16d" d="M 11.5,39.5 C 10.5084,39.6716 9.84171,39.3382 9.5,38.5C 9.33003,37.1779 9.66337,36.0113 10.5,35C 13.3627,34.035 15.696,34.7017 17.5,37C 16.0558,39.0345 14.0558,39.8678 11.5,39.5 Z"/></g>
</svg>
