<?xml version="1.0" encoding="UTF-8"?>
<!DOCTYPE svg PUBLIC "-//W3C//DTD SVG 1.1//EN" "http://www.w3.org/Graphics/SVG/1.1/DTD/svg11.dtd">
<svg xmlns="http://www.w3.org/2000/svg" version="1.1" width="512px" height="512px" style="shape-rendering:geometricPrecision; text-rendering:geometricPrecision; image-rendering:optimizeQuality; fill-rule:evenodd; clip-rule:evenodd" xmlns:xlink="http://www.w3.org/1999/xlink">
<g><path style="opacity:0.934" fill="#000000" d="M 233.5,-0.5 C 248.167,-0.5 262.833,-0.5 277.5,-0.5C 367.555,10.0943 435.388,54.4276 481,132.5C 497.855,164.278 508.022,197.945 511.5,233.5C 511.5,248.167 511.5,262.833 511.5,277.5C 500.906,367.555 456.572,435.388 378.5,481C 346.722,497.855 313.055,508.022 277.5,511.5C 262.833,511.5 248.167,511.5 233.5,511.5C 143.445,500.906 75.612,456.572 30,378.5C 13.1449,346.722 2.97822,313.055 -0.5,277.5C -0.5,262.833 -0.5,248.167 -0.5,233.5C 10.0943,143.445 54.4276,75.612 132.5,30C 164.278,13.1449 197.945,2.97822 233.5,-0.5 Z M 238.5,16.5 C 333.927,14.1239 407.76,52.4573 460,131.5C 498.372,198.224 504.706,267.891 479,340.5C 447.513,417.32 391.68,466.487 311.5,488C 210.277,507.488 127.443,477.322 63,397.5C 14.2533,327.203 3.91994,251.536 32,170.5C 71.0476,79.2927 139.881,27.9593 238.5,16.5 Z M 238.5,87.5 C 310.865,84.0913 365.698,113.091 403,174.5C 435.104,239.851 429.77,301.851 387,360.5C 339.066,415.253 279.566,434.087 208.5,417C 151,398.167 112.833,360 94,302.5C 77.2603,234.735 94.0937,176.901 144.5,129C 171.75,105.97 203.084,92.1368 238.5,87.5 Z M 254.5,116.5 C 275.701,118.7 287.701,130.367 290.5,151.5C 288.137,172.53 276.47,184.196 255.5,186.5C 234.53,184.196 222.863,172.53 220.5,151.5C 223.134,131.201 234.467,119.535 254.5,116.5 Z M 209.5,222.5 C 240.001,233.125 270.501,233.125 301,222.5C 311.137,231.636 320.97,241.136 330.5,251C 327.167,257.333 323.833,263.667 320.5,270C 277.167,270.667 233.833,270.667 190.5,270C 187.167,263.667 183.833,257.333 180.5,251C 190.062,241.271 199.728,231.771 209.5,222.5 Z M 194.5,288.5 C 211.833,288.5 229.167,288.5 246.5,288.5C 246.667,321.835 246.5,355.168 246,388.5C 226.765,377.932 211.432,363.266 200,344.5C 197.73,339.356 196.063,334.022 195,328.5C 194.5,315.171 194.333,301.837 194.5,288.5 Z M 264.5,288.5 C 281.833,288.5 299.167,288.5 316.5,288.5C 323.383,322.02 314.049,349.854 288.5,372C 280.943,377.889 273.11,383.389 265,388.5C 264.5,355.168 264.333,321.835 264.5,288.5 Z"/></g>
<g><path style="opacity:0.93" fill="#000000" d="M 227.5,30.5 C 229.527,30.3379 231.527,30.5045 233.5,31C 240.744,33.8035 248.077,36.3035 255.5,38.5C 263.833,35.8333 272.167,33.1667 280.5,30.5C 282.577,30.6922 284.577,31.1922 286.5,32C 293.03,36.6958 299.697,41.1958 306.5,45.5C 315.748,43.6772 325.082,42.8438 334.5,43C 340.779,49.2792 347.113,55.6126 353.5,62C 362.824,63.593 372.157,65.2597 381.5,67C 386.796,74.42 391.463,82.2534 395.5,90.5C 404.462,93.8757 413.295,97.5424 422,101.5C 425.152,110.44 428.152,119.44 431,128.5C 438.865,133.099 446.198,138.433 453,144.5C 455.385,153.456 451.885,157.622 442.5,157C 433.997,151.916 425.664,146.583 417.5,141C 416.299,140.097 415.465,138.931 415,137.5C 412.879,129.509 410.379,121.675 407.5,114C 399.722,111.277 392.055,108.277 384.5,105C 379.968,97.9647 375.635,90.7981 371.5,83.5C 362.952,81.5132 354.286,80.0132 345.5,79C 339.495,73.3284 333.829,67.3284 328.5,61C 319.182,61.5532 309.849,61.8866 300.5,62C 293.396,57.893 286.562,53.393 280,48.5C 271.954,51.7934 263.788,54.7934 255.5,57.5C 247.212,54.7934 239.046,51.7934 231,48.5C 224.438,53.393 217.604,57.893 210.5,62C 201.151,61.8866 191.818,61.5532 182.5,61C 177.171,67.3284 171.505,73.3284 165.5,79C 156.714,80.0132 148.048,81.5132 139.5,83.5C 135.365,90.7981 131.032,97.9647 126.5,105C 118.708,108.314 110.875,111.481 103,114.5C 100.514,122.109 98.1805,129.776 96,137.5C 95.5348,138.931 94.7014,140.097 93.5,141C 85.3363,146.583 77.0029,151.916 68.5,157C 59.1147,157.622 55.6147,153.456 58,144.5C 64.8019,138.433 72.1353,133.099 80,128.5C 82.8476,119.44 85.8476,110.44 89,101.5C 97.3217,97.6137 105.822,94.1137 114.5,91C 119.25,82.8318 124.25,74.8318 129.5,67C 138.843,65.2597 148.176,63.593 157.5,62C 163.887,55.6126 170.221,49.2792 176.5,43C 185.918,42.8438 195.252,43.6772 204.5,45.5C 212.094,40.215 219.761,35.215 227.5,30.5 Z"/></g>
<g><path style="opacity:0.933" fill="#000000" d="M 251.5,69.5 C 317.674,70.5004 370.174,97.5004 409,150.5C 452.333,220.5 452.333,290.5 409,360.5C 361.992,423.185 299.492,449.018 221.5,438C 158.019,424.355 112.519,388.189 85,329.5C 60.4056,266.914 66.0722,207.248 102,150.5C 138.875,99.8091 188.708,72.8091 251.5,69.5 Z M 238.5,87.5 C 203.084,92.1368 171.75,105.97 144.5,129C 94.0937,176.901 77.2603,234.735 94,302.5C 112.833,360 151,398.167 208.5,417C 279.566,434.087 339.066,415.253 387,360.5C 429.77,301.851 435.104,239.851 403,174.5C 365.698,113.091 310.865,84.0913 238.5,87.5 Z M 254.5,116.5 C 234.467,119.535 223.134,131.201 220.5,151.5C 222.863,172.53 234.53,184.196 255.5,186.5C 276.47,184.196 288.137,172.53 290.5,151.5C 287.701,130.367 275.701,118.7 254.5,116.5 Z M 209.5,222.5 C 199.728,231.771 190.062,241.271 180.5,251C 183.833,257.333 187.167,263.667 190.5,270C 233.833,270.667 277.167,270.667 320.5,270C 323.833,263.667 327.167,257.333 330.5,251C 320.97,241.136 311.137,231.636 301,222.5C 270.501,233.125 240.001,233.125 209.5,222.5 Z M 194.5,288.5 C 194.333,301.837 194.5,315.171 195,328.5C 196.063,334.022 197.73,339.356 200,344.5C 211.432,363.266 226.765,377.932 246,388.5C 246.5,355.168 246.667,321.835 246.5,288.5C 229.167,288.5 211.833,288.5 194.5,288.5 Z M 264.5,288.5 C 264.333,321.835 264.5,355.168 265,388.5C 273.11,383.389 280.943,377.889 288.5,372C 314.049,349.854 323.383,322.02 316.5,288.5C 299.167,288.5 281.833,288.5 264.5,288.5 Z"/></g>
<g><path style="opacity:0.932" fill="#000000" d="M 248.5,99.5 C 274.53,98.0897 293.03,109.09 304,132.5C 312.792,162.806 303.292,185.306 275.5,200C 246.879,209.018 224.713,200.852 209,175.5C 197.876,148.547 203.709,126.047 226.5,108C 233.461,103.852 240.795,101.019 248.5,99.5 Z M 254.5,116.5 C 234.467,119.535 223.134,131.201 220.5,151.5C 222.863,172.53 234.53,184.196 255.5,186.5C 276.47,184.196 288.137,172.53 290.5,151.5C 287.701,130.367 275.701,118.7 254.5,116.5 Z"/></g>
<g><path style="opacity:0.921" fill="#000000" d="M 249.5,126.5 C 257.533,124.266 262.533,127.099 264.5,135C 262.67,141.431 258.337,144.765 251.5,145C 246.664,148.834 246.33,153.001 250.5,157.5C 253.627,159.099 256.96,160.266 260.5,161C 265.964,166.399 265.63,171.399 259.5,176C 245.165,177.92 235.665,172.087 231,158.5C 228.595,142.765 234.762,132.098 249.5,126.5 Z"/></g>
<g><path style="opacity:0.875" fill="#000000" d="M 268.5,142.5 C 277.478,141.646 281.644,145.646 281,154.5C 278.598,160.092 274.431,161.925 268.5,160C 262.684,156.238 261.518,151.405 265,145.5C 266.518,144.837 267.685,143.837 268.5,142.5 Z"/></g>
<g><path style="opacity:0.936" fill="#000000" d="M 76.5,371.5 C 73.5548,365.778 70.2214,360.278 66.5,355C 57.7345,349.2 49.2345,343.034 41,336.5C 38.3818,331.228 39.2151,326.728 43.5,323C 47.0016,322.718 50.3349,322.551 53.5,322.5C 51.8203,316.78 49.9869,311.113 48,305.5C 41.6667,297.833 35.3333,290.167 29,282.5C 25.1049,274.623 27.4383,269.623 36,267.5C 38.6269,268.314 40.9602,269.647 43,271.5C 43.3325,264.817 42.9992,258.15 42,251.5C 37.7274,243.288 33.7274,234.955 30,226.5C 27.0112,218.808 29.5112,214.141 37.5,212.5C 41.2812,213.142 44.1146,215.142 46,218.5C 47.0781,212.443 48.4114,206.443 50,200.5C 53.7712,196.212 58.2712,195.379 63.5,198C 65.2695,199.967 66.2695,202.3 66.5,205C 49.1815,284.032 70.1815,350.699 129.5,405C 137.333,410.833 145.167,416.667 153,422.5C 156.207,433.96 152.041,438.126 140.5,435C 125.451,424.972 111.784,413.305 99.5,400C 88.8333,395.667 78.1667,391.333 67.5,387C 64.1966,383.205 63.6966,379.038 66,374.5C 68.9836,371.9 72.4836,370.9 76.5,371.5 Z"/></g>
<g><path style="opacity:0.936" fill="#000000" d="M 434.5,371.5 C 441.603,370.202 445.603,373.035 446.5,380C 446.592,382.814 445.592,385.147 443.5,387C 432.833,391.333 422.167,395.667 411.5,400C 398.279,415.238 382.779,427.405 365,436.5C 357.865,435.579 355.199,431.579 357,424.5C 357.785,422.714 358.951,421.214 360.5,420C 424.563,376.369 454.396,315.536 450,237.5C 448.869,226.547 447.036,215.714 444.5,205C 445.714,197.55 450.048,194.883 457.5,197C 458.667,198.167 459.833,199.333 461,200.5C 462.589,206.443 463.922,212.443 465,218.5C 470.717,210.513 476.384,210.513 482,218.5C 482.584,221.257 482.25,223.923 481,226.5C 477.273,234.955 473.273,243.288 469,251.5C 468.001,258.15 467.667,264.817 468,271.5C 472.199,267.223 476.699,266.723 481.5,270C 485.288,273.993 485.455,278.16 482,282.5C 475.667,290.167 469.333,297.833 463,305.5C 461.013,311.113 459.18,316.78 457.5,322.5C 460.665,322.551 463.998,322.718 467.5,323C 471.785,326.728 472.618,331.228 470,336.5C 461.765,343.034 453.265,349.2 444.5,355C 440.779,360.278 437.445,365.778 434.5,371.5 Z"/></g>
<g><path style="opacity:0.926" fill="#000000" d="M 204.5,203.5 C 206.527,203.338 208.527,203.505 210.5,204C 232.138,212.431 254.471,214.765 277.5,211C 285.508,209.749 293.174,207.415 300.5,204C 302.5,203.333 304.5,203.333 306.5,204C 314.167,211 321.833,218 329.5,225C 336.365,231.531 342.865,238.364 349,245.5C 349.667,247.833 349.667,250.167 349,252.5C 344.333,261.833 339.667,271.167 335,280.5C 334.86,297.861 334.193,315.194 333,332.5C 327.97,353.543 317.137,371.043 300.5,385C 287.54,395.283 273.54,403.95 258.5,411C 253.172,411.186 248.172,409.852 243.5,407C 219.494,395.245 200.328,378.079 186,355.5C 180.511,345.544 177.511,334.878 177,323.5C 176.667,309.167 176.333,294.833 176,280.5C 171.333,271.167 166.667,261.833 162,252.5C 161.333,250.167 161.333,247.833 162,245.5C 175.867,231.159 190.034,217.159 204.5,203.5 Z M 209.5,222.5 C 199.728,231.771 190.062,241.271 180.5,251C 183.833,257.333 187.167,263.667 190.5,270C 233.833,270.667 277.167,270.667 320.5,270C 323.833,263.667 327.167,257.333 330.5,251C 320.97,241.136 311.137,231.636 301,222.5C 270.501,233.125 240.001,233.125 209.5,222.5 Z M 194.5,288.5 C 194.333,301.837 194.5,315.171 195,328.5C 196.063,334.022 197.73,339.356 200,344.5C 211.432,363.266 226.765,377.932 246,388.5C 246.5,355.168 246.667,321.835 246.5,288.5C 229.167,288.5 211.833,288.5 194.5,288.5 Z M 264.5,288.5 C 264.333,321.835 264.5,355.168 265,388.5C 273.11,383.389 280.943,377.889 288.5,372C 314.049,349.854 323.383,322.02 316.5,288.5C 299.167,288.5 281.833,288.5 264.5,288.5 Z"/></g>
<g><path style="opacity:0.93" fill="#000000" d="M 199.5,448.5 C 203.182,448.335 206.848,448.501 210.5,449C 217.604,453.107 224.438,457.607 231,462.5C 239.046,459.207 247.212,456.207 255.5,453.5C 263.788,456.207 271.954,459.207 280,462.5C 285.413,458.543 290.913,454.71 296.5,451C 299.374,449.101 302.541,448.267 306,448.5C 315.549,449.302 325.049,450.468 334.5,452C 339.648,455.334 340.814,459.834 338,465.5C 337.097,466.701 335.931,467.535 334.5,468C 325.082,468.156 315.748,467.323 306.5,465.5C 299.302,470.53 291.969,475.363 284.5,480C 282.167,480.667 279.833,480.667 277.5,480C 270.256,477.197 262.923,474.697 255.5,472.5C 247.167,475.167 238.833,477.833 230.5,480.5C 228.423,480.308 226.423,479.808 224.5,479C 217.97,474.304 211.303,469.804 204.5,465.5C 195.252,467.323 185.918,468.156 176.5,468C 173.08,466.281 171.414,463.448 171.5,459.5C 171.556,456.889 172.556,454.722 174.5,453C 182.861,451.023 191.195,449.523 199.5,448.5 Z"/></g>
</svg>
