<?xml version="1.0" encoding="UTF-8"?>
<!DOCTYPE svg PUBLIC "-//W3C//DTD SVG 1.1//EN" "http://www.w3.org/Graphics/SVG/1.1/DTD/svg11.dtd">
<svg xmlns="http://www.w3.org/2000/svg" version="1.1" width="512px" height="512px" style="shape-rendering:geometricPrecision; text-rendering:geometricPrecision; image-rendering:optimizeQuality; fill-rule:evenodd; clip-rule:evenodd" xmlns:xlink="http://www.w3.org/1999/xlink">
<g><path style="opacity:0.934" fill="#000000" d="M 233.5,-0.5 C 248.167,-0.5 262.833,-0.5 277.5,-0.5C 367.555,10.0943 435.388,54.4276 481,132.5C 497.855,164.278 508.022,197.945 511.5,233.5C 511.5,248.167 511.5,262.833 511.5,277.5C 500.906,367.555 456.572,435.388 378.5,481C 346.722,497.855 313.055,508.022 277.5,511.5C 262.833,511.5 248.167,511.5 233.5,511.5C 143.445,500.906 75.612,456.572 30,378.5C 13.1449,346.722 2.97822,313.055 -0.5,277.5C -0.5,262.833 -0.5,248.167 -0.5,233.5C 10.0943,143.445 54.4276,75.612 132.5,30C 164.278,13.1449 197.945,2.97822 233.5,-0.5 Z M 238.5,16.5 C 333.927,14.1239 407.76,52.4573 460,131.5C 498.372,198.224 504.706,267.891 479,340.5C 447.513,417.32 391.68,466.487 311.5,488C 210.277,507.488 127.443,477.322 63,397.5C 14.2533,327.203 3.91994,251.536 32,170.5C 71.0476,79.2927 139.881,27.9593 238.5,16.5 Z M 242.5,101.5 C 306.228,99.4415 355.061,125.108 389,178.5C 416.309,229.838 416.309,281.171 389,332.5C 354.815,386.346 305.648,411.846 241.5,409C 176.319,400.145 132.152,364.979 109,303.5C 90.5969,236.583 107.43,180.417 159.5,135C 184.069,116.045 211.735,104.879 242.5,101.5 Z M 254.5,137.5 C 259.59,139.212 264.256,141.712 268.5,145C 267.809,146.067 267.309,147.234 267,148.5C 259.58,149.647 252.08,149.813 244.5,149C 243.833,147.667 243.167,146.333 242.5,145C 246.396,142.225 250.396,139.725 254.5,137.5 Z M 264.5,203.5 C 286.991,216.817 309.491,216.817 332,203.5C 332.5,228.498 332.667,253.498 332.5,278.5C 324.16,278.666 315.827,278.5 307.5,278C 311.711,271.747 315.545,265.247 319,258.5C 320.297,253.883 319.13,250.05 315.5,247C 303.5,246.667 291.5,246.333 279.5,246C 274.541,237.916 269.707,229.749 265,221.5C 264.501,215.509 264.334,209.509 264.5,203.5 Z M 254.5,241.5 C 255.496,241.414 256.329,241.748 257,242.5C 260.373,248.748 263.873,254.915 267.5,261C 268.833,261.667 270.167,262.333 271.5,263C 279.521,263.168 287.521,263.668 295.5,264.5C 290.841,271.65 286.841,279.15 283.5,287C 286.841,294.85 290.841,302.35 295.5,309.5C 286.419,310.054 277.419,310.887 268.5,312C 264.278,318.954 259.944,325.787 255.5,332.5C 251.056,325.787 246.722,318.954 242.5,312C 233.581,310.887 224.581,310.054 215.5,309.5C 220.159,302.35 224.159,294.85 227.5,287C 224.159,279.15 220.159,271.65 215.5,264.5C 223.479,263.668 231.479,263.168 239.5,263C 240.833,262.333 242.167,261.667 243.5,261C 247.305,254.554 250.972,248.054 254.5,241.5 Z M 178.5,295.5 C 186.84,295.334 195.173,295.5 203.5,296C 199.289,302.253 195.455,308.753 192,315.5C 190.902,319.505 191.735,323.005 194.5,326C 206.738,327.294 219.071,327.961 231.5,328C 236.459,336.084 241.293,344.251 246,352.5C 246.831,359.192 246.664,365.858 245.5,372.5C 232.262,368.357 218.929,364.524 205.5,361C 189.165,355.324 180.331,343.824 179,326.5C 178.5,316.172 178.334,305.839 178.5,295.5 Z M 307.5,296.5 C 315.65,295.507 323.983,295.174 332.5,295.5C 332.666,305.839 332.5,316.172 332,326.5C 330.669,343.824 321.835,355.324 305.5,361C 292.071,364.524 278.738,368.357 265.5,372.5C 264.336,365.858 264.169,359.192 265,352.5C 269.707,344.251 274.541,336.084 279.5,328C 291.167,327.667 302.833,327.333 314.5,327C 319.069,324.459 320.569,320.625 319,315.5C 315.643,308.77 311.81,302.437 307.5,296.5 Z"/></g>
<g><path style="opacity:0.874" fill="#000000" d="M 253.5,25.5 C 263.24,26.3107 266.407,31.3107 263,40.5C 258,45.8333 253,45.8333 248,40.5C 244.838,33.5142 246.671,28.5142 253.5,25.5 Z"/></g>
<g><path style="opacity:0.874" fill="#000000" d="M 206.5,30.5 C 215.871,30.0341 219.705,34.3675 218,43.5C 215.103,48.1549 210.937,49.6549 205.5,48C 201.275,45.3372 199.775,41.5039 201,36.5C 202.36,33.9774 204.193,31.9774 206.5,30.5 Z"/></g>
<g><path style="opacity:0.874" fill="#000000" d="M 298.5,30.5 C 308.849,30.6843 312.349,35.6843 309,45.5C 305.662,48.3181 301.829,49.1515 297.5,48C 292.845,45.1034 291.345,40.9367 293,35.5C 294.406,33.2563 296.239,31.5897 298.5,30.5 Z"/></g>
<g><path style="opacity:0.888" fill="#000000" d="M 164.5,44.5 C 173.003,45.5079 176.17,50.1745 174,58.5C 169.527,63.708 164.527,64.3746 159,60.5C 154.924,53.0062 156.758,47.6729 164.5,44.5 Z"/></g>
<g><path style="opacity:0.885" fill="#000000" d="M 343.5,44.5 C 352.732,45.6276 355.899,50.6276 353,59.5C 347.373,64.7015 342.04,64.3682 337,58.5C 334.746,51.5755 336.913,46.9089 343.5,44.5 Z"/></g>
<g><path style="opacity:0.93" fill="#000000" d="M 237.5,55.5 C 316.658,51.8324 378.825,82.1657 424,146.5C 428.282,154.331 426.282,159.665 418,162.5C 416.215,161.76 414.382,161.093 412.5,160.5C 363.38,89.1256 296.047,61.6256 210.5,78C 174.4,87.4664 143.9,105.966 119,133.5C 111.833,142.667 104.667,151.833 97.5,161C 88.3553,163.179 84.1886,159.679 85,150.5C 120.881,95.1281 171.714,63.4614 237.5,55.5 Z M 254.5,137.5 C 250.396,139.725 246.396,142.225 242.5,145C 243.167,146.333 243.833,147.667 244.5,149C 252.08,149.813 259.58,149.647 267,148.5C 267.309,147.234 267.809,146.067 268.5,145C 264.256,141.712 259.59,139.212 254.5,137.5 Z"/></g>
<g><path style="opacity:0.88" fill="#000000" d="M 124.5,67.5 C 133.004,68.5085 136.17,73.1751 134,81.5C 129.902,86.758 125.069,87.5913 119.5,84C 114.662,76.3548 116.328,70.8548 124.5,67.5 Z"/></g>
<g><path style="opacity:0.879" fill="#000000" d="M 384.5,67.5 C 394,69.4867 396.5,74.82 392,83.5C 386.377,87.7409 381.377,87.0742 377,81.5C 374.684,74.0327 377.184,69.3661 384.5,67.5 Z"/></g>
<g><path style="opacity:0.934" fill="#000000" d="M 254.5,83.5 C 329.24,86.7618 382.407,122.095 414,189.5C 438.325,255.886 427.992,316.22 383,370.5C 339.257,416.081 286.09,433.915 223.5,424C 152.042,407.208 106.875,363.375 88,292.5C 75.1913,217.902 99.0246,158.069 159.5,113C 188.533,94.3309 220.2,84.4975 254.5,83.5 Z M 242.5,101.5 C 211.735,104.879 184.069,116.045 159.5,135C 107.43,180.417 90.5969,236.583 109,303.5C 132.152,364.979 176.319,400.145 241.5,409C 305.648,411.846 354.815,386.346 389,332.5C 416.309,281.171 416.309,229.838 389,178.5C 355.061,125.108 306.228,99.4415 242.5,101.5 Z M 254.5,137.5 C 250.396,139.725 246.396,142.225 242.5,145C 243.167,146.333 243.833,147.667 244.5,149C 252.08,149.813 259.58,149.647 267,148.5C 267.309,147.234 267.809,146.067 268.5,145C 264.256,141.712 259.59,139.212 254.5,137.5 Z M 264.5,203.5 C 264.334,209.509 264.501,215.509 265,221.5C 269.707,229.749 274.541,237.916 279.5,246C 291.5,246.333 303.5,246.667 315.5,247C 319.13,250.05 320.297,253.883 319,258.5C 315.545,265.247 311.711,271.747 307.5,278C 315.827,278.5 324.16,278.666 332.5,278.5C 332.667,253.498 332.5,228.498 332,203.5C 309.491,216.817 286.991,216.817 264.5,203.5 Z M 254.5,241.5 C 250.972,248.054 247.305,254.554 243.5,261C 242.167,261.667 240.833,262.333 239.5,263C 231.479,263.168 223.479,263.668 215.5,264.5C 220.159,271.65 224.159,279.15 227.5,287C 224.159,294.85 220.159,302.35 215.5,309.5C 224.581,310.054 233.581,310.887 242.5,312C 246.722,318.954 251.056,325.787 255.5,332.5C 259.944,325.787 264.278,318.954 268.5,312C 277.419,310.887 286.419,310.054 295.5,309.5C 290.841,302.35 286.841,294.85 283.5,287C 286.841,279.15 290.841,271.65 295.5,264.5C 287.521,263.668 279.521,263.168 271.5,263C 270.167,262.333 268.833,261.667 267.5,261C 263.873,254.915 260.373,248.748 257,242.5C 256.329,241.748 255.496,241.414 254.5,241.5 Z M 178.5,295.5 C 178.334,305.839 178.5,316.172 179,326.5C 180.331,343.824 189.165,355.324 205.5,361C 218.929,364.524 232.262,368.357 245.5,372.5C 246.664,365.858 246.831,359.192 246,352.5C 241.293,344.251 236.459,336.084 231.5,328C 219.071,327.961 206.738,327.294 194.5,326C 191.735,323.005 190.902,319.505 192,315.5C 195.455,308.753 199.289,302.253 203.5,296C 195.173,295.5 186.84,295.334 178.5,295.5 Z M 307.5,296.5 C 311.81,302.437 315.643,308.77 319,315.5C 320.569,320.625 319.069,324.459 314.5,327C 302.833,327.333 291.167,327.667 279.5,328C 274.541,336.084 269.707,344.251 265,352.5C 264.169,359.192 264.336,365.858 265.5,372.5C 278.738,368.357 292.071,364.524 305.5,361C 321.835,355.324 330.669,343.824 332,326.5C 332.5,316.172 332.666,305.839 332.5,295.5C 323.983,295.174 315.65,295.507 307.5,296.5 Z"/></g>
<g><path style="opacity:0.87" fill="#000000" d="M 89.5,98.5 C 99.4372,99.2634 102.604,104.263 99,113.5C 94,118.833 89,118.833 84,113.5C 80.8377,106.514 82.6711,101.514 89.5,98.5 Z"/></g>
<g><path style="opacity:0.87" fill="#000000" d="M 417.5,98.5 C 427.24,99.3107 430.407,104.311 427,113.5C 422,118.833 417,118.833 412,113.5C 408.651,106.397 410.484,101.397 417.5,98.5 Z"/></g>
<g><path style="opacity:0.937" fill="#000000" d="M 254.5,118.5 C 264.834,122.499 274.834,127.333 284.5,133C 287.792,135.412 288.959,138.579 288,142.5C 285.863,148.579 283.529,154.579 281,160.5C 279.833,163 278,164.833 275.5,166C 262.167,166.667 248.833,166.667 235.5,166C 233,164.833 231.167,163 230,160.5C 227.471,154.579 225.137,148.579 223,142.5C 222.294,140.029 222.627,137.695 224,135.5C 233.739,128.885 243.905,123.218 254.5,118.5 Z M 254.5,137.5 C 250.396,139.725 246.396,142.225 242.5,145C 243.167,146.333 243.833,147.667 244.5,149C 252.08,149.813 259.58,149.647 267,148.5C 267.309,147.234 267.809,146.067 268.5,145C 264.256,141.712 259.59,139.212 254.5,137.5 Z"/></g>
<g><path style="opacity:0.881" fill="#000000" d="M 442.5,136.5 C 452.158,134.993 456.325,138.993 455,148.5C 452.647,153.426 448.814,155.26 443.5,154C 438.268,151.367 436.435,147.201 438,141.5C 439.025,139.313 440.525,137.646 442.5,136.5 Z"/></g>
<g><path style="opacity:0.857" fill="#000000" d="M 60.5,137.5 C 67.4901,135.838 71.4901,138.505 72.5,145.5C 72.1125,150.72 69.2792,153.387 64,153.5C 57.8941,152.296 55.5607,148.629 57,142.5C 57.9973,140.677 59.1639,139.01 60.5,137.5 Z"/></g>
<g><path style="opacity:0.946" fill="#000000" d="M 176.5,144.5 C 180.182,144.591 183.349,145.924 186,148.5C 194.788,164.579 203.954,180.412 213.5,196C 229.088,195.373 241.421,188.706 250.5,176C 253.833,174 257.167,174 260.5,176C 269.579,188.706 281.912,195.373 297.5,196C 307.046,180.412 316.212,164.579 325,148.5C 330.041,143.184 335.041,143.184 340,148.5C 342,151.833 342,155.167 340,158.5C 334.167,168.333 328.333,178.167 322.5,188C 323.167,188.667 323.833,188.667 324.5,188C 328.866,183.299 333.533,178.966 338.5,175C 343.026,174.181 346.526,175.681 349,179.5C 349.667,229.833 349.667,280.167 349,330.5C 345.518,355.985 331.351,372.151 306.5,379C 288.902,382.813 271.902,388.313 255.5,395.5C 248.52,392.679 241.52,389.846 234.5,387C 222.411,383.978 210.411,380.645 198.5,377C 176.645,369.131 164.478,353.631 162,330.5C 161.333,302.5 161.333,274.5 162,246.5C 164.541,241.931 168.375,240.431 173.5,242C 175.726,243.227 177.226,245.061 178,247.5C 178.5,257.828 178.666,268.161 178.5,278.5C 186.84,278.666 195.173,278.5 203.5,278C 199.289,271.747 195.455,265.247 192,258.5C 190.703,253.883 191.87,250.05 195.5,247C 207.5,246.667 219.5,246.333 231.5,246C 236.459,237.916 241.293,229.749 246,221.5C 246.667,215.5 246.667,209.5 246,203.5C 230.033,213.767 212.867,216.267 194.5,211C 188.859,209.429 183.693,206.929 179,203.5C 178.871,209.914 178.204,216.247 177,222.5C 171.807,227.471 166.807,227.138 162,221.5C 161.034,206.74 161.367,192.073 163,177.5C 165.763,175.03 168.93,174.196 172.5,175C 177.467,178.966 182.134,183.299 186.5,188C 187.167,188.667 187.833,188.667 188.5,188C 181.687,177.541 175.52,166.708 170,155.5C 169.118,149.939 171.285,146.273 176.5,144.5 Z M 264.5,203.5 C 264.334,209.509 264.501,215.509 265,221.5C 269.707,229.749 274.541,237.916 279.5,246C 291.5,246.333 303.5,246.667 315.5,247C 319.13,250.05 320.297,253.883 319,258.5C 315.545,265.247 311.711,271.747 307.5,278C 315.827,278.5 324.16,278.666 332.5,278.5C 332.667,253.498 332.5,228.498 332,203.5C 309.491,216.817 286.991,216.817 264.5,203.5 Z M 254.5,241.5 C 250.972,248.054 247.305,254.554 243.5,261C 242.167,261.667 240.833,262.333 239.5,263C 231.479,263.168 223.479,263.668 215.5,264.5C 220.159,271.65 224.159,279.15 227.5,287C 224.159,294.85 220.159,302.35 215.5,309.5C 224.581,310.054 233.581,310.887 242.5,312C 246.722,318.954 251.056,325.787 255.5,332.5C 259.944,325.787 264.278,318.954 268.5,312C 277.419,310.887 286.419,310.054 295.5,309.5C 290.841,302.35 286.841,294.85 283.5,287C 286.841,279.15 290.841,271.65 295.5,264.5C 287.521,263.668 279.521,263.168 271.5,263C 270.167,262.333 268.833,261.667 267.5,261C 263.873,254.915 260.373,248.748 257,242.5C 256.329,241.748 255.496,241.414 254.5,241.5 Z M 178.5,295.5 C 178.334,305.839 178.5,316.172 179,326.5C 180.331,343.824 189.165,355.324 205.5,361C 218.929,364.524 232.262,368.357 245.5,372.5C 246.664,365.858 246.831,359.192 246,352.5C 241.293,344.251 236.459,336.084 231.5,328C 219.071,327.961 206.738,327.294 194.5,326C 191.735,323.005 190.902,319.505 192,315.5C 195.455,308.753 199.289,302.253 203.5,296C 195.173,295.5 186.84,295.334 178.5,295.5 Z M 307.5,296.5 C 311.81,302.437 315.643,308.77 319,315.5C 320.569,320.625 319.069,324.459 314.5,327C 302.833,327.333 291.167,327.667 279.5,328C 274.541,336.084 269.707,344.251 265,352.5C 264.169,359.192 264.336,365.858 265.5,372.5C 278.738,368.357 292.071,364.524 305.5,361C 321.835,355.324 330.669,343.824 332,326.5C 332.5,316.172 332.666,305.839 332.5,295.5C 323.983,295.174 315.65,295.507 307.5,296.5 Z"/></g>
<g><path style="opacity:0.872" fill="#000000" d="M 41.5,178.5 C 51.6591,177.158 55.8257,181.491 54,191.5C 51.4586,196.069 47.6253,197.569 42.5,196C 34.844,190.569 34.5106,184.736 41.5,178.5 Z"/></g>
<g><path style="opacity:0.872" fill="#000000" d="M 461.5,178.5 C 471.107,176.942 475.274,180.942 474,190.5C 471.367,195.732 467.201,197.565 461.5,196C 456.845,193.103 455.345,188.937 457,183.5C 458.025,181.313 459.525,179.646 461.5,178.5 Z"/></g>
<g><path style="opacity:0.874" fill="#000000" d="M 32.5,223.5 C 41.905,222.735 45.905,226.901 44.5,236C 41.9477,240.939 37.9477,242.605 32.5,241C 24.882,235.014 24.882,229.181 32.5,223.5 Z"/></g>
<g><path style="opacity:0.873" fill="#000000" d="M 471.5,223.5 C 481.362,222.848 485.195,227.182 483,236.5C 480.459,241.069 476.625,242.569 471.5,241C 463.581,235.173 463.581,229.34 471.5,223.5 Z"/></g>
<g><path style="opacity:0.919" fill="#000000" d="M 252.5,267.5 C 260.332,266.999 264.332,270.666 264.5,278.5C 270.615,278.11 274.282,280.944 275.5,287C 274.324,293.005 270.658,295.838 264.5,295.5C 263.957,304.888 259.29,308.055 250.5,305C 247.89,302.421 246.557,299.254 246.5,295.5C 237.605,295.127 234.438,290.794 237,282.5C 239.239,279.038 242.406,277.705 246.5,278.5C 246.261,273.505 248.261,269.838 252.5,267.5 Z"/></g>
<g><path style="opacity:0.873" fill="#000000" d="M 32.5,269.5 C 41.905,268.735 45.905,272.901 44.5,282C 41.9477,286.939 37.9477,288.605 32.5,287C 27.2186,284.154 25.7186,279.987 28,274.5C 29.025,272.313 30.525,270.646 32.5,269.5 Z"/></g>
<g><path style="opacity:0.874" fill="#000000" d="M 471.5,269.5 C 481.746,269.015 485.579,273.681 483,283.5C 477.667,288.833 472.333,288.833 467,283.5C 464.606,277.517 466.106,272.851 471.5,269.5 Z"/></g>
<g><path style="opacity:0.872" fill="#000000" d="M 42.5,314.5 C 52.1569,313.658 55.9902,317.991 54,327.5C 51.1034,332.155 46.9367,333.655 41.5,332C 34.6203,325.772 34.9536,319.939 42.5,314.5 Z"/></g>
<g><path style="opacity:0.872" fill="#000000" d="M 461.5,314.5 C 473.689,314.718 477.023,320.218 471.5,331C 460.431,334.891 455.598,331.058 457,319.5C 458.193,317.503 459.693,315.836 461.5,314.5 Z"/></g>
<g><path style="opacity:0.881" fill="#000000" d="M 61.5,356.5 C 70.4775,356.31 74.3108,360.643 73,369.5C 70.1034,374.155 65.9367,375.655 60.5,374C 55.9315,371.459 54.4315,367.625 56,362.5C 57.3597,359.977 59.193,357.977 61.5,356.5 Z"/></g>
<g><path style="opacity:0.881" fill="#000000" d="M 443.5,356.5 C 452.478,356.31 456.311,360.643 455,369.5C 452.103,374.155 447.937,375.655 442.5,374C 437.931,371.459 436.431,367.625 438,362.5C 439.36,359.977 441.193,357.977 443.5,356.5 Z"/></g>
<g><path style="opacity:0.871" fill="#000000" d="M 122.5,387.5 C 133.456,387.43 136.956,392.43 133,402.5C 127.643,406.787 122.643,406.453 118,401.5C 115.606,395.517 117.106,390.851 122.5,387.5 Z"/></g>
<g><path style="opacity:0.871" fill="#000000" d="M 381.5,387.5 C 389.991,386.499 394.157,390.165 394,398.5C 392.154,404.995 387.988,407.162 381.5,405C 373.649,399.19 373.649,393.356 381.5,387.5 Z"/></g>
<g><path style="opacity:0.87" fill="#000000" d="M 90.5,393.5 C 98.8777,394.581 102.044,399.248 100,407.5C 94.9581,413.602 89.6248,413.935 84,408.5C 80.7498,401.01 82.9165,396.01 90.5,393.5 Z"/></g>
<g><path style="opacity:0.87" fill="#000000" d="M 418.5,393.5 C 427.568,394.969 430.401,399.969 427,408.5C 421.375,413.935 416.042,413.602 411,407.5C 409.101,400.291 411.601,395.624 418.5,393.5 Z"/></g>
<g><path style="opacity:0.879" fill="#000000" d="M 124.5,424.5 C 133.003,425.508 136.17,430.175 134,438.5C 128.96,444.368 123.627,444.702 118,439.5C 115.302,432.24 117.469,427.24 124.5,424.5 Z"/></g>
<g><path style="opacity:0.88" fill="#000000" d="M 383.5,424.5 C 392.732,425.628 395.899,430.628 393,439.5C 387.373,444.702 382.04,444.368 377,438.5C 374.746,431.576 376.913,426.909 383.5,424.5 Z"/></g>
<g><path style="opacity:0.935" fill="#000000" d="M 312.5,429.5 C 318.242,430.294 321.242,433.627 321.5,439.5C 320.966,441.614 319.966,443.448 318.5,445C 304.009,450.499 289.009,453.832 273.5,455C 247.31,457.238 221.643,454.571 196.5,447C 191.391,443.634 190.224,439.134 193,433.5C 194.853,431.408 197.186,430.408 200,430.5C 237.741,441.452 275.241,441.119 312.5,429.5 Z"/></g>
<g><path style="opacity:0.885" fill="#000000" d="M 164.5,447.5 C 173.004,448.508 176.17,453.175 174,461.5C 169.902,466.758 165.069,467.591 159.5,464C 154.662,456.355 156.328,450.855 164.5,447.5 Z"/></g>
<g><path style="opacity:0.888" fill="#000000" d="M 344.5,447.5 C 353.741,449.648 356.241,454.982 352,463.5C 346.377,467.741 341.377,467.074 337,461.5C 334.684,454.033 337.184,449.366 344.5,447.5 Z"/></g>
<g><path style="opacity:0.874" fill="#000000" d="M 205.5,462.5 C 215.659,461.158 219.826,465.491 218,475.5C 213.015,481.665 207.682,481.998 202,476.5C 199.445,470.782 200.612,466.116 205.5,462.5 Z"/></g>
<g><path style="opacity:0.874" fill="#000000" d="M 297.5,462.5 C 307.139,460.974 311.306,464.974 310,474.5C 304.785,482.09 299.118,482.423 293,475.5C 291.379,469.923 292.879,465.589 297.5,462.5 Z"/></g>
<g><path style="opacity:0.874" fill="#000000" d="M 254.5,466.5 C 263.568,467.969 266.401,472.969 263,481.5C 258,486.833 253,486.833 248,481.5C 244.75,474.01 246.917,469.01 254.5,466.5 Z"/></g>
</svg>
