<?xml version="1.0" encoding="UTF-8"?>
<!DOCTYPE svg PUBLIC "-//W3C//DTD SVG 1.1//EN" "http://www.w3.org/Graphics/SVG/1.1/DTD/svg11.dtd">
<svg xmlns="http://www.w3.org/2000/svg" version="1.1" width="512px" height="512px" style="shape-rendering:geometricPrecision; text-rendering:geometricPrecision; image-rendering:optimizeQuality; fill-rule:evenodd; clip-rule:evenodd" xmlns:xlink="http://www.w3.org/1999/xlink">
<g><path style="opacity:0.997" fill="#f44336" d="M 239.5,52.5 C 320.319,49.3247 383.152,80.9914 428,147.5C 461.928,205.451 467.595,266.118 445,329.5C 416.392,397.102 366.226,438.935 294.5,455C 215.854,467.346 150.354,443.846 98,384.5C 51.1275,322.745 40.4609,255.078 66,181.5C 99.2192,105.454 157.053,62.4536 239.5,52.5 Z"/></g>
<g><path style="opacity:1" fill="#fffdfd" d="M 182.5,265.5 C 181.506,255.347 181.172,245.014 181.5,234.5C 195.274,231.01 209.274,228.01 223.5,225.5C 223.5,218.5 223.5,211.5 223.5,204.5C 209.214,207.424 194.881,210.091 180.5,212.5C 180.5,201.833 180.5,191.167 180.5,180.5C 194.786,177.576 209.119,174.909 223.5,172.5C 223.5,161.167 223.5,149.833 223.5,138.5C 234.167,138.5 244.833,138.5 255.5,138.5C 255.5,147.5 255.5,156.5 255.5,165.5C 266.142,163.372 276.808,161.372 287.5,159.5C 287.832,170.187 287.499,180.854 286.5,191.5C 276.265,194.014 265.931,196.014 255.5,197.5C 255.5,204.5 255.5,211.5 255.5,218.5C 265.931,217.014 276.265,215.014 286.5,212.5C 287.499,223.48 287.832,234.48 287.5,245.5C 276.796,246.907 266.129,248.574 255.5,250.5C 255.5,280.5 255.5,310.5 255.5,340.5C 283.791,339.704 303.624,326.37 315,300.5C 317.686,292.716 319.186,284.716 319.5,276.5C 330.167,276.5 340.833,276.5 351.5,276.5C 348.772,324.152 324.772,355.319 279.5,370C 275.205,370.912 270.872,371.579 266.5,372C 252.171,372.5 237.837,372.667 223.5,372.5C 223.667,334.165 223.5,295.832 223,257.5C 209.649,260.737 196.149,263.403 182.5,265.5 Z"/></g>
<g><path style="opacity:1" fill="#fbbdb9" d="M 181.5,234.5 C 181.172,245.014 181.506,255.347 182.5,265.5C 182.44,266.043 182.107,266.376 181.5,266.5C 180.177,255.674 180.177,245.007 181.5,234.5 Z"/></g>
</svg>
