<?xml version="1.0" encoding="UTF-8"?>
<!DOCTYPE svg PUBLIC "-//W3C//DTD SVG 1.1//EN" "http://www.w3.org/Graphics/SVG/1.1/DTD/svg11.dtd">
<svg xmlns="http://www.w3.org/2000/svg" version="1.1" width="512px" height="512px" style="shape-rendering:geometricPrecision; text-rendering:geometricPrecision; image-rendering:optimizeQuality; fill-rule:evenodd; clip-rule:evenodd" xmlns:xlink="http://www.w3.org/1999/xlink">
<g><path style="opacity:0.985" fill="#fdd20b" d="M 329.5,26.5 C 326.067,27.399 323.234,29.399 321,32.5C 317,37.9954 312.834,43.3287 308.5,48.5C 261.826,36.6565 216.159,39.6565 171.5,57.5C 171.062,57.5654 170.728,57.3988 170.5,57C 179.124,46.0402 188.124,35.3735 197.5,25C 180.806,28.4553 164.806,34.1219 149.5,42C 148.251,42.7401 147.251,42.5735 146.5,41.5C 196.535,16.1865 249.202,9.0198 304.5,20C 312.89,22.0139 321.223,24.1806 329.5,26.5 Z"/></g>
<g><path style="opacity:1" fill="#fcba05" d="M 171.5,57.5 C 106.578,87.0869 65.245,136.42 47.5,205.5C 47.6495,204.448 47.4828,203.448 47,202.5C 36.6353,215.025 26.1353,227.358 15.5,239.5C 22.4275,163.449 56.4275,102.949 117.5,58C 126.896,51.9702 136.563,46.4702 146.5,41.5C 147.251,42.5735 148.251,42.7401 149.5,42C 164.806,34.1219 180.806,28.4553 197.5,25C 188.124,35.3735 179.124,46.0402 170.5,57C 170.728,57.3988 171.062,57.5654 171.5,57.5 Z"/></g>
<g><path style="opacity:1" fill="#fcba05" d="M 329.5,26.5 C 330.167,26.5 330.5,26.8333 330.5,27.5C 331.348,29.0931 332.681,30.2597 334.5,31C 338.768,31.8959 342.768,33.3959 346.5,35.5C 341.523,42.4742 336.19,49.1409 330.5,55.5C 323.151,53.1612 315.818,50.8279 308.5,48.5C 312.834,43.3287 317,37.9954 321,32.5C 323.234,29.399 326.067,27.399 329.5,26.5 Z"/></g>
<g><path style="opacity:0.989" fill="#fdd20b" d="M 330.5,27.5 C 340.338,30.0931 349.671,33.7597 358.5,38.5C 357.472,39.7874 357.805,40.9541 359.5,42C 356.126,46.5728 352.626,51.0728 349,55.5C 347.223,57.7899 345.056,59.4566 342.5,60.5C 338.261,59.2042 334.261,57.5375 330.5,55.5C 336.19,49.1409 341.523,42.4742 346.5,35.5C 342.768,33.3959 338.768,31.8959 334.5,31C 332.681,30.2597 331.348,29.0931 330.5,27.5 Z"/></g>
<g><path style="opacity:1" fill="#f48600" d="M 308.5,48.5 C 315.818,50.8279 323.151,53.1612 330.5,55.5C 334.261,57.5375 338.261,59.2042 342.5,60.5C 355.796,67.147 368.463,74.8137 380.5,83.5C 401.714,99.7082 419.38,119.042 433.5,141.5C 440.667,154.167 447.001,167.167 452.5,180.5C 456.73,192.19 459.73,204.19 461.5,216.5C 462.738,221.388 463.571,226.388 464,231.5C 464.827,244.007 464.66,256.34 463.5,268.5C 464.695,244.587 462.029,221.253 455.5,198.5C 445.589,162.319 427.256,131.319 400.5,105.5C 361.848,67.356 315.181,48.1893 260.5,48C 311.149,51.1687 354.483,70.3354 390.5,105.5C 415.298,130.758 432.632,160.425 442.5,194.5C 454.808,243.025 452.475,290.858 435.5,338C 437.69,340.684 440.357,342.851 443.5,344.5C 404.447,419.395 342.447,459.062 257.5,463.5C 196.35,458.759 146.017,433.093 106.5,386.5C 67.8606,335.78 53.8606,279.947 64.5,219C 63.5761,218.15 63.5761,217.15 64.5,216C 64.0556,214.238 63.5556,214.405 63,216.5C 59.9123,214.706 56.7456,213.039 53.5,211.5C 52.6919,211.808 52.0253,212.308 51.5,213C 51.5092,214.73 51.8425,216.563 52.5,218.5C 61.6735,222.943 61.5069,223.277 52,219.5C 41.4931,275.582 52.8264,327.582 86,375.5C 89.0316,379.359 92.1983,383.026 95.5,386.5C 131.545,429.53 177.545,454.864 233.5,462.5C 227.428,462.324 221.428,461.657 215.5,460.5C 201.55,457.924 187.883,453.924 174.5,448.5C 149.653,437.92 127.32,423.587 107.5,405.5C 97.3867,395.062 88.0534,384.062 79.5,372.5C 77.4164,368.664 75.083,364.997 72.5,361.5C 68.4841,354.132 64.4841,346.798 60.5,339.5C 46.5079,306.241 40.6745,271.574 43,235.5C 43.6606,225.366 45.1606,215.366 47.5,205.5C 65.245,136.42 106.578,87.0869 171.5,57.5C 216.159,39.6565 261.826,36.6565 308.5,48.5 Z"/></g>
<g><path style="opacity:1" fill="#fcba05" d="M 358.5,38.5 C 360.954,39.2271 363.287,40.2271 365.5,41.5C 365.33,42.8221 365.663,43.9887 366.5,45C 376.89,50.1856 386.557,56.3522 395.5,63.5C 391.522,68.6461 387.355,73.6461 383,78.5C 381.906,80.0779 381.072,81.7446 380.5,83.5C 368.463,74.8137 355.796,67.147 342.5,60.5C 345.056,59.4566 347.223,57.7899 349,55.5C 352.626,51.0728 356.126,46.5728 359.5,42C 357.805,40.9541 357.472,39.7874 358.5,38.5 Z"/></g>
<g><path style="opacity:0.987" fill="#fdd20b" d="M 365.5,41.5 C 395.617,57.1055 421.45,78.1055 443,104.5C 449.933,113.376 456.099,122.709 461.5,132.5C 460.504,132.586 459.671,132.252 459,131.5C 456.657,128.137 454.323,124.803 452,121.5C 446.036,128.299 439.87,134.966 433.5,141.5C 419.38,119.042 401.714,99.7082 380.5,83.5C 381.072,81.7446 381.906,80.0779 383,78.5C 387.355,73.6461 391.522,68.6461 395.5,63.5C 386.557,56.3522 376.89,50.1856 366.5,45C 365.663,43.9887 365.33,42.8221 365.5,41.5 Z"/></g>
<g><path style="opacity:1" fill="#f06700" d="M 400.5,105.5 C 397.332,106.444 393.999,106.444 390.5,105.5C 354.483,70.3354 311.149,51.1687 260.5,48C 315.181,48.1893 361.848,67.356 400.5,105.5 Z"/></g>
<g><path style="opacity:1" fill="#fcba05" d="M 461.5,132.5 C 464.737,137.299 467.737,142.299 470.5,147.5C 469.325,147.281 468.325,147.614 467.5,148.5C 469.388,151.349 470.555,154.349 471,157.5C 463.856,164.497 457.69,172.163 452.5,180.5C 447.001,167.167 440.667,154.167 433.5,141.5C 439.87,134.966 446.036,128.299 452,121.5C 454.323,124.803 456.657,128.137 459,131.5C 459.671,132.252 460.504,132.586 461.5,132.5 Z"/></g>
<g><path style="opacity:1" fill="#f17200" d="M 390.5,105.5 C 393.999,106.444 397.332,106.444 400.5,105.5C 427.256,131.319 445.589,162.319 455.5,198.5C 451.019,198.457 446.686,197.124 442.5,194.5C 432.632,160.425 415.298,130.758 390.5,105.5 Z"/></g>
<g><path style="opacity:0.991" fill="#fdd10b" d="M 470.5,147.5 C 496.062,200.218 502.395,255.218 489.5,312.5C 488.84,311.036 488.507,309.369 488.5,307.5C 496.381,268.069 495.048,229.069 484.5,190.5C 476.811,199.186 469.144,207.853 461.5,216.5C 459.73,204.19 456.73,192.19 452.5,180.5C 457.69,172.163 463.856,164.497 471,157.5C 470.555,154.349 469.388,151.349 467.5,148.5C 468.325,147.614 469.325,147.281 470.5,147.5 Z"/></g>
<g><path style="opacity:1" fill="#fbba05" d="M 489.5,312.5 C 483.592,334.978 474.926,356.311 463.5,376.5C 462.957,376.44 462.624,376.107 462.5,375.5C 466.499,367.024 470.666,358.691 475,350.5C 476.772,345.863 478.106,341.196 479,336.5C 443.708,378.794 408.042,420.794 372,462.5C 371.333,463.167 371.333,463.833 372,464.5C 373.011,463.663 374.178,463.33 375.5,463.5C 329.713,489.926 280.38,500.259 227.5,494.5C 235.454,484.872 243.454,475.205 251.5,465.5C 249.369,464.831 247.369,464.165 245.5,463.5C 249.5,463.5 253.5,463.5 257.5,463.5C 342.447,459.062 404.447,419.395 443.5,344.5C 455.166,320.504 461.833,295.171 463.5,268.5C 464.66,256.34 464.827,244.007 464,231.5C 463.571,226.388 462.738,221.388 461.5,216.5C 469.144,207.853 476.811,199.186 484.5,190.5C 495.048,229.069 496.381,268.069 488.5,307.5C 488.507,309.369 488.84,311.036 489.5,312.5 Z"/></g>
<g><path style="opacity:1" fill="#f9bb0a" d="M 345.5,192.5 C 351.167,192.5 356.833,192.5 362.5,192.5C 362.5,196.167 362.5,199.833 362.5,203.5C 385.673,206.335 397.673,219.335 398.5,242.5C 388.833,242.5 379.167,242.5 369.5,242.5C 370.895,236.51 368.895,232.177 363.5,229.5C 362.503,236.468 362.17,243.468 362.5,250.5C 395.354,255.226 406.521,273.226 396,304.5C 387.785,315.859 376.619,321.859 362.5,322.5C 362.5,326.167 362.5,329.833 362.5,333.5C 356.5,333.5 350.5,333.5 344.5,333.5C 344.5,330.167 344.5,326.833 344.5,323.5C 329.146,322.247 317.312,315.247 309,302.5C 306.559,296.738 305.392,290.738 305.5,284.5C 315.167,284.5 324.833,284.5 334.5,284.5C 334.11,291.769 337.443,296.103 344.5,297.5C 344.666,290.159 344.5,282.826 344,275.5C 332.161,273.581 322.161,268.248 314,259.5C 303.943,242.567 305.776,227.067 319.5,213C 327.037,206.765 335.704,203.598 345.5,203.5C 345.5,199.833 345.5,196.167 345.5,192.5 Z"/></g>
<g><path style="opacity:0.994" fill="#fcd20b" d="M 47.5,205.5 C 45.1606,215.366 43.6606,225.366 43,235.5C 40.6745,271.574 46.5079,306.241 60.5,339.5C 55.4054,347.319 49.5721,354.652 43,361.5C 42.2086,362.745 41.7086,364.078 41.5,365.5C 21.2095,326.052 12.5429,284.052 15.5,239.5C 26.1353,227.358 36.6353,215.025 47,202.5C 47.4828,203.448 47.6495,204.448 47.5,205.5 Z"/></g>
<g><path style="opacity:1" fill="#f9bb0a" d="M 90.5,203.5 C 123.167,203.5 155.833,203.5 188.5,203.5C 188.5,212.5 188.5,221.5 188.5,230.5C 177.167,230.5 165.833,230.5 154.5,230.5C 154.5,261.167 154.5,291.833 154.5,322.5C 144.5,322.5 134.5,322.5 124.5,322.5C 124.5,291.833 124.5,261.167 124.5,230.5C 113.167,230.5 101.833,230.5 90.5,230.5C 90.5,221.5 90.5,212.5 90.5,203.5 Z"/></g>
<g><path style="opacity:1" fill="#f9bb0a" d="M 293.5,229.5 C 282.167,229.5 270.833,229.5 259.5,229.5C 259.5,260.5 259.5,291.5 259.5,322.5C 249.833,322.5 240.167,322.5 230.5,322.5C 230.5,291.5 230.5,260.5 230.5,229.5C 219.167,229.5 207.833,229.5 196.5,229.5C 196.5,220.833 196.5,212.167 196.5,203.5C 228.833,203.5 261.167,203.5 293.5,203.5C 293.5,212.167 293.5,220.833 293.5,229.5 Z"/></g>
<g><path style="opacity:1" fill="#f48700" d="M 342.5,228.5 C 343.814,230.915 344.481,233.748 344.5,237C 345.668,245.606 343.502,247.106 338,241.5C 336.379,235.923 337.879,231.589 342.5,228.5 Z"/></g>
<g><path style="opacity:1" fill="#f7a205" d="M 196.5,229.5 C 207.833,229.5 219.167,229.5 230.5,229.5C 230.5,260.5 230.5,291.5 230.5,322.5C 229.502,292.005 229.169,261.338 229.5,230.5C 218.321,230.828 207.321,230.495 196.5,229.5 Z"/></g>
<g><path style="opacity:1" fill="#f7a205" d="M 293.5,229.5 C 282.679,230.495 271.679,230.828 260.5,230.5C 260.831,261.338 260.498,292.005 259.5,322.5C 259.5,291.5 259.5,260.5 259.5,229.5C 270.833,229.5 282.167,229.5 293.5,229.5 Z"/></g>
<g><path style="opacity:1" fill="#f37f00" d="M 106.5,386.5 C 102.699,385.285 99.0326,385.285 95.5,386.5C 92.1983,383.026 89.0316,379.359 86,375.5C 52.8264,327.582 41.4931,275.582 52,219.5C 61.5069,223.277 61.6735,222.943 52.5,218.5C 51.8425,216.563 51.5092,214.73 51.5,213C 52.0253,212.308 52.6919,211.808 53.5,211.5C 56.7456,213.039 59.9123,214.706 63,216.5C 63.5556,214.405 64.0556,214.238 64.5,216C 63.5761,217.15 63.5761,218.15 64.5,219C 53.8606,279.947 67.8606,335.78 106.5,386.5 Z"/></g>
<g><path style="opacity:1" fill="#f37e00" d="M 442.5,194.5 C 446.686,197.124 451.019,198.457 455.5,198.5C 462.029,221.253 464.695,244.587 463.5,268.5C 461.833,295.171 455.166,320.504 443.5,344.5C 440.357,342.851 437.69,340.684 435.5,338C 452.475,290.858 454.808,243.025 442.5,194.5 Z"/></g>
<g><path style="opacity:1" fill="#f48700" d="M 362.5,279.5 C 371.357,281.228 373.857,286.228 370,294.5C 367.96,296.353 365.627,297.686 363,298.5C 362.5,292.175 362.334,285.842 362.5,279.5 Z"/></g>
<g><path style="opacity:1" fill="#f1b305" d="M 463.5,376.5 C 442.095,413.572 412.762,442.572 375.5,463.5C 374.178,463.33 373.011,463.663 372,464.5C 371.333,463.833 371.333,463.167 372,462.5C 408.042,420.794 443.708,378.794 479,336.5C 478.106,341.196 476.772,345.863 475,350.5C 470.666,358.691 466.499,367.024 462.5,375.5C 462.624,376.107 462.957,376.44 463.5,376.5 Z"/></g>
<g><path style="opacity:1" fill="#fcba05" d="M 60.5,339.5 C 64.4841,346.798 68.4841,354.132 72.5,361.5C 65.4939,368.342 58.9939,375.675 53,383.5C 52.3292,382.748 51.4959,382.414 50.5,382.5C 47.2326,376.965 44.2326,371.298 41.5,365.5C 41.7086,364.078 42.2086,362.745 43,361.5C 49.5721,354.652 55.4054,347.319 60.5,339.5 Z"/></g>
<g><path style="opacity:0.992" fill="#fdd20b" d="M 72.5,361.5 C 75.083,364.997 77.4164,368.664 79.5,372.5C 73.9242,379.955 68.0909,387.288 62,394.5C 61.5172,395.448 61.3505,396.448 61.5,397.5C 57.4788,392.804 53.8122,387.804 50.5,382.5C 51.4959,382.414 52.3292,382.748 53,383.5C 58.9939,375.675 65.4939,368.342 72.5,361.5 Z"/></g>
<g><path style="opacity:1" fill="#fcba05" d="M 79.5,372.5 C 88.0534,384.062 97.3867,395.062 107.5,405.5C 101.203,413.133 94.5359,420.466 87.5,427.5C 76.9721,418.982 68.3055,408.982 61.5,397.5C 61.3505,396.448 61.5172,395.448 62,394.5C 68.0909,387.288 73.9242,379.955 79.5,372.5 Z"/></g>
<g><path style="opacity:0.993" fill="#fcd20b" d="M 107.5,405.5 C 127.32,423.587 149.653,437.92 174.5,448.5C 168.046,456.793 161.379,464.959 154.5,473C 155.056,473.383 155.389,473.883 155.5,474.5C 129.69,463.271 107.023,447.605 87.5,427.5C 94.5359,420.466 101.203,413.133 107.5,405.5 Z"/></g>
<g><path style="opacity:1" fill="#f06e00" d="M 106.5,386.5 C 146.017,433.093 196.35,458.759 257.5,463.5C 253.5,463.5 249.5,463.5 245.5,463.5C 241.519,462.979 237.519,462.646 233.5,462.5C 177.545,454.864 131.545,429.53 95.5,386.5C 99.0326,385.285 102.699,385.285 106.5,386.5 Z"/></g>
<g><path style="opacity:1" fill="#fcba05" d="M 174.5,448.5 C 187.883,453.924 201.55,457.924 215.5,460.5C 207.488,469.181 199.821,478.181 192.5,487.5C 179.657,484.553 167.323,480.219 155.5,474.5C 155.389,473.883 155.056,473.383 154.5,473C 161.379,464.959 168.046,456.793 174.5,448.5 Z"/></g>
<g><path style="opacity:0.994" fill="#fcd20b" d="M 215.5,460.5 C 221.428,461.657 227.428,462.324 233.5,462.5C 237.519,462.646 241.519,462.979 245.5,463.5C 247.369,464.165 249.369,464.831 251.5,465.5C 243.454,475.205 235.454,484.872 227.5,494.5C 215.486,493.297 203.819,490.964 192.5,487.5C 199.821,478.181 207.488,469.181 215.5,460.5 Z"/></g>
</svg>
