<?xml version="1.0" encoding="UTF-8"?>
<!DOCTYPE svg PUBLIC "-//W3C//DTD SVG 1.1//EN" "http://www.w3.org/Graphics/SVG/1.1/DTD/svg11.dtd">
<svg xmlns="http://www.w3.org/2000/svg" version="1.1" width="96px" height="96px" style="shape-rendering:geometricPrecision; text-rendering:geometricPrecision; image-rendering:optimizeQuality; fill-rule:evenodd; clip-rule:evenodd" xmlns:xlink="http://www.w3.org/1999/xlink">
<g><path style="opacity:0.996" fill="#f8cd55" d="M 44.5,11.5 C 45.5,12.8333 46.5,14.1667 47.5,15.5C 44.7212,15.2786 42.0545,15.612 39.5,16.5C 38.3995,15.3951 37.7329,14.0618 37.5,12.5C 39.717,11.6314 42.0504,11.298 44.5,11.5 Z"/></g>
<g><path style="opacity:1" fill="#fad974" d="M 37.5,12.5 C 37.7329,14.0618 38.3995,15.3951 39.5,16.5C 36.6733,17.1084 34.0067,18.1084 31.5,19.5C 31.2671,17.9382 30.6005,16.6049 29.5,15.5C 32.0067,14.1084 34.6733,13.1084 37.5,12.5 Z"/></g>
<g><path style="opacity:1" fill="#f2b41b" d="M 44.5,11.5 C 71.5185,11.8515 84.5185,25.5181 83.5,52.5C 83.1667,52.5 82.8333,52.5 82.5,52.5C 83.1717,49.0581 82.1717,46.3914 79.5,44.5C 78.5508,32.9284 72.8841,24.595 62.5,19.5C 57.9498,16.9161 52.9498,15.5828 47.5,15.5C 46.5,14.1667 45.5,12.8333 44.5,11.5 Z"/></g>
<g><path style="opacity:1" fill="#d58e16" d="M 47.5,15.5 C 52.9498,15.5828 57.9498,16.9161 62.5,19.5C 57.853,18.704 53.1863,18.0373 48.5,17.5C 46.8333,17.5 45.1667,17.5 43.5,17.5C 39.8835,17.8993 36.5502,18.8993 33.5,20.5C 28.5965,23.0675 24.2631,26.4008 20.5,30.5C 20.5,29.8333 20.5,29.1667 20.5,28.5C 23.8761,25.1218 27.5428,22.1218 31.5,19.5C 34.0067,18.1084 36.6733,17.1084 39.5,16.5C 42.0545,15.612 44.7212,15.2786 47.5,15.5 Z"/></g>
<g><path style="opacity:1" fill="#e48f0f" d="M 43.5,17.5 C 49.8641,25.8641 57.1975,33.1975 65.5,39.5C 63.1667,39.5 60.8333,39.5 58.5,39.5C 56.5,39.5 54.5,39.5 52.5,39.5C 51.6441,35.4299 50.4774,31.4299 49,27.5C 48.2825,26.5494 47.4491,26.3828 46.5,27C 45.9152,28.3024 45.2485,29.469 44.5,30.5C 40.8333,27.1667 37.1667,23.8333 33.5,20.5C 36.5502,18.8993 39.8835,17.8993 43.5,17.5 Z"/></g>
<g><path style="opacity:1" fill="#e3860b" d="M 43.5,17.5 C 45.1667,17.5 46.8333,17.5 48.5,17.5C 58.2195,28.2209 68.5529,38.2209 79.5,47.5C 78.962,49.1172 78.6287,50.7839 78.5,52.5C 73.0453,49.3837 69.0453,45.0504 66.5,39.5C 66.1667,39.5 65.8333,39.5 65.5,39.5C 57.1975,33.1975 49.8641,25.8641 43.5,17.5 Z"/></g>
<g><path style="opacity:1" fill="#e17e07" d="M 48.5,17.5 C 53.1863,18.0373 57.853,18.704 62.5,19.5C 72.8841,24.595 78.5508,32.9284 79.5,44.5C 79.5,45.5 79.5,46.5 79.5,47.5C 68.5529,38.2209 58.2195,28.2209 48.5,17.5 Z"/></g>
<g><path style="opacity:0.862" fill="#fceba4" d="M 29.5,15.5 C 30.6005,16.6049 31.2671,17.9382 31.5,19.5C 27.5428,22.1218 23.8761,25.1218 20.5,28.5C 19.5,27.8333 18.5,27.1667 17.5,26.5C 20.2019,21.4666 24.2019,17.8 29.5,15.5 Z"/></g>
<g><path style="opacity:1" fill="#e79d17" d="M 33.5,20.5 C 37.1667,23.8333 40.8333,27.1667 44.5,30.5C 44.5674,31.9587 44.2341,33.2921 43.5,34.5C 43.4431,35.609 43.1098,36.609 42.5,37.5C 42.5,38.8333 41.8333,39.5 40.5,39.5C 38.8333,39.5 37.1667,39.5 35.5,39.5C 34.5,39.5 33.5,39.5 32.5,39.5C 30.2188,39.0773 28.5521,39.744 27.5,41.5C 24.8697,39.3719 22.3697,37.0386 20,34.5C 19.805,33.1807 19.9717,31.8474 20.5,30.5C 24.2631,26.4008 28.5965,23.0675 33.5,20.5 Z"/></g>
<g><path style="opacity:1" fill="#fade80" d="M 17.5,26.5 C 18.5,27.1667 19.5,27.8333 20.5,28.5C 20.5,29.1667 20.5,29.8333 20.5,30.5C 18.2295,32.6123 16.8961,35.279 16.5,38.5C 14.953,37.2318 13.953,35.5652 13.5,33.5C 14.0787,30.6689 15.412,28.3356 17.5,26.5 Z"/></g>
<g><path style="opacity:1" fill="#fce28b" d="M 43.5,34.5 C 49.3599,37.6829 54.3599,42.0162 58.5,47.5C 58.5,48.1667 58.1667,48.5 57.5,48.5C 56.6618,48.8417 56.3284,49.5084 56.5,50.5C 53.1124,44.7787 48.4457,40.4453 42.5,37.5C 43.1098,36.609 43.4431,35.609 43.5,34.5 Z"/></g>
<g><path style="opacity:1" fill="#e48f10" d="M 20.5,30.5 C 19.9717,31.8474 19.805,33.1807 20,34.5C 22.3697,37.0386 24.8697,39.3719 27.5,41.5C 30.6809,43.8373 34.0142,46.004 37.5,48C 38.3366,49.0113 38.67,50.1779 38.5,51.5C 36.9261,53.1016 36.2594,55.1016 36.5,57.5C 35.8333,58.1667 35.1667,58.8333 34.5,59.5C 28.5353,54.0362 22.7019,48.3696 17,42.5C 16.6174,43.056 16.1174,43.3893 15.5,43.5C 15.366,41.7085 15.6993,40.0418 16.5,38.5C 16.8961,35.279 18.2295,32.6123 20.5,30.5 Z"/></g>
<g><path style="opacity:1" fill="#feefab" d="M 42.5,37.5 C 48.4457,40.4453 53.1124,44.7787 56.5,50.5C 57.5664,52.7014 58.233,55.0347 58.5,57.5C 52.1667,51.8333 46.1667,45.8333 40.5,39.5C 41.8333,39.5 42.5,38.8333 42.5,37.5 Z"/></g>
<g><path style="opacity:1" fill="#fadb78" d="M 32.5,39.5 C 37.5,44.8333 42.5,50.1667 47.5,55.5C 46.8333,55.8333 46.1667,56.1667 45.5,56.5C 43.4268,54.4202 41.0934,52.7536 38.5,51.5C 38.67,50.1779 38.3366,49.0113 37.5,48C 34.0142,46.004 30.6809,43.8373 27.5,41.5C 28.5521,39.744 30.2188,39.0773 32.5,39.5 Z"/></g>
<g><path style="opacity:1" fill="#fce38c" d="M 32.5,39.5 C 33.5,39.5 34.5,39.5 35.5,39.5C 41.8923,45.8882 47.8923,52.5549 53.5,59.5C 51.5,58.1667 49.5,56.8333 47.5,55.5C 42.5,50.1667 37.5,44.8333 32.5,39.5 Z"/></g>
<g><path style="opacity:1" fill="#fdeba0" d="M 35.5,39.5 C 37.1667,39.5 38.8333,39.5 40.5,39.5C 46.1667,45.8333 52.1667,51.8333 58.5,57.5C 59.339,58.6412 60.0057,59.9745 60.5,61.5C 57.8565,62.3667 55.5232,61.7 53.5,59.5C 47.8923,52.5549 41.8923,45.8882 35.5,39.5 Z"/></g>
<g><path style="opacity:1" fill="#f5be2f" d="M 58.5,39.5 C 60.8333,39.5 63.1667,39.5 65.5,39.5C 65.8333,39.5 66.1667,39.5 66.5,39.5C 66.6574,42.344 65.324,44.0107 62.5,44.5C 61.1667,42.8333 59.8333,41.1667 58.5,39.5 Z"/></g>
<g><path style="opacity:1" fill="#f8d261" d="M 58.5,39.5 C 59.8333,41.1667 61.1667,42.8333 62.5,44.5C 61.205,45.4884 59.8717,46.4884 58.5,47.5C 54.3599,42.0162 49.3599,37.6829 43.5,34.5C 44.2341,33.2921 44.5674,31.9587 44.5,30.5C 45.2485,29.469 45.9152,28.3024 46.5,27C 47.4491,26.3828 48.2825,26.5494 49,27.5C 50.4774,31.4299 51.6441,35.4299 52.5,39.5C 54.5,39.5 56.5,39.5 58.5,39.5 Z"/></g>
<g><path style="opacity:1" fill="#f7ce58" d="M 13.5,33.5 C 13.953,35.5652 14.953,37.2318 16.5,38.5C 15.6993,40.0418 15.366,41.7085 15.5,43.5C 15.5,44.5 15.5,45.5 15.5,46.5C 14.1667,45.5 12.8333,44.5 11.5,43.5C 11.322,39.8776 11.9886,36.5443 13.5,33.5 Z"/></g>
<g><path style="opacity:1" fill="#e4880c" d="M 34.5,59.5 C 34.5,60.5 34.5,61.5 34.5,62.5C 36.2161,62.3713 37.8828,62.038 39.5,61.5C 44.5734,65.0656 49.2401,69.2323 53.5,74C 52.5842,74.2784 51.9175,74.7784 51.5,75.5C 49.8333,75.5 48.1667,75.5 46.5,75.5C 44.2646,75.7947 42.2646,75.4614 40.5,74.5C 41.552,74.6495 42.552,74.4828 43.5,74C 34.6667,65.1667 25.8333,56.3333 17,47.5C 16.51,48.7932 16.3433,50.1266 16.5,51.5C 15.5489,50.0813 15.2155,48.4147 15.5,46.5C 15.5,45.5 15.5,44.5 15.5,43.5C 16.1174,43.3893 16.6174,43.056 17,42.5C 22.7019,48.3696 28.5353,54.0362 34.5,59.5 Z"/></g>
<g><path style="opacity:1" fill="#f6c94d" d="M 79.5,44.5 C 82.1717,46.3914 83.1717,49.0581 82.5,52.5C 81.871,55.3973 80.871,58.064 79.5,60.5C 79.573,58.9731 78.9063,57.9731 77.5,57.5C 77.6287,55.7839 77.962,54.1172 78.5,52.5C 78.6287,50.7839 78.962,49.1172 79.5,47.5C 79.5,46.5 79.5,45.5 79.5,44.5 Z"/></g>
<g><path style="opacity:1" fill="#e69614" d="M 66.5,39.5 C 69.0453,45.0504 73.0453,49.3837 78.5,52.5C 77.962,54.1172 77.6287,55.7839 77.5,57.5C 75.8333,59.5 74.1667,61.5 72.5,63.5C 66.5,59.5 61.5,54.5 57.5,48.5C 58.1667,48.5 58.5,48.1667 58.5,47.5C 59.8717,46.4884 61.205,45.4884 62.5,44.5C 65.324,44.0107 66.6574,42.344 66.5,39.5 Z"/></g>
<g><path style="opacity:1" fill="#e27d06" d="M 40.5,74.5 C 39.5,74.5 38.5,74.5 37.5,74.5C 26.6689,70.3354 19.6689,62.6687 16.5,51.5C 16.3433,50.1266 16.51,48.7932 17,47.5C 25.8333,56.3333 34.6667,65.1667 43.5,74C 42.552,74.4828 41.552,74.6495 40.5,74.5 Z"/></g>
<g><path style="opacity:1" fill="#f6c94b" d="M 38.5,51.5 C 41.0934,52.7536 43.4268,54.4202 45.5,56.5C 44.8333,57.1667 44.1667,57.8333 43.5,58.5C 42.1667,59.1667 40.8333,59.8333 39.5,60.5C 38.1667,59.8333 37.1667,58.8333 36.5,57.5C 36.2594,55.1016 36.9261,53.1016 38.5,51.5 Z"/></g>
<g><path style="opacity:0.744" fill="#cf7304" d="M 11.5,52.5 C 14.1903,60.5279 18.857,67.1946 25.5,72.5C 25.5674,73.9587 25.2341,75.2921 24.5,76.5C 16.5184,70.5405 12.185,62.5405 11.5,52.5 Z"/></g>
<g><path style="opacity:1" fill="#f2b41d" d="M 36.5,57.5 C 37.1667,58.8333 38.1667,59.8333 39.5,60.5C 39.5,60.8333 39.5,61.1667 39.5,61.5C 37.8828,62.038 36.2161,62.3713 34.5,62.5C 34.5,61.5 34.5,60.5 34.5,59.5C 35.1667,58.8333 35.8333,58.1667 36.5,57.5 Z"/></g>
<g><path style="opacity:1" fill="#e69414" d="M 43.5,58.5 C 48.8333,63.1667 53.8333,68.1667 58.5,73.5C 56.2986,74.5664 53.9653,75.233 51.5,75.5C 51.9175,74.7784 52.5842,74.2784 53.5,74C 49.2401,69.2323 44.5734,65.0656 39.5,61.5C 39.5,61.1667 39.5,60.8333 39.5,60.5C 40.8333,59.8333 42.1667,59.1667 43.5,58.5 Z"/></g>
<g><path style="opacity:1" fill="#e79f1a" d="M 57.5,48.5 C 61.5,54.5 66.5,59.5 72.5,63.5C 71.8333,64.5 71.1667,65.5 70.5,66.5C 67.0017,69.6588 63.0017,71.9921 58.5,73.5C 53.8333,68.1667 48.8333,63.1667 43.5,58.5C 44.1667,57.8333 44.8333,57.1667 45.5,56.5C 46.1667,56.1667 46.8333,55.8333 47.5,55.5C 49.5,56.8333 51.5,58.1667 53.5,59.5C 55.5232,61.7 57.8565,62.3667 60.5,61.5C 60.0057,59.9745 59.339,58.6412 58.5,57.5C 58.233,55.0347 57.5664,52.7014 56.5,50.5C 56.3284,49.5084 56.6618,48.8417 57.5,48.5 Z"/></g>
<g><path style="opacity:0.792" fill="#cf740a" d="M 82.5,52.5 C 82.8333,52.5 83.1667,52.5 83.5,52.5C 82.5795,64.3945 76.9129,73.0611 66.5,78.5C 66.5,77.1667 66.5,75.8333 66.5,74.5C 69.4323,73.2003 71.7656,71.2003 73.5,68.5C 75.9748,66.2297 77.9748,63.563 79.5,60.5C 80.871,58.064 81.871,55.3973 82.5,52.5 Z"/></g>
<g><path style="opacity:1" fill="#fae089" d="M 77.5,57.5 C 78.9063,57.9731 79.573,58.9731 79.5,60.5C 77.9748,63.563 75.9748,66.2297 73.5,68.5C 73.1788,66.9519 72.1788,66.2852 70.5,66.5C 71.1667,65.5 71.8333,64.5 72.5,63.5C 74.1667,61.5 75.8333,59.5 77.5,57.5 Z"/></g>
<g><path style="opacity:1" fill="#f2b31b" d="M 11.5,43.5 C 12.8333,44.5 14.1667,45.5 15.5,46.5C 15.2155,48.4147 15.5489,50.0813 16.5,51.5C 19.6689,62.6687 26.6689,70.3354 37.5,74.5C 38.94,76.9486 40.94,78.6153 43.5,79.5C 36.8605,78.7327 30.8605,76.3994 25.5,72.5C 18.857,67.1946 14.1903,60.5279 11.5,52.5C 11.5,49.5 11.5,46.5 11.5,43.5 Z"/></g>
<g><path style="opacity:1" fill="#fbe495" d="M 70.5,66.5 C 72.1788,66.2852 73.1788,66.9519 73.5,68.5C 71.7656,71.2003 69.4323,73.2003 66.5,74.5C 64.7028,75.7298 62.7028,76.3964 60.5,76.5C 59.0937,76.0269 58.427,75.0269 58.5,73.5C 63.0017,71.9921 67.0017,69.6588 70.5,66.5 Z"/></g>
<g><path style="opacity:1" fill="#f9d467" d="M 58.5,73.5 C 58.427,75.0269 59.0937,76.0269 60.5,76.5C 58.1617,78.0395 55.4951,78.7062 52.5,78.5C 49.6874,78.9754 47.6874,77.9754 46.5,75.5C 48.1667,75.5 49.8333,75.5 51.5,75.5C 53.9653,75.233 56.2986,74.5664 58.5,73.5 Z"/></g>
<g><path style="opacity:0.964" fill="#d38c14" d="M 25.5,72.5 C 30.8605,76.3994 36.8605,78.7327 43.5,79.5C 46.7131,79.81 49.7131,79.4767 52.5,78.5C 55.4951,78.7062 58.1617,78.0395 60.5,76.5C 62.7028,76.3964 64.7028,75.7298 66.5,74.5C 66.5,75.8333 66.5,77.1667 66.5,78.5C 60.8522,82.3763 54.5189,84.043 47.5,83.5C 39.0004,83.7769 31.3337,81.4436 24.5,76.5C 25.2341,75.2921 25.5674,73.9587 25.5,72.5 Z"/></g>
<g><path style="opacity:1" fill="#f5c644" d="M 37.5,74.5 C 38.5,74.5 39.5,74.5 40.5,74.5C 42.2646,75.4614 44.2646,75.7947 46.5,75.5C 47.6874,77.9754 49.6874,78.9754 52.5,78.5C 49.7131,79.4767 46.7131,79.81 43.5,79.5C 40.94,78.6153 38.94,76.9486 37.5,74.5 Z"/></g>
</svg>
