<?xml version="1.0" encoding="UTF-8"?>
<!DOCTYPE svg PUBLIC "-//W3C//DTD SVG 1.1//EN" "http://www.w3.org/Graphics/SVG/1.1/DTD/svg11.dtd">
<svg xmlns="http://www.w3.org/2000/svg" version="1.1" width="512px" height="512px" style="shape-rendering:geometricPrecision; text-rendering:geometricPrecision; image-rendering:optimizeQuality; fill-rule:evenodd; clip-rule:evenodd" xmlns:xlink="http://www.w3.org/1999/xlink">
<g><path style="opacity:0.997" fill="#3949aa" d="M 232.5,-0.5 C 247.833,-0.5 263.167,-0.5 278.5,-0.5C 368.144,10.3879 435.644,54.7213 481,132.5C 497.695,163.971 507.861,197.304 511.5,232.5C 511.5,247.833 511.5,263.167 511.5,278.5C 510.479,282.98 509.813,287.647 509.5,292.5C 508.778,292.918 508.278,293.584 508,294.5C 502.298,288.63 496.465,282.964 490.5,277.5C 479.833,266.167 468.833,255.167 457.5,244.5C 446.5,232.833 435.167,221.5 423.5,210.5C 404.5,190.833 385.167,171.5 365.5,152.5C 350.202,136.701 334.702,121.035 319,105.5C 318.831,117.674 318.331,129.674 317.5,141.5C 309.35,142.493 301.017,142.826 292.5,142.5C 263.498,142.333 234.498,142.5 205.5,143C 217.702,155.035 229.702,167.202 241.5,179.5C 216.167,179.5 190.833,179.5 165.5,179.5C 165.5,192.167 165.5,204.833 165.5,217.5C 178.344,217.171 191.011,217.505 203.5,218.5C 191.495,218.333 179.495,218.5 167.5,219C 179.368,231.035 191.368,242.869 203.5,254.5C 206.133,279.654 202.966,303.987 194,327.5C 185.328,346.01 172.494,361.01 155.5,372.5C 162.171,383.472 169.505,393.805 177.5,403.5C 185.445,413.113 194.111,422.113 203.5,430.5C 214.5,442.167 225.833,453.5 237.5,464.5C 248.167,475.833 259.167,486.833 270.5,497.5C 274.5,501.833 278.5,506.167 282.5,510.5C 280.901,510.232 279.568,510.566 278.5,511.5C 263.167,511.5 247.833,511.5 232.5,511.5C 142.856,500.612 75.3562,456.279 30,378.5C 13.3053,347.029 3.1386,313.696 -0.5,278.5C -0.5,263.167 -0.5,247.833 -0.5,232.5C 10.3875,142.857 54.7208,75.3573 132.5,30C 163.971,13.3053 197.304,3.1386 232.5,-0.5 Z"/></g>
<g><path style="opacity:1" fill="#abb2db" d="M 317.5,104.5 C 279.833,104.5 242.167,104.5 204.5,104.5C 204.5,116.833 204.5,129.167 204.5,141.5C 203.505,129.011 203.171,116.344 203.5,103.5C 241.67,103.168 279.67,103.501 317.5,104.5 Z"/></g>
<g><path style="opacity:1" fill="#fefffe" d="M 317.5,104.5 C 317.5,116.833 317.5,129.167 317.5,141.5C 279.833,141.5 242.167,141.5 204.5,141.5C 204.5,129.167 204.5,116.833 204.5,104.5C 242.167,104.5 279.833,104.5 317.5,104.5 Z"/></g>
<g><path style="opacity:1" fill="#1a237e" d="M 292.5,142.5 C 280.5,154.833 268.5,167.167 256.5,179.5C 251.5,179.5 246.5,179.5 241.5,179.5C 229.702,167.202 217.702,155.035 205.5,143C 234.498,142.5 263.498,142.333 292.5,142.5 Z"/></g>
<g><path style="opacity:1" fill="#1e2884" d="M 365.5,152.5 C 357.556,161.78 349.223,170.78 340.5,179.5C 312.5,179.5 284.5,179.5 256.5,179.5C 268.5,167.167 280.5,154.833 292.5,142.5C 301.017,142.826 309.35,142.493 317.5,141.5C 318.331,129.674 318.831,117.674 319,105.5C 334.702,121.035 350.202,136.701 365.5,152.5 Z"/></g>
<g><path style="opacity:1" fill="#fcfcfd" d="M 241.5,179.5 C 246.5,179.5 251.5,179.5 256.5,179.5C 284.5,179.5 312.5,179.5 340.5,179.5C 345.5,179.5 350.5,179.5 355.5,179.5C 355.5,192.167 355.5,204.833 355.5,217.5C 341.167,217.5 326.833,217.5 312.5,217.5C 312.168,263.336 312.501,309.003 313.5,354.5C 315.176,362.176 319.843,366.843 327.5,368.5C 336.652,369.494 345.985,369.827 355.5,369.5C 355.5,382.167 355.5,394.833 355.5,407.5C 345.494,407.666 335.494,407.5 325.5,407C 317.731,405.726 310.398,403.226 303.5,399.5C 288.774,390.431 279.441,377.431 275.5,360.5C 274.556,343.195 274.223,325.861 274.5,308.5C 274.5,278.167 274.5,247.833 274.5,217.5C 263.5,217.5 252.5,217.5 241.5,217.5C 241.667,243.835 241.5,270.169 241,296.5C 238.457,318.628 231.624,339.295 220.5,358.5C 209.256,376.412 194.922,391.412 177.5,403.5C 169.505,393.805 162.171,383.472 155.5,372.5C 172.494,361.01 185.328,346.01 194,327.5C 202.966,303.987 206.133,279.654 203.5,254.5C 203.5,242.5 203.5,230.5 203.5,218.5C 191.011,217.505 178.344,217.171 165.5,217.5C 165.5,204.833 165.5,192.167 165.5,179.5C 190.833,179.5 216.167,179.5 241.5,179.5 Z"/></g>
<g><path style="opacity:1" fill="#273391" d="M 365.5,152.5 C 385.167,171.5 404.5,190.833 423.5,210.5C 387.713,247.956 351.046,284.956 313.5,321.5C 313.5,287.167 313.5,252.833 313.5,218.5C 327.677,218.829 341.677,218.496 355.5,217.5C 355.5,204.833 355.5,192.167 355.5,179.5C 350.5,179.5 345.5,179.5 340.5,179.5C 349.223,170.78 357.556,161.78 365.5,152.5 Z"/></g>
<g><path style="opacity:1" fill="#1b247f" d="M 203.5,218.5 C 203.5,230.5 203.5,242.5 203.5,254.5C 191.368,242.869 179.368,231.035 167.5,219C 179.495,218.5 191.495,218.333 203.5,218.5 Z"/></g>
<g><path style="opacity:1" fill="#2c3999" d="M 423.5,210.5 C 435.167,221.5 446.5,232.833 457.5,244.5C 417.418,286.083 376.751,327.25 335.5,368C 332.854,368.497 330.187,368.664 327.5,368.5C 319.843,366.843 315.176,362.176 313.5,354.5C 313.5,343.5 313.5,332.5 313.5,321.5C 351.046,284.956 387.713,247.956 423.5,210.5 Z"/></g>
<g><path style="opacity:1" fill="#5b63aa" d="M 355.5,217.5 C 341.677,218.496 327.677,218.829 313.5,218.5C 313.5,252.833 313.5,287.167 313.5,321.5C 313.5,332.5 313.5,343.5 313.5,354.5C 312.501,309.003 312.168,263.336 312.5,217.5C 326.833,217.5 341.167,217.5 355.5,217.5 Z"/></g>
<g><path style="opacity:1" fill="#252f8c" d="M 274.5,308.5 C 256.868,325.632 239.368,342.965 222,360.5C 221.283,359.956 220.783,359.289 220.5,358.5C 231.624,339.295 238.457,318.628 241,296.5C 241.5,270.169 241.667,243.835 241.5,217.5C 252.5,217.5 263.5,217.5 274.5,217.5C 274.5,247.833 274.5,278.167 274.5,308.5 Z"/></g>
<g><path style="opacity:1" fill="#313fa0" d="M 457.5,244.5 C 468.833,255.167 479.833,266.167 490.5,277.5C 418.417,351.084 345.75,424.25 272.5,497C 271.906,497.464 271.239,497.631 270.5,497.5C 259.167,486.833 248.167,475.833 237.5,464.5C 260.116,443.551 282.116,421.884 303.5,399.5C 310.398,403.226 317.731,405.726 325.5,407C 335.494,407.5 345.494,407.666 355.5,407.5C 355.5,394.833 355.5,382.167 355.5,369.5C 345.985,369.827 336.652,369.494 327.5,368.5C 330.187,368.664 332.854,368.497 335.5,368C 376.751,327.25 417.418,286.083 457.5,244.5 Z"/></g>
<g><path style="opacity:0.998" fill="#3544a5" d="M 490.5,277.5 C 496.465,282.964 502.298,288.63 508,294.5C 508.278,293.584 508.778,292.918 509.5,292.5C 508.217,300.916 506.55,309.25 504.5,317.5C 503.883,317.389 503.383,317.056 503,316.5C 440.833,378.667 378.667,440.833 316.5,503C 317.448,503.483 318.448,503.649 319.5,503.5C 307.551,507.216 295.218,509.55 282.5,510.5C 278.5,506.167 274.5,501.833 270.5,497.5C 271.239,497.631 271.906,497.464 272.5,497C 345.75,424.25 418.417,351.084 490.5,277.5 Z"/></g>
<g><path style="opacity:1" fill="#283492" d="M 274.5,308.5 C 274.223,325.861 274.556,343.195 275.5,360.5C 252.035,383.465 228.701,406.632 205.5,430C 204.906,430.464 204.239,430.631 203.5,430.5C 194.111,422.113 185.445,413.113 177.5,403.5C 194.922,391.412 209.256,376.412 220.5,358.5C 220.783,359.289 221.283,359.956 222,360.5C 239.368,342.965 256.868,325.632 274.5,308.5 Z"/></g>
<g><path style="opacity:0.979" fill="#3848aa" d="M 504.5,317.5 C 486.673,384.475 448.673,436.642 390.5,474C 368.439,487.697 344.773,497.53 319.5,503.5C 318.448,503.649 317.448,503.483 316.5,503C 378.667,440.833 440.833,378.667 503,316.5C 503.383,317.056 503.883,317.389 504.5,317.5 Z"/></g>
<g><path style="opacity:1" fill="#2c3a99" d="M 275.5,360.5 C 279.441,377.431 288.774,390.431 303.5,399.5C 282.116,421.884 260.116,443.551 237.5,464.5C 225.833,453.5 214.5,442.167 203.5,430.5C 204.239,430.631 204.906,430.464 205.5,430C 228.701,406.632 252.035,383.465 275.5,360.5 Z"/></g>
</svg>
