<?xml version="1.0" encoding="UTF-8"?>
<!DOCTYPE svg PUBLIC "-//W3C//DTD SVG 1.1//EN" "http://www.w3.org/Graphics/SVG/1.1/DTD/svg11.dtd">
<svg xmlns="http://www.w3.org/2000/svg" version="1.1" width="48px" height="48px" style="shape-rendering:geometricPrecision; text-rendering:geometricPrecision; image-rendering:optimizeQuality; fill-rule:evenodd; clip-rule:evenodd" xmlns:xlink="http://www.w3.org/1999/xlink">
<g><path style="opacity:0.965" fill="#0ac852" d="M 34.5,6.5 C 24.4223,13.917 14.089,20.917 3.5,27.5C 3.08267,9.02297 12.0827,1.18964 30.5,4C 32.0664,4.6082 33.3998,5.44153 34.5,6.5 Z"/></g>
<g><path style="opacity:0.964" fill="#eee007" d="M 34.5,6.5 C 35.7095,6.93205 36.7095,7.59872 37.5,8.5C 26.5178,15.8075 15.5178,23.1408 4.5,30.5C 3.89022,29.609 3.55688,28.609 3.5,27.5C 14.089,20.917 24.4223,13.917 34.5,6.5 Z"/></g>
<g><path style="opacity:0.987" fill="#293437" d="M 37.5,8.5 C 39.9501,10.6291 41.6167,13.2957 42.5,16.5C 31.4822,23.8592 20.4822,31.1925 9.5,38.5C 7.04993,36.3709 5.38326,33.7043 4.5,30.5C 15.5178,23.1408 26.5178,15.8075 37.5,8.5 Z"/></g>
<g><path style="opacity:0.963" fill="#eee118" d="M 42.5,16.5 C 43.1098,17.391 43.4431,18.391 43.5,19.5C 32.911,26.083 22.5777,33.083 12.5,40.5C 11.2905,40.0679 10.2905,39.4013 9.5,38.5C 20.4822,31.1925 31.4822,23.8592 42.5,16.5 Z"/></g>
<g><path style="opacity:0.969" fill="#0da9f2" d="M 43.5,19.5 C 43.9173,37.977 34.9173,45.8104 16.5,43C 14.9336,42.3918 13.6002,41.5585 12.5,40.5C 22.5777,33.083 32.911,26.083 43.5,19.5 Z"/></g>
</svg>
