<?xml version="1.0" encoding="UTF-8"?>
<!DOCTYPE svg PUBLIC "-//W3C//DTD SVG 1.1//EN" "http://www.w3.org/Graphics/SVG/1.1/DTD/svg11.dtd">
<svg xmlns="http://www.w3.org/2000/svg" version="1.1" width="512px" height="512px" style="shape-rendering:geometricPrecision; text-rendering:geometricPrecision; image-rendering:optimizeQuality; fill-rule:evenodd; clip-rule:evenodd" xmlns:xlink="http://www.w3.org/1999/xlink">
<g><path style="opacity:0.995" fill="#00b0fe" d="M 232.5,-0.5 C 247.833,-0.5 263.167,-0.5 278.5,-0.5C 376.441,11.636 446.941,61.9693 490,150.5C 501.263,176.892 508.43,204.225 511.5,232.5C 511.5,234.167 511.5,235.833 511.5,237.5C 507.833,234.167 504.167,230.833 500.5,227.5C 493.5,219.833 486.167,212.5 478.5,205.5C 472.833,199.167 466.833,193.167 460.5,187.5C 454.5,180.833 448.167,174.5 441.5,168.5C 435.833,162.167 429.833,156.167 423.5,150.5C 408.833,135.167 393.833,120.167 378.5,105.5C 377.282,104.269 375.949,103.102 374.5,102C 295.5,101.333 216.5,101.333 137.5,102C 135.667,102.5 134.5,103.667 134,105.5C 133.333,124.167 133.333,142.833 134,161.5C 135.039,162.71 136.206,163.71 137.5,164.5C 137.5,165.167 137.833,165.5 138.5,165.5C 145.833,173.5 153.5,181.167 161.5,188.5C 165.167,192.5 168.833,196.5 172.5,200.5C 161.986,200.172 151.653,200.506 141.5,201.5C 138.909,202.254 137.076,203.921 136,206.5C 135.333,219.5 135.333,232.5 136,245.5C 137.36,248.023 139.193,250.023 141.5,251.5C 145.5,255.833 149.5,260.167 153.5,264.5C 149.298,264.183 145.298,264.517 141.5,265.5C 138.909,266.254 137.076,267.921 136,270.5C 135.333,283.5 135.333,296.5 136,309.5C 136.785,311.286 137.951,312.786 139.5,314C 145.859,314.169 152.193,314.669 158.5,315.5C 148.81,327.356 139.31,339.356 130,351.5C 129.333,369.5 129.333,387.5 130,405.5C 130.69,407.35 131.856,408.684 133.5,409.5C 144.5,421.167 155.833,432.5 167.5,443.5C 173.167,449.833 179.167,455.833 185.5,461.5C 191.5,468.167 197.833,474.5 204.5,480.5C 211.167,487.833 218.167,494.833 225.5,501.5C 228.5,504.833 231.5,508.167 234.5,511.5C 233.833,511.5 233.167,511.5 232.5,511.5C 134.558,499.363 64.058,449.03 21,360.5C 9.73692,334.108 2.57026,306.775 -0.5,278.5C -0.5,263.167 -0.5,247.833 -0.5,232.5C 11.636,134.559 61.9693,64.0588 150.5,21C 176.892,9.73692 204.225,2.57026 232.5,-0.5 Z"/></g>
<g><path style="opacity:1" fill="#fdfefe" d="M 378.5,105.5 C 378.961,123.902 378.461,142.235 377,160.5C 366.666,173.664 356.166,186.664 345.5,199.5C 344.957,199.56 344.624,199.893 344.5,200.5C 348.783,201.492 353.116,201.826 357.5,201.5C 360.946,202.612 362.946,204.945 363.5,208.5C 363.5,220.833 363.5,233.167 363.5,245.5C 362.023,247.807 360.023,249.64 357.5,251C 339.167,251.333 320.833,251.667 302.5,252C 299.285,255.709 296.285,259.542 293.5,263.5C 292.957,263.56 292.624,263.893 292.5,264.5C 314.156,265.5 335.823,265.833 357.5,265.5C 360.946,266.612 362.946,268.945 363.5,272.5C 363.667,284.838 363.5,297.171 363,309.5C 362.215,311.286 361.049,312.786 359.5,314C 322.998,314.167 286.664,314.667 250.5,315.5C 242.628,325.394 234.628,335.228 226.5,345C 239.829,345.5 253.163,345.667 266.5,345.5C 278.833,345.5 291.167,345.5 303.5,345.5C 315.833,345.5 328.167,345.5 340.5,345.5C 352.838,345.333 365.171,345.5 377.5,346C 378.527,346.513 379.527,347.013 380.5,347.5C 381.234,348.708 381.567,350.041 381.5,351.5C 381.667,369.503 381.5,387.503 381,405.5C 380.5,407.333 379.333,408.5 377.5,409C 370.174,409.5 362.841,409.666 355.5,409.5C 343.167,409.5 330.833,409.5 318.5,409.5C 304.167,409.5 289.833,409.5 275.5,409.5C 263.167,409.5 250.833,409.5 238.5,409.5C 226.167,409.5 213.833,409.5 201.5,409.5C 178.833,409.5 156.167,409.5 133.5,409.5C 131.856,408.684 130.69,407.35 130,405.5C 129.333,387.5 129.333,369.5 130,351.5C 139.31,339.356 148.81,327.356 158.5,315.5C 152.193,314.669 145.859,314.169 139.5,314C 137.951,312.786 136.785,311.286 136,309.5C 135.333,296.5 135.333,283.5 136,270.5C 137.076,267.921 138.909,266.254 141.5,265.5C 161.178,265.833 180.845,265.5 200.5,264.5C 203.643,260.189 206.977,256.022 210.5,252C 199.172,251.5 187.838,251.333 176.5,251.5C 164.833,251.5 153.167,251.5 141.5,251.5C 139.193,250.023 137.36,248.023 136,245.5C 135.333,232.5 135.333,219.5 136,206.5C 137.076,203.921 138.909,202.254 141.5,201.5C 178.506,201.833 215.506,201.5 252.5,200.5C 261.833,188.833 271.167,177.167 280.5,165.5C 232.838,164.5 185.171,164.167 137.5,164.5C 136.206,163.71 135.039,162.71 134,161.5C 133.333,142.833 133.333,124.167 134,105.5C 134.5,103.667 135.667,102.5 137.5,102C 216.5,101.333 295.5,101.333 374.5,102C 375.949,103.102 377.282,104.269 378.5,105.5 Z"/></g>
<g><path style="opacity:1" fill="#028cca" d="M 378.5,105.5 C 393.833,120.167 408.833,135.167 423.5,150.5C 404.202,170.299 384.702,189.965 365,209.5C 364.617,208.944 364.117,208.611 363.5,208.5C 362.946,204.945 360.946,202.612 357.5,201.5C 353.5,200.833 349.5,200.167 345.5,199.5C 356.166,186.664 366.666,173.664 377,160.5C 378.461,142.235 378.961,123.902 378.5,105.5 Z"/></g>
<g><path style="opacity:1" fill="#0091d1" d="M 423.5,150.5 C 429.833,156.167 435.833,162.167 441.5,168.5C 416.252,195.249 390.419,221.582 364,247.5C 363.536,246.906 363.369,246.239 363.5,245.5C 363.5,233.167 363.5,220.833 363.5,208.5C 364.117,208.611 364.617,208.944 365,209.5C 384.702,189.965 404.202,170.299 423.5,150.5 Z"/></g>
<g><path style="opacity:1" fill="#008fcf" d="M 138.5,165.5 C 153.833,165.5 169.167,165.5 184.5,165.5C 177.167,173.5 169.5,181.167 161.5,188.5C 153.5,181.167 145.833,173.5 138.5,165.5 Z"/></g>
<g><path style="opacity:1" fill="#0097db" d="M 184.5,165.5 C 194.167,165.5 203.833,165.5 213.5,165.5C 202.167,177.167 190.833,188.833 179.5,200.5C 177.167,200.5 174.833,200.5 172.5,200.5C 168.833,196.5 165.167,192.5 161.5,188.5C 169.5,181.167 177.167,173.5 184.5,165.5 Z"/></g>
<g><path style="opacity:1" fill="#00a0e8" d="M 213.5,165.5 C 223.839,165.334 234.172,165.5 244.5,166C 233.167,177.333 221.833,188.667 210.5,200C 200.172,200.5 189.839,200.666 179.5,200.5C 190.833,188.833 202.167,177.167 213.5,165.5 Z"/></g>
<g><path style="opacity:1" fill="#2eaff6" d="M 137.5,164.5 C 185.171,164.167 232.838,164.5 280.5,165.5C 271.167,177.167 261.833,188.833 252.5,200.5C 215.506,201.5 178.506,201.833 141.5,201.5C 151.653,200.506 161.986,200.172 172.5,200.5C 174.833,200.5 177.167,200.5 179.5,200.5C 189.839,200.666 200.172,200.5 210.5,200C 221.833,188.667 233.167,177.333 244.5,166C 234.172,165.5 223.839,165.334 213.5,165.5C 203.833,165.5 194.167,165.5 184.5,165.5C 169.167,165.5 153.833,165.5 138.5,165.5C 137.833,165.5 137.5,165.167 137.5,164.5 Z"/></g>
<g><path style="opacity:1" fill="#0094d6" d="M 441.5,168.5 C 448.167,174.5 454.5,180.833 460.5,187.5C 428.868,219.632 397.035,251.632 365,283.5C 364.823,279.644 364.323,275.977 363.5,272.5C 362.946,268.945 360.946,266.612 357.5,265.5C 336.167,264.833 314.833,264.167 293.5,263.5C 296.285,259.542 299.285,255.709 302.5,252C 320.833,251.667 339.167,251.333 357.5,251C 360.023,249.64 362.023,247.807 363.5,245.5C 363.369,246.239 363.536,246.906 364,247.5C 390.419,221.582 416.252,195.249 441.5,168.5 Z"/></g>
<g><path style="opacity:1" fill="#0c9ade" d="M 460.5,187.5 C 466.833,193.167 472.833,199.167 478.5,205.5C 478.631,206.239 478.464,206.906 478,207.5C 431.965,253.368 386.132,299.368 340.5,345.5C 328.167,345.5 315.833,345.5 303.5,345.5C 312.964,335.535 322.631,325.702 332.5,316C 320.171,315.5 307.838,315.333 295.5,315.5C 280.5,315.5 265.5,315.5 250.5,315.5C 286.664,314.667 322.998,314.167 359.5,314C 361.049,312.786 362.215,311.286 363,309.5C 363.5,297.171 363.667,284.838 363.5,272.5C 364.323,275.977 364.823,279.644 365,283.5C 397.035,251.632 428.868,219.632 460.5,187.5 Z"/></g>
<g><path style="opacity:1" fill="#68c3ec" d="M 345.5,199.5 C 349.5,200.167 353.5,200.833 357.5,201.5C 353.116,201.826 348.783,201.492 344.5,200.5C 344.624,199.893 344.957,199.56 345.5,199.5 Z"/></g>
<g><path style="opacity:1" fill="#009de4" d="M 478.5,205.5 C 486.167,212.5 493.5,219.833 500.5,227.5C 460.833,267.833 420.833,307.833 380.5,347.5C 379.527,347.013 378.527,346.513 377.5,346C 365.171,345.5 352.838,345.333 340.5,345.5C 386.132,299.368 431.965,253.368 478,207.5C 478.464,206.906 478.631,206.239 478.5,205.5 Z"/></g>
<g><path style="opacity:1" fill="#00a1ea" d="M 500.5,227.5 C 504.167,230.833 507.833,234.167 511.5,237.5C 511.5,243.167 511.5,248.833 511.5,254.5C 468.535,296.965 425.701,339.632 383,382.5C 382.83,371.992 382.33,361.659 381.5,351.5C 381.567,350.041 381.234,348.708 380.5,347.5C 420.833,307.833 460.833,267.833 500.5,227.5 Z"/></g>
<g><path style="opacity:1" fill="#0095d8" d="M 141.5,251.5 C 153.167,251.5 164.833,251.5 176.5,251.5C 172.704,255.798 168.704,259.964 164.5,264C 160.848,264.499 157.182,264.665 153.5,264.5C 149.5,260.167 145.5,255.833 141.5,251.5 Z"/></g>
<g><path style="opacity:1" fill="#28acf2" d="M 176.5,251.5 C 187.838,251.333 199.172,251.5 210.5,252C 206.977,256.022 203.643,260.189 200.5,264.5C 180.845,265.5 161.178,265.833 141.5,265.5C 145.298,264.517 149.298,264.183 153.5,264.5C 157.182,264.665 160.848,264.499 164.5,264C 168.704,259.964 172.704,255.798 176.5,251.5 Z"/></g>
<g><path style="opacity:0.999" fill="#00a6f0" d="M 511.5,254.5 C 511.5,256.5 511.5,258.5 511.5,260.5C 510.696,272.123 509.196,283.789 507,295.5C 435.583,366.416 364.75,437.75 294.5,509.5C 288.966,509.668 283.633,510.335 278.5,511.5C 270.5,511.5 262.5,511.5 254.5,511.5C 288.167,477.5 321.833,443.5 355.5,409.5C 362.841,409.666 370.174,409.5 377.5,409C 379.333,408.5 380.5,407.333 381,405.5C 381.5,387.503 381.667,369.503 381.5,351.5C 382.33,361.659 382.83,371.992 383,382.5C 425.701,339.632 468.535,296.965 511.5,254.5 Z"/></g>
<g><path style="opacity:1" fill="#76cbf1" d="M 293.5,263.5 C 314.833,264.167 336.167,264.833 357.5,265.5C 335.823,265.833 314.156,265.5 292.5,264.5C 292.624,263.893 292.957,263.56 293.5,263.5 Z"/></g>
<g><path style="opacity:0.998" fill="#00aaf6" d="M 511.5,260.5 C 511.5,266.5 511.5,272.5 511.5,278.5C 510.009,289.06 508.343,299.727 506.5,310.5C 505.414,310.62 504.747,311.287 504.5,312.5C 501.336,323.155 498.169,333.822 495,344.5C 444.272,395.395 393.438,446.062 342.5,496.5C 326.998,502.377 310.998,506.71 294.5,509.5C 364.75,437.75 435.583,366.416 507,295.5C 509.196,283.789 510.696,272.123 511.5,260.5 Z"/></g>
<g><path style="opacity:1" fill="#0190d1" d="M 250.5,315.5 C 265.5,315.5 280.5,315.5 295.5,315.5C 285.833,325.5 276.167,335.5 266.5,345.5C 253.163,345.667 239.829,345.5 226.5,345C 234.628,335.228 242.628,325.394 250.5,315.5 Z"/></g>
<g><path style="opacity:1" fill="#0094d7" d="M 295.5,315.5 C 307.838,315.333 320.171,315.5 332.5,316C 322.631,325.702 312.964,335.535 303.5,345.5C 291.167,345.5 278.833,345.5 266.5,345.5C 276.167,335.5 285.833,325.5 295.5,315.5 Z"/></g>
<g><path style="opacity:0.994" fill="#00adfb" d="M 506.5,310.5 C 486.256,393.566 437.589,453.399 360.5,490C 354.655,492.67 348.655,494.836 342.5,496.5C 393.438,446.062 444.272,395.395 495,344.5C 498.169,333.822 501.336,323.155 504.5,312.5C 504.747,311.287 505.414,310.62 506.5,310.5 Z"/></g>
<g><path style="opacity:1" fill="#0090d1" d="M 133.5,409.5 C 156.167,409.5 178.833,409.5 201.5,409.5C 190.5,421.167 179.167,432.5 167.5,443.5C 155.833,432.5 144.5,421.167 133.5,409.5 Z"/></g>
<g><path style="opacity:1" fill="#0094d7" d="M 201.5,409.5 C 213.833,409.5 226.167,409.5 238.5,409.5C 221.449,427.552 203.783,444.885 185.5,461.5C 179.167,455.833 173.167,449.833 167.5,443.5C 179.167,432.5 190.5,421.167 201.5,409.5 Z"/></g>
<g><path style="opacity:1" fill="#0099dd" d="M 238.5,409.5 C 250.833,409.5 263.167,409.5 275.5,409.5C 252.167,433.5 228.5,457.167 204.5,480.5C 197.833,474.5 191.5,468.167 185.5,461.5C 203.783,444.885 221.449,427.552 238.5,409.5 Z"/></g>
<g><path style="opacity:1" fill="#009de4" d="M 275.5,409.5 C 289.833,409.5 304.167,409.5 318.5,409.5C 288.117,440.883 257.117,471.55 225.5,501.5C 218.167,494.833 211.167,487.833 204.5,480.5C 228.5,457.167 252.167,433.5 275.5,409.5 Z"/></g>
<g><path style="opacity:0.999" fill="#00a1ea" d="M 318.5,409.5 C 330.833,409.5 343.167,409.5 355.5,409.5C 321.833,443.5 288.167,477.5 254.5,511.5C 247.833,511.5 241.167,511.5 234.5,511.5C 231.5,508.167 228.5,504.833 225.5,501.5C 257.117,471.55 288.117,440.883 318.5,409.5 Z"/></g>
</svg>
