<?xml version="1.0" encoding="UTF-8"?>
<!DOCTYPE svg PUBLIC "-//W3C//DTD SVG 1.1//EN" "http://www.w3.org/Graphics/SVG/1.1/DTD/svg11.dtd">
<svg xmlns="http://www.w3.org/2000/svg" version="1.1" width="512px" height="512px" style="shape-rendering:geometricPrecision; text-rendering:geometricPrecision; image-rendering:optimizeQuality; fill-rule:evenodd; clip-rule:evenodd" xmlns:xlink="http://www.w3.org/1999/xlink">
<g><path style="opacity:0.934" fill="#000000" d="M 233.5,-0.5 C 248.167,-0.5 262.833,-0.5 277.5,-0.5C 367.555,10.0943 435.388,54.4276 481,132.5C 497.855,164.278 508.022,197.945 511.5,233.5C 511.5,248.167 511.5,262.833 511.5,277.5C 500.906,367.555 456.572,435.388 378.5,481C 346.722,497.855 313.055,508.022 277.5,511.5C 262.833,511.5 248.167,511.5 233.5,511.5C 143.445,500.906 75.612,456.572 30,378.5C 13.1449,346.722 2.97822,313.055 -0.5,277.5C -0.5,262.833 -0.5,248.167 -0.5,233.5C 10.0943,143.445 54.4276,75.612 132.5,30C 164.278,13.1449 197.945,2.97822 233.5,-0.5 Z M 238.5,16.5 C 333.927,14.1239 407.76,52.4573 460,131.5C 498.372,198.224 504.706,267.891 479,340.5C 447.513,417.32 391.68,466.487 311.5,488C 210.277,507.488 127.443,477.322 63,397.5C 14.2533,327.203 3.91994,251.536 32,170.5C 71.0476,79.2927 139.881,27.9593 238.5,16.5 Z M 252.5,165.5 C 254.527,165.338 256.527,165.505 258.5,166C 267.823,172.324 275.489,180.324 281.5,190C 264.167,190.667 246.833,190.667 229.5,190C 235.708,180.297 243.375,172.131 252.5,165.5 Z M 219.5,207.5 C 243.5,207.5 267.5,207.5 291.5,207.5C 309.129,256.176 301.129,300.01 267.5,339C 263.894,341.968 259.894,344.135 255.5,345.5C 251.106,344.135 247.106,341.968 243.5,339C 209.871,300.01 201.871,256.176 219.5,207.5 Z M 165.5,228.5 C 171.467,235.727 172.634,243.727 169,252.5C 163.589,263.657 157.922,274.657 152,285.5C 147.119,279.186 145.785,272.186 148,264.5C 154.117,252.601 159.95,240.601 165.5,228.5 Z M 325.5,228.5 C 337.473,234.487 349.473,240.487 361.5,246.5C 360.421,255.765 355.088,261.598 345.5,264C 331.007,265.511 322.007,259.177 318.5,245C 320.701,239.433 323.034,233.933 325.5,228.5 Z"/></g>
<g><path style="opacity:0.874" fill="#000000" d="M 253.5,25.5 C 263.24,26.3107 266.407,31.3107 263,40.5C 258,45.8333 253,45.8333 248,40.5C 244.838,33.5142 246.671,28.5142 253.5,25.5 Z"/></g>
<g><path style="opacity:0.874" fill="#000000" d="M 206.5,30.5 C 215.871,30.0341 219.705,34.3675 218,43.5C 215.103,48.1549 210.937,49.6549 205.5,48C 201.275,45.3372 199.775,41.5039 201,36.5C 202.36,33.9774 204.193,31.9774 206.5,30.5 Z"/></g>
<g><path style="opacity:0.874" fill="#000000" d="M 298.5,30.5 C 308.849,30.6843 312.349,35.6843 309,45.5C 305.662,48.3181 301.829,49.1515 297.5,48C 292.845,45.1034 291.345,40.9367 293,35.5C 294.406,33.2563 296.239,31.5897 298.5,30.5 Z"/></g>
<g><path style="opacity:0.887" fill="#000000" d="M 164.5,44.5 C 173.003,45.5079 176.17,50.1745 174,58.5C 169.527,63.708 164.527,64.3746 159,60.5C 154.924,53.0062 156.758,47.6729 164.5,44.5 Z"/></g>
<g><path style="opacity:0.885" fill="#000000" d="M 343.5,44.5 C 352.732,45.6276 355.899,50.6276 353,59.5C 347.373,64.7015 342.04,64.3682 337,58.5C 334.746,51.5755 336.913,46.9089 343.5,44.5 Z"/></g>
<g><path style="opacity:0.879" fill="#000000" d="M 124.5,67.5 C 133.004,68.5085 136.17,73.1751 134,81.5C 129.902,86.758 125.069,87.5913 119.5,84C 114.662,76.3548 116.328,70.8548 124.5,67.5 Z"/></g>
<g><path style="opacity:0.88" fill="#000000" d="M 384.5,67.5 C 394,69.4867 396.5,74.82 392,83.5C 386.377,87.7409 381.377,87.0742 377,81.5C 374.684,74.0327 377.184,69.3661 384.5,67.5 Z"/></g>
<g><path style="opacity:0.938" fill="#000000" d="M 190.5,97.5 C 194.514,97.56 197.681,99.2267 200,102.5C 209.667,122.167 219.333,141.833 229,161.5C 236.202,153.815 245.035,149.148 255.5,147.5C 265.965,149.148 274.798,153.815 282,161.5C 291.667,141.833 301.333,122.167 311,102.5C 316.333,95.8333 321.667,95.8333 327,102.5C 327.701,105.928 327.368,109.262 326,112.5C 315.226,133.715 304.726,155.049 294.5,176.5C 301.561,188.624 307.561,201.291 312.5,214.5C 320.961,198.412 329.294,182.245 337.5,166C 332.363,165.925 327.529,164.758 323,162.5C 319.439,156.178 320.939,151.345 327.5,148C 336.5,147.333 345.5,147.333 354.5,148C 359.426,150.353 361.26,154.186 360,159.5C 351.023,177.287 342.19,195.121 333.5,213C 360.623,226.062 387.623,239.395 414.5,253C 420.808,260.661 419.308,266.161 410,269.5C 399.433,265.05 389.099,260.05 379,254.5C 373.975,268.695 364.142,277.362 349.5,280.5C 349.667,306.169 349.5,331.835 349,357.5C 344.026,364.918 338.693,365.252 333,358.5C 332.5,332.502 332.333,306.502 332.5,280.5C 326.954,279.895 321.954,277.895 317.5,274.5C 314.818,288.058 310.818,301.224 305.5,314C 312.243,327.319 318.577,340.819 324.5,354.5C 323.736,360.099 320.569,363.099 315,363.5C 312.077,363.205 309.743,361.871 308,359.5C 303.667,350.833 299.333,342.167 295,333.5C 287.733,345.435 277.899,354.601 265.5,361C 255,364.63 245.334,362.964 236.5,356C 228.635,349.434 221.802,341.934 216,333.5C 211.667,342.167 207.333,350.833 203,359.5C 199.522,363.662 195.356,364.496 190.5,362C 188.516,359.866 187.182,357.366 186.5,354.5C 192.423,340.819 198.757,327.319 205.5,314C 201.922,305.263 198.756,296.43 196,287.5C 191.057,291.369 186.39,291.036 182,286.5C 180.85,284.246 180.516,281.913 181,279.5C 182.766,274.802 184.933,270.302 187.5,266C 185.421,265.192 183.421,265.359 181.5,266.5C 172.667,284.167 163.833,301.833 155,319.5C 154.667,331.833 154.333,344.167 154,356.5C 150.924,363.413 146.09,364.913 139.5,361C 138.283,359.352 137.45,357.519 137,355.5C 136.333,343.167 136.333,330.833 137,318.5C 138.747,313.171 140.914,308.004 143.5,303C 129.168,288.336 126.001,271.502 134,252.5C 140.667,239.167 147.333,225.833 154,212.5C 154.833,200.153 154.666,187.82 153.5,175.5C 145.167,171.333 136.833,167.167 128.5,163C 123.715,155.186 125.715,150.02 134.5,147.5C 153.283,156.058 171.949,164.891 190.5,174C 197.123,179.473 197.123,184.806 190.5,190C 183.659,190.675 177.492,188.842 172,184.5C 171.333,193.167 171.333,201.833 172,210.5C 184.168,220.141 189.668,232.808 188.5,248.5C 190.167,248.5 191.833,248.5 193.5,248.5C 194.753,222.409 202.42,198.409 216.5,176.5C 205.669,154.172 194.836,131.838 184,109.5C 182.541,103.474 184.708,99.4741 190.5,97.5 Z M 252.5,165.5 C 243.375,172.131 235.708,180.297 229.5,190C 246.833,190.667 264.167,190.667 281.5,190C 275.489,180.324 267.823,172.324 258.5,166C 256.527,165.505 254.527,165.338 252.5,165.5 Z M 219.5,207.5 C 201.871,256.176 209.871,300.01 243.5,339C 247.106,341.968 251.106,344.135 255.5,345.5C 259.894,344.135 263.894,341.968 267.5,339C 301.129,300.01 309.129,256.176 291.5,207.5C 267.5,207.5 243.5,207.5 219.5,207.5 Z M 165.5,228.5 C 159.95,240.601 154.117,252.601 148,264.5C 145.785,272.186 147.119,279.186 152,285.5C 157.922,274.657 163.589,263.657 169,252.5C 172.634,243.727 171.467,235.727 165.5,228.5 Z M 325.5,228.5 C 323.034,233.933 320.701,239.433 318.5,245C 322.007,259.177 331.007,265.511 345.5,264C 355.088,261.598 360.421,255.765 361.5,246.5C 349.473,240.487 337.473,234.487 325.5,228.5 Z"/></g>
<g><path style="opacity:0.87" fill="#000000" d="M 89.5,98.5 C 99.4372,99.2634 102.604,104.263 99,113.5C 94,118.833 89,118.833 84,113.5C 80.8377,106.514 82.6711,101.514 89.5,98.5 Z"/></g>
<g><path style="opacity:0.87" fill="#000000" d="M 417.5,98.5 C 427.24,99.3107 430.407,104.311 427,113.5C 422,118.833 417,118.833 412,113.5C 408.651,106.397 410.484,101.397 417.5,98.5 Z"/></g>
<g><path style="opacity:0.881" fill="#000000" d="M 60.5,136.5 C 70.1583,134.993 74.325,138.993 73,148.5C 70.6471,153.426 66.8138,155.26 61.5,154C 56.2685,151.367 54.4351,147.201 56,141.5C 57.025,139.313 58.525,137.646 60.5,136.5 Z"/></g>
<g><path style="opacity:0.881" fill="#000000" d="M 442.5,136.5 C 452.158,134.993 456.325,138.993 455,148.5C 452.647,153.426 448.814,155.26 443.5,154C 438.268,151.367 436.435,147.201 438,141.5C 439.025,139.313 440.525,137.646 442.5,136.5 Z"/></g>
<g><path style="opacity:0.872" fill="#000000" d="M 41.5,178.5 C 51.6591,177.158 55.8257,181.491 54,191.5C 51.4586,196.069 47.6253,197.569 42.5,196C 34.844,190.569 34.5106,184.736 41.5,178.5 Z"/></g>
<g><path style="opacity:0.869" fill="#000000" d="M 461.5,178.5 C 471.107,176.942 475.274,180.942 474,190.5C 471.367,195.732 467.201,197.565 461.5,196C 456.845,193.103 455.345,188.937 457,183.5C 458.025,181.313 459.525,179.646 461.5,178.5 Z"/></g>
<g><path style="opacity:0.873" fill="#000000" d="M 32.5,223.5 C 41.905,222.735 45.905,226.901 44.5,236C 41.9477,240.939 37.9477,242.605 32.5,241C 24.882,235.014 24.882,229.181 32.5,223.5 Z"/></g>
<g><path style="opacity:0.873" fill="#000000" d="M 471.5,223.5 C 481.362,222.848 485.195,227.182 483,236.5C 480.459,241.069 476.625,242.569 471.5,241C 463.581,235.173 463.581,229.34 471.5,223.5 Z"/></g>
<g><path style="opacity:0.922" fill="#000000" d="M 248.5,224.5 C 273.515,223.02 286.015,234.687 286,259.5C 281.285,265.532 276.285,265.865 271,260.5C 270.64,253.04 267.473,247.207 261.5,243C 255.209,240.465 249.709,241.632 245,246.5C 239.467,255.133 240.967,262.299 249.5,268C 252.424,268.988 255.424,269.654 258.5,270C 265.995,274.838 266.328,280.172 259.5,286C 234.541,286.037 223.041,273.537 225,248.5C 228.349,235.985 236.182,227.985 248.5,224.5 Z"/></g>
<g><path style="opacity:0.873" fill="#000000" d="M 32.5,269.5 C 41.905,268.735 45.905,272.901 44.5,282C 41.9477,286.939 37.9477,288.605 32.5,287C 27.2186,284.154 25.7186,279.987 28,274.5C 29.025,272.313 30.525,270.646 32.5,269.5 Z"/></g>
<g><path style="opacity:0.873" fill="#000000" d="M 471.5,269.5 C 481.746,269.015 485.579,273.681 483,283.5C 477.667,288.833 472.333,288.833 467,283.5C 464.606,277.517 466.106,272.851 471.5,269.5 Z"/></g>
<g><path style="opacity:0.869" fill="#000000" d="M 42.5,314.5 C 52.1569,313.658 55.9902,317.991 54,327.5C 51.1034,332.155 46.9367,333.655 41.5,332C 34.6203,325.772 34.9536,319.939 42.5,314.5 Z"/></g>
<g><path style="opacity:0.872" fill="#000000" d="M 461.5,314.5 C 473.689,314.718 477.023,320.218 471.5,331C 460.431,334.891 455.598,331.058 457,319.5C 458.193,317.503 459.693,315.836 461.5,314.5 Z"/></g>
<g><path style="opacity:0.881" fill="#000000" d="M 61.5,356.5 C 70.4775,356.31 74.3108,360.643 73,369.5C 70.1034,374.155 65.9367,375.655 60.5,374C 55.9315,371.459 54.4315,367.625 56,362.5C 57.3597,359.977 59.193,357.977 61.5,356.5 Z"/></g>
<g><path style="opacity:0.881" fill="#000000" d="M 443.5,356.5 C 452.478,356.31 456.311,360.643 455,369.5C 452.103,374.155 447.937,375.655 442.5,374C 437.931,371.459 436.431,367.625 438,362.5C 439.36,359.977 441.193,357.977 443.5,356.5 Z"/></g>
<g><path style="opacity:0.933" fill="#000000" d="M 240.5,378.5 C 271.712,377.413 302.378,380.913 332.5,389C 338.719,393.562 339.052,398.562 333.5,404C 326.617,407.859 319.45,411.026 312,413.5C 304.918,411.478 302.084,406.978 303.5,400C 271.5,394 239.5,394 207.5,400C 208.914,407.319 205.914,411.819 198.5,413.5C 190.031,410.683 182.198,406.683 175,401.5C 172.829,397.343 173.329,393.509 176.5,390C 197.509,383.667 218.842,379.833 240.5,378.5 Z"/></g>
<g><path style="opacity:0.87" fill="#000000" d="M 90.5,393.5 C 98.8777,394.581 102.044,399.248 100,407.5C 94.9581,413.602 89.6248,413.935 84,408.5C 80.7498,401.01 82.9165,396.01 90.5,393.5 Z"/></g>
<g><path style="opacity:0.87" fill="#000000" d="M 418.5,393.5 C 427.568,394.969 430.401,399.969 427,408.5C 421.375,413.935 416.042,413.602 411,407.5C 409.101,400.291 411.601,395.624 418.5,393.5 Z"/></g>
<g><path style="opacity:0.88" fill="#000000" d="M 124.5,424.5 C 133.003,425.508 136.17,430.175 134,438.5C 128.96,444.368 123.627,444.702 118,439.5C 115.302,432.24 117.469,427.24 124.5,424.5 Z"/></g>
<g><path style="opacity:0.879" fill="#000000" d="M 383.5,424.5 C 392.732,425.628 395.899,430.628 393,439.5C 387.373,444.702 382.04,444.368 377,438.5C 374.746,431.576 376.913,426.909 383.5,424.5 Z"/></g>
<g><path style="opacity:0.885" fill="#000000" d="M 164.5,447.5 C 173.004,448.508 176.17,453.175 174,461.5C 169.902,466.758 165.069,467.591 159.5,464C 154.662,456.355 156.328,450.855 164.5,447.5 Z"/></g>
<g><path style="opacity:0.887" fill="#000000" d="M 344.5,447.5 C 353.741,449.648 356.241,454.982 352,463.5C 346.377,467.741 341.377,467.074 337,461.5C 334.684,454.033 337.184,449.366 344.5,447.5 Z"/></g>
<g><path style="opacity:0.874" fill="#000000" d="M 205.5,462.5 C 215.659,461.158 219.826,465.491 218,475.5C 213.015,481.665 207.682,481.998 202,476.5C 199.445,470.782 200.612,466.116 205.5,462.5 Z"/></g>
<g><path style="opacity:0.874" fill="#000000" d="M 297.5,462.5 C 307.139,460.974 311.306,464.974 310,474.5C 304.785,482.09 299.118,482.423 293,475.5C 291.379,469.923 292.879,465.589 297.5,462.5 Z"/></g>
<g><path style="opacity:0.874" fill="#000000" d="M 254.5,466.5 C 263.568,467.969 266.401,472.969 263,481.5C 258,486.833 253,486.833 248,481.5C 244.75,474.01 246.917,469.01 254.5,466.5 Z"/></g>
</svg>
