<?xml version="1.0" encoding="UTF-8"?>
<!DOCTYPE svg PUBLIC "-//W3C//DTD SVG 1.1//EN" "http://www.w3.org/Graphics/SVG/1.1/DTD/svg11.dtd">
<svg xmlns="http://www.w3.org/2000/svg" version="1.1" width="512px" height="512px" style="shape-rendering:geometricPrecision; text-rendering:geometricPrecision; image-rendering:optimizeQuality; fill-rule:evenodd; clip-rule:evenodd" xmlns:xlink="http://www.w3.org/1999/xlink">
<g><path style="opacity:0.99" fill="#82b5fa" d="M 263.5,31.5 C 323.645,67.291 384.312,102.291 445.5,136.5C 451.85,145.862 457.183,155.862 461.5,166.5C 444.941,157.883 428.608,148.717 412.5,139C 410.35,137.589 408.016,136.755 405.5,136.5C 373.413,97.6163 332.413,73.9497 282.5,65.5C 283.738,65.19 283.738,64.69 282.5,64C 264.273,53.7258 246.273,43.2258 228.5,32.5C 240.144,31.6388 251.81,31.3054 263.5,31.5 Z"/></g>
<g><path style="opacity:0.992" fill="#84b9fc" d="M 263.5,31.5 C 275.133,31.4583 286.467,32.7917 297.5,35.5C 339.832,60.6685 382.498,85.3352 425.5,109.5C 433.374,117.571 440.041,126.571 445.5,136.5C 384.312,102.291 323.645,67.291 263.5,31.5 Z"/></g>
<g><path style="opacity:0.983" fill="#80b0f8" d="M 228.5,32.5 C 246.273,43.2258 264.273,53.7258 282.5,64C 283.738,64.69 283.738,65.19 282.5,65.5C 273.654,65.0325 264.821,64.3658 256,63.5C 253.813,63.7885 251.646,64.1218 249.5,64.5C 234.531,55.0105 219.198,46.0105 203.5,37.5C 211.565,35.0964 219.898,33.4297 228.5,32.5 Z"/></g>
<g><path style="opacity:0.962" fill="#86bdfe" d="M 297.5,35.5 C 349.018,45.2463 391.684,69.913 425.5,109.5C 382.498,85.3352 339.832,60.6685 297.5,35.5 Z"/></g>
<g><path style="opacity:0.983" fill="#7dabf6" d="M 203.5,37.5 C 219.198,46.0105 234.531,55.0105 249.5,64.5C 237.046,64.7651 224.713,66.0984 212.5,68.5C 200.114,60.8029 187.447,53.4696 174.5,46.5C 183.643,42.1256 193.309,39.1256 203.5,37.5 Z"/></g>
<g><path style="opacity:0.981" fill="#7aa5f3" d="M 174.5,46.5 C 187.447,53.4696 200.114,60.8029 212.5,68.5C 202.874,71.3282 193.208,74.3282 183.5,77.5C 172.334,71.0846 161.334,64.4179 150.5,57.5C 157.964,52.7695 165.964,49.1029 174.5,46.5 Z"/></g>
<g><path style="opacity:0.984" fill="#779ff0" d="M 150.5,57.5 C 161.334,64.4179 172.334,71.0846 183.5,77.5C 176.408,80.8803 169.408,84.5469 162.5,88.5C 152.199,81.6777 141.533,75.3444 130.5,69.5C 136.495,64.4972 143.162,60.4972 150.5,57.5 Z"/></g>
<g><path style="opacity:0.981" fill="#7498ed" d="M 130.5,69.5 C 141.533,75.3444 152.199,81.6777 162.5,88.5C 153.293,93.38 144.626,99.0466 136.5,105.5C 126.3,99.5671 115.967,93.9004 105.5,88.5C 112.976,81.0223 121.309,74.689 130.5,69.5 Z"/></g>
<g><path style="opacity:0.978" fill="#7192ea" d="M 105.5,88.5 C 115.967,93.9004 126.3,99.5671 136.5,105.5C 130.228,110.433 124.228,115.767 118.5,121.5C 109.098,115.442 99.4315,109.776 89.5,104.5C 94.5,98.8333 99.8333,93.5 105.5,88.5 Z"/></g>
<g><path style="opacity:0.984" fill="#6e8ce8" d="M 89.5,104.5 C 99.4315,109.776 109.098,115.442 118.5,121.5C 113.725,127.395 108.725,133.062 103.5,138.5C 95.062,133.108 86.3954,127.941 77.5,123C 76.7476,122.329 76.4142,121.496 76.5,120.5C 80.106,114.562 84.4393,109.229 89.5,104.5 Z"/></g>
<g><path style="opacity:0.982" fill="#6b86e5" d="M 76.5,120.5 C 76.4142,121.496 76.7476,122.329 77.5,123C 86.3954,127.941 95.062,133.108 103.5,138.5C 99.4868,144.537 95.4868,150.537 91.5,156.5C 81.7979,151.321 72.4646,145.655 63.5,139.5C 67.1049,132.609 71.4382,126.275 76.5,120.5 Z"/></g>
<g><path style="opacity:0.981" fill="#7193eb" d="M 241.5,185.5 C 219.5,173.167 197.5,160.833 175.5,148.5C 175.182,129.82 183.849,123.653 201.5,130C 204.106,131.938 205.939,134.438 207,137.5C 207.5,145.827 207.666,154.16 207.5,162.5C 219.432,165.049 229.932,170.382 239,178.5C 240.411,180.65 241.245,182.984 241.5,185.5 Z"/></g>
<g><path style="opacity:0.98" fill="#80b0f8" d="M 405.5,136.5 C 408.016,136.755 410.35,137.589 412.5,139C 428.608,148.717 444.941,157.883 461.5,166.5C 465.093,174.611 468.093,182.944 470.5,191.5C 455.506,182.355 440.506,174.022 425.5,166.5C 419.343,156.193 412.676,146.193 405.5,136.5 Z"/></g>
<g><path style="opacity:0.982" fill="#6880e2" d="M 63.5,139.5 C 72.4646,145.655 81.7979,151.321 91.5,156.5C 87.2134,164.075 83.2134,171.742 79.5,179.5C 69.9669,173.901 60.3003,168.567 50.5,163.5C 54.3409,155.146 58.6743,147.146 63.5,139.5 Z"/></g>
<g><path style="opacity:0.992" fill="#6e8de8" d="M 175.5,148.5 C 197.5,160.833 219.5,173.167 241.5,185.5C 243.696,194.606 240.363,201.106 231.5,205C 222.888,206.694 215.554,204.361 209.5,198C 205.67,196.002 201.67,194.502 197.5,193.5C 196.358,191.567 194.692,190.067 192.5,189C 178.5,181 164.5,173 150.5,165C 151.416,164.722 152.082,164.222 152.5,163.5C 159.734,160.39 167.4,159.056 175.5,159.5C 175.5,155.833 175.5,152.167 175.5,148.5 Z"/></g>
<g><path style="opacity:0.99" fill="#6b86e5" d="M 152.5,163.5 C 152.082,164.222 151.416,164.722 150.5,165C 164.5,173 178.5,181 192.5,189C 194.692,190.067 196.358,191.567 197.5,193.5C 184.622,190.49 171.955,191.156 159.5,195.5C 148.967,189.737 138.634,183.737 128.5,177.5C 132.025,173.817 136.025,170.65 140.5,168C 144.203,165.646 148.203,164.146 152.5,163.5 Z"/></g>
<g><path style="opacity:0.982" fill="#6579df" d="M 50.5,163.5 C 60.3003,168.567 69.9669,173.901 79.5,179.5C 76.88,186.406 74.5467,193.406 72.5,200.5C 62.5,195.167 52.5,189.833 42.5,184.5C 44.8917,177.385 47.5584,170.385 50.5,163.5 Z"/></g>
<g><path style="opacity:0.983" fill="#7dabf6" d="M 470.5,191.5 C 473.341,200.708 475.675,210.041 477.5,219.5C 476.883,219.611 476.383,219.944 476,220.5C 463.85,212.842 451.35,205.842 438.5,199.5C 434.998,188.164 430.665,177.164 425.5,166.5C 440.506,174.022 455.506,182.355 470.5,191.5 Z"/></g>
<g><path style="opacity:0.998" fill="#7aa5f3" d="M 399.5,201.5 C 388.833,195.5 378.167,189.5 367.5,183.5C 365.599,163.22 374.266,156.054 393.5,162C 396.106,163.938 397.939,166.438 399,169.5C 399.5,180.161 399.667,190.828 399.5,201.5 Z"/></g>
<g><path style="opacity:0.998" fill="#7396ec" d="M 303.5,221.5 C 292.833,215.5 282.167,209.5 271.5,203.5C 271.333,192.162 271.5,180.828 272,169.5C 276.473,160.518 283.64,157.351 293.5,160C 298,161.833 301.167,165 303,169.5C 303.5,186.83 303.667,204.163 303.5,221.5 Z"/></g>
<g><path style="opacity:0.982" fill="#687fe2" d="M 128.5,177.5 C 138.634,183.737 148.967,189.737 159.5,195.5C 152.048,198.955 147.048,204.621 144.5,212.5C 143.71,213.609 143.21,214.942 143,216.5C 133.279,210.606 123.445,204.939 113.5,199.5C 116.524,190.776 121.524,183.443 128.5,177.5 Z"/></g>
<g><path style="opacity:1" fill="#779ff0" d="M 367.5,183.5 C 378.167,189.5 388.833,195.5 399.5,201.5C 399.5,210.167 399.5,218.833 399.5,227.5C 389.072,221.072 378.406,215.072 367.5,209.5C 367.5,200.833 367.5,192.167 367.5,183.5 Z"/></g>
<g><path style="opacity:0.984" fill="#6273dc" d="M 42.5,184.5 C 52.5,189.833 62.5,195.167 72.5,200.5C 70.0293,208.05 68.0293,215.717 66.5,223.5C 56.7973,217.315 46.7973,211.648 36.5,206.5C 37.8968,198.98 39.8968,191.647 42.5,184.5 Z"/></g>
<g><path style="opacity:0.99" fill="#6579df" d="M 113.5,199.5 C 123.445,204.939 133.279,210.606 143,216.5C 143.21,214.942 143.71,213.609 144.5,212.5C 143.614,220.784 146.614,227.284 153.5,232C 163.007,237.638 173.34,240.138 184.5,239.5C 205.939,252.392 227.606,265.059 249.5,277.5C 250.298,277.043 250.631,276.376 250.5,275.5C 252.865,279.424 254.365,283.757 255,288.5C 255.713,295.203 255.546,301.87 254.5,308.5C 253.751,307.469 253.085,306.302 252.5,305C 242.139,299.155 231.806,293.321 221.5,287.5C 214.966,278.897 206.3,273.897 195.5,272.5C 168.032,256.263 140.366,240.263 112.5,224.5C 110.995,216.091 111.328,207.758 113.5,199.5 Z"/></g>
<g><path style="opacity:1" fill="#6e8de8" d="M 271.5,203.5 C 282.167,209.5 292.833,215.5 303.5,221.5C 303.5,231.833 303.5,242.167 303.5,252.5C 292.833,246.833 282.167,241.167 271.5,235.5C 271.5,224.833 271.5,214.167 271.5,203.5 Z"/></g>
<g><path style="opacity:0.983" fill="#5f6dd9" d="M 36.5,206.5 C 46.7973,211.648 56.7973,217.315 66.5,223.5C 65.0817,232.773 64.4151,242.107 64.5,251.5C 54.3827,244.413 43.7161,238.08 32.5,232.5C 32.9961,223.693 34.3295,215.026 36.5,206.5 Z"/></g>
<g><path style="opacity:0.98" fill="#7aa5f3" d="M 438.5,199.5 C 451.35,205.842 463.85,212.842 476,220.5C 476.383,219.944 476.883,219.611 477.5,219.5C 478.681,228.793 479.347,238.127 479.5,247.5C 468.184,241.195 456.85,234.861 445.5,228.5C 443.566,218.852 441.233,209.185 438.5,199.5 Z"/></g>
<g><path style="opacity:0.98" fill="#6274dd" d="M 112.5,224.5 C 140.366,240.263 168.032,256.263 195.5,272.5C 183.814,272.193 172.147,271.693 160.5,271C 135.129,265.129 119.129,249.629 112.5,224.5 Z"/></g>
<g><path style="opacity:1" fill="#7396ec" d="M 367.5,209.5 C 378.406,215.072 389.072,221.072 399.5,227.5C 399.5,243.833 399.5,260.167 399.5,276.5C 388.833,270.833 378.167,265.167 367.5,259.5C 367.5,242.833 367.5,226.167 367.5,209.5 Z"/></g>
<g><path style="opacity:0.985" fill="#779ff0" d="M 445.5,228.5 C 456.85,234.861 468.184,241.195 479.5,247.5C 479.5,255.833 479.5,264.167 479.5,272.5C 468.946,267.554 458.613,262.054 448.5,256C 447.901,254.378 447.234,252.878 446.5,251.5C 446.477,243.817 446.143,236.15 445.5,228.5 Z"/></g>
<g><path style="opacity:0.987" fill="#5b66d7" d="M 32.5,232.5 C 43.7161,238.08 54.3827,244.413 64.5,251.5C 64.2271,259.888 64.5604,268.221 65.5,276.5C 64.8826,276.611 64.3826,276.944 64,277.5C 53.057,271.281 42.2237,264.948 31.5,258.5C 31.1968,249.749 31.5301,241.082 32.5,232.5 Z"/></g>
<g><path style="opacity:1" fill="#6b86e5" d="M 271.5,235.5 C 282.167,241.167 292.833,246.833 303.5,252.5C 303.5,261.167 303.5,269.833 303.5,278.5C 292.861,272.512 282.194,266.512 271.5,260.5C 271.5,252.167 271.5,243.833 271.5,235.5 Z"/></g>
<g><path style="opacity:0.966" fill="#677ee1" d="M 250.5,275.5 C 250.631,276.376 250.298,277.043 249.5,277.5C 227.606,265.059 205.939,252.392 184.5,239.5C 207.246,236.793 226.412,243.793 242,260.5C 245.87,264.905 248.703,269.905 250.5,275.5 Z"/></g>
<g><path style="opacity:0.987" fill="#687fe2" d="M 271.5,260.5 C 282.194,266.512 292.861,272.512 303.5,278.5C 302.418,305.917 315.418,319.084 342.5,318C 348.074,316.546 353.074,314.046 357.5,310.5C 367.404,315.442 376.738,321.109 385.5,327.5C 380.267,335.291 373.267,340.958 364.5,344.5C 333.699,326.263 302.699,308.263 271.5,290.5C 271.5,280.5 271.5,270.5 271.5,260.5 Z"/></g>
<g><path style="opacity:0.995" fill="#6e8de8" d="M 367.5,259.5 C 378.167,265.167 388.833,270.833 399.5,276.5C 399.96,286.607 399.293,296.607 397.5,306.5C 387.052,301.442 376.719,296.109 366.5,290.5C 367.427,280.206 367.76,269.872 367.5,259.5 Z"/></g>
<g><path style="opacity:0.985" fill="#5860d3" d="M 31.5,258.5 C 42.2237,264.948 53.057,271.281 64,277.5C 64.3826,276.944 64.8826,276.611 65.5,276.5C 66.4008,285.238 67.7342,293.905 69.5,302.5C 69.719,303.675 69.3857,304.675 68.5,305.5C 56.8162,298.806 45.1495,292.139 33.5,285.5C 31.8429,276.722 31.1762,267.722 31.5,258.5 Z"/></g>
<g><path style="opacity:0.987" fill="#7498ed" d="M 446.5,251.5 C 447.234,252.878 447.901,254.378 448.5,256C 458.613,262.054 468.946,267.554 479.5,272.5C 478.749,282.78 477.082,292.78 474.5,302.5C 474.586,301.504 474.252,300.671 473.5,300C 464.054,294.279 454.388,289.113 444.5,284.5C 446.207,273.592 446.873,262.592 446.5,251.5 Z"/></g>
<g><path style="opacity:0.986" fill="#7192ea" d="M 444.5,284.5 C 454.388,289.113 464.054,294.279 473.5,300C 474.252,300.671 474.586,301.504 474.5,302.5C 473.463,309.98 471.797,317.313 469.5,324.5C 462.235,319.191 454.568,314.358 446.5,310C 444.35,308.589 442.016,307.755 439.5,307.5C 441.95,300.029 443.617,292.362 444.5,284.5 Z"/></g>
<g><path style="opacity:0.982" fill="#565ad1" d="M 33.5,285.5 C 45.1495,292.139 56.8162,298.806 68.5,305.5C 69.3857,304.675 69.719,303.675 69.5,302.5C 73.22,314.629 77.5533,326.629 82.5,338.5C 82.5654,338.938 82.3988,339.272 82,339.5C 67.8531,330.511 53.3531,322.178 38.5,314.5C 36.1888,304.944 34.5221,295.277 33.5,285.5 Z"/></g>
<g><path style="opacity:0.986" fill="#6273dc" d="M 221.5,287.5 C 231.806,293.321 242.139,299.155 252.5,305C 253.085,306.302 253.751,307.469 254.5,308.5C 252.787,314.931 249.787,320.597 245.5,325.5C 235.386,320.944 225.72,315.611 216.5,309.5C 222.339,303.189 224.006,295.856 221.5,287.5 Z"/></g>
<g><path style="opacity:0.977" fill="#6b86e5" d="M 366.5,290.5 C 376.719,296.109 387.052,301.442 397.5,306.5C 394.763,314.318 390.763,321.318 385.5,327.5C 376.738,321.109 367.404,315.442 357.5,310.5C 362.661,304.841 365.661,298.175 366.5,290.5 Z"/></g>
<g><path style="opacity:0.991" fill="#6479df" d="M 271.5,290.5 C 302.699,308.263 333.699,326.263 364.5,344.5C 334.96,357.693 308.794,352.693 286,329.5C 276.69,318.205 271.857,305.205 271.5,290.5 Z"/></g>
<g><path style="opacity:0.986" fill="#5b66d6" d="M 185.5,319.5 C 198.5,327.5 211.5,335.5 224.5,343.5C 219.333,346.668 213.666,348.668 207.5,349.5C 207.5,352.833 207.5,356.167 207.5,359.5C 180.365,344.432 153.365,329.098 126.5,313.5C 131.302,306.273 137.969,303.773 146.5,306C 157.903,314.968 170.903,319.468 185.5,319.5 Z"/></g>
<g><path style="opacity:0.985" fill="#6e8de8" d="M 439.5,307.5 C 442.016,307.755 444.35,308.589 446.5,310C 454.568,314.358 462.235,319.191 469.5,324.5C 467.029,331.246 464.362,337.913 461.5,344.5C 451.967,338.901 442.3,333.567 432.5,328.5C 435.12,321.595 437.453,314.595 439.5,307.5 Z"/></g>
<g><path style="opacity:0.986" fill="#5f6cd9" d="M 216.5,309.5 C 225.72,315.611 235.386,320.944 245.5,325.5C 240.342,333.658 233.342,339.658 224.5,343.5C 211.5,335.5 198.5,327.5 185.5,319.5C 197.152,320.009 207.485,316.675 216.5,309.5 Z"/></g>
<g><path style="opacity:0.977" fill="#6b86e5" d="M 432.5,328.5 C 442.3,333.567 451.967,338.901 461.5,344.5C 458.675,351.484 455.341,358.151 451.5,364.5C 441.798,359.321 432.465,353.655 423.5,347.5C 426.773,341.288 429.773,334.954 432.5,328.5 Z"/></g>
<g><path style="opacity:0.982" fill="#5253ce" d="M 38.5,314.5 C 53.3531,322.178 67.8531,330.511 82,339.5C 82.3988,339.272 82.5654,338.938 82.5,338.5C 90.6727,354.187 100.339,368.853 111.5,382.5C 91.7818,371.557 72.2818,360.224 53,348.5C 52.5357,349.094 52.369,349.761 52.5,350.5C 46.7569,338.998 42.0902,326.998 38.5,314.5 Z"/></g>
<g><path style="opacity:0.985" fill="#4f4dcb" d="M 111.5,382.5 C 140.688,413.935 176.354,434.268 218.5,443.5C 237.833,455.167 257.167,466.833 276.5,478.5C 258.606,479.979 240.606,479.646 222.5,477.5C 222.586,476.504 222.252,475.671 221.5,475C 173.732,447.142 126.066,419.976 78.5,393.5C 68.0775,380.338 59.4108,366.005 52.5,350.5C 52.369,349.761 52.5357,349.094 53,348.5C 72.2818,360.224 91.7818,371.557 111.5,382.5 Z"/></g>
<g><path style="opacity:0.982" fill="#687fe2" d="M 423.5,347.5 C 432.465,353.655 441.798,359.321 451.5,364.5C 447.915,372.011 443.582,379.011 438.5,385.5C 428.5,380.5 418.5,375.5 408.5,370.5C 413.762,362.967 418.762,355.301 423.5,347.5 Z"/></g>
<g><path style="opacity:0.991" fill="#5860d3" d="M 126.5,313.5 C 153.365,329.098 180.365,344.432 207.5,359.5C 209.401,379.78 200.734,386.946 181.5,381C 178.894,379.062 177.061,376.562 176,373.5C 175.5,366.174 175.334,358.841 175.5,351.5C 158.755,350.642 143.755,345.142 130.5,335C 124.267,328.734 122.934,321.567 126.5,313.5 Z"/></g>
<g><path style="opacity:0.983" fill="#6579df" d="M 408.5,370.5 C 418.5,375.5 428.5,380.5 438.5,385.5C 434.215,391.786 429.549,397.786 424.5,403.5C 415.408,398.925 406.408,394.092 397.5,389C 396.619,388.292 395.953,387.458 395.5,386.5C 399.863,381.142 404.197,375.809 408.5,370.5 Z"/></g>
<g><path style="opacity:0.978" fill="#6273dc" d="M 395.5,386.5 C 395.953,387.458 396.619,388.292 397.5,389C 406.408,394.092 415.408,398.925 424.5,403.5C 419.167,409.5 413.5,415.167 407.5,420.5C 397.833,414.331 387.833,408.664 377.5,403.5C 383.474,397.861 389.474,392.195 395.5,386.5 Z"/></g>
<g><path style="opacity:0.972" fill="#4d48c9" d="M 222.5,477.5 C 163.444,467.988 115.444,439.988 78.5,393.5C 126.066,419.976 173.732,447.142 221.5,475C 222.252,475.671 222.586,476.504 222.5,477.5 Z"/></g>
<g><path style="opacity:0.984" fill="#5f6dd9" d="M 377.5,403.5 C 387.833,408.664 397.833,414.331 407.5,420.5C 402.109,426.224 396.109,431.224 389.5,435.5C 378.88,429.529 368.547,423.195 358.5,416.5C 365.036,412.404 371.369,408.07 377.5,403.5 Z"/></g>
<g><path style="opacity:0.981" fill="#5c66d7" d="M 358.5,416.5 C 368.547,423.195 378.88,429.529 389.5,435.5C 381.708,441.615 373.375,446.948 364.5,451.5C 353.666,444.582 342.666,437.915 331.5,431.5C 340.917,427.291 349.917,422.291 358.5,416.5 Z"/></g>
<g><path style="opacity:0.99" fill="#5860d3" d="M 331.5,431.5 C 342.666,437.915 353.666,444.582 364.5,451.5C 357.267,455.949 349.601,459.615 341.5,462.5C 328.171,456.173 315.504,448.84 303.5,440.5C 313.101,438.299 322.435,435.299 331.5,431.5 Z"/></g>
<g><path style="opacity:0.984" fill="#565ad1" d="M 303.5,440.5 C 315.504,448.84 328.171,456.173 341.5,462.5C 332.334,467.001 322.668,470.334 312.5,472.5C 298.727,464.108 284.727,455.941 270.5,448C 271.056,447.617 271.389,447.117 271.5,446.5C 282.359,445.358 293.025,443.358 303.5,440.5 Z"/></g>
<g><path style="opacity:0.979" fill="#5253ce" d="M 218.5,443.5 C 236.127,446.461 253.794,447.461 271.5,446.5C 271.389,447.117 271.056,447.617 270.5,448C 284.727,455.941 298.727,464.108 312.5,472.5C 300.765,475.913 288.765,477.913 276.5,478.5C 257.167,466.833 237.833,455.167 218.5,443.5 Z"/></g>
</svg>
