<?xml version="1.0" encoding="UTF-8"?>
<!DOCTYPE svg PUBLIC "-//W3C//DTD SVG 1.1//EN" "http://www.w3.org/Graphics/SVG/1.1/DTD/svg11.dtd">
<svg xmlns="http://www.w3.org/2000/svg" version="1.1" width="512px" height="512px" style="shape-rendering:geometricPrecision; text-rendering:geometricPrecision; image-rendering:optimizeQuality; fill-rule:evenodd; clip-rule:evenodd" xmlns:xlink="http://www.w3.org/1999/xlink">
<g><path style="opacity:0.934" fill="#000000" d="M 233.5,-0.5 C 248.167,-0.5 262.833,-0.5 277.5,-0.5C 367.555,10.0943 435.388,54.4276 481,132.5C 497.855,164.278 508.022,197.945 511.5,233.5C 511.5,248.167 511.5,262.833 511.5,277.5C 500.906,367.555 456.572,435.388 378.5,481C 346.722,497.855 313.055,508.022 277.5,511.5C 262.833,511.5 248.167,511.5 233.5,511.5C 143.445,500.906 75.612,456.572 30,378.5C 13.1449,346.722 2.97822,313.055 -0.5,277.5C -0.5,262.833 -0.5,248.167 -0.5,233.5C 10.0943,143.445 54.4276,75.612 132.5,30C 164.278,13.1449 197.945,2.97822 233.5,-0.5 Z M 238.5,16.5 C 333.927,14.1239 407.76,52.4573 460,131.5C 498.372,198.224 504.706,267.891 479,340.5C 447.513,417.32 391.68,466.487 311.5,488C 210.277,507.488 127.443,477.322 63,397.5C 14.2533,327.203 3.91994,251.536 32,170.5C 71.0476,79.2927 139.881,27.9593 238.5,16.5 Z M 254.5,101.5 C 256.797,102.835 258.797,104.668 260.5,107C 264.089,108.688 267.756,108.855 271.5,107.5C 269.759,114.852 272.092,120.352 278.5,124C 272.033,127.137 269.7,132.304 271.5,139.5C 268.15,139.335 264.817,139.502 261.5,140C 259.344,141.99 257.344,144.157 255.5,146.5C 253.684,144.183 251.684,142.016 249.5,140C 246.183,139.502 242.85,139.335 239.5,139.5C 241.3,132.304 238.967,127.137 232.5,124C 238.908,120.352 241.241,114.852 239.5,107.5C 246.331,109.784 251.331,107.784 254.5,101.5 Z M 151.5,148.5 C 155.521,151.522 158.855,155.189 161.5,159.5C 122.009,202.789 112.176,252.122 132,307.5C 139.033,324.247 149.033,338.914 162,351.5C 166.372,361.076 170.872,370.576 175.5,380C 146.71,362.507 126.543,337.674 115,305.5C 96.8148,245.918 108.981,193.585 151.5,148.5 Z M 176.5,226.5 C 182.388,236.408 189.388,245.574 197.5,254C 204.235,259.452 211.402,264.286 219,268.5C 227.984,289.743 243.817,297.909 266.5,293C 278.634,288.699 286.967,280.533 291.5,268.5C 310.472,259.361 324.639,245.361 334,226.5C 344.694,260.707 337.694,290.707 313,316.5C 306.774,322.032 299.94,326.698 292.5,330.5C 267.638,327.843 242.804,327.843 218,330.5C 178.407,306.237 164.573,271.57 176.5,226.5 Z M 251.5,345.5 C 277.321,345.807 302.988,347.973 328.5,352C 328.833,352.333 329.167,352.667 329.5,353C 323.013,365.64 317.013,378.473 311.5,391.5C 292.527,389.433 273.527,388.1 254.5,387.5C 236.141,388.144 217.808,389.477 199.5,391.5C 193.987,378.473 187.987,365.64 181.5,353C 191.604,350.442 201.937,348.776 212.5,348C 225.657,347.165 238.657,346.331 251.5,345.5 Z"/></g>
<g><path style="opacity:0.874" fill="#000000" d="M 253.5,25.5 C 263.24,26.3107 266.407,31.3107 263,40.5C 258,45.8333 253,45.8333 248,40.5C 244.838,33.5142 246.671,28.5142 253.5,25.5 Z"/></g>
<g><path style="opacity:0.878" fill="#000000" d="M 206.5,30.5 C 215.53,30.3583 219.363,34.6916 218,43.5C 215.103,48.1549 210.937,49.6549 205.5,48C 201.275,45.3372 199.775,41.5039 201,36.5C 202.36,33.9774 204.193,31.9774 206.5,30.5 Z"/></g>
<g><path style="opacity:0.878" fill="#000000" d="M 298.5,30.5 C 308.849,30.6843 312.349,35.6843 309,45.5C 305.662,48.3181 301.829,49.1515 297.5,48C 292.845,45.1034 291.345,40.9367 293,35.5C 294.73,33.5981 296.563,31.9314 298.5,30.5 Z"/></g>
<g><path style="opacity:0.884" fill="#000000" d="M 164.5,44.5 C 173.003,45.5079 176.17,50.1745 174,58.5C 168.96,64.3682 163.627,64.7015 158,59.5C 155.302,52.24 157.469,47.24 164.5,44.5 Z"/></g>
<g><path style="opacity:0.884" fill="#000000" d="M 343.5,44.5 C 352.732,45.6276 355.899,50.6276 353,59.5C 347.373,64.7015 342.04,64.3682 337,58.5C 334.746,51.5755 336.913,46.9089 343.5,44.5 Z"/></g>
<g><path style="opacity:0.88" fill="#000000" d="M 124.5,67.5 C 133.004,68.5085 136.17,73.1751 134,81.5C 129.902,86.758 125.069,87.5913 119.5,84C 114.662,76.3548 116.328,70.8548 124.5,67.5 Z"/></g>
<g><path style="opacity:0.879" fill="#000000" d="M 384.5,67.5 C 394,69.4867 396.5,74.82 392,83.5C 386.377,87.7409 381.377,87.0742 377,81.5C 374.684,74.0327 377.184,69.3661 384.5,67.5 Z"/></g>
<g><path style="opacity:0.937" fill="#000000" d="M 252.5,76.5 C 255.32,76.2475 257.986,76.7475 260.5,78C 263.531,81.2303 266.197,84.7303 268.5,88.5C 273.177,89.2826 277.843,88.9492 282.5,87.5C 288.082,88.2476 291.082,91.4143 291.5,97C 290.962,100.689 290.295,104.356 289.5,108C 289.833,108.833 290.167,109.667 290.5,110.5C 306.564,119.691 306.397,128.691 290,137.5C 290.108,141.995 290.608,146.495 291.5,151C 290.931,156.402 287.931,159.235 282.5,159.5C 278.132,158.769 273.799,158.269 269.5,158C 266.955,161.59 264.288,165.09 261.5,168.5C 257.5,171.167 253.5,171.167 249.5,168.5C 246.712,165.09 244.045,161.59 241.5,158C 237.201,158.269 232.868,158.769 228.5,159.5C 223.069,159.235 220.069,156.402 219.5,151C 220.392,146.495 220.892,141.995 221,137.5C 204.603,128.691 204.436,119.691 220.5,110.5C 220.833,109.667 221.167,108.833 221.5,108C 216.226,90.7745 222.226,84.6079 239.5,89.5C 243.112,87.9946 245.612,85.3279 247,81.5C 248.73,79.5981 250.563,77.9314 252.5,76.5 Z M 254.5,101.5 C 251.331,107.784 246.331,109.784 239.5,107.5C 241.241,114.852 238.908,120.352 232.5,124C 238.967,127.137 241.3,132.304 239.5,139.5C 242.85,139.335 246.183,139.502 249.5,140C 251.684,142.016 253.684,144.183 255.5,146.5C 257.344,144.157 259.344,141.99 261.5,140C 264.817,139.502 268.15,139.335 271.5,139.5C 269.7,132.304 272.033,127.137 278.5,124C 272.092,120.352 269.759,114.852 271.5,107.5C 267.756,108.855 264.089,108.688 260.5,107C 258.797,104.668 256.797,102.835 254.5,101.5 Z"/></g>
<g><path style="opacity:0.87" fill="#000000" d="M 89.5,98.5 C 99.4372,99.2634 102.604,104.263 99,113.5C 94,118.833 89,118.833 84,113.5C 80.8377,106.514 82.6711,101.514 89.5,98.5 Z"/></g>
<g><path style="opacity:0.87" fill="#000000" d="M 417.5,98.5 C 427.24,99.3107 430.407,104.311 427,113.5C 422,118.833 417,118.833 412,113.5C 408.651,106.397 410.484,101.397 417.5,98.5 Z"/></g>
<g><path style="opacity:0.936" fill="#000000" d="M 336.5,379.5 C 364.617,361.656 384.45,336.989 396,305.5C 399.892,293.039 402.892,280.372 405,267.5C 409.954,262.176 414.954,262.176 420,267.5C 420.346,269.218 420.846,270.885 421.5,272.5C 412.487,336.403 378.82,381.903 320.5,409C 298.89,407.249 277.224,406.082 255.5,405.5C 233.776,406.082 212.11,407.249 190.5,409C 135.688,383.507 102.521,341.007 91,281.5C 83.1334,210.087 108.633,154.253 167.5,114C 171.132,111.35 175.132,109.517 179.5,108.5C 184.819,109.152 187.819,112.152 188.5,117.5C 188.03,119.774 187.03,121.774 185.5,123.5C 178.661,127.752 171.994,132.252 165.5,137C 168.734,140.145 171.734,143.478 174.5,147C 175.5,147.667 176.5,147.667 177.5,147C 182.845,142.495 188.845,139.329 195.5,137.5C 202.608,138.466 205.108,142.466 203,149.5C 202.535,150.931 201.701,152.097 200.5,153C 154.052,181.069 134.219,222.235 141,276.5C 145.553,299.609 155.886,319.609 172,336.5C 178.091,335.152 184.257,333.985 190.5,333C 155.771,300.456 146.271,261.623 162,216.5C 168.264,202.475 177.097,190.308 188.5,180C 196.06,176.948 200.727,179.448 202.5,187.5C 201.902,188.795 201.402,190.128 201,191.5C 196.277,195.72 192.11,200.387 188.5,205.5C 195.014,229.517 209.847,246.183 233,255.5C 235,260.167 237,264.833 239,269.5C 240.739,271.741 242.906,273.408 245.5,274.5C 246.029,258.419 246.862,242.419 248,226.5C 248.903,225.299 250.069,224.465 251.5,224C 257.5,223.333 263.5,223.333 269.5,224C 274.453,228.643 274.787,233.643 270.5,239C 268.323,240.202 265.989,240.702 263.5,240.5C 263.168,251.853 263.501,263.186 264.5,274.5C 270.867,270.619 274.7,264.952 276,257.5C 284.42,252.708 292.587,247.542 300.5,242C 311.285,231.934 318.618,219.767 322.5,205.5C 318.188,200.02 313.688,194.687 309,189.5C 308.223,180.29 312.389,176.79 321.5,179C 356.213,212.218 365.046,251.385 348,296.5C 341.524,310.649 332.358,322.816 320.5,333C 326.758,333.903 332.925,335.07 339,336.5C 370.402,301.547 379.068,261.547 365,216.5C 353.83,188.333 335.163,166.666 309,151.5C 305.427,141.412 308.927,136.912 319.5,138C 324.934,140.797 330.1,143.963 335,147.5C 338.821,144.396 342.321,140.896 345.5,137C 340.344,132.586 334.677,128.919 328.5,126C 321.5,121.361 320.833,116.028 326.5,110C 329.03,108.578 331.697,108.245 334.5,109C 385.001,137.442 414.001,180.609 421.5,238.5C 418.967,247.983 413.633,249.983 405.5,244.5C 400.928,207.027 385.428,175.027 359,148.5C 355.273,151.724 352.106,155.391 349.5,159.5C 388.99,202.784 398.823,252.118 379,307.5C 371.967,324.247 361.967,338.914 349,351.5C 344.547,360.737 340.38,370.07 336.5,379.5 Z M 151.5,148.5 C 108.981,193.585 96.8148,245.918 115,305.5C 126.543,337.674 146.71,362.507 175.5,380C 170.872,370.576 166.372,361.076 162,351.5C 149.033,338.914 139.033,324.247 132,307.5C 112.176,252.122 122.009,202.789 161.5,159.5C 158.855,155.189 155.521,151.522 151.5,148.5 Z M 176.5,226.5 C 164.573,271.57 178.407,306.237 218,330.5C 242.804,327.843 267.638,327.843 292.5,330.5C 299.94,326.698 306.774,322.032 313,316.5C 337.694,290.707 344.694,260.707 334,226.5C 324.639,245.361 310.472,259.361 291.5,268.5C 286.967,280.533 278.634,288.699 266.5,293C 243.817,297.909 227.984,289.743 219,268.5C 211.402,264.286 204.235,259.452 197.5,254C 189.388,245.574 182.388,236.408 176.5,226.5 Z M 251.5,345.5 C 238.657,346.331 225.657,347.165 212.5,348C 201.937,348.776 191.604,350.442 181.5,353C 187.987,365.64 193.987,378.473 199.5,391.5C 217.808,389.477 236.141,388.144 254.5,387.5C 273.527,388.1 292.527,389.433 311.5,391.5C 317.013,378.473 323.013,365.64 329.5,353C 329.167,352.667 328.833,352.333 328.5,352C 302.988,347.973 277.321,345.807 251.5,345.5 Z"/></g>
<g><path style="opacity:0.88" fill="#000000" d="M 60.5,136.5 C 70.1583,134.993 74.325,138.993 73,148.5C 70.6471,153.426 66.8138,155.26 61.5,154C 56.2685,151.367 54.4351,147.201 56,141.5C 57.025,139.313 58.525,137.646 60.5,136.5 Z"/></g>
<g><path style="opacity:0.881" fill="#000000" d="M 442.5,136.5 C 452.158,134.993 456.325,138.993 455,148.5C 452.647,153.426 448.814,155.26 443.5,154C 438.268,151.367 436.435,147.201 438,141.5C 439.025,139.313 440.525,137.646 442.5,136.5 Z"/></g>
<g><path style="opacity:0.873" fill="#000000" d="M 41.5,178.5 C 51.6591,177.158 55.8257,181.491 54,191.5C 51.4586,196.069 47.6253,197.569 42.5,196C 34.844,190.569 34.5106,184.736 41.5,178.5 Z"/></g>
<g><path style="opacity:0.87" fill="#000000" d="M 461.5,178.5 C 471.107,176.942 475.274,180.942 474,190.5C 471.367,195.732 467.201,197.565 461.5,196C 456.845,193.103 455.345,188.937 457,183.5C 458.025,181.313 459.525,179.646 461.5,178.5 Z"/></g>
<g><path style="opacity:0.873" fill="#000000" d="M 32.5,223.5 C 41.905,222.735 45.905,226.901 44.5,236C 41.9477,240.939 37.9477,242.605 32.5,241C 24.882,235.014 24.882,229.181 32.5,223.5 Z"/></g>
<g><path style="opacity:0.876" fill="#000000" d="M 471.5,223.5 C 482.84,223.312 486.34,228.312 482,238.5C 476.719,242.699 471.719,242.366 467,237.5C 464.606,231.517 466.106,226.851 471.5,223.5 Z"/></g>
<g><path style="opacity:0.876" fill="#000000" d="M 32.5,269.5 C 41.905,268.735 45.905,272.901 44.5,282C 41.9477,286.939 37.9477,288.605 32.5,287C 26.6842,283.238 25.5175,278.405 29,272.5C 30.1451,271.364 31.3117,270.364 32.5,269.5 Z"/></g>
<g><path style="opacity:0.874" fill="#000000" d="M 471.5,269.5 C 481.746,269.015 485.579,273.681 483,283.5C 477.667,288.833 472.333,288.833 467,283.5C 464.606,277.517 466.106,272.851 471.5,269.5 Z"/></g>
<g><path style="opacity:0.87" fill="#000000" d="M 42.5,314.5 C 52.1569,313.658 55.9902,317.991 54,327.5C 51.1034,332.155 46.9367,333.655 41.5,332C 34.6203,325.772 34.9536,319.939 42.5,314.5 Z"/></g>
<g><path style="opacity:0.873" fill="#000000" d="M 461.5,314.5 C 473.689,314.718 477.023,320.218 471.5,331C 460.431,334.891 455.598,331.058 457,319.5C 458.193,317.503 459.693,315.836 461.5,314.5 Z"/></g>
<g><path style="opacity:0.881" fill="#000000" d="M 61.5,356.5 C 70.4775,356.31 74.3108,360.643 73,369.5C 70.1034,374.155 65.9367,375.655 60.5,374C 55.9315,371.459 54.4315,367.625 56,362.5C 57.3597,359.977 59.193,357.977 61.5,356.5 Z"/></g>
<g><path style="opacity:0.88" fill="#000000" d="M 443.5,356.5 C 452.478,356.31 456.311,360.643 455,369.5C 452.103,374.155 447.937,375.655 442.5,374C 437.931,371.459 436.431,367.625 438,362.5C 439.36,359.977 441.193,357.977 443.5,356.5 Z"/></g>
<g><path style="opacity:0.87" fill="#000000" d="M 90.5,393.5 C 98.8777,394.581 102.044,399.248 100,407.5C 94.9581,413.602 89.6248,413.935 84,408.5C 80.7498,401.01 82.9165,396.01 90.5,393.5 Z"/></g>
<g><path style="opacity:0.87" fill="#000000" d="M 418.5,393.5 C 427.568,394.969 430.401,399.969 427,408.5C 421.375,413.935 416.042,413.602 411,407.5C 409.101,400.291 411.601,395.624 418.5,393.5 Z"/></g>
<g><path style="opacity:0.879" fill="#000000" d="M 124.5,424.5 C 133.003,425.508 136.17,430.175 134,438.5C 128.96,444.368 123.627,444.702 118,439.5C 115.302,432.24 117.469,427.24 124.5,424.5 Z"/></g>
<g><path style="opacity:0.88" fill="#000000" d="M 383.5,424.5 C 392.732,425.628 395.899,430.628 393,439.5C 387.373,444.702 382.04,444.368 377,438.5C 374.746,431.576 376.913,426.909 383.5,424.5 Z"/></g>
<g><path style="opacity:0.884" fill="#000000" d="M 164.5,447.5 C 173.004,448.508 176.17,453.175 174,461.5C 169.902,466.758 165.069,467.591 159.5,464C 154.662,456.355 156.328,450.855 164.5,447.5 Z"/></g>
<g><path style="opacity:0.884" fill="#000000" d="M 344.5,447.5 C 354,449.487 356.5,454.82 352,463.5C 346.377,467.741 341.377,467.074 337,461.5C 334.684,454.033 337.184,449.366 344.5,447.5 Z"/></g>
<g><path style="opacity:0.878" fill="#000000" d="M 205.5,462.5 C 215.659,461.158 219.826,465.491 218,475.5C 211.833,482.412 206.167,482.079 201,474.5C 199.87,469.375 201.37,465.375 205.5,462.5 Z"/></g>
<g><path style="opacity:0.878" fill="#000000" d="M 297.5,462.5 C 307.139,460.974 311.306,464.974 310,474.5C 304.833,482.079 299.167,482.412 293,475.5C 291.379,469.923 292.879,465.589 297.5,462.5 Z"/></g>
<g><path style="opacity:0.874" fill="#000000" d="M 254.5,466.5 C 263.568,467.969 266.401,472.969 263,481.5C 258,486.833 253,486.833 248,481.5C 244.75,474.01 246.917,469.01 254.5,466.5 Z"/></g>
</svg>
