<?xml version="1.0" encoding="UTF-8"?>
<!DOCTYPE svg PUBLIC "-//W3C//DTD SVG 1.1//EN" "http://www.w3.org/Graphics/SVG/1.1/DTD/svg11.dtd">
<svg xmlns="http://www.w3.org/2000/svg" version="1.1" width="32px" height="32px" style="shape-rendering:geometricPrecision; text-rendering:geometricPrecision; image-rendering:optimizeQuality; fill-rule:evenodd; clip-rule:evenodd" xmlns:xlink="http://www.w3.org/1999/xlink">
<g><path style="opacity:0.263" fill="#fffbf0" d="M 11.5,0.5 C 11.5,0.166667 11.5,-0.166667 11.5,-0.5C 14.1667,-0.5 16.8333,-0.5 19.5,-0.5C 25.2384,1.57282 28.905,5.57282 30.5,11.5C 30.1667,11.5 29.8333,11.5 29.5,11.5C 29.5,11.1667 29.5,10.8333 29.5,10.5C 25.8837,3.02233 19.8837,-0.311003 11.5,0.5 Z"/></g>
<g><path style="opacity:1" fill="#f9d135" d="M 11.5,0.5 C 19.8837,-0.311003 25.8837,3.02233 29.5,10.5C 20.1667,10.5 10.8333,10.5 1.5,10.5C 3.86096,6.13901 7.19429,2.80568 11.5,0.5 Z"/></g>
<g><path style="opacity:1" fill="#3b488f" d="M 1.5,10.5 C 10.8333,10.5 20.1667,10.5 29.5,10.5C 29.5,10.8333 29.5,11.1667 29.5,11.5C 29.81,14.7131 29.4767,17.7131 28.5,20.5C 19.8333,20.5 11.1667,20.5 2.5,20.5C 1.52693,18.0521 1.1936,15.3854 1.5,12.5C 1.5,11.8333 1.5,11.1667 1.5,10.5 Z"/></g>
<g><path style="opacity:0.203" fill="#faf8f3" d="M 11.5,0.5 C 7.19429,2.80568 3.86096,6.13901 1.5,10.5C 1.5,11.1667 1.5,11.8333 1.5,12.5C 0.833333,14.5 0.166667,16.5 -0.5,18.5C -0.5,16.1667 -0.5,13.8333 -0.5,11.5C 1.57282,5.76162 5.57282,2.09495 11.5,0.5 Z"/></g>
<g><path style="opacity:1" fill="#485fa0" d="M 13.5,11.5 C 18.9669,11.2969 22.9669,13.6302 25.5,18.5C 19.2015,19.4963 12.8682,19.8297 6.5,19.5C 7.16637,15.3421 9.4997,12.6755 13.5,11.5 Z"/></g>
<g><path style="opacity:0.114" fill="#b0a5aa" d="M 29.5,11.5 C 29.8333,11.5 30.1667,11.5 30.5,11.5C 30.8333,11.5 31.1667,11.5 31.5,11.5C 31.5,14.1667 31.5,16.8333 31.5,19.5C 29.249,24.753 25.5823,28.753 20.5,31.5C 17.1667,31.5 13.8333,31.5 10.5,31.5C 5.4177,28.753 1.75103,24.753 -0.5,19.5C -0.5,19.1667 -0.5,18.8333 -0.5,18.5C 0.166667,16.5 0.833333,14.5 1.5,12.5C 1.1936,15.3854 1.52693,18.0521 2.5,20.5C 4.51679,26.6865 8.85012,29.6865 15.5,29.5C 22.1499,29.6865 26.4832,26.6865 28.5,20.5C 29.4767,17.7131 29.81,14.7131 29.5,11.5 Z"/></g>
<g><path style="opacity:1" fill="#d01e31" d="M 2.5,20.5 C 11.1667,20.5 19.8333,20.5 28.5,20.5C 26.4832,26.6865 22.1499,29.6865 15.5,29.5C 8.85012,29.6865 4.51679,26.6865 2.5,20.5 Z"/></g>
</svg>
