<?xml version="1.0" encoding="UTF-8"?>
<!DOCTYPE svg PUBLIC "-//W3C//DTD SVG 1.1//EN" "http://www.w3.org/Graphics/SVG/1.1/DTD/svg11.dtd">
<svg xmlns="http://www.w3.org/2000/svg" version="1.1" width="512px" height="512px" style="shape-rendering:geometricPrecision; text-rendering:geometricPrecision; image-rendering:optimizeQuality; fill-rule:evenodd; clip-rule:evenodd" xmlns:xlink="http://www.w3.org/1999/xlink">
<g><path style="opacity:0.967" fill="#136fff" d="M 232.5,-0.5 C 247.833,-0.5 263.167,-0.5 278.5,-0.5C 378.271,12.4486 449.438,64.4486 492,155.5C 502.136,180.379 508.636,206.046 511.5,232.5C 511.5,247.833 511.5,263.167 511.5,278.5C 498.551,378.271 446.551,449.438 355.5,492C 330.622,502.136 304.955,508.636 278.5,511.5C 263.167,511.5 247.833,511.5 232.5,511.5C 132.727,498.549 61.5605,446.549 19,355.5C 8.86392,330.621 2.36392,304.954 -0.5,278.5C -0.5,263.167 -0.5,247.833 -0.5,232.5C 12.4486,132.729 64.4486,61.5622 155.5,19C 180.379,8.86392 206.046,2.36392 232.5,-0.5 Z"/></g>
<g><path style="opacity:1" fill="#93c0ff" d="M 232.5,10.5 C 320.699,5.70681 392.866,37.0401 449,104.5C 497.921,169.773 512.254,242.106 492,321.5C 465.593,404.907 411.093,461.074 328.5,490C 228.711,516.504 143.211,492.67 72,418.5C 15.8886,351.309 -1.77811,274.976 19,189.5C 39.5637,121.52 81.0637,70.6869 143.5,37C 171.714,22.9813 201.381,14.1479 232.5,10.5 Z"/></g>
<g><path style="opacity:1" fill="#1871ff" d="M 242.5,52.5 C 322.987,51.152 385.153,83.8187 429,150.5C 468.255,220.473 468.255,290.473 429,360.5C 382.53,430.65 317.03,462.816 232.5,457C 167.483,447.598 117.317,415.431 82,360.5C 42.7363,290.436 42.7363,220.436 82,150.5C 119.613,92.0973 173.113,59.4307 242.5,52.5 Z"/></g>
<g><path style="opacity:1" fill="#d6e8ff" d="M 238.5,63.5 C 318.323,60.6548 379.49,92.6548 422,159.5C 455.579,222.636 455.913,285.97 423,349.5C 380.839,417.838 319.339,450.338 238.5,447C 172.194,438.963 122.027,406.463 88,349.5C 55.0144,285.969 55.3478,222.636 89,159.5C 123.396,103.704 173.23,71.7044 238.5,63.5 Z"/></g>
<g><path style="opacity:1" fill="#1d72ff" d="M 292.5,143.5 C 295.97,142.875 298.804,143.875 301,146.5C 301.5,152.825 301.666,159.158 301.5,165.5C 307.509,165.334 313.509,165.501 319.5,166C 324.701,169.426 324.701,172.76 319.5,176C 313.509,176.499 307.509,176.666 301.5,176.5C 301.667,228.168 301.5,279.834 301,331.5C 300.242,333.91 298.575,334.91 296,334.5C 293.425,334.91 291.758,333.91 291,331.5C 290.667,324.833 290.333,318.167 290,311.5C 274.628,330.407 254.795,337.907 230.5,334C 202.067,325.393 186.734,306.226 184.5,276.5C 188.235,241.265 207.735,221.932 243,218.5C 262.26,219.629 277.926,227.629 290,242.5C 290.5,220.503 290.667,198.503 290.5,176.5C 284.158,176.666 277.825,176.5 271.5,176C 267.5,172.667 267.5,169.333 271.5,166C 277.825,165.5 284.158,165.334 290.5,165.5C 290.334,158.825 290.5,152.158 291,145.5C 291.717,144.956 292.217,144.289 292.5,143.5 Z"/></g>
<g><path style="opacity:1" fill="#d5e8ff" d="M 235.5,229.5 C 264.173,228.027 282.34,241.027 290,268.5C 292.072,299.074 278.238,317.574 248.5,324C 222.684,325.346 205.517,313.846 197,289.5C 192.491,258.151 205.325,238.151 235.5,229.5 Z"/></g>
<g><path style="opacity:1" fill="#136fff" d="M 187.5,357.5 C 232.835,357.333 278.168,357.5 323.5,358C 327.5,361 327.5,364 323.5,367C 278.167,367.667 232.833,367.667 187.5,367C 183.581,363.84 183.581,360.673 187.5,357.5 Z"/></g>
</svg>
