<?xml version="1.0" encoding="UTF-8"?>
<!DOCTYPE svg PUBLIC "-//W3C//DTD SVG 1.1//EN" "http://www.w3.org/Graphics/SVG/1.1/DTD/svg11.dtd">
<svg xmlns="http://www.w3.org/2000/svg" version="1.1" width="512px" height="512px" style="shape-rendering:geometricPrecision; text-rendering:geometricPrecision; image-rendering:optimizeQuality; fill-rule:evenodd; clip-rule:evenodd" xmlns:xlink="http://www.w3.org/1999/xlink">
<g><path style="opacity:0.934" fill="#000000" d="M 233.5,-0.5 C 248.167,-0.5 262.833,-0.5 277.5,-0.5C 367.555,10.0943 435.388,54.4276 481,132.5C 497.855,164.278 508.022,197.945 511.5,233.5C 511.5,248.167 511.5,262.833 511.5,277.5C 500.906,367.555 456.572,435.388 378.5,481C 346.722,497.855 313.055,508.022 277.5,511.5C 262.833,511.5 248.167,511.5 233.5,511.5C 143.445,500.906 75.612,456.572 30,378.5C 13.1449,346.722 2.97822,313.055 -0.5,277.5C -0.5,262.833 -0.5,248.167 -0.5,233.5C 10.0943,143.445 54.4276,75.612 132.5,30C 164.278,13.1449 197.945,2.97822 233.5,-0.5 Z M 238.5,16.5 C 333.927,14.1239 407.76,52.4573 460,131.5C 498.372,198.224 504.706,267.891 479,340.5C 447.513,417.32 391.68,466.487 311.5,488C 210.277,507.488 127.443,477.322 63,397.5C 14.2533,327.203 3.91994,251.536 32,170.5C 71.0476,79.2927 139.881,27.9593 238.5,16.5 Z M 303.5,118.5 C 347.952,120.798 377.785,142.798 393,184.5C 394.302,190.015 395.469,195.515 396.5,201C 368.167,201.667 339.833,201.667 311.5,201C 298.922,184.944 282.588,174.778 262.5,170.5C 284.204,149.663 308.538,146.163 335.5,160C 344.878,166.378 352.545,174.378 358.5,184C 368.338,187.854 372.838,184.354 372,173.5C 351.417,141.134 322.251,128.968 284.5,137C 262.208,143.967 246.208,157.967 236.5,179C 236.9,182.467 238.566,185.134 241.5,187C 259.105,186.311 274.771,191.311 288.5,202C 293.287,207.607 298.287,212.941 303.5,218C 319.83,218.5 336.163,218.667 352.5,218.5C 346.898,252.269 327.232,272.436 293.5,279C 266.578,281.7 244.745,272.533 228,251.5C 223.626,243.917 219.126,236.417 214.5,229C 209.489,228.5 204.489,228.667 199.5,229.5C 191.95,229.262 185.283,226.762 179.5,222C 176.145,217.648 172.479,213.648 168.5,210C 166.167,209.333 163.833,209.333 161.5,210C 153.005,217.75 144.005,218.417 134.5,212C 131.514,205.13 126.514,202.63 119.5,204.5C 114.325,202.786 113.325,199.786 116.5,195.5C 120.556,195.357 124.556,194.857 128.5,194C 132.749,186.961 138.915,182.795 147,181.5C 149.185,181.921 151.351,182.421 153.5,183C 157.115,185.629 160.948,187.796 165,189.5C 166.888,189.204 168.722,188.704 170.5,188C 175.456,179.039 182.79,173.039 192.5,170C 201.99,169.403 211.323,170.069 220.5,172C 221.416,171.626 222.25,171.126 223,170.5C 240.265,138.409 267.098,121.076 303.5,118.5 Z"/></g>
<g><path style="opacity:0.932" fill="#000000" d="M 238.5,26.5 C 335.001,23.6546 407.834,63.3213 457,145.5C 486.835,203.184 492.502,263.184 474,325.5C 448.5,399 399,448.5 325.5,474C 245.261,496.855 172.595,482.522 107.5,431C 38.8273,368.642 13.994,291.808 33,200.5C 42.1498,165.531 58.1498,134.198 81,106.5C 85.1992,102.223 89.6992,101.723 94.5,105C 98.1217,109.057 98.2884,113.224 95,117.5C 47.6838,175.784 33.3504,241.451 52,314.5C 75.5,387.333 123.667,435.5 196.5,459C 283.882,480.201 357.716,457.701 418,391.5C 469.713,325.159 480.713,252.493 451,173.5C 420.561,107.012 369.728,65.179 298.5,48C 229.919,35.7269 168.919,51.7269 115.5,96C 108.261,98.2089 103.927,95.5422 102.5,88C 103.314,85.3731 104.647,83.0398 106.5,81C 144.852,49.3293 188.852,31.1626 238.5,26.5 Z M 303.5,118.5 C 267.098,121.076 240.265,138.409 223,170.5C 222.25,171.126 221.416,171.626 220.5,172C 211.323,170.069 201.99,169.403 192.5,170C 182.79,173.039 175.456,179.039 170.5,188C 168.722,188.704 166.888,189.204 165,189.5C 160.948,187.796 157.115,185.629 153.5,183C 151.351,182.421 149.185,181.921 147,181.5C 138.915,182.795 132.749,186.961 128.5,194C 124.556,194.857 120.556,195.357 116.5,195.5C 113.325,199.786 114.325,202.786 119.5,204.5C 126.514,202.63 131.514,205.13 134.5,212C 144.005,218.417 153.005,217.75 161.5,210C 163.833,209.333 166.167,209.333 168.5,210C 172.479,213.648 176.145,217.648 179.5,222C 185.283,226.762 191.95,229.262 199.5,229.5C 204.489,228.667 209.489,228.5 214.5,229C 219.126,236.417 223.626,243.917 228,251.5C 244.745,272.533 266.578,281.7 293.5,279C 327.232,272.436 346.898,252.269 352.5,218.5C 336.163,218.667 319.83,218.5 303.5,218C 298.287,212.941 293.287,207.607 288.5,202C 274.771,191.311 259.105,186.311 241.5,187C 238.566,185.134 236.9,182.467 236.5,179C 246.208,157.967 262.208,143.967 284.5,137C 322.251,128.968 351.417,141.134 372,173.5C 372.838,184.354 368.338,187.854 358.5,184C 352.545,174.378 344.878,166.378 335.5,160C 308.538,146.163 284.204,149.663 262.5,170.5C 282.588,174.778 298.922,184.944 311.5,201C 339.833,201.667 368.167,201.667 396.5,201C 395.469,195.515 394.302,190.015 393,184.5C 377.785,142.798 347.952,120.798 303.5,118.5 Z"/></g>
<g><path style="opacity:0.936" fill="#000000" d="M 297.5,101.5 C 347.117,100.659 382.95,122.326 405,166.5C 411.76,181.819 414.427,197.819 413,214.5C 411.833,215.667 410.667,216.833 409.5,218C 396.504,218.5 383.504,218.667 370.5,218.5C 365.983,252.697 347.983,276.864 316.5,291C 278.771,303.526 245.938,295.692 218,267.5C 213.107,260.938 208.607,254.104 204.5,247C 188.069,247.751 174.235,242.251 163,230.5C 146.9,237.201 132.733,234.368 120.5,222C 102.823,219.984 95.3232,210.151 98,192.5C 101.798,182.707 108.964,177.541 119.5,177C 132.048,164.071 146.548,161.237 163,168.5C 176.219,153.987 192.386,148.987 211.5,153.5C 232.098,122.866 260.765,105.532 297.5,101.5 Z M 303.5,118.5 C 267.098,121.076 240.265,138.409 223,170.5C 222.25,171.126 221.416,171.626 220.5,172C 211.323,170.069 201.99,169.403 192.5,170C 182.79,173.039 175.456,179.039 170.5,188C 168.722,188.704 166.888,189.204 165,189.5C 160.948,187.796 157.115,185.629 153.5,183C 151.351,182.421 149.185,181.921 147,181.5C 138.915,182.795 132.749,186.961 128.5,194C 124.556,194.857 120.556,195.357 116.5,195.5C 113.325,199.786 114.325,202.786 119.5,204.5C 126.514,202.63 131.514,205.13 134.5,212C 144.005,218.417 153.005,217.75 161.5,210C 163.833,209.333 166.167,209.333 168.5,210C 172.479,213.648 176.145,217.648 179.5,222C 185.283,226.762 191.95,229.262 199.5,229.5C 204.489,228.667 209.489,228.5 214.5,229C 219.126,236.417 223.626,243.917 228,251.5C 244.745,272.533 266.578,281.7 293.5,279C 327.232,272.436 346.898,252.269 352.5,218.5C 336.163,218.667 319.83,218.5 303.5,218C 298.287,212.941 293.287,207.607 288.5,202C 274.771,191.311 259.105,186.311 241.5,187C 238.566,185.134 236.9,182.467 236.5,179C 246.208,157.967 262.208,143.967 284.5,137C 322.251,128.968 351.417,141.134 372,173.5C 372.838,184.354 368.338,187.854 358.5,184C 352.545,174.378 344.878,166.378 335.5,160C 308.538,146.163 284.204,149.663 262.5,170.5C 282.588,174.778 298.922,184.944 311.5,201C 339.833,201.667 368.167,201.667 396.5,201C 395.469,195.515 394.302,190.015 393,184.5C 377.785,142.798 347.952,120.798 303.5,118.5 Z"/></g>
<g><path style="opacity:0.91" fill="#000000" d="M 162.5,265.5 C 168.991,263.845 173.158,266.178 175,272.5C 175.667,297.167 175.667,321.833 175,346.5C 173.008,353.618 168.508,355.785 161.5,353C 159.683,351.2 158.516,349.034 158,346.5C 157.5,328.503 157.333,310.503 157.5,292.5C 150.033,291.869 146.866,287.869 148,280.5C 152.364,274.97 157.198,269.97 162.5,265.5 Z"/></g>
<g><path style="opacity:0.928" fill="#000000" d="M 162.5,366.5 C 165.978,366.184 169.312,366.684 172.5,368C 180.705,376.536 188.538,385.369 196,394.5C 204.5,385.333 213,376.167 221.5,367C 224.964,366.183 228.298,366.517 231.5,368C 239.345,376.677 247.345,385.177 255.5,393.5C 264.013,384.487 272.68,375.654 281.5,367C 284.167,366.333 286.833,366.333 289.5,367C 298,376.167 306.5,385.333 315,394.5C 322.462,385.369 330.295,376.536 338.5,368C 346.187,364.39 351.187,366.557 353.5,374.5C 352.764,376.541 351.931,378.541 351,380.5C 341.202,391.966 331.036,403.133 320.5,414C 317.224,416.387 313.891,416.721 310.5,415C 302,405.833 293.5,396.667 285,387.5C 277.538,396.631 269.705,405.464 261.5,414C 257.5,416 253.5,416 249.5,414C 241.295,405.464 233.462,396.631 226,387.5C 217.5,396.667 209,405.833 200.5,415C 197.109,416.721 193.776,416.387 190.5,414C 179.964,403.133 169.798,391.966 160,380.5C 156.752,375.084 157.585,370.417 162.5,366.5 Z"/></g>
</svg>
