<?xml version="1.0" encoding="UTF-8"?>
<!DOCTYPE svg PUBLIC "-//W3C//DTD SVG 1.1//EN" "http://www.w3.org/Graphics/SVG/1.1/DTD/svg11.dtd">
<svg xmlns="http://www.w3.org/2000/svg" version="1.1" width="50px" height="50px" style="shape-rendering:geometricPrecision; text-rendering:geometricPrecision; image-rendering:optimizeQuality; fill-rule:evenodd; clip-rule:evenodd" xmlns:xlink="http://www.w3.org/1999/xlink">
<g><path style="opacity:0.615" fill="#000000" d="M 17.5,1.5 C 41.1541,0.318958 50.6541,11.319 46,34.5C 38.7573,46.8068 28.2573,50.6402 14.5,46C 2.19317,38.7573 -1.64016,28.2573 3,14.5C 6.16246,8.16411 10.9958,3.83077 17.5,1.5 Z M 18.5,4.5 C 36.9488,3.44852 45.4488,12.1152 44,30.5C 38.1981,42.9824 28.6981,47.1491 15.5,43C 4.9871,36.4639 1.82043,27.2972 6,15.5C 9.1476,10.5094 13.3143,6.84275 18.5,4.5 Z M 22.5,25.5 C 25.1381,26.4916 27.8048,27.4916 30.5,28.5C 31.521,29.0016 31.6877,29.6683 31,30.5C 28.5567,29.4067 26.0567,28.4067 23.5,27.5C 22.7025,27.0431 22.3691,26.3764 22.5,25.5 Z M 36.5,27.5 C 37.0431,27.56 37.3764,27.8933 37.5,28.5C 36.3717,29.2621 35.2051,29.9288 34,30.5C 33.8333,30.1667 33.6667,29.8333 33.5,29.5C 34.6016,28.8243 35.6016,28.1577 36.5,27.5 Z"/></g>
<g><path style="opacity:0.847" fill="#000000" d="M 18.5,12.5 C 23.0622,12.4642 27.3956,13.4642 31.5,15.5C 31.1783,21.1783 33.845,23.845 39.5,23.5C 39.5,26.5 39.5,29.5 39.5,32.5C 37.0628,32.7563 34.7294,33.4229 32.5,34.5C 26.2272,30.811 19.5605,29.6443 12.5,31C 11.2958,29.6472 10.6292,27.9806 10.5,26C 10.0712,22.1398 11.7378,20.3064 15.5,20.5C 15.5,18.1667 15.5,15.8333 15.5,13.5C 16.791,13.7373 17.791,13.404 18.5,12.5 Z M 22.5,25.5 C 22.3691,26.3764 22.7025,27.0431 23.5,27.5C 26.0567,28.4067 28.5567,29.4067 31,30.5C 31.6877,29.6683 31.521,29.0016 30.5,28.5C 27.8048,27.4916 25.1381,26.4916 22.5,25.5 Z M 36.5,27.5 C 35.6016,28.1577 34.6016,28.8243 33.5,29.5C 33.6667,29.8333 33.8333,30.1667 34,30.5C 35.2051,29.9288 36.3717,29.2621 37.5,28.5C 37.3764,27.8933 37.0431,27.56 36.5,27.5 Z"/></g>
</svg>
