<?xml version="1.0" encoding="UTF-8"?>
<!DOCTYPE svg PUBLIC "-//W3C//DTD SVG 1.1//EN" "http://www.w3.org/Graphics/SVG/1.1/DTD/svg11.dtd">
<svg xmlns="http://www.w3.org/2000/svg" version="1.1" width="48px" height="48px" style="shape-rendering:geometricPrecision; text-rendering:geometricPrecision; image-rendering:optimizeQuality; fill-rule:evenodd; clip-rule:evenodd" xmlns:xlink="http://www.w3.org/1999/xlink">
<g><path style="opacity:0.937" fill="#323991" d="M 23.5,3.5 C 23.5,6.83333 23.5,10.1667 23.5,13.5C 17.5,13.5 11.5,13.5 5.5,13.5C 9.40805,6.54307 15.408,3.20974 23.5,3.5 Z"/></g>
<g><path style="opacity:1" fill="#d40301" d="M 23.5,3.5 C 26.2788,3.27863 28.9455,3.61197 31.5,4.5C 31.5,7.5 31.5,10.5 31.5,13.5C 31.5,16.8333 31.5,20.1667 31.5,23.5C 31.5,26.8333 31.5,30.1667 31.5,33.5C 31.5,36.5 31.5,39.5 31.5,42.5C 28.9455,43.388 26.2788,43.7214 23.5,43.5C 23.5,40.1667 23.5,36.8333 23.5,33.5C 23.5,30.1667 23.5,26.8333 23.5,23.5C 23.5,20.1667 23.5,16.8333 23.5,13.5C 23.5,10.1667 23.5,6.83333 23.5,3.5 Z"/></g>
<g><path style="opacity:0.93" fill="#273593" d="M 31.5,4.5 C 36.0892,6.12432 39.4225,9.12432 41.5,13.5C 38.1667,13.5 34.8333,13.5 31.5,13.5C 31.5,10.5 31.5,7.5 31.5,4.5 Z"/></g>
<g><path style="opacity:1" fill="#e6c641" d="M 16.5,6.5 C 20.018,7.96647 20.1847,9.63314 17,11.5C 15.8315,10.9915 14.9981,10.1581 14.5,9C 15.756,8.58309 16.4226,7.74975 16.5,6.5 Z"/></g>
<g><path style="opacity:0.984" fill="#ebeff1" d="M 5.5,13.5 C 11.5,13.5 17.5,13.5 23.5,13.5C 23.5,16.8333 23.5,20.1667 23.5,23.5C 16.8333,23.5 10.1667,23.5 3.5,23.5C 3.31069,19.963 3.97736,16.6297 5.5,13.5 Z"/></g>
<g><path style="opacity:0.973" fill="#eceff1" d="M 31.5,13.5 C 34.8333,13.5 38.1667,13.5 41.5,13.5C 43.181,16.582 43.8476,19.9153 43.5,23.5C 39.5,23.5 35.5,23.5 31.5,23.5C 31.5,20.1667 31.5,16.8333 31.5,13.5 Z"/></g>
<g><path style="opacity:0.984" fill="#429f46" d="M 3.5,23.5 C 10.1667,23.5 16.8333,23.5 23.5,23.5C 23.5,26.8333 23.5,30.1667 23.5,33.5C 17.5,33.5 11.5,33.5 5.5,33.5C 3.97736,30.3703 3.31069,27.037 3.5,23.5 Z"/></g>
<g><path style="opacity:0.972" fill="#43a046" d="M 31.5,23.5 C 35.5,23.5 39.5,23.5 43.5,23.5C 43.6893,27.037 43.0226,30.3703 41.5,33.5C 38.1667,33.5 34.8333,33.5 31.5,33.5C 31.5,30.1667 31.5,26.8333 31.5,23.5 Z"/></g>
<g><path style="opacity:0.938" fill="#fdd834" d="M 5.5,33.5 C 11.5,33.5 17.5,33.5 23.5,33.5C 23.5,36.8333 23.5,40.1667 23.5,43.5C 15.3856,43.7801 9.3856,40.4468 5.5,33.5 Z"/></g>
<g><path style="opacity:0.896" fill="#fdd934" d="M 31.5,33.5 C 34.8333,33.5 38.1667,33.5 41.5,33.5C 39.4225,37.8757 36.0892,40.8757 31.5,42.5C 31.5,39.5 31.5,36.5 31.5,33.5 Z"/></g>
</svg>
