<?xml version="1.0" encoding="UTF-8"?>
<!DOCTYPE svg PUBLIC "-//W3C//DTD SVG 1.1//EN" "http://www.w3.org/Graphics/SVG/1.1/DTD/svg11.dtd">
<svg xmlns="http://www.w3.org/2000/svg" version="1.1" width="64px" height="64px" style="shape-rendering:geometricPrecision; text-rendering:geometricPrecision; image-rendering:optimizeQuality; fill-rule:evenodd; clip-rule:evenodd" xmlns:xlink="http://www.w3.org/1999/xlink">
<g><path style="opacity:0.609" fill="#0e0f10" d="M -0.5,49.5 C -0.5,48.8333 -0.5,48.1667 -0.5,47.5C 1.03647,39.982 5.70314,36.6487 13.5,37.5C 13.1042,30.4594 15.7709,24.9594 21.5,21C 17.3482,11.0951 20.5149,5.26174 31,3.5C 41.4851,5.26174 44.6518,11.0951 40.5,21C 46.2291,24.9594 48.8958,30.4594 48.5,37.5C 59.9831,36.8221 64.4831,42.1554 62,53.5C 58.7231,59.1088 53.8897,60.9422 47.5,59C 44.3333,57.1667 41.8333,54.6667 40,51.5C 34.5454,55.0394 28.8787,55.3728 23,52.5C 20.8158,55.0166 18.3158,57.1833 15.5,59C 6.80037,61.1601 1.46704,57.9934 -0.5,49.5 Z M 29.5,10.5 C 32.3523,10.3524 34.019,11.6857 34.5,14.5C 32.1667,19.8333 29.8333,19.8333 27.5,14.5C 27.7517,12.9271 28.4183,11.5938 29.5,10.5 Z M 30.5,25.5 C 42.2362,29.1195 44.2362,35.6195 36.5,45C 27.6786,48.2551 22.3453,45.2551 20.5,36C 21.6932,30.3096 25.0265,26.8096 30.5,25.5 Z M 9.5,44.5 C 16.231,45.9233 16.8977,48.5899 11.5,52.5C 7.06697,50.7679 6.40031,48.1012 9.5,44.5 Z M 50.5,44.5 C 54.5332,44.6914 56.0332,46.6914 55,50.5C 51.7358,53.3036 49.2358,52.6369 47.5,48.5C 48.5244,47.1482 49.5244,45.8149 50.5,44.5 Z"/></g>
<g><path style="opacity:1" fill="#bfcbd4" d="M 34.5,51.5 C 33.0937,51.0269 32.427,50.0269 32.5,48.5C 43.8588,44.2809 46.1921,37.1142 39.5,27C 32.2814,22.9815 25.948,23.8149 20.5,29.5C 19.5,29.1667 18.8333,28.5 18.5,27.5C 18.369,26.7611 18.5357,26.0944 19,25.5C 20.7448,24.0443 22.5781,22.711 24.5,21.5C 20.1015,15.7181 20.7682,10.5514 26.5,6C 36.006,4.18125 40.506,8.01458 40,17.5C 39.3645,18.9663 38.5312,20.2997 37.5,21.5C 44.7384,25.3101 47.7384,31.3101 46.5,39.5C 58.7496,38.2271 62.9163,43.2271 59,54.5C 50.6844,59.9729 44.851,57.9729 41.5,48.5C 39.5128,50.3274 37.1795,51.3274 34.5,51.5 Z M 29.5,10.5 C 28.4183,11.5938 27.7517,12.9271 27.5,14.5C 29.8333,19.8333 32.1667,19.8333 34.5,14.5C 34.019,11.6857 32.3523,10.3524 29.5,10.5 Z M 50.5,44.5 C 49.5244,45.8149 48.5244,47.1482 47.5,48.5C 49.2358,52.6369 51.7358,53.3036 55,50.5C 56.0332,46.6914 54.5332,44.6914 50.5,44.5 Z"/></g>
<g><path style="opacity:0.655" fill="#131414" d="M 28.5,8.5 C 34.8197,8.31955 37.3197,11.3196 36,17.5C 32.6667,21.5 29.3333,21.5 26,17.5C 24.9271,13.9003 25.7605,10.9003 28.5,8.5 Z M 29.5,10.5 C 28.4183,11.5938 27.7517,12.9271 27.5,14.5C 29.8333,19.8333 32.1667,19.8333 34.5,14.5C 34.019,11.6857 32.3523,10.3524 29.5,10.5 Z"/></g>
<g><path style="opacity:0.644" fill="#101011" d="M 32.5,48.5 C 24.2597,48.4302 19.5931,44.2635 18.5,36C 18.4824,33.5897 19.1491,31.423 20.5,29.5C 25.948,23.8149 32.2814,22.9815 39.5,27C 46.1921,37.1142 43.8588,44.2809 32.5,48.5 Z M 30.5,25.5 C 25.0265,26.8096 21.6932,30.3096 20.5,36C 22.3453,45.2551 27.6786,48.2551 36.5,45C 44.2362,35.6195 42.2362,29.1195 30.5,25.5 Z"/></g>
<g><path style="opacity:1" fill="#aeb8bd" d="M 18.5,27.5 C 18.8333,28.5 19.5,29.1667 20.5,29.5C 19.1491,31.423 18.4824,33.5897 18.5,36C 19.5931,44.2635 24.2597,48.4302 32.5,48.5C 32.427,50.0269 33.0937,51.0269 34.5,51.5C 30.0329,52.9084 25.6996,52.2418 21.5,49.5C 17.5768,58.048 11.7434,59.7147 4,54.5C 0.150243,43.711 3.98358,38.5444 15.5,39C 14.1502,34.5501 15.1502,30.7167 18.5,27.5 Z M 9.5,44.5 C 6.40031,48.1012 7.06697,50.7679 11.5,52.5C 16.8977,48.5899 16.231,45.9233 9.5,44.5 Z"/></g>
<g><path style="opacity:0.688" fill="#111213" d="M 8.5,42.5 C 14.8197,42.3196 17.3197,45.3196 16,51.5C 12.2552,55.5661 8.92184,55.2327 6,50.5C 5.01816,47.2253 5.85149,44.5586 8.5,42.5 Z M 9.5,44.5 C 6.40031,48.1012 7.06697,50.7679 11.5,52.5C 16.8977,48.5899 16.231,45.9233 9.5,44.5 Z"/></g>
<g><path style="opacity:0.67" fill="#111213" d="M 49.5,42.5 C 55.3771,42.2057 57.8771,44.8724 57,50.5C 54.0782,55.2327 50.7448,55.5661 47,51.5C 45.9271,47.9003 46.7605,44.9003 49.5,42.5 Z M 50.5,44.5 C 49.5244,45.8149 48.5244,47.1482 47.5,48.5C 49.2358,52.6369 51.7358,53.3036 55,50.5C 56.0332,46.6914 54.5332,44.6914 50.5,44.5 Z"/></g>
</svg>
