<?xml version="1.0" encoding="UTF-8"?>
<!DOCTYPE svg PUBLIC "-//W3C//DTD SVG 1.1//EN" "http://www.w3.org/Graphics/SVG/1.1/DTD/svg11.dtd">
<svg xmlns="http://www.w3.org/2000/svg" version="1.1" width="48px" height="48px" style="shape-rendering:geometricPrecision; text-rendering:geometricPrecision; image-rendering:optimizeQuality; fill-rule:evenodd; clip-rule:evenodd" xmlns:xlink="http://www.w3.org/1999/xlink">
<g><path style="opacity:0.993" fill="#fdc006" d="M 31.5,4.5 C 31.5,17.1667 31.5,29.8333 31.5,42.5C 26.1667,43.8333 20.8333,43.8333 15.5,42.5C 15.5,29.8333 15.5,17.1667 15.5,4.5C 20.8333,3.16667 26.1667,3.16667 31.5,4.5 Z"/></g>
<g><path style="opacity:0.975" fill="#3e50b5" d="M 15.5,4.5 C 15.5,17.1667 15.5,29.8333 15.5,42.5C 3.23522,35.5887 0.0685534,25.5887 6,12.5C 8.28398,8.77612 11.4507,6.10945 15.5,4.5 Z"/></g>
<g><path style="opacity:0.985" fill="#3f51b4" d="M 31.5,4.5 C 43.7648,11.4113 46.9314,21.4113 41,34.5C 38.716,38.2239 35.5493,40.8906 31.5,42.5C 31.5,29.8333 31.5,17.1667 31.5,4.5 Z"/></g>
<g><path style="opacity:1" fill="#413107" d="M 22.5,18.5 C 24.22,20.6581 25.0533,23.3248 25,26.5C 25.6667,24.5 26.3333,22.5 27,20.5C 27.7175,19.5494 28.5509,19.3828 29.5,20C 28.0437,22.2658 27.2104,24.7658 27,27.5C 25.4933,28.5046 24.3267,29.838 23.5,31.5C 22.5713,30.3112 22.238,28.9778 22.5,27.5C 21.5,27.5 20.5,27.5 19.5,27.5C 19.78,24.7276 19.1134,22.2276 17.5,20C 18.4491,19.3828 19.2825,19.5494 20,20.5C 20.6667,22.5 21.3333,24.5 22,26.5C 22.4974,23.854 22.6641,21.1873 22.5,18.5 Z"/></g>
</svg>
