<?xml version="1.0" encoding="UTF-8"?>
<!DOCTYPE svg PUBLIC "-//W3C//DTD SVG 1.1//EN" "http://www.w3.org/Graphics/SVG/1.1/DTD/svg11.dtd">
<svg xmlns="http://www.w3.org/2000/svg" version="1.1" width="64px" height="64px" style="shape-rendering:geometricPrecision; text-rendering:geometricPrecision; image-rendering:optimizeQuality; fill-rule:evenodd; clip-rule:evenodd" xmlns:xlink="http://www.w3.org/1999/xlink">
<g><path style="opacity:0.636" fill="#000000" d="M 25.5,5.5 C 42.4993,3.85766 53.166,11.191 57.5,27.5C 57.2718,29.3969 56.2718,30.7303 54.5,31.5C 57.144,32.741 57.9774,34.741 57,37.5C 51.8733,52.4878 41.3733,58.9878 25.5,57C 14.1843,54.1835 7.51766,47.0169 5.5,35.5C 5.72817,33.6031 6.72817,32.2697 8.5,31.5C 5.85596,30.259 5.02263,28.259 6,25.5C 8.68214,14.9858 15.1821,8.3191 25.5,5.5 Z M 27.5,8.5 C 40.669,7.86103 49.3357,13.6944 53.5,26C 52.3354,28.2581 50.6687,30.0914 48.5,31.5C 50.6687,32.9086 52.3354,34.7419 53.5,37C 49.3565,49.4622 40.6898,55.1288 27.5,54C 17.9223,52.0882 11.9223,46.4216 9.5,37C 10.6646,34.7419 12.3313,32.9086 14.5,31.5C 12.3313,30.0914 10.6646,28.2581 9.5,26C 12.0999,16.5654 18.0999,10.7321 27.5,8.5 Z"/></g>
<g><path style="opacity:0.723" fill="#000000" d="M 23.5,22.5 C 24.9464,21.3871 26.6131,21.2204 28.5,22C 29.3041,23.7713 30.4708,25.2713 32,26.5C 32.7756,22.0497 35.2756,20.5497 39.5,22C 37.319,24.6935 35.6524,27.6935 34.5,31C 35.777,34.3879 37.4436,37.5546 39.5,40.5C 37.9255,41.6309 36.2588,41.7975 34.5,41C 33.4582,39.082 32.2915,37.2487 31,35.5C 30.1336,40.4487 27.3003,42.2821 22.5,41C 24.5871,37.4918 26.9204,34.1584 29.5,31C 27.6009,28.0123 25.6009,25.1789 23.5,22.5 Z"/></g>
</svg>
