<?xml version="1.0" encoding="UTF-8"?>
<!DOCTYPE svg PUBLIC "-//W3C//DTD SVG 1.1//EN" "http://www.w3.org/Graphics/SVG/1.1/DTD/svg11.dtd">
<svg xmlns="http://www.w3.org/2000/svg" version="1.1" width="32px" height="32px" style="shape-rendering:geometricPrecision; text-rendering:geometricPrecision; image-rendering:optimizeQuality; fill-rule:evenodd; clip-rule:evenodd" xmlns:xlink="http://www.w3.org/1999/xlink">
<g><path style="opacity:0.989" fill="#2cad96" d="M 8.5,-0.5 C 11.1667,-0.5 13.8333,-0.5 16.5,-0.5C 16.5,0.5 16.5,1.5 16.5,2.5C 18.8984,2.25939 20.8984,2.92606 22.5,4.5C 21.5318,6.60737 21.1984,8.9407 21.5,11.5C 20.209,11.2627 19.209,11.596 18.5,12.5C 16.3796,13.4033 16.0462,14.7367 17.5,16.5C 16.5489,17.9187 16.2155,19.5853 16.5,21.5C 14.9891,23.4758 14.1558,25.8091 14,28.5C 13.5065,26.8659 13.3398,25.1992 13.5,23.5C 11.901,23.7678 10.5676,23.4345 9.5,22.5C 10.8333,22.5 12.1667,22.5 13.5,22.5C 14.4816,19.0381 14.815,15.3714 14.5,11.5C 14.5,10.5 14.5,9.5 14.5,8.5C 12.8333,8.5 11.1667,8.5 9.5,8.5C 10.9187,7.54885 12.5853,7.21552 14.5,7.5C 14.5,5.83333 14.5,4.16667 14.5,2.5C 10.352,2.57398 7.01869,4.24064 4.5,7.5C 4.73731,6.20895 4.40397,5.20895 3.5,4.5C 4.86063,2.47266 6.52729,0.805998 8.5,-0.5 Z"/></g>
<g><path style="opacity:0.784" fill="#2cb199" d="M 3.5,4.5 C 4.40397,5.20895 4.73731,6.20895 4.5,7.5C 2.58052,11.2686 2.08052,15.2686 3,19.5C 3.22329,21.8808 4.38995,23.5475 6.5,24.5C 7.12167,25.6266 7.95501,26.6266 9,27.5C 9.74012,28.7494 9.57346,29.7494 8.5,30.5C 4.87388,28.5407 1.87388,25.874 -0.5,22.5C -0.5,17.8333 -0.5,13.1667 -0.5,8.5C 0.472504,6.86076 1.80584,5.52743 3.5,4.5 Z"/></g>
<g><path style="opacity:1" fill="#1ca88d" d="M 9.5,8.5 C 8.59603,9.20895 8.26269,10.209 8.5,11.5C 8.5,11.8333 8.5,12.1667 8.5,12.5C 8.71955,15.6224 8.71955,18.9558 8.5,22.5C 8.16667,23.5 7.5,24.1667 6.5,24.5C 4.38995,23.5475 3.22329,21.8808 3,19.5C 2.08052,15.2686 2.58052,11.2686 4.5,7.5C 7.01869,4.24064 10.352,2.57398 14.5,2.5C 14.5,4.16667 14.5,5.83333 14.5,7.5C 12.5853,7.21552 10.9187,7.54885 9.5,8.5 Z"/></g>
<g><path style="opacity:0.749" fill="#09a489" d="M 16.5,-0.5 C 18.5,-0.5 20.5,-0.5 22.5,-0.5C 25.8333,2.16667 28.8333,5.16667 31.5,8.5C 31.5,13.1667 31.5,17.8333 31.5,22.5C 28.8333,25.8333 25.8333,28.8333 22.5,31.5C 20.5,31.5 18.5,31.5 16.5,31.5C 16.4142,30.5041 16.7476,29.6708 17.5,29C 19.4913,28.6264 21.158,27.793 22.5,26.5C 28.5036,21.761 30.0036,15.761 27,8.5C 25.6288,6.95862 24.1288,5.62529 22.5,4.5C 20.8984,2.92606 18.8984,2.25939 16.5,2.5C 16.5,1.5 16.5,0.5 16.5,-0.5 Z"/></g>
<g><path style="opacity:1" fill="#32b09a" d="M 22.5,4.5 C 24.1288,5.62529 25.6288,6.95862 27,8.5C 30.0036,15.761 28.5036,21.761 22.5,26.5C 21.968,24.6092 20.3013,23.2759 17.5,22.5C 19.1667,22.5 20.8333,22.5 22.5,22.5C 22.5,20.1667 22.5,17.8333 22.5,15.5C 22.3059,13.0882 20.9726,12.0882 18.5,12.5C 19.209,11.596 20.209,11.2627 21.5,11.5C 21.1984,8.9407 21.5318,6.60737 22.5,4.5 Z"/></g>
<g><path style="opacity:1" fill="#f2f9f8" d="M 9.5,8.5 C 11.1667,8.5 12.8333,8.5 14.5,8.5C 14.5,9.5 14.5,10.5 14.5,11.5C 12.5,11.5 10.5,11.5 8.5,11.5C 8.26269,10.209 8.59603,9.20895 9.5,8.5 Z"/></g>
<g><path style="opacity:1" fill="#f3f9f8" d="M 18.5,12.5 C 20.9726,12.0882 22.3059,13.0882 22.5,15.5C 20.9582,16.3007 19.2915,16.634 17.5,16.5C 16.0462,14.7367 16.3796,13.4033 18.5,12.5 Z"/></g>
<g><path style="opacity:1" fill="#cde8e3" d="M 8.5,12.5 C 9.92167,12.7086 11.255,13.2086 12.5,14C 9.83333,14.6667 9.83333,15.3333 12.5,16C 8.8149,16.9145 9.14823,17.5811 13.5,18C 8.16667,18.6667 8.16667,19.3333 13.5,20C 12.1667,20.3333 10.8333,20.6667 9.5,21C 11.0581,21.21 12.3915,21.71 13.5,22.5C 12.1667,22.5 10.8333,22.5 9.5,22.5C 9.16667,22.5 8.83333,22.5 8.5,22.5C 8.71955,18.9558 8.71955,15.6224 8.5,12.5 Z"/></g>
<g><path style="opacity:1" fill="#a0ccc4" d="M 8.5,12.5 C 8.5,12.1667 8.5,11.8333 8.5,11.5C 10.5,11.5 12.5,11.5 14.5,11.5C 14.815,15.3714 14.4816,19.0381 13.5,22.5C 12.3915,21.71 11.0581,21.21 9.5,21C 10.8333,20.6667 12.1667,20.3333 13.5,20C 8.16667,19.3333 8.16667,18.6667 13.5,18C 9.14823,17.5811 8.8149,16.9145 12.5,16C 9.83333,15.3333 9.83333,14.6667 12.5,14C 11.255,13.2086 9.92167,12.7086 8.5,12.5 Z"/></g>
<g><path style="opacity:1" fill="#bbdbd5" d="M 22.5,15.5 C 22.5,17.8333 22.5,20.1667 22.5,22.5C 20.8333,22.5 19.1667,22.5 17.5,22.5C 16.8333,22.5 16.5,22.1667 16.5,21.5C 16.2155,19.5853 16.5489,17.9187 17.5,16.5C 19.2915,16.634 20.9582,16.3007 22.5,15.5 Z"/></g>
<g><path style="opacity:0.986" fill="#1aaa90" d="M 16.5,21.5 C 16.5,22.1667 16.8333,22.5 17.5,22.5C 20.3013,23.2759 21.968,24.6092 22.5,26.5C 21.158,27.793 19.4913,28.6264 17.5,29C 16.7476,29.6708 16.4142,30.5041 16.5,31.5C 13.8333,31.5 11.1667,31.5 8.5,31.5C 8.5,31.1667 8.5,30.8333 8.5,30.5C 9.57346,29.7494 9.74012,28.7494 9,27.5C 7.95501,26.6266 7.12167,25.6266 6.5,24.5C 7.5,24.1667 8.16667,23.5 8.5,22.5C 8.83333,22.5 9.16667,22.5 9.5,22.5C 10.5676,23.4345 11.901,23.7678 13.5,23.5C 13.3398,25.1992 13.5065,26.8659 14,28.5C 14.1558,25.8091 14.9891,23.4758 16.5,21.5 Z"/></g>
</svg>
