<?xml version="1.0" encoding="UTF-8"?>
<!DOCTYPE svg PUBLIC "-//W3C//DTD SVG 1.1//EN" "http://www.w3.org/Graphics/SVG/1.1/DTD/svg11.dtd">
<svg xmlns="http://www.w3.org/2000/svg" version="1.1" width="512px" height="512px" style="shape-rendering:geometricPrecision; text-rendering:geometricPrecision; image-rendering:optimizeQuality; fill-rule:evenodd; clip-rule:evenodd" xmlns:xlink="http://www.w3.org/1999/xlink">
<g><path style="opacity:0.934" fill="#000000" d="M 244.5,-0.5 C 251.833,-0.5 259.167,-0.5 266.5,-0.5C 284.945,5.18608 303.945,8.35275 323.5,9C 332.752,10.2922 341.419,13.2922 349.5,18C 365.47,28.4856 382.47,37.1523 400.5,44C 413.333,52.8333 424.167,63.6667 433,76.5C 442.297,84.1287 451.297,92.1287 460,100.5C 468.233,112.965 474.899,126.299 480,140.5C 487.939,152.116 494.606,164.45 500,177.5C 502.324,190.742 503.991,204.075 505,217.5C 507.042,226.663 509.208,235.663 511.5,244.5C 511.5,251.833 511.5,259.167 511.5,266.5C 505.814,284.945 502.647,303.945 502,323.5C 500.708,332.752 497.708,341.419 493,349.5C 482.514,365.47 473.848,382.47 467,400.5C 458.167,413.333 447.333,424.167 434.5,433C 426.871,442.297 418.871,451.297 410.5,460C 398.035,468.233 384.701,474.899 370.5,480C 358.884,487.939 346.55,494.606 333.5,500C 320.258,502.324 306.925,503.991 293.5,505C 284.337,507.042 275.337,509.208 266.5,511.5C 259.167,511.5 251.833,511.5 244.5,511.5C 226.055,505.814 207.055,502.647 187.5,502C 178.248,500.708 169.581,497.708 161.5,493C 145.53,482.514 128.53,473.848 110.5,467C 97.6667,458.167 86.8333,447.333 78,434.5C 68.7026,426.871 59.7026,418.871 51,410.5C 42.7672,398.035 36.1006,384.701 31,370.5C 23.0606,358.884 16.3939,346.55 11,333.5C 8.67559,320.258 7.00893,306.925 6,293.5C 3.95819,284.337 1.79153,275.337 -0.5,266.5C -0.5,259.167 -0.5,251.833 -0.5,244.5C 5.18608,226.055 8.35275,207.055 9,187.5C 10.2922,178.248 13.2922,169.581 18,161.5C 28.4856,145.53 37.1523,128.53 44,110.5C 52.8333,97.6667 63.6667,86.8333 76.5,78C 84.1287,68.7026 92.1287,59.7026 100.5,51C 112.965,42.7672 126.299,36.1006 140.5,31C 152.116,23.0606 164.45,16.3939 177.5,11C 190.742,8.67559 204.075,7.00893 217.5,6C 226.663,3.95819 235.663,1.79153 244.5,-0.5 Z M 248.5,16.5 C 262.443,16.7878 276.11,18.9544 289.5,23C 302.9,24.2273 316.233,25.894 329.5,28C 339.328,32.501 348.662,37.8344 357.5,44C 367.267,48.8837 377.267,53.217 387.5,57C 390.833,59 394.167,61 397.5,63C 405.705,71.5361 413.538,80.3694 421,89.5C 430.297,97.1287 439.297,105.129 448,113.5C 450,116.833 452,120.167 454,123.5C 459.973,141.114 468.306,157.447 479,172.5C 481.062,176.688 482.729,181.021 484,185.5C 485.333,197.497 486.667,209.497 488,221.5C 491.124,232.66 493.291,243.994 494.5,255.5C 493.291,267.006 491.124,278.34 488,289.5C 486.773,302.9 485.106,316.233 483,329.5C 478.499,339.328 473.166,348.662 467,357.5C 462.116,367.267 457.783,377.267 454,387.5C 452,390.833 450,394.167 448,397.5C 439.464,405.705 430.631,413.538 421.5,421C 413.871,430.297 405.871,439.297 397.5,448C 394.167,450 390.833,452 387.5,454C 369.886,459.973 353.553,468.306 338.5,479C 334.312,481.062 329.979,482.729 325.5,484C 313.503,485.333 301.503,486.667 289.5,488C 278.34,491.124 267.006,493.291 255.5,494.5C 243.994,493.291 232.66,491.124 221.5,488C 208.1,486.773 194.767,485.106 181.5,483C 171.672,478.499 162.338,473.166 153.5,467C 143.733,462.116 133.733,457.783 123.5,454C 120.167,452 116.833,450 113.5,448C 105.295,439.464 97.4619,430.631 90,421.5C 80.7026,413.871 71.7026,405.871 63,397.5C 61,394.167 59,390.833 57,387.5C 51.027,369.886 42.6936,353.553 32,338.5C 29.9377,334.312 28.271,329.979 27,325.5C 25.6668,313.503 24.3335,301.503 23,289.5C 19.876,278.34 17.7093,267.006 16.5,255.5C 17.7093,243.994 19.876,232.66 23,221.5C 24.2273,208.1 25.894,194.767 28,181.5C 32.501,171.672 37.8344,162.338 44,153.5C 48.8837,143.733 53.217,133.733 57,123.5C 59,120.167 61,116.833 63,113.5C 71.5361,105.295 80.3694,97.4619 89.5,90C 94.7105,84.4583 99.5438,78.6249 104,72.5C 114.734,60.711 127.901,52.8776 143.5,49C 155.932,41.5658 168.599,34.5658 181.5,28C 194.767,25.894 208.1,24.2273 221.5,23C 230.663,20.9582 239.663,18.7915 248.5,16.5 Z M 253.5,147.5 C 256.617,147.642 259.117,148.976 261,151.5C 263.42,169.86 265.92,188.194 268.5,206.5C 259.998,210.143 251.332,210.476 242.5,207.5C 244.629,189.172 246.796,170.838 249,152.5C 250.025,150.313 251.525,148.646 253.5,147.5 Z M 166.5,180.5 C 173.508,180.334 180.508,180.5 187.5,181C 192.741,182.239 196.908,185.072 200,189.5C 203.03,193.698 205.863,198.032 208.5,202.5C 203.959,203.687 200.125,206.02 197,209.5C 196.333,217.5 196.333,225.5 197,233.5C 197.789,239.215 198.456,244.882 199,250.5C 179.819,231.133 168.986,207.8 166.5,180.5 Z M 323.5,180.5 C 330.5,180.5 337.5,180.5 344.5,180.5C 342.014,207.8 331.181,231.133 312,250.5C 312.544,244.882 313.211,239.215 314,233.5C 314.667,225.5 314.667,217.5 314,209.5C 310.875,206.02 307.041,203.687 302.5,202.5C 306.316,195.705 310.983,189.539 316.5,184C 318.925,182.787 321.259,181.621 323.5,180.5 Z M 220.5,216.5 C 243.667,229.815 266.834,229.815 290,216.5C 292.022,217.786 294.189,218.786 296.5,219.5C 297.835,246.159 290.169,269.826 273.5,290.5C 268.121,295.941 261.955,300.274 255,303.5C 232.511,289.899 219.511,269.899 216,243.5C 214.438,235.503 213.938,227.503 214.5,219.5C 216.78,218.864 218.78,217.864 220.5,216.5 Z M 111.5,253.5 C 125.418,266.586 138.918,280.253 152,294.5C 152.381,335.794 171.548,364.294 209.5,380C 173.643,387.313 143.809,377.147 120,349.5C 98.6057,319.23 95.7724,287.23 111.5,253.5 Z M 397.5,253.5 C 399.686,254.823 401.186,256.823 402,259.5C 418.217,304.149 407.383,340.649 369.5,369C 348.357,381.878 325.69,385.545 301.5,380C 339.452,364.294 358.619,335.794 359,294.5C 372.038,280.964 384.872,267.297 397.5,253.5 Z M 231.5,310.5 C 238.903,315.197 246.903,318.864 255.5,321.5C 263.332,319.584 270.332,316.084 276.5,311C 277.5,310.333 278.5,310.333 279.5,311C 284.625,318.749 289.625,326.582 294.5,334.5C 281.837,348.496 268.837,362.162 255.5,375.5C 242.163,362.162 229.163,348.496 216.5,334.5C 221.527,326.483 226.527,318.483 231.5,310.5 Z M 172.5,315.5 C 187.966,331.134 203.3,346.967 218.5,363C 193.927,356.259 178.594,340.425 172.5,315.5 Z M 338.5,315.5 C 332.406,340.425 317.073,356.259 292.5,363C 307.7,346.967 323.034,331.134 338.5,315.5 Z"/></g>
<g><path style="opacity:0.934" fill="#000000" d="M 238.5,29.5 C 330.059,26.5234 400.559,63.1901 450,139.5C 481.935,195.647 489.602,254.98 473,317.5C 470.751,325.25 467.918,332.75 464.5,340C 457.202,343.479 452.202,341.479 449.5,334C 477.557,255.172 465.39,183.339 413,118.5C 354.759,56.2224 283.926,34.7224 200.5,54C 129.064,76.4362 80.8977,122.936 56,193.5C 33.4745,279.232 54.3079,352.399 118.5,413C 185.108,466.766 258.442,478.1 338.5,447C 381.636,427.198 415.303,396.865 439.5,356C 447.113,352.973 451.78,355.473 453.5,363.5C 419.873,423.847 369.206,461.68 301.5,477C 207.987,492.285 131.82,463.119 73,389.5C 30.3574,328.314 19.0241,261.648 39,189.5C 60.7896,123.043 103.623,75.5428 167.5,47C 190.401,37.5242 214.068,31.6908 238.5,29.5 Z M 253.5,147.5 C 251.525,148.646 250.025,150.313 249,152.5C 246.796,170.838 244.629,189.172 242.5,207.5C 251.332,210.476 259.998,210.143 268.5,206.5C 265.92,188.194 263.42,169.86 261,151.5C 259.117,148.976 256.617,147.642 253.5,147.5 Z M 166.5,180.5 C 168.986,207.8 179.819,231.133 199,250.5C 198.456,244.882 197.789,239.215 197,233.5C 196.333,225.5 196.333,217.5 197,209.5C 200.125,206.02 203.959,203.687 208.5,202.5C 205.863,198.032 203.03,193.698 200,189.5C 196.908,185.072 192.741,182.239 187.5,181C 180.508,180.5 173.508,180.334 166.5,180.5 Z M 323.5,180.5 C 321.259,181.621 318.925,182.787 316.5,184C 310.983,189.539 306.316,195.705 302.5,202.5C 307.041,203.687 310.875,206.02 314,209.5C 314.667,217.5 314.667,225.5 314,233.5C 313.211,239.215 312.544,244.882 312,250.5C 331.181,231.133 342.014,207.8 344.5,180.5C 337.5,180.5 330.5,180.5 323.5,180.5 Z M 220.5,216.5 C 218.78,217.864 216.78,218.864 214.5,219.5C 213.938,227.503 214.438,235.503 216,243.5C 219.511,269.899 232.511,289.899 255,303.5C 261.955,300.274 268.121,295.941 273.5,290.5C 290.169,269.826 297.835,246.159 296.5,219.5C 294.189,218.786 292.022,217.786 290,216.5C 266.834,229.815 243.667,229.815 220.5,216.5 Z"/></g>
<g><path style="opacity:0.941" fill="#000000" d="M 249.5,130.5 C 265.993,128.989 275.827,136.323 279,152.5C 280.673,167.219 282.673,181.886 285,196.5C 290.651,187.37 297.151,178.87 304.5,171C 309.108,167.863 314.108,165.53 319.5,164C 354.585,163.014 389.585,163.347 424.5,165C 427.803,168.795 428.303,172.962 426,177.5C 425.097,178.701 423.931,179.535 422.5,180C 402.5,180.333 382.5,180.667 362.5,181C 361.632,184.767 360.965,188.601 360.5,192.5C 373.504,192.333 386.504,192.5 399.5,193C 404.609,196.366 405.776,200.866 403,206.5C 402.097,207.701 400.931,208.535 399.5,209C 385.155,209.167 370.822,209.667 356.5,210.5C 355.03,214.912 353.363,219.245 351.5,223.5C 359.581,224.061 367.581,224.895 375.5,226C 380.842,231.33 380.509,236.33 374.5,241C 363.5,241.333 352.5,241.667 341.5,242C 330.554,257.735 317.054,270.902 301,281.5C 298.499,286.506 295.499,291.173 292,295.5C 291.333,296.5 291.333,297.5 292,298.5C 297.087,306.341 302.42,314.008 308,321.5C 336.488,291.378 365.322,261.545 394.5,232C 397.702,230.517 401.036,230.183 404.5,231C 422.958,254.322 430.124,280.822 426,310.5C 416.962,357.078 389.462,386.244 343.5,398C 317.887,402.697 293.553,398.864 270.5,386.5C 269.5,386.833 268.833,387.5 268.5,388.5C 271.188,391.354 273.688,394.354 276,397.5C 277.074,408.053 272.574,411.553 262.5,408C 260.317,405.65 257.984,403.483 255.5,401.5C 252.646,404.188 249.646,406.688 246.5,409C 237.333,410.5 233.5,406.667 235,397.5C 237.312,394.354 239.812,391.354 242.5,388.5C 242.167,387.5 241.5,386.833 240.5,386.5C 205.459,405 170.459,404.833 135.5,386C 94.9125,359.308 78.4125,321.808 86,273.5C 89.2143,257.489 96.0477,243.322 106.5,231C 109.964,230.183 113.298,230.517 116.5,232C 145.678,261.545 174.512,291.378 203,321.5C 208.58,314.008 213.913,306.341 219,298.5C 219.667,297.5 219.667,296.5 219,295.5C 215.501,291.173 212.501,286.506 210,281.5C 193.989,270.911 180.489,257.744 169.5,242C 158.5,241.667 147.5,241.333 136.5,241C 130.491,236.33 130.158,231.33 135.5,226C 143.419,224.895 151.419,224.061 159.5,223.5C 157.637,219.245 155.97,214.912 154.5,210.5C 140.178,209.667 125.845,209.167 111.5,209C 106.931,206.459 105.431,202.625 107,197.5C 107.833,195.333 109.333,193.833 111.5,193C 124.496,192.5 137.496,192.333 150.5,192.5C 150.035,188.601 149.368,184.767 148.5,181C 128.5,180.667 108.5,180.333 88.5,180C 85.0662,178.471 83.3996,175.804 83.5,172C 83.4076,169.186 84.4076,166.853 86.5,165C 121.415,163.347 156.415,163.014 191.5,164C 200.202,166.098 207.368,170.598 213,177.5C 217.333,183.833 221.667,190.167 226,196.5C 227.465,185.142 228.965,173.809 230.5,162.5C 226.066,162.082 222.233,160.416 219,157.5C 216.554,152.676 217.387,148.509 221.5,145C 225.824,144.13 230.158,143.297 234.5,142.5C 237.847,136.339 242.847,132.339 249.5,130.5 Z M 253.5,147.5 C 251.525,148.646 250.025,150.313 249,152.5C 246.796,170.838 244.629,189.172 242.5,207.5C 251.332,210.476 259.998,210.143 268.5,206.5C 265.92,188.194 263.42,169.86 261,151.5C 259.117,148.976 256.617,147.642 253.5,147.5 Z M 166.5,180.5 C 168.986,207.8 179.819,231.133 199,250.5C 198.456,244.882 197.789,239.215 197,233.5C 196.333,225.5 196.333,217.5 197,209.5C 200.125,206.02 203.959,203.687 208.5,202.5C 205.863,198.032 203.03,193.698 200,189.5C 196.908,185.072 192.741,182.239 187.5,181C 180.508,180.5 173.508,180.334 166.5,180.5 Z M 323.5,180.5 C 321.259,181.621 318.925,182.787 316.5,184C 310.983,189.539 306.316,195.705 302.5,202.5C 307.041,203.687 310.875,206.02 314,209.5C 314.667,217.5 314.667,225.5 314,233.5C 313.211,239.215 312.544,244.882 312,250.5C 331.181,231.133 342.014,207.8 344.5,180.5C 337.5,180.5 330.5,180.5 323.5,180.5 Z M 220.5,216.5 C 218.78,217.864 216.78,218.864 214.5,219.5C 213.938,227.503 214.438,235.503 216,243.5C 219.511,269.899 232.511,289.899 255,303.5C 261.955,300.274 268.121,295.941 273.5,290.5C 290.169,269.826 297.835,246.159 296.5,219.5C 294.189,218.786 292.022,217.786 290,216.5C 266.834,229.815 243.667,229.815 220.5,216.5 Z M 111.5,253.5 C 95.7724,287.23 98.6057,319.23 120,349.5C 143.809,377.147 173.643,387.313 209.5,380C 171.548,364.294 152.381,335.794 152,294.5C 138.918,280.253 125.418,266.586 111.5,253.5 Z M 397.5,253.5 C 384.872,267.297 372.038,280.964 359,294.5C 358.619,335.794 339.452,364.294 301.5,380C 325.69,385.545 348.357,381.878 369.5,369C 407.383,340.649 418.217,304.149 402,259.5C 401.186,256.823 399.686,254.823 397.5,253.5 Z M 231.5,310.5 C 226.527,318.483 221.527,326.483 216.5,334.5C 229.163,348.496 242.163,362.162 255.5,375.5C 268.837,362.162 281.837,348.496 294.5,334.5C 289.625,326.582 284.625,318.749 279.5,311C 278.5,310.333 277.5,310.333 276.5,311C 270.332,316.084 263.332,319.584 255.5,321.5C 246.903,318.864 238.903,315.197 231.5,310.5 Z M 172.5,315.5 C 178.594,340.425 193.927,356.259 218.5,363C 203.3,346.967 187.966,331.134 172.5,315.5 Z M 338.5,315.5 C 323.034,331.134 307.7,346.967 292.5,363C 317.073,356.259 332.406,340.425 338.5,315.5 Z"/></g>
</svg>
