<?xml version="1.0" encoding="UTF-8"?>
<!DOCTYPE svg PUBLIC "-//W3C//DTD SVG 1.1//EN" "http://www.w3.org/Graphics/SVG/1.1/DTD/svg11.dtd">
<svg xmlns="http://www.w3.org/2000/svg" version="1.1" width="512px" height="512px" style="shape-rendering:geometricPrecision; text-rendering:geometricPrecision; image-rendering:optimizeQuality; fill-rule:evenodd; clip-rule:evenodd" xmlns:xlink="http://www.w3.org/1999/xlink">
<g><path style="opacity:0.992" fill="#feb655" d="M 232.5,6.5 C 326.732,1.37922 402.232,36.0459 459,110.5C 509.25,186.081 518.25,266.414 486,351.5C 454.846,421.983 402.68,469.483 329.5,494C 234.691,519.463 151.358,499.13 79.5,433C 12.2112,361.01 -8.62216,277.177 17,181.5C 44.5,99.3333 99.3333,44.5 181.5,17C 198.36,12.1287 215.36,8.62871 232.5,6.5 Z"/></g>
<g><path style="opacity:1" fill="#f4e971" d="M 241.5,46.5 C 326.861,44.7523 392.028,79.7523 437,151.5C 473.58,220.801 473.58,290.134 437,359.5C 391.522,431.998 325.688,466.831 239.5,464C 166.889,456.304 111.722,421.47 74,359.5C 40.0818,295.62 37.7485,230.62 67,164.5C 104.019,93.9937 162.186,54.6603 241.5,46.5 Z"/></g>
<g><path style="opacity:1" fill="#895140" d="M 184.5,168.5 C 220.168,168.333 255.835,168.5 291.5,169C 308.799,171.96 320.299,181.794 326,198.5C 326.667,215.167 326.667,231.833 326,248.5C 323.874,256.758 319.707,263.758 313.5,269.5C 319.532,277.231 323.698,285.898 326,295.5C 326.5,316.497 326.667,337.497 326.5,358.5C 316.167,358.5 305.833,358.5 295.5,358.5C 295.667,340.164 295.5,321.83 295,303.5C 292.385,290.429 284.552,282.596 271.5,280C 252.836,279.5 234.17,279.333 215.5,279.5C 215.5,305.833 215.5,332.167 215.5,358.5C 205.167,358.5 194.833,358.5 184.5,358.5C 184.5,295.167 184.5,231.833 184.5,168.5 Z"/></g>
<g><path style="opacity:1" fill="#f3e871" d="M 215.5,200.5 C 240.169,200.333 264.836,200.5 289.5,201C 292,202.167 293.833,204 295,206.5C 295.667,218.167 295.667,229.833 295,241.5C 293.833,244 292,245.833 289.5,247C 264.836,247.5 240.169,247.667 215.5,247.5C 215.5,231.833 215.5,216.167 215.5,200.5 Z"/></g>
</svg>
