<?xml version="1.0" encoding="UTF-8"?>
<!DOCTYPE svg PUBLIC "-//W3C//DTD SVG 1.1//EN" "http://www.w3.org/Graphics/SVG/1.1/DTD/svg11.dtd">
<svg xmlns="http://www.w3.org/2000/svg" version="1.1" width="512px" height="512px" style="shape-rendering:geometricPrecision; text-rendering:geometricPrecision; image-rendering:optimizeQuality; fill-rule:evenodd; clip-rule:evenodd" xmlns:xlink="http://www.w3.org/1999/xlink">
<g><path style="opacity:0.934" fill="#000000" d="M 233.5,-0.5 C 248.167,-0.5 262.833,-0.5 277.5,-0.5C 367.555,10.0943 435.388,54.4276 481,132.5C 497.855,164.278 508.022,197.945 511.5,233.5C 511.5,248.167 511.5,262.833 511.5,277.5C 500.906,367.555 456.572,435.388 378.5,481C 346.722,497.855 313.055,508.022 277.5,511.5C 262.833,511.5 248.167,511.5 233.5,511.5C 143.445,500.906 75.612,456.572 30,378.5C 13.1449,346.722 2.97822,313.055 -0.5,277.5C -0.5,262.833 -0.5,248.167 -0.5,233.5C 10.0943,143.445 54.4276,75.612 132.5,30C 164.278,13.1449 197.945,2.97822 233.5,-0.5 Z M 238.5,16.5 C 333.927,14.1239 407.76,52.4573 460,131.5C 498.372,198.224 504.706,267.891 479,340.5C 447.513,417.32 391.68,466.487 311.5,488C 210.277,507.488 127.443,477.322 63,397.5C 14.2533,327.203 3.91994,251.536 32,170.5C 71.0476,79.2927 139.881,27.9593 238.5,16.5 Z M 134.5,168.5 C 144.928,168.369 148.094,173.036 144,182.5C 134.458,187.307 129.792,184.307 130,173.5C 131.025,171.313 132.525,169.646 134.5,168.5 Z M 369.5,168.5 C 379.562,167.718 383.062,172.052 380,181.5C 376.288,185.944 372.121,186.444 367.5,183C 363.256,177.478 363.923,172.645 369.5,168.5 Z M 215.5,326.5 C 207.98,324.482 202.813,319.815 200,312.5C 199.5,281.835 199.333,251.168 199.5,220.5C 204.214,220.173 208.88,220.507 213.5,221.5C 205.453,235.781 205.953,249.781 215,263.5C 216.434,267.406 216.767,271.406 216,275.5C 205.272,291.056 204.939,306.723 215,322.5C 215.49,323.793 215.657,325.127 215.5,326.5 Z M 232.5,220.5 C 237.844,220.334 243.177,220.501 248.5,221C 240.169,235.732 240.669,250.232 250,264.5C 250.667,268.5 250.667,272.5 250,276.5C 240.043,292.485 240.043,308.485 250,324.5C 251.771,331.823 250.104,338.157 245,343.5C 241.349,341.507 237.683,339.507 234,337.5C 235.024,325.906 232.357,315.239 226,305.5C 225.333,301.833 225.333,298.167 226,294.5C 235.996,278.538 235.996,262.538 226,246.5C 225.333,242.833 225.333,239.167 226,235.5C 228.729,230.712 230.896,225.712 232.5,220.5 Z M 266.5,342.5 C 268.189,336.946 268.689,331.28 268,325.5C 265.594,316.855 262.76,308.355 259.5,300C 261.307,293.222 263.807,286.722 267,280.5C 268.928,273.841 268.928,267.174 267,260.5C 263.788,254.248 261.288,247.748 259.5,241C 261.288,234.252 263.788,227.752 267,221.5C 272.114,220.196 277.281,220.196 282.5,221.5C 274.261,235.763 274.761,249.763 284,263.5C 286,268.167 286,272.833 284,277.5C 276.82,288.761 275.153,300.761 279,313.5C 281.874,318.409 284.04,323.576 285.5,329C 285.441,330.436 285.108,331.769 284.5,333C 278.604,336.447 272.604,339.614 266.5,342.5 Z M 301.5,220.5 C 304.833,220.5 308.167,220.5 311.5,220.5C 311.667,250.502 311.5,280.502 311,310.5C 309.896,315.593 307.229,319.593 303,322.5C 300.876,316.919 298.21,311.586 295,306.5C 294.333,302.5 294.333,298.5 295,294.5C 304.996,278.538 304.996,262.538 295,246.5C 294.333,242.833 294.333,239.167 295,235.5C 297.729,230.712 299.896,225.712 301.5,220.5 Z M 135.5,224.5 C 140.421,224.043 143.921,226.043 146,230.5C 146.5,244.829 146.667,259.163 146.5,273.5C 140.833,273.5 135.167,273.5 129.5,273.5C 129.333,258.83 129.5,244.163 130,229.5C 131.73,227.598 133.563,225.931 135.5,224.5 Z M 370.5,224.5 C 374.95,224.142 378.45,225.808 381,229.5C 381.5,258.498 381.667,287.498 381.5,316.5C 375.833,316.5 370.167,316.5 364.5,316.5C 364.333,287.831 364.5,259.165 365,230.5C 366.36,227.977 368.193,225.977 370.5,224.5 Z"/></g>
<g><path style="opacity:0.932" fill="#000000" d="M 237.5,26.5 C 334.481,23.2255 407.648,62.8922 457,145.5C 486.835,203.184 492.502,263.184 474,325.5C 448.5,399 399,448.5 325.5,474C 264.829,492.132 206.163,487.132 149.5,459C 143.862,454.193 143.529,449.193 148.5,444C 151.03,442.578 153.697,442.245 156.5,443C 231.993,479.367 304.993,475.034 375.5,430C 444.767,378.599 474.601,309.766 465,223.5C 453.818,160.913 421.985,112.079 369.5,77C 293.5,32.3333 217.5,32.3333 141.5,77C 71.4299,125.651 39.2632,192.817 45,278.5C 46.5951,292.809 49.5951,306.809 54,320.5C 56.3477,331.487 52.181,335.653 41.5,333C 39.9512,331.786 38.7845,330.286 38,328.5C 13.8,247.338 27.8,173.671 80,107.5C 121.711,59.7266 174.211,32.7266 237.5,26.5 Z M 134.5,168.5 C 132.525,169.646 131.025,171.313 130,173.5C 129.792,184.307 134.458,187.307 144,182.5C 148.094,173.036 144.928,168.369 134.5,168.5 Z M 369.5,168.5 C 363.923,172.645 363.256,177.478 367.5,183C 372.121,186.444 376.288,185.944 380,181.5C 383.062,172.052 379.562,167.718 369.5,168.5 Z M 215.5,326.5 C 215.657,325.127 215.49,323.793 215,322.5C 204.939,306.723 205.272,291.056 216,275.5C 216.767,271.406 216.434,267.406 215,263.5C 205.953,249.781 205.453,235.781 213.5,221.5C 208.88,220.507 204.214,220.173 199.5,220.5C 199.333,251.168 199.5,281.835 200,312.5C 202.813,319.815 207.98,324.482 215.5,326.5 Z M 301.5,220.5 C 299.896,225.712 297.729,230.712 295,235.5C 294.333,239.167 294.333,242.833 295,246.5C 304.996,262.538 304.996,278.538 295,294.5C 294.333,298.5 294.333,302.5 295,306.5C 298.21,311.586 300.876,316.919 303,322.5C 307.229,319.593 309.896,315.593 311,310.5C 311.5,280.502 311.667,250.502 311.5,220.5C 308.167,220.5 304.833,220.5 301.5,220.5 Z M 135.5,224.5 C 133.563,225.931 131.73,227.598 130,229.5C 129.5,244.163 129.333,258.83 129.5,273.5C 135.167,273.5 140.833,273.5 146.5,273.5C 146.667,259.163 146.5,244.829 146,230.5C 143.921,226.043 140.421,224.043 135.5,224.5 Z M 370.5,224.5 C 368.193,225.977 366.36,227.977 365,230.5C 364.5,259.165 364.333,287.831 364.5,316.5C 370.167,316.5 375.833,316.5 381.5,316.5C 381.667,287.498 381.5,258.498 381,229.5C 378.45,225.808 374.95,224.142 370.5,224.5 Z"/></g>
<g><path style="opacity:0.911" fill="#000000" d="M 189.5,103.5 C 204.837,103.333 220.17,103.5 235.5,104C 242.3,107.969 248.966,112.135 255.5,116.5C 262.034,112.135 268.7,107.969 275.5,104C 290.833,103.333 306.167,103.333 321.5,104C 327.955,105.817 330.121,109.984 328,116.5C 326.238,119.268 323.738,120.768 320.5,121C 306.833,121.333 293.167,121.667 279.5,122C 271.928,127.616 263.928,132.449 255.5,136.5C 247.072,132.449 239.072,127.616 231.5,122C 216.446,121.934 201.446,121.268 186.5,120C 182.723,117.045 181.557,113.212 183,108.5C 184.603,105.965 186.769,104.298 189.5,103.5 Z"/></g>
<g><path style="opacity:0.932" fill="#000000" d="M 193.5,136.5 C 196.941,136.301 200.274,136.801 203.5,138C 220.722,145.778 238.055,153.278 255.5,160.5C 272.945,153.278 290.278,145.778 307.5,138C 316.943,134.47 321.777,137.636 322,147.5C 321.211,149.58 320.044,151.414 318.5,153C 321.868,162.772 325.035,172.605 328,182.5C 329.639,189.565 326.972,193.899 320,195.5C 317.169,195.042 314.836,193.708 313,191.5C 309.132,180.897 305.466,170.23 302,159.5C 294.217,163.262 286.383,166.928 278.5,170.5C 285.078,173.706 291.578,177.039 298,180.5C 301.77,188.016 299.603,193.016 291.5,195.5C 279.505,190.503 267.505,185.503 255.5,180.5C 243.495,185.503 231.495,190.503 219.5,195.5C 211.397,193.016 209.23,188.016 213,180.5C 219.422,177.039 225.922,173.706 232.5,170.5C 224.617,166.928 216.783,163.262 209,159.5C 205.534,170.23 201.868,180.897 198,191.5C 193.333,196.833 188.667,196.833 184,191.5C 183.042,189.801 182.542,187.967 182.5,186C 185.223,174.83 188.556,163.83 192.5,153C 186.991,147.075 187.325,141.575 193.5,136.5 Z"/></g>
<g><path style="opacity:0.931" fill="#000000" d="M 134.5,150.5 C 155.632,151.421 165.132,162.421 163,183.5C 157.916,197.898 147.749,204.065 132.5,202C 119.718,198.549 112.718,190.216 111.5,177C 112.707,162.307 120.374,153.474 134.5,150.5 Z M 134.5,168.5 C 132.525,169.646 131.025,171.313 130,173.5C 129.792,184.307 134.458,187.307 144,182.5C 148.094,173.036 144.928,168.369 134.5,168.5 Z"/></g>
<g><path style="opacity:0.931" fill="#000000" d="M 369.5,150.5 C 387.444,150.309 397.444,159.143 399.5,177C 396.73,195.436 386.064,203.769 367.5,202C 352.027,197.171 345.527,186.671 348,170.5C 351.277,159.618 358.444,152.951 369.5,150.5 Z M 369.5,168.5 C 363.923,172.645 363.256,177.478 367.5,183C 372.121,186.444 376.288,185.944 380,181.5C 383.062,172.052 379.562,167.718 369.5,168.5 Z"/></g>
<g><path style="opacity:0.94" fill="#000000" d="M 189.5,202.5 C 233.501,202.333 277.501,202.5 321.5,203C 324.573,203.739 326.74,205.572 328,208.5C 328.499,213.823 328.666,219.156 328.5,224.5C 335.175,224.666 341.842,224.5 348.5,224C 357.865,207.102 371.199,203.102 388.5,212C 395.018,216.869 398.518,223.369 399,231.5C 399.333,260.833 399.667,290.167 400,319.5C 403.333,323.5 403.333,327.5 400,331.5C 399.667,341.167 399.333,350.833 399,360.5C 395.509,369.206 390.176,370.539 383,364.5C 381.605,354.566 381.105,344.566 381.5,334.5C 375.833,334.5 370.167,334.5 364.5,334.5C 364.949,344.605 364.449,354.605 363,364.5C 357.562,370.052 352.562,369.719 348,363.5C 347.667,353.167 347.333,342.833 347,332.5C 342.333,327.833 342.333,323.167 347,318.5C 347.5,292.835 347.667,267.169 347.5,241.5C 341.167,241.5 334.833,241.5 328.5,241.5C 328.667,265.836 328.5,290.169 328,314.5C 325.798,323.749 320.964,331.249 313.5,337C 295.671,346.747 278.004,356.747 260.5,367C 255.474,369.197 250.807,368.531 246.5,365C 229.663,355.08 212.663,345.414 195.5,336C 189.437,330.706 185.271,324.206 183,316.5C 182.5,291.502 182.333,266.502 182.5,241.5C 176.167,241.5 169.833,241.5 163.5,241.5C 163.333,252.505 163.5,263.505 164,274.5C 168.667,279.5 168.667,284.5 164,289.5C 163.667,314.167 163.333,338.833 163,363.5C 157.307,370.252 151.974,369.918 147,362.5C 146.5,338.502 146.333,314.502 146.5,290.5C 140.833,290.5 135.167,290.5 129.5,290.5C 129.667,314.169 129.5,337.836 129,361.5C 125.924,368.413 121.09,369.913 114.5,366C 113.283,364.352 112.45,362.519 112,360.5C 111.667,336.5 111.333,312.5 111,288.5C 107.734,284.098 107.734,279.764 111,275.5C 111.333,260.833 111.667,246.167 112,231.5C 115.218,213.296 126.052,205.463 144.5,208C 153.01,210.51 159.01,215.843 162.5,224C 169.158,224.5 175.825,224.666 182.5,224.5C 182.334,218.824 182.501,213.157 183,207.5C 184.563,204.977 186.73,203.31 189.5,202.5 Z M 215.5,326.5 C 215.657,325.127 215.49,323.793 215,322.5C 204.939,306.723 205.272,291.056 216,275.5C 216.767,271.406 216.434,267.406 215,263.5C 205.953,249.781 205.453,235.781 213.5,221.5C 208.88,220.507 204.214,220.173 199.5,220.5C 199.333,251.168 199.5,281.835 200,312.5C 202.813,319.815 207.98,324.482 215.5,326.5 Z M 232.5,220.5 C 230.896,225.712 228.729,230.712 226,235.5C 225.333,239.167 225.333,242.833 226,246.5C 235.996,262.538 235.996,278.538 226,294.5C 225.333,298.167 225.333,301.833 226,305.5C 232.357,315.239 235.024,325.906 234,337.5C 237.683,339.507 241.349,341.507 245,343.5C 250.104,338.157 251.771,331.823 250,324.5C 240.043,308.485 240.043,292.485 250,276.5C 250.667,272.5 250.667,268.5 250,264.5C 240.669,250.232 240.169,235.732 248.5,221C 243.177,220.501 237.844,220.334 232.5,220.5 Z M 266.5,342.5 C 272.604,339.614 278.604,336.447 284.5,333C 285.108,331.769 285.441,330.436 285.5,329C 284.04,323.576 281.874,318.409 279,313.5C 275.153,300.761 276.82,288.761 284,277.5C 286,272.833 286,268.167 284,263.5C 274.761,249.763 274.261,235.763 282.5,221.5C 277.281,220.196 272.114,220.196 267,221.5C 263.788,227.752 261.288,234.252 259.5,241C 261.288,247.748 263.788,254.248 267,260.5C 268.928,267.174 268.928,273.841 267,280.5C 263.807,286.722 261.307,293.222 259.5,300C 262.76,308.355 265.594,316.855 268,325.5C 268.689,331.28 268.189,336.946 266.5,342.5 Z M 301.5,220.5 C 299.896,225.712 297.729,230.712 295,235.5C 294.333,239.167 294.333,242.833 295,246.5C 304.996,262.538 304.996,278.538 295,294.5C 294.333,298.5 294.333,302.5 295,306.5C 298.21,311.586 300.876,316.919 303,322.5C 307.229,319.593 309.896,315.593 311,310.5C 311.5,280.502 311.667,250.502 311.5,220.5C 308.167,220.5 304.833,220.5 301.5,220.5 Z M 135.5,224.5 C 133.563,225.931 131.73,227.598 130,229.5C 129.5,244.163 129.333,258.83 129.5,273.5C 135.167,273.5 140.833,273.5 146.5,273.5C 146.667,259.163 146.5,244.829 146,230.5C 143.921,226.043 140.421,224.043 135.5,224.5 Z M 370.5,224.5 C 368.193,225.977 366.36,227.977 365,230.5C 364.5,259.165 364.333,287.831 364.5,316.5C 370.167,316.5 375.833,316.5 381.5,316.5C 381.667,287.498 381.5,258.498 381,229.5C 378.45,225.808 374.95,224.142 370.5,224.5 Z"/></g>
<g><path style="opacity:0.921" fill="#000000" d="M 54.5,347.5 C 58.8394,346.846 62.6727,347.846 66,350.5C 82.2056,381.71 104.539,407.71 133,428.5C 136.01,436.148 133.51,440.815 125.5,442.5C 122.472,442.153 119.806,440.986 117.5,439C 89.3246,417.455 67.1579,390.955 51,359.5C 49.7452,354.738 50.9119,350.738 54.5,347.5 Z"/></g>
<g><path style="opacity:0.94" fill="#000000" d="M 224.5,369.5 C 233.976,369.463 237.643,373.963 235.5,383C 248.468,386.132 261.468,386.299 274.5,383.5C 272.483,375.181 275.649,370.514 284,369.5C 293.841,370.194 303.674,371.027 313.5,372C 333.371,376.15 353.371,378.983 373.5,380.5C 379.344,389.635 376.844,394.968 366,396.5C 359.184,395.805 352.35,395.305 345.5,395C 328.241,391.914 310.908,389.414 293.5,387.5C 294.994,392.774 292.994,396.274 287.5,398C 266.167,404 244.833,404 223.5,398C 218.105,396.507 216.105,393.007 217.5,387.5C 200.098,389.413 182.764,391.913 165.5,395C 158.48,395.279 151.48,395.779 144.5,396.5C 134.503,394.979 131.836,389.812 136.5,381C 138.087,380.138 139.754,379.471 141.5,379C 160.409,378.618 179.076,376.285 197.5,372C 206.648,371.112 215.648,370.279 224.5,369.5 Z"/></g>
</svg>
