<?xml version="1.0" encoding="UTF-8"?>
<!DOCTYPE svg PUBLIC "-//W3C//DTD SVG 1.1//EN" "http://www.w3.org/Graphics/SVG/1.1/DTD/svg11.dtd">
<svg xmlns="http://www.w3.org/2000/svg" version="1.1" width="48px" height="48px" style="shape-rendering:geometricPrecision; text-rendering:geometricPrecision; image-rendering:optimizeQuality; fill-rule:evenodd; clip-rule:evenodd" xmlns:xlink="http://www.w3.org/1999/xlink">
<g><path style="opacity:0.942" fill="#1b5d1f" d="M 37.5,8.5 C 28.1667,8.5 18.8333,8.5 9.5,8.5C 13.2833,4.61868 17.95,2.95202 23.5,3.5C 29.05,2.95202 33.7167,4.61868 37.5,8.5 Z"/></g>
<g><path style="opacity:0.977" fill="#fed500" d="M 9.5,8.5 C 18.8333,8.5 28.1667,8.5 37.5,8.5C 39.0627,9.94478 40.396,11.6115 41.5,13.5C 32.1667,13.5 22.8333,13.5 13.5,13.5C 12.609,12.8902 11.609,12.5569 10.5,12.5C 9.83333,11.5 9.16667,10.5 8.5,9.5C 8.5,8.83333 8.83333,8.5 9.5,8.5 Z"/></g>
<g><path style="opacity:0.561" fill="#373e41" d="M 8.5,9.5 C 9.16667,10.5 9.83333,11.5 10.5,12.5C 9.39105,12.4431 8.39105,12.1098 7.5,11.5C 7.32842,10.5084 7.66175,9.84171 8.5,9.5 Z"/></g>
<g><path style="opacity:0.955" fill="#e7e7e9" d="M 7.5,11.5 C 8.39105,12.1098 9.39105,12.4431 10.5,12.5C 11.2623,14.2624 12.5956,15.2624 14.5,15.5C 15.2623,17.2624 16.5956,18.2624 18.5,18.5C 19.9397,20.3879 21.6064,22.0546 23.5,23.5C 21.6064,24.9454 19.9397,26.6121 18.5,28.5C 16.5956,28.7376 15.2623,29.7376 14.5,31.5C 12.5956,31.7376 11.2623,32.7376 10.5,34.5C 9.39105,34.5569 8.39105,34.8902 7.5,35.5C 4.10313,32.3139 2.76979,28.3139 3.5,23.5C 2.76979,18.6861 4.10313,14.6861 7.5,11.5 Z"/></g>
<g><path style="opacity:0.835" fill="#3a3e3c" d="M 10.5,12.5 C 11.609,12.5569 12.609,12.8902 13.5,13.5C 13.8333,14.1667 14.1667,14.8333 14.5,15.5C 12.5956,15.2624 11.2623,14.2624 10.5,12.5 Z"/></g>
<g><path style="opacity:0.984" fill="#d30000" d="M 13.5,13.5 C 22.8333,13.5 32.1667,13.5 41.5,13.5C 42.1667,15.1667 42.8333,16.8333 43.5,18.5C 35.1667,18.5 26.8333,18.5 18.5,18.5C 17.7377,16.7376 16.4044,15.7376 14.5,15.5C 14.1667,14.8333 13.8333,14.1667 13.5,13.5 Z"/></g>
<g><path style="opacity:0.835" fill="#39363b" d="M 14.5,15.5 C 16.4044,15.7376 17.7377,16.7376 18.5,18.5C 16.5956,18.2624 15.2623,17.2624 14.5,15.5 Z"/></g>
<g><path style="opacity:0.984" fill="#263238" d="M 18.5,18.5 C 26.8333,18.5 35.1667,18.5 43.5,18.5C 43.5,21.8333 43.5,25.1667 43.5,28.5C 35.1667,28.5 26.8333,28.5 18.5,28.5C 19.9397,26.6121 21.6064,24.9454 23.5,23.5C 21.6064,22.0546 19.9397,20.3879 18.5,18.5 Z"/></g>
<g><path style="opacity:1" fill="#d2301a" d="M 9.5,20.5 C 9.5,22.5 9.5,24.5 9.5,26.5C 7.33693,27.2806 7.0036,26.4472 8.5,24C 4.24428,21.2771 4.57761,20.1104 9.5,20.5 Z"/></g>
<g><path style="opacity:1" fill="#d21f0d" d="M 14.5,22.5 C 12.1667,22.1667 10.8333,20.8333 10.5,18.5C 10.369,17.7611 10.5357,17.0944 11,16.5C 11.7441,19.2934 13.5774,20.7934 16.5,21C 15.9558,21.7172 15.2891,22.2172 14.5,22.5 Z"/></g>
<g><path style="opacity:1" fill="#ce980d" d="M 10.5,18.5 C 10.8333,20.8333 12.1667,22.1667 14.5,22.5C 14.0986,23.991 13.932,25.6577 14,27.5C 12.6439,26.6198 11.1439,26.2865 9.5,26.5C 9.5,24.5 9.5,22.5 9.5,20.5C 9.32842,19.5084 9.66175,18.8417 10.5,18.5 Z"/></g>
<g><path style="opacity:0.984" fill="#d30000" d="M 18.5,28.5 C 26.8333,28.5 35.1667,28.5 43.5,28.5C 42.8333,30.1667 42.1667,31.8333 41.5,33.5C 32.1667,33.5 22.8333,33.5 13.5,33.5C 13.8333,32.8333 14.1667,32.1667 14.5,31.5C 16.4044,31.2624 17.7377,30.2624 18.5,28.5 Z"/></g>
<g><path style="opacity:0.835" fill="#373439" d="M 18.5,28.5 C 17.7377,30.2624 16.4044,31.2624 14.5,31.5C 15.2623,29.7376 16.5956,28.7376 18.5,28.5 Z"/></g>
<g><path style="opacity:0.835" fill="#373c39" d="M 14.5,31.5 C 14.1667,32.1667 13.8333,32.8333 13.5,33.5C 12.609,34.1098 11.609,34.4431 10.5,34.5C 11.2623,32.7376 12.5956,31.7376 14.5,31.5 Z"/></g>
<g><path style="opacity:0.977" fill="#fed500" d="M 13.5,33.5 C 22.8333,33.5 32.1667,33.5 41.5,33.5C 40.396,35.3885 39.0627,37.0552 37.5,38.5C 28.1667,38.5 18.8333,38.5 9.5,38.5C 8.83333,38.5 8.5,38.1667 8.5,37.5C 9.16667,36.5 9.83333,35.5 10.5,34.5C 11.609,34.4431 12.609,34.1098 13.5,33.5 Z"/></g>
<g><path style="opacity:0.827" fill="#373f3f" d="M 10.5,34.5 C 9.83333,35.5 9.16667,36.5 8.5,37.5C 7.66175,37.1583 7.32842,36.4916 7.5,35.5C 8.39105,34.8902 9.39105,34.5569 10.5,34.5 Z"/></g>
<g><path style="opacity:0.942" fill="#1b5c1f" d="M 9.5,38.5 C 18.8333,38.5 28.1667,38.5 37.5,38.5C 33.7167,42.3813 29.05,44.048 23.5,43.5C 17.95,44.048 13.2833,42.3813 9.5,38.5 Z"/></g>
</svg>
